<?xml version="1.0" encoding="UTF-8"?>
<!-- Created with Inkscape (http://www.inkscape.org/) -->
<svg id="svg4874" width="96" height="96" version="1.1" viewBox="0 0 96 96" xmlns="http://www.w3.org/2000/svg" xmlns:cc="http://creativecommons.org/ns#" xmlns:dc="http://purl.org/dc/elements/1.1/" xmlns:rdf="http://www.w3.org/1999/02/22-rdf-syntax-ns#">
 <metadata id="metadata4879">
  <rdf:RDF>
   <cc:Work rdf:about="">
    <dc:format>image/svg+xml</dc:format>
    <dc:type rdf:resource="http://purl.org/dc/dcmitype/StillImage"/>
    <dc:title/>
   </cc:Work>
  </rdf:RDF>
 </metadata>
 <g id="layer1" transform="translate(67.857 -78.505)">
  <g id="g4845" transform="matrix(0 -1 -1 0 373.51 516.51)">
   <g id="g4778" transform="matrix(-.9996 0 0 1 575.94 -611)">
    <g id="g4780" transform="matrix(-1 0 0 1 576 611)">
     <rect id="rect4782" transform="scale(-1,1)" x="-438" y="345.36" width="96.038" height="96" style="color:#000000;fill:none"/>
     <path id="path4185-2" d="m434 399.99c9.2e-4 0.43204 0 0.85245-0.0189 1.257-0.0619 1.9415-0.28416 3.5074-0.49652 4.2627-0.44904 1.6002-1.3706 3.3912-2.7884 4.377-0.94693 0.66113-2.1636 1.0621-3.8585 1.0654-0.9592 0-3.1876-0.0134-5.1954-0.0378-2.014-0.0243-3.8463-0.0384-3.8586-0.0384-1.7931 9.2e-4 -3.2448 1.4407-3.247 3.235v8.2211c0 1.7558-0.29653 3.0858-0.76376 4.1105-0.46773 1.0263-1.088 1.7695-1.8339 2.3218-1.4814 1.0993-3.2917 1.2987-5.1572 1.2941 0 0-1.5568-0.0147-4.5074-0.38084-2.283-0.30429-18.223-2.7954-23.073-5.1382-1.8873-0.90846-2.683-1.4881-3.5148-3.2728-1.7086-3.9763-3.5814-13.061-4.1257-17.318-0.54582-4.2492-1.7023-6.936 1.6424-8.5253 0.0126-7e-3 0.81582-0.29277 2.0245-0.7234 4.1968-1.3799 7.9255-1.5984 10.62-1.5984 0.27397 0 0.28656-0.3803 0-0.3803-1.9024 0-8.6232 0.34716-10.429-4.7196-0.71201-2.0002-1.3376-6.1364-1.8335-10.352-0.4396-3.8122-1.9495-6.5844-11.766-6.5844-5.9725 0-6.7995 1.2688-6.7995 7.8025 0 5.2963-0.13604 7.3073 4.0875 7.3073 3.4132 0 3.056-3.3682 3.056-5.861 0-1.1134 0.83555-0.3048 2.9414-0.3048 2.0949 0 3.2929-1.3106 3.3237-0.076 0.23796 8.6199 0.0116 13.702-10.811 13.702-9.8228 0-11.651-3.7514-11.651-15.985 0-9.5921 0.3104-12.976 12.645-16.937 2.435-0.78401 9.8707-2.697 22.348-3.844 7.8886-0.72538 31.695 0.70894 37.704 1.8265 3.5124 0.65374 5.2792 2.7247 5.9598 4.6058 0.73615 2.0295 1.4894 6.1329 2.1012 11.303 0.49168 4.1598 0.43541 9.074 0.34377 12.027 2.4368 0.35443 4.6536 2.0525 5.4242 3.9579 1.1217 2.7763 1.5003 6.376 1.5083 9.4003zm-2.3842 12.537c0 0.0315-0.021 0.0633-0.0525 0.0947l-15.915 15.991c-0.0262 0.0312-0.0599 0.051-0.0944 0.0598 0.16429-0.33071 0.38891-0.78284 0.41715-0.84679 0.63044-1.3923 0.97599-3.0807 0.97611-5.1016v-9.3e-4 -5e-3 -7.3033c0-1.1536 0.74338-1.7781 1.7816-1.7781 0 0 6.1559 0.0998 8.1246 0.0998h0.0242c1.6169 0 3.0266-0.33789 4.208-0.92679l0.53031-0.28168zm-34.184-38.238c-9.2e-4 -0.10894 0-0.22033-0.0116-0.33072-0.13498-3.9103-3.8291-4.4392-6.3418-4.4531 0.73793 1.6488 1.2208 3.6762 1.2991 5.8993 0.0409 1.185-0.0588 2.3243-0.22936 3.3872 2.2733-0.28042 5.039-1.1653 5.272-4.1866 0.0116-0.10069 0.0116-0.20709 0.0116-0.31606z" style="fill:#808080;stroke-width:1.0002"/>
    </g>
   </g>
  </g>
 </g>
</svg>
