<?xml version="1.0" encoding="UTF-8"?>
<!-- Created with Inkscape (http://www.inkscape.org/) -->
<svg id="svg4874" width="96" height="96" version="1.1" viewBox="0 0 96 96" xmlns="http://www.w3.org/2000/svg" xmlns:cc="http://creativecommons.org/ns#" xmlns:dc="http://purl.org/dc/elements/1.1/" xmlns:rdf="http://www.w3.org/1999/02/22-rdf-syntax-ns#" xmlns:xlink="http://www.w3.org/1999/xlink">
 <defs id="defs4876">
  <clipPath id="SVGID_1_-55">
   <use id="use4676-9" width="100%" height="100%" overflow="visible" xlink:href="#SVGID_11_-4"/>
  </clipPath>
  <clipPath id="SVGID_1_-9">
   <use id="use4676-81" width="100%" height="100%" overflow="visible" xlink:href="#SVGID_11_-4"/>
  </clipPath>
  <clipPath id="SVGID_1_-6">
   <use id="use4676-93" width="100%" height="100%" overflow="visible" xlink:href="#SVGID_11_-4"/>
  </clipPath>
  <clipPath id="SVGID_1_-47">
   <use id="use4676-0" width="100%" height="100%" overflow="visible" xlink:href="#SVGID_11_-4"/>
  </clipPath>
 </defs>
 <metadata id="metadata4879">
  <rdf:RDF>
   <cc:Work rdf:about="">
    <dc:format>image/svg+xml</dc:format>
    <dc:type rdf:resource="http://purl.org/dc/dcmitype/StillImage"/>
    <dc:title/>
   </cc:Work>
  </rdf:RDF>
 </metadata>
 <g id="layer1" transform="translate(67.857 -78.505)">
  <g id="g4845" transform="matrix(0 -1 -1 0 373.51 516.51)">
   <g id="g4778" transform="matrix(-.9996 0 0 1 575.94 -611)">
    <g id="g4780" transform="matrix(-1 0 0 1 576 611)">
     <path id="rect4796" transform="matrix(0 -1 -1.0004 0 438 441.36)" d="m16.002 8c-2.2169 0-4.002 1.784-4.002 4v16c0 2.216 1.7851 4 4.002 4h63.996c2.2169 0 4.002-1.784 4.002-4v-16c0-2.216-1.7851-4-4.002-4h-63.996zm13.998 3a3 3 0 0 1 3 3 3 3 0 0 1-3 3 3 3 0 0 1-3-3 3 3 0 0 1 3-3zm35 0a3 3 0 0 1 3 3 3 3 0 0 1-3 3 3 3 0 0 1-3-3 3 3 0 0 1 3-3z" style="color:#000000;fill:#808080;opacity:.4"/>
     <rect id="rect4782" transform="scale(-1,1)" x="-438" y="345.36" width="96.038" height="96" style="color:#000000;fill:none"/>
     <path id="path4679" transform="matrix(0 -1.7143 -1.715 0 772.99 404.79)" d="m32 11.709c-6.7875 0-12.291 5.5035-12.291 12.291l0.23047 84.291h152.35v-84.291c0-6.7875-5.5035-12.291-12.291-12.291zm0 0.58203h128c6.4725 0 11.709 5.2365 11.709 11.709v83.709h-151.19l-0.23047-83.709c0-6.4725 5.2365-11.709 11.709-11.709z" clip-path="url(#SVGID_1_-55)" style="color-rendering:auto;color:#000000;dominant-baseline:auto;enable-background:new;font-feature-settings:normal;font-variant-alternates:normal;font-variant-caps:normal;font-variant-ligatures:normal;font-variant-numeric:normal;font-variant-position:normal;image-rendering:auto;isolation:auto;mix-blend-mode:normal;shape-padding:0;shape-rendering:auto;solid-color:#000000;text-decoration-color:#000000;text-decoration-line:none;text-decoration-style:solid;text-indent:0;text-orientation:mixed;text-transform:none;white-space:normal"/>
     <path id="path4679-2" transform="matrix(0 -1.7143 -1.715 0 346.54 349.93)" d="m160 12h-128c-6.63 0-12 5.37-12 12l0.23 84h151.77v-84c0-6.63-5.37-12-12-12z" clip-path="url(#SVGID_1_-9)" style="enable-background:new;fill:#c2c2c2;stroke-width:.58333"/>
     <path id="path4679-0" transform="matrix(0 -1.7143 -1.715 0 346.54 349.93)" d="m160 12h-128c-6.63 0-12 5.37-12 12l0.23 84h151.77v-84c0-6.63-5.37-12-12-12z" clip-path="url(#SVGID_1_-6)" style="enable-background:new;fill:#c2c2c2;stroke-width:.58333"/>
     <path id="path4679-9" transform="matrix(0 -1.7143 -1.715 0 346.54 349.93)" d="m160 12h-128c-6.63 0-12 5.37-12 12l0.23 84h151.77v-84c0-6.63-5.37-12-12-12z" clip-path="url(#SVGID_1_-47)" style="enable-background:new;fill:#c2c2c2;stroke-width:.58333"/>
     <path id="path4683" d="m418.28 427.65c0 3.1571-2.5584 5.7145-5.7168 5.7145-0.26678 0-0.52854-0.0193-0.78102-0.0526l-27.802-3.7571-28.187 1.8907c-0.13338 0.01-0.26173 0.0141-0.39512 0.0141-3.1584 0-5.7168-2.5568-5.7168-5.714v-64.762c0-3.1571 2.5584-5.714 5.7168-5.714 0.13339 0 0.26174 5e-3 0.39512 0.0141l28.187 1.8907 27.802-3.7571c0.25725-0.0333 0.51901-0.0526 0.78102-0.0526 3.1584 0 5.7168 2.5574 5.7168 5.7145zm-17.15-23.219c0-6.3333-3.5966-10.086-9.4466-10.086-3.7967 0-6.3216 2.9575-7.2696 5.2479-0.60976-2.081-2.6676-5.7525-7.8172-5.7525-0.99891 0-1.9239 0.11642-2.774 0.33529-0.34003 0.0876-0.66808 0.19152-0.984 0.31087-3.949 1.4918-6.0077 5.3964-6.0077 9.9202 0 5.0572 2.7151 10.514 9.2653 10.581v-4.1189c-4.1159 0-5.9453-3.0813-5.9453-6.467 0-3.8238 2.0057-6.4665 6.3551-6.4665 3.3204 0 6.1884 1.8192 6.1884 7.3334v2.857h3.206v-2.857c0-3.7476 1.853-6.824 5.8736-6.824s6.012 2.162 6.012 5.9858c0 3.7813-2.3406 5.8967-5.2788 6.1464-0.19588 0.0166-0.39472 0.025-0.59539 0.025v4.0956c5.4641 0 9.218-4.586 9.218-10.267zm0-28.495v-0.66677h-34.299v4.2855h29.026l-2.8679 8.5715h3.8541z" style="enable-background:new;fill:#808080;stroke-width:1.0002"/>
    </g>
   </g>
  </g>
 </g>
</svg>
