<?xml version="1.0" encoding="UTF-8"?>
<!-- Created with Inkscape (http://www.inkscape.org/) -->
<svg id="svg4479" width="90" height="90" version="1.1" viewBox="0 0 90 90" xmlns="http://www.w3.org/2000/svg" xmlns:cc="http://creativecommons.org/ns#" xmlns:dc="http://purl.org/dc/elements/1.1/" xmlns:rdf="http://www.w3.org/1999/02/22-rdf-syntax-ns#">
 <metadata id="metadata4484">
  <rdf:RDF>
   <cc:Work rdf:about="">
    <dc:format>image/svg+xml</dc:format>
    <dc:type rdf:resource="http://purl.org/dc/dcmitype/StillImage"/>
    <dc:title/>
   </cc:Work>
  </rdf:RDF>
 </metadata>
 <g id="layer1" transform="translate(833.57 -695.93)">
  <rect id="rect4807" x="-833.57" y="695.93" width="90" height="90" style="fill:none"/>
  <path id="path28" d="m-821.9 701.94c-2.108 0-5.6715 2.8097-5.6715 4.9176v6.2792c9e-3 -0.013 0.0164-0.018 0.0274-0.029 6.6609-5.5401 13.969-6.4645 20.097-6.5794h24.698l-6.5614 5.3177h-7.1607c2.8684 2.4983 7.1478 6.9676 7.1478 14.927 0 8.718-4.5723 12.85-9.4804 16.732-1.5189 1.5294-3.2706 3.1835-3.2706 5.7797 0 2.5887 1.7514 4.003 3.0343 5.0644l4.212 3.2925c5.1389 4.3627 11.855 8.3735 11.853 16.504 0 2.1792-0.35578 3.5586-1.0417 5.7835h-6.9904 35.536c3.123 0 5.8928-3.5056 5.8928-6.6801v-45.778h-12.911v14.888h-6.324v-14.888h-14.756v-6.1917h14.756v-14.756h6.324v14.756h12.911v-14.427c0-2.1079-2.7594-4.9177-4.8673-4.9177h-67.455zm30.893 77.995c0.0234-0.3318 0.0224-0.5519 0.0224-1.1878 0-6.0198-5.7122-9.1927-14.598-15.559-0.93144-0.1195-1.5159-0.1195-2.6781-0.1195-1.0564 0-7.3679 0.2356-12.275 1.8874-1.6869 0.6189-4.6248 1.0137-7.0358 4.305v3.9987c1e-5 2.9111 3.8144 6.6757 6.7255 6.6757h29.839zm-22.433-69.419c-3.041 0-6.3081 1.5305-8.1816 3.8884-1.9867 2.4759-2.2928 5.6515-2.2928 8.722 0 7.8906 4.1256 19.565 14.176 19.565 2.9192 0 5.9138-0.7476 7.835-2.9481 2.1931-2.5238 3.0528-5.8453 3.0528-7.5449 0-8.4861-4.8956-21.682-14.589-21.682zm-14.132 33.066c0.0184 3.875 0.019 19.502 0.019 19.502 6.6715-2.8791 13.535-3.0141 18.001-3.3172-1.6385-2.125-3.5058-4.3596-3.5058-8.0096 0-2.0028 0.58559-3.1825 1.1688-4.5991-1.2882 0.1168-2.5687 0.2375-3.7394 0.2375-5.3029 0-8.7411-1.1381-11.944-3.814z" style="fill:#808080"/>
 </g>
</svg>
