<?xml version="1.0" encoding="UTF-8"?>
<!-- Created with Inkscape (http://www.inkscape.org/) -->
<svg id="svg4874" width="96" height="96" version="1.1" viewBox="0 0 96 96" xmlns="http://www.w3.org/2000/svg" xmlns:cc="http://creativecommons.org/ns#" xmlns:dc="http://purl.org/dc/elements/1.1/" xmlns:rdf="http://www.w3.org/1999/02/22-rdf-syntax-ns#">
 <metadata id="metadata4879">
  <rdf:RDF>
   <cc:Work rdf:about="">
    <dc:format>image/svg+xml</dc:format>
    <dc:type rdf:resource="http://purl.org/dc/dcmitype/StillImage"/>
    <dc:title/>
   </cc:Work>
  </rdf:RDF>
 </metadata>
 <g id="layer1" transform="translate(67.857 -78.505)">
  <g id="g4845" transform="matrix(0 -1 -1 0 373.51 516.51)">
   <g id="g4778" transform="matrix(-.9996 0 0 1 575.94 -611)">
    <g id="g4780" transform="matrix(-1 0 0 1 576 611)">
     <path id="path4163" d="m436 407.39c-0.0582 5.0328 0.11655 8.7153-1.5455 11.727-0.83104 1.5056-2.2347 2.6969-3.9899 3.3555-1.7552 0.6586-3.838 0.89648-6.4694 0.89648h-68.029c-2.6314 0-4.7122-0.23788-6.4674-0.89648-1.7552-0.65861-3.1627-1.8498-3.9938-3.3555-1.6621-3.0112-1.4834-6.6938-1.5416-11.727v-0.0117-28.021-0.0117c0.0582-5.0328-0.12045-8.7153 1.5416-11.727 0.83104-1.5056 2.2386-2.6969 3.9938-3.3555s3.836-0.89648 6.4674-0.89648h68.029c2.6314 0 4.7142 0.23788 6.4694 0.89648s3.1588 1.8498 3.9899 3.3555c1.6621 3.0112 1.4873 6.6938 1.5455 11.727v0.0117 28.021 0.0117z" style="block-progression:tb;color-rendering:auto;color:#000000;fill:#2ab7ec;image-rendering:auto;isolation:auto;mix-blend-mode:normal;shape-padding:0;shape-rendering:auto;solid-color:#000000;text-decoration-color:#000000;text-decoration-line:none;text-decoration-style:solid;text-indent:0;text-transform:none;white-space:normal"/>
     <path id="path4161" transform="matrix(0 -1 -1.0004 0 438 441.36)" d="m46 14.916v4.9434 24.465l-12.102-12.1-2.957 2.9551 12.816 12.818-12.816 12.818 2.957 2.9551 12.102-12.1v24.463 4.9434l3.5352-3.4648 13.393-13.395 1.4141-1.4805-1.4141-1.4863-12.818-12.818v-0.87109l12.818-12.82 1.4141-1.4824-1.4141-1.4844-13.393-13.391-3.5352-3.4688zm4.1094 9.957 1.0684 1.0664 7.3203 7.3203-8.3887 8.3867v-16.773zm0 29.477 1.0684 1.0664 7.3203 7.3223-8.3887 8.3848v-16.773z" style="block-progression:tb;color-rendering:auto;color:#000000;fill:#fff;image-rendering:auto;isolation:auto;mix-blend-mode:normal;shape-padding:0;shape-rendering:auto;solid-color:#000000;text-decoration-color:#000000;text-decoration-line:none;text-decoration-style:solid;text-indent:0;text-transform:none;white-space:normal"/>
     <rect id="rect4782" transform="scale(-1,1)" x="-438" y="345.36" width="96.038" height="96" style="color:#000000;fill:none"/>
    </g>
   </g>
  </g>
 </g>
</svg>
