<?xml version="1.0" encoding="UTF-8"?>
<!-- Created with Inkscape (http://www.inkscape.org/) -->
<svg id="svg4874" width="96" height="96" version="1.1" viewBox="0 0 96 96" xmlns="http://www.w3.org/2000/svg" xmlns:cc="http://creativecommons.org/ns#" xmlns:dc="http://purl.org/dc/elements/1.1/" xmlns:rdf="http://www.w3.org/1999/02/22-rdf-syntax-ns#">
 <metadata id="metadata4879">
  <rdf:RDF>
   <cc:Work rdf:about="">
    <dc:format>image/svg+xml</dc:format>
    <dc:type rdf:resource="http://purl.org/dc/dcmitype/StillImage"/>
    <dc:title/>
   </cc:Work>
  </rdf:RDF>
 </metadata>
 <g id="layer1" transform="translate(67.857 -78.505)">
  <g id="g4845" transform="matrix(0 -1 -1 0 373.51 516.51)">
   <g id="g4778" transform="matrix(-.9996 0 0 1 575.94 -611)">
    <g id="g4780" transform="matrix(-1 0 0 1 576 611)">
     <rect id="rect4782" transform="scale(-1)" x="-438" y="-441.36" width="96.038" height="96" style="color:#000000;fill:none"/>
     <path id="path4157" d="m416.02 368.86c-0.0215 0.0161-0.0354 0.0404-0.0567 0.0566-0.0253 0.0201-0.057 0.0305-0.0821 0.0508z" style="fill:#808080"/>
     <path id="path4344" d="m416.03 417.91-0.13873-0.10742c0.0251 0.0203 0.0569 0.0307 0.0821 0.0508 0.0214 0.0162 0.0353 0.0405 0.0567 0.0566z" style="fill:#808080"/>
     <path id="path4279" d="m434 355.65h-88.033s20.782 44.782 44.014 75.425c23.232-30.642 44.019-75.425 44.019-75.425z" style="color:#000000;fill:#808080"/>
    </g>
   </g>
  </g>
 </g>
</svg>
