<?xml version="1.0" encoding="UTF-8"?>
<!-- Created with Inkscape (http://www.inkscape.org/) -->
<svg id="svg3140" width="90" height="90" version="1.1" xmlns="http://www.w3.org/2000/svg" xmlns:cc="http://creativecommons.org/ns#" xmlns:dc="http://purl.org/dc/elements/1.1/" xmlns:rdf="http://www.w3.org/1999/02/22-rdf-syntax-ns#">
 <metadata id="metadata3145">
  <rdf:RDF>
   <cc:Work rdf:about="">
    <dc:format>image/svg+xml</dc:format>
    <dc:type rdf:resource="http://purl.org/dc/dcmitype/StillImage"/>
    <dc:title/>
   </cc:Work>
  </rdf:RDF>
 </metadata>
 <g id="layer1" transform="translate(0 -962.36)">
  <rect id="rect4198" y="962.36" width="90" height="90" style="color:#000000;fill:none"/>
  <path id="path3759" transform="translate(0 962.36)" d="m35.914 6v9c0 4.8365-4.0776 8.9141-8.9141 8.9141s-8.9141-4.0776-8.9141-8.9141v-8.5469c-10.527 1.0769-12.086 4.7731-12.086 17.547v42c0 18 3 18 30 18h18c27 0 30 0 30-18v-42c0-12.774-1.5592-16.47-12.086-17.547v8.5469c0 4.8365-4.0776 8.9141-8.9141 8.9141s-8.9141-4.0776-8.9141-8.9141v-9h-0.085938-18-0.085938zm0.085938 24h18c24 0 24-2e-5 24 12v24c0 12 0 12-24 12h-18c-24 0-24 0-24-12v-24c0-12 0-12 24-12z" style="fill:#808080"/>
  <path id="path4041-9" d="m68.17 998.36-0.36068 0.31559-25.918 22.702-15.193-13.033-4.593 5.194 19.79 20.822 30.105-31.679-3.8303-4.3206z" style="fill:#808080"/>
  <rect id="rect4114" x="24" y="962.36" width="6" height="18" ry="3" style="color:#000000;fill:#808080"/>
  <rect id="rect4122" x="60" y="962.36" width="6" height="18" ry="3" style="color:#000000;fill:#808080"/>
 </g>
</svg>
