<?xml version="1.0" encoding="UTF-8"?>
<!-- Created with Inkscape (http://www.inkscape.org/) -->
<svg id="svg3140" width="90" height="90" version="1.1" xmlns="http://www.w3.org/2000/svg" xmlns:cc="http://creativecommons.org/ns#" xmlns:dc="http://purl.org/dc/elements/1.1/" xmlns:rdf="http://www.w3.org/1999/02/22-rdf-syntax-ns#">
 <metadata id="metadata3145">
  <rdf:RDF>
   <cc:Work rdf:about="">
    <dc:format>image/svg+xml</dc:format>
    <dc:type rdf:resource="http://purl.org/dc/dcmitype/StillImage"/>
    <dc:title/>
   </cc:Work>
  </rdf:RDF>
 </metadata>
 <g id="layer1" transform="translate(0 -962.36)">
  <rect id="rect4198" y="962.36" width="90" height="90" style="color:#000000;fill:none"/>
  <g id="g4978" transform="translate(-60 548)">
   <path id="path2989" transform="translate(60 414.36)" d="m45 6c-21.539 0-39 17.461-39 39s17.461 39 39 39c21.539 0 39-17.461 39-39s-17.461-39-39-39zm0 9c16.569 0 30 13.431 30 30s-13.431 30-30 30c-16.569 0-30-13.431-30-30s13.431-30 30-30z" style="color:#000000;fill:#808080"/>
   <rect id="rect3011" transform="matrix(.70711 -.70711 .70711 .70711 0 0)" x="-284.32" y="394.56" width="67.5" height="9" style="color:#000000;fill:#808080"/>
   <rect id="rect3032" transform="translate(60 414.36)" y="1.7383e-5" width="90" height="90" style="color:#000000;fill:none"/>
  </g>
 </g>
</svg>
