<?xml version="1.0" encoding="UTF-8"?>
<!-- Created with Inkscape (http://www.inkscape.org/) -->
<svg id="svg3242" width="90" height="90" version="1.1" xmlns="http://www.w3.org/2000/svg" xmlns:cc="http://creativecommons.org/ns#" xmlns:dc="http://purl.org/dc/elements/1.1/" xmlns:rdf="http://www.w3.org/1999/02/22-rdf-syntax-ns#">
 <metadata id="metadata3247">
  <rdf:RDF>
   <cc:Work rdf:about="">
    <dc:format>image/svg+xml</dc:format>
    <dc:type rdf:resource="http://purl.org/dc/dcmitype/StillImage"/>
    <dc:title/>
   </cc:Work>
  </rdf:RDF>
 </metadata>
 <g id="layer1" transform="translate(-2.6172e-6 -962.36)">
  <g id="g4255" transform="matrix(-1 0 0 1 90 96)">
   <rect id="rect4257" y="866.36" width="90" height="90" style="fill:none;opacity:.4"/>
   <path id="path4259" d="m70.726 950.36c-28.771 0-64.726-38.048-64.726-64.639 0-2.0851 7.9904-17.042 12.528-12.511 6.2638 6.2554 12.528 18.766 10.44 22.936-1.7607 3.5167-8.3518 2.2229-8.3518 6.2554 0 4.0325 9.0477 9.0356 14.616 14.596 5.5678 5.5604 14.846 18.766 18.791 18.766 4.1677 0 3.2501-6.6029 6.2638-8.3405 4.0655-2.3441 16.703 4.1702 22.967 10.426 4.1759 4.1702-10.44 12.511-12.528 12.511z" style="fill:#808080"/>
  </g>
  <path id="path4091" transform="matrix(.83333 0 0 .83333 1 963.36)" d="m18 12a6 6 0 1 1-12 0 6 6 0 1 1 12 0z" style="color:#000000;fill:#808080"/>
  <path id="path4109" transform="matrix(.83333 0 0 .83333 15 963.36)" d="m18 12a6 6 0 1 1-12 0 6 6 0 1 1 12 0z" style="color:#000000;fill:#808080"/>
  <path id="path4111" transform="matrix(.83333 0 0 .83333 29 963.36)" d="m18 12a6 6 0 1 1-12 0 6 6 0 1 1 12 0z" style="color:#000000;fill:#808080"/>
  <path id="path4113" transform="matrix(.83333 0 0 .83333 1 977.36)" d="m18 12a6 6 0 1 1-12 0 6 6 0 1 1 12 0z" style="color:#000000;fill:#808080"/>
  <path id="path4115" transform="matrix(.83333 0 0 .83333 15 977.36)" d="m18 12a6 6 0 1 1-12 0 6 6 0 1 1 12 0z" style="color:#000000;fill:#808080"/>
  <path id="path4117" transform="matrix(.83333 0 0 .83333 29 977.36)" d="m18 12a6 6 0 1 1-12 0 6 6 0 1 1 12 0z" style="color:#000000;fill:#808080"/>
  <path id="path4119" transform="matrix(.83333 0 0 .83333 1 991.36)" d="m18 12a6 6 0 1 1-12 0 6 6 0 1 1 12 0z" style="color:#000000;fill:#808080"/>
  <path id="path4121" transform="matrix(.83333 0 0 .83333 15 991.36)" d="m18 12a6 6 0 1 1-12 0 6 6 0 1 1 12 0z" style="color:#000000;fill:#808080"/>
  <path id="path4123" transform="matrix(.83333 0 0 .83333 29 991.36)" d="m18 12a6 6 0 1 1-12 0 6 6 0 1 1 12 0z" style="color:#000000;fill:#808080"/>
 </g>
</svg>
