<?xml version="1.0" encoding="UTF-8"?>
<!-- Created with Inkscape (http://www.inkscape.org/) -->
<svg id="svg3289" width="90" height="90" version="1.1" xmlns="http://www.w3.org/2000/svg" xmlns:cc="http://creativecommons.org/ns#" xmlns:dc="http://purl.org/dc/elements/1.1/" xmlns:rdf="http://www.w3.org/1999/02/22-rdf-syntax-ns#">
 <metadata id="metadata3294">
  <rdf:RDF>
   <cc:Work rdf:about="">
    <dc:format>image/svg+xml</dc:format>
    <dc:type rdf:resource="http://purl.org/dc/dcmitype/StillImage"/>
    <dc:title/>
   </cc:Work>
  </rdf:RDF>
 </metadata>
 <g id="layer1" transform="translate(0 -962.36)">
  <g id="g4451" transform="translate(-789 604.36)">
   <g id="g4143" transform="matrix(1.875 0 0 1.875 249 -1435.2)">
    <rect id="rect4145" transform="translate(0 804.36)" x="288" y="152" width="48" height="48" style="fill:none;opacity:.21171"/>
   </g>
   <path id="path3008" transform="translate(789 358)" d="m44.938 3c-1.4391 0.0026013-15.431 22.683-16.594 23.531s-26.995 7.2243-27.438 8.5938c-0.44222 1.3694 16.772 21.663 17.219 23.031 0.44717 1.3678-1.447 27.937-0.28125 28.781s25.78-9.2786 27.219-9.2812 26.119 10.035 27.281 9.1875-0.84847-27.412-0.40625-28.781 17.603-21.726 17.156-23.094-26.303-7.6562-27.469-8.5-15.248-23.471-16.688-23.469zm0.0625 12 10 15c1.4362 2.3432 3.1831 3.1458 5.375 3.875l17.375 4.8125-11.094 14.188c-1.7898 2.1061-2.1749 4.2-2.0625 6.4375l0.8125 18-16.938-6.1875c-2.4512-0.9909-4.4444-0.93228-6.8125 0.03125l-16.875 6.2812 0.6875-18c0.15451-2.8055-0.54801-4.4914-2.125-6.5l-11.125-14.156 17.344-4.8438c2.6025-0.76847 3.9853-2.0045 5.4375-3.9375l10-15z" style="color:#000000;fill:#808080"/>
   <rect id="rect2989" transform="translate(789 358)" y="-3.7276e-6" width="90" height="90" style="color:#000000;fill:none"/>
  </g>
 </g>
</svg>
