<?xml version="1.0" encoding="UTF-8"?>
<!-- Created with Inkscape (http://www.inkscape.org/) -->
<svg id="svg3376" width="90" height="90" version="1.1" xmlns="http://www.w3.org/2000/svg" xmlns:cc="http://creativecommons.org/ns#" xmlns:dc="http://purl.org/dc/elements/1.1/" xmlns:rdf="http://www.w3.org/1999/02/22-rdf-syntax-ns#">
 <defs id="defs3378">
  <clipPath id="clipPath3008-8">
   <path id="path3010-4" d="m222.01 818.38v53.968h126v-53.968h-41.618c-2.3377 3.8156-5.017 7.3019-8.2185 10.221-3.2833 2.9932-7.3229 5.8744-13.188 5.8744s-9.9045-2.8812-13.188-5.8744c-3.2015-2.9186-5.8808-6.4049-8.2185-10.221h-41.57z" style="color:#000000;fill:#f0f"/>
  </clipPath>
 </defs>
 <metadata id="metadata3381">
  <rdf:RDF>
   <cc:Work rdf:about="">
    <dc:format>image/svg+xml</dc:format>
    <dc:type rdf:resource="http://purl.org/dc/dcmitype/StillImage"/>
    <dc:title/>
   </cc:Work>
  </rdf:RDF>
 </metadata>
 <g id="layer1" transform="translate(0 -962.36)">
  <g id="g4142" transform="translate(-480,48)">
   <rect id="rect4006" x="480" y="914.36" width="90" height="90" style="color:#000000;fill:none"/>
   <rect id="rect4012" x="543.01" y="962.36" width="5.9899" height="42" style="color:#000000;fill:#808080"/>
   <rect id="rect4014" transform="rotate(90)" x="980.36" y="-567" width="6" height="42" style="color:#000000;fill:#808080"/>
   <path id="rect3461-3-1" transform="translate(480 914.36)" d="m20.281 36.625c-11.266 0.88563-14.281 4.9745-14.281 13.562v3.9375c0 5.8889-0.004408 5.875 7.8438 5.875h35.312c7.8482 0 7.8438 0.013888 7.8438-5.875v-3.9375c0-8.6253-3.0187-12.701-14.406-13.562-0.7676 0.92147-1.5894 1.7917-2.4688 2.5938-2.1473 1.9585-4.7893 3.8438-8.625 3.8438s-6.4777-1.8853-8.625-3.8438c-0.87435-0.79748-1.6737-1.6781-2.4375-2.5938-0.049875 0.003772-0.1067-0.003895-0.15625 0z" style="color:#000000;fill:#808080"/>
   <path id="path3447-0-6" d="m511.5 914.36c-9.6428-2e-5 -13.5 3.8948-13.5 13.632v1.9474c0 7.7895 7.7369 21.421 13.511 21.421 5.7744 0 13.489-13.632 13.489-21.421v-1.9474c0-9.7368-3.8572-13.632-13.5-13.632z" style="color:#000000;fill:#808080"/>
  </g>
 </g>
 <g id="layer2" style="display:none">
  <rect id="rect4006-1" y="1.5822e-6" width="90" height="90" style="color:#000000;display:inline;fill:none"/>
  <rect id="rect4012-2" x="63.01" y="48" width="5.9899" height="42" style="color:#000000;display:inline;fill:#808080"/>
  <rect id="rect4014-9" transform="rotate(90)" x="66" y="-87" width="6" height="42" style="color:#000000;display:inline;fill:#808080"/>
  <path id="rect3461-3-1-0" transform="matrix(.65401 0 0 .65432 -154.89 -502.95)" d="m246 851.36c0 9 0 9 12 9h54c12 0 12 0 12-9v-6c0-15-6-21-30-21h-18c-24 0-30 6-30 21z" clip-path="url(#clipPath3008-8)" style="color:#000000;display:inline;fill:#808080"/>
  <path id="path3447-0-6-2" d="m31.5 0c-9.6428-2e-5 -13.5 3.8948-13.5 13.632v1.9474c0 7.7895 7.7369 21.421 13.511 21.421 5.7744 0 13.489-13.632 13.489-21.421v-1.9474c0-9.7368-3.8572-13.632-13.5-13.632z" style="color:#000000;display:inline;fill:#808080"/>
 </g>
</svg>
