<?xml version="1.0" encoding="UTF-8"?>
<!-- Created with Inkscape (http://www.inkscape.org/) -->
<svg id="svg3133" width="90" height="90" version="1.1" xmlns="http://www.w3.org/2000/svg" xmlns:cc="http://creativecommons.org/ns#" xmlns:dc="http://purl.org/dc/elements/1.1/" xmlns:rdf="http://www.w3.org/1999/02/22-rdf-syntax-ns#" xmlns:xlink="http://www.w3.org/1999/xlink">
 <metadata id="metadata3138">
  <rdf:RDF>
   <cc:Work rdf:about="">
    <dc:format>image/svg+xml</dc:format>
    <dc:type rdf:resource="http://purl.org/dc/dcmitype/StillImage"/>
    <dc:title/>
   </cc:Work>
  </rdf:RDF>
 </metadata>
 <g id="layer1" transform="translate(-2.98e-6 -962.36)">
  <g id="g3842" transform="matrix(.99934 0 0 1 -106.93 549)">
   <rect id="rect3844" transform="scale(1,-1)" x="107" y="-503.36" width="90.059" height="90" style="color:#000000;fill:none;opacity:.05"/>
   <path id="path2995" transform="matrix(.81739 0 0 .80636 122.6 428.93)" d="m69 36.5a33 33.5 0 1 1-66 0 33 33.5 0 1 1 66 0z" style="color:#000000;fill:none;stroke-width:14.786;stroke:#808080"/>
   <path id="rect840" d="m152.02 416.36c8.3452 0 10.013 0 10.013 8v6c0 3.324-4.4599 6-9.9998 6h-0.0133c-5.5399 0-9.9998-2.676-9.9998-6v-6c-4e-5 -8 1.6546-8 9.9998-8z" style="color:#000000;fill:#808080"/>
   <path id="path837" d="m152.04 500.36c-8.3452 0-10.013 0-10.013-8v-6c0-3.324 4.4599-6 9.9998-6h0.0133c5.5399 0 9.9998 2.676 9.9998 6v6c4e-5 8-1.6546 8-9.9998 8z" style="color:#000000;fill:#808080"/>
   <path id="path847" d="m188.42 437.36c4.1726 7.2224 5.0066 8.6659-1.9262 12.666l-5.1996 3c-2.8806 1.662-7.4295-0.85987-10.199-5.6544l-7e-3 -0.0115c-2.7699-4.7945-2.6809-9.9924 0.19967-11.654l5.1996-3c6.9331-4 7.7604-2.5681 11.933 4.6544z" style="color:#000000;fill:#808080"/>
   <path id="path849" d="m115.64 479.37c-4.1726-7.2224-5.0066-8.6659 1.9262-12.666l5.1996-3c2.8806-1.662 7.4295 0.85988 10.199 5.6544l7e-3 0.0115c2.7699 4.7945 2.6809 9.9924-0.19967 11.654l-5.1996 3c-6.9331 4-7.7604 2.5681-11.933-4.6544z" style="color:#000000;fill:#808080"/>
   <path id="path851" d="m188.43 479.36c-4.1726 7.2224-5.0066 8.6659-11.939 4.6659l-5.1996-3c-2.8806-1.662-2.9696-6.8599-0.19967-11.654l6e-3 -0.0118c2.7699-4.7945 7.3189-7.3164 10.199-5.6544l5.1996 3c6.9334 4.0002 6.1061 5.4322 1.9335 12.655z" style="color:#000000;fill:#808080"/>
   <path id="path853" d="m115.63 437.37c4.1726-7.2224 5.0066-8.6659 11.939-4.6659l5.1996 3c2.8806 1.662 2.9696 6.8599 0.19967 11.654l-6e-3 0.0118c-2.7699 4.7945-7.3189 7.3164-10.199 5.6544l-5.1996-3c-6.9334-4.0002-6.1061-5.4322-1.9335-12.655z" style="color:#000000;fill:#808080"/>
  </g>
 </g>
</svg>
