<?xml version="1.0" encoding="UTF-8"?>
<!-- Created with Inkscape (http://www.inkscape.org/) -->
<svg id="svg4874" width="96" height="96" version="1.1" viewBox="0 0 96 96" xmlns="http://www.w3.org/2000/svg" xmlns:cc="http://creativecommons.org/ns#" xmlns:dc="http://purl.org/dc/elements/1.1/" xmlns:rdf="http://www.w3.org/1999/02/22-rdf-syntax-ns#">
 <metadata id="metadata4879">
  <rdf:RDF>
   <cc:Work rdf:about="">
    <dc:format>image/svg+xml</dc:format>
    <dc:type rdf:resource="http://purl.org/dc/dcmitype/StillImage"/>
    <dc:title/>
   </cc:Work>
  </rdf:RDF>
 </metadata>
 <g id="layer1" transform="translate(67.857 -78.505)">
  <rect id="rect4782-8" transform="rotate(90)" x="78.505" y="-28.143" width="96" height="96" style="color:#000000;fill:none"/>
  <path id="path4527" d="m-2.8572 88.505c-4.4183 0-8 3.5817-8 8 0 4.4183 3.5817 8 8 8s8-3.5817 8-8c0-4.4183-3.5817-8-8-8z" style="color:#000000;fill:#808080"/>
  <path id="path4518" d="m-27.727 98.505-15.13 29h14.199 22.367l-11.183-21.435-3.1522 6.0418z" style="color:#000000;fill:#808080"/>
  <path id="path4105" d="m-52.857 80.505v66h66v-66zm4 4h58v49h-58z" style="color:#000000;fill:#808080"/>
  <path id="path5588-9-2-4" d="m-7.826 152.5-24 8e-3c1.6688 3.6501 3.536 7.366 5.5988 11.149 2.0677 3.7477 4.2005 7.3628 6.4003 10.843 2.1557-3.48 4.268-7.0951 6.3358-10.843 2.0639-3.7854 3.9519-7.5034 5.6651-11.155z" style="color:#000000;fill:#808080"/>
 </g>
</svg>
