<?xml version="1.0" encoding="UTF-8"?>
<!-- Created with Inkscape (http://www.inkscape.org/) -->
<svg id="svg4874" width="96" height="96" version="1.1" viewBox="0 0 96 96" xmlns="http://www.w3.org/2000/svg" xmlns:cc="http://creativecommons.org/ns#" xmlns:dc="http://purl.org/dc/elements/1.1/" xmlns:rdf="http://www.w3.org/1999/02/22-rdf-syntax-ns#">
 <metadata id="metadata4879">
  <rdf:RDF>
   <cc:Work rdf:about="">
    <dc:format>image/svg+xml</dc:format>
    <dc:type rdf:resource="http://purl.org/dc/dcmitype/StillImage"/>
    <dc:title/>
   </cc:Work>
  </rdf:RDF>
 </metadata>
 <g id="layer1" transform="translate(67.857 -78.505)">
  <rect id="rect4782-63" transform="rotate(90)" x="78.505" y="-28.143" width="96" height="96" style="color:#000000;fill:none"/>
  <path id="path4643-4" d="m4.1643 86.505c5.0327 0.0582 8.7153-0.11849 11.727 1.543 1.5056 0.83071 2.6969 2.2358 3.3555 3.9902 0.65862 1.7545 0.89651 3.8364 0.89651 6.4668v20 16h-4.002v-12-4-20c0-2.3696-0.2502-4.0227-0.64063-5.0625-0.39031-1.0398-0.80946-1.4879-1.543-1.8926-1.4645-0.80804-4.7768-0.9881-9.8164-1.0469h-0.0227-47.953-0.02268c-5.0383 0.0588-8.3521 0.23898-9.8164 1.0469-0.73349 0.40471-1.1526 0.85279-1.543 1.8926-0.39031 1.0398-0.64063 2.6929-0.64063 5.0625v20 12c0 2.3696 0.2502 4.0227 0.64063 5.0625 0.39031 1.0398 0.80946 1.4879 1.543 1.8926 1.4643 0.80792 4.7782 0.98811 9.8164 1.0469h0.02268 37.953 0.02268c2.408-0.028 4.3939-0.0879 6-0.22658v4.0957c-1.7677 0.11644-3.7319 0.10295-5.9766 0.12888h-0.01134-38.021-0.01134c-5.0327-0.0582-8.7153 0.11845-11.727-1.543-1.5056-0.83071-2.6969-2.2358-3.3555-3.9902-0.65862-1.7545-0.8965-3.8364-0.8965-6.4668v-12-20c0-2.6304 0.23773-4.7123 0.8965-6.4668 0.65858-1.7545 1.8499-3.1595 3.3555-3.9902 3.0112-1.6614 6.6938-1.4848 11.727-1.543h0.01134 48.021z" style="color-rendering:auto;color:#000000;fill:#808080;image-rendering:auto;isolation:auto;mix-blend-mode:normal;shape-rendering:auto;solid-color:#000000;text-decoration-color:#000000;text-decoration-line:none;text-decoration-style:solid;text-indent:0;text-transform:none;white-space:normal"/>
  <path id="path4237-8" d="m8.7919 96.229-28.596 17.26-28.596-17.26-1.4584 2.157 30.055 21.669 30.055-21.592z" style="fill:#808080"/>
  <path id="path4122-84" d="m10.141 147.51c0 6.0003-2.5625 9.9699-6.2324 11.896-3.6699 1.9258-8.0773 2.2315-12.285 2.1046h-33.16v-4.0004h33.16c4.0482 0 7.9022-0.32156 10.426-1.6458 2.5236-1.3243 4.0898-3.3542 4.0898-8.3541v-21.001h4.0019z" style="color-rendering:auto;color:#000000;fill:#808080;font-feature-settings:normal;font-variant-alternates:normal;font-variant-caps:normal;font-variant-ligatures:none;font-variant-numeric:normal;font-variant-position:normal;image-rendering:auto;isolation:auto;mix-blend-mode:normal;shape-padding:0;shape-rendering:auto;solid-color:#000000;text-decoration-color:#000000;text-decoration-line:none;text-decoration-style:solid;text-indent:0;text-transform:none;white-space:normal"/>
  <path id="path4549" d="m-31.837 149.51-0.0038 20c-2.9866-1.3906-6.0272-2.9466-9.1228-4.6656-3.0666-1.7232-6.0246-3.5004-8.8722-5.3336 2.8475-1.7965 5.8056-3.5567 8.8722-5.2798 3.0973-1.72 6.1396-3.2932 9.1278-4.721z" style="color:#000000;fill:#808080"/>
 </g>
</svg>
