<?xml version="1.0" encoding="UTF-8"?>
<!-- Created with Inkscape (http://www.inkscape.org/) -->
<svg id="svg4874" width="96" height="96" version="1.1" viewBox="0 0 96 96" xmlns="http://www.w3.org/2000/svg" xmlns:cc="http://creativecommons.org/ns#" xmlns:dc="http://purl.org/dc/elements/1.1/" xmlns:rdf="http://www.w3.org/1999/02/22-rdf-syntax-ns#">
 <metadata id="metadata4879">
  <rdf:RDF>
   <cc:Work rdf:about="">
    <dc:format>image/svg+xml</dc:format>
    <dc:type rdf:resource="http://purl.org/dc/dcmitype/StillImage"/>
    <dc:title/>
   </cc:Work>
  </rdf:RDF>
 </metadata>
 <g id="layer1" transform="translate(67.857 -78.505)">
  <rect id="rect4782-00" transform="matrix(0,1,1,0,0,0)" x="78.505" y="-67.857" width="96" height="96" style="color:#000000;fill:none"/>
  <circle id="path4178-6" cx="-19.857" cy="126.51" r="8" style="color:#000000;fill:#808080"/>
  <path id="path5588-9-2-96-57" d="m-54.786 88.463 16.965 16.976c-3.761 1.401-7.7088 2.7082-11.843 3.9248-4.1122 1.1879-8.1765 2.2361-12.193 3.1414 0.93642-3.9851 1.9991-8.035 3.187-12.147 1.2172-4.136 2.5112-8.1001 3.8821-11.894z" style="color:#000000;fill:#808080"/>
  <path id="path4228" d="m-20.297 84.512c6.4491-0.06917 12.962 1.3433 19.012 4.3262 16.133 7.9544 25.416 25.317 23.068 43.148-2.3479 17.831-15.811 32.202-33.453 35.711-17.642 3.5086-35.578-4.618-44.572-20.193l3.4648-2c8.1446 14.104 24.352 21.447 40.328 18.27 15.976-3.1774 28.139-16.162 30.266-32.309 2.1261-16.147-6.2616-31.836-20.871-39.039s-32.165-4.3052-43.684 7.2109l-2.8281-2.8281c7.9497-7.9482 18.521-12.182 29.27-12.297z" style="color-rendering:auto;color:#000000;dominant-baseline:auto;fill:#808080;font-feature-settings:normal;font-variant-alternates:normal;font-variant-caps:normal;font-variant-ligatures:normal;font-variant-numeric:normal;font-variant-position:normal;image-rendering:auto;isolation:auto;mix-blend-mode:normal;shape-padding:0;shape-rendering:auto;solid-color:#000000;text-decoration-color:#000000;text-decoration-line:none;text-decoration-style:solid;text-indent:0;text-orientation:mixed;text-transform:none;white-space:normal"/>
 </g>
</svg>
