<?xml version="1.0" encoding="UTF-8"?>
<!-- Created with Inkscape (http://www.inkscape.org/) -->
<svg id="svg4874" width="96" height="96" version="1.1" viewBox="0 0 96 96" xmlns="http://www.w3.org/2000/svg" xmlns:cc="http://creativecommons.org/ns#" xmlns:dc="http://purl.org/dc/elements/1.1/" xmlns:rdf="http://www.w3.org/1999/02/22-rdf-syntax-ns#">
 <metadata id="metadata4879">
  <rdf:RDF>
   <cc:Work rdf:about="">
    <dc:format>image/svg+xml</dc:format>
    <dc:type rdf:resource="http://purl.org/dc/dcmitype/StillImage"/>
    <dc:title/>
   </cc:Work>
  </rdf:RDF>
 </metadata>
 <g id="layer1" transform="translate(67.857 -78.505)">
  <rect id="rect4782" transform="rotate(90)" x="78.505" y="-28.143" width="96" height="96" style="color:#000000;fill:none"/>
  <path id="rect4747-4" d="m-21.857 84.505 4-1v35h-4z" style="color:#000000;fill:#808080"/>
  <path id="path4145" d="m-37.852 95.303c-14.099 8.1442-20.983 24.771-16.77 40.504s18.484 26.688 34.764 26.688c16.28 0 30.55-10.955 34.764-26.688s-2.669-32.36-16.768-40.504l-2.002 3.4629c12.547 7.2481 18.656 22.003 14.906 36.006-3.7501 14.003-16.412 23.723-30.9 23.723-14.488 0-27.148-9.7195-30.898-23.723-3.7501-14.003 2.3571-28.758 14.904-36.006l-2-3.4629z" style="block-progression:tb;color-rendering:auto;color:#000000;fill:#808080;font-feature-settings:normal;font-variant-alternates:normal;font-variant-caps:normal;font-variant-ligatures:none;font-variant-numeric:normal;font-variant-position:normal;image-rendering:auto;isolation:auto;mix-blend-mode:normal;shape-padding:0;shape-rendering:auto;solid-color:#000000;text-decoration-color:#000000;text-decoration-line:none;text-decoration-style:solid;text-indent:0;text-transform:none;white-space:normal"/>
 </g>
</svg>
