<?xml version="1.0" encoding="UTF-8"?>
<!-- Created with Inkscape (http://www.inkscape.org/) -->
<svg id="svg4874" width="96" height="96" version="1.1" viewBox="0 0 96 96" xmlns="http://www.w3.org/2000/svg" xmlns:cc="http://creativecommons.org/ns#" xmlns:dc="http://purl.org/dc/elements/1.1/" xmlns:rdf="http://www.w3.org/1999/02/22-rdf-syntax-ns#">
 <metadata id="metadata4879">
  <rdf:RDF>
   <cc:Work rdf:about="">
    <dc:format>image/svg+xml</dc:format>
    <dc:type rdf:resource="http://purl.org/dc/dcmitype/StillImage"/>
    <dc:title/>
   </cc:Work>
  </rdf:RDF>
 </metadata>
 <g id="layer1" transform="translate(67.857 -78.505)">
  <rect id="rect4782" transform="rotate(90)" x="78.505" y="-28.143" width="96" height="96" style="color:#000000;fill:none"/>
  <path id="path4209" transform="translate(-67.857 78.505)" d="m51.461 8-39.584 39.584c-6.0898 6.0899-4.5683 7.6114 1.5215 13.701l21.316 21.316c6.0898 6.0899 7.6114 7.6112 13.701 1.5215l39.584-39.584v-31.973c0-1.5225-0.38135-2.6626-1.1426-3.4238-0.76123-0.76122-1.9014-1.1426-3.4238-1.1426h-31.973zm1.6895 3.9941h30.307l0.54297 0.005859 0.005859 0.54297v30.307l-38.406 38.408c-2.983 2.9651-4.1973 2.2988-8.0195-1.5234l-21.314-21.316c-3.9055-3.9055-4.4771-5.0639-1.5234-8.0176l38.408-38.406z" style="color:#000000;fill:#808080"/>
  <path id="path4207" d="m5.2158 96.506a5.0002 5.0002 0 0 1 3.4627 1.4639 5.0002 5.0002 0 0 1 0 7.0712 5.0002 5.0002 0 0 1-7.0712 0 5.0002 5.0002 0 0 1 0-7.0712 5.0002 5.0002 0 0 1 3.6085-1.4639z" style="color:#000000;fill:#808080"/>
  <path id="path4217" d="m-13.271 108.09-27 27 2.8281 2.8281 27-27-2.8281-2.8281z" style="block-progression:tb;color-rendering:auto;color:#000000;fill:#808080;font-feature-settings:normal;font-variant-alternates:normal;font-variant-caps:normal;font-variant-ligatures:none;font-variant-numeric:normal;font-variant-position:normal;image-rendering:auto;isolation:auto;mix-blend-mode:normal;shape-padding:0;shape-rendering:auto;solid-color:#000000;text-decoration-color:#000000;text-decoration-line:none;text-decoration-style:solid;text-indent:0;text-transform:none;white-space:normal"/>
  <path id="path4219" d="m-13.271 126.09-18 18 2.8281 2.8281 18-18-2.8281-2.8281z" style="block-progression:tb;color-rendering:auto;color:#000000;fill:#808080;font-feature-settings:normal;font-variant-alternates:normal;font-variant-caps:normal;font-variant-ligatures:none;font-variant-numeric:normal;font-variant-position:normal;image-rendering:auto;isolation:auto;mix-blend-mode:normal;shape-padding:0;shape-rendering:auto;solid-color:#000000;text-decoration-color:#000000;text-decoration-line:none;text-decoration-style:solid;text-indent:0;text-transform:none;white-space:normal"/>
 </g>
</svg>
