<?xml version="1.0" encoding="UTF-8"?>
<!-- Created with Inkscape (http://www.inkscape.org/) -->
<svg id="svg4874" width="96" height="96" version="1.1" viewBox="0 0 96 96" xmlns="http://www.w3.org/2000/svg" xmlns:cc="http://creativecommons.org/ns#" xmlns:dc="http://purl.org/dc/elements/1.1/" xmlns:rdf="http://www.w3.org/1999/02/22-rdf-syntax-ns#">
 <metadata id="metadata4879">
  <rdf:RDF>
   <cc:Work rdf:about="">
    <dc:format>image/svg+xml</dc:format>
    <dc:type rdf:resource="http://purl.org/dc/dcmitype/StillImage"/>
    <dc:title/>
   </cc:Work>
  </rdf:RDF>
 </metadata>
 <g id="layer1" transform="translate(67.857 -78.505)">
  <rect id="rect4782" transform="rotate(90)" x="78.505" y="-28.143" width="96" height="96" style="color:#000000;fill:none"/>
  <path id="path4643" d="m-38.828 94.504c-3.971 0.04591-6.9155-0.12972-9.4551 1.2715-1.2698 0.7006-2.2916 1.9086-2.8398 3.3691-0.54825 1.4605-0.73438 3.1517-0.73438 5.2559v44.211c0 2.1041 0.18612 3.7934 0.73438 5.2539 0.54825 1.4605 1.57 2.6686 2.8398 3.3692 2.5396 1.4012 5.4841 1.2256 9.4551 1.2715h0.01172 37.918 0.011719c3.971-0.0459 6.9155 0.12972 9.4551-1.2715 1.2698-0.70061 2.2916-1.9086 2.8398-3.3692 0.54825-1.4605 0.73438-3.1498 0.73438-5.2539v-44.211c0-2.1041-0.18612-3.7953-0.73438-5.2559-0.54825-1.4605-1.57-2.6685-2.8398-3.3691-2.5396-1.4012-5.4841-1.2256-9.4551-1.2715h-0.011719-37.918-0.01172zm0.02344 4h37.895c3.9762 0.04667 6.5534 0.22528 7.5469 0.77344 0.49794 0.27474 0.7475 0.52794 1.0273 1.2734 0.27984 0.7455 0.47852 2.0064 0.47852 3.8496v44.211c0 1.8433-0.19867 3.1022-0.47852 3.8476-0.27984 0.7455-0.5294 0.99871-1.0273 1.2734-0.99351 0.54817-3.5707 0.72678-7.5469 0.77344h-37.871-0.02344c-3.9762-0.0467-6.5534-0.22528-7.5469-0.77344-0.49794-0.27473-0.74555-0.52795-1.0254-1.2734-0.27984-0.74548-0.48047-2.0044-0.48047-3.8476v-44.211c0-1.8433 0.20062-3.1041 0.48047-3.8496 0.27984-0.74549 0.52745-0.9987 1.0254-1.2734 0.99351-0.54816 3.5707-0.72677 7.5469-0.77344z" style="block-progression:tb;color-rendering:auto;color:#000000;fill:#808080;font-feature-settings:normal;font-variant-alternates:normal;font-variant-caps:normal;font-variant-ligatures:none;font-variant-numeric:normal;font-variant-position:normal;image-rendering:auto;isolation:auto;mix-blend-mode:normal;shape-padding:0;shape-rendering:auto;solid-color:#000000;text-decoration-color:#000000;text-decoration-line:none;text-decoration-style:solid;text-indent:0;text-transform:none;white-space:normal"/>
  <rect id="rect4174" x="-35.857" y="124.51" width="32" height="4" style="color:#000000;fill:#808080"/>
 </g>
</svg>
