<?xml version="1.0" encoding="UTF-8"?>
<!-- Created with Inkscape (http://www.inkscape.org/) -->
<svg id="svg4874" width="96" height="96" version="1.1" viewBox="0 0 96 96" xmlns="http://www.w3.org/2000/svg" xmlns:cc="http://creativecommons.org/ns#" xmlns:dc="http://purl.org/dc/elements/1.1/" xmlns:rdf="http://www.w3.org/1999/02/22-rdf-syntax-ns#">
 <metadata id="metadata4879">
  <rdf:RDF>
   <cc:Work rdf:about="">
    <dc:format>image/svg+xml</dc:format>
    <dc:type rdf:resource="http://purl.org/dc/dcmitype/StillImage"/>
    <dc:title/>
   </cc:Work>
  </rdf:RDF>
 </metadata>
 <g id="layer1" transform="translate(67.857 -78.505)">
  <rect id="rect4782" transform="rotate(90)" x="78.505" y="-28.143" width="96" height="96" style="color:#000000;fill:none"/>
  <path id="path3782" transform="translate(-67.857 78.505)" d="m21 26c-11.574 0-21 9.4257-21 21s9.4257 21 21 21h54c11.574 0 21-9.4257 21-21s-9.4257-21-21-21c-11.574 0-21 9.4257-21 21 0 6.9901 3.4517 13.18 8.7246 17h-29.449c5.2729-3.8198 8.7246-10.01 8.7246-17 0-11.574-9.4257-21-21-21zm0 4c9.4125 0 17 7.5875 17 17s-7.5875 17-17 17-17-7.5875-17-17 7.5875-17 17-17zm54 0c9.4125 0 17 7.5875 17 17s-7.5875 17-17 17-17-7.5875-17-17 7.5875-17 17-17z" style="block-progression:tb;color-rendering:auto;color:#000000;fill:#808080;font-feature-settings:normal;font-variant-alternates:normal;font-variant-caps:normal;font-variant-ligatures:none;font-variant-numeric:normal;font-variant-position:normal;image-rendering:auto;isolation:auto;mix-blend-mode:normal;shape-padding:0;shape-rendering:auto;solid-color:#000000;text-decoration-color:#000000;text-decoration-line:none;text-decoration-style:solid;text-indent:0;text-transform:none;white-space:normal"/>
 </g>
</svg>
