<?xml version="1.0" encoding="UTF-8"?>
<!-- Created with Inkscape (http://www.inkscape.org/) -->
<svg id="svg4874" width="96" height="96" version="1.1" viewBox="0 0 96 96" xmlns="http://www.w3.org/2000/svg" xmlns:cc="http://creativecommons.org/ns#" xmlns:dc="http://purl.org/dc/elements/1.1/" xmlns:rdf="http://www.w3.org/1999/02/22-rdf-syntax-ns#">
 <metadata id="metadata4879">
  <rdf:RDF>
   <cc:Work rdf:about="">
    <dc:format>image/svg+xml</dc:format>
    <dc:type rdf:resource="http://purl.org/dc/dcmitype/StillImage"/>
    <dc:title/>
   </cc:Work>
  </rdf:RDF>
 </metadata>
 <g id="layer1" transform="translate(67.857 -78.505)">
  <path id="path4643-3" transform="translate(-67.857 78.505)" d="m31.988 3.998-0.011719 0.0019531c-5.0328 0.05818-8.7136-0.12027-11.725 1.541-1.5055 0.83064-2.6968 2.2356-3.3555 3.9902-0.65866 1.7547-0.89648 3.8364-0.89648 6.4668v64.002c0 2.6304 0.23782 4.7121 0.89648 6.4668 0.65866 1.7546 1.85 3.1596 3.3555 3.9902 3.011 1.6613 6.6918 1.4848 11.725 1.543h0.011719 24.012v-4h-23.977-0.023438c-5.0383-0.0588-8.3519-0.23688-9.8164-1.0449-0.73364-0.40478-1.1508-0.85491-1.541-1.8945-0.39025-1.0396-0.64258-2.691-0.64258-5.0605v-64.002c0-2.3696 0.25232-4.0209 0.64258-5.0605 0.39025-1.0396 0.80738-1.4898 1.541-1.8945 1.4645-0.80805 4.7782-0.98616 9.8164-1.0449h29.172l14.828 14.83v35.172h4v-36.83l-17.172-17.172h-30.84zm4.6328 36-0.011719 0.001953c-2.3783 0.0275-4.2183-0.14974-6.0508 0.86133-0.91625 0.50553-1.6838 1.4221-2.0664 2.4414-0.38263 1.0193-0.49219 2.1189-0.49219 3.4336v26.525c0 1.3146 0.10956 2.4143 0.49219 3.4336 0.38263 1.0193 1.1502 1.9378 2.0664 2.4434 1.8325 1.0111 3.6724 0.83385 6.0508 0.86133h0.011719 19.379v-4-8-4h-24v-8h24v-2-2-8.002h3.3457c2.3997 0.0277 3.8753 0.20589 4.1641 0.36523 0.14439 0.0797 0.13968 0.0395 0.25391 0.34375 0.11423 0.3043 0.23633 0.97552 0.23633 2.0293v11.264h4v-11.264c0-1.3147-0.10956-2.4143-0.49219-3.4336-0.38263-1.0193-1.1482-1.9359-2.0645-2.4414-1.8325-1.0111-3.6724-0.83385-6.0508-0.86133l-0.011719-0.001953h-22.76zm0.033203 4h3.3457v8.002h-8v-5.2637c0-1.0538 0.1221-1.725 0.23633-2.0293 0.11422-0.30429 0.10951-0.26408 0.25391-0.34375 0.28879-0.15934 1.7643-0.33749 4.1641-0.36523zm7.3457 0h8v8.002h-8v-8.002zm-12 24.002h8v8h-3.3457c-2.3997-0.0277-3.8753-0.20589-4.1641-0.36523-0.14439-0.0797-0.13968-0.03951-0.25391-0.34375-0.11423-0.3043-0.23633-0.97552-0.23633-2.0293v-5.2617zm12 0h8v8h-8v-8z" style="block-progression:tb;color-rendering:auto;color:#000000;fill:#808080;image-rendering:auto;isolation:auto;mix-blend-mode:normal;shape-rendering:auto;solid-color:#000000;text-decoration-color:#000000;text-decoration-line:none;text-decoration-style:solid;text-indent:0;text-transform:none;white-space:normal"/>
  <rect id="rect4782" transform="rotate(90)" x="78.505" y="-28.143" width="96" height="96" style="color:#000000;fill:none"/>
  <path id="path4177" d="m-3.0128 142.51-2.8443 2.8443 13.157 13.157-13.157 13.157 2.8443 2.8423 13.157-13.157 13.155 13.157 2.8443-2.8423-13.157-13.157 13.157-13.157-2.8443-2.8443-13.155 13.157z" style="block-progression:tb;color-rendering:auto;color:#000000;fill:#808080;image-rendering:auto;isolation:auto;mix-blend-mode:normal;shape-rendering:auto;solid-color:#000000;text-decoration-color:#000000;text-decoration-line:none;text-decoration-style:solid;text-indent:0;text-transform:none;white-space:normal"/>
 </g>
</svg>
