<?xml version="1.0" encoding="UTF-8"?>
<!-- Created with Inkscape (http://www.inkscape.org/) -->
<svg id="svg4874" width="96" height="96" version="1.1" viewBox="0 0 96 96" xmlns="http://www.w3.org/2000/svg" xmlns:cc="http://creativecommons.org/ns#" xmlns:dc="http://purl.org/dc/elements/1.1/" xmlns:rdf="http://www.w3.org/1999/02/22-rdf-syntax-ns#">
 <metadata id="metadata4879">
  <rdf:RDF>
   <cc:Work rdf:about="">
    <dc:format>image/svg+xml</dc:format>
    <dc:type rdf:resource="http://purl.org/dc/dcmitype/StillImage"/>
    <dc:title/>
   </cc:Work>
  </rdf:RDF>
 </metadata>
 <g id="layer1" transform="translate(67.857 -78.505)">
  <rect id="rect4782-53" transform="rotate(90)" x="78.505" y="-28.143" width="96" height="96" style="color:#000000;fill:none"/>
  <path id="rect4171" transform="translate(-67.857 78.505)" d="m26.934 9.9668c-3.7658 1.6051-7.5739 3.3461-11.422 5.2207-3.8665 1.9076-7.5498 3.861-11.053 5.8613v0.001953l7.5586 5.3164c-5.0297 8.1463-7.1831 17.861-5.9082 27.545 1.7041 12.944 9.3341 24.365 20.641 30.893l2-3.4648c-10.233-5.9078-17.132-16.235-18.674-27.949-1.1431-8.683 0.76167-17.387 5.2227-24.715l8.7891 6.1816c0.73629-3.9453 1.3492-8.0588 1.8398-12.34 0.46617-4.2549 0.80177-8.4388 1.0059-12.551zm42.316 1.2266-2 3.4629c10.232 5.9077 17.134 16.235 18.676 27.949 1.1185 8.4961-0.68849 17.01-4.9453 24.238l-8.332-5.7305c-0.69452 3.9528-1.2636 8.0734-1.709 12.359-0.42119 4.2596-0.71242 8.4467-0.87305 12.561 3.7487-1.6447 7.5372-3.4267 11.365-5.3418 3.8461-1.9483 7.5086-3.9393 10.99-5.9766l0.001953-0.001953-8.1387-5.5977c4.8069-8.0401 6.8538-17.549 5.6055-27.031-1.7041-12.944-9.3341-24.363-20.641-30.891zm-21.25 12.807c-6.6134 0-12 5.3866-12 12v7h-4v25h32v-25h-4v-7c0-6.6134-5.3866-12-12-12zm0 4c4.4666 0 8 3.5334 8 8v7h-16v-7c0-4.4666 3.5334-8 8-8z" style="color:#000000;fill:#808080;opacity:.5"/>
 </g>
</svg>
