<?xml version="1.0" encoding="UTF-8"?>
<!-- Created with Inkscape (http://www.inkscape.org/) -->
<svg id="svg4874" width="72" height="72" version="1.1" viewBox="0 0 72 72" xmlns="http://www.w3.org/2000/svg" xmlns:cc="http://creativecommons.org/ns#" xmlns:dc="http://purl.org/dc/elements/1.1/" xmlns:rdf="http://www.w3.org/1999/02/22-rdf-syntax-ns#">
 <metadata id="metadata4879">
  <rdf:RDF>
   <cc:Work rdf:about="">
    <dc:format>image/svg+xml</dc:format>
    <dc:type rdf:resource="http://purl.org/dc/dcmitype/StillImage"/>
    <dc:title/>
   </cc:Work>
  </rdf:RDF>
 </metadata>
 <g id="layer1" transform="translate(67.857 -102.51)">
  <path id="path4265-0-4" d="m-43.189 102.51v3.711c1.8955 2.5231 3.5711 5.002 5.3988 7.7063v2e-3c2.3819 3.5228 4.718 7.1274 6.811 10.812 2.1347 3.7594 4.7608 8.8798 6.4004 12.396l0.0313 0.0688 0.0459 0.18149v-0.073l0.55907 1.1953-0.55908 1.1933v-0.073l-0.0459 0.18358-0.0313 0.0668c-1.6395 3.5159-4.2657 8.6362-6.4004 12.396-2.0933 3.6854-4.4288 7.2912-6.811 10.814-1.8278 2.7045-3.503 5.1864-5.399 7.7104l1.51e-4 3.707c2.778-3.6168 5.519-7.2421 8.0002-10.942 3.2996-4.9186 6.254-9.6912 8.8639-14.309 2.3316-4.1256 4.0562-7.6069 5.4677-10.75-1.4114-3.1425-3.1365-6.6227-5.4677-10.748-2.6099-4.6174-5.5643-9.388-8.8639-14.307v-2e-3c-2.4813-3.6995-5.2223-7.3248-8.0002-10.942z" style="fill:#808080"/>
  <rect id="rect4782-01" transform="matrix(0,1,1,0,0,0)" x="78.505" y="-67.857" width="96" height="96" style="color:#000000;fill:none"/>
 </g>
</svg>
