<?xml version="1.0" encoding="UTF-8"?>
<!-- Created with Inkscape (http://www.inkscape.org/) -->
<svg id="svg3133" width="90" height="90" version="1.1" xmlns="http://www.w3.org/2000/svg" xmlns:cc="http://creativecommons.org/ns#" xmlns:dc="http://purl.org/dc/elements/1.1/" xmlns:rdf="http://www.w3.org/1999/02/22-rdf-syntax-ns#" xmlns:xlink="http://www.w3.org/1999/xlink">
 <metadata id="metadata3138">
  <rdf:RDF>
   <cc:Work rdf:about="">
    <dc:format>image/svg+xml</dc:format>
    <dc:type rdf:resource="http://purl.org/dc/dcmitype/StillImage"/>
    <dc:title/>
   </cc:Work>
  </rdf:RDF>
 </metadata>
 <g id="layer1" transform="translate(1.7007e-5 -962.36)">
  <g id="g3842" transform="matrix(.99934 0 0 1 -106.93 549)">
   <rect id="rect3844" transform="scale(1,-1)" x="107" y="-503.36" width="90" height="90" style="color:#000000;fill:none;opacity:.05"/>
   <path id="path3008" transform="matrix(1.0007 0 0 1 107 413.36)" d="m45.5 18c-5.2579 0.17782-45.5 23.88-45.5 27-1.4995e-7 3.1196 40.242 26.822 45.5 27 0.017717 5.99e-4 0.04558-6.3e-5 0.0625 0h14.438c27 0 30 0 30-18v-18c0-18-3-18-30-18h-14.438-0.0625zm5.875 9 11.625 11.625 11.625-11.625 6.375 6.375-11.625 11.625 11.625 11.625-6.375 6.375-11.625-11.625-11.625 11.625-6.375-6.375 11.625-11.625-11.625-11.625 6.375-6.375z" style="fill:#808080"/>
  </g>
 </g>
</svg>
