<?xml version="1.0" encoding="UTF-8"?>
<!-- Created with Inkscape (http://www.inkscape.org/) -->
<svg id="svg3537" width="90" height="90" version="1.1" xmlns="http://www.w3.org/2000/svg" xmlns:cc="http://creativecommons.org/ns#" xmlns:dc="http://purl.org/dc/elements/1.1/" xmlns:rdf="http://www.w3.org/1999/02/22-rdf-syntax-ns#">
 <metadata id="metadata3542">
  <rdf:RDF>
   <cc:Work rdf:about="">
    <dc:format>image/svg+xml</dc:format>
    <dc:type rdf:resource="http://purl.org/dc/dcmitype/StillImage"/>
    <dc:title/>
   </cc:Work>
  </rdf:RDF>
 </metadata>
 <g id="layer1" transform="translate(2144 579.35)">
  <rect id="rect4298" x="-2144" y="-579.35" width="90" height="90" style="color:#000000;fill:none;opacity:.01"/>
  <path id="path4300" d="m-2138-565.85c0 7.5 0 7.5 10.5 7.5s10.5 0 10.5-7.5 0-7.5-10.5-7.5-10.5 0-10.5 7.5z" style="color:#000000;fill:#808080"/>
  <path id="path3009" d="m-2108-565.85c0 7.5 0 7.5 10.5 7.5s10.5 0 10.5-7.5 0-7.5-10.5-7.5-10.5 0-10.5 7.5z" style="color:#000000;fill:#808080"/>
  <path id="path3011" d="m-2078-565.85c0 7.5 0 7.5 10.5 7.5s10.5 0 10.5-7.5 0-7.5-10.5-7.5-10.5 0-10.5 7.5z" style="color:#000000;fill:#808080"/>
  <path id="path3013" d="m-2138-544.85c0 7.5 0 7.5 10.5 7.5s10.5 0 10.5-7.5 0-7.5-10.5-7.5-10.5 0-10.5 7.5z" style="color:#000000;fill:#808080"/>
  <path id="path3015" d="m-2108-544.85c0 7.5 0 7.5 10.5 7.5s10.5 0 10.5-7.5 0-7.5-10.5-7.5-10.5 0-10.5 7.5z" style="color:#000000;fill:#808080"/>
  <path id="path3017" d="m-2078-544.85c0 7.5 0 7.5 10.5 7.5s10.5 0 10.5-7.5 0-7.5-10.5-7.5-10.5 0-10.5 7.5z" style="color:#000000;fill:#808080"/>
  <path id="path3019" d="m-2138-523.85c0 7.5 0 7.5 10.5 7.5s10.5 0 10.5-7.5 0-7.5-10.5-7.5-10.5 0-10.5 7.5z" style="color:#000000;fill:#808080"/>
  <path id="path3021" d="m-2108-523.85c0 7.5 0 7.5 10.5 7.5s10.5 0 10.5-7.5 0-7.5-10.5-7.5-10.5 0-10.5 7.5z" style="color:#000000;fill:#808080"/>
  <path id="path3023" d="m-2078-523.85c0 7.5 0 7.5 10.5 7.5s10.5 0 10.5-7.5 0-7.5-10.5-7.5-10.5 0-10.5 7.5z" style="color:#000000;fill:#808080"/>
  <path id="path3025" d="m-2108-502.85c0 7.5 0 7.5 10.5 7.5s10.5 0 10.5-7.5 0-7.5-10.5-7.5-10.5 0-10.5 7.5z" style="color:#000000;fill:#808080"/>
 </g>
</svg>
