<?xml version="1.0" encoding="UTF-8"?>
<!-- Created with Inkscape (http://www.inkscape.org/) -->
<svg id="svg3140" width="90" height="90" version="1.1" xmlns="http://www.w3.org/2000/svg" xmlns:cc="http://creativecommons.org/ns#" xmlns:dc="http://purl.org/dc/elements/1.1/" xmlns:rdf="http://www.w3.org/1999/02/22-rdf-syntax-ns#">
 <metadata id="metadata3145">
  <rdf:RDF>
   <cc:Work rdf:about="">
    <dc:format>image/svg+xml</dc:format>
    <dc:type rdf:resource="http://purl.org/dc/dcmitype/StillImage"/>
    <dc:title/>
   </cc:Work>
  </rdf:RDF>
 </metadata>
 <g id="layer1" transform="translate(0 -962.36)">
  <rect id="rect4198" y="962.36" width="90" height="90" style="color:#000000;fill:none"/>
  <g id="g4978" transform="translate(-60 548)">
   <path id="path3759" d="m66 438.36v42c0 18 3 18 30 18h18c27 0 30 0 30-18v-42c0-18-3-18-30-18h-18c-27 0-30 0-30 18zm30-12h18c24 0 24 0 24 12v42c0 12 0 12-24 12h-18c-24 0-24 0-24-12v-42c0-12 0-12 24-12z" style="fill:#808080"/>
   <rect id="rect3045" transform="translate(60 414.36)" y="1.7383e-5" width="90" height="90" style="color:#000000;fill:none"/>
   <path id="path4041-9" d="m128 440.66-0.375 0.32812-26.947 23.604-15.797-13.551-4.7754 5.4004 20.576 21.648 31.301-32.938-3.9824-4.4922z" style="fill:#808080"/>
  </g>
 </g>
</svg>
