<?xml version="1.0" encoding="UTF-8"?>
<!-- Created with Inkscape (http://www.inkscape.org/) -->
<svg id="svg4874" width="96" height="96" version="1.1" viewBox="0 0 96 96" xmlns="http://www.w3.org/2000/svg" xmlns:cc="http://creativecommons.org/ns#" xmlns:dc="http://purl.org/dc/elements/1.1/" xmlns:rdf="http://www.w3.org/1999/02/22-rdf-syntax-ns#">
 <metadata id="metadata4879">
  <rdf:RDF>
   <cc:Work rdf:about="">
    <dc:format>image/svg+xml</dc:format>
    <dc:type rdf:resource="http://purl.org/dc/dcmitype/StillImage"/>
    <dc:title/>
   </cc:Work>
  </rdf:RDF>
 </metadata>
 <g id="layer1" transform="translate(67.857 -78.505)">
  <rect id="rect4782" transform="rotate(90)" x="78.505" y="-28.143" width="96" height="96" style="color:#000000;fill:none"/>
  <path id="path4197" transform="translate(-67.857 78.505)" d="m48 12.016c-16.384 1e-6 -32.768 6.2422-45.254 18.729l3.5352 3.5352c23.062-23.062 60.376-23.062 83.438 0l3.5371-3.5352c-12.486-12.486-28.872-18.729-45.256-18.729zm0 14c-12.801 0-25.603 4.8763-35.355 14.629l3.5352 3.5352c17.595-17.595 46.046-17.595 63.641 0l3.5352-3.5352c-9.7526-9.7526-22.554-14.629-35.355-14.629zm0 14c-9.2184 0-18.436 3.5084-25.455 10.527l3.5352 3.5352c12.127-12.127 31.713-12.127 43.84 0l3.5371-3.5352c-7.019-7.019-16.239-10.527-25.457-10.527zm0 14c-5.6355 0-11.271 2.1424-15.557 6.4277l3.5352 3.5352c6.6598-6.6599 17.383-6.6598 24.043 0l3.5352-3.5352c-4.2853-4.2853-9.9211-6.4277-15.557-6.4277zm0 13.984a8 8 0 0 0-8 8 8 8 0 0 0 8 8 8 8 0 0 0 8-8 8 8 0 0 0-8-8z" style="color:#000000;fill:#808080"/>
 </g>
</svg>
