<?xml version="1.0" encoding="UTF-8"?>
<!-- Created with Inkscape (http://www.inkscape.org/) -->
<svg id="svg3242" width="90" height="90" version="1.1" xmlns="http://www.w3.org/2000/svg" xmlns:cc="http://creativecommons.org/ns#" xmlns:dc="http://purl.org/dc/elements/1.1/" xmlns:rdf="http://www.w3.org/1999/02/22-rdf-syntax-ns#">
 <metadata id="metadata3247">
  <rdf:RDF>
   <cc:Work rdf:about="">
    <dc:format>image/svg+xml</dc:format>
    <dc:type rdf:resource="http://purl.org/dc/dcmitype/StillImage"/>
    <dc:title/>
   </cc:Work>
  </rdf:RDF>
 </metadata>
 <g id="layer1" transform="translate(-2.6172e-6 -962.36)">
  <g id="g4255" transform="translate(2.6172e-6 96)">
   <rect id="rect4257" y="866.36" width="90" height="90" style="fill:none;opacity:.4"/>
   <path id="path4259" d="m84 937.09c0-28.771-38.048-64.726-64.639-64.726-2.0851 0-17.042 7.9904-12.511 12.528 6.2554 6.2638 18.766 12.528 22.936 10.44 3.5167-1.7607 2.2229-8.3518 6.2554-8.3518 4.0325 0 9.0356 9.0477 14.596 14.616 5.5603 5.5678 18.766 14.846 18.766 18.791 0 4.1677-6.6029 3.2501-8.3405 6.2638-2.3441 4.0655 4.1703 16.703 10.426 22.967 4.1703 4.1759 12.511-10.44 12.511-12.528z" style="fill:#808080"/>
  </g>
 </g>
</svg>
