<?xml version="1.0" encoding="UTF-8"?>
<!-- Created with Inkscape (http://www.inkscape.org/) -->
<svg id="svg3140" width="90" height="90" version="1.1" xmlns="http://www.w3.org/2000/svg" xmlns:cc="http://creativecommons.org/ns#" xmlns:dc="http://purl.org/dc/elements/1.1/" xmlns:rdf="http://www.w3.org/1999/02/22-rdf-syntax-ns#">
 <metadata id="metadata3145">
  <rdf:RDF>
   <cc:Work rdf:about="">
    <dc:format>image/svg+xml</dc:format>
    <dc:type rdf:resource="http://purl.org/dc/dcmitype/StillImage"/>
    <dc:title/>
   </cc:Work>
  </rdf:RDF>
 </metadata>
 <g id="layer1" transform="translate(0 -962.36)">
  <rect id="rect4198" y="962.36" width="89.689" height="90" style="color:#000000;fill:none"/>
  <g id="g4978" transform="translate(-60 548)">
   <path id="path3016" transform="translate(60 414.36)" d="m33 12c-27 0-30 0-30 18v30c0 18 3 18 30 18h15c27 0 30 0 30-18v-30c0-18-3-18-30-18h-15zm31.5 9c2.4853 0 4.5 1.926 4.5 4.4375 0 2.5115-2.0147 4.5625-4.5 4.5625-2.4853 0-4.5-2.051-4.5-4.5625 0-2.5114 2.0147-4.4375 4.5-4.4375zm-41.719 15c1.2646-0.022 2.6562 0 4.2188 0h12c12.5 0 15 1e-5 15 11v11c0 11-2.5 11-15 11h-12c-12.5 0-15-1e-5 -15-11v-11c0-9.625 1.9287-10.85 10.781-11z" style="fill:#808080"/>
   <path id="path3807" transform="matrix(2.5864 0 0 4.1586 -146.01 -264.63)" d="m113.92 179.14c-0.52479 0.30299-8.7464-4.4438-8.7464-5.0498s8.2216-5.3527 8.7464-5.0498c0.52478 0.30299 0.52478 9.7965 0 10.1z" style="color:#000000;fill:#808080"/>
   <path id="path3779" d="m63 456.36h3v-18h-3c-3 0-3 1-3 5v8c2e-5 4 2e-5 5 3 5z" style="fill:#808080"/>
   <rect id="rect3036" transform="translate(60 414.36)" y="1.7383e-5" width="90" height="90" style="color:#000000;fill:none"/>
  </g>
  <rect id="rect3797" x="140" y="962.36" width="89.689" height="90" style="color:#000000;fill:none"/>
 </g>
</svg>
