<?xml version="1.0" encoding="UTF-8"?>
<!-- Created with Inkscape (http://www.inkscape.org/) -->
<svg id="svg3133" width="90" height="90" version="1.1" xmlns="http://www.w3.org/2000/svg" xmlns:cc="http://creativecommons.org/ns#" xmlns:dc="http://purl.org/dc/elements/1.1/" xmlns:rdf="http://www.w3.org/1999/02/22-rdf-syntax-ns#">
 <metadata id="metadata3138">
  <rdf:RDF>
   <cc:Work rdf:about="">
    <dc:format>image/svg+xml</dc:format>
    <dc:type rdf:resource="http://purl.org/dc/dcmitype/StillImage"/>
    <dc:title/>
   </cc:Work>
  </rdf:RDF>
 </metadata>
 <g id="layer1" transform="translate(-2.98e-6 -962.36)">
  <g id="g4978" transform="matrix(.99934 0 0 1 -106.93 549)">
   <path id="path4138" transform="matrix(2.4016 0 0 2.4 23.545 314.96)" d="m56 53.5a2.5 2.5 0 1 1-5 0 2.5 2.5 0 1 1 5 0z" style="color:#000000;fill:#808080"/>
   <rect id="rect4980" x="107" y="413.36" width="90.059" height="90" style="color:#000000;fill:none;opacity:.01"/>
   <path id="path3759" transform="matrix(2.4016 0 0 2.4 5.5335 314.96)" d="m56 53.5a2.5 2.5 0 1 1-5 0 2.5 2.5 0 1 1 5 0z" style="color:#000000;fill:#808080"/>
   <path id="path3761" transform="matrix(2.4016 0 0 2.4 41.557 314.96)" d="m56 53.5a2.5 2.5 0 1 1-5 0 2.5 2.5 0 1 1 5 0z" style="color:#000000;fill:#808080"/>
   <path id="path3763" transform="matrix(2.4016 0 0 2.4 32.551 328.96)" d="m56 53.5a2.5 2.5 0 1 1-5 0 2.5 2.5 0 1 1 5 0z" style="color:#000000;fill:#808080"/>
   <path id="path3765" transform="matrix(2.4016 0 0 2.4 14.539 328.96)" d="m56 53.5a2.5 2.5 0 1 1-5 0 2.5 2.5 0 1 1 5 0z" style="color:#000000;fill:#808080"/>
   <path id="path3767" transform="matrix(2.4016 0 0 2.4 23.545 341.96)" d="m56 53.5a2.5 2.5 0 1 1-5 0 2.5 2.5 0 1 1 5 0z" style="color:#000000;fill:#808080"/>
  </g>
 </g>
</svg>
