<?xml version="1.0" encoding="UTF-8"?>
<!-- Created with Inkscape (http://www.inkscape.org/) -->
<svg id="svg3140" width="90" height="90" version="1.1" xmlns="http://www.w3.org/2000/svg" xmlns:cc="http://creativecommons.org/ns#" xmlns:dc="http://purl.org/dc/elements/1.1/" xmlns:rdf="http://www.w3.org/1999/02/22-rdf-syntax-ns#">
 <metadata id="metadata3145">
  <rdf:RDF>
   <cc:Work rdf:about="">
    <dc:format>image/svg+xml</dc:format>
    <dc:type rdf:resource="http://purl.org/dc/dcmitype/StillImage"/>
    <dc:title/>
   </cc:Work>
  </rdf:RDF>
 </metadata>
 <g id="layer1" transform="translate(0 -962.36)">
  <rect id="rect4198" y="962.36" width="90" height="90" style="color:#000000;fill:none"/>
  <g id="g4978" transform="translate(-60 548)">
   <path id="path4984" transform="translate(60 414.36)" d="m45 12.656c-3.5901 0-31.701 48-29.906 51.062 0.57446 0.97997 6.7481 1.6473 14.906 2v12.281h30v-12.281c8.1582-0.35275 14.332-1.02 14.906-2 1.7951-3.0622-26.316-51.062-29.906-51.062zm0 8.875c0.52124 0.71696 0.87694 1.1375 1.4688 2 2.9945 4.364 6.7918 10.307 10.375 16.406s6.9016 12.238 9.25 16.969c0.46277 0.93234 0.75465 1.3872 1.125 2.1875-0.92364 0.089569-1.4904 0.29914-2.5938 0.375-3.0605 0.21041-6.7256 0.34873-10.625 0.4375v12.094h-18v-12.094c-3.8994-0.088773-7.5645-0.22709-10.625-0.4375-1.1034-0.075857-1.6701-0.28543-2.5938-0.375 0.37035-0.80035 0.63098-1.2552 1.0938-2.1875 2.3484-4.7311 5.698-10.869 9.2812-16.969s7.3492-12.042 10.344-16.406c0.59181-0.86249 0.97876-1.283 1.5-2z" style="color:#000000;fill:#808080"/>
   <rect id="rect3034" transform="translate(60 414.36)" y="7.6294e-5" width="90" height="90" style="color:#000000;fill:none"/>
  </g>
 </g>
</svg>
