<?xml version="1.0" encoding="UTF-8"?>
<!-- Created with Inkscape (http://www.inkscape.org/) -->
<svg id="svg3140" width="90" height="90" version="1.1" xmlns="http://www.w3.org/2000/svg" xmlns:cc="http://creativecommons.org/ns#" xmlns:dc="http://purl.org/dc/elements/1.1/" xmlns:rdf="http://www.w3.org/1999/02/22-rdf-syntax-ns#">
 <metadata id="metadata3145">
  <rdf:RDF>
   <cc:Work rdf:about="">
    <dc:format>image/svg+xml</dc:format>
    <dc:type rdf:resource="http://purl.org/dc/dcmitype/StillImage"/>
    <dc:title/>
   </cc:Work>
  </rdf:RDF>
 </metadata>
 <g id="layer1" transform="translate(0 -962.36)">
  <rect id="rect4198" y="962.36" width="90" height="90" style="color:#000000;fill:none"/>
  <g id="g4978" transform="translate(-60 548)">
   <path id="path4988" transform="translate(60 414.36)" d="m30 24c-27 0-30 0-30 18v15.002c0 17.998 3 17.998 30 17.998h30c27 0 30-8.7e-5 30-17.998v-15.002c0-16.441-2.4662-18.022-27-18v9h3 2c12 2e-4 13 1 13 10v13c0 9-1 10-13 10h-46c-12 2e-4 -13-1-13-10v-13c0-9 1-9.9998 13-10l17 2e-3v-9z" style="block-progression:tb;color:#000000;fill:#808080;text-indent:0;text-transform:none"/>
   <path id="path4984" transform="matrix(-2.954 0 0 2.9623 424.67 -72.857)" d="m113.92 179.14c-0.52479 0.30299-8.7464-4.4438-8.7464-5.0498s8.2216-5.3527 8.7464-5.0498c0.52478 0.30299 0.52478 9.7965 0 10.1z" style="color:#000000;fill:#808080"/>
   <rect id="rect3038" transform="translate(60 414.36)" y="1.7383e-5" width="90" height="90" style="color:#000000;fill:none"/>
  </g>
 </g>
</svg>
