<?xml version="1.0" encoding="UTF-8"?>
<!-- Created with Inkscape (http://www.inkscape.org/) -->
<svg id="svg3679" width="90" height="90" version="1.1" xmlns="http://www.w3.org/2000/svg" xmlns:cc="http://creativecommons.org/ns#" xmlns:dc="http://purl.org/dc/elements/1.1/" xmlns:rdf="http://www.w3.org/1999/02/22-rdf-syntax-ns#">
 <metadata id="metadata3684">
  <rdf:RDF>
   <cc:Work rdf:about="">
    <dc:format>image/svg+xml</dc:format>
    <dc:type rdf:resource="http://purl.org/dc/dcmitype/StillImage"/>
    <dc:title/>
   </cc:Work>
  </rdf:RDF>
 </metadata>
 <g id="layer1" transform="translate(2224 279.35)">
  <g id="g4131" transform="translate(-2566 -630.71)">
   <rect id="rect2989" x="342" y="351.36" width="90" height="90" style="color:#000000;fill:none;opacity:.01"/>
   <path id="rect3780" d="m387 351.36c12 0 12 2 12 24v9c0 22 0 24-12 24s-12-2-12-24v-9c0-22 0-24 12-24z" style="color:#000000;fill:#808080"/>
   <path id="rect4660" d="m369 439.36c0-4 13.602-4 13.602-4h9.0329s13.365 0 13.365 4v2h-36z" style="color:#000000;fill:#808080"/>
   <rect id="rect4733" x="381" y="411.36" width="12" height="26" ry="2.5" style="color:#000000;fill:#808080"/>
   <path id="path3760" d="m363 390.38c0 9-0.24708 16.123 3.0312 21.75 1.6392 2.8136 4.2823 5.0212 7.75 6.3438s7.73 1.9068 13.188 1.9062c5.4711 5.1e-4 9.7439-0.5846 13.219-1.9062s6.1374-3.5297 7.7812-6.3438c3.2876-5.628 3.0312-12.75 3.0312-21.75h-6c0 9-0.24928 15.347-2.2188 18.719-0.98473 1.6857-2.2794 2.8534-4.7188 3.7812s-6.0506 1.5005-11.094 1.5c-5.0283 4.7e-4 -8.632-0.57306-11.062-1.5s-3.7052-2.0952-4.6875-3.7812c-1.9646-3.3722-2.2188-9.7188-2.2188-18.719h-6z" style="block-progression:tb;color:#000000;fill:#808080;text-indent:0;text-transform:none"/>
  </g>
 </g>
</svg>
