<?xml version="1.0" encoding="UTF-8"?>
<!-- Created with Inkscape (http://www.inkscape.org/) -->
<svg id="svg3443" width="90" height="90.016" version="1.1" xmlns="http://www.w3.org/2000/svg" xmlns:cc="http://creativecommons.org/ns#" xmlns:dc="http://purl.org/dc/elements/1.1/" xmlns:rdf="http://www.w3.org/1999/02/22-rdf-syntax-ns#">
 <metadata id="metadata3448">
  <rdf:RDF>
   <cc:Work rdf:about="">
    <dc:format>image/svg+xml</dc:format>
    <dc:type rdf:resource="http://purl.org/dc/dcmitype/StillImage"/>
    <dc:title/>
   </cc:Work>
  </rdf:RDF>
 </metadata>
 <g id="layer1" transform="translate(0 -962.35)">
  <g id="g4136" transform="matrix(1.875 0 0 1.875 -990 -830.82)">
   <rect id="rect4134" transform="translate(0 412.36)" x="528" y="544" width="48" height="48" style="color:#000000;fill:none"/>
  </g>
  <g id="g3466" transform="translate(-528 48)">
   <rect id="rect3470" x="594" y="962.36" width="6" height="42" style="color:#000000;fill:#808080"/>
   <rect id="rect3472" transform="rotate(90)" x="980.36" y="-618" width="6" height="42" style="color:#000000;fill:#808080"/>
   <rect id="rect3474" x="528" y="914.36" width="90" height="90" style="color:#000000;fill:none"/>
   <path id="path3004" d="m548 932.36c-18 0-20 0-20 12v18c0 12 2 12 20 12h20c18 0 20 0 20-12v-18c0-12-2-12-20-12zm-8 10h36v4h-36zm0 8h36v4h-36zm0 8h21v4h-21z" style="fill:#808080"/>
   <path id="path3774" d="m540 973.03v13.333l13.333-13.333z" style="color:#000000;fill:#808080"/>
  </g>
 </g>
</svg>
