<?xml version="1.0" encoding="UTF-8"?>
<!-- Created with Inkscape (http://www.inkscape.org/) -->
<svg id="svg4874" width="96" height="96" version="1.1" viewBox="0 0 96 96" xmlns="http://www.w3.org/2000/svg" xmlns:cc="http://creativecommons.org/ns#" xmlns:dc="http://purl.org/dc/elements/1.1/" xmlns:rdf="http://www.w3.org/1999/02/22-rdf-syntax-ns#">
 <metadata id="metadata4879">
  <rdf:RDF>
   <cc:Work rdf:about="">
    <dc:format>image/svg+xml</dc:format>
    <dc:type rdf:resource="http://purl.org/dc/dcmitype/StillImage"/>
    <dc:title/>
   </cc:Work>
  </rdf:RDF>
 </metadata>
 <g id="layer1" transform="translate(67.857 -78.505)">
  <rect id="rect4782" transform="rotate(90)" x="78.505" y="-28.143" width="96" height="96" style="color:#000000;fill:none"/>
  <path id="path4180" d="m-19.857 86.505-19.778 19.778h-15.778s-4.4444 7.5804-4.4444 20.23c0 12.65 4.4444 20.214 4.4444 20.214h15.778l19.778 19.778z" style="fill:#808080"/>
  <path id="path4158" d="m-2.75 105.04-3.5352 3.5352c4.7573 4.7573 7.4277 11.208 7.4277 17.936 2e-7 6.7278-2.6704 13.176-7.4277 17.934l3.5352 3.5352c5.6936-5.6936 8.8926-13.417 8.8926-21.469s-3.199-15.777-8.8926-21.471z" style="block-progression:tb;color-rendering:auto;color:#000000;fill:#808080;font-feature-settings:normal;font-variant-alternates:normal;font-variant-caps:normal;font-variant-ligatures:none;font-variant-numeric:normal;font-variant-position:normal;image-rendering:auto;isolation:auto;mix-blend-mode:normal;shape-padding:0;shape-rendering:auto;solid-color:#000000;text-decoration-color:#000000;text-decoration-line:none;text-decoration-style:solid;text-indent:0;text-transform:none;white-space:normal"/>
  <path id="circle4160" d="m7.1328 95.152-3.5352 3.5352c7.3784 7.3784 11.521 17.384 11.521 27.818 0 10.435-4.1431 20.438-11.521 27.816l3.5352 3.5371c8.3148-8.3148 12.986-19.595 12.986-31.354-1e-6 -11.759-4.6716-23.039-12.986-31.354z" style="block-progression:tb;color-rendering:auto;color:#000000;fill:#808080;font-feature-settings:normal;font-variant-alternates:normal;font-variant-caps:normal;font-variant-ligatures:none;font-variant-numeric:normal;font-variant-position:normal;image-rendering:auto;isolation:auto;mix-blend-mode:normal;opacity:.5;shape-padding:0;shape-rendering:auto;solid-color:#000000;text-decoration-color:#000000;text-decoration-line:none;text-decoration-style:solid;text-indent:0;text-transform:none;white-space:normal"/>
  <rect id="rect4165" x="-67.857" y="78.505" width="96" height="96" style="color:#000000;fill:none"/>
 </g>
</svg>
