<?xml version="1.0" encoding="UTF-8"?>
<!-- Created with Inkscape (http://www.inkscape.org/) -->
<svg id="svg4874" width="96" height="96" version="1.1" viewBox="0 0 96 96" xmlns="http://www.w3.org/2000/svg" xmlns:cc="http://creativecommons.org/ns#" xmlns:dc="http://purl.org/dc/elements/1.1/" xmlns:rdf="http://www.w3.org/1999/02/22-rdf-syntax-ns#">
 <metadata id="metadata4879">
  <rdf:RDF>
   <cc:Work rdf:about="">
    <dc:format>image/svg+xml</dc:format>
    <dc:type rdf:resource="http://purl.org/dc/dcmitype/StillImage"/>
    <dc:title/>
   </cc:Work>
  </rdf:RDF>
 </metadata>
 <g id="layer1" transform="translate(67.857 -78.505)">
  <rect id="rect4782" transform="rotate(90)" x="78.505" y="-28.143" width="96" height="96" style="color:#000000;fill:none"/>
  <path id="path4178" d="m-19.84 90.506c-15.662-0.0038-31.324 5.0321-44.404 15.109l-1.5859 1.2227 1.2227 1.584 44.75 58.031 46.002-59.594-1.5859-1.2207c-13.075-10.084-28.736-15.129-44.398-15.133z" style="block-progression:tb;color-rendering:auto;color:#000000;fill:#808080;image-rendering:auto;isolation:auto;mix-blend-mode:normal;shape-padding:0;shape-rendering:auto;solid-color:#000000;text-decoration-color:#000000;text-decoration-line:none;text-decoration-style:solid;text-indent:0;text-transform:none;white-space:normal"/>
  <path id="rect4174" transform="translate(-67.857 78.505)" d="m81 60c-4.9514 0-9 4.0486-9 9v3h-2v16h11 11v-16h-2v-3c0-4.9514-4.0486-9-9-9zm0 4c2.8046 0 5 2.1954 5 5v3h-10v-3c0-2.8046 2.1954-5 5-5z" style="color:#000000;fill:#808080"/>
 </g>
</svg>
