<?xml version="1.0" encoding="UTF-8"?>
<!-- Created with Inkscape (http://www.inkscape.org/) -->
<svg id="svg4874" width="96" height="96" version="1.1" viewBox="0 0 96 96" xmlns="http://www.w3.org/2000/svg" xmlns:cc="http://creativecommons.org/ns#" xmlns:dc="http://purl.org/dc/elements/1.1/" xmlns:rdf="http://www.w3.org/1999/02/22-rdf-syntax-ns#">
 <metadata id="metadata4879">
  <rdf:RDF>
   <cc:Work rdf:about="">
    <dc:format>image/svg+xml</dc:format>
    <dc:type rdf:resource="http://purl.org/dc/dcmitype/StillImage"/>
    <dc:title/>
   </cc:Work>
  </rdf:RDF>
 </metadata>
 <g id="layer1" transform="translate(67.857 -78.505)">
  <rect id="rect4782" transform="rotate(90)" x="78.505" y="-28.143" width="96" height="96" style="color:#000000;fill:none"/>
  <path id="path4643" d="m-35.869 82.504-0.01172 2e-3c-5.0328 0.05818-8.7136-0.12027-11.725 1.541-1.5055 0.83064-2.6968 2.2356-3.3555 3.9902-0.65866 1.7547-0.89648 3.8364-0.89648 6.4668v64.002c0 2.6304 0.23782 4.7121 0.89648 6.4668 0.65866 1.7546 1.85 3.1596 3.3555 3.9902 3.011 1.6613 6.6918 1.4848 11.725 1.543h0.01172 32.023 0.011719c5.0328-0.0582 8.7136 0.11832 11.725-1.543 1.5055-0.83064 2.6968-2.2356 3.3555-3.9902 0.65866-1.7547 0.89648-3.8364 0.89648-6.4668v-58.83l-17.172-17.172h-30.84zm0.01172 4h29.172l14.828 14.83v57.172c0 2.3696-0.25037 4.0209-0.64062 5.0606-0.39025 1.0396-0.80933 1.4898-1.543 1.8945-1.4645 0.80804-4.7782 0.98616-9.8164 1.0449h-31.977-0.02344c-5.0383-0.0588-8.3519-0.23688-9.8164-1.0449-0.73364-0.40478-1.1508-0.85491-1.541-1.8945-0.39025-1.0396-0.64258-2.691-0.64258-5.0606v-64.002c0-2.3696 0.25232-4.0209 0.64258-5.0605 0.39025-1.0396 0.80738-1.4898 1.541-1.8945 1.4645-0.80804 4.7782-0.98616 9.8164-1.0449z" style="block-progression:tb;color-rendering:auto;color:#000000;fill:#808080;font-feature-settings:normal;font-variant-alternates:normal;font-variant-caps:normal;font-variant-ligatures:none;font-variant-numeric:normal;font-variant-position:normal;image-rendering:auto;isolation:auto;mix-blend-mode:normal;shape-padding:0;shape-rendering:auto;solid-color:#000000;text-decoration-color:#000000;text-decoration-line:none;text-decoration-style:solid;text-indent:0;text-transform:none;white-space:normal"/>
  <path id="text4192" d="m-21.456 105.51c-1.5088 0-2.8869 0.19855-4.1332 0.6006-1.2213 0.35526-2.311 0.7904-3.2678 1.3087l-0.0038 2e-3h-0.0019c-0.91111 0.51497-1.6903 1.0532-2.3353 1.6176-0.58772 0.50945-1.0026 0.90199-1.2607 1.2031l-0.19381 0.22451 2.4158 3.1987 0.29934-0.29934c0.21865-0.21865 0.58485-0.54683 1.0861-0.97095 0.48312-0.40879 1.064-0.80495 1.7462-1.1839h0.0038l0.0019-2e-3c0.71111-0.4117 1.5421-0.77233 2.4926-1.0765 0.9279-0.29693 1.9976-0.4471 3.2103-0.4471 2.1479 0 3.8742 0.57463 5.2404 1.7193l0.0058 4e-3 0.0038 6e-3c1.3671 1.0793 2.0743 2.8847 2.0743 5.5378 0 1.205-0.18823 2.3074-0.56031 3.312-0.37727 1.0186-0.88678 1.9788-1.5293 2.886-0.64731 0.91385-1.4107 1.8117-2.2911 2.6922-0.85282 0.85282-1.7627 1.7459-2.7325 2.6768h-0.0019c-1.1643 1.1254-2.3859 2.2909-3.6669 3.4942l-0.0038 4e-3c-1.2573 1.218-2.4164 2.5331-3.477 3.9471l-0.0019 4e-3 -0.0019 2e-3c-1.0268 1.4217-1.8769 2.9439-2.5482 4.5631-0.67988 1.601-1.0189 3.3424-1.0189 5.2116v1.0266l0.0077 0.0365c0.037 0.18501 0.04989 0.31949 0.04989 0.3358v0.36842h23.992v-4.0603h-19.001c0.03463-0.79266 0.18176-1.5859 0.55071-2.3909 0.45342-0.94348 1.0407-1.8925 1.7634-2.8438l0.0019-2e-3c0.76803-0.99827 1.6137-1.9782 2.5367-2.9397 0.96802-1.0068 1.9541-1.9947 2.9608-2.9627h0.0019c1.2059-1.167 2.3924-2.3348 3.5595-3.5019 1.1767-1.1767 2.2169-2.3932 3.122-3.6516 0.94945-1.2659 1.7037-2.576 2.2604-3.9279l0.0019-2e-3v-2e-3c0.56148-1.4037 0.84238-2.8904 0.84238-4.4498 0-3.4892-1.0239-6.2672-3.0836-8.2473l-0.0019-2e-3c-2.0684-2.0266-5.1307-3.0164-9.1146-3.0164v-2e-3z" style="fill:#808080"/>
 </g>
</svg>
