<?xml version="1.0" encoding="UTF-8"?>
<!-- Created with Inkscape (http://www.inkscape.org/) -->
<svg id="svg3336" width="512" height="512" style="enable-background:new" version="1.1" viewBox="0 0 512 512" xmlns="http://www.w3.org/2000/svg" xmlns:cc="http://creativecommons.org/ns#" xmlns:dc="http://purl.org/dc/elements/1.1/" xmlns:rdf="http://www.w3.org/1999/02/22-rdf-syntax-ns#" xmlns:xlink="http://www.w3.org/1999/xlink">
 <defs id="defs3338">
  <linearGradient id="linearGradient4279" x1="384.1" x2="384.1" y1="480" y2="2.6515" gradientTransform="matrix(1 0 0 -1.0667 0 509.87)" gradientUnits="userSpaceOnUse">
   <stop id="stop3289" style="stop-color:#d6d6d6" offset="0"/>
   <stop id="stop3291" style="stop-color:#f7f7f7" offset="1"/>
  </linearGradient>
  <linearGradient id="linearGradient4274" x1="319.95" x2="319.95" y1="16" y2="496" gradientUnits="userSpaceOnUse">
   <stop id="stop4212" style="stop-opacity:0" offset="0"/>
   <stop id="stop4214" offset=".50477"/>
   <stop id="stop4216" style="stop-opacity:0" offset="1"/>
  </linearGradient>
  <filter id="filter4276" x="-.13807" y="-.07358" width="1.2761" height="1.1472" style="color-interpolation-filters:sRGB">
   <feGaussianBlur id="feGaussianBlur4278" stdDeviation="14.716"/>
  </filter>
  <filter id="filter4286" x="-.017259" y="-.0091975" width="1.0345" height="1.0184" style="color-interpolation-filters:sRGB">
   <feGaussianBlur id="feGaussianBlur4288" stdDeviation="1.8395"/>
  </filter>
  <linearGradient id="linearGradient3285" x1="166.05" x2="314.88" y1="20" y2="494" gradientUnits="userSpaceOnUse">
   <stop id="stop4275" style="stop-color:#f99e18" offset="0"/>
   <stop id="stop4277" style="stop-color:#fdc92b" offset="1"/>
  </linearGradient>
 </defs>
 <metadata id="metadata3341">
  <rdf:RDF>
   <cc:Work rdf:about="">
    <dc:format>image/svg+xml</dc:format>
    <dc:type rdf:resource="http://purl.org/dc/dcmitype/StillImage"/>
    <dc:title/>
   </cc:Work>
  </rdf:RDF>
 </metadata>
 <g id="layer3">
  <path id="rect4158" d="m0 0v183.9 144.2 183.9h512v-183.9-144.2-183.9h-512z" style="color:#000000;enable-background:accumulate;fill:url(#linearGradient3285)"/>
  <path id="path4269" d="m0 256v72.102 183.9h512v-183.9-72.102h-512z" style="color:#000000;enable-background:accumulate;fill:#fff;opacity:.15"/>
  <g id="g4290" style="enable-background:new">
   <path id="path4266" d="m256.2 496v-480h255.8v480z" style="color:#000000;enable-background:accumulate;fill:url(#linearGradient4274);filter:url(#filter4276);opacity:.4"/>
   <path id="path4280" d="m256.2 496v-480h255.8v480z" style="color:#000000;enable-background:accumulate;filter:url(#filter4286);opacity:.1"/>
   <path id="path4231" d="m256.2 512v-512h255.8v512z" style="color:#000000;enable-background:accumulate;fill:url(#linearGradient4279)"/>
  </g>
 </g>
 <g id="layer4">
  <path id="path4505-6" d="m219.31 124-35.188 71.656v59.25c-4.9399 5.788-10.339 11.62-15.969 17.25-18.503 18.503-39.248 34.687-53.125 39.312l-23.375-23.344-71.656 35.188v170.69h256v-317.56c-15.417-33.444-32.368-45.921-56.688-52.438zm-97.562 229c7e-3 -5e-3 0.0239 5e-3 0.0312 0-2.6107 1.6304-5.251 3.2267-7.9062 4.8125 2.6559-1.5856 5.2637-3.1824 7.875-4.8125zm-24.094 14.062c8e-3 -4e-3 0.0234 4e-3 0.0312 0-2.7418 1.4991-5.5286 2.9806-8.3125 4.4375 2.7843-1.4568 5.5391-2.9386 8.2813-4.4375z" style="color:#000000;enable-background:accumulate;fill-opacity:0;opacity:.05"/>
  <path id="rect4125" d="m148 120v44h-44v16h44v44h16v-44h44v-16h-44v-44z" style="color:#000000;enable-background:accumulate;fill:#f2f2f2"/>
  <rect id="rect4129" transform="matrix(0,-1,-1,0,0,0)" x="-348" y="-208" width="16" height="104" style="color:#000000;enable-background:accumulate;fill:#f2f2f2"/>
  <path id="path4242" transform="translate(-32,-32)" d="m336 256v16h104v-16h-104zm0 48v16h104v-16h-104z" style="color:#000000;enable-background:accumulate;fill:#5d5d5d"/>
 </g>
</svg>
