<?xml version="1.0" encoding="UTF-8"?>
<!-- Created with Inkscape (http://www.inkscape.org/) -->
<svg id="svg3336" width="512" height="512" style="enable-background:new" version="1.1" viewBox="0 0 512 512" xmlns="http://www.w3.org/2000/svg" xmlns:cc="http://creativecommons.org/ns#" xmlns:dc="http://purl.org/dc/elements/1.1/" xmlns:rdf="http://www.w3.org/1999/02/22-rdf-syntax-ns#" xmlns:xlink="http://www.w3.org/1999/xlink">
 <defs id="defs3338">
  <linearGradient id="linearGradient4177" x1="121.98" x2="108.56" y1="330.55" y2="348.04" gradientTransform="translate(0,-18)" gradientUnits="userSpaceOnUse" xlink:href="#linearGradient4120"/>
  <linearGradient id="linearGradient4120">
   <stop id="stop4122" style="stop-color:#e6a240;stop-opacity:.996" offset="0"/>
   <stop id="stop4124" style="stop-color:#eab261;stop-opacity:.27451" offset="1"/>
  </linearGradient>
  <linearGradient id="linearGradient4164" x1="354.04" x2="370.34" y1="293" y2="314.24" gradientTransform="translate(0,-18)" gradientUnits="userSpaceOnUse" xlink:href="#linearGradient4120"/>
  <linearGradient id="linearGradient4479" x1="211.4" x2="232.78" y1="344.74" y2="375.41" gradientTransform="matrix(7.4114 0 0 7.4114 -1355.4 -2406.6)" gradientUnits="userSpaceOnUse">
   <stop id="stop4488" style="stop-opacity:0" offset="0"/>
   <stop id="stop4490" offset=".67026"/>
   <stop id="stop4492" style="stop-opacity:0" offset="1"/>
  </linearGradient>
  <filter id="filter4482" x="-.084992" y="-.11028" width="1.17" height="1.2206" style="color-interpolation-filters:sRGB">
   <feGaussianBlur id="feGaussianBlur4484" stdDeviation="10.765688"/>
  </filter>
  <filter id="filter4500" x="-.010624" y="-.013785" width="1.0212" height="1.0276" style="color-interpolation-filters:sRGB">
   <feGaussianBlur id="feGaussianBlur4502" stdDeviation="1.3457111"/>
  </filter>
  <linearGradient id="linearGradient4227" x2="673.13" y1="18" y2="681.99" gradientUnits="userSpaceOnUse">
   <stop id="stop4223" style="stop-color:#fc7b37" offset="0"/>
   <stop id="stop4225" style="stop-color:#fcc92c" offset="1"/>
  </linearGradient>
 </defs>
 <metadata id="metadata3341">
  <rdf:RDF>
   <cc:Work rdf:about="">
    <dc:format>image/svg+xml</dc:format>
    <dc:type rdf:resource="http://purl.org/dc/dcmitype/StillImage"/>
    <dc:title/>
   </cc:Work>
  </rdf:RDF>
 </metadata>
 <g id="layer3">
  <path id="rect4158" d="m0 0v183.9 144.2 183.9h512v-183.9-144.2-183.9h-512z" style="color:#000000;enable-background:accumulate;fill:url(#linearGradient4227)"/>
  <path id="path4240" transform="translate(-32,-32)" d="m543.8 194.39-491.91 349.61h492.11v-328.1c0-7.5249-0.0732-14.637-0.19922-21.508z" style="color:#000000;enable-background:accumulate;fill:#fff;opacity:.1"/>
 </g>
 <g id="layer4">
  <path id="path4473" d="m140.66 143.4c-14.297-0.17869-23.904 3.0309-28.834 8.9473-5.1768 6.1629-7.8301 16.275-7.8301 30.326v124.12c0 14.051 2.6533 24.161 7.8301 30.324 4.9303 5.9164 14.536 8.9492 28.834 8.9492h25.957l44.783 31.611 44.783-31.611h115.15c14.298 0 23.903-3.0329 28.834-8.9492 5.1768-6.1629 7.8301-16.273 7.8301-30.324v-124.12c0-14.051-2.6533-24.163-7.8301-30.326-4.9302-5.9163-14.536-8.9473-28.834-8.9473h-173.75z" style="enable-background:new;fill:url(#linearGradient4479);filter:url(#filter4482);opacity:.3"/>
  <path id="path4494" d="m140.66 143.4c-14.297-0.17869-23.904 3.0309-28.834 8.9473-5.1768 6.1629-7.8301 16.275-7.8301 30.326v124.12c0 14.051 2.6533 24.161 7.8301 30.324 4.9303 5.9164 14.536 8.9492 28.834 8.9492h25.957l44.783 31.611 44.783-31.611h115.15c14.298 0 23.903-3.0329 28.834-8.9492 5.1768-6.1629 7.8301-16.273 7.8301-30.324v-124.12c0-14.051-2.6533-24.163-7.8301-30.326-4.9302-5.9163-14.536-8.9473-28.834-8.9473h-173.75z" style="enable-background:new;filter:url(#filter4500);opacity:.1"/>
  <path id="path4505-6" d="m219.31 124-35.188 71.656v59.25c-4.9399 5.788-10.339 11.62-15.969 17.25-18.503 18.503-39.248 34.687-53.125 39.312l-23.375-23.344-71.656 35.188v170.69h256v-317.56c-15.417-33.444-32.368-45.921-56.688-52.438zm-97.562 229c7e-3 -5e-3 0.0239 5e-3 0.0312 0-2.6107 1.6304-5.251 3.2267-7.9062 4.8125 2.6559-1.5856 5.2637-3.1824 7.875-4.8125zm-24.094 14.062c8e-3 -4e-3 0.0234 4e-3 0.0312 0-2.7418 1.4991-5.5286 2.9806-8.3125 4.4375 2.7843-1.4568 5.5391-2.9386 8.2813-4.4375z" style="color:#000000;enable-background:accumulate;fill-opacity:0;opacity:.05"/>
  <path id="path1634" d="m140.66 141.4c-14.297-0.17869-23.904 3.0321-28.834 8.9485-5.1768 6.1629-7.8299 16.274-7.8299 30.325v124.12c0 14.051 2.6531 24.163 7.8299 30.325 4.9303 5.9164 14.536 8.9485 28.834 8.9485h25.957l44.783 31.612 44.783-31.612h115.15c14.298 0 23.904-3.0322 28.834-8.9485 5.1768-6.1629 7.8297-16.274 7.8297-30.325v-124.12c0-14.051-2.6529-24.163-7.8297-30.325-4.9302-5.9163-14.536-8.9485-28.834-8.9485h-173.75z" style="enable-background:new;fill:#f7f2e9"/>
  <path id="path4163" d="m140.66 141.4c-14.297-0.17869-23.904 3.0321-28.834 8.9485-5.1768 6.1629-7.8299 16.274-7.8299 30.325v119.19l107.4 75.815 44.783-31.611h8e-5l151.81-107.16v-56.23c0-14.051-2.6529-24.163-7.8297-30.325-4.9302-5.9163-14.536-8.9485-28.834-8.9485h-173.75z" style="enable-background:new;fill:#f9f6f2"/>
  <path id="path4227" d="m168 216v16h176v-16z" style="enable-background:new;fill:#fbc58c"/>
  <path id="path4226" d="m168 256v16h88v-16z" style="enable-background:new;fill:#fbc58c"/>
  <path id="path4174" d="m140.66 141.4c-14.297-0.17869-23.904 3.0321-28.834 8.9485-5.1768 6.1629-7.8299 16.274-7.8299 30.325v2c0-14.051 2.6531-24.163 7.8299-30.325 4.9303-5.9163 14.537-9.1272 28.834-8.9485h230.67c14.298 0 23.904 3.0321 28.834 8.9485 5.1768 6.1629 7.8297 16.274 7.8297 30.325v-2c0-14.051-2.6529-24.163-7.8297-30.325-4.9302-5.9163-14.536-8.9485-28.834-8.9485h-173.75z" style="enable-background:new;fill:#fff"/>
  <path id="path4175" d="m408 236.9-151.81 107.16h115.15c14.298 0 23.904-3.0322 28.834-8.9485 5.1768-6.1629 7.8297-16.274 7.8297-30.325z" style="enable-background:new;fill:url(#linearGradient4164);opacity:.06"/>
  <path id="path4171" d="m104 299.86v4.9292c0 14.051 2.6531 24.163 7.8299 30.325 4.9303 5.9164 14.536 8.9485 28.834 8.9485h25.957z" style="enable-background:new;fill:url(#linearGradient4177);opacity:.06"/>
 </g>
</svg>
