<?xml version="1.0" encoding="UTF-8"?>
<!-- Generator: Adobe Illustrator 16.0.3, SVG Export Plug-In . SVG Version: 6.00 Build 0)  -->
<svg id="Google_x2B_" width="90" height="90" enable-background="new 0 0 266.667 267" version="1.1" viewBox="0 0 90 90" xml:space="preserve" xmlns="http://www.w3.org/2000/svg" xmlns:cc="http://creativecommons.org/ns#" xmlns:dc="http://purl.org/dc/elements/1.1/" xmlns:rdf="http://www.w3.org/1999/02/22-rdf-syntax-ns#"><metadata id="metadata24"><rdf:RDF><cc:Work rdf:about=""><dc:format>image/svg+xml</dc:format><dc:type rdf:resource="http://purl.org/dc/dcmitype/StillImage"/><dc:title/></cc:Work></rdf:RDF></metadata><g id="g3" transform="translate(0 -177)" xml:space="preserve"><linearGradient id="SVGID_1_" x1="-402.67" x2="-402.67" y1="-20.666" y2="55.334" gradientTransform="matrix(1,0,0,-1,244,322)" gradientUnits="userSpaceOnUse" xml:space="preserve"><stop id="stop6" style="stop-color:#7D2617" offset="0"/><stop id="stop8" style="stop-color:#BF3B27" offset="1"/></linearGradient><path id="path10" d="m-125.67 342.67h-65.289c-2.979 0-5.711-2.748-5.711-5.726v-64.777c0-2.979 2.732-5.497 5.711-5.497h64.736c2.98 0 5.553 2.521 5.553 5.497v65.503c0 2.977-2.02 5-5 5zm-65.289-75c-2.752 0-4.711 1.745-4.711 4.497v64.777c0 2.753 1.959 4.726 4.711 4.726h64.289c3 0 5-2 5-5v-64.503c0-2.752-1.798-4.497-4.553-4.497h-64.736z" display="none" style="display:none;fill:url(#SVGID_1_)" xml:space="preserve"/></g><path id="path14" transform="translate(0,-1.5e-6)" d="m36 6c-24.352 0-29.166 0.047019-29.879 13.254 0.23928-0.22537 0.49016-0.4596 0.73242-0.66797 6.4802-5.3642 13.591-6.2604 19.553-6.3711h24.025l-6.3809 5.1504h-6.9668c2.7909 2.4195 6.9551 6.7449 6.9551 14.451 0 8.4412-4.4496 12.442-9.2246 16.201-1.4775 1.4801-3.1816 3.0819-3.1816 5.5957 0 2.5069 1.7052 3.8754 2.9531 4.9043l4.0957 3.1875c5.0001 4.2238 11.535 9.1141 11.535 16.988 0 1.9824-0.21304 3.7682-0.80664 5.3066h4.5898c27 0 30 0 30-18v-33.316h-14.217v14.543h-6.1797v-14.543h-14.416v-6.0508h14.416v-14.418h6.1797v14.418h14.217v-2.6328c0-18-3-18-30-18h-9-9zm-15.424 10.072c-2.9588 0-6.1368 1.4838-7.959 3.7656-1.9329 2.3974-2.2324 5.4728-2.2324 8.4453 0 7.6407 4.0135 18.943 13.791 18.943 2.84 0 5.754-0.72128 7.625-2.8535 2.1328-2.4438 2.9688-5.6616 2.9688-7.3066 0-8.2159-4.7627-20.994-14.193-20.994zm-14.576 31.203v18.725c0 0.48898 0.012729 0.91418 0.017578 1.377 5.1607-4.0489 14.018-3.3215 18.342-3.6133-1.5942-2.0574-3.4102-4.2222-3.4102-7.7559 0-1.9401 0.56736-3.0825 1.1348-4.4531-1.2527 0.11162-2.4971 0.22852-3.6367 0.22852-5.1251 0-9.3366-1.9426-12.447-4.5078zm19.615 19.682c-1.0277 0-7.1679 0.22918-11.941 1.8281-1.5499 0.56651-4.9617 1.8899-7.3145 4.7148 1.3088 10.46 7.1096 10.5 29.641 10.5h6.75c0.1703-0.43486 0.38281-0.83355 0.37305-1.7598-0.06434-5.8299-6.2579-9.0005-14.902-15.164-0.90616-0.11821-1.4752-0.11914-2.6055-0.11914z" style="fill:#808080"/></svg>
