<?xml version="1.0" encoding="UTF-8"?>
<!-- Created with Inkscape (http://www.inkscape.org/) -->
<svg id="svg3289" width="90" height="90" version="1.1" xmlns="http://www.w3.org/2000/svg" xmlns:cc="http://creativecommons.org/ns#" xmlns:dc="http://purl.org/dc/elements/1.1/" xmlns:rdf="http://www.w3.org/1999/02/22-rdf-syntax-ns#">
 <metadata id="metadata3294">
  <rdf:RDF>
   <cc:Work rdf:about="">
    <dc:format>image/svg+xml</dc:format>
    <dc:type rdf:resource="http://purl.org/dc/dcmitype/StillImage"/>
    <dc:title/>
   </cc:Work>
  </rdf:RDF>
 </metadata>
 <g id="layer1" transform="translate(0 -962.36)">
  <g id="g4451" transform="translate(-789 604.36)">
   <g id="g4143" transform="matrix(1.875 0 0 1.875 249 -1435.2)">
    <rect id="rect4145" transform="translate(0 804.36)" x="288" y="152" width="48" height="48" style="fill:none;opacity:.21171"/>
   </g>
   <path id="path3004" d="m819 367c-27 0-30 0-30 18v24c0 18 3 18 30 18h30c27 0 30 0 30-18v-24c0-18-3-18-30-18h-30zm-12 15h54v6h-54v-6zm0 12h54v6h-54v-6zm0 12h30v6h-30v-6z" style="fill:#808080"/>
   <path id="path3774" d="m807 425v20l20-20z" style="color:#000000;fill:#808080"/>
  </g>
 </g>
</svg>
