<?xml version="1.0" encoding="UTF-8"?>
<!-- Created with Inkscape (http://www.inkscape.org/) -->
<svg id="svg3289" width="90" height="90" version="1.1" xmlns="http://www.w3.org/2000/svg" xmlns:cc="http://creativecommons.org/ns#" xmlns:dc="http://purl.org/dc/elements/1.1/" xmlns:rdf="http://www.w3.org/1999/02/22-rdf-syntax-ns#">
 <metadata id="metadata3294">
  <rdf:RDF>
   <cc:Work rdf:about="">
    <dc:format>image/svg+xml</dc:format>
    <dc:type rdf:resource="http://purl.org/dc/dcmitype/StillImage"/>
    <dc:title/>
   </cc:Work>
  </rdf:RDF>
 </metadata>
 <g id="layer1" transform="translate(0 -962.36)">
  <g id="g4451" transform="translate(-789 604.36)">
   <g id="g4143" transform="matrix(1.875 0 0 1.875 249 -1435.2)">
    <rect id="rect4145" transform="translate(0 804.36)" x="288" y="152" width="48" height="48" style="fill:none;opacity:.21171"/>
   </g>
   <path id="path6437" d="m844.42 367.49c-6.7388 2.0433-13.223 11.136-11.189 21.422-22.366-1.3457-32.243-13.32-38.182-19.051-6.0536 10.677 0.15439 21.055 5.5768 24.414-2.8617 0.15721-6.3232-1.0786-8.0412-2.1539-0.65287 9.8503 7.3806 16.679 14.215 18.448-2.1849 0.65113-4.2439 0.73868-7.7637 0.21545 2.9974 9.9069 11.05 12.558 17.049 12.995-7.7224 6.6954-16.996 8.1552-27.08 7.6628 26.145 15.982 52.547 6.1492 65.397-6.3927 10.791-10.532 15.615-26.303 15.782-40.414 2.4699-2.0056 7.4639-6.2564 8.821-9.5834-1.9697 0.75706-5.8663 2.5581-9.9324 2.72 3.3488-2.1923 7.1863-6.5856 7.5883-10.02-3.7078 2.0177-7.9986 3.7659-11.674 4.3234-6.9278-6.682-13.674-6.6762-20.567-4.5859z" style="fill:#808080"/>
  </g>
 </g>
</svg>
