<?xml version="1.0" encoding="UTF-8" standalone="no"?>
<!-- Created with Inkscape (http://www.inkscape.org/) -->
<svg id="svg2" xmlns:rdf="http://www.w3.org/1999/02/22-rdf-syntax-ns#" xmlns="http://www.w3.org/2000/svg" height="22" width="22" version="1.1" xmlns:cc="http://creativecommons.org/ns#" xmlns:dc="http://purl.org/dc/elements/1.1/">
 <metadata id="metadata7">
  <rdf:RDF>
   <cc:Work rdf:about="">
    <dc:format>image/svg+xml</dc:format>
    <dc:type rdf:resource="http://purl.org/dc/dcmitype/StillImage"/>
    <dc:title/>
   </cc:Work>
  </rdf:RDF>
 </metadata>
 <g id="layer1" transform="translate(0 -1030.4)">
  <path id="path2993" style="color:#000000;fill:#fff" d="m4 1033.4c-0.554 0-1 0.446-1 1v14c0 0.554 0.446 1 1 1h14c0.554 0 1-0.446 1-1v-14c0-0.554-0.446-1-1-1h-14zm1 2a12 12 0 0 1 12 12h-2.4062a9.6 9.6 0 0 0 -9.594 -9.6v-2.4063zm0 4.0313a7.9543 7.9543 0 0 1 7.9688 7.9687h-2.3438a5.6229 5.6229 0 0 0 -5.625 -5.7v-2.3437zm1.625 4.6875c0.9089 0 1.6562 0.7473 1.6562 1.6562s-0.74735 1.625-1.6562 1.625c-0.9089 0-1.625-0.7161-1.625-1.625s0.7161-1.6562 1.625-1.6562z"/>
 </g>
</svg>
