<?xml version="1.0" encoding="UTF-8" standalone="no"?>
<!-- Generator: Adobe Illustrator 15.0.0, SVG Export Plug-In . SVG Version: 6.00 Build 0)  -->
<!DOCTYPE svg  PUBLIC '-//W3C//DTD SVG 1.1//EN'  'http://www.w3.org/Graphics/SVG/1.1/DTD/svg11.dtd'>
<svg id="Layer_1" xmlns="http://www.w3.org/2000/svg" xml:space="preserve" height="22px" viewBox="0 0 22 22" width="22px" version="1.1" y="0px" x="0px" enable-background="new 0 0 22 22">
<path d="m11 2c-4.971 0-9 4.029-9 9s4.029 9 9 9 9-4.029 9-9-4.029-9-9-9zm5.375 5.794c-0.296 0.559-1.025 0.79-1.631 0.516l-2.149-0.872v7.098c0.003 0.048 0.004 0.095 0.004 0.145 0 1.58-1.671 2.819-3.438 2.819-2.052 0-3.661-1.239-3.661-2.819 0-1.582 1.609-2.82 3.661-2.82 0.428 0 1.059 0.086 1.438 0.185v-6.418c0-0.389 0.218-0.751 0.575-0.957 0.358-0.207 0.805-0.228 1.183-0.056l3.462 1.561c0.606 0.292 0.853 1.059 0.556 1.618z" fill="#fff"/>
</svg>
