<?xml version="1.0" encoding="UTF-8" standalone="no"?>
<!-- Generator: Adobe Illustrator 15.0.0, SVG Export Plug-In . SVG Version: 6.00 Build 0)  -->
<!DOCTYPE svg  PUBLIC '-//W3C//DTD SVG 1.1//EN'  'http://www.w3.org/Graphics/SVG/1.1/DTD/svg11.dtd'>
<svg id="Layer_1" xmlns="http://www.w3.org/2000/svg" xml:space="preserve" height="22px" viewBox="0 0 22 22" width="22px" version="1.1" y="0px" x="0px" enable-background="new 0 0 22 22">
		<path d="m11 2c-4.971 0-9 4.029-9 9s4.029 9 9 9 9-4.029 9-9-4.029-9-9-9zm0 13c-2.21 0-4-1.791-4-4s1.79-4 4-4 4 1.791 4 4-1.79 4-4 4zm0-7c-1.656 0-3 1.343-3 3s1.344 3 3 3 3-1.343 3-3-1.344-3-3-3zm0 5c-1.105 0-2-0.896-2-2 0-1.105 0.895-2 2-2 1.104 0 2 0.895 2 2 0 1.104-0.896 2-2 2z" fill="#fff"/>
</svg>
