<?xml version="1.0" encoding="UTF-8" standalone="no"?>
<!-- Created with Inkscape (http://www.inkscape.org/) -->
<svg id="svg2" xmlns:rdf="http://www.w3.org/1999/02/22-rdf-syntax-ns#" xmlns="http://www.w3.org/2000/svg" height="22" width="22" version="1.1" xmlns:cc="http://creativecommons.org/ns#" xmlns:dc="http://purl.org/dc/elements/1.1/">
 <metadata id="metadata7">
  <rdf:RDF>
   <cc:Work rdf:about="">
    <dc:format>image/svg+xml</dc:format>
    <dc:type rdf:resource="http://purl.org/dc/dcmitype/StillImage"/>
    <dc:title/>
   </cc:Work>
  </rdf:RDF>
 </metadata>
 <g id="layer1" transform="translate(0 -1030.4)">
  <path id="rect3006" style="color:#000000;fill:#fff" d="m16.375 1033.4c-0.93106-0.01-1.849 0.3496-2.5625 1.0625-0.95126 0.9513-1.2601 2.2561-0.9375 3.4688l-1.5312 1.5312 0.656 0.7c0.62112-0.1188 1.2825-0.061 1.75 0.4062l0.875 0.8438 0.84375-0.8438c1.2128 0.3226 2.5175 0.014 3.4688-0.9375 0.95126-0.9513 1.2601-2.2872 0.9375-3.5l-1.5625 1.5625-2.25-0.3125-0.3125-2.25 1.5625-1.5625c-0.30319-0.081-0.62715-0.1223-0.9375-0.125zm-7.8438 8.875-5 5.0313c-0.71257 0.7127-0.71251 1.85 0 2.5625 0.71255 0.7126 1.8499 0.7126 2.5625 0l4.3438-4.3438-0.84375-0.8437c-0.4676-0.4675-0.52503-1.1289-0.40625-1.75l-0.65625-0.6563zm-3.7188 5.4063c0.23275 0 0.47869 0.072 0.65625 0.25 0.3552 0.3551 0.3552 0.9261 0 1.2812-0.35517 0.3553-0.92602 0.3552-1.2812 0-0.35514-0.3551-0.3552-0.926 0-1.2812 0.17757-0.1776 0.39225-0.2501 0.625-0.25z"/>
  <path id="rect3020" style="color:#000000;fill:#fff" d="m8.2718 1032.4 2.7257 2.7256-0.68142 0.6815h-1.3628l-0.68142 0.6814v1.3627l3.4071 3.4072c0.3775-0.3776 0.98533-0.3776 1.3628 0l6.1328 6.1328c0.37751 0.3775 0.37751 0.9853 0 1.3628l-1.3628 1.3629c-0.3775 0.3775-0.98533 0.3775-1.3628 0l-6.1328-6.1328c-0.3775-0.3775-0.3775-0.9854 0-1.3628l-3.4071-3.4071h-1.3628s-2.0443 0.6814-2.0443 3.4071h-1.3628c-0.68142-3.4071 1.3628-5.4515 1.3628-5.4515l2.7257-2.7256h1.3628v-1.3628l0.68142-0.6814z"/>
 </g>
</svg>
