<?xml version="1.0" encoding="UTF-8" standalone="no"?>
<!-- Created with Inkscape (http://www.inkscape.org/) -->
<svg id="svg2" xmlns:rdf="http://www.w3.org/1999/02/22-rdf-syntax-ns#" xmlns="http://www.w3.org/2000/svg" height="22" width="22" version="1.1" xmlns:cc="http://creativecommons.org/ns#" xmlns:dc="http://purl.org/dc/elements/1.1/">
 <metadata id="metadata7">
  <rdf:RDF>
   <cc:Work rdf:about="">
    <dc:format>image/svg+xml</dc:format>
    <dc:type rdf:resource="http://purl.org/dc/dcmitype/StillImage"/>
    <dc:title/>
   </cc:Work>
  </rdf:RDF>
 </metadata>
 <g id="layer1" transform="translate(0 -1030.4)">
  <path id="path1119" style="color:#000000;fill:#fff" d="m6.625 2.75c-1.875 0-3.625 0.25-3.625 0.25l-1 1v15s4.3114-0.535 7-0.031c-0.0003 0.011 0 0.02 0 0.031 0 0.554 0.446 1 1 1h2c0.554 0 1-0.446 1-1v-0.031c2.689-0.504 7 0.031 7 0.031v-15l-1-1s-1.75-0.25-3.625-0.25-3.875 0.25-4.375 1.25c-0.5-1-2.5-1.25-4.375-1.25zm0 1c0.8935 0 1.7982 0.061 2.4688 0.2188 0.5878 0.1383 0.8184 0.3154 0.9062 0.4062v12.813c-0.1512-0.046-0.2848-0.121-0.4375-0.157-0.9232-0.217-1.956-0.281-2.9375-0.281-1.3737 0-1.9714 0.111-2.625 0.188v-13.032c0.5615-0.0673 1.285-0.156 2.625-0.156zm8.75 0c1.34 0 2.064 0.0886 2.625 0.1562v13.032c-0.654-0.077-1.251-0.188-2.625-0.188-0.981 0-2.014 0.064-2.937 0.281-0.153 0.036-0.287 0.111-0.438 0.157v-12.813c0.088-0.0908 0.318-0.268 0.906-0.4062 0.671-0.1578 1.575-0.2188 2.469-0.2188zm-10.375 2.25v1h4v-1h-4zm8 0v1h4v-1h-4zm-8 2v1h4v-1h-4zm8 0v1h4v-1h-4zm-8 2v1h4v-1h-4zm8 0v1h4v-1h-4z" transform="translate(0 1030.4)"/>
 </g>
</svg>
