<?xml version="1.0" encoding="UTF-8" standalone="no"?>
<!-- Created with Inkscape (http://www.inkscape.org/) -->
<svg id="svg2" xmlns:rdf="http://www.w3.org/1999/02/22-rdf-syntax-ns#" xmlns="http://www.w3.org/2000/svg" height="22" width="22" version="1.1" xmlns:cc="http://creativecommons.org/ns#" xmlns:dc="http://purl.org/dc/elements/1.1/">
 <metadata id="metadata7">
  <rdf:RDF>
   <cc:Work rdf:about="">
    <dc:format>image/svg+xml</dc:format>
    <dc:type rdf:resource="http://purl.org/dc/dcmitype/StillImage"/>
    <dc:title/>
   </cc:Work>
  </rdf:RDF>
 </metadata>
 <g id="layer1" transform="translate(0 -1030.4)">
  <path id="path3025" style="color:#000000;fill:#fff" d="m11 1032.4c-4.9706 0-9 4.0294-9 9s4.0294 9 9 9 9-4.0294 9-9-4.0294-9-9-9zm-0.28125 2.8438c0.33875 0 0.69662 0.011 1.0312 0.062 0.97719 0.1638 1.9626 0.7682 2.2812 1.75 0.25331 0.7536 0.23749 1.6213-0.1875 2.3125-0.59724 1.1076-1.8303 1.7117-2.3438 2.875-0.14142 0.3621-0.34983 0.7739-0.3125 1.1562h-1.9375c-0.1467-0.732 0.17306-1.4924 0.59375-2.125 0.52104-0.8972 1.656-1.4739 2.125-2.4062 0.27139-0.5582 0.14303-1.3396-0.40625-1.6875-0.28157-0.1898-0.63577-0.218-0.96875-0.2188-0.77876 0-1.5393 0.2202-2.2188 0.5938-0.18837-0.5152-0.37413-1.0473-0.5625-1.5625 0.89178-0.4842 1.89-0.7351 2.9062-0.75zm-0.219 9.4c0.35416 0 0.66666 0.1042 0.90625 0.3437 0.23958 0.2292 0.34375 0.5418 0.34375 0.9063-0.000004 0.3645-0.10417 0.6459-0.34375 0.875-0.23959 0.2291-0.55209 0.3437-0.90625 0.3437-0.34375 0-0.625-0.1146-0.875-0.3437-0.23959-0.2291-0.375-0.5105-0.375-0.875-0.000002-0.3645 0.13541-0.6771 0.375-0.9063 0.25-0.2395 0.53125-0.3437 0.875-0.3437z"/>
 </g>
</svg>
