<?xml version="1.0" encoding="UTF-8" standalone="no"?>
<!-- Generator: Adobe Illustrator 15.0.0, SVG Export Plug-In . SVG Version: 6.00 Build 0)  -->
<!DOCTYPE svg  PUBLIC '-//W3C//DTD SVG 1.1//EN'  'http://www.w3.org/Graphics/SVG/1.1/DTD/svg11.dtd'>
<svg id="Layer_1" xmlns="http://www.w3.org/2000/svg" xml:space="preserve" height="22px" viewBox="0 0 22 22" width="22px" version="1.1" y="0px" x="0px" enable-background="new 0 0 22 22">
<path d="m15 12.5c0 2.21-1.79 4-4 4s-4-1.79-4-4 1.79-4 4-4 4 1.79 4 4z" fill="#fff"/>
<path d="m19 6.5h-3c-0.55 0-1.162-0.433-1.336-0.956l-0.368-1.103c-0.174-0.521-0.746-0.941-1.296-0.941h-4c-0.55 0-1.162 0.42-1.337 0.942l-0.367 1.102c-0.174 0.523-0.746 0.956-1.296 0.956h-3c-0.55 0-1 0.45-1 1v10c0 0.551 0.45 1 1 1h16c0.55 0 1-0.449 1-1v-10c0-0.55-0.45-1-1-1zm-8 11c-2.762 0-5-2.238-5-5 0-2.763 2.238-5 5-5 2.761 0 5 2.237 5 5 0 2.762-2.239 5-5 5z" fill="#fff"/>
</svg>
