<?xml version="1.0" encoding="UTF-8" standalone="no"?>
<!-- Created with Inkscape (http://www.inkscape.org/) -->
<svg id="svg2" xmlns:rdf="http://www.w3.org/1999/02/22-rdf-syntax-ns#" xmlns="http://www.w3.org/2000/svg" height="22" width="22" version="1.1" xmlns:cc="http://creativecommons.org/ns#" xmlns:dc="http://purl.org/dc/elements/1.1/">
 <metadata id="metadata7">
  <rdf:RDF>
   <cc:Work rdf:about="">
    <dc:format>image/svg+xml</dc:format>
    <dc:type rdf:resource="http://purl.org/dc/dcmitype/StillImage"/>
    <dc:title/>
   </cc:Work>
  </rdf:RDF>
 </metadata>
 <g id="layer1" transform="translate(0 -1030.4)">
  <path id="path912" style="color:#000000;fill:#fff" d="m4 1034.4c-0.48339 0-0.84309 0.3579-0.9375 0.8125-0.0406 0-0.0625 0.1-0.0625 0.2v1 11c0 0.554 0.446 1 1 1h13c0.554 0 1-0.446 1-1v-11-1c0-0.069-0.02188-0.1223-0.0625-0.1875-0.09441-0.4546-0.45411-0.8125-0.9375-0.8125h-1v1.5c0 0.831-0.669 1.5-1.5 1.5s-1.5-0.669-1.5-1.5v-1.5h-1v1.5c0 0.831-0.669 1.5-1.5 1.5s-1.5-0.669-1.5-1.5v-1.5h-1v1.5c0 0.831-0.669 1.5-1.5 1.5s-1.5-0.669-1.5-1.5v-1.5zm2 6h9v1h-9zm0 2h9v1h-9zm0 2h6v1h-6z"/>
  <rect id="rect914" style="color:#000000;fill:#fff" ry=".5" height="4" width="1" y="1032.4" x="6"/>
  <rect id="rect916" style="color:#000000;fill:#fff" ry=".5" height="4" width="1" y="1032.4" x="10"/>
  <rect id="rect918" style="color:#000000;fill:#fff" ry=".5" height="4" width="1" y="1032.4" x="14"/>
  <path id="path920" style="color:#000000;fill:#fff" d="m19 1036.4v1 11c0 0.554-0.446 1-1 1h-13c0 0.554 0.446 1 1 1h13c0.554 0 1-0.446 1-1v-11-1c0-0.069-0.02188-0.1223-0.0625-0.1875-0.095-0.5-0.455-0.8-0.938-0.8z"/>
 </g>
</svg>
