<?xml version="1.0" encoding="UTF-8" standalone="no"?>
<!-- Created with Inkscape (http://www.inkscape.org/) -->
<svg id="svg2" xmlns:rdf="http://www.w3.org/1999/02/22-rdf-syntax-ns#" xmlns="http://www.w3.org/2000/svg" height="24" width="24" version="1.1" xmlns:cc="http://creativecommons.org/ns#" xmlns:dc="http://purl.org/dc/elements/1.1/">
 <metadata id="metadata7">
  <rdf:RDF>
   <cc:Work rdf:about="">
    <dc:format>image/svg+xml</dc:format>
    <dc:type rdf:resource="http://purl.org/dc/dcmitype/StillImage"/>
    <dc:title/>
   </cc:Work>
  </rdf:RDF>
 </metadata>
 <g id="layer1" transform="translate(0 -1028.4)">
  <path id="path3942" style="color:#000000;fill:#fff" d="m11.469 3l-7.0002 4.0312 3.1562 1.7813 3.813-2.1563 0.031-3.6562zm1.062 0l0.031 3.6562 3.813 2.1563 3.156-1.7813-7-4.0312zm-0.531 4.4375l-4 2.2813v4.5622l4 2.281 4-2.281v-4.5622l-4-2.2813zm-8.0625 0.5313v8.0622l3.0937-1.812v-4.4378l-3.0937-1.8124zm16.124 0l-3.093 1.8124v4.4378l3.093 1.812v-8.0622zm-12.437 7.2192l-3.1562 1.781 7.0002 4.031-0.031-3.656-3.813-2.156zm8.75 0l-3.813 2.156-0.031 3.656 7-4.031-3.156-1.781z" transform="translate(0 1028.4)"/>
 </g>
</svg>
