<?xml version="1.0" encoding="UTF-8" standalone="no"?>
<!-- Created with Inkscape (http://www.inkscape.org/) -->
<svg id="svg2" xmlns:rdf="http://www.w3.org/1999/02/22-rdf-syntax-ns#" xmlns="http://www.w3.org/2000/svg" height="24" width="24" version="1.1" xmlns:cc="http://creativecommons.org/ns#" xmlns:dc="http://purl.org/dc/elements/1.1/">
 <metadata id="metadata7">
  <rdf:RDF>
   <cc:Work rdf:about="">
    <dc:format>image/svg+xml</dc:format>
    <dc:type rdf:resource="http://purl.org/dc/dcmitype/StillImage"/>
    <dc:title/>
   </cc:Work>
  </rdf:RDF>
 </metadata>
 <g id="layer1" transform="translate(0 -1028.4)">
  <path id="path2451" style="fill:#fff" d="m12 3c-4.9706 0-9 4.0294-9 9 0 4.971 4.0294 9 9 9 4.971 0 9-4.029 9-9 0-4.9706-4.029-9-9-9zm-0.062 1.9062c1.178-0.0058 1.452 0.0283 2.062 0.2188 2.008 0.627 3.506 1.9192 4.406 3.7812 0.519 1.0726 0.704 1.9398 0.656 3.1878-0.042 1.132-0.172 1.516-0.624 1.75-0.3 0.155-0.504 0.175-0.876 0.062-0.774-0.235-1.262-0.706-2.406-2.218-1.192-1.576-2.726-3.1208-3.718-3.7818-0.72-0.4788-1.8136-0.9996-2.4068-1.125-0.3017-0.0638-0.3367-0.0535-0.2812 0.1563 0.0323 0.1222 0.0915 0.7176 0.125 1.3125 0.0999 1.777-0.1922 3.054-0.9062 4-0.7897 1.046-2.0483 1.542-2.6563 1.062-0.4538-0.358-0.5584-1.246-0.3125-2.624 0.2561-1.4359 0.8946-2.602 2-3.7192 0.8573-0.8666 1.7114-1.405 2.8125-1.7813 0.6785-0.2318 0.8955-0.2713 2.1255-0.2813z" transform="translate(0 1028.4)"/>
 </g>
</svg>
