<?xml version="1.0" encoding="UTF-8" standalone="no"?>
<!-- Created with Inkscape (http://www.inkscape.org/) -->
<svg id="svg2" xmlns:rdf="http://www.w3.org/1999/02/22-rdf-syntax-ns#" xmlns="http://www.w3.org/2000/svg" height="24" width="24" version="1.1" xmlns:cc="http://creativecommons.org/ns#" xmlns:xlink="http://www.w3.org/1999/xlink" xmlns:dc="http://purl.org/dc/elements/1.1/">
 <metadata id="metadata7">
  <rdf:RDF>
   <cc:Work rdf:about="">
    <dc:format>image/svg+xml</dc:format>
    <dc:type rdf:resource="http://purl.org/dc/dcmitype/StillImage"/>
    <dc:title/>
   </cc:Work>
  </rdf:RDF>
 </metadata>
 <g id="layer1" transform="translate(0 -1028.4)">
  <g id="g4036" transform="translate(-67.913 -42.84)">
   <path id="rect3087" style="color:#000000;fill:#fff" d="m73.913 1074.2c-1.108 0-2 0.892-2 2v1h15v-1c0-1.108-0.892-2-2-2h-11zm-2 4v3h15v-3h-15zm0 4v3h15v-3h-15zm0 4v1c0 1.108 0.892 2 2 2h11c1.108 0 2-0.892 2-2v-1h-15z"/>
   <path id="path3097" style="color:#000000;fill:#fff" d="m80.913 1092.2 4-4h-4v4z"/>
  </g>
 </g>
</svg>
