<?xml version="1.0" encoding="UTF-8" standalone="no"?>
<!-- Created with Inkscape (http://www.inkscape.org/) -->
<svg id="svg2" xmlns:rdf="http://www.w3.org/1999/02/22-rdf-syntax-ns#" xmlns="http://www.w3.org/2000/svg" height="22" width="22" version="1.1" xmlns:cc="http://creativecommons.org/ns#" xmlns:dc="http://purl.org/dc/elements/1.1/">
 <metadata id="metadata7">
  <rdf:RDF>
   <cc:Work rdf:about="">
    <dc:format>image/svg+xml</dc:format>
    <dc:type rdf:resource="http://purl.org/dc/dcmitype/StillImage"/>
    <dc:title/>
   </cc:Work>
  </rdf:RDF>
 </metadata>
 <g id="layer1" transform="translate(0 -1030.4)">
  <path id="path3010" style="color:#000000;fill:#fff" d="m11 1032.4c-4.9706 0-9 4.0294-9 9s4.0294 9 9 9 9-4.0294 9-9-4.0294-9-9-9zm0 2c3.866 0 7 3.134 7 7s-3.134 7-7 7-7-3.134-7-7 3.134-7 7-7z"/>
  <rect id="rect832" ry="1" style="color:#000000;fill:#fff" transform="translate(0 1030.4)" height="10" width="2" y="6" x="10"/>
  <rect id="rect834" style="color:#000000;fill:#fff" transform="rotate(60.001)" ry="1" height="10" width="2" y="506.15" x="906.35"/>
  <rect id="rect836" ry="1" style="color:#000000;fill:#fff" transform="rotate(120)" height="10" width="2" y="-535.21" x="895.35"/>
 </g>
</svg>
