<?xml version="1.0" encoding="UTF-8" standalone="no"?>
<!-- Generator: Adobe Illustrator 15.0.0, SVG Export Plug-In . SVG Version: 6.00 Build 0)  -->
<!DOCTYPE svg  PUBLIC '-//W3C//DTD SVG 1.1//EN'  'http://www.w3.org/Graphics/SVG/1.1/DTD/svg11.dtd'>
<svg id="Layer_1" xmlns="http://www.w3.org/2000/svg" xml:space="preserve" height="24px" viewBox="0 0 24 24" width="24px" version="1.1" y="0px" x="0px" enable-background="new 0 0 24 24">
<path d="m19.972 3h-15.943c-0.566 0-1.029 0.463-1.029 1.029v15.943c0 0.565 0.463 1.028 1.029 1.028h15.943c0.565 0 1.028-0.463 1.028-1.028v-15.943c0-0.566-0.463-1.029-1.028-1.029zm-1.694 10.097h-2.474v6.617h-2.519v-6.617h-1.75v-2.382h1.75v-2.035c0-1.599 1.033-3.067 3.415-3.067 0.964 0 1.677 0.092 1.677 0.092l-0.056 2.225s-0.728-0.007-1.521-0.007c-0.859 0-0.997 0.396-0.997 1.053v0.109 1.63h2.586l-0.111 2.382z" fill="#fff"/>
</svg>
