<?xml version="1.0" encoding="UTF-8" standalone="no"?>
<!-- Created with Inkscape (http://www.inkscape.org/) -->
<svg id="svg2" xmlns:rdf="http://www.w3.org/1999/02/22-rdf-syntax-ns#" xmlns="http://www.w3.org/2000/svg" height="24" width="24" version="1.1" xmlns:cc="http://creativecommons.org/ns#" xmlns:xlink="http://www.w3.org/1999/xlink" xmlns:dc="http://purl.org/dc/elements/1.1/">
 <metadata id="metadata7">
  <rdf:RDF>
   <cc:Work rdf:about="">
    <dc:format>image/svg+xml</dc:format>
    <dc:type rdf:resource="http://purl.org/dc/dcmitype/StillImage"/>
    <dc:title/>
   </cc:Work>
  </rdf:RDF>
 </metadata>
 <g id="layer1" transform="translate(0 -1028.4)">
  <g id="g4036" transform="translate(-67.913 -42.84)">
   <path id="path3074" style="color:#000000;fill:#fff" d="m5 4c-0.554 0-1 0.446-1 1v14c0 0.554 0.446 1 1 1h14c0.554 0 1-0.446 1-1v-14c0-0.554-0.446-1-1-1h-14zm12.219 1s-0.117 1.2106-0.25 3.9688h-0.719l-0.25-0.9688c-0.304-1.2173-0.739-1.875-1.5-1.875h-4.156c-0.324 0-0.344 0.1222-0.344 0.3125v4.7185s1.976 0.002 2.812-0.094c0.742-0.075 0.86-0.214 1.032-0.937l0.281-1.0938h0.813l-0.126 2.4998 0.063 2.5h-0.813l-0.218-1c-0.172-0.742-0.499-0.868-1.032-0.906-0.722-0.057-2.812-0.063-2.812-0.063v4.719c0 0.818 0.455 1.219 1.406 1.219h2.656c0.952 0 1.786-0.106 2.376-1.438l0.75-1.687h0.718c-0.057 0.342-0.443 3.44-0.5 4.125 0 0-2.596-0.094-3.718-0.094h-4.813l-2.9688 0.094v-0.812l1-0.188c0.7039-0.134 0.9376-0.336 0.9376-0.906 0 0 0.0624-1.893 0.0624-5.032 0-3.1382-0.0624-5.0308-0.0624-5.0308-0.0575-0.647-0.2337-0.8042-0.9376-0.9374l-1-0.1876v-0.7812l2.9688 0.0938h5.375c1.103 0 2.969-0.2188 2.969-0.2188z" transform="translate(67.913 1071.2)"/>
  </g>
 </g>
</svg>
