<?xml version="1.0" encoding="UTF-8" standalone="no"?>
<!-- Created with Inkscape (http://www.inkscape.org/) -->
<svg id="svg2" xmlns:rdf="http://www.w3.org/1999/02/22-rdf-syntax-ns#" xmlns="http://www.w3.org/2000/svg" height="24" width="24" version="1.1" xmlns:cc="http://creativecommons.org/ns#" xmlns:dc="http://purl.org/dc/elements/1.1/">
 <metadata id="metadata7">
  <rdf:RDF>
   <cc:Work rdf:about="">
    <dc:format>image/svg+xml</dc:format>
    <dc:type rdf:resource="http://purl.org/dc/dcmitype/StillImage"/>
    <dc:title/>
   </cc:Work>
  </rdf:RDF>
 </metadata>
 <g id="layer1" transform="translate(0 -1028.4)">
  <path id="path3018" style="color:#000000;fill:#fff" d="m14.062 3.2188-1.875 3.6875 1.9062 0.46875zm-4.6562 0.1875 0.1875 4.125l1.9067-0.5938zm8.75 2.0312-3.4688 2.2188 1.4688 1.375zm-12.718 0.4063 2.2187 3.4687 1.375-1.4687zm1.9375 4.0625-4.1562 0.03125 3.6875 1.875zm-0.4375 2.5937-3.5313 2.094 2.7813-0.125c0.3123-0.341 0.6918-0.611 1.0937-0.844z" transform="translate(0 1028.4)"/>
  <path id="path3006" style="color:#000000;fill:#fff" d="m21 16a5 5 0 1 1 -10 0 5 5 0 1 1 10 0z" transform="matrix(1.1 0 0 1.1 -2.1 1026.3)"/>
  <path id="path3008" style="color:#000000;fill:#fff" d="m21 16a5 5 0 1 1 -10 0 5 5 0 1 1 10 0z" transform="matrix(.7 0 0 .7 -1.7 1034.7)"/>
  <path id="rect3010" style="color:#000000;fill:#fff" d="m9.5 17h6.5v4h-6.5z" transform="translate(0 1028.4)"/>
  <path id="path3013" style="color:#000000;fill:#fff" d="m12 6c-3.3137 0-6 2.6863-6 6 0 0.784 0.1643 1.533 0.4375 2.219 0.3775-0.353 0.8019-0.667 1.2813-0.875-0.1344-0.427-0.2188-0.873-0.2188-1.344 0-2.4853 2.0147-4.5 4.5-4.5 1.332 0 2.52 0.5798 3.344 1.5 0.053-0.0014 0.102 0 0.156 0 0.636 0 1.262 0.0774 1.844 0.25-0.995-1.937-3.017-3.25-5.344-3.25z" transform="translate(0 1028.4)"/>
 </g>
</svg>
