<?xml version="1.0" encoding="UTF-8" standalone="no"?>
<!-- Generator: Adobe Illustrator 15.0.0, SVG Export Plug-In . SVG Version: 6.00 Build 0)  -->
<!DOCTYPE svg  PUBLIC '-//W3C//DTD SVG 1.1//EN'  'http://www.w3.org/Graphics/SVG/1.1/DTD/svg11.dtd'>
<svg id="Layer_1" xmlns="http://www.w3.org/2000/svg" xml:space="preserve" height="24px" viewBox="0 0 24 24" width="24px" version="1.1" y="0px" x="0px" enable-background="new 0 0 24 24">
<path d="m15.718 3.808c-1.177-0.534-2.427-0.808-3.719-0.808-1.075 0-2.132 0.207-3.149 0.588 0.239 0.216 6.56 5.955 6.868 6.234v-6.014z" fill="#fff"/>
<path d="m7.357 19.721v-7.754c-0.302 0.274-3.623 3.293-3.727 3.387 0.724 1.812 2.043 3.349 3.727 4.367z" fill="#fff"/>
<path d="m2.981 12.019c0 0.775 0.116 1.561 0.327 2.342 0.244-0.222 7.838-7.121 7.994-7.263-0.152-0.138-3.31-3.004-3.412-3.098-3.029 1.555-4.909 4.619-4.909 8.019z" fill="#fff"/>
<path d="m8.305 15.938v4.304c0.917 0.412 1.876 0.667 2.863 0.759h1.653c3.115-0.29 5.897-2.211 7.279-5.062-0.326-0.001-11.602-0.001-11.795-0.001z" fill="#fff"/>
<path d="m16.669 4.326v10.661h3.838c0.336-0.96 0.512-1.958 0.512-2.968 0-3.134-1.666-6.061-4.35-7.693z" fill="#fff"/>
</svg>
