<?xml version="1.0" encoding="UTF-8" standalone="no"?>
<!-- Created with Inkscape (http://www.inkscape.org/) -->
<svg id="svg2" xmlns:rdf="http://www.w3.org/1999/02/22-rdf-syntax-ns#" xmlns="http://www.w3.org/2000/svg" height="24" width="24" version="1.1" xmlns:cc="http://creativecommons.org/ns#" xmlns:xlink="http://www.w3.org/1999/xlink" xmlns:dc="http://purl.org/dc/elements/1.1/">
 <metadata id="metadata7">
  <rdf:RDF>
   <cc:Work rdf:about="">
    <dc:format>image/svg+xml</dc:format>
    <dc:type rdf:resource="http://purl.org/dc/dcmitype/StillImage"/>
    <dc:title/>
   </cc:Work>
  </rdf:RDF>
 </metadata>
 <g id="layer1" transform="translate(0 -1028.4)">
  <g id="g4036" transform="translate(-67.913 -42.84)">
   <path id="path3058" style="color:#000000;fill:#fff" d="m14.469 6.875c-1.473 0-2.766 0.7898-3.469 1.9688v7.1562h7.625 0.281v-0.031c1.174-0.143 2.094-1.132 2.094-2.344 0-1.31-1.065-2.375-2.375-2.375-0.044 0-0.081 0.029-0.125 0.031 0.01-0.115 0.031-0.226 0.031-0.343 0-2.2309-1.832-4.063-4.062-4.063zm-5.469 2.0312v7.0938h1v-6.9688c-0.2863-0.0854-0.5927-0.125-0.9062-0.125-0.0313 0-0.0628-0.0008-0.0938 0zm-1 0.1876c-0.3794 0.1349-0.7041 0.3345-1 0.5937v6.3125h1v-6.9062zm-2.625 2.1562c-0.1316 0-0.2492 0.042-0.375 0.062v4.657c0.1024 0.016 0.2063 0.028 0.3125 0.031 0.0213 0.001 0.041 0 0.0625 0h0.625v-4.625c-0.2054-0.058-0.401-0.125-0.625-0.125zm-1.375 0.438c-0.6009 0.431-1 1.142-1 1.937 0 0.789 0.4055 1.474 1 1.906v-3.843z" transform="translate(67.913 1071.2)"/>
  </g>
 </g>
</svg>
