<?xml version="1.0" encoding="UTF-8" standalone="no"?>
<!-- Created with Inkscape (http://www.inkscape.org/) -->
<svg id="svg2" xmlns:rdf="http://www.w3.org/1999/02/22-rdf-syntax-ns#" xmlns="http://www.w3.org/2000/svg" height="24" width="24" version="1.1" xmlns:cc="http://creativecommons.org/ns#" xmlns:dc="http://purl.org/dc/elements/1.1/">
 <metadata id="metadata7">
  <rdf:RDF>
   <cc:Work rdf:about="">
    <dc:format>image/svg+xml</dc:format>
    <dc:type rdf:resource="http://purl.org/dc/dcmitype/StillImage"/>
    <dc:title/>
   </cc:Work>
  </rdf:RDF>
 </metadata>
 <g id="layer1" transform="translate(0 -1028.4)">
  <g id="g3131" transform="matrix(.069611 0 0 .069611 39.313 972.59)">
   <path id="path10589" style="fill:#fff" d="m-471 955.37c0 14.061-11.395 25.447-25.456 25.447-14.051 0-25.437-11.386-25.437-25.447s11.386-25.456 25.437-25.456c14.061 0 25.456 11.395 25.456 25.456"/>
   <path id="path10597" style="fill:#fff" d="m-262.85 955.37c0 14.061-11.395 25.447-25.456 25.447-14.051 0-25.437-11.386-25.437-25.447s11.386-25.456 25.437-25.456c14.061 0 25.456 11.395 25.456 25.456"/>
   <path id="path10617" style="fill:#fff" d="m-276.86 879.93c0 11.832-9.5984 21.43-21.42 21.43-11.852 0-21.44-9.5984-21.44-21.43 0-11.842 9.5883-21.43 21.44-21.43 11.822 0 21.42 9.5883 21.42 21.43"/>
   <path id="path10633" style="fill:#fff" d="m-392.82 915.16c-63.654 0-115.37 35.697-115.37 79.46s51.719 79.011 115.37 79.011c63.664 0 115.37-35.248 115.37-79.011s-51.71-79.46-115.37-79.46zm41.301 40.403c10.994 0 19.753 9.1936 19.753 20.202 0 10.994-8.7586 19.753-19.753 19.753-10.98 0-20.202-8.7585-20.202-19.753 0-11.008 9.2214-20.202 20.202-20.202zm-81.255 0.89785c10.563 0 18.855 8.7144 18.855 19.304 0 10.576-8.2922 18.855-18.855 18.855-10.589 0-19.304-8.2788-19.304-18.855 0-10.589 8.7144-19.304 19.304-19.304zm-2.2446 61.503c0.0355-0.012 0.41301 0.011 0.44893 0 0.0359-0.011 0.41265 0.01 0.44892 0a1.9223 1.9223 0 0 1 0.44893 0c0.0235 0 0.42539-0.0005 0.44892 0 0.0235-0.001 0.42537 0.0005 0.44892 0 0.0236 0.0005 0.42539-0.001 0.44893 0 0.0257 0.0001 0.42319-0.0007 0.44892 0h0.44893 0.44892c0.0253 0 0.42378-0.01 0.44892 0 0.0249 0.01 0.42424-0.01 0.44893 0 0.0245 0.01-0.0243 0.4405 0 0.4489 0.0243 0.01 0.42482-0.01 0.44892 0 0.0236 0.01 0.42553-0.011 0.44893 0 0.0231 0.011 0.42606-0.012 0.44892 0 0.0229 0.012-0.0226 0.4366 0 0.449 0.022 0.013 0.42728-0.014 0.44892 0 0.0213 0.014-0.0209 0.434 0 0.4489 0.021 0.015 0.42833-0.015 0.44893 0 0.0198 0.016 0.42947 0.4321 0.44892 0.4489 7.2703 7.2703 20.981 10.134 33.22 10.325 0.55263 0.01 1.1887 0 1.7957 0 0.60735 0 1.2427 0.01 1.7957 0 12.247-0.191 25.936-3.048 33.22-10.325 0.0172-0.015 0.43145-0.4342 0.44892-0.4489 0.0184-0.014 0.43028 0.013 0.44892 0 0.0186-0.013-0.0189-0.4362 0-0.4489 0.0194-0.012 0.42925 0.011 0.44893 0 0.0202-0.011 0.42855-0.4387 0.44892-0.449 0.0208-0.01 0.42794 0.01 0.44893 0 0.0215-0.01 0.42726-0.4417 0.44892-0.4489 0.022-0.01 0.42685 0.01 0.44893 0h0.44892 0.44892 0.44893c0.0213-0.001 0.42765 0.0006 0.44892 0 0.0213 0.0003 0.42765-0.0006 0.44893 0h0.44892 0.44892 0.44893c0.0205 0.01 0.42849-0.01 0.44892 0 0.0202 0.01 0.42889 0.4418 0.44893 0.4489 0.0196 0.01 0.42951-0.01 0.44892 0 0.019 0.01 0.43006-0.01 0.44892 0 0.0189 0.01-0.0187 0.4387 0 0.449 0.0182 0.011 0.4309-0.011 0.44893 0 0.0176 0.012-0.0173 0.4366 0 0.4489 0.0173 0.012 0.43183-0.013 0.44892 0 0.0163 0.014 0.43288 0.4349 0.44893 0.4489 0.0152 0.015 0.43402-0.015 0.44892 0s-0.0146 0.4335 0 0.4489c0.0137 0.016 0.43558 0.4324 0.44892 0.449 0.0123 0.017-0.012 0.4313 0 0.4489 0.0116 0.018 0.43762-0.018 0.44893 0 0.0109 0.018-0.0106 0.4305 0 0.4489 0.009 0.019 0.43981 0.4297 0.44892 0.4489 0.008 0.02-0.008 0.4292 0 0.449 0.007 0.02-0.006 0.4286 0 0.4489 0.006 0.02 0.44374 0.4283 0.44893 0.4489 0.004 0.021-0.004 0.428 0 0.4489 0.003 0.021-0.002 0.4278 0 0.449 0.001 0.021-0.001 0.4276 0 0.4489 0.00024 0.021 0.00017 0.4276 0 0.4489-0.001 0.021 0.001 0.4277 0 0.4489-0.003 0.021 0.003 0.4279 0 0.449-0.004 0.021 0.004 0.428 0 0.4489-0.005 0.021 0.006 0.4283 0 0.4489-0.006 0.021-0.44299-0.02-0.44893 0-0.007 0.02 0.007 0.4289 0 0.4489-0.008 0.02 0.008 0.4293 0 0.449-0.009 0.019-0.4395-0.019-0.44892 0-0.009 0.019 0.01 0.43 0 0.4489-0.0105 0.018 0.0109 0.4306 0 0.4489-0.0113 0.018-0.43732-0.018-0.44893 0-0.012 0.018 0.0123 0.4316 0 0.4489-0.0133 0.017-0.4353 0.4326-0.44892 0.4489-0.0146 0.016 0.0148 0.4337 0 0.449-0.0149 0.015-0.43377-0.015-0.44892 0-12.027 12.015-29.654 13.809-43.546 13.917h-1.3468-1.3468c-13.884-0.107-31.524-1.8952-43.546-13.917-0.0275-0.025-0.42228 0.026-0.44892 0-0.0267-0.026 0.0257-0.4217 0-0.449-0.0248-0.028-0.42515-0.4199-0.44892-0.4489-0.0228-0.03 0.0217-0.4183 0-0.4489-0.0217-0.031-0.42828 0.031-0.44893 0-0.0196-0.032 0.0184-0.4163 0-0.4489-0.0184-0.033-0.43161 0.033-0.44892 0-0.0173-0.033 0.0162-0.4151 0-0.4489-0.015-0.034 0.0138-0.4141 0-0.449-0.0126-0.035-0.43759-0.4132-0.44893-0.4489-0.0101-0.036 0.009-0.4125 0-0.4489-0.009-0.036 0.008-0.4122 0-0.4489-0.006-0.037 0.005-0.4118 0-0.449-0.004-0.037 0.002-0.4115 0-0.4489-0.001-0.038-0.00012-0.4114 0-0.4489 0.001-0.037-0.003-0.4115 0-0.4489 0.004-0.037-0.005-0.4118 0-0.449 0.005-0.037-0.007-0.412 0-0.4489 0.008-0.037-0.009-0.4125 0-0.4489 0.0104-0.036-0.0116-0.4133 0-0.4489 0.0116-0.036 0.43612 0.035 0.44893 0 0.0128-0.035-0.014-0.4142 0-0.449 0.0152-0.034-0.0164-0.4152 0-0.4489 0.0164-0.034 0.43139 0.033 0.44892 0 0.0175-0.033-0.0187-0.4164 0-0.4489 0.0198-0.032-0.0209-0.4178 0-0.4489 0.0209-0.031 0.427 0.03 0.44893 0 0.023-0.03-0.024-0.4201 0-0.449 0.024-0.029 0.42397 0.028 0.44892 0 0.0249-0.028-0.0259-0.4218 0-0.4489 0.0268-0.026 0.42121 0.025 0.44892 0 0.0277-0.025-0.0286-0.4246 0-0.4489 0.0286-0.024 0.41954 0.023 0.44893 0 0.0302-0.022 0.418-0.4277 0.44892-0.4489 0.0316-0.02 0.41662 0.019 0.44893 0 0.0323-0.019-0.0329-0.4311 0-0.449 0.0335-0.017 0.41482 0.016 0.44892 0 0.0346-0.014 0.41383-0.4357 0.44892-0.4489z"/>
   <path id="path3166" style="stroke-linejoin:round;stroke-width:14.366;color:#000000;stroke:#fff;fill:none" d="m-387.59 927.87 3.0286-62.464 78.742 16.657"/>
  </g>
 </g>
</svg>
