<?xml version="1.0" encoding="UTF-8" standalone="no"?>
<!-- Created with Inkscape (http://www.inkscape.org/) -->
<svg id="svg2" xmlns:rdf="http://www.w3.org/1999/02/22-rdf-syntax-ns#" xmlns="http://www.w3.org/2000/svg" height="24" width="24" version="1.1" xmlns:cc="http://creativecommons.org/ns#" xmlns:xlink="http://www.w3.org/1999/xlink" xmlns:dc="http://purl.org/dc/elements/1.1/">
 <metadata id="metadata7">
  <rdf:RDF>
   <cc:Work rdf:about="">
    <dc:format>image/svg+xml</dc:format>
    <dc:type rdf:resource="http://purl.org/dc/dcmitype/StillImage"/>
    <dc:title/>
   </cc:Work>
  </rdf:RDF>
 </metadata>
 <g id="layer1" transform="translate(0 -1028.4)">
  <g id="g4036" transform="translate(-67.913 -42.84)">
   <path id="path1950" style="fill:#fff" d="m85.136 1079.1v1.8194c0 1.4105-1.1959 2.5977-2.5595 2.5977h-3.7928c-1.121 0-2.0486 0.9594-2.0486 2.082v4.2017c0 1.1104 0.96552 1.7635 2.0486 2.082 1.2969 0.3813 2.5406 0.4503 4.0924 0 1.0315-0.2986 2.1242-0.902 2.0486-2.082v-1.5615h-4.0924v-0.8208h3.7928 2.0486c1.1908 0 1.6345-0.8306 2.0486-2.0773 0.42776-1.2834 0.40956-2.5175 0-4.164-0.29427-1.1854-0.85632-2.0772-2.0486-2.0772zm-2.7021 10.18c0.42472 0 0.76882 0.348 0.76882 0.7783-0.00001 0.432-0.3441 0.7832-0.76882 0.7832-0.42321 0-0.76881-0.3512-0.76881-0.7832 0-0.4303 0.34561-0.7783 0.76881-0.7783z"/>
   <path id="path4202" style="fill:#fff" d="m75.689 1087.3v-1.8194c0-1.4105 1.1959-2.9978 2.5595-2.9978h3.7928c1.121 0 2.0486-0.9594 2.0486-2.082v-3.8016c0-1.1104-0.96552-1.7635-2.0486-2.082-1.2969-0.3813-2.5406-0.4503-4.0924 0-1.0315 0.2986-2.1242 0.902-2.0486 2.082v1.5615h4.0924v0.8208h-3.7928-2.0486c-1.1908 0-1.6345 0.8306-2.0486 2.0773-0.42776 1.2834-0.40956 2.5175 0 4.164 0.29427 1.1854 0.85632 2.0772 2.0486 2.0772zm2.7021-10.18c-0.42472 0-0.76882-0.348-0.76882-0.7783 0.00001-0.432 0.3441-0.7832 0.76882-0.7832 0.42321 0 0.76881 0.3512 0.76881 0.7832 0 0.4303-0.34561 0.7783-0.76881 0.7783z"/>
  </g>
 </g>
</svg>
