<?xml version="1.0" encoding="UTF-8" standalone="no"?>
<!-- Created with Inkscape (http://www.inkscape.org/) -->
<svg id="svg2" xmlns:rdf="http://www.w3.org/1999/02/22-rdf-syntax-ns#" xmlns="http://www.w3.org/2000/svg" height="24" width="24" version="1.1" xmlns:cc="http://creativecommons.org/ns#" xmlns:xlink="http://www.w3.org/1999/xlink" xmlns:dc="http://purl.org/dc/elements/1.1/">
 <metadata id="metadata7">
  <rdf:RDF>
   <cc:Work rdf:about="">
    <dc:format>image/svg+xml</dc:format>
    <dc:type rdf:resource="http://purl.org/dc/dcmitype/StillImage"/>
    <dc:title/>
   </cc:Work>
  </rdf:RDF>
 </metadata>
 <g id="layer1" transform="translate(0 -1028.4)">
  <g id="g4036" transform="translate(-67.913 -42.84)">
   <path id="rect3034" style="color:#000000;fill:#fff" d="m5 6c-0.554 0-1 0.446-1 1v13c0 0.554 0.446 1 1 1h11c0.554 0 1-0.446 1-1v-13c0-0.554-0.446-1-1-1h-11zm5.25 2.3438c0.601 0 1.078 0.08 1.469 0.25 0.39 0.1604 0.707 0.3744 0.937 0.625 0.231 0.2502 0.41 0.512 0.5 0.8122 0.09 0.301 0.094 0.595 0.094 0.875 0 0.341-0.057 0.667-0.188 0.938-0.12 0.27-0.247 0.519-0.437 0.75-0.19 0.23-0.436 0.446-0.656 0.656-0.221 0.2-0.404 0.404-0.594 0.625-0.19 0.21-0.339 0.447-0.469 0.687-0.12 0.241-0.219 0.481-0.218 0.782v0.187c0 0.061 0.052 0.128 0.062 0.188h-1.5938c-0.02-0.1-0.0212-0.172-0.0312-0.281-0.01-0.121 0-0.244 0-0.344 0-0.331 0.046-0.646 0.1562-0.906 0.1102-0.261 0.236-0.499 0.4063-0.719 0.1703-0.221 0.3725-0.404 0.5625-0.594 0.2-0.19 0.361-0.372 0.531-0.563 0.171-0.19 0.328-0.424 0.438-0.624 0.11-0.201 0.156-0.385 0.156-0.626 0-0.33-0.113-0.633-0.344-0.843-0.22-0.221-0.549-0.344-1-0.344-0.3504 0-0.7104 0.0652-1.031 0.156-0.3206 0.08-0.6181 0.216-0.9688 0.407l-0.5312-1.4068c0.3707-0.2102 0.8104-0.3794 1.2812-0.5 0.4809-0.1304 0.9679-0.1874 1.4688-0.1874zm-0.25 8.6252c0.341 0 0.613 0.114 0.844 0.343 0.23 0.221 0.343 0.462 0.344 0.813-0.001 0.351-0.114 0.655-0.344 0.875-0.231 0.221-0.503 0.344-0.844 0.344-0.3306 0-0.6346-0.123-0.875-0.344-0.2304-0.22-0.3438-0.524-0.3438-0.875s0.1134-0.592 0.3438-0.813c0.2404-0.23 0.5444-0.343 0.875-0.343z" transform="translate(67.913 1071.2)"/>
   <path id="rect3036" style="color:#000000;fill:#fff" d="m75.913 1074.2c-0.554 0-1 0.446-1 1v1h10c0.554 0 1 0.446 1 1v12h1c0.554 0 1-0.446 1-1v-13c0-0.554-0.446-1-1-1h-11z"/>
  </g>
 </g>
</svg>
