<?xml version="1.0" encoding="UTF-8" standalone="no"?>
<!-- Created with Inkscape (http://www.inkscape.org/) -->
<svg id="svg2" xmlns:rdf="http://www.w3.org/1999/02/22-rdf-syntax-ns#" xmlns="http://www.w3.org/2000/svg" height="24" width="24" version="1.1" xmlns:cc="http://creativecommons.org/ns#" xmlns:xlink="http://www.w3.org/1999/xlink" xmlns:dc="http://purl.org/dc/elements/1.1/">
 <metadata id="metadata7">
  <rdf:RDF>
   <cc:Work rdf:about="">
    <dc:format>image/svg+xml</dc:format>
    <dc:type rdf:resource="http://purl.org/dc/dcmitype/StillImage"/>
    <dc:title/>
   </cc:Work>
  </rdf:RDF>
 </metadata>
 <g id="layer1" transform="translate(0 -1028.4)">
  <g id="g4036" transform="translate(-67.913 -42.84)">
   <path id="path3079" style="color:#000000;fill:#fff" d="m78.23 1075.8c-1.5553 0.898-1.1892 2.0197-1.7303 2.3322-0.58699 0.3387-2.6736-0.5109-3.5358 0.3009-1.2191 1.1474-0.37615 8.2753-0.37615 8.2753l-1.5046 1.5796c-0.54049 0.5822 0.37615 0.3764 0.37615 0.3764l15.798-7.4479s0.80085-0.5681-0.30092-0.5264h-2.1064c-1.9779-2.0333-5.4984-5.5377-6.6202-4.8901zm8.6514 7.523-8.2 4.4386s2.0406 1.3689 3.7615 0.5264c1.5104-0.7392 0.71316-2.142 1.2037-2.4824 0.42933-0.2479 1.4683 0.9384 2.1817 0.5264 1.3325-0.7693 1.0532-3.009 1.0532-3.009zm-2.633 3.7615c-0.28873 0.2887 0.67707 3.6111 0.67707 3.6111l3.9872-2.9338c-1.7504-0.469-4.3514-0.9901-4.6642-0.6773z"/>
  </g>
 </g>
</svg>
