<?xml version="1.0" encoding="UTF-8" standalone="no"?>
<!-- Created with Inkscape (http://www.inkscape.org/) -->
<svg id="svg2" xmlns:rdf="http://www.w3.org/1999/02/22-rdf-syntax-ns#" xmlns="http://www.w3.org/2000/svg" height="24" width="24" version="1.1" xmlns:cc="http://creativecommons.org/ns#" xmlns:dc="http://purl.org/dc/elements/1.1/">
 <metadata id="metadata7">
  <rdf:RDF>
   <cc:Work rdf:about="">
    <dc:format>image/svg+xml</dc:format>
    <dc:type rdf:resource="http://purl.org/dc/dcmitype/StillImage"/>
    <dc:title/>
   </cc:Work>
  </rdf:RDF>
 </metadata>
 <g id="layer1" transform="translate(0 -1028.4)">
  <path id="rect3831" style="color:#000000;fill:#fff" d="m5 5v1c0 0.554-0.446 1-1 1h-1v10h1c0.554 0 1 0.446 1 1v1h14v-1s0.446-1 1-1h1v-10h-1c-0.554 0-1-1-1-1v-1zm0 4h1v6h-1zm2 0h1.5l1 4 1.094-4h1.406v6h-1v-4l-1 4h-1l-1-4v4h-1zm6 0h1 1c0.554 0 1 0.446 1 1v4c0 0.554-0.446 1-1 1h-1-1v-1.5-3zm4 0h1v1h1c0.54031 0 1 0.446 1 1v3c0 0.554-0.446 1-1 1h-1-1v-1-0.5-1-0.5zm-3 1v4h0.5c0.277 0 0.5-0.223 0.5-0.5v-3c0-0.277-0.223-0.5-0.5-0.5zm4 1v3h0.5c0.277 0 0.5-0.223 0.5-0.5v-2c0-0.277-0.223-0.5-0.5-0.5z" transform="translate(0 1028.4)"/>
 </g>
</svg>
