<?xml version="1.0" encoding="UTF-8" standalone="no"?>
<!-- Generator: Adobe Illustrator 15.0.0, SVG Export Plug-In . SVG Version: 6.00 Build 0)  -->
<!DOCTYPE svg  PUBLIC '-//W3C//DTD SVG 1.1//EN'  'http://www.w3.org/Graphics/SVG/1.1/DTD/svg11.dtd'>
<svg id="Layer_1" xmlns="http://www.w3.org/2000/svg" xml:space="preserve" height="24px" viewBox="0 0 24 24" width="24px" version="1.1" y="0px" x="0px" enable-background="new 0 0 24 24">
<path d="m21 6.417c-0.662 0.294-1.374 0.492-2.121 0.582 0.763-0.457 1.348-1.181 1.624-2.043-0.714 0.423-1.504 0.73-2.346 0.896-0.673-0.718-1.633-1.166-2.695-1.166-2.039 0-3.693 1.653-3.693 3.693 0 0.289 0.033 0.571 0.096 0.841-3.069-0.154-5.79-1.624-7.612-3.858-0.318 0.545-0.5 1.18-0.5 1.856 0 1.281 0.652 2.412 1.643 3.074-0.605-0.019-1.175-0.185-1.673-0.462v0.046c0 1.79 1.273 3.282 2.962 3.622-0.31 0.084-0.636 0.129-0.973 0.129-0.238 0-0.469-0.023-0.695-0.066 0.47 1.467 1.834 2.535 3.45 2.564-1.264 0.99-2.856 1.582-4.586 1.582-0.298 0-0.592-0.018-0.881-0.053 1.634 1.049 3.575 1.66 5.661 1.66 6.792 0 10.507-5.627 10.507-10.507 0-0.16-0.004-0.32-0.011-0.478 0.722-0.52 1.348-1.171 1.843-1.912z" fill="#fff"/>
</svg>
