<?xml version="1.0" encoding="UTF-8" standalone="no"?>
<!-- Created with Inkscape (http://www.inkscape.org/) -->
<svg id="svg2" xmlns:rdf="http://www.w3.org/1999/02/22-rdf-syntax-ns#" xmlns="http://www.w3.org/2000/svg" height="24" width="24" version="1.1" xmlns:cc="http://creativecommons.org/ns#" xmlns:xlink="http://www.w3.org/1999/xlink" xmlns:dc="http://purl.org/dc/elements/1.1/">
 <metadata id="metadata7">
  <rdf:RDF>
   <cc:Work rdf:about="">
    <dc:format>image/svg+xml</dc:format>
    <dc:type rdf:resource="http://purl.org/dc/dcmitype/StillImage"/>
    <dc:title/>
   </cc:Work>
  </rdf:RDF>
 </metadata>
 <g id="layer1" transform="translate(0 -1028.4)">
  <g id="g4036" transform="translate(-67.913 -42.84)">
   <rect id="rect3851" style="color:#000000;fill:#fff" ry=".5" height="6" width="1" y="1074.2" x="72.912"/>
   <rect id="rect3853" style="color:#000000;fill:#fff" ry=".5" height="6" width="1" y="1074.2" x="74.912"/>
   <rect id="rect3855" style="color:#000000;fill:#fff" ry=".5" height="6" width="1" y="1074.2" x="76.912"/>
   <path id="rect3857" style="color:#000000;fill:#fff" d="m82.913 1074.2c2 0 4 5.0311 4 8.5 0 2.4793-1.115 3.5-2.5 3.5s-2.5-1.115-2.5-2.5v-8.5c0-0.707 0.2744-1 1-1z"/>
   <rect id="rect3859" style="color:#000000;fill:#fff" ry="1.5" height="10" width="3" y="1082.2" x="81.912"/>
   <rect id="rect3863" style="color:#000000;fill:#fff" height="3" width="7" y="1078.2" x="72.912"/>
   <rect id="rect3865" style="color:#000000;fill:#fff" ry="1.8981" height="4" width="7" y="1079.2" x="72.912"/>
   <rect id="rect3867" style="color:#000000;fill:#fff" ry="1.5" height="12" width="3" y="1080.2" x="74.912"/>
   <rect id="rect3077" style="color:#000000;fill:#fff" ry=".5" height="6" width="1" y="1074.2" x="78.912"/>
  </g>
 </g>
</svg>
