<?xml version="1.0" encoding="UTF-8" standalone="no"?>
<!-- Generator: Adobe Illustrator 15.0.0, SVG Export Plug-In . SVG Version: 6.00 Build 0)  -->
<!DOCTYPE svg  PUBLIC '-//W3C//DTD SVG 1.1//EN'  'http://www.w3.org/Graphics/SVG/1.1/DTD/svg11.dtd'>
<svg id="Layer_1" xmlns="http://www.w3.org/2000/svg" xml:space="preserve" height="24px" viewBox="-2 -2 24 24" width="24px" version="1.1" y="0px" x="0px" enable-background="new -2 -2 24 24">
<g id="r2Mrmh.tif">
	<g fill="#fff">
		<path d="m17.334 16.048c-0.138 0.404-0.513 1.178 0.036 1.261 0.59 0.092 1.074-0.946 1.226-1.298 0.217-0.5 0.627-1.605 0.253-2.09-0.205-0.265-1.121-0.345-1.804-0.289-0.568 0.047-2.053 0.45-1.91 1.081 0.15 0.673 2.067-0.242 2.452 0.217 0.026 0.501-0.129 0.753-0.253 1.118zm-16.333-1.371c-0.02 0.498 1.246 1.256 1.441 1.407 1.663 1.278 3.324 2.389 5.95 2.668 2.705 0.287 5.19-0.577 6.958-1.55 0.33-0.182 1.638-0.707 1.55-1.334-0.107-0.796-1.082-0.226-1.657 0-1.728 0.678-4.127 1.292-6.418 1.118-2.858-0.219-4.613-1.256-6.525-2.307-0.267-0.147-0.707-0.419-0.974-0.36-0.186 0.036-0.315 0.092-0.325 0.358z"/>
		<path d="m9.005 1.192h1.154c1.455 0.157 3.044 0.696 3.642 1.983 0.855 1.845 0.072 4.69 0.36 6.959 0.06 0.46 0.264 0.814 0.541 1.19 0.172 0.232 0.449 0.489 0.433 0.721-0.021 0.316-0.73 0.772-1.01 1.009-0.293 0.247-0.796 0.848-1.226 0.83-0.359-0.017-0.616-0.424-0.83-0.649-0.228-0.239-0.42-0.477-0.648-0.829-0.532 0.366-0.966 0.808-1.587 1.117-0.617 0.309-1.358 0.487-2.307 0.47-1.992-0.037-3.17-1.269-3.317-2.956-0.348-3.999 3.143-4.771 6.743-4.941-0.019-0.712 0.031-1.303-0.181-1.767-0.486-1.062-2.318-0.952-2.993-0.034-0.257 0.35-0.155 0.773-0.54 1.045-0.906-0.153-2.088-0.029-2.669-0.506 0.34-2.352 2.031-3.353 4.435-3.642zm1.552 6.707c-0.932 0.083-1.706 0.105-2.309 0.577-0.783 0.612-1.162 2.711 0.108 3.209 0.597 0.233 1.333-0.042 1.695-0.361 0.74-0.651 1.021-1.951 0.864-3.461-0.208-0.025-0.261 0.027-0.358 0.036z"/>
		<path d="m17.587 14.93c-0.385-0.459-2.302 0.456-2.452-0.217-0.143-0.632 1.342-1.035 1.91-1.081 0.683-0.056 1.599 0.024 1.804 0.289 0.374 0.484-0.036 1.59-0.253 2.09-0.151 0.352-0.636 1.39-1.226 1.298-0.549-0.083-0.174-0.856-0.036-1.261 0.124-0.365 0.279-0.617 0.253-1.118z"/>
		<path d="m1.324 14.317c0.268-0.059 0.707 0.213 0.974 0.359 1.913 1.052 3.668 2.09 6.525 2.308 2.291 0.176 4.691-0.438 6.419-1.118 0.575-0.226 1.55-0.796 1.657 0 0.086 0.628-1.22 1.153-1.551 1.334-1.769 0.973-4.254 1.837-6.958 1.55-2.625-0.278-4.287-1.39-5.95-2.668-0.194-0.149-1.46-0.909-1.44-1.407 0.011-0.264 0.14-0.32 0.324-0.358z"/>
	</g>
</g>
</svg>
