<?xml version="1.0" encoding="UTF-8" standalone="no"?>
<!-- Created with Inkscape (http://www.inkscape.org/) -->
<svg id="svg2" xmlns:rdf="http://www.w3.org/1999/02/22-rdf-syntax-ns#" xmlns="http://www.w3.org/2000/svg" height="24" width="24" version="1.1" xmlns:cc="http://creativecommons.org/ns#" xmlns:xlink="http://www.w3.org/1999/xlink" xmlns:dc="http://purl.org/dc/elements/1.1/">
 <metadata id="metadata7">
  <rdf:RDF>
   <cc:Work rdf:about="">
    <dc:format>image/svg+xml</dc:format>
    <dc:type rdf:resource="http://purl.org/dc/dcmitype/StillImage"/>
    <dc:title/>
   </cc:Work>
  </rdf:RDF>
 </metadata>
 <g id="layer1" transform="translate(0 -1028.4)">
  <g id="g4036" transform="translate(-67.913 -42.84)">
   <path id="rect3052" style="color:#000000;fill:#fff" d="m71.913 1074.2c-0.554 0-1 0.446-1 1v16c0 0.554 0.446 1 1 1h16c0.554 0 1-0.446 1-1v-16c0-0.554-0.446-1-1-1h-16zm1 2h14v14h-14v-14z"/>
   <path id="path3057" style="block-progression:tb;text-indent:0;color:#000000;text-transform:none;fill:#fff" d="m83.5 1076.3-1.0312 2.5626-1.0625 2.6562-1.0625-2.6562-0.96875-2.4063-0.90625 2.4063-2 5.3124-1.0938-3.2812-0.25-0.6875h-0.71875-2.5v2h1.7812l1.7812 5.3437 0.875 2.6563 1-2.625 2.0938-5.5937 1.0312 2.5937 0.9375 2.3437 0.9375-2.3437 0.96875-2.4687 1.1562 3.4374 0.21875 0.6563h0.71875 2.5v-2h-1.75l-1.7812-5.3125-0.875-2.5938z"/>
  </g>
 </g>
</svg>
