<?xml version="1.0" encoding="UTF-8" standalone="no"?>
<!-- Created with Inkscape (http://www.inkscape.org/) -->
<svg id="svg2" xmlns:rdf="http://www.w3.org/1999/02/22-rdf-syntax-ns#" xmlns="http://www.w3.org/2000/svg" height="24" width="24" version="1.1" xmlns:cc="http://creativecommons.org/ns#" xmlns:xlink="http://www.w3.org/1999/xlink" xmlns:dc="http://purl.org/dc/elements/1.1/">
 <metadata id="metadata7">
  <rdf:RDF>
   <cc:Work rdf:about="">
    <dc:format>image/svg+xml</dc:format>
    <dc:type rdf:resource="http://purl.org/dc/dcmitype/StillImage"/>
    <dc:title/>
   </cc:Work>
  </rdf:RDF>
 </metadata>
 <g id="layer1" transform="translate(0 -1028.4)">
  <g id="g4036" transform="translate(-67.913 -42.84)">
   <path id="path4259" d="m84.57 1078.5c0.50966 1.0776 0.20153 2.6349-0.20619 3.1299l-2.4772-1.9505s1.3437-1.1357 2.6834-1.1794z" style="color:#000000;fill:#fff"/>
   <path id="path4246" style="color:#000000;fill:#fff" d="m12 3c-4.9706 0-9 4.0294-9 9 0 4.971 4.0294 9 9 9 4.971 0 9-4.029 9-9 0-4.9706-4.029-9-9-9zm0 1.5c4.142 0 7.5 3.3579 7.5 7.5 0 4.142-3.358 7.5-7.5 7.5-4.1421 0-7.5-3.358-7.5-7.5 0-4.1421 3.3579-7.5 7.5-7.5z" transform="translate(67.913 1071.2)"/>
   <path id="path4251" style="color:#000000;fill:#fff" d="m12 8c-2.1344 0-5 2-5 4 0 3 1 4.3 5 4.3 4 0.000007 5-1.3 5-4.3 0-2-2.8656-4-5-4z" transform="translate(67.913 1071.2)"/>
   <path id="path4253" style="color:#000000;fill:#fff" d="m12 16c-1.783 0-1.979 0.933-2 4h4c-0.021-3.067-0.217-4-2-4z" transform="translate(67.913 1071.2)"/>
   <path id="path4255" style="color:#000000;fill:#fff" d="m75.135 1078.5c-0.50966 1.0776-0.09612 2.6982 0.3116 3.1933l2.3929-1.9929s-1.3648-1.1567-2.7045-1.2004z"/>
  </g>
 </g>
</svg>
