<?xml version="1.0" encoding="UTF-8" standalone="no"?>
<!-- Created with Inkscape (http://www.inkscape.org/) -->
<svg id="svg2" xmlns:rdf="http://www.w3.org/1999/02/22-rdf-syntax-ns#" xmlns="http://www.w3.org/2000/svg" height="24" width="24" version="1.1" xmlns:cc="http://creativecommons.org/ns#" xmlns:dc="http://purl.org/dc/elements/1.1/">
 <metadata id="metadata7">
  <rdf:RDF>
   <cc:Work rdf:about="">
    <dc:format>image/svg+xml</dc:format>
    <dc:type rdf:resource="http://purl.org/dc/dcmitype/StillImage"/>
    <dc:title/>
   </cc:Work>
  </rdf:RDF>
 </metadata>
 <g id="layer1" transform="translate(0 -1028.4)">
  <path id="path3073" style="color:#000000;fill:#fff" d="m10.5 7c-4.1422 0-7.5 2.4609-7.5 5.5 0 3.039 3.3578 5.5 7.5 5.5 4.142 0 7.5-2.461 7.5-5.5 0-3.0391-3.358-5.5-7.5-5.5zm-5.1875 2.1562l4.8755 0.0626-0.063 0.5-1.5 0.0937 2.156 2.8435s1.952-1.537 1.969-1.781c-0.125-0.097-1.281-0.187-1.281-0.187l-0.094-0.657 4.187 0.031-0.281 0.626-1.219 0.218s-1.829 1.245-2.843 2.344c-0.075 0.716 0.031 1.781 0.031 1.781l1.531 0.031s-0.025 0.87 0 0.813-4.781 0.031-4.781 0.031l0.0938-0.844s1.2921 0.082 1.5-0.187l-0.0313-1.594c-0.3243-0.618-2.4613-3.018-2.8437-3.3435l-1.375-0.1875-0.0313-0.5938z" transform="translate(0 1028.4)"/>
  <path id="path3069" style="fill:#fff" d="m19 1042.4-0.01357-7.2263 2.0136 0.2263-0.75113 7.0574z"/>
  <path id="path3071" style="fill:#fff" d="m18.783 1044.5 0.09385-1.3615 1.406 0.1055-0.22385 1.4859z"/>
 </g>
</svg>
