<?xml version="1.0" encoding="UTF-8" standalone="no"?>
<!-- Created with Inkscape (http://www.inkscape.org/) -->
<svg id="svg2" xmlns:rdf="http://www.w3.org/1999/02/22-rdf-syntax-ns#" xmlns="http://www.w3.org/2000/svg" height="24" width="24" version="1.1" xmlns:cc="http://creativecommons.org/ns#" xmlns:xlink="http://www.w3.org/1999/xlink" xmlns:dc="http://purl.org/dc/elements/1.1/">
 <metadata id="metadata7">
  <rdf:RDF>
   <cc:Work rdf:about="">
    <dc:format>image/svg+xml</dc:format>
    <dc:type rdf:resource="http://purl.org/dc/dcmitype/StillImage"/>
    <dc:title/>
   </cc:Work>
  </rdf:RDF>
 </metadata>
 <g id="layer1" transform="translate(0 -1028.4)">
  <g id="g4036" transform="translate(-67.913 -42.84)">
   <path id="path1384" style="fill:#fff" d="m78.645 1074.2c-1.1057 0.038-3.4522 0.7491-3.9375 1.25-0.17863 0.1859-0.24109 0.422-0.1875 0.625 0.08769 0.1795 3.8125 6 3.8125 6 0.54808 0.8891 0.97803 0.765 1.125 0.7188 0.14534-0.045 0.61284-0.1819 0.5625-1.2188-0.05278-1.2164-0.42572-6.6241-0.46875-6.875-0.06171-0.2273-0.24504-0.4045-0.5-0.4687-0.09794-0.024-0.2483-0.037-0.40625-0.031zm5.625 5.3125c-0.11043 0-0.21669 0.03-0.3125 0.094-0.11855 0.077-0.20033 0.19-1.8438 2.4375 0 0-0.74107 1.0215-0.75 1.0312-0.19568 0.2379-0.22288 0.5827-0.03125 0.875 0.19812 0.3029 0.53683 0.4602 0.84375 0.375 0 0 0.0033 0.027 0 0.031 0.15103-0.057 0.4142-0.1331 0.90625-0.25 3.0692-0.7437 3.1915-0.7954 3.3125-0.875 0.18594-0.125 0.26624-0.3389 0.25-0.5938-0.0787-0.7535-1.3809-2.713-2.0312-3.0312-0.1153-0.055-0.23332-0.098-0.34375-0.094zm-10.312 3.0313c-0.2241-0.01-0.42365 0.096-0.5625 0.3125-0.29231 0.4684-0.414 1.9583-0.3125 2.9375 0.03573 0.3232 0.10224 0.5893 0.1875 0.75 0.11692 0.2225 0.30715 0.3669 0.53125 0.375 0.14372 0.01 0.23527-0.038 2.9375-0.9063 0 0 1.1826-0.3726 1.1875-0.375 0.29962-0.076 0.51176-0.3672 0.53125-0.7187 0.01949-0.3606-0.16183-0.666-0.46875-0.7813 0 0-0.84213-0.3437-0.84375-0.3437-2.9036-1.1976-3.0413-1.2484-3.1875-1.25zm8.25 3.3125c-0.22326-0.01-0.42872 0.1077-0.59375 0.3125-0.22898 0.2786-0.27645 0.6285-0.09375 0.9062l0.46875 0.7813c1.6028 2.6031 1.7285 2.7849 1.8438 2.875 0.17863 0.1404 0.41997 0.1577 0.65625 0.062 0.68205-0.2721 2.1765-2.1467 2.2812-2.875 0.0366-0.2534-0.04415-0.4855-0.21875-0.625-0.11449-0.086-0.20564-0.1133-2.9062-1 0 0-1.2033-0.399-1.2188-0.4063-0.07166-0.028-0.14433-0.029-0.21875-0.031zm-3.25 0.8437c-0.15762 0.035-0.30475 0.124-0.40625 0.25 0 0-0.59213 0.6875-0.59375 0.6875-2.034 2.3897-2.1067 2.515-2.1562 2.6563-0.03005 0.083-0.04099 0.1615-0.03125 0.25 0.01218 0.1267 0.06125 0.2581 0.15625 0.375 0.47176 0.5601 2.7461 1.4045 3.4688 1.2812 0.2509-0.046 0.42286-0.1951 0.5-0.4062 0.04709-0.1365 0.05438-0.2239 0.0625-3.0625 0 0-0.0008-1.2691 0-1.2813 0.01949-0.3078-0.1744-0.5937-0.5-0.7187-0.16767-0.065-0.34238-0.067-0.5-0.031z"/>
  </g>
 </g>
</svg>
