<?xml version="1.0" encoding="UTF-8" standalone="no"?>
<!-- Created with Inkscape (http://www.inkscape.org/) -->
<svg id="svg2" xmlns:rdf="http://www.w3.org/1999/02/22-rdf-syntax-ns#" xmlns="http://www.w3.org/2000/svg" height="24" width="24" version="1.1" xmlns:cc="http://creativecommons.org/ns#" xmlns:xlink="http://www.w3.org/1999/xlink" xmlns:dc="http://purl.org/dc/elements/1.1/">
 <metadata id="metadata7">
  <rdf:RDF>
   <cc:Work rdf:about="">
    <dc:format>image/svg+xml</dc:format>
    <dc:type rdf:resource="http://purl.org/dc/dcmitype/StillImage"/>
    <dc:title/>
   </cc:Work>
  </rdf:RDF>
 </metadata>
 <g id="layer1" transform="translate(0 -1028.4)">
  <g id="g4036" transform="translate(-67.913 -42.84)">
   <path id="path988" style="color:#000000;fill:#fff" d="m5 4c-0.554 0-1 0.446-1 1v8.531c1.7022-1.854 2.6155-2.635 3.625-3.219 1.7565-1.014 3.093-1.312 5.969-1.312 2.986 0 3.437 0.164 3.437 1.219 0 1.017-0.702 2.02-4.093 6l-3.2192 3.781h9.2812c0.554 0 1-0.446 1-1v-14c0-0.554-0.446-1-1-1h-14zm7.062 6.156c-0.366 0.021-0.798 0.206-1.312 0.532-1.4224 0.902-2.2 1.668-5.5312 5.562l-1.2188 1.438v1.312c0 0.554 0.446 1 1 1h1.0312l3.125-3.625c1.7108-2.001 3.3298-4.047 3.5938-4.531 0.44-0.809 0.453-0.903 0.188-1.282-0.2-0.284-0.509-0.427-0.876-0.406z" transform="translate(67.913 1071.2)"/>
  </g>
 </g>
</svg>
