<?xml version="1.0" encoding="UTF-8"?>
<!-- Created with Inkscape (http://www.inkscape.org/) -->
<svg id="svg3336" width="512.4" height="512" style="enable-background:new" version="1.1" viewBox="0 0 512.4 512" xmlns="http://www.w3.org/2000/svg" xmlns:cc="http://creativecommons.org/ns#" xmlns:dc="http://purl.org/dc/elements/1.1/" xmlns:rdf="http://www.w3.org/1999/02/22-rdf-syntax-ns#" xmlns:xlink="http://www.w3.org/1999/xlink">
 <defs id="defs3338">
  <linearGradient id="linearGradient4243">
   <stop id="stop4245" style="stop-color:#fff" offset="0"/>
   <stop id="stop4247" style="stop-color:#fff;stop-opacity:0" offset="1"/>
  </linearGradient>
  <linearGradient id="linearGradient4242" x1="321.29" x2="321.29" y1="278.55" y2="529.41" gradientTransform="matrix(-.8567 0 0 .85792 453.1 25.411)" gradientUnits="userSpaceOnUse">
   <stop id="stop4251" style="stop-color:#e3e5e7" offset="0"/>
   <stop id="stop4253" style="stop-color:#b8c3ce;stop-opacity:0" offset="1"/>
  </linearGradient>
  <linearGradient id="linearGradient4263" x1="260.51" x2="260.51" y1="111.81" y2="293.2" gradientTransform="matrix(.94667 0 0 .94667 18.029 32.336)" gradientUnits="userSpaceOnUse">
   <stop id="stop4237" style="stop-color:#e4e9ee" offset="0"/>
   <stop id="stop4240" style="stop-color:#b6bec6" offset="1"/>
  </linearGradient>
  <linearGradient id="linearGradient4249" x1="227.81" x2="227.81" y1="171.1" y2="293.89" gradientUnits="userSpaceOnUse" xlink:href="#linearGradient4243"/>
  <linearGradient id="linearGradient4258" x1="374.26" x2="331.26" y1="207.36" y2="265.45" gradientUnits="userSpaceOnUse" xlink:href="#linearGradient4243"/>
  <filter id="filter4324" x="-.0097084" y="-.015708" width="1.0194" height="1.0314" style="color-interpolation-filters:sRGB">
   <feGaussianBlur id="feGaussianBlur4326" stdDeviation="1.2297368"/>
  </filter>
  <filter id="filter4344" x="-.077668" y="-.12566" width="1.1553" height="1.2513" style="color-interpolation-filters:sRGB">
   <feGaussianBlur id="feGaussianBlur4346" stdDeviation="9.8378946"/>
  </filter>
  <clipPath id="clipPath4369">
   <path id="path4371" d="m-27.387 9.9803v506.5h544.04v-506.5zm201.23 221.33c26.979 0 49.896 16.67 60.789 40.344 25.337 1.8482 45.311 23.769 45.311 50.301 0 27.721-21.74 50.61-48.694 50.61h-110.92c-20.613 0-37.211-17.512-37.211-38.6 0-16 9.6188-29.505 23.271-35.312 1.6852-37.243 31.016-67.343 67.451-67.343z" style="color:#000000;fill:#f0f"/>
  </clipPath>
  <filter id="filter4405" x="-.082449" y="-.11488" width="1.1649" height="1.2298" style="color-interpolation-filters:sRGB">
   <feGaussianBlur id="feGaussianBlur4407" stdDeviation="6.761504"/>
  </filter>
  <linearGradient id="linearGradient4336" x1="319.91" x2="410.95" y1="192.09" y2="283.12" gradientUnits="userSpaceOnUse" spreadMethod="reflect">
   <stop id="stop4332" offset="0"/>
   <stop id="stop4334" style="stop-opacity:0" offset="1"/>
  </linearGradient>
  <linearGradient id="linearGradient4344" x1="279.89" x2="181.25" y1="321.83" y2="420.46" gradientUnits="userSpaceOnUse">
   <stop id="stop4340" offset="0"/>
   <stop id="stop4342" style="stop-opacity:0" offset="1"/>
  </linearGradient>
  <linearGradient id="linearGradient4912" x1="256" x2="256" y1="18" y2="494" gradientTransform="matrix(1 0 0 1.0756 0 -37.361)" gradientUnits="userSpaceOnUse">
   <stop id="stop7539-5-6" style="stop-color:#6b7d8f" offset="0"/>
   <stop id="stop7541-23-0" style="stop-color:#afbcc6" offset="1"/>
  </linearGradient>
 </defs>
 <metadata id="metadata3341">
  <rdf:RDF>
   <cc:Work rdf:about="">
    <dc:format>image/svg+xml</dc:format>
    <dc:type rdf:resource="http://purl.org/dc/dcmitype/StillImage"/>
    <dc:title/>
   </cc:Work>
  </rdf:RDF>
 </metadata>
 <g id="layer1" transform="translate(0,18)">
  <rect id="rect4158" y="-18" width="512" height="512" style="color:#000000;fill:url(#linearGradient4912)"/>
  <path id="path4305-3" d="m0 494 512-512v512z" style="color:#000000;fill:#fff;opacity:.05;stroke-dashoffset:1;stroke-width:2"/>
 </g>
 <g id="layer4">
  <path id="path4274" d="m293.22 126c-25.935 0.0326-50.29 12.467-65.525 33.455-5.644-1.594-11.478-2.4132-17.343-2.4351-34.824 0.0389-63.37 27.635-64.588 62.437-23.809 2.8568-41.738 23.039-41.768 47.019-8.5e-4 26.188 21.228 47.418 47.417 47.418h199.86c31.328 6.8e-4 56.725-25.396 56.724-56.724-0.018-22.422-13.242-42.729-33.742-51.813-0.94544-44.084-36.941-79.334-81.034-79.357z" style="color:#000000;filter:url(#filter4324);opacity:.1;stroke-width:12"/>
  <path id="path4306" d="m293.22 126c-25.935 0.0326-50.29 12.467-65.525 33.455-5.644-1.594-11.478-2.4132-17.343-2.4351-34.824 0.0389-63.37 27.635-64.588 62.437-23.809 2.8568-41.738 23.039-41.768 47.019-8.5e-4 26.188 21.228 47.418 47.417 47.418h199.86c31.328 6.8e-4 56.725-25.396 56.724-56.724-0.018-22.422-13.242-42.729-33.742-51.813-0.94544-44.084-36.941-79.334-81.034-79.357z" style="color:#000000;fill:url(#linearGradient4336);filter:url(#filter4344);opacity:.4;stroke-width:12"/>
  <path id="path4246" d="m293.22 124c-25.935 0.0326-50.29 12.467-65.525 33.455-5.644-1.594-11.478-2.4132-17.343-2.4351-34.824 0.0389-63.37 27.635-64.588 62.437-23.809 2.8568-41.738 23.039-41.768 47.019-8.5e-4 26.188 21.228 47.418 47.417 47.418h199.86c31.328 6.8e-4 56.725-25.396 56.724-56.724-0.018-22.422-13.242-42.729-33.742-51.813-0.94544-44.084-36.941-79.334-81.034-79.357z" style="color:#000000;fill:url(#linearGradient4263);stroke-width:12"/>
  <path id="path812" d="m-208.32 605.62c-7.8421 0-14.554 5.0292-17.318 12.187-0.0612-6.7e-4 -0.12078 0-0.18229 0-7.0877 0-12.833 6.0022-12.833 13.406 0 7.4041 5.7457 13.406 12.833 13.406h33.833c5.1547 0 9.3333-4.3653 9.3333-9.7501 0-4.5434-2.9741-8.3631-7-9.4452 1e-3 -0.10288 0-0.20153 0-0.30467 0-10.77-8.3574-19.5-18.667-19.5z" style="color:#000000;display:none;fill:#fff;stroke-width:4;stroke:#ccc"/>
  <path id="path4340" d="m288.87 828.08c-6.3492 0-11.783 4.0718-14.021 9.8674-0.0496-5.5e-4 -0.0978 0-0.14759 0-5.7384 0-10.39 4.8596-10.39 10.854 0 5.9946 4.6519 10.854 10.39 10.854h27.393c4.1734 0 7.5566-3.5343 7.5566-7.894 0-3.6784-2.4079-6.7711-5.6674-7.6472 1e-3 -0.0833 0-0.16316 0-0.24667 0-8.7194-6.7664-15.788-15.113-15.788z" style="color:#000000;display:none;fill:none;stroke-width:4;stroke:#ccc"/>
  <path id="path4330" d="m736.16 1098.4c-9.1783 0-17.034 5.8861-20.268 14.264-0.0716-8e-4 -0.14136 0-0.21335 0-8.2953 0-15.02 7.0249-15.02 15.69 0 8.6656 6.7246 15.69 15.02 15.69h39.598c6.0329 0 10.924-5.109 10.924-11.411 0-5.3174-3.4808-9.7881-8.1927-11.054 2e-3 -0.1205 0-0.2359 0-0.3566 0-12.605-9.7813-22.822-21.847-22.822z" style="color:#000000;display:none;fill:none;stroke-width:4;stroke:#ccc"/>
  <g id="g4261" transform="matrix(-1 0 0 1 457.06 13)">
   <path id="path4233" d="m173.84 231.31c26.979 0 49.896 16.67 60.789 40.344 25.337 1.8482 45.31 23.77 45.31 50.301 0 27.721-21.739 50.61-48.693 50.61h-110.92c-20.613 0-37.211-17.511-37.211-38.599 0-16 9.6179-29.506 23.27-35.314 1.6852-37.243 31.018-67.342 67.452-67.342z" style="color:#000000;fill:url(#linearGradient4242);stroke-width:4"/>
   <g id="g4366" clip-path="url(#clipPath4369)" style="filter:url(#filter4405);opacity:.1">
    <path id="path4355" d="m173.84 233.57c26.979 0 49.896 16.67 60.789 40.344 25.337 1.8482 45.31 23.77 45.31 50.301 0 27.721-21.739 50.61-48.693 50.61h-110.92c-20.613 0-37.211-17.511-37.211-38.599 0-16 9.6179-29.506 23.27-35.314 1.6852-37.243 31.018-67.342 67.452-67.342z" style="color:#000000;fill:url(#linearGradient4344);stroke-width:4.2533"/>
   </g>
  </g>
  <path id="path4265" d="m293.22 124c-25.935 0.0326-50.29 12.467-65.525 33.455-5.644-1.594-11.479-2.4137-17.344-2.4356-34.824 0.0389-63.37 27.635-64.588 62.438-23.809 2.8568-41.737 23.04-41.768 47.02-1e-5 0.32762 0.0188 0.65053 0.0254 0.97656 0.53219-23.527 18.274-43.18 41.742-45.996 1.2176-34.803 29.764-62.399 64.588-62.438 5.8647 0.0219 11.7 0.84156 17.344 2.4356 15.236-20.988 39.591-33.422 65.525-33.455 44.094 0.0235 80.088 35.274 81.033 79.357 20.154 8.9311 33.267 28.71 33.721 50.682 4e-3 -0.29036 0.0215-0.57773 0.0215-0.86914-0.018-22.422-13.243-42.728-33.742-51.812-0.94547-44.084-36.94-79.334-81.033-79.357z" style="color:#000000;fill:#fff;opacity:.3;stroke-width:12"/>
  <path id="path4238" transform="translate(0,18)" d="m227.81 171.1c-22.996 0.0241-44.051 12.896-54.555 33.354-6.7444-3.5188-14.237-5.3631-21.844-5.377-26.184-1.9e-4 -47.41 21.226-47.41 47.41-1.8e-4 26.184 21.226 47.41 47.41 47.41h76.398c33.909 1.4e-4 61.399-27.489 61.398-61.398 1.3e-4 -33.909-27.489-61.399-61.398-61.398z" style="color:#000000;fill:url(#linearGradient4249);opacity:.3;stroke-width:12"/>
 </g>
</svg>
