<?xml version="1.0" encoding="UTF-8"?>
<!-- Created with Inkscape (http://www.inkscape.org/) -->
<svg id="svg3336" width="512" height="512" style="enable-background:new" version="1.1" viewBox="0 0 512 512" xmlns="http://www.w3.org/2000/svg" xmlns:cc="http://creativecommons.org/ns#" xmlns:dc="http://purl.org/dc/elements/1.1/" xmlns:rdf="http://www.w3.org/1999/02/22-rdf-syntax-ns#" xmlns:xlink="http://www.w3.org/1999/xlink">
 <defs id="defs3338">
  <linearGradient id="linearGradient4226" x1="512" x2="0" y1="397.99" y2="150.36" gradientTransform="matrix(0 -.90625 -.90622 0 507.91 488)" gradientUnits="userSpaceOnUse">
   <stop id="stop4340-0-1" style="stop-color:#7832be" offset="0"/>
   <stop id="stop4342-7-6" style="stop-color:#8d5ad9" offset="1"/>
  </linearGradient>
  <filter id="filter4346" x="-.01325" y="-.010966" width="1.0265" height="1.0219" style="color-interpolation-filters:sRGB">
   <feGaussianBlur id="feGaussianBlur4348" stdDeviation="2.120027"/>
  </filter>
  <linearGradient id="linearGradient4358" x1="88" x2="488" y1="88" y2="488" gradientUnits="userSpaceOnUse">
   <stop id="stop4362" style="stop-opacity:.58824" offset="0"/>
   <stop id="stop4364" style="stop-opacity:0" offset=".88"/>
   <stop id="stop4366" offset="1"/>
  </linearGradient>
  <filter id="filter4380" x="-.052999" y="-.043863" width="1.106" height="1.0877" style="color-interpolation-filters:sRGB">
   <feGaussianBlur id="feGaussianBlur4382" stdDeviation="8.4801079"/>
  </filter>
 </defs>
 <metadata id="metadata3341">
  <rdf:RDF>
   <cc:Work rdf:about="">
    <dc:format>image/svg+xml</dc:format>
    <dc:type rdf:resource="http://purl.org/dc/dcmitype/StillImage"/>
    <dc:title/>
   </cc:Work>
  </rdf:RDF>
 </metadata>
 <g id="layer2" transform="translate(-32,-32)">
  <path id="rect4158-9" d="m173.84 58c-70.593 0-78.189 7.2508-77.843 77.987v154.01 154.01c-0.34598 70.736 7.2498 77.987 77.843 77.987h228.31c70.593 0 77.843-7.25 77.843-77.987v-154.01-154.01c0-70.737-7.2498-77.987-77.843-77.987z" style="color:#000000;enable-background:accumulate;filter:url(#filter4346);opacity:.1"/>
  <path id="path4350" d="m173.84 58c-70.593 0-78.189 7.2508-77.843 77.987v154.01 154.01c-0.34598 70.736 7.2498 77.987 77.843 77.987h228.31c70.593 0 77.843-7.25 77.843-77.987v-154.01-154.01c0-70.737-7.2498-77.987-77.843-77.987z" style="color:#000000;enable-background:accumulate;fill:url(#linearGradient4358);filter:url(#filter4380);opacity:.3"/>
 </g>
 <g id="layer3">
  <path id="rect4158" d="m370.15 24c70.593 0 78.189 7.2508 77.843 77.987v154.01 154.01c0.34598 70.736-7.2498 77.987-77.843 77.987h-228.31c-70.593 0-77.843-7.25-77.843-77.987v-154.01-154.01c0-70.737 7.2498-77.987 77.843-77.987z" style="color:#000000;enable-background:accumulate;fill:url(#linearGradient4226)"/>
 </g>
 <g id="layer4">
  <path id="path4505-6" d="m221.81 124-35.188 71.656v59.25c-4.9399 5.788-10.339 11.62-15.969 17.25-18.503 18.503-39.248 34.687-53.125 39.312l-23.375-23.344-71.656 35.188v170.69h256v-317.56c-15.417-33.444-32.368-45.921-56.688-52.438zm-97.562 229c7e-3 -5e-3 0.0239 5e-3 0.0312 0-2.6107 1.6304-5.251 3.2267-7.9062 4.8125 2.6559-1.5856 5.2637-3.1824 7.875-4.8125zm-24.094 14.062c8e-3 -4e-3 0.0234 4e-3 0.0312 0-2.7418 1.4991-5.5286 2.9806-8.3125 4.4375 2.7843-1.4568 5.5391-2.9386 8.2813-4.4375z" style="color:#000000;enable-background:accumulate;fill-opacity:0;opacity:.05"/>
  <g id="g4245" transform="matrix(4.1217 0 0 4.1217 -933.38 -836.02)" style="enable-background:new;filter:url(#filter4211);stroke-width:.56091">
   <path id="path4254-2" transform="matrix(.43255 0 0 .43255 233.2 206.03)" d="m124.66 67.889c-0.36409-4e-3 -0.72572-0.0047-1.082 0.0039-0.32675 0.0081-0.64653 0.02641-0.96679 0.04492-0.20787 0.01184-0.41993 0.01904-0.625 0.03516-0.52815 0.04196-1.0492 0.09491-1.5586 0.16406-8.6001 1.1675-14.69 6.1109-18.115 12.643-6.8512 13.063-2.8166 32.279 16.074 39.084 0.46426 0.16723 0.9138 0.34056 1.3691 0.51172v-0.22656h11.559v5.4668c0.61999 0.33753 1.2271 0.68122 1.8242 1.0274 0.59612 0.34554 1.1803 0.69504 1.7539 1.0488 0.19113 0.11788 0.38949 0.23279 0.57813 0.35156l18.041-47.197h-3.7012v-4.5195c-7.3491-4.4821-13.968-6.9713-19.787-7.9512-1.1461-0.19299-2.2602-0.32467-3.3438-0.4043-0.10136-0.0074-0.19996-0.01116-0.30078-0.01758-0.43337-0.02791-0.86399-0.05002-1.2871-0.06055-0.14534-0.0035-0.28751-0.0024-0.43164-0.0039zm9.5449 63.467-24.877 65.086h1.1797v3.7754c0.0556 7e-3 0.11046 0.0127 0.16602 0.0195 0.62039 0.0768 1.2388 0.14416 1.8516 0.19531 0.66769 0.0557 1.3301 0.097 1.9883 0.12305 3.2908 0.13002 6.4593-0.1073 9.4746-0.66407 0.5893-0.10881 1.1726-0.23233 1.75-0.36523 0.0135-3e-3 0.0275-5e-3 0.041-8e-3 1e-3 -3.2e-4 3e-3 -2e-3 4e-3 -2e-3 0.48253-0.11163 0.95775-0.23527 1.4316-0.36328 0.12449-0.0336 0.25112-0.0629 0.375-0.0977 0.4331-0.12146 0.85961-0.25578 1.2852-0.39063 0.15121-0.0479 0.30484-0.091 0.45507-0.14062 0.37726-0.1245 0.74812-0.25971 1.1192-0.39453 0.20117-0.0731 0.4042-0.14262 0.60351-0.21875 0.38113-0.14551 0.75668-0.30081 1.1309-0.45704 0.15824-0.0661 0.31763-0.13122 0.47461-0.19921 0.37301-0.16148 0.73971-0.33001 1.1055-0.50196 0.1753-0.0824 0.35178-0.16324 0.52539-0.24804 0.32863-0.16048 0.65215-0.32731 0.97461-0.4961 0.20742-0.10861 0.41432-0.21808 0.61914-0.33008 0.31382-0.17152 0.62401-0.34804 0.93164-0.52734 0.17584-0.10253 0.3516-0.20553 0.52539-0.31055 0.32566-0.19671 0.6465-0.39821 0.96484-0.60351 0.17601-0.11355 0.35166-0.22763 0.52539-0.34375 0.27923-0.18656 0.55486-0.37724 0.82813-0.57031 0.20869-0.1475 0.41593-0.29606 0.62109-0.44727 0.25419-0.18727 0.50521-0.37746 0.75391-0.57031 0.19104-0.1482 0.3806-0.2978 0.56836-0.44922 0.26679-0.21509 0.53095-0.43285 0.79101-0.6543 0.17049-0.14522 0.33831-0.29351 0.50586-0.4414 0.24355-0.2149 0.48539-0.43193 0.72266-0.65235 0.18641-0.17323 0.37025-0.34883 0.55274-0.52539 0.21865-0.21148 0.43549-0.42448 0.64843-0.64062 0.18487-0.18771 0.36637-0.37724 0.54688-0.56836 0.20216-0.214 0.40299-0.42831 0.59961-0.64649 0.18026-0.20009 0.3557-0.4039 0.53125-0.60742 0.18958-0.21973 0.37849-0.44044 0.5625-0.66406 0.17911-0.21774 0.35358-0.43884 0.52734-0.66016 0.15938-0.20295 0.31979-0.40545 0.47461-0.61133 0.18622-0.24768 0.36538-0.50016 0.54492-0.75195 0.14804-0.20757 0.29797-0.41276 0.44141-0.62305 0.1562-0.229 0.30634-0.46124 0.45703-0.69336 0.15184-0.23386 0.30499-0.46815 0.45117-0.70507 0.14643-0.23738 0.2851-0.47841 0.42578-0.71875 0.1356-0.23163 0.2741-0.46102 0.4043-0.69532 0.13465-0.24233 0.25986-0.48929 0.38867-0.73437 0.12915-0.24571 0.26156-0.48992 0.38477-0.73828 0.12845-0.25896 0.24721-0.52147 0.36914-0.78321 0.10539-0.22623 0.21399-0.45145 0.31445-0.67968 0.11687-0.26554 0.22387-0.53462 0.33398-0.80274 0.10206-0.24847 0.2085-0.4955 0.30469-0.74609 0.10072-0.2624 0.19094-0.52835 0.28516-0.79297 0.0856-0.24041 0.17762-0.47855 0.25781-0.7207 0.17178-0.51882 0.33198-1.0421 0.47852-1.5684 2.3961-8.6053 1.4104-18.133-4.2227-27.064-0.44512-0.70576-0.92479-1.4077-1.4297-2.1055-0.20823-0.28757-0.43765-0.57146-0.65625-0.85743-0.31438-0.41168-0.63079-0.82237-0.96679-1.2305-0.25848-0.31354-0.53327-0.62435-0.80469-0.93555-0.32859-0.37726-0.66005-0.75339-1.0078-1.127-0.31296-0.33571-0.63816-0.66947-0.9668-1.002-0.32308-0.3273-0.65377-0.65259-0.99219-0.97656-0.37498-0.3585-0.75643-0.71617-1.1504-1.0703-0.31821-0.2864-0.64775-0.57014-0.97851-0.85352-0.44865-0.38395-0.90116-0.76644-1.373-1.1445-0.30485-0.24448-0.62477-0.48467-0.93945-0.72656-0.50037-0.38435-1-0.76897-1.5254-1.1465-0.31478-0.22628-0.64876-0.44818-0.97265-0.67187-0.56441-0.38976-1.1227-0.78052-1.7148-1.1621z" style="fill:#fff;opacity:.2"/>
   <path id="path3680" transform="matrix(.43255 0 0 .43255 233.2 206.03)" d="m123.71 64.414c-1.2855 0.02421-2.5344 0.12067-3.7461 0.28516-9.6936 1.316-16.834 7.0568-20.721 14.467-7.7725 14.82-2.753 36.496 17.967 43.959 0.86888 0.31298 1.7119 0.63476 2.5469 0.96094v7.6211h11.559v-2.123c8.576 4.9511 14.557 10.736 18.369 16.781 5.6331 8.9316 6.6188 18.459 4.2227 27.064-4.5964 16.507-21.742 29.548-43.398 26.789v-3.7773h-11.559v11.559h11.559v-4.2891c23.028 2.716 41.702-11.262 46.738-29.35 2.6423-9.4893 1.507-20.122-4.627-29.848-4.4142-6.9989-11.397-13.506-21.305-18.895v-5.4707h-11.559v0.23242c-0.45754-0.17197-0.90267-0.34955-1.3691-0.51758-18.891-6.8046-22.925-26.021-16.074-39.084 3.4256-6.5317 9.5151-11.475 18.115-12.643 7.7349-1.0501 17.624 1.0181 29.383 8.1895v4.5195h11.559v-11.559h-11.559v2.9961c-8.1432-4.6941-15.558-7.1095-22.135-7.7188-1.3584-0.12584-2.6813-0.1746-3.9668-0.15039z" style="block-progression:tb;color-rendering:auto;color:#000000;enable-background:accumulate;fill:#fff;image-rendering:auto;isolation:auto;opacity:.6;shape-rendering:auto;text-decoration-color:#000000;text-decoration-line:none;text-decoration-style:solid;text-indent:0;text-transform:none"/>
   <path id="path3682" transform="matrix(.43255 0 0 .43255 233.2 206.03)" d="m76.164 99.639-4.1641 10.783 10.783 4.1641 1.666-4.3145 28.504 11.004c-2.9822-1.5213-5.5585-3.3721-7.7441-5.4668l-19.928-7.6934 1.666-4.3144-10.783-4.1621zm1.3223 2.9883 6.4707 2.498-2.498 6.4707-6.4688-2.498 2.4961-6.4707zm55.35 23.848c3.1749 1.8196 6.0336 3.7568 8.5859 5.791l29.297 11.311-1.666 4.3144 10.783 4.1621 4.1641-10.783-10.783-4.1621-1.666 4.3125-38.715-14.945zm41.705 13.621 6.4688 2.498-2.4961 6.4707-6.4707-2.498 2.498-6.4707z" style="block-progression:tb;color:#000000;enable-background:accumulate;fill:#fff;opacity:.4;text-decoration-line:none;text-indent:0;text-transform:none"/>
  </g>
 </g>
 <g id="layer5" transform="translate(-32,-32)">
  <path id="path4231" d="m288 56v464h114.16c70.593 0 77.844-7.2493 77.844-77.986v-154.01-154.01c0-70.737-7.2503-77.986-77.844-77.986z" style="color:#000000;enable-background:accumulate;fill:#fff;opacity:.03"/>
  <path id="path4255" d="m96 288v154.01c-0.34598 70.736 7.2503 77.986 77.844 77.986h228.31c70.593 0 77.844-7.2493 77.844-77.986v-154.01z" style="color:#000000;enable-background:accumulate;fill:#fff;opacity:.03"/>
 </g>
 <g id="layer1" transform="translate(-32,-32)">
  <path id="path4254" d="m360 520 120-120v44.968c-0.1047 67.992-7.6054 75.032-76.348 75.032z" style="color:#000000;enable-background:accumulate;fill:#fff;opacity:.1"/>
  <path id="path4286" d="m173.84 56c-68.982 0-77.805 6.9589-77.85 73.277 0.22272-64.485 9.5571-71.277 77.85-71.277h228.31c70.593 0 77.844 7.2493 77.844 77.986v-2c0-70.737-7.2503-77.986-77.844-77.986z" style="color:#000000;enable-background:accumulate;fill:#fff;opacity:.3"/>
  <path id="path4295" d="m480 440.01c0 70.737-7.2503 77.986-77.844 77.986h-228.31c-68.292 0-77.627-6.7926-77.85-71.277 0.044202 66.318 8.8674 73.277 77.85 73.277h228.31c70.593 0 77.844-7.2493 77.844-77.986z" style="color:#000000;enable-background:accumulate;opacity:.1"/>
 </g>
</svg>
