<?xml version="1.0" encoding="UTF-8"?>
<!-- Created with Inkscape (http://www.inkscape.org/) -->
<svg id="svg3336" width="512" height="476" version="1.1" xmlns="http://www.w3.org/2000/svg" xmlns:cc="http://creativecommons.org/ns#" xmlns:dc="http://purl.org/dc/elements/1.1/" xmlns:rdf="http://www.w3.org/1999/02/22-rdf-syntax-ns#" xmlns:xlink="http://www.w3.org/1999/xlink">
 <defs id="defs3338">
  <linearGradient id="linearGradient3828" x1="305.74" x2="305.74" y1="476" gradientUnits="userSpaceOnUse">
   <stop id="stop3824" style="stop-color:#ececea" offset="0"/>
   <stop id="stop3826" style="stop-color:#fafafa" offset="1"/>
  </linearGradient>
  <filter id="filter3847">
   <feGaussianBlur id="feGaussianBlur3849" stdDeviation="9.2352307"/>
  </filter>
 </defs>
 <metadata id="metadata3341">
  <rdf:RDF>
   <cc:Work rdf:about="">
    <dc:format>image/svg+xml</dc:format>
    <dc:type rdf:resource="http://purl.org/dc/dcmitype/StillImage"/>
    <dc:title/>
   </cc:Work>
  </rdf:RDF>
 </metadata>
 <g id="layer2">
  <rect id="rect3052" width="512" height="476" style="color:#000000;fill:url(#linearGradient3828)"/>
  <path id="path3834" d="m256.62 70.094c-44.694 0-94.613 16.665-105.12 71.938-1.0578 5.8842 3.1653 8.9843 7 9.8438l45.625 4.9062c4.2314-0.19834 7.3316-4.3936 8.125-8.625 3.9008-19.041 19.926-28.219 37.844-28.219 9.6529 0 20.623 3.5576 26.375 12.219 6.5455 9.6528 5.6875 22.889 5.6875 34.062v6.0938c-27.24 3.1074-62.886 5.0728-88.406 16.312-29.421 12.694-50.125 38.695-50.125 76.844 0 48.859 30.807 73.25 70.344 73.25 33.455 0 51.715-7.8734 77.5-34.188 8.595 12.364 11.365 18.385 26.969 31.344 3.5041 1.8512 8.0176 1.6519 11.125-1.125l0.125 0.125c9.3885-8.3306 26.444-23.187 36.031-31.188 3.8347-3.1736 3.1663-8.2686 0.125-12.5-8.595-11.901-17.719-21.546-17.719-43.562v-73.281c0-31.008 2.1886-59.488-20.688-80.844-18.05-17.322-47.936-23.406-70.812-23.406zm25.531 139.91v10.156c0 18.314 0.44367 33.611-8.8125 49.875-7.4711 13.223-19.308 21.344-32.531 21.344-18.05 0-28.562-13.734-28.562-34.031 0-40.066 35.923-47.344 69.906-47.344zm145.75 105.12c-14.103 0.19421-30.763 3.374-43.375 12.25-3.9008 2.7108-3.2368 6.4664 1.0938 5.9375 14.215-1.6859 45.88-5.4878 51.5 1.7188 5.6529 7.2396-6.2715 37.023-11.594 50.312-1.6198 4.0331 1.8324 5.6663 5.4688 2.625 23.702-19.802 29.795-61.298 24.969-67.281-2.4132-2.9752-13.959-5.7567-28.062-5.5625zm-369.72 7.9375c-3.4583-0.19336-5.2637 3.7461-1.9062 6.7812 52.595 47.504 122.12 76.062 199.34 76.062 55.074 0 119.02-17.346 163.16-49.875 7.3057-5.4215 1.0648-13.486-6.4062-10.312-49.454 20.992-103.23 31.094-152.12 31.094-72.495 0-142.68-19.85-199.44-52.875-0.92975-0.54545-1.8269-0.83038-2.625-0.875z" style="fill-rule:evenodd;fill:#fff;filter:url(#filter3847);stroke-width:4;stroke:#fff"/>
  <g id="g2976" transform="matrix(3.1486 0 0 3.1486 54.491 2.8942)">
   <g id="g2914" transform="matrix(.40048 0 0 .40048 -36.771 52.478)">
    <path id="path8" d="m380.72 149.02c-34.999 25.797-85.729 39.561-129.41 39.561-61.243 0-116.38-22.651-158.09-60.325-3.2771-2.9625-0.34083-6.9999 3.5917-4.6928 45.014 26.191 100.67 41.947 158.17 41.947 38.775 0 81.43-8.0224 120.65-24.67 5.925-2.5168 10.88 3.8801 5.0861 8.1796" style="fill-rule:evenodd;fill:#f90"/>
    <path id="path10" d="m395.27 132.37c-4.4569-5.7153-29.573-2.7003-40.846-1.3633-3.4344 0.41947-3.9587-2.5692-0.86517-4.719 20.003-14.078 52.827-10.015 56.655-5.2958 3.8276 4.7453-0.99624 37.647-19.794 53.351-2.8838 2.412-5.6366 1.1273-4.352-2.0711 4.2209-10.539 13.685-34.161 9.2021-39.902" style="fill-rule:evenodd;fill:#f90"/>
   </g>
   <path id="path30" d="m72.304 69.008c0 5.8166 0.14698 10.667-2.7928 15.833-2.3729 4.1997-6.1316 6.7826-10.331 6.7826-5.7326 0-9.0714-4.3677-9.0714-10.814 0-12.725 11.402-15.035 22.196-15.035v3.2338m15.056 36.391c-0.98694 0.88195-2.4149 0.94494-3.5278 0.35699-4.9557-4.1157-5.8376-6.0266-8.5674-9.9534-8.1895 8.3575-13.985 10.856-24.61 10.856-12.557 0-22.343-7.7485-22.343-23.266 0-12.116 6.5726-20.369 15.917-24.4 8.1055-3.5698 19.424-4.1997 28.075-5.1867v-1.9319c0-3.5488 0.27298-7.7485-1.8059-10.814-1.8269-2.7508-5.3127-3.8848-8.3785-3.8848-5.6906 0-10.772 2.9188-12.011 8.9664-0.25199 1.3439-1.2389 2.6668-2.5828 2.7298l-14.489-1.5539c-1.2179-0.27297-2.5618-1.2599-2.2259-3.1288 3.3388-17.555 19.193-22.847 33.388-22.847 7.2655 0 16.757 1.9319 22.49 7.4335 7.2655 6.7826 6.5726 15.833 6.5726 25.681v23.266c0 6.9926 2.8978 10.058 5.6276 13.838 0.96593 1.3439 1.1759 2.9608-0.042 3.9687-3.0448 2.5408-8.4624 7.2655-11.444 9.9114l-0.04199-0.042" style="fill-rule:evenodd;fill:#221f1f"/>
  </g>
 </g>
 <g id="layer1" transform="translate(0 -576.36)" style="display:none">
  <g id="layer1-3" transform="matrix(3.5556 0 0 3.5522 0 -2685.9)" style="display:inline">
   <g id="layer1-2" transform="translate(0 10)">
    <path id="path3774" d="m46.703 908.36h50.595c40.865 0 46.703 5.8378 46.703 46.703v40.595c0 40.865-5.8378 46.702-46.703 46.702h-50.595c-40.865 0-46.703-5.8378-46.703-46.702v-40.595c0-40.865 5.8378-46.703 46.703-46.703z" style="display:inline"/>
   </g>
  </g>
 </g>
</svg>
