<?xml version="1.0" encoding="UTF-8"?>
<!-- Created with Inkscape (http://www.inkscape.org/) -->
<svg id="svg3336" width="512" height="476" version="1.1" xmlns="http://www.w3.org/2000/svg" xmlns:cc="http://creativecommons.org/ns#" xmlns:dc="http://purl.org/dc/elements/1.1/" xmlns:rdf="http://www.w3.org/1999/02/22-rdf-syntax-ns#" xmlns:xlink="http://www.w3.org/1999/xlink">
 <defs id="defs3338">
  <linearGradient id="linearGradient3994-22">
   <stop id="stop3996-5" style="stop-color:#fff" offset="0"/>
   <stop id="stop3998-6" style="stop-color:#fff;stop-opacity:0" offset="1"/>
  </linearGradient>
  <filter id="filter5401" color-interpolation-filters="sRGB">
   <feGaussianBlur id="feGaussianBlur5403" stdDeviation="0.24141425"/>
  </filter>
  <filter id="filter5371" x="-.12427" y="-.11602" width="1.2485" height="1.232" color-interpolation-filters="sRGB">
   <feGaussianBlur id="feGaussianBlur5373" stdDeviation="0.65085012"/>
  </filter>
  <linearGradient id="linearGradient8013">
   <stop id="stop8015" offset="0"/>
   <stop id="stop8017" style="stop-opacity:0" offset="1"/>
  </linearGradient>
  <filter id="filter8021" x="-.132" y="-.075429" width="1.264" height="1.1509" color-interpolation-filters="sRGB">
   <feGaussianBlur id="feGaussianBlur8023" stdDeviation="1.76"/>
  </filter>
  <filter id="filter5363" x="-.10084" y="-.091605" width="1.2017" height="1.1832" color-interpolation-filters="sRGB">
   <feGaussianBlur id="feGaussianBlur5365" stdDeviation="1.6876661"/>
  </filter>
  <clipPath id="clipPath3522">
   <rect id="rect3524" x="6" y="10.087" width="83.995" height="76.913" style="color:#000000;fill:#f0f"/>
  </clipPath>
  <clipPath id="clipPath16376"/>
  <clipPath id="clipPath16372"/>
  <linearGradient id="linearGradient3709" x1="57.079" x2="52.273" y1="63.784" y2="-9.8278" gradientTransform="matrix(.95683 .43591 -.55242 .75501 42.902 -7.03)" gradientUnits="userSpaceOnUse" xlink:href="#linearGradient8013"/>
  <linearGradient id="linearGradient3711" x1="65" x2="65" y1="65" y2="7" gradientTransform="translate(2 7.0001)" gradientUnits="userSpaceOnUse" xlink:href="#linearGradient8013"/>
  <radialGradient id="radialGradient3717" cx="61" cy="32.667" r="16" gradientTransform="matrix(1.5 3.3056e-8 -3.2513e-8 1.4753 -30.5 -15.528)" gradientUnits="userSpaceOnUse">
   <stop id="stop8029" style="stop-opacity:.40833" offset="0"/>
   <stop id="stop8035" style="stop-opacity:.58333" offset=".5"/>
   <stop id="stop8031" offset="1"/>
  </radialGradient>
  <linearGradient id="linearGradient3731" x1="64" x2="64" y1="8" y2="64" gradientTransform="matrix(5.3333 0 0 5.3287 42.685 2.7455)" gradientUnits="userSpaceOnUse">
   <stop id="stop7965" style="stop-color:#de2d2d" offset="0"/>
   <stop id="stop7967" style="stop-color:#b41c1c" offset="1"/>
  </linearGradient>
  <linearGradient id="linearGradient3734" x1="45" x2="77" y1="16" y2="16" gradientTransform="matrix(5.3333 0 0 5.3287 32.018 -7.912)" gradientUnits="userSpaceOnUse">
   <stop id="stop7986" style="stop-color:#e14040" offset="0"/>
   <stop id="stop7992" style="stop-color:#e66161" offset=".375"/>
   <stop id="stop7988" style="stop-color:#ca2020" offset="1"/>
  </linearGradient>
  <linearGradient id="linearGradient3803" x1="44.237" x2="44.237" y1="1046.3" y2="960.21" gradientTransform="matrix(5.3329 0 0 -5.4177 .018759 5682.1)" gradientUnits="userSpaceOnUse">
   <stop id="stop4008" style="stop-color:#ebe6dc" offset="0"/>
   <stop id="stop4010" style="stop-color:#dad1be" offset="1"/>
  </linearGradient>
  <radialGradient id="radialGradient3883" cx="1.6739" cy="66.343" r="11" gradientTransform="matrix(-2.7411 0 -3.3062e-7 -7 32.244 474.4)" gradientUnits="userSpaceOnUse" xlink:href="#linearGradient3994-22"/>
  <radialGradient id="radialGradient3885" cx="26.5" cy="58.493" r="11" gradientTransform="matrix(2.669 2.3013e-8 0 8.5454 -120.02 -413.85)" gradientUnits="userSpaceOnUse" xlink:href="#linearGradient8013"/>
  <linearGradient id="linearGradient3887" x1="24" x2="24" y1="88" y2="4.984" gradientTransform="matrix(.36575 0 0 1.0008 18.146 -96.038)" gradientUnits="userSpaceOnUse" xlink:href="#linearGradient3994-22"/>
  <linearGradient id="linearGradient3889" x1="24" x2="24" y1="88" y2="6.0334" gradientTransform="matrix(.30085 0 0 1.0008 41.467 -96.038)" gradientUnits="userSpaceOnUse" xlink:href="#linearGradient8013"/>
  <radialGradient id="radialGradient3891" cx="1.6739" cy="66.343" r="11" gradientTransform="matrix(-2.0702 -9.4713e-8 0 -7 74.388 474.4)" gradientUnits="userSpaceOnUse" xlink:href="#linearGradient3994-22"/>
  <filter id="filter3989">
   <feGaussianBlur id="feGaussianBlur3991" stdDeviation="10.063437"/>
  </filter>
  <clipPath id="clipPath4045">
   <rect id="rect4047" y="-4.1187e-5" width="512" height="476" style="color:#000000;fill:#f0f"/>
  </clipPath>
  <radialGradient id="radialGradient4065" cx="170.77" cy="144.65" r="4.7935" gradientTransform="matrix(1 0 0 26.625 0 -3706.7)" gradientUnits="userSpaceOnUse" xlink:href="#linearGradient3994-22"/>
  <clipPath id="clipPath4075">
   <rect id="rect4077" transform="matrix(.99408 -.10866 .10847 .9941 0 0)" x="-10.554" y="9.0792" width="96.002" height="89.327" style="color:#000000;fill:#f0f;opacity:.4"/>
  </clipPath>
  <clipPath id="clipPath4105">
   <path id="path4107" d="m60.999 4.4164c-11.782 0-21.328 9.5489-21.328 21.331 0 10.667 8.5092 17.334 13.328 28.001 4.819 10.667 5.3334 25.334 8.0001 25.334 2.6667 0 2.9239-14.668 8.0001-25.334 5.0762-10.667 13.336-17.334 13.336-28.001 0-11.782-9.554-21.331-21.336-21.331zm0 5.3328c8.8366 0 16 7.1617 16 15.998s-7.1636 16.006-16 16.006c-8.8366 0-16-7.1695-16-16.006s7.1636-15.998 16-15.998z" style="color:#000000;fill:#f0f"/>
  </clipPath>
  <filter id="filter4113">
   <feGaussianBlur id="feGaussianBlur4115" stdDeviation="0.64000006"/>
  </filter>
  <linearGradient id="linearGradient4123" x1="64.021" x2="64.021" y1="43.578" y2="9.5973" gradientUnits="userSpaceOnUse" xlink:href="#linearGradient3994-22"/>
  <linearGradient id="linearGradient4125" x1="57.541" x2="72.404" y1="11.526" y2="11.526" gradientTransform="translate(3 5.0001)" gradientUnits="userSpaceOnUse" spreadMethod="reflect" xlink:href="#linearGradient3994-22"/>
 </defs>
 <metadata id="metadata3341">
  <rdf:RDF>
   <cc:Work rdf:about="">
    <dc:format>image/svg+xml</dc:format>
    <dc:type rdf:resource="http://purl.org/dc/dcmitype/StillImage"/>
    <dc:title/>
   </cc:Work>
  </rdf:RDF>
 </metadata>
 <g id="layer2">
  <path id="path6419" d="m170.67-3.04e-5c-24.904 0-46.052 0.017761-64.218 0.55504h-106.44v142.31c-0.041665 9.5233 0 19.692 0 30.527v129.21c0 10.835-0.041665 21.004 0 30.527v142.87h140.66 230.65 140.66v-142.87c0.0416-9.5233 0-19.692 0-30.527v-129.21c0-10.835 0.0416-21.004 0-30.527v-142.31h-106.44c-18.166-0.53877-39.314-0.55504-64.218-0.55504h-170.65z" style="fill:url(#linearGradient3803)"/>
 </g>
 <g id="layer3">
  <g id="g3993" clip-path="url(#clipPath4045)">
   <path id="path3938" d="m405.47-4.1875-12.438 0.9375-51.688 28.375-170.66 63.281-170.66 98.562v5.875l68.438-39.438 34.062 46.562-102.5 58.781v5.875l105.5-60.531 21.344 29.156-126.84 72.344v5.875l129.91-74 38.281 52.312-71.969 43.25-18.5-24.625c-3.409-4.6843-10.089-7.1123-16.906-6.1875-6.3725 0.82444-12.197 4.4347-15.156 9.4375l-0.1875 0.34375c-2.7546 4.9248-2.5265 10.572 0.75 14.75l18.781 25.031-65 39.094v5.875l70.688-42.406 2.6562-1.6562-1.5-1.9375-20.312-27c-2.1618-2.7548-2.4711-6.9312-0.5625-10.156 1.9093-3.226 6.1096-5.7824 10.219-6.3125 4.3762-0.59204 9.0315 1.1179 11.219 4.125l20.188 26.75 1.7188 2.0938 2.4688-1.5 73.875-44.469 18.656-7.5938 12.781 18.906-31.438 12.969-61.25 36.594-2.6875 1.6562 1.5312 1.9375 62.406 82.531 24.562 37.281 7.0625 0.78125-31.625-48.188-55.531-73.438 55.531-33.219 15.125-6.2188 108.09 171.12 7.0625 0.78125-109.81-174.06 16.656-6.8438 2.6875-1.1562-1.5312-2.25-16-23.625-1.7188-2.4375-2.4688 1-15.344 6.375-2.75-4.3438-96.906-132.5 37.188-21.438 59.719 81.562 170.66 270.97v-10.469l-163.38-259.38 159.25-59.312 4.125 6.3438 17.156 22.812-17.156 10.156-59.625 23.688-0.1875-0.0312v0.1875c-18.19 8.1313-30.224 20.537-32.938 38.812-3.8083 21.362 10.764 43.672 25.719 67.188l67.031 101.78 51.312 65.75 7.2812-0.78125-58.594-75.094-61.719-93.656c-14.962-23.528-28.329-44.663-24.938-63.688v-0.1875c2.4829-16.722 13.117-27.789 30.094-35.438 0.0805-0.0363 0.10705-0.0889 0.1875-0.125l56.375-22.438 22.938-13.438 2.6875-1.5-1.5625-2.125-24.062-32-17.125-26.344 17.125-6.7812 9.0625-5.25 15.656 20.844-0.0625 0.03125 1.5625 1.9688 24.156 32.125 1.5312 2.0938 2.6562-1.5 116.09-68.406v-5.875l-116.47 68.531-20.938-27.875 137.41-77.031v-5.875l-140.53 78.781-17.219-22.938-1.5312-2.125-2.6875 1.5-8.6875 5.0312-22.844 8.9062-2.6875 1 1.5312 2.4062 16.812 25.875-159.12 59.312-4.3438-6.875-17.156-23.438 17.156-9.875 170.66-63.406 170.66-95.125v-5.875l-170.66 94.875-170.66 63.594-20.25 11.625-34.125-46.562 54.375-31.344 170.66-63.406 64.125-35.281zm-382.66 2.2188-7.1562 0.78125 74.062 101-36.938 21.469-52.75-72.312v10.312l47.438 65.062-47.438 27.531v5.875l92.75-53.781 0.03125 0.0625 5.3438-3.125-0.03125-0.0312 72.562-42.062 160.38-59.406-12.375-1.375-148 54.812-75.594 43.875-72.281-98.688zm489.19 128.62-170.66 100.81-39.031 15.5c-5.028 1.9841-9.6169 3.9548-12.969 7.25-3.3519 3.2952-5.2788 7.9033-5.3125 14.219-0.0707 13.21 11.786 29.199 21.5 44.656l35.812 54.281 93.875 120.94 7.0312-0.78125-100.91-130.12-30.469-46.281c-9.8464-15.667-20.805-31.638-20.75-42.031 0.0305-5.4864 1.4688-8.6366 4-11.125 2.5312-2.4884 6.35-4.235 11.219-6.1562l36-14.219 170.66-100.91v-6.0312zm-426.06 242.56-2.4688 1.5-83.438 50v6.0312l84-50.344 75.656 100.25 7.125-0.5-79.156-104.81-1.7188-2.125z" style="block-progression:tb;color:#000000;fill:#fff;filter:url(#filter3989);opacity:.6;text-indent:0;text-transform:none"/>
   <path id="path4666" d="m512.01 131.26-170.67 100.72v29.755l23.495 29.292-23.495 15.582v23l118.43 148.82 52.238 0.66273v-347.83" style="fill:#b7d798"/>
   <path id="path4672" d="m341.35 0.52579v27.664l57.819-31.902-57.819 0.68554" style="block-progression:tb;color:#000000;fill:#fff;text-indent:0;text-transform:none"/>
   <path id="path4674" d="m393.05-3.2632-51.696 28.397v5.9511l64.128-35.26-12.432 0.9112" style="block-progression:tb;color:#000000;fill:#d7ceba;text-indent:0;text-transform:none"/>
   <path id="path4680" d="m351.57 106.49-10.217 5.8158v41.336l21.38 28.38-21.38 12.634v35.867l170.67-100.86v-35.413l-117.63 69.317s-42.819-57.08-42.819-57.08m-10.217 251.9v59.671s54.758 70.539 54.758 70.539l42.537-4.6765-97.295-125.53" style="block-progression:tb;color:#000000;fill:#fff;text-indent:0;text-transform:none"/>
   <path id="path4684" d="m352.72 102.86-2.6968 1.5042-8.6756 5.0458v5.951l9.061-5.2418s41.294 54.962 41.294 54.962l1.5317 2.1116 2.6795-1.5119 116.1-68.411v-5.8757l-116.48 68.553s-41.271-54.962-41.271-54.962l-1.5406-2.1249m159.29 23.788-170.67 100.82v6.1119l170.67-100.89v-6.0345m-170.67 21.846v10.133s17.148 22.798 17.148 22.798l-17.148 10.174v5.951l22.918-13.415 2.6912-1.5186-1.5376-2.114s-24.072-32.008-24.072-32.008m0 204.91v9.972l93.871 120.92 7.0351-0.77346-100.91-130.12m0 59.671v10.133s51.313 65.771 51.313 65.771 7.2712-0.79941 7.2712-0.79941l-58.584-75.105" style="block-progression:tb;color:#000000;fill:#d7ceba;text-indent:0;text-transform:none"/>
   <path id="path4686" d="m512.01 5.1677-170.67 95.078v47.608l170.67-95.681v-47.006" style="block-progression:tb;color:#000000;fill:#ffc345;text-indent:0;text-transform:none"/>
   <path id="path4694" d="m512.01 2.3093-170.67 94.881v6.1119l170.67-95.117v-5.8757m0 46.847s-146.02 81.852-146.02 81.852 3.2668 4.0621 3.2668 4.0621 142.75-80.039 142.75-80.039v-5.8757m-170.67 99.502v2.0909l1.1574-0.58022-1.1574-1.5107" style="block-progression:tb;color:#000000;fill:#e2a830;text-indent:0;text-transform:none"/>
   <path id="path4559" d="m341.35 231.97-16 6.2829 16 23.472v-29.755m0 74.629s-12 5.5968-12 5.5968l12 17.403v-23" style="fill:#b8d799"/>
   <path id="path4561" d="m194.87 295.32-24.19 9.8859v153.12s12.381 18.893 12.381 18.893l131.05 14.407 12.381-4.9116s-131.62-191.39-131.62-191.39" style="fill:#fff;opacity:.5"/>
   <path id="path4563" d="m190.3 283.24-19.619 8.1368v30.077l35.619-14.581-16-23.633m-19.619 152.89v43.279l28-0.4739-28-42.806" style="block-progression:tb;color:#000000;fill:#fff;text-indent:0;text-transform:none"/>
   <path id="path4565" d="m324.78-1.2961-154.09 57.205v35.545l170.67-63.265v-31.217l-16.571 1.7304" style="block-progression:tb;color:#000000;fill:#fff;text-indent:0;text-transform:none"/>
   <path id="path4567" d="m318.68-1.9662-148 54.82v5.951l160.38-59.409s-12.381-1.3612-12.381-1.3612m22.666 27.1s-170.67 63.265-170.67 63.265v6.1119l170.67-63.426v-5.9511" style="block-progression:tb;color:#000000;fill:#d7ceba;text-indent:0;text-transform:none"/>
   <path id="path4569" d="m191.26 279.81-2.4762 1.0145-18.095 7.5001v5.951l18.667-7.5981 12.762 18.934-31.428 12.95v5.951l37.143-15.217 2.6666-1.1544s-1.5238-2.2584-1.5238-2.2584l-16-23.633s-1.7143-2.4402-1.7143-2.4402m-20.571 151.34v10.133l24.571 37.282s7.0476 0.77482 7.0476 0.77482l-31.619-48.189" style="block-progression:tb;color:#000000;fill:#d7ceba;text-indent:0;text-transform:none"/>
   <path id="path4571" d="m170.68 205.33v82.993s126.86 201.49 126.86 201.49 43.809 4.8164 43.809 4.8164v-18.336l-170.67-270.96" style="block-progression:tb;color:#000000;fill:#fffd8b;text-indent:0;text-transform:none"/>
   <path id="path4573" d="m341.35 112.31-21.333 8.4308 21.333 32.905v-41.336m0 82.35-58.095 23.047c-17.654 7.8916-29.015 19.678-31.619 37.216-3.6 20.193 10.375 41.99 25.333 65.512 0 0 64.38 97.63 64.38 97.63v-59.671s-33.143-50.287-33.143-50.287c-9.7803-15.562-21.206-31.537-21.143-43.338 0.0628-11.802 6.8649-15.483 16.762-19.388l37.524-14.854v-35.867" style="block-progression:tb;color:#000000;fill:#fff;text-indent:0;text-transform:none"/>
   <path id="path4575" d="m170.68 200.02v10.455l170.67 270.96v-10.455l-170.67-270.96m0 82.832v10.294s0.57112 0.86703 0.57112 0.86703l5.1428-2.1689s-5.7142-8.9919-5.7142-8.9919m17.524 28.626-5.3333 2.1479 111.05 175.78s7.0476 0.77482 7.0476 0.77482l-112.76-178.7" style="block-progression:tb;color:#000000;fill:#dddb57;text-indent:0;text-transform:none"/>
   <path id="path4577" d="m341.35 109.41-22.857 8.9066s-2.6666 0.99354-2.6666 0.99354 1.5238 2.4193 1.5238 2.4193 24 36.897 24 36.897v-10.133l-17.143-26.332s17.143-6.8006 17.143-6.8006v-5.951m0 82.189-59.619 23.683s-0.19017-0.0206-0.19017-0.0206v0.16086c-18.19 8.1313-30.238 20.563-32.952 38.839-3.8083 21.362 10.76 43.647 25.714 67.163l67.047 101.78v-10.133s-61.714-93.638-61.714-93.638c-14.962-23.528-28.344-44.677-24.952-63.701v-0.16086c2.4829-16.722 13.119-27.805 30.095-35.454 0.0805-0.0363 0.10972-0.10376 0.19017-0.13991l56.381-22.431v-5.951m0 35.867-39.047 15.49c-5.028 1.9841-9.6004 3.9661-12.952 7.2613-3.3519 3.2952-5.2996 7.8954-5.3333 14.211-0.0707 13.21 11.81 29.21 21.524 44.667 0 0 35.809 54.28 35.809 54.28v-9.972s-30.476-46.295-30.476-46.295c-9.8464-15.667-20.817-31.616-20.762-42.01 0.0305-5.4864 1.4688-8.6523 4-11.141 2.5312-2.4884 6.3692-4.2418 11.238-6.1631l36-14.217v-6.1119" style="block-progression:tb;color:#000000;fill:#d7ceba;text-indent:0;text-transform:none"/>
   <path id="path4579" d="m341.35 100.25-170.67 63.586v47.608s170.67-63.586 170.67-63.586v-47.608" style="block-progression:tb;color:#000000;fill:#ffc345;text-indent:0;text-transform:none"/>
   <path id="path4581" d="m308.59 42.438-137.91 52.219-39.25 22.938 30.562 40.312 8.6875-5 170.66-64.094-32.75-46.375z" style="fill:#b8d799"/>
   <path id="path4583" transform="matrix(7.889 0 0 7.1479 -437.53 -7149.1)" d="m90.063 1023.1c0.03415-0.03 0.07786-0.046 0.13249-0.045-0.01366-0.094-0.12908-0.08-0.20625-0.1057-0.0048 0.056 0.02049 0.1076 0.07376 0.1506" clip-path="url(#clipPath16376)" style="fill:#0ff"/>
   <path id="path4585" transform="matrix(7.889 0 0 7.1479 -437.53 -7149.1)" d="m90.187 1023.5c0.07717-0.05 0.02937-0.079-0.05737-0.075 0.01912 0.025 0.03825 0.05 0.05737 0.075" clip-path="url(#clipPath16372)" style="fill:#0ff"/>
   <path id="path4587" d="m341.35 97.19-170.67 63.586v5.951s170.67-63.426 170.67-63.426v-6.1119m-2.0952 48.504-168.57 62.852v1.1259s2.2857 3.7897 2.2857 3.7897l168.38-62.712v-2.0909l-2.0952-2.9646" style="block-progression:tb;color:#000000;fill:#e2a830;text-indent:0;text-transform:none"/>
   <path id="path4090" d="m170.68 305.21-79.969 47.964 79.969 105.15v-153.12" style="fill:#fff;opacity:.5"/>
   <path id="path4034" d="m170.68 291.38-75.392 45.263-20.191-26.729c-2.8716-3.947-8.3155-5.9473-14.059-5.1691-5.3616 0.69263-10.178 3.7006-12.668 7.9098-2.4898 4.2077-2.2873 8.993 0.53272 12.587l20.302 27.003-69.189 41.479v30.014l84.98-50.91 78.166 103.59 7.5196 3.0011v-43.279l-59.731-78.872 59.731-35.806v-30.077" style="block-progression:tb;color:#000000;fill:#fff;text-indent:0;text-transform:none"/>
   <path id="path4040" d="m170.68 55.909s-170.67 98.814-170.67 98.814v35.095s170.67-98.364 170.67-98.364v-35.545" style="block-progression:tb;color:#000000;fill:#fff;text-indent:0;text-transform:none"/>
   <path id="path3290" d="m170.68 52.853s-170.67 99.012-170.67 99.012v5.8757l170.67-98.936v-5.951m0 35.545-170.67 98.562v5.8757s170.67-98.326 170.67-98.326v-6.1119" style="block-progression:tb;color:#000000;fill:#d7ceba;text-indent:0;text-transform:none"/>
   <path id="path3322" d="m170.68 288.32-74.438 44.72-18.481-24.637c-3.409-4.6843-10.096-7.1225-16.912-6.1977-6.3725 0.82444-12.206 4.4416-15.166 9.4444 0 0-0.18956 0.33504-0.18956 0.33504-2.7546 4.9248-2.5191 10.577 0.75745 14.755 0 0 18.774 25.051 18.774 25.051l-65.01 39.072v5.8757l70.709-42.388 2.6615-1.6578s-1.5209-1.9493-1.5209-1.9493-20.31-27.006-20.31-27.006c-2.1618-2.7548-2.4773-6.9288-0.56868-10.154 1.9093-3.226 6.1321-5.7758 10.241-6.3058 4.3762-0.59204 9.0202 1.1328 11.207 4.1399 0 0 20.183 26.725 20.183 26.725l1.7165 2.0948 2.48-1.4876 73.866-44.479v-5.951m0 30.238-61.261 36.586-2.6758 1.6618 1.5289 1.9551s62.408 82.517 62.408 82.517v-10.133s-55.523-73.432-55.523-73.432l55.523-33.204v-5.951m-84.733 50.672-2.4761 1.4807-83.456 50.006v6.0345l84.027-50.334 75.651 100.25 7.1301-0.52262-79.161-104.81-1.7147-2.0978" style="block-progression:tb;color:#000000;fill:#d7ceba;text-indent:0;text-transform:none"/>
   <path id="path4022" d="m0.018681 0.52579v53.675l170.67 234.12v-82.993l-151.46-206.91-19.21-2.465" style="block-progression:tb;color:#000000;fill:#fffd8b;text-indent:0;text-transform:none"/>
   <path id="path3296" d="m15.646-1.1924 77.166 105.21 5.3416-3.1015-75.34-102.9s-7.1671 0.78793-7.1671 0.78793m-15.628 50.153v10.322l50.403 69.123 5.3078-3.082s-55.711-76.363-55.711-76.363m113.23 72.685-5.3536 3.0968s62.79 85.733 62.79 85.733v-10.455s-57.436-78.376-57.436-78.376m-42.52 24.527-5.3198 3.0772 105.28 143.9v-10.294l-99.956-136.68" style="block-progression:tb;color:#000000;fill:#dddb57;text-indent:0;text-transform:none"/>
   <path id="path3252" d="m170.68 163.83-170.67 97.766v47.006s170.67-97.163 170.67-97.163v-47.608" style="block-progression:tb;color:#000000;fill:#ffc345;text-indent:0;text-transform:none"/>
   <path id="path3304" d="m170.68 160.78-25.225 14.479v0.16055l3.0759 4.041 22.149-12.729v-5.951m-63.172 36.363-107.49 61.601v5.8757l110.55-63.442-3.0585-4.0345m63.172 11.407-0.57904 0.37558s0.57904 0.75032 0.57904 0.75032v-1.1259m-38.857 21.901-131.81 75.14v5.8757s134.88-76.806 134.88-76.806-3.0696-4.2099-3.0696-4.2099" style="block-progression:tb;color:#000000;fill:#e2a830;text-indent:0;text-transform:none"/>
   <path id="path4803" d="m140.68 0.018874c-35.8 0.16163-62.441 0.97909-82.333 4.7328l43.333 61.695 69.166-41.919 79.333-24.509h-79.499c-10.666 0-20.625-0.042352-30 0z" style="opacity:.025"/>
   <path id="path4008" d="m240.85 0.018874-71.5 22.988h-0.33333l-0.16667 0.16905-66.333 37.862-9.3333-12.846 5.3333-3.5496-20-28.397-5.5 3.7186-18.444-22.824c-2.3138 0.38434-4.5233 0.72415-6.6666 1.1832l51.277 68.8 1.6667 2.0283 2.3333-1.3522 68-39.045 0.66666-0.16905 89.333-28.566z" style="block-progression:tb;color:#000000;fill:#d7cdba;text-indent:0;text-transform:none"/>
   <g id="text7931" transform="matrix(.53386 .84914 -.83727 .54142 0 0)" style="opacity:.6">
    <path id="path4601" d="m335.44-15.35q0-2.1852 0.63837-3.8548 0.66293-1.6696 1.7678-2.7745 1.1294-1.1294 2.6026-1.6942 1.4977-0.56472 3.1673-0.56472 1.645 0 3.0937 0.56472 1.4732 0.56472 2.578 1.6942 1.1049 1.1049 1.7433 2.7745 0.66293 1.6696 0.66293 3.8548 0 1.9151-0.49106 3.4129-0.49106 1.4977-1.375 2.6026-0.85935 1.0803-2.0379 1.7678-1.154 0.66293-2.4798 0.90846 0.0246 0.56472 0.49106 0.98212 0.49106 0.44195 1.2276 0.73659 0.73658 0.29464 1.645 0.49106t1.8169 0.29464l-0.56472 1.866q-1.2768-0.17187-2.4553-0.46651-1.154-0.27008-2.1116-0.73659-0.93301-0.46651-1.5714-1.2031-0.63838-0.71203-0.85935-1.7924-1.5468-0.098212-2.9218-0.71203-1.375-0.63838-2.3816-1.7433-1.0067-1.1294-1.5959-2.7254-0.58927-1.5959-0.58927-3.6829zm2.5044 0q0 1.5468 0.39285 2.8236 0.39285 1.2522 1.1049 2.1361 0.73659 0.8839 1.7678 1.375 1.0558 0.46651 2.3571 0.46651 1.3013 0 2.3325-0.46651 1.0312-0.49106 1.7433-1.375 0.73659-0.88391 1.1294-2.1361 0.39285-1.2768 0.39285-2.8236 0-1.5468-0.39285-2.799-0.39284-1.2768-1.1294-2.1607-0.71204-0.8839-1.7433-1.3504-1.0312-0.49106-2.3325-0.49106-1.3013 0-2.3571 0.49106-1.0312 0.46651-1.7678 1.3504-0.71203 0.8839-1.1049 2.1607-0.39285 1.2522-0.39285 2.799z"/>
    <path id="path4603" d="m365.23-7.198q-0.78569 0.19642-2.087 0.4174-1.2768 0.22098-2.9709 0.22098-1.4732 0-2.4798-0.4174-1.0067-0.44195-1.6205-1.2276-0.61382-0.78569-0.8839-1.8415-0.27008-1.0803-0.27008-2.3816v-7.1695h2.2834v6.6784q0 2.3325 0.73659 3.3392 0.73658 1.0067 2.4798 1.0067 0.36829 0 0.76114-0.024553t0.73659-0.049106q0.34374-0.049106 0.61382-0.073659 0.29464-0.049106 0.4174-0.098212v-10.779h2.2834v12.399z"/>
    <path id="path4605" d="m373.48-8.4747q0.81025 0 1.4241-0.024553 0.63837-0.049106 1.0558-0.14732v-3.8057q-0.24553-0.12276-0.81024-0.19642-0.54017-0.09821-1.3259-0.09821-0.51561 0-1.1049 0.07366-0.56472 0.07366-1.0558 0.31919-0.4665 0.22098-0.78569 0.63838-0.31919 0.39285-0.31919 1.0558 0 1.2276 0.78569 1.7187 0.7857 0.46651 2.1361 0.46651zm-0.19642-11.442q1.375 0 2.308 0.36829 0.95756 0.34374 1.5223 1.0067 0.58927 0.63838 0.8348 1.5468 0.24553 0.8839 0.24553 1.9642v7.9797q-0.29463 0.049106-0.8348 0.14732-0.51561 0.073659-1.1785 0.14732-0.66293 0.073659-1.4486 0.12276-0.76114 0.073659-1.5223 0.073659-1.0803 0-1.9888-0.22098-0.90846-0.22098-1.5714-0.68748-0.66293-0.49106-1.0312-1.2768t-0.36829-1.8906q0-1.0558 0.4174-1.8169 0.44195-0.76114 1.1785-1.2276 0.73658-0.46651 1.7187-0.68748 0.98212-0.22098 2.0624-0.22098 0.34374 0 0.71203 0.04911 0.3683 0.02455 0.68748 0.09821 0.34374 0.04911 0.58927 0.09821 0.24553 0.04911 0.34374 0.07366v-0.63838q0-0.56472-0.12276-1.1049-0.12277-0.56472-0.44195-0.98212-0.31919-0.44195-0.88391-0.68748-0.54016-0.27008-1.4241-0.27008-1.1294 0-1.9888 0.17187-0.8348 0.14732-1.2522 0.31919l-0.27009-1.8906q0.44196-0.19642 1.4732-0.36829 1.0312-0.19642 2.2343-0.19642z"/>
    <path id="path4607" d="m381.97-19.229q0.78569-0.19642 2.087-0.4174 1.3013-0.22098 2.9955-0.22098 1.5223 0 2.529 0.44195 1.0067 0.4174 1.5959 1.2031 0.61382 0.76114 0.85935 1.8415t0.24553 2.3816v7.1695h-2.2834v-6.6784q0-1.1785-0.17187-2.0133-0.14732-0.8348-0.51561-1.3504-0.3683-0.51561-0.98212-0.73659-0.61383-0.24553-1.5223-0.24553-0.3683 0-0.76114 0.02455-0.39285 0.02455-0.76114 0.07366-0.34375 0.02455-0.63838 0.07366-0.27008 0.04911-0.39285 0.07366v10.779h-2.2834v-12.399z"/>
    <path id="path4609" d="m398.2-19.597h4.8369v1.9151h-4.8369v5.8927q0 0.95756 0.14731 1.5959 0.14732 0.61382 0.44196 0.98212 0.29463 0.34374 0.73658 0.49106 0.44196 0.14732 1.0312 0.14732 1.0312 0 1.645-0.22098 0.63838-0.24553 0.88391-0.34374l0.44195 1.8906q-0.34374 0.17187-1.2031 0.4174-0.85935 0.27008-1.9642 0.27008-1.3013 0-2.1606-0.31919-0.8348-0.34374-1.3504-1.0067-0.51562-0.66293-0.73659-1.6205-0.19643-0.98212-0.19643-2.2589v-11.393l2.2834-0.39285v3.953z"/>
    <path id="path4611" d="m410.27-8.4747q0.81025 0 1.4241-0.024553 0.63838-0.049106 1.0558-0.14732v-3.8057q-0.24553-0.12276-0.81025-0.19642-0.54016-0.09821-1.3259-0.09821-0.51561 0-1.1049 0.07366-0.56472 0.07366-1.0558 0.31919-0.46651 0.22098-0.7857 0.63838-0.31919 0.39285-0.31919 1.0558 0 1.2276 0.7857 1.7187 0.78569 0.46651 2.1361 0.46651zm-0.19642-11.442q1.375 0 2.308 0.36829 0.95757 0.34374 1.5223 1.0067 0.58928 0.63838 0.8348 1.5468 0.24553 0.8839 0.24553 1.9642v7.9797q-0.29463 0.049106-0.8348 0.14732-0.51561 0.073659-1.1785 0.14732-0.66293 0.073659-1.4486 0.12276-0.76114 0.073659-1.5223 0.073659-1.0803 0-1.9888-0.22098-0.90846-0.22098-1.5714-0.68748-0.66293-0.49106-1.0312-1.2768-0.36829-0.78569-0.36829-1.8906 0-1.0558 0.4174-1.8169 0.44195-0.76114 1.1785-1.2276 0.73659-0.46651 1.7187-0.68748 0.98212-0.22098 2.0624-0.22098 0.34374 0 0.71203 0.04911 0.3683 0.02455 0.68749 0.09821 0.34374 0.04911 0.58927 0.09821 0.24553 0.04911 0.34374 0.07366v-0.63838q0-0.56472-0.12277-1.1049-0.12276-0.56472-0.44195-0.98212-0.31919-0.44195-0.88391-0.68748-0.54016-0.27008-1.4241-0.27008-1.1294 0-1.9888 0.17187-0.8348 0.14732-1.2522 0.31919l-0.27008-1.8906q0.44195-0.19642 1.4732-0.36829 1.0312-0.19642 2.2343-0.19642z"/>
    <path id="path4613" d="m422.58-6.5842q-2.1116-0.049106-2.9955-0.90846-0.88391-0.85935-0.88391-2.6763v-15.321l2.2834-0.39285v15.346q0 0.56472 0.0982 0.93301 0.0982 0.36829 0.31919 0.58927 0.22097 0.22098 0.58927 0.34374 0.36829 0.098212 0.90845 0.17187l-0.31918 1.9151z"/>
    <path id="path4615" d="m442.64-6.8297q-0.4174-1.1049-0.7857-2.1607-0.36829-1.0803-0.76114-2.1852h-7.7096l-1.5468 4.3459h-2.4798q0.98212-2.7008 1.8415-4.9842 0.85936-2.308 1.6696-4.3704 0.8348-2.0624 1.645-3.9285 0.81025-1.8906 1.6942-3.732h2.1852q0.88391 1.8415 1.6942 3.732 0.81025 1.866 1.6205 3.9285 0.8348 2.0624 1.6942 4.3704 0.85935 2.2834 1.8415 4.9842h-2.6026zm-2.2343-6.3101q-0.78569-2.1361-1.5714-4.1249-0.76114-2.0133-1.5959-3.8548-0.85935 1.8415-1.645 3.8548-0.76114 1.9888-1.5223 4.1249h6.3346z"/>
    <path id="path4617" d="m456.82-19.597q-0.95756 3.5847-2.2589 6.8748-1.2768 3.2901-2.4798 5.8927h-2.0624q-1.2031-2.6026-2.5044-5.8927-1.2768-3.2901-2.2343-6.8748h2.4553q0.29463 1.2031 0.68748 2.5781 0.4174 1.3504 0.85935 2.7008 0.46651 1.3259 0.93301 2.5781 0.46651 1.2522 0.88391 2.2343 0.4174-0.98212 0.8839-2.2343 0.46651-1.2522 0.90846-2.5781 0.46651-1.3504 0.85935-2.7008 0.4174-1.375 0.71204-2.5781h2.3571z"/>
    <path id="path4619" d="m458.13-13.189q0-1.6942 0.49106-2.9464 0.49106-1.2768 1.3013-2.1116 0.81025-0.8348 1.866-1.2522 1.0558-0.4174 2.1606-0.4174 2.5781 0 3.953 1.6205 1.375 1.5959 1.375 4.886 0 0.14732 0 0.39285 0 0.22098-0.0246 0.4174h-8.7408q0.14732 1.9888 1.154 3.02 1.0067 1.0312 3.1428 1.0312 1.2031 0 2.0133-0.19642 0.8348-0.22098 1.2522-0.4174l0.31919 1.9151q-0.4174 0.22098-1.4732 0.46651-1.0312 0.24553-2.3571 0.24553-1.6696 0-2.8972-0.49106-1.2031-0.51561-1.9888-1.3995-0.78569-0.88391-1.1785-2.087-0.36829-1.2276-0.36829-2.6763zm8.7654-1.2522q0.0246-1.5468-0.78569-2.529-0.78569-1.0067-2.1852-1.0067-0.78569 0-1.3995 0.31919-0.58927 0.29464-1.0067 0.78569-0.4174 0.49106-0.66293 1.1294-0.22097 0.63838-0.29463 1.3013h6.3346z"/>
    <path id="path4621" d="m472.55-19.229q0.7857-0.19642 2.087-0.4174 1.3013-0.22098 2.9955-0.22098 1.5223 0 2.529 0.44195 1.0067 0.4174 1.5959 1.2031 0.61382 0.76114 0.85935 1.8415t0.24553 2.3816v7.1695h-2.2834v-6.6784q0-1.1785-0.17187-2.0133-0.14732-0.8348-0.51561-1.3504-0.3683-0.51561-0.98212-0.73659-0.61382-0.24553-1.5223-0.24553-0.3683 0-0.76114 0.02455-0.39285 0.02455-0.76114 0.07366-0.34374 0.02455-0.63838 0.07366-0.27008 0.04911-0.39285 0.07366v10.779h-2.2834v-12.399z"/>
    <path id="path4623" d="m496.82-7.198q-0.78569 0.19642-2.087 0.4174-1.2768 0.22098-2.9709 0.22098-1.4732 0-2.4798-0.4174-1.0067-0.44195-1.6205-1.2276-0.61382-0.78569-0.8839-1.8415-0.27009-1.0803-0.27009-2.3816v-7.1695h2.2834v6.6784q0 2.3325 0.73658 3.3392 0.73659 1.0067 2.4798 1.0067 0.36829 0 0.76114-0.024553t0.73659-0.049106q0.34374-0.049106 0.61382-0.073659 0.29464-0.049106 0.4174-0.098212v-10.779h2.2834v12.399z"/>
    <path id="path4625" d="m500.04-13.189q0-1.6942 0.49106-2.9464 0.49106-1.2768 1.3013-2.1116 0.81024-0.8348 1.866-1.2522 1.0558-0.4174 2.1607-0.4174 2.578 0 3.953 1.6205 1.375 1.5959 1.375 4.886 0 0.14732 0 0.39285 0 0.22098-0.0245 0.4174h-8.7408q0.14731 1.9888 1.154 3.02 1.0067 1.0312 3.1428 1.0312 1.2031 0 2.0133-0.19642 0.8348-0.22098 1.2522-0.4174l0.31918 1.9151q-0.41739 0.22098-1.4732 0.46651-1.0312 0.24553-2.3571 0.24553-1.6696 0-2.8972-0.49106-1.2031-0.51561-1.9888-1.3995-0.7857-0.88391-1.1785-2.087-0.3683-1.2276-0.3683-2.6763zm8.7654-1.2522q0.0246-1.5468-0.7857-2.529-0.78569-1.0067-2.1852-1.0067-0.78569 0-1.3995 0.31919-0.58927 0.29464-1.0067 0.78569-0.4174 0.49106-0.66293 1.1294-0.22098 0.63838-0.29464 1.3013h6.3347z"/>
   </g>
   <g id="text7935" transform="matrix(.86216 -.49963 .49265 .87438 0 0)" style="opacity:.6">
    <path id="path4652" d="m259.7 269.15q3.5847 0 5.4998 1.375 1.9397 1.3504 1.9397 4.0512 0 1.4732-0.54017 2.529-0.51561 1.0312-1.5223 1.6942-0.98212 0.63838-2.4062 0.93301-1.4241 0.29464-3.2164 0.29464h-1.8906v6.3101h-2.3816v-16.77q1.0067-0.24553 2.2343-0.31919 1.2522-0.0982 2.2834-0.0982zm0.19642 2.087q-1.5223 0-2.3325 0.0737v6.6784h1.7924q1.2276 0 2.2098-0.14731 0.98212-0.17187 1.645-0.54017 0.68748-0.39284 1.0558-1.0558 0.3683-0.66293 0.3683-1.6942 0-0.98211-0.39285-1.6205-0.36829-0.63837-1.0312-1.0067-0.63838-0.39285-1.4977-0.54016-0.85935-0.14732-1.8169-0.14732z"/>
    <path id="path4654" d="m274.66 273.3q0.29463 0 0.66293 0.0491 0.39284 0.0246 0.76114 0.0982 0.36829 0.0491 0.66293 0.12277 0.31919 0.0491 0.4665 0.0982l-0.39284 1.9888q-0.27009-0.0982-0.90846-0.22098-0.61383-0.14732-1.5959-0.14732-0.63838 0-1.2768 0.14732-0.61383 0.12276-0.81025 0.17187v10.73h-2.2834v-12.227q0.81024-0.29463 2.0133-0.54016 1.2031-0.27008 2.7008-0.27008z"/>
    <path id="path4656" d="m278.73 279.98q0-1.6942 0.49106-2.9464 0.49106-1.2768 1.3013-2.1116 0.81025-0.8348 1.866-1.2522 1.0558-0.4174 2.1607-0.4174 2.5781 0 3.953 1.6205 1.375 1.5959 1.375 4.886 0 0.14732 0 0.39285 0 0.22098-0.0246 0.4174h-8.7408q0.14732 1.9888 1.154 3.02t3.1428 1.0312q1.2031 0 2.0133-0.19642 0.8348-0.22098 1.2522-0.4174l0.31919 1.9151q-0.4174 0.22098-1.4732 0.4665-1.0312 0.24553-2.3571 0.24553-1.6696 0-2.8972-0.49105-1.2031-0.51562-1.9888-1.3995-0.78569-0.88391-1.1785-2.087-0.36829-1.2276-0.36829-2.6763zm8.7654-1.2522q0.0246-1.5468-0.78569-2.529-0.78569-1.0067-2.1852-1.0067-0.78569 0-1.3995 0.31919-0.58927 0.29463-1.0067 0.78569t-0.66293 1.1294q-0.22097 0.63837-0.29463 1.3013h6.3346z"/>
    <path id="path4658" d="m298.71 286.64q-1.5468 0-2.7254-0.49105-1.154-0.49106-1.9642-1.375-0.78569-0.8839-1.1785-2.087-0.39284-1.2276-0.39284-2.7008 0-1.4732 0.4174-2.7008 0.44195-1.2276 1.2276-2.1116 0.7857-0.90846 1.9151-1.3995 1.154-0.51561 2.5535-0.51561 0.85935 0 1.7187 0.14732 0.85935 0.14731 1.645 0.4665l-0.51561 1.9397q-0.51562-0.24553-1.2031-0.39284-0.66293-0.14732-1.4241-0.14732-1.9151 0-2.9464 1.2031-1.0067 1.2031-1.0067 3.5111 0 1.0312 0.22098 1.8906 0.24553 0.85935 0.73659 1.4732 0.51561 0.61382 1.3013 0.95757 0.78569 0.31918 1.9151 0.31918 0.90846 0 1.645-0.17187 0.73659-0.17187 1.154-0.36829l0.31919 1.9151q-0.19642 0.12276-0.56472 0.24553-0.36829 0.0982-0.8348 0.17187-0.4665 0.0982-1.0067 0.14731-0.51561 0.0737-1.0067 0.0737z"/>
    <path id="path4660" d="m306.86 286.34h-2.2834v-12.768h2.2834v12.768zm-1.154-15.076q-0.61382 0-1.0558-0.39284-0.4174-0.4174-0.4174-1.1049 0-0.68748 0.4174-1.0803 0.44195-0.4174 1.0558-0.4174 0.61383 0 1.0312 0.4174 0.44195 0.39284 0.44195 1.0803 0 0.68749-0.44195 1.1049-0.4174 0.39284-1.0312 0.39284z"/>
    <path id="path4662" d="m313.78 284.7q1.3995 0 2.0624-0.36829 0.68748-0.3683 0.68748-1.1785 0-0.8348-0.66293-1.3259t-2.1852-1.1049q-0.73659-0.29464-1.4241-0.58927-0.66293-0.31919-1.154-0.73659t-0.78569-1.0067q-0.29464-0.58927-0.29464-1.4486 0-1.6942 1.2522-2.6763 1.2522-1.0067 3.4129-1.0067 0.54016 0 1.0803 0.0737 0.54016 0.0491 1.0067 0.14732 0.4665 0.0736 0.81024 0.17187 0.3683 0.0982 0.56472 0.17187l-0.4174 1.9642q-0.36829-0.19642-1.154-0.39285-0.78569-0.22097-1.8906-0.22097-0.95756 0-1.6696 0.39284-0.71203 0.3683-0.71203 1.1785 0 0.4174 0.14731 0.73659 0.17187 0.31919 0.49106 0.58927 0.34374 0.24553 0.8348 0.46651 0.49106 0.22097 1.1785 0.4665 0.90846 0.34374 1.6205 0.68749 0.71204 0.31918 1.2031 0.76114 0.51561 0.44195 0.78569 1.0803 0.27008 0.61382 0.27008 1.5223 0 1.7678-1.3258 2.6763-1.3013 0.90845-3.732 0.90845-1.6942 0-2.6517-0.29463-0.95757-0.27008-1.3013-0.4174l0.4174-1.9642q0.39285 0.14732 1.2522 0.44196 0.85935 0.29463 2.2834 0.29463z"/>
    <path id="path4664" d="m321.03 279.98q0-1.6942 0.49105-2.9464 0.49106-1.2768 1.3013-2.1116t1.866-1.2522q1.0558-0.4174 2.1607-0.4174 2.5781 0 3.953 1.6205 1.375 1.5959 1.375 4.886 0 0.14732 0 0.39285 0 0.22098-0.0246 0.4174h-8.7408q0.14732 1.9888 1.154 3.02t3.1428 1.0312q1.2031 0 2.0133-0.19642 0.8348-0.22098 1.2522-0.4174l0.31919 1.9151q-0.4174 0.22098-1.4732 0.4665-1.0312 0.24553-2.3571 0.24553-1.6696 0-2.8972-0.49105-1.2031-0.51562-1.9888-1.3995-0.78569-0.88391-1.1785-2.087-0.36829-1.2276-0.36829-2.6763zm8.7654-1.2522q0.0246-1.5468-0.78569-2.529-0.7857-1.0067-2.1852-1.0067-0.7857 0-1.3995 0.31919-0.58927 0.29463-1.0067 0.78569t-0.66293 1.1294q-0.22098 0.63837-0.29463 1.3013h6.3346z"/>
    <path id="path4667" d="m345.22 284.65q3.732 0 3.732-2.5535 0-0.78569-0.34374-1.3259-0.31919-0.56471-0.88391-0.95756-0.56471-0.4174-1.3013-0.71203-0.71204-0.29464-1.5223-0.58927-0.93302-0.31919-1.7678-0.71204-0.8348-0.4174-1.4486-0.95756-0.61382-0.56472-0.98211-1.3259-0.34375-0.76114-0.34375-1.8415 0-2.2343 1.5223-3.4865 1.5223-1.2522 4.1986-1.2522 1.5468 0 2.799 0.34375 1.2768 0.31918 1.866 0.71203l-0.76114 1.9397q-0.51561-0.31919-1.5468-0.61382-1.0067-0.31919-2.3571-0.31919-0.68749 0-1.2768 0.14732t-1.0312 0.44195q-0.44195 0.29464-0.71203 0.76114-0.24553 0.44195-0.24553 1.0558 0 0.68748 0.27008 1.154 0.27008 0.46651 0.76114 0.8348 0.49106 0.34374 1.1294 0.63838 0.66293 0.29463 1.4486 0.58927 1.1049 0.44195 2.0133 0.88391 0.93301 0.44195 1.5959 1.0558 0.68748 0.61382 1.0558 1.4732 0.3683 0.8348 0.3683 2.0379 0 2.2343-1.645 3.4374-1.6205 1.2031-4.5914 1.2031-1.0067 0-1.866-0.14732-0.8348-0.12276-1.4977-0.29463-0.66293-0.19642-1.154-0.39285-0.46651-0.22097-0.73659-0.36829l0.71203-1.9642q0.56472 0.31919 1.7187 0.71204t2.8236 0.39285z"/>
    <path id="path4669" d="m356.3 273.57h4.8369v1.9151h-4.8369v5.8927q0 0.95756 0.14732 1.5959 0.14731 0.61382 0.44195 0.98211 0.29463 0.34375 0.73659 0.49106 0.44195 0.14732 1.0312 0.14732 1.0312 0 1.645-0.22098 0.63837-0.24552 0.8839-0.34374l0.44195 1.8906q-0.34374 0.17187-1.2031 0.4174-0.85935 0.27008-1.9642 0.27008-1.3013 0-2.1607-0.31919-0.8348-0.34374-1.3504-1.0067t-0.73659-1.6205q-0.19642-0.98212-0.19642-2.2589v-11.393l2.2834-0.39284v3.953z"/>
    <path id="path4671" d="m368.75 273.3q0.29464 0 0.66293 0.0491 0.39285 0.0246 0.76114 0.0982 0.3683 0.0491 0.66293 0.12277 0.31919 0.0491 0.46651 0.0982l-0.39285 1.9888q-0.27008-0.0982-0.90846-0.22098-0.61382-0.14732-1.5959-0.14732-0.63838 0-1.2768 0.14732-0.61382 0.12276-0.81025 0.17187v10.73h-2.2834v-12.227q0.81025-0.29463 2.0133-0.54016 1.2031-0.27008 2.7008-0.27008z"/>
    <path id="path4673" d="m372.82 279.98q0-1.6942 0.49106-2.9464 0.49106-1.2768 1.3013-2.1116 0.81024-0.8348 1.866-1.2522t2.1607-0.4174q2.578 0 3.953 1.6205 1.375 1.5959 1.375 4.886 0 0.14732 0 0.39285 0 0.22098-0.0245 0.4174h-8.7408q0.14732 1.9888 1.154 3.02t3.1428 1.0312q1.2031 0 2.0133-0.19642 0.8348-0.22098 1.2522-0.4174l0.31919 1.9151q-0.4174 0.22098-1.4732 0.4665-1.0312 0.24553-2.3571 0.24553-1.6696 0-2.8972-0.49105-1.2031-0.51562-1.9888-1.3995-0.78569-0.88391-1.1785-2.087-0.3683-1.2276-0.3683-2.6763zm8.7654-1.2522q0.0245-1.5468-0.78569-2.529-0.7857-1.0067-2.1852-1.0067-0.78569 0-1.3995 0.31919-0.58927 0.29463-1.0067 0.78569t-0.66293 1.1294q-0.22098 0.63837-0.29464 1.3013h6.3347z"/>
    <path id="path4675" d="m386.54 279.98q0-1.6942 0.49105-2.9464 0.49106-1.2768 1.3013-2.1116t1.866-1.2522q1.0558-0.4174 2.1607-0.4174 2.5781 0 3.953 1.6205 1.375 1.5959 1.375 4.886 0 0.14732 0 0.39285 0 0.22098-0.0246 0.4174h-8.7408q0.14732 1.9888 1.154 3.02t3.1428 1.0312q1.2031 0 2.0133-0.19642 0.8348-0.22098 1.2522-0.4174l0.31919 1.9151q-0.4174 0.22098-1.4732 0.4665-1.0312 0.24553-2.3571 0.24553-1.6696 0-2.8972-0.49105-1.2031-0.51562-1.9888-1.3995-0.78569-0.88391-1.1785-2.087-0.36829-1.2276-0.36829-2.6763zm8.7654-1.2522q0.0246-1.5468-0.78569-2.529-0.7857-1.0067-2.1852-1.0067-0.7857 0-1.3995 0.31919-0.58927 0.29463-1.0067 0.78569t-0.66293 1.1294q-0.22098 0.63837-0.29464 1.3013h6.3347z"/>
    <path id="path4677" d="m403.1 273.57h4.8369v1.9151h-4.8369v5.8927q0 0.95756 0.14732 1.5959 0.14731 0.61382 0.44195 0.98211 0.29463 0.34375 0.73659 0.49106 0.44195 0.14732 1.0312 0.14732 1.0312 0 1.645-0.22098 0.63838-0.24552 0.88391-0.34374l0.44195 1.8906q-0.34374 0.17187-1.2031 0.4174-0.85935 0.27008-1.9642 0.27008-1.3013 0-2.1607-0.31919-0.8348-0.34374-1.3504-1.0067t-0.73659-1.6205q-0.19642-0.98212-0.19642-2.2589v-11.393l2.2834-0.39284v3.953z"/>
   </g>
   <g id="text7939" transform="matrix(.83508 -.5437 .53734 .84764 0 0)" style="opacity:.6">
    <path id="path4580" d="m-156.48 348.69v-9.6207h5.803v1.1523h-4.4564v2.9015h3.9566v1.1384h-3.9566v4.4286h-1.3466z"/>
    <path id="path4582" d="m-149.7 345.1q0-0.95791 0.27765-1.6659 0.27766-0.7219 0.73579-1.1939 0.45813-0.47201 1.0551-0.70801 0.59696-0.23601 1.2217-0.23601 1.4577 0 2.2351 0.91626 0.77743 0.90237 0.77743 2.7627 0 0.0833 0 0.22212 0 0.12494-0.0139 0.236h-4.9422q0.0833 1.1245 0.65249 1.7076 0.56919 0.58307 1.777 0.58307 0.68026 0 1.1384-0.11106 0.47202-0.12495 0.70802-0.23601l0.18048 1.0828q-0.23601 0.12495-0.83296 0.26377-0.58308 0.13883-1.3327 0.13883-0.94403 0-1.6382-0.27765-0.68025-0.29154-1.1245-0.79132-0.44425-0.49977-0.66637-1.18-0.20824-0.69413-0.20824-1.5132zm4.9561-0.70802q0.0139-0.87461-0.44424-1.4299-0.44425-0.56919-1.2356-0.56919-0.44425 0-0.79132 0.18048-0.33318 0.16659-0.56919 0.44425-0.236 0.27765-0.37483 0.6386-0.12494 0.36095-0.16659 0.73578h3.5817z"/>
    <path id="path4584" d="m-140.25 348.69h-1.2911v-7.219h1.2911v7.219zm-0.65249-8.524q-0.34707 0-0.59696-0.22212-0.236-0.23601-0.236-0.62472 0-0.38872 0.236-0.61084 0.24989-0.23601 0.59696-0.23601t0.58307 0.23601q0.24989 0.22212 0.24989 0.61084 0 0.38871-0.24989 0.62472-0.236 0.22212-0.58307 0.22212z"/>
    <path id="path4586" d="m-136.34 347.76q0.79131 0 1.1661-0.20824 0.38872-0.20824 0.38872-0.66637 0-0.47201-0.37483-0.74967-0.37484-0.27765-1.2356-0.62472-0.41648-0.16659-0.8052-0.33318-0.37483-0.18048-0.65249-0.41648-0.27765-0.23601-0.44424-0.5692-0.1666-0.33318-0.1666-0.81907 0-0.95791 0.70802-1.5132 0.70802-0.56919 1.9297-0.56919 0.30542 0 0.61084 0.0417 0.30542 0.0278 0.56919 0.0833 0.26377 0.0416 0.45813 0.0972 0.20824 0.0555 0.3193 0.0972l-0.23601 1.1106q-0.20824-0.11106-0.65249-0.22212-0.44424-0.12495-1.069-0.12495-0.54143 0-0.94403 0.22212-0.40259 0.20825-0.40259 0.66637 0 0.23601 0.0833 0.41649 0.0972 0.18047 0.27766 0.33318 0.19435 0.13883 0.47201 0.26377 0.27765 0.12495 0.66637 0.26377 0.51366 0.19436 0.91625 0.38872 0.4026 0.18047 0.68026 0.43036 0.29153 0.24989 0.44424 0.61084 0.15271 0.34707 0.15271 0.86073 0 0.99955-0.74966 1.5132-0.73579 0.51366-2.1102 0.51366-0.95791 0-1.4993-0.16659-0.54143-0.15271-0.73579-0.23601l0.23601-1.1106q0.22212 0.0833 0.70802 0.24989 0.48589 0.16659 1.2911 0.16659z"/>
    <path id="path4588" d="m-130.63 341.47h2.7349v1.0828h-2.7349v3.3318q0 0.54143 0.0833 0.90238 0.0833 0.34707 0.24989 0.55531 0.16659 0.19436 0.41648 0.27765 0.24989 0.0833 0.58307 0.0833 0.58308 0 0.93014-0.12495 0.36095-0.13882 0.49978-0.19435l0.24989 1.069q-0.19436 0.0972-0.68025 0.23601-0.4859 0.15271-1.1106 0.15271-0.73578 0-1.2217-0.18048-0.47201-0.19435-0.76354-0.56919-0.29154-0.37483-0.41649-0.91626-0.11106-0.5553-0.11106-1.2772v-6.4416l1.2911-0.22212v2.2351z"/>
    <path id="path4590" d="m-127.1 350.04q0.15271 0.0694 0.38872 0.12495 0.24989 0.0694 0.48589 0.0694 0.76355 0 1.1939-0.34707 0.43037-0.33318 0.77743-1.0967-0.87461-1.6659-1.6382-3.5262-0.74967-1.8742-1.2494-3.79h1.3883q0.15271 0.62472 0.36095 1.3466 0.22213 0.7219 0.4859 1.4854 0.26377 0.76354 0.56919 1.5271t0.6386 1.4716q0.52755-1.4577 0.91626-2.8876 0.38872-1.4299 0.73578-2.9431h1.3327q-0.49977 2.0408-1.1106 3.9288-0.61084 1.8742-1.3189 3.5123-0.27765 0.62472-0.58307 1.069-0.29154 0.45813-0.65249 0.74967-0.36095 0.29153-0.81908 0.43036-0.44425 0.13883-1.0134 0.13883-0.15271 0-0.3193-0.0278-0.16659-0.0139-0.33318-0.0555-0.15271-0.0278-0.29154-0.0694-0.12494-0.0417-0.18047-0.0694l0.236-1.0412z"/>
    <path id="path4592" d="m-111.38 344.67q0.22212 0.27765 0.5553 0.73578 0.34707 0.44425 0.70802 0.99955 0.36095 0.54143 0.70802 1.1384 0.36095 0.59695 0.61084 1.1523h-1.4716q-0.27765-0.52754-0.61084-1.069-0.3193-0.54142-0.65248-1.0273-0.33319-0.49978-0.66637-0.93014-0.31931-0.43036-0.58308-0.74966-0.18047 0.0139-0.37483 0.0139-0.18047 0-0.37483 0h-1.2078v3.7622h-1.3466v-9.4819q0.56919-0.13883 1.2633-0.18048 0.70801-0.0555 1.2911-0.0555 2.0269 0 3.082 0.76355 1.069 0.76355 1.069 2.2768 0 0.95791-0.51366 1.6382-0.49977 0.68025-1.4854 1.0134zm-2.0408-4.5119q-0.86073 0-1.3189 0.0417v3.6234h0.95791q0.69413 0 1.2494-0.0694t0.93014-0.26377q0.38872-0.19436 0.59696-0.54143 0.20824-0.36095 0.20824-0.94402 0-0.54143-0.20824-0.90238t-0.56919-0.56919q-0.34707-0.20824-0.83296-0.29153-0.47202-0.0833-1.0134-0.0833z"/>
    <path id="path4594" d="m-101.06 345.08q0 0.86072-0.24989 1.5549-0.24989 0.69413-0.70802 1.1939-0.44424 0.49978-1.069 0.77743-0.62472 0.26377-1.3605 0.26377t-1.3605-0.26377q-0.62473-0.27765-1.0828-0.77743-0.44425-0.49978-0.69414-1.1939-0.24989-0.69414-0.24989-1.5549 0-0.84685 0.24989-1.541 0.24989-0.70802 0.69414-1.2078 0.45812-0.49977 1.0828-0.76355 0.62472-0.27765 1.3605-0.27765t1.3605 0.27765q0.62473 0.26378 1.069 0.76355 0.45813 0.49978 0.70802 1.2078 0.24989 0.69413 0.24989 1.541zm-1.3466 0q0-1.2217-0.55531-1.9297-0.54143-0.7219-1.4854-0.7219t-1.4993 0.7219q-0.54143 0.70802-0.54143 1.9297 0 1.2217 0.54143 1.9436 0.55531 0.70801 1.4993 0.70801t1.4854-0.70801q0.55531-0.72191 0.55531-1.9436z"/>
    <path id="path4596" d="m-96.803 347.76q0.45813 0 0.8052-0.0139 0.36095-0.0278 0.59696-0.0833v-2.1518q-0.13883-0.0694-0.45813-0.11106-0.30542-0.0555-0.74967-0.0555-0.29154 0-0.62472 0.0417-0.3193 0.0416-0.59696 0.18047-0.26377 0.12495-0.44425 0.36095-0.18048 0.22213-0.18048 0.59696 0 0.69413 0.44425 0.97179 0.44425 0.26377 1.2078 0.26377zm-0.11106-6.4693q0.77743 0 1.305 0.20824 0.54142 0.19436 0.86073 0.56919 0.33318 0.36095 0.47201 0.87461 0.13883 0.49978 0.13883 1.1106v4.5119q-0.16659 0.0278-0.47201 0.0833-0.29154 0.0417-0.66637 0.0833-0.37483 0.0417-0.81908 0.0694-0.43036 0.0417-0.86073 0.0417-0.61084 0-1.1245-0.12495-0.51366-0.12494-0.88849-0.38871-0.37483-0.27766-0.58307-0.7219-0.20824-0.44425-0.20824-1.069 0-0.59696 0.23601-1.0273 0.24989-0.43036 0.66637-0.69413t0.97179-0.38872q0.55531-0.12494 1.1661-0.12494 0.19436 0 0.4026 0.0278 0.20824 0.0139 0.38872 0.0555 0.19436 0.0278 0.33318 0.0555 0.13883 0.0278 0.19436 0.0417v-0.36095q0-0.3193-0.06941-0.62472-0.06941-0.3193-0.24989-0.55531-0.18048-0.24989-0.49978-0.38871-0.30542-0.15271-0.8052-0.15271-0.6386 0-1.1245 0.0972-0.47201 0.0833-0.70802 0.18047l-0.15271-1.069q0.24989-0.11106 0.83296-0.20824 0.58307-0.11106 1.2633-0.11106z"/>
    <path id="path4598" d="m-87.342 343q-0.23601-0.19435-0.68025-0.37483t-0.97179-0.18048q-0.55531 0-0.95791 0.20825-0.38872 0.19435-0.6386 0.5553-0.24989 0.34707-0.36095 0.83297-0.11106 0.48589-0.11106 1.0412 0 1.2633 0.62472 1.9575 0.62472 0.68025 1.6659 0.68025 0.52754 0 0.87461-0.0417 0.36095-0.0555 0.55531-0.11106v-4.5674zm0-4.8589 1.2911-0.22212v10.565q-0.44425 0.12494-1.1384 0.24989-0.69414 0.12494-1.5965 0.12494-0.83296 0-1.4993-0.26377-0.66637-0.26377-1.1384-0.74967-0.47201-0.48589-0.73578-1.18-0.24989-0.70802-0.24989-1.5826 0-0.83296 0.20824-1.5271 0.22212-0.69413 0.6386-1.1939t1.0134-0.77743q0.61084-0.27766 1.3883-0.27766 0.62472 0 1.0967 0.1666 0.48589 0.16659 0.7219 0.3193v-3.6512z"/>
   </g>
   <g id="text7943" transform="matrix(.8681 -.48894 .4821 .8804 0 0)" style="opacity:.6">
    <path id="path4552" d="m-109.41 236.66q3.5847 0 5.4999 1.375 1.9397 1.3504 1.9397 4.0512 0 1.4732-0.54017 2.529-0.51561 1.0312-1.5223 1.6942-0.98212 0.63837-2.4062 0.93301-1.4241 0.29463-3.2164 0.29463h-1.8906v6.3101h-2.3816v-16.77q1.0067-0.24553 2.2343-0.31919 1.2522-0.0982 2.2834-0.0982zm0.19642 2.087q-1.5223 0-2.3325 0.0736v6.6784h1.7924q1.2276 0 2.2098-0.14732 0.98212-0.17187 1.645-0.54016 0.68748-0.39285 1.0558-1.0558 0.36829-0.66293 0.36829-1.6942 0-0.98212-0.39285-1.6205-0.36829-0.63838-1.0312-1.0067-0.63838-0.39285-1.4977-0.54017-0.85935-0.14731-1.8169-0.14731z"/>
    <path id="path4554" d="m-94.443 240.81q0.29464 0 0.66293 0.0491 0.39285 0.0246 0.76114 0.0982 0.36829 0.0491 0.66293 0.12276 0.31919 0.0491 0.4665 0.0982l-0.39285 1.9888q-0.27008-0.0982-0.90846-0.22097-0.61382-0.14732-1.5959-0.14732-0.63838 0-1.2768 0.14732-0.61382 0.12276-0.81025 0.17187v10.73h-2.2834v-12.227q0.81025-0.29464 2.0133-0.54017 1.2031-0.27008 2.7008-0.27008z"/>
    <path id="path4556" d="m-90.375 247.48q0-1.6942 0.49106-2.9464 0.49106-1.2768 1.3013-2.1116 0.81025-0.83479 1.866-1.2522t2.1607-0.4174q2.5781 0 3.953 1.6205 1.375 1.5959 1.375 4.886 0 0.14732 0 0.39285 0 0.22097-0.02455 0.4174h-8.7408q0.14732 1.9888 1.154 3.02t3.1428 1.0312q1.2031 0 2.0133-0.19642 0.8348-0.22098 1.2522-0.4174l0.31919 1.9151q-0.4174 0.22097-1.4732 0.4665-1.0312 0.24553-2.3571 0.24553-1.6696 0-2.8972-0.49106-1.2031-0.51561-1.9888-1.3995-0.78569-0.88391-1.1785-2.087-0.36829-1.2276-0.36829-2.6763zm8.7654-1.2522q0.02455-1.5468-0.78569-2.529-0.78569-1.0067-2.1852-1.0067-0.78569 0-1.3995 0.31918-0.58927 0.29464-1.0067 0.7857t-0.66293 1.1294q-0.22098 0.63838-0.29464 1.3013h6.3347z"/>
    <path id="path4558" d="m-70.398 254.14q-1.5468 0-2.7254-0.49106-1.154-0.49106-1.9642-1.375-0.78569-0.88391-1.1785-2.087-0.39285-1.2276-0.39285-2.7008 0-1.4732 0.4174-2.7008 0.44195-1.2276 1.2276-2.1116 0.78569-0.90845 1.9151-1.3995 1.154-0.51561 2.5535-0.51561 0.85935 0 1.7187 0.14731 0.85935 0.14732 1.645 0.46651l-0.51561 1.9397q-0.51561-0.24553-1.2031-0.39285-0.66293-0.14731-1.4241-0.14731-1.9151 0-2.9464 1.2031-1.0067 1.2031-1.0067 3.5111 0 1.0312 0.22098 1.8906 0.24553 0.85936 0.73659 1.4732 0.51561 0.61382 1.3013 0.95756 0.78569 0.31919 1.9151 0.31919 0.90846 0 1.645-0.17187 0.73659-0.17187 1.154-0.36829l0.31919 1.9151q-0.19642 0.12277-0.56472 0.24553-0.36829 0.0982-0.8348 0.17187-0.4665 0.0982-1.0067 0.14732-0.51561 0.0737-1.0067 0.0737z"/>
    <path id="path4560" d="m-62.251 253.84h-2.2834v-12.768h2.2834v12.768zm-1.154-15.076q-0.61382 0-1.0558-0.39285-0.4174-0.4174-0.4174-1.1049t0.4174-1.0803q0.44195-0.4174 1.0558-0.4174t1.0312 0.4174q0.44195 0.39285 0.44195 1.0803t-0.44195 1.1049q-0.4174 0.39285-1.0312 0.39285z"/>
    <path id="path4562" d="m-55.329 252.2q1.3995 0 2.0624-0.36829 0.68748-0.3683 0.68748-1.1785 0-0.8348-0.66293-1.3259t-2.1852-1.1049q-0.73659-0.29464-1.4241-0.58927-0.66293-0.31919-1.154-0.73659t-0.78569-1.0067-0.29464-1.4486q0-1.6942 1.2522-2.6763 1.2522-1.0067 3.4129-1.0067 0.54016 0 1.0803 0.0736 0.54016 0.0491 1.0067 0.14732 0.46651 0.0737 0.81025 0.17187 0.36829 0.0982 0.56472 0.17187l-0.4174 1.9642q-0.36829-0.19643-1.154-0.39285-0.78569-0.22098-1.8906-0.22098-0.95756 0-1.6696 0.39285-0.71204 0.36829-0.71204 1.1785 0 0.4174 0.14732 0.73659 0.17187 0.31919 0.49106 0.58927 0.34374 0.24553 0.8348 0.4665 0.49106 0.22098 1.1785 0.46651 0.90846 0.34374 1.6205 0.68748 0.71204 0.31919 1.2031 0.76114 0.51561 0.44196 0.78569 1.0803 0.27008 0.61383 0.27008 1.5223 0 1.7678-1.3259 2.6763-1.3013 0.90846-3.732 0.90846-1.6942 0-2.6517-0.29463-0.95756-0.27009-1.3013-0.4174l0.4174-1.9642q0.39285 0.14732 1.2522 0.44195 0.85935 0.29464 2.2834 0.29464z"/>
    <path id="path4564" d="m-48.078 247.48q0-1.6942 0.49106-2.9464 0.49106-1.2768 1.3013-2.1116 0.81025-0.83479 1.866-1.2522 1.0558-0.4174 2.1607-0.4174 2.5781 0 3.953 1.6205 1.375 1.5959 1.375 4.886 0 0.14732 0 0.39285 0 0.22097-0.02455 0.4174h-8.7408q0.14732 1.9888 1.154 3.02t3.1428 1.0312q1.2031 0 2.0133-0.19642 0.8348-0.22098 1.2522-0.4174l0.31919 1.9151q-0.4174 0.22097-1.4732 0.4665-1.0312 0.24553-2.3571 0.24553-1.6696 0-2.8972-0.49106-1.2031-0.51561-1.9888-1.3995-0.78569-0.88391-1.1785-2.087-0.36829-1.2276-0.36829-2.6763zm8.7654-1.2522q0.02455-1.5468-0.78569-2.529-0.78569-1.0067-2.1852-1.0067-0.78569 0-1.3995 0.31918-0.58927 0.29464-1.0067 0.7857-0.4174 0.49106-0.66293 1.1294-0.22098 0.63838-0.29464 1.3013h6.3347z"/>
    <path id="path4566" d="m-23.892 252.15q3.732 0 3.732-2.5535 0-0.78569-0.34374-1.3259-0.31919-0.56472-0.88391-0.95756-0.56472-0.4174-1.3013-0.71204-0.71204-0.29463-1.5223-0.58927-0.93301-0.31919-1.7678-0.71203-0.8348-0.4174-1.4486-0.95757-0.61382-0.56471-0.98212-1.3259-0.34374-0.76114-0.34374-1.8415 0-2.2343 1.5223-3.4865 1.5223-1.2522 4.1986-1.2522 1.5468 0 2.799 0.34374 1.2768 0.31919 1.866 0.71204l-0.76114 1.9397q-0.51561-0.31919-1.5468-0.61383-1.0067-0.31918-2.3571-0.31918-0.68748 0-1.2768 0.14731-0.58927 0.14732-1.0312 0.44196-0.44195 0.29463-0.71204 0.76114-0.24553 0.44195-0.24553 1.0558 0 0.68749 0.27008 1.154 0.27008 0.46651 0.76114 0.8348 0.49106 0.34374 1.1294 0.63838 0.66293 0.29463 1.4486 0.58927 1.1049 0.44195 2.0133 0.8839 0.93301 0.44195 1.5959 1.0558 0.68748 0.61382 1.0558 1.4732 0.36829 0.8348 0.36829 2.0379 0 2.2343-1.645 3.4374-1.6205 1.2031-4.5914 1.2031-1.0067 0-1.866-0.14732-0.8348-0.12276-1.4977-0.29463-0.66293-0.19643-1.154-0.39285-0.46651-0.22098-0.73659-0.36829l0.71204-1.9642q0.56472 0.31919 1.7187 0.71204 1.154 0.39284 2.8236 0.39284z"/>
    <path id="path4568" d="m-12.813 241.08h4.8369v1.9151h-4.8369v5.8927q0 0.95757 0.14732 1.5959 0.14732 0.61383 0.44195 0.98212 0.29464 0.34374 0.73659 0.49106t1.0312 0.14732q1.0312 0 1.645-0.22098 0.63838-0.24553 0.88391-0.34374l0.44195 1.8906q-0.34374 0.17187-1.2031 0.4174-0.85935 0.27008-1.9642 0.27008-1.3013 0-2.1607-0.31919-0.8348-0.34374-1.3504-1.0067-0.51561-0.66293-0.73659-1.6205-0.19642-0.98212-0.19642-2.2589v-11.393l2.2834-0.39285v3.953z"/>
    <path id="path4570" d="m-0.35582 240.81q0.29464 0 0.66293 0.0491 0.39285 0.0246 0.76114 0.0982 0.36829 0.0491 0.66293 0.12276 0.31919 0.0491 0.46651 0.0982l-0.39285 1.9888q-0.27008-0.0982-0.90846-0.22097-0.61382-0.14732-1.5959-0.14732-0.63838 0-1.2768 0.14732-0.61382 0.12276-0.81025 0.17187v10.73h-2.2834v-12.227q0.81025-0.29464 2.0133-0.54017 1.2031-0.27008 2.7008-0.27008z"/>
    <path id="path4572" d="m3.7131 247.48q0-1.6942 0.49106-2.9464 0.49106-1.2768 1.3013-2.1116 0.81025-0.83479 1.866-1.2522 1.0558-0.4174 2.1607-0.4174 2.5781 0 3.953 1.6205 1.375 1.5959 1.375 4.886 0 0.14732 0 0.39285 0 0.22097-0.02455 0.4174h-8.7408q0.14732 1.9888 1.154 3.02 1.0067 1.0312 3.1428 1.0312 1.2031 0 2.0133-0.19642 0.8348-0.22098 1.2522-0.4174l0.31919 1.9151q-0.4174 0.22097-1.4732 0.4665-1.0312 0.24553-2.3571 0.24553-1.6696 0-2.8972-0.49106-1.2031-0.51561-1.9888-1.3995-0.78569-0.88391-1.1785-2.087-0.36829-1.2276-0.36829-2.6763zm8.7654-1.2522q0.02455-1.5468-0.78569-2.529-0.78569-1.0067-2.1852-1.0067-0.78569 0-1.3995 0.31918-0.58927 0.29464-1.0067 0.7857-0.4174 0.49106-0.66293 1.1294-0.22098 0.63838-0.29464 1.3013h6.3347z"/>
    <path id="path4574" d="m17.428 247.48q0-1.6942 0.49106-2.9464 0.49106-1.2768 1.3013-2.1116 0.81025-0.83479 1.866-1.2522 1.0558-0.4174 2.1607-0.4174 2.5781 0 3.953 1.6205 1.375 1.5959 1.375 4.886 0 0.14732 0 0.39285 0 0.22097-0.02455 0.4174h-8.7408q0.14732 1.9888 1.154 3.02t3.1428 1.0312q1.2031 0 2.0133-0.19642 0.8348-0.22098 1.2522-0.4174l0.31919 1.9151q-0.4174 0.22097-1.4732 0.4665-1.0312 0.24553-2.3571 0.24553-1.6696 0-2.8972-0.49106-1.2031-0.51561-1.9888-1.3995-0.78569-0.88391-1.1785-2.087-0.36829-1.2276-0.36829-2.6763zm8.7654-1.2522q0.02455-1.5468-0.78569-2.529-0.78569-1.0067-2.1852-1.0067-0.78569 0-1.3995 0.31918-0.58927 0.29464-1.0067 0.7857t-0.66293 1.1294q-0.22098 0.63838-0.29464 1.3013h6.3347z"/>
    <path id="path4576" d="m33.991 241.08h4.8369v1.9151h-4.8369v5.8927q0 0.95757 0.14732 1.5959 0.14732 0.61383 0.44195 0.98212 0.29464 0.34374 0.73659 0.49106t1.0312 0.14732q1.0312 0 1.645-0.22098 0.63838-0.24553 0.8839-0.34374l0.44195 1.8906q-0.34374 0.17187-1.2031 0.4174-0.85935 0.27008-1.9642 0.27008-1.3013 0-2.1607-0.31919-0.8348-0.34374-1.3504-1.0067-0.51561-0.66293-0.73659-1.6205-0.19642-0.98212-0.19642-2.2589v-11.393l2.2834-0.39285v3.953z"/>
   </g>
   <path id="path3967" d="m120 305.36-26.271-35.887 32.436-18.487 25.467 34.799z" style="fill:#fff"/>
   <path id="path3311" d="m92.444 265.86c-2.9323 1.6994-3.6629 5.4233-1.6196 8.3515 0 0 22.578 32.355 22.578 32.355 2.127 3.0481 6.2169 4.0203 9.1511 2.1781l30.92-19.412c2.7779-1.744 3.2888-5.4884 1.1632-8.394l-22.578-30.862c-2.0446-2.7948-5.9147-3.7465-8.6944-2.1356l-30.92 17.919m16.753-2.4022 5.1529-3.0161c1.4199-0.83108 3.3856-0.35167 4.4118 1.0756 0.0203 0.0284 0.0389 0.0526 0.0579 0.0806 4.5694-2.0935 10.526-0.4771 13.733 3.9453 0 0 3.5202 4.8532 3.5202 4.8532 0.37728 0.52016 0.69124 1.0907 0.96106 1.638 0.18875 0.16909 0.41674 0.26145 0.57051 0.47344l3.7858 5.2194c1.0527 1.4513 0.77474 3.3147-0.62765 4.1776l1.9073 2.6371c1.0591 1.4644 0.78179 3.3481-0.62626 4.2233-1.4113 0.87712-3.4038 0.39704-4.463-1.076l-1.9075-2.6527-10.306 6.3415s1.9077 2.6845 1.9077 2.6845c1.0594 1.4908 0.75371 3.4136-0.68994 4.3108-1.447 0.89936-3.4686 0.41568-4.5279-1.0841l-1.9077-2.7007c-1.4531 0.89409-3.4743 0.40985-4.5272-1.0852 0 0-3.7863-5.3765-3.7863-5.3765-0.1537-0.21847-0.15345-0.4538-0.2483-0.68559-0.45024-0.45284-0.90595-0.95349-1.2833-1.4892 0 0-3.52-4.9984-3.52-4.9984-3.2072-4.5542-2.3372-10.296 1.7295-13.292-0.021-0.0284-0.0379-0.0529-0.0579-0.0813-1.0261-1.4439-0.69339-3.2821 0.74144-4.1219m1.9263 6.2548c-3.3552 1.9835-4.1242 6.2596-1.7143 9.6713l3.1672 4.4839 20.614-12.432s-3.1674-4.3794-3.1674-4.3794c-2.4101-3.3324-6.9125-4.43-10.204-2.4841l-1.7616 1.0414-5.1531 3.0463-1.7812 1.053m5.9518 15.239c-1.4425 0.87434-1.7687 2.7817-0.72399 4.2607 1.0465 1.4815 3.0679 1.9668 4.5104 1.0837 1.4392-0.88113 1.7538-2.7896 0.70737-4.2622-1.0447-1.4702-3.0546-1.9545-4.4938-1.0822m15.46-9.3708c-1.4071 0.85289-1.7046 2.7217-0.65991 4.1746 1.0464 1.4553 3.039 1.937 4.4461 1.0755 1.4039-0.85946 1.6901-2.7294 0.64376-4.1761-1.0446-1.4443-3.026-1.925-4.4299-1.074" style="color:#000000;fill:#4785e2"/>
   <g id="text3547" transform="matrix(.58626 .8139 -.80153 .59297 0 0)" style="opacity:.6">
    <path id="path4525" d="m26.337 4.9741q0-2.1852 0.63838-3.8548 0.66293-1.6696 1.7678-2.7745 1.1294-1.1294 2.6026-1.6942 1.4977-0.56472 3.1673-0.56472 1.645 0 3.0937 0.56472 1.4732 0.56472 2.5781 1.6942 1.1049 1.1049 1.7433 2.7745 0.66293 1.6696 0.66293 3.8548 0 1.9151-0.49106 3.4129-0.49106 1.4977-1.375 2.6026-0.85935 1.0803-2.0379 1.7678-1.154 0.66293-2.4798 0.90846 0.02455 0.56472 0.49106 0.98212 0.49106 0.44195 1.2276 0.73659t1.645 0.49106q0.90846 0.19642 1.8169 0.29464l-0.56472 1.866q-1.2768-0.17187-2.4553-0.46651-1.154-0.27008-2.1116-0.73659-0.93301-0.4665-1.5714-1.2031-0.63838-0.71204-0.85935-1.7924-1.5468-0.098211-2.9218-0.71204-1.375-0.63838-2.3816-1.7433-1.0067-1.1294-1.5959-2.7254-0.58927-1.5959-0.58927-3.6829zm2.5044 0q0 1.5468 0.39285 2.8236 0.39285 1.2522 1.1049 2.1361 0.73659 0.88391 1.7678 1.375 1.0558 0.4665 2.3571 0.4665t2.3325-0.4665q1.0312-0.49106 1.7433-1.375 0.73659-0.88391 1.1294-2.1361 0.39285-1.2768 0.39285-2.8236t-0.39285-2.799q-0.39285-1.2768-1.1294-2.1607-0.71204-0.88391-1.7433-1.3504-1.0312-0.49106-2.3325-0.49106t-2.3571 0.49106q-1.0312 0.46651-1.7678 1.3504-0.71204 0.88391-1.1049 2.1607-0.39285 1.2522-0.39285 2.799z"/>
    <path id="path4527" d="m56.128 13.126q-0.78569 0.19642-2.087 0.4174-1.2768 0.22098-2.9709 0.22098-1.4732 0-2.4798-0.4174-1.0067-0.44195-1.6205-1.2276-0.61382-0.78569-0.8839-1.8415-0.27008-1.0803-0.27008-2.3816v-7.1695h2.2834v6.6784q0 2.3325 0.73659 3.3392 0.73659 1.0067 2.4798 1.0067 0.36829 0 0.76114-0.02455t0.73659-0.04911q0.34374-0.04911 0.61382-0.07366 0.29464-0.04911 0.4174-0.09821v-10.779h2.2834v12.399z"/>
    <path id="path4529" d="m64.383 11.849q0.81025 0 1.4241-0.02455 0.63838-0.04911 1.0558-0.14732v-3.8057q-0.24553-0.12277-0.81025-0.19643-0.54016-0.098212-1.3259-0.098212-0.51561 0-1.1049 0.073659-0.56472 0.073659-1.0558 0.31919-0.46651 0.22098-0.78569 0.63838-0.31919 0.39285-0.31919 1.0558 0 1.2276 0.78569 1.7187 0.78569 0.4665 2.1361 0.4665zm-0.19642-11.442q1.375 0 2.308 0.36829 0.95756 0.34374 1.5223 1.0067 0.58927 0.63838 0.8348 1.5468 0.24553 0.88391 0.24553 1.9642v7.9797q-0.29464 0.04911-0.8348 0.14732-0.51561 0.07366-1.1785 0.14732-0.66293 0.07366-1.4486 0.12276-0.76114 0.07366-1.5223 0.07366-1.0803 0-1.9888-0.22098t-1.5714-0.68748q-0.66293-0.49106-1.0312-1.2768t-0.36829-1.8906q0-1.0558 0.4174-1.8169 0.44195-0.76114 1.1785-1.2276t1.7187-0.68748q0.98212-0.22098 2.0624-0.22098 0.34374 0 0.71204 0.049106 0.36829 0.024553 0.68748 0.098212 0.34374 0.049106 0.58927 0.098212t0.34374 0.073659v-0.63838q0-0.56472-0.12276-1.1049-0.12276-0.56472-0.44195-0.98212-0.31919-0.44195-0.88391-0.68748-0.54016-0.27008-1.4241-0.27008-1.1294 0-1.9888 0.17187-0.8348 0.14732-1.2522 0.31919l-0.27008-1.8906q0.44195-0.19642 1.4732-0.36829 1.0312-0.19642 2.2343-0.19642z"/>
    <path id="path4531" d="m72.866 1.0947q0.78569-0.19642 2.087-0.4174 1.3013-0.22098 2.9955-0.22098 1.5223 0 2.529 0.44195 1.0067 0.4174 1.5959 1.2031 0.61382 0.76114 0.85935 1.8415 0.24553 1.0803 0.24553 2.3816v7.1695h-2.2834v-6.6784q0-1.1785-0.17187-2.0133-0.14732-0.8348-0.51561-1.3504t-0.98212-0.73659q-0.61382-0.24553-1.5223-0.24553-0.36829 0-0.76114 0.024553-0.39285 0.024553-0.76114 0.073659-0.34374 0.024553-0.63838 0.073659-0.27008 0.049106-0.39285 0.073659v10.779h-2.2834v-12.399z"/>
    <path id="path4533" d="m89.101 0.72642h4.8369v1.9151h-4.8369v5.8927q0 0.95756 0.14732 1.5959 0.14732 0.61382 0.44195 0.98212 0.29464 0.34374 0.73659 0.49106 0.44195 0.14732 1.0312 0.14732 1.0312 0 1.645-0.22098 0.63838-0.24553 0.88391-0.34374l0.44195 1.8906q-0.34374 0.17187-1.2031 0.4174-0.85935 0.27008-1.9642 0.27008-1.3013 0-2.1607-0.31919-0.8348-0.34374-1.3504-1.0067-0.51561-0.66293-0.73659-1.6205-0.19642-0.98212-0.19642-2.2589v-11.393l2.2834-0.39285v3.953z"/>
    <path id="path4535" d="m101.16 11.849q0.81025 0 1.4241-0.02455 0.63838-0.04911 1.0558-0.14732v-3.8057q-0.24553-0.12276-0.81025-0.19642-0.54016-0.098212-1.3259-0.098212-0.51561 0-1.1049 0.073659-0.56472 0.073659-1.0558 0.31919-0.46651 0.22098-0.78569 0.63838-0.31919 0.39285-0.31919 1.0558 0 1.2276 0.78569 1.7187 0.78569 0.4665 2.1361 0.4665zm-0.19642-11.442q1.375 0 2.308 0.36829 0.95757 0.34374 1.5223 1.0067 0.58927 0.63838 0.8348 1.5468 0.24552 0.88391 0.24552 1.9642v7.9797q-0.29463 0.04911-0.8348 0.14732-0.51561 0.07366-1.1785 0.14732-0.66292 0.07366-1.4486 0.12276-0.76114 0.07366-1.5223 0.07366-1.0803 0-1.9888-0.22098t-1.5714-0.68748q-0.66293-0.49106-1.0312-1.2768t-0.36829-1.8906q0-1.0558 0.4174-1.8169 0.44195-0.76114 1.1785-1.2276t1.7187-0.68748q0.98212-0.22098 2.0624-0.22098 0.34374 0 0.71203 0.049106 0.3683 0.024553 0.68749 0.098212 0.34374 0.049106 0.58927 0.098212t0.34374 0.073659v-0.63838q0-0.56472-0.12277-1.1049-0.12276-0.56472-0.44195-0.98212-0.31919-0.44195-0.8839-0.68748-0.54017-0.27008-1.4241-0.27008-1.1294 0-1.9888 0.17187-0.8348 0.14732-1.2522 0.31919l-0.27008-1.8906q0.44195-0.19642 1.4732-0.36829 1.0312-0.19642 2.2343-0.19642z"/>
    <path id="path4537" d="m113.48 13.739q-2.1116-0.04911-2.9954-0.90846-0.88391-0.85935-0.88391-2.6763v-15.321l2.2834-0.39285v15.346q0 0.56472 0.0982 0.93301 0.0982 0.36829 0.31918 0.58927 0.22098 0.22098 0.58927 0.34374 0.3683 0.09821 0.90846 0.17187l-0.31919 1.9151z"/>
    <path id="path4539" d="m133.53 13.494q-0.4174-1.1049-0.7857-2.1607-0.36829-1.0803-0.76114-2.1852h-7.7096l-1.5468 4.3459h-2.4798q0.98212-2.7008 1.8415-4.9842 0.85935-2.308 1.6696-4.3704 0.8348-2.0624 1.645-3.9285 0.81024-1.8906 1.6942-3.732h2.1852q0.8839 1.8415 1.6942 3.732 0.81025 1.866 1.6205 3.9285 0.8348 2.0624 1.6942 4.3704 0.85935 2.2834 1.8415 4.9842h-2.6026zm-2.2343-6.3101q-0.78569-2.1361-1.5714-4.1249-0.76114-2.0133-1.5959-3.8548-0.85935 1.8415-1.645 3.8548-0.76114 1.9888-1.5223 4.1249h6.3347z"/>
    <path id="path4541" d="m147.72 0.72642q-0.95757 3.5847-2.2589 6.8748-1.2768 3.2901-2.4798 5.8927h-2.0624q-1.2031-2.6026-2.5044-5.8927-1.2768-3.2901-2.2343-6.8748h2.4553q0.29463 1.2031 0.68748 2.5781 0.4174 1.3504 0.85935 2.7008 0.46651 1.3259 0.93301 2.5781 0.46651 1.2522 0.88391 2.2343 0.4174-0.98212 0.8839-2.2343 0.46651-1.2522 0.90846-2.5781 0.46651-1.3504 0.85935-2.7008 0.4174-1.375 0.71204-2.5781h2.3571z"/>
    <path id="path4543" d="m149.03 7.1347q0-1.6942 0.49106-2.9464 0.49105-1.2768 1.3013-2.1116t1.866-1.2522q1.0558-0.4174 2.1607-0.4174 2.5781 0 3.953 1.6205 1.375 1.5959 1.375 4.886 0 0.14732 0 0.39285 0 0.22098-0.0246 0.4174h-8.7408q0.14732 1.9888 1.154 3.02 1.0067 1.0312 3.1428 1.0312 1.2031 0 2.0133-0.19642 0.8348-0.22098 1.2522-0.4174l0.31919 1.9151q-0.4174 0.22098-1.4732 0.4665-1.0312 0.24553-2.3571 0.24553-1.6696 0-2.8972-0.49106-1.2031-0.51561-1.9888-1.3995-0.78569-0.8839-1.1785-2.087-0.36829-1.2276-0.36829-2.6763zm8.7654-1.2522q0.0246-1.5468-0.78569-2.529-0.7857-1.0067-2.1852-1.0067-0.7857 0-1.3995 0.31919-0.58927 0.29464-1.0067 0.78569-0.4174 0.49106-0.66293 1.1294-0.22097 0.63838-0.29463 1.3013h6.3346z"/>
    <path id="path4545" d="m163.45 1.0947q0.7857-0.19642 2.087-0.4174 1.3013-0.22098 2.9955-0.22098 1.5223 0 2.529 0.44195 1.0067 0.4174 1.5959 1.2031 0.61382 0.76114 0.85935 1.8415 0.24553 1.0803 0.24553 2.3816v7.1695h-2.2834v-6.6784q0-1.1785-0.17187-2.0133-0.14732-0.8348-0.51561-1.3504-0.3683-0.51561-0.98212-0.73659-0.61382-0.24553-1.5223-0.24553-0.36829 0-0.76114 0.024553t-0.76114 0.073659q-0.34374 0.024553-0.63838 0.073659-0.27008 0.049106-0.39285 0.073659v10.779h-2.2834v-12.399z"/>
    <path id="path4547" d="m187.72 13.126q-0.78569 0.19642-2.087 0.4174-1.2768 0.22098-2.9709 0.22098-1.4732 0-2.4798-0.4174-1.0067-0.44195-1.6205-1.2276-0.61383-0.78569-0.88391-1.8415-0.27008-1.0803-0.27008-2.3816v-7.1695h2.2834v6.6784q0 2.3325 0.73659 3.3392 0.73659 1.0067 2.4798 1.0067 0.36829 0 0.76114-0.02455 0.39284-0.02455 0.73658-0.04911 0.34375-0.04911 0.61383-0.07366 0.29463-0.04911 0.4174-0.09821v-10.779h2.2834v12.399z"/>
    <path id="path4549" d="m190.94 7.1347q0-1.6942 0.49106-2.9464 0.49105-1.2768 1.3013-2.1116t1.866-1.2522q1.0558-0.4174 2.1607-0.4174 2.5781 0 3.953 1.6205 1.375 1.5959 1.375 4.886 0 0.14732 0 0.39285 0 0.22098-0.0246 0.4174h-8.7408q0.14732 1.9888 1.154 3.02 1.0067 1.0312 3.1428 1.0312 1.2031 0 2.0133-0.19642 0.8348-0.22098 1.2522-0.4174l0.31919 1.9151q-0.4174 0.22098-1.4732 0.4665-1.0312 0.24553-2.3571 0.24553-1.6696 0-2.8972-0.49106-1.2031-0.51561-1.9888-1.3995-0.78569-0.8839-1.1785-2.087-0.36829-1.2276-0.36829-2.6763zm8.7654-1.2522q0.0246-1.5468-0.78569-2.529-0.78569-1.0067-2.1852-1.0067-0.7857 0-1.3995 0.31919-0.58927 0.29464-1.0067 0.78569-0.4174 0.49106-0.66293 1.1294-0.22097 0.63838-0.29463 1.3013h6.3346z"/>
   </g>
   <g id="text7947" transform="matrix(-.57273 -.82267 .81117 -.58085 0 0)" style="opacity:.6">
    <path id="path4628" d="m-440.36 59.862q0-1.4981 0.43765-2.6427 0.45449-1.1446 1.212-1.9021 0.7743-0.7743 1.7843-1.1615 1.0268-0.38715 2.1714-0.38715 1.1278 0 2.1209 0.38715 1.01 0.38715 1.7674 1.1615 0.75747 0.75747 1.1951 1.9021 0.45448 1.1446 0.45448 2.6427 0 1.4981-0.45448 2.6427-0.43765 1.1446-1.1951 1.9189-0.75747 0.75747-1.7674 1.1446-0.99313 0.38715-2.1209 0.38715-1.1446 0-2.1714-0.38715-1.01-0.38715-1.7843-1.1446-0.75747-0.7743-1.212-1.9189-0.43765-1.1446-0.43765-2.6427zm1.7169 0q0 1.0605 0.26932 1.9358 0.26932 0.85847 0.75747 1.4644 0.50498 0.60598 1.212 0.94263 0.7238 0.31982 1.6159 0.31982 0.89214 0 1.5991-0.31982 0.70697-0.33665 1.1951-0.94263 0.50498-0.60598 0.7743-1.4644 0.26933-0.8753 0.26933-1.9358 0-1.0605-0.26933-1.9189-0.26932-0.8753-0.7743-1.4813-0.48815-0.60598-1.1951-0.9258-0.70697-0.33665-1.5991-0.33665-0.89213 0-1.6159 0.33665-0.70698 0.31982-1.212 0.9258-0.48815 0.60598-0.75747 1.4813-0.26932 0.85847-0.26932 1.9189z"/>
    <path id="path4630" d="m-426.9 57.203q0.53865-0.13466 1.4308-0.28616 0.89213-0.1515 2.0536-0.1515 1.0436 0 1.7338 0.30299 0.69014 0.28616 1.0941 0.8248 0.42082 0.52181 0.58914 1.2625 0.16833 0.74064 0.16833 1.6328v4.9151h-1.5654v-4.5785q0-0.80797-0.11783-1.3803-0.101-0.57231-0.35349-0.9258-0.25249-0.35349-0.6733-0.50498-0.42082-0.16833-1.0436-0.16833-0.25249 0-0.52181 0.01683-0.26933 0.01683-0.52182 0.0505-0.23566 0.01683-0.43765 0.0505-0.18516 0.03366-0.26932 0.0505v7.3896h-1.5654v-8.5005z"/>
    <path id="path4632" d="m-417.73 61.344q0-1.1615 0.33665-2.0199 0.33666-0.8753 0.89214-1.4476 0.55547-0.57231 1.2793-0.85847 0.72381-0.28616 1.4813-0.28616 1.7674 0 2.7101 1.111 0.94263 1.0941 0.94263 3.3497 0 0.101 0 0.26932 0 0.15149-0.0168 0.28616h-5.9924q0.101 1.3634 0.79114 2.0704t2.1546 0.70697q0.8248 0 1.3803-0.13466 0.57231-0.15149 0.85847-0.28616l0.21882 1.313q-0.28615 0.15149-1.01 0.31982-0.70697 0.16833-1.6159 0.16833-1.1446 0-1.9862-0.33665-0.82481-0.35349-1.3634-0.95946-0.53865-0.60598-0.80797-1.4308-0.25249-0.84164-0.25249-1.8348zm6.0093-0.85847q0.0168-1.0605-0.53865-1.7338-0.53864-0.69014-1.4981-0.69014-0.53864 0-0.95946 0.21882-0.40398 0.20199-0.69014 0.53865-0.28616 0.33665-0.45448 0.7743-0.1515 0.43765-0.20199 0.89213h4.3428z"/>
    <path id="path4634" d="m-406.27 65.703h-1.5654v-8.753h1.5654v8.753zm-0.79114-10.335q-0.42081 0-0.7238-0.26932-0.28616-0.28616-0.28616-0.75747 0-0.47132 0.28616-0.74064 0.30299-0.28616 0.7238-0.28616 0.42082 0 0.70698 0.28616 0.30299 0.26932 0.30299 0.74064 0 0.47132-0.30299 0.75747-0.28616 0.26932-0.70698 0.26932z"/>
    <path id="path4636" d="m-400.33 56.765q0.202 0 0.45449 0.03367 0.26932 0.01683 0.52181 0.06733 0.25249 0.03367 0.45448 0.08416 0.21883 0.03366 0.31982 0.06733l-0.26932 1.3634q-0.18516-0.06733-0.62281-0.1515-0.42082-0.101-1.0941-0.101-0.43765 0-0.8753 0.101-0.42082 0.08416-0.55548 0.11783v7.3559h-1.5654v-8.3827q0.55548-0.20199 1.3803-0.37032 0.8248-0.18516 1.8516-0.18516z"/>
    <path id="path4638" d="m-395.49 65.703h-1.5654v-8.753h1.5654v8.753zm-0.79113-10.335q-0.42082 0-0.72381-0.26932-0.28615-0.28616-0.28615-0.75747 0-0.47132 0.28615-0.74064 0.30299-0.28616 0.72381-0.28616t0.70697 0.28616q0.30299 0.26932 0.30299 0.74064 0 0.47132-0.30299 0.75747-0.28615 0.26932-0.70697 0.26932z"/>
    <path id="path4640" d="m-388.97 65.905q-1.0605 0-1.8684-0.33665-0.79114-0.33665-1.3466-0.94263-0.53864-0.60598-0.80797-1.4308-0.26932-0.84163-0.26932-1.8516 0-1.01 0.28616-1.8516 0.30299-0.84163 0.84163-1.4476 0.53865-0.62281 1.313-0.95946 0.79114-0.35349 1.7506-0.35349 0.58915 0 1.1783 0.101t1.1278 0.31982l-0.35349 1.3298q-0.35348-0.16833-0.8248-0.26932-0.45448-0.101-0.97629-0.101-1.313 0-2.0199 0.8248-0.69014 0.8248-0.69014 2.4071 0 0.70697 0.1515 1.2961 0.16832 0.58914 0.50498 1.01 0.35348 0.42082 0.89213 0.65648 0.53865 0.21882 1.313 0.21882 0.62281 0 1.1278-0.11783t0.79114-0.25249l0.21882 1.313q-0.13466 0.08416-0.38715 0.16833-0.25249 0.06733-0.57231 0.11783-0.31982 0.06733-0.69014 0.101-0.35349 0.0505-0.69014 0.0505z"/>
   </g>
   <g id="text7951" transform="matrix(.89739 -.43113 .42511 .91011 0 0)" style="opacity:.6">
    <path id="path4643" d="m165.86 339.3v1.3251h-6.5783v-10.932h1.5302v9.6072h5.0481z"/>
    <path id="path4645" d="m170.16 339.57q0.52059 0 0.91497-0.0158 0.41016-0.0316 0.67834-0.0947v-2.4452q-0.15775-0.0789-0.52058-0.1262-0.34706-0.0631-0.85187-0.0631-0.33128 0-0.70989 0.0473-0.36283 0.0473-0.67834 0.20508-0.29973 0.14198-0.50481 0.41016-0.20508 0.25241-0.20508 0.67834 0 0.78877 0.50481 1.1043 0.50481 0.29973 1.3724 0.29973zm-0.1262-7.3513q0.88342 0 1.4829 0.23663 0.61524 0.22086 0.97807 0.64679 0.37861 0.41016 0.53636 0.99385 0.15776 0.56791 0.15776 1.262v5.127q-0.18931 0.0315-0.53636 0.0947-0.33129 0.0473-0.75722 0.0947-0.42593 0.0473-0.93074 0.0789-0.48904 0.0473-0.97807 0.0473-0.69412 0-1.2778-0.14198-0.58368-0.14198-1.0096-0.44171-0.42593-0.3155-0.66256-0.82031t-0.23663-1.2147q0-0.67834 0.26818-1.1674 0.28396-0.48903 0.75722-0.78876 0.47326-0.29974 1.1043-0.44171 0.63101-0.14198 1.3251-0.14198 0.22085 0 0.45748 0.0315 0.23663 0.0158 0.44171 0.0631 0.22086 0.0315 0.37861 0.0631 0.15775 0.0315 0.22085 0.0473v-0.41016q0-0.36283-0.0789-0.70989-0.0789-0.36283-0.28396-0.63101-0.20508-0.28396-0.56791-0.44171-0.34706-0.17353-0.91497-0.17353-0.72567 0-1.2778 0.11043-0.53636 0.0947-0.80454 0.20508l-0.17353-1.2147q0.28395-0.12621 0.94652-0.23663 0.66256-0.12621 1.4356-0.12621z"/>
    <path id="path4647" d="m175.61 332.66q0.50481-0.1262 1.3409-0.26818 0.83609-0.14198 1.9246-0.14198 0.97807 0 1.6248 0.28396 0.64679 0.26818 1.0254 0.77299 0.39438 0.48904 0.55214 1.1832 0.15775 0.69411 0.15775 1.5302v4.6064h-1.4671v-4.2909q0-0.75721-0.11043-1.2936-0.0947-0.53637-0.33128-0.86765-0.23663-0.33128-0.63102-0.47326-0.39438-0.15775-0.97807-0.15775-0.23663 0-0.48903 0.0158-0.25241 0.0158-0.48904 0.0473-0.22085 0.0158-0.41016 0.0473-0.17352 0.0315-0.2524 0.0473v6.9254h-1.4671v-7.9665z"/>
    <path id="path4649" d="m184.21 336.54q0-1.0885 0.3155-1.893 0.31551-0.82031 0.8361-1.3567 0.52058-0.53636 1.1989-0.80454t1.3882-0.26818q1.6564 0 2.5398 1.0412 0.88342 1.0254 0.88342 3.1393 0 0.0947 0 0.25241 0 0.14198-0.0158 0.26818h-5.616q0.0947 1.2778 0.74145 1.9404 0.64678 0.66257 2.0192 0.66257 0.77299 0 1.2936-0.1262 0.53636-0.14198 0.80455-0.26818l0.20507 1.2305q-0.26818 0.14198-0.94652 0.29973-0.66256 0.15776-1.5144 0.15776-1.0727 0-1.8615-0.31551-0.773-0.33128-1.2778-0.89919-0.50481-0.56792-0.75721-1.3409-0.23663-0.78876-0.23663-1.7195zm5.6318-0.80454q0.0158-0.99385-0.50481-1.6249-0.50481-0.64679-1.404-0.64679-0.50482 0-0.8992 0.20508-0.37861 0.18931-0.64679 0.50481-0.26818 0.31551-0.42593 0.72567-0.14198 0.41016-0.1893 0.83609h4.07z"/>
   </g>
  </g>
 </g>
 <g id="layer4">
  <g id="g17119" transform="matrix(6.0952 0 0 6.1816 -36.552 -61.797)" clip-path="url(#clipPath3522)">
   <g id="g4134" transform="matrix(1.2943 0 0 1 -1.7952 0)">
    <g id="g4153" transform="matrix(1 0 0 1.1429 4.7003e-8 -6.8572)">
     <path id="path2740_2_" transform="translate(51 -986.36)" d="m-10.378 1021.4c0.03415-0.042 0.07786-0.067 0.13249-0.074-0.01366-0.112-0.12908-0.078-0.20625-0.098-0.0048 0.069 0.02049 0.1277 0.07376 0.1721" clip-path="url(#clipPath16376)" style="fill:#2d5f2c"/>
     <path id="path2742_2_" transform="translate(51 -986.36)" d="m-10.253 1021.9c0.07717-0.072 0.02937-0.1-0.05737-0.083 0.01912 0.027 0.03825 0.055 0.05737 0.083" clip-path="url(#clipPath16372)" style="fill:#2d5f2c"/>
     <rect id="rect17073" x="6.0227" y="10" width="21.633" height="76" style="fill:url(#radialGradient3883);opacity:.3"/>
     <rect id="rect17075" transform="scale(-1,1)" x="-49.289" y="10" width="21.633" height="76" style="fill:url(#radialGradient3885);opacity:.15"/>
     <rect id="rect17097" transform="scale(1,-1)" x="27.309" y="-85.962" width=".34729" height="75.932" style="fill:url(#linearGradient3887);opacity:.05"/>
     <rect id="rect17107" transform="scale(1,-1)" x="49.003" y="-86" width=".28652" height="76" style="fill:url(#linearGradient3889);opacity:.05"/>
     <rect id="rect4090" x="49.289" y="10" width="21.633" height="76" style="fill:url(#radialGradient3891);opacity:.3"/>
     <path id="path4049" transform="matrix(.12676 0 0 .21488 6.0204 13.499)" d="m175.56 144.65c0 33.413-0.51664 66.62-1.4039 90.245-0.44365 11.813-0.9753 21.272-1.5548 27.665-0.57953 6.3926-1.2065 9.7135-1.8336 9.7125-0.62707-9.9e-4 -1.2538-3.3238-1.8329-9.7178s-1.1102-15.854-1.5533-27.667c-0.88617-23.626-1.4018-56.829-1.4018-90.238 0-33.409 0.51567-66.612 1.4018-90.238 0.44308-11.813 0.97416-21.273 1.5533-27.667s1.2058-9.7168 1.8329-9.7178c0.62708-9.91e-4 1.254 3.3199 1.8336 9.7125 0.57953 6.3926 1.1112 15.852 1.5548 27.665 0.8873 23.626 1.4039 56.833 1.4039 90.245z" style="color:#000000;fill:url(#radialGradient4065);opacity:.2"/>
    </g>
   </g>
  </g>
 </g>
 <g id="layer5">
  <path id="path8003" transform="matrix(5.3333 0 0 5.3287 20.018 -34.556)" d="m63 17c-8.8366 0-16 7.1634-16 16 0 8 6.3858 13 10 21s4 19 6 19 2.1929-11 6-19 10-13 10-21c0-8.8366-7.1634-16-16-16z" style="color:#000000;fill:url(#linearGradient3711);filter:url(#filter8021);opacity:.6"/>
  <path id="path5309" transform="matrix(5.3018 .57901 -.57851 5.2972 56.287 -48.381)" d="m94.936 24.729c-8.4551-3.8519-19.267-1.566-24.148 5.1057-4.4194 6.0401-1.0714 12.599-2.0326 20.214-0.9612 7.6156-6.6688 16.089-4.7551 16.961 1.9137 0.87182 8.1749-7.3493 16.237-11.73 8.0622-4.3806 16.75-5.4561 21.169-11.496 4.8815-6.6717 1.9846-15.203-6.4704-19.055z" clip-path="url(#clipPath4075)" style="color:#000000;fill:url(#linearGradient3709);filter:url(#filter5363);opacity:.75"/>
  <path id="path7980" d="m357.35 34.718c-47.128 0-85.333 38.172-85.333 85.259 0 42.63 34.057 69.273 53.333 111.9 19.276 42.63 21.333 101.25 32 101.25 10.667 0 11.695-58.616 32-101.25 20.304-42.63 53.333-69.273 53.333-111.9 0-47.087-38.205-85.259-85.333-85.259z" style="color:#000000;fill:url(#linearGradient3734)"/>
  <path id="path7955" d="m357.35 45.375c-47.128 0-85.333 38.172-85.333 85.259 0 42.63 34.057 69.273 53.333 111.9 19.276 42.63 21.333 101.25 32 101.25 10.667 0 11.695-58.616 32-101.25 20.304-42.63 53.333-69.273 53.333-111.9 0-47.087-38.205-85.259-85.333-85.259z" style="color:#000000;fill:url(#linearGradient3731)"/>
  <path id="path7994" d="m272.02 129.47c-5e-3 0.39355 0 0.7708 0 1.1656 0 42.63 34.057 69.273 53.333 111.9 19.276 42.63 21.333 101.25 32 101.25 10.667 0 11.695-58.616 32-101.25 20.304-42.63 53.333-69.273 53.333-111.9 0-0.39483 4e-3 -0.77204 0-1.1656-0.77325 41.747-33.271 68.284-53.333 110.4-20.304 42.63-21.333 101.25-32 101.25-10.667 0-12.724-58.616-32-101.25-19.046-42.12-52.536-68.657-53.333-110.4z" style="color:#000000;opacity:.2"/>
  <path id="path8025" transform="matrix(4 0 0 3.9965 113.35 26.725)" d="m77 26z" style="color:#000000;fill:url(#radialGradient3717);opacity:.4"/>
  <g id="text8048" transform="matrix(5.3333 0 0 5.3287 16.018 -34.556)" style="filter:url(#filter5371);opacity:.5">
   <path id="path4685" d="m68.226 37.132q-0.33028-0.87428-0.62171-1.7097-0.29142-0.85485-0.60228-1.7291h-6.1005l-1.224 3.4388h-1.9623q0.77713-2.1371 1.4571-3.944 0.67999-1.8263 1.3211-3.4582 0.66056-1.632 1.3017-3.1085 0.64114-1.496 1.3406-2.9531h1.7291q0.69942 1.4571 1.3406 2.9531 0.64114 1.4766 1.2823 3.1085 0.66056 1.632 1.3406 3.4582 0.67999 1.8068 1.4571 3.944h-2.0594zm-1.768-4.9931q-0.62171-1.6903-1.2434-3.264-0.60228-1.5931-1.2628-3.0503-0.67999 1.4571-1.3017 3.0503-0.60228 1.5737-1.2046 3.264h5.0125z" style=""/>
  </g>
  <g id="text8044" transform="scale(1.0004 .99957)" style="fill:#fff">
   <path id="path4681" d="m379.72 161.25q-1.7607-4.6608-3.3143-9.1144-1.5536-4.5572-3.2108-9.218h-32.522l-6.5251 18.332h-10.461q4.1429-11.393 7.768-21.025 3.625-9.7358 7.0429-18.436 3.5215-8.7001 6.9394-16.572 3.4179-7.9751 7.1465-15.743h9.218q3.7286 7.7679 7.1465 15.743 3.4179 7.8715 6.8358 16.572 3.5215 8.7001 7.1465 18.436 3.625 9.6323 7.768 21.025h-10.979zm-9.4251-26.618q-3.3143-9.0108-6.6286-17.4-3.2108-8.493-6.7322-16.261-3.625 7.7679-6.9394 16.261-3.2108 8.3894-6.4215 17.4h26.722z" style=""/>
  </g>
  <path id="path5375" transform="matrix(5.3333 0 0 5.3287 16.018 -34.556)" d="m64 15c-8.8366 0-16 7.1634-16 16 0 0.09557-0.0018 0.18652 0 0.28125 0.11875-8.7342 7.2375-15.781 16-15.781s15.881 7.047 16 15.781c0.0018-0.09473 0-0.18568 0-0.28125 0-8.8366-7.1634-16-16-16z" style="color:#000000;fill:url(#linearGradient4125);filter:url(#filter5401)"/>
  <path id="path4079" d="m293.34 131.12c-1e-3 0.16773 0 0.33197 0 0.5 0 35.316 28.654 63.969 64 63.969s64-28.653 64-63.969c0-0.16811 1e-3 -0.3322 0-0.5-0.26846 35.086-28.821 63.469-64 63.469-35.179 0-63.732-28.383-64-63.469z" style="color:#000000;fill:#fff;opacity:.2"/>
  <path id="path4088" transform="matrix(4 0 0 3.9965 113.35 27.725)" d="m77 26z" clip-path="url(#clipPath4105)" style="color:#000000;fill:none;filter:url(#filter4113);opacity:.4;stroke-width:.50022;stroke:url(#linearGradient4123)"/>
  <path id="path4136" d="m357.34 45.375c-47.065 0-85.21 38.062-85.312 85.062 1.1682-46.07 38.921-83.062 85.312-83.062 46.707 0 84.639 37.493 85.312 84 2e-3 -0.25075 0.0312-0.49814 0.0312-0.75 0-47.087-38.216-85.25-85.344-85.25z" style="color:#000000;fill:#fff;opacity:.1"/>
  <path id="path4127" d="m357.34 45.375c-46.728 0-84.672 37.527-85.312 84.062 1.1682-46.07 38.921-83.062 85.312-83.062s84.144 36.992 85.312 83.062c-0.64064-46.536-38.584-84.062-85.312-84.062z" style="color:#000000;fill:#fff;opacity:.1"/>
 </g>
 <g id="layer1" transform="translate(0 -576.36)" style="display:none">
  <g id="layer1-3" transform="matrix(3.5556 0 0 3.5522 0 -2685.9)" style="display:inline">
   <g id="layer1-2" transform="translate(0 10)">
    <path id="path3774" d="m46.703 908.36h50.595c40.865 0 46.703 5.8378 46.703 46.703v40.595c0 40.865-5.8378 46.702-46.703 46.702h-50.595c-40.865 0-46.703-5.8378-46.703-46.702v-40.595c0-40.865 5.8378-46.703 46.703-46.703z" style="display:inline"/>
   </g>
  </g>
 </g>
</svg>
