<?xml version="1.0" encoding="UTF-8"?>
<!-- Created with Inkscape (http://www.inkscape.org/) -->
<svg id="svg3336" width="512" height="476" enable-background="new" version="1.1" xmlns="http://www.w3.org/2000/svg" xmlns:cc="http://creativecommons.org/ns#" xmlns:dc="http://purl.org/dc/elements/1.1/" xmlns:rdf="http://www.w3.org/1999/02/22-rdf-syntax-ns#" xmlns:xlink="http://www.w3.org/1999/xlink">
 <defs id="defs3338">
  <linearGradient id="linearGradient3803" x1="228.21" x2="228.21" y1="476" gradientUnits="userSpaceOnUse">
   <stop id="stop4554" style="stop-color:#48569c" offset="0"/>
   <stop id="stop4556" style="stop-color:#6ea9d3" offset="1"/>
  </linearGradient>
  <clipPath id="clipPath3048">
   <path id="path3050" d="m183.12 40c-8.9628 0.19468-17.931 3.3752-25.25 9.6875-23.538 20.3-5.2557 41.391-25.781 59.094-20.526 17.702-38.712-3.4563-62.25 16.844v0.0312c-5.2278 4.5088-9.0001 10.092-11.281 16.125-0.01509 0.0396-0.01629 0.0853-0.03125 0.125-0.45938 1.2269-0.85192 2.4586-1.1875 3.7188-0.14899 0.55949-0.31302 1.1229-0.4375 1.6875-0.01373 0.0617-0.01782 0.12571-0.03125 0.1875-0.25661 1.1909-0.44644 2.3864-0.59375 3.5938-0.0013 0.0103 0.0012 0.0209 0 0.0312-0.0077 0.0629-0.02383 0.12461-0.03125 0.1875-0.06548 0.56236-0.11456 1.123-0.15625 1.6875-0.03193 0.42446-0.07534 0.85633-0.09375 1.2812-0.0091 0.2163-0.02562 0.4398-0.03125 0.65625-2e-3 0.0721 0.0016 0.14664 0 0.21875-0.01164 0.56641-0.01231 1.1208 0 1.6875 6e-3 0.28991 0.01903 0.58534 0.03125 0.875 0.01841 0.42492 0.06182 0.85679 0.09375 1.2812 0.04729 0.62871 0.11048 1.2482 0.1875 1.875 0.0012 0.0103-0.0013 0.0209 0 0.0312 0.14731 1.2073 0.33714 2.4028 0.59375 3.5938 0.01342 0.0623 0.01754 0.1253 0.03125 0.1875 0.12631 0.56806 0.28597 1.1239 0.4375 1.6875 0.33558 1.2602 0.72812 2.4918 1.1875 3.7188 0.01503 0.0402 0.01608 0.0849 0.03125 0.125 2.2811 6.0332 6.0534 11.616 11.281 16.125v0.0312c23.538 20.3 41.724-0.8586 62.25 16.844 20.526 17.702 2.2437 38.794 25.781 59.094 16.729 14.428 41.978 12.542 56.406-4.1875 14.428-16.729 12.573-41.978-4.1562-56.406-23.538-20.3-41.724 0.88984-62.25-16.812-10.369-8.9425-10.823-18.773-11.781-28.906 0.95832-10.133 1.4126-19.964 11.781-28.906 20.526-17.702 38.712 3.4876 62.25-16.812 16.729-14.428 18.584-39.677 4.1562-56.406-8.1158-9.4101-19.633-14.125-31.156-13.875z" style="color:#000000;enable-background:accumulate;fill-rule:evenodd;fill:#808080"/>
  </clipPath>
  <linearGradient id="linearGradient3698" x1="128" x2="128" y1="241.01" y2="85.002" gradientUnits="userSpaceOnUse">
   <stop id="stop6206" style="stop-color:#b0b0b0" offset="0"/>
   <stop id="stop6208" style="stop-color:#e5e5e5" offset="1"/>
  </linearGradient>
  <linearGradient id="linearGradient3701" x1="163.98" x2="163.98" y1="237.51" y2="71.568" gradientTransform="translate(4e-6)" gradientUnits="userSpaceOnUse">
   <stop id="stop7081" style="stop-color:#424242" offset="0"/>
   <stop id="stop7083" style="stop-color:#424242;stop-opacity:.53419" offset="1"/>
  </linearGradient>
  <filter id="filter3887" color-interpolation-filters="sRGB">
   <feGaussianBlur id="feGaussianBlur3889" stdDeviation="5.0007327"/>
  </filter>
  <linearGradient id="linearGradient3703" x1="151.12" x2="158.49" y1="181.93" y2="216.42" gradientUnits="userSpaceOnUse" xlink:href="#linearGradient6339-5"/>
  <linearGradient id="linearGradient6339-5">
   <stop id="stop6341-6" style="stop-color:#fff;stop-opacity:.56148" offset="0"/>
   <stop id="stop6343-5" style="stop-color:#fff;stop-opacity:.069672" offset="1"/>
  </linearGradient>
  <linearGradient id="linearGradient4531-4-9-8-6">
   <stop id="stop4533-3-2-61-5" style="stop-color:#fff" offset="0"/>
   <stop id="stop4535-5-7-3-4" style="stop-color:#fff;stop-opacity:0" offset="1"/>
  </linearGradient>
  <linearGradient id="linearGradient3709" x1="148.62" x2="148.62" y1="257.96" y2="211.64" gradientUnits="userSpaceOnUse" xlink:href="#linearGradient4196"/>
  <linearGradient id="linearGradient4196">
   <stop id="stop4198" style="stop-color:#0097ff" offset="0"/>
   <stop id="stop4200" style="stop-color:#80d3ff;stop-opacity:0" offset="1"/>
  </linearGradient>
  <filter id="filter4228" x="-.24217" y="-.24217" width="1.4843" height="1.4843" color-interpolation-filters="sRGB">
   <feGaussianBlur id="feGaussianBlur4230" stdDeviation="7.2651119"/>
  </filter>
  <linearGradient id="linearGradient3722" x1="151.12" x2="158.49" y1="181.93" y2="216.42" gradientUnits="userSpaceOnUse">
   <stop id="stop6341-6-5" style="stop-color:#fff;stop-opacity:.56148" offset="0"/>
   <stop id="stop6343-5-1" style="stop-color:#fff;stop-opacity:.069672" offset="1"/>
  </linearGradient>
  <radialGradient id="radialGradient3730" cx="127.46" cy="213.21" r="50.236" gradientTransform="matrix(.92064 0 0 .92064 11.626 24.412)" gradientUnits="userSpaceOnUse">
   <stop id="stop4544-4" style="stop-color:#676767;stop-opacity:0" offset="0"/>
   <stop id="stop4546-5" style="stop-color:#676767;stop-opacity:0" offset=".48237"/>
   <stop id="stop4548-7" style="stop-color:#676767" offset=".77067"/>
   <stop id="stop4550-2" style="stop-color:#676767;stop-opacity:0" offset="1"/>
  </radialGradient>
  <filter id="filter4568-6" x="-.108" y="-.108" width="1.216" height="1.216" color-interpolation-filters="sRGB">
   <feGaussianBlur id="feGaussianBlur4570-4" stdDeviation="3.24"/>
  </filter>
  <filter id="filter7119-7" x="-.31725" y="-.31725" width="1.6345" height="1.6345" color-interpolation-filters="sRGB">
   <feGaussianBlur id="feGaussianBlur7121-7" stdDeviation="9.5173656"/>
  </filter>
  <radialGradient id="radialGradient3734" cx="127.46" cy="213.21" r="50.236" gradientTransform="matrix(.92064 0 0 .92064 11.626 24.412)" gradientUnits="userSpaceOnUse">
   <stop id="stop7071-5" style="stop-color:#777;stop-opacity:0" offset="0"/>
   <stop id="stop7073-1" style="stop-color:#868686;stop-opacity:0" offset=".48237"/>
   <stop id="stop7075-8" style="stop-color:#6e6e6e;stop-opacity:.22277" offset=".77067"/>
   <stop id="stop7077-9" style="stop-color:#868686;stop-opacity:0" offset="1"/>
  </radialGradient>
  <filter id="filter4568-8-3" x="-.108" y="-.108" width="1.216" height="1.216" color-interpolation-filters="sRGB">
   <feGaussianBlur id="feGaussianBlur4570-2-1" stdDeviation="3.24"/>
  </filter>
  <filter id="filter4422" x="-.1853" y="-.31382" width="1.3706" height="1.6276">
   <feGaussianBlur id="feGaussianBlur4424" stdDeviation="4.6851988"/>
  </filter>
  <filter id="filter4426" x="-.13866" y="-.23602" width="1.2773" height="1.472">
   <feGaussianBlur id="feGaussianBlur4428" stdDeviation="4.0684232"/>
  </filter>
  <filter id="filter4434" x="-.13451" y="-.24737" width="1.269" height="1.4947">
   <feGaussianBlur id="feGaussianBlur4436" stdDeviation="3.2111686"/>
  </filter>
  <linearGradient id="linearGradient4474" x1="128" x2="128" y1="241.01" y2="85.002" gradientTransform="matrix(1.293 0 0 1.293 463.01 24.293)" gradientUnits="userSpaceOnUse">
   <stop id="stop6206-4" style="stop-color:#b0b0b0" offset="0"/>
   <stop id="stop6208-6" style="stop-color:#e5e5e5" offset="1"/>
  </linearGradient>
  <clipPath id="clipPath4582">
   <path id="path4584" d="m311.79 78.012c-11.589 0.25172-23.184 4.3641-32.648 12.526-30.434 26.248-6.7955 53.518-33.335 76.407-26.539 22.889-50.054-4.469-80.488 21.779v0.0403c-6.7595 5.8297-11.637 13.048-14.586 20.849-0.0195 0.0512-0.0211 0.11029-0.0403 0.16162-0.59396 1.5864-1.1015 3.1789-1.5354 4.8083-0.19264 0.72341-0.40472 1.4518-0.56567 2.1819-0.0177 0.0798-0.023 0.16254-0.0403 0.24243-0.33179 1.5398-0.57724 3.0856-0.76771 4.6466-1e-3 0.0133 1e-3 0.027 0 0.0403-0.0103 0.0813-0.0308 0.16112-0.0403 0.24242-0.0847 0.72712-0.14812 1.452-0.20203 2.1819-0.0412 0.54883-0.0974 1.1072-0.12115 1.6566-0.0116 0.27968-0.0331 0.56866-0.0403 0.84851-3e-3 0.0932 3e-3 0.1896 0 0.28284-0.015 0.73235-0.0159 1.4491 0 2.1819 8e-3 0.37483 0.0246 0.75682 0.0403 1.1313 0.0238 0.54941 0.0799 1.1078 0.12115 1.6566 0.0612 0.81292 0.14286 1.6139 0.24244 2.4243 1e-3 0.0133-1e-3 0.027 0 0.0403 0.19046 1.5611 0.43591 3.1068 0.7677 4.6466 0.0173 0.0805 0.0226 0.16201 0.0403 0.24243 0.16333 0.7345 0.36975 1.4532 0.56568 2.1819 0.4339 1.6294 0.94144 3.2219 1.5354 4.8082 0.0194 0.052 0.0208 0.10978 0.0403 0.16163 2.9494 7.8008 7.8269 15.02 14.586 20.849v0.0403c30.434 26.248 53.949-1.1102 80.488 21.779 26.539 22.889 2.901 50.159 33.335 76.407 10.535 9.0855 24.009 12.884 36.881 12.183 13.557-0.7389 26.481-6.5013 36.051-17.597 18.655-21.63 16.256-54.277-5.3739-72.932-30.434-26.248-53.949 1.1505-80.488-21.738-13.406-11.563-13.994-24.273-15.233-37.375 1.2391-13.102 1.8264-25.813 15.233-37.375 26.539-22.889 50.054 4.5093 80.488-21.738 21.63-18.655 24.029-51.301 5.3739-72.932-10.494-12.167-25.385-18.264-40.284-17.94z" style="color:#000000;enable-background:accumulate;fill-rule:evenodd;fill:#f0f"/>
  </clipPath>
  <filter id="filter4594" x="-.10396" y="-.089172" width="1.2079" height="1.1783">
   <feGaussianBlur id="feGaussianBlur4596" stdDeviation="9.4107327"/>
  </filter>
  <filter id="filter4617">
   <feGaussianBlur id="feGaussianBlur4619" stdDeviation="1.2931644"/>
  </filter>
  <filter id="filter4627">
   <feGaussianBlur id="feGaussianBlur4629" stdDeviation="7.7589861"/>
  </filter>
  <radialGradient id="radialGradient4639" cx="202.3" cy="234.01" r="21.375" gradientUnits="userSpaceOnUse" xlink:href="#linearGradient4531-4-9-8-6"/>
  <filter id="filter4670" x="-.57139" y="-.41381" width="2.1428" height="1.8276">
   <feGaussianBlur id="feGaussianBlur4672" stdDeviation="51.726574"/>
  </filter>
  <clipPath id="clipPath4676">
   <rect id="rect4678" width="512" height="476" style="color:#000000;enable-background:accumulate;fill:#0f0"/>
  </clipPath>
 </defs>
 <metadata id="metadata3341">
  <rdf:RDF>
   <cc:Work rdf:about="">
    <dc:format>image/svg+xml</dc:format>
    <dc:type rdf:resource="http://purl.org/dc/dcmitype/StillImage"/>
    <dc:title/>
   </cc:Work>
  </rdf:RDF>
 </metadata>
 <g id="layer2">
  <rect id="rect3027" width="512" height="476" style="color:#000000;enable-background:accumulate;fill:url(#linearGradient3803)"/>
  <path id="path4455-7-8" d="m311.79 88.012c-11.589 0.25172-23.184 4.3641-32.648 12.526-30.434 26.248-6.7955 53.518-33.335 76.407-26.539 22.889-50.054-4.469-80.488 21.779v0.0403c-6.7595 5.8297-11.637 13.048-14.586 20.849-0.0195 0.0512-0.0211 0.11029-0.0403 0.16162-0.59396 1.5864-1.1015 3.1789-1.5354 4.8083-0.19265 0.72341-0.40473 1.4518-0.56568 2.1819-0.0177 0.0798-0.023 0.16254-0.0403 0.24243-0.33179 1.5398-0.57724 3.0856-0.76771 4.6466-1e-3 0.0133 1e-3 0.027 0 0.0403-0.0103 0.0813-0.0308 0.16111-0.0403 0.24242-0.0847 0.72712-0.14812 1.452-0.20203 2.1819-0.0412 0.54882-0.0974 1.1072-0.12115 1.6566-0.0116 0.27968-0.0331 0.56867-0.0403 0.84852-3e-3 0.0932 3e-3 0.1896 0 0.28284-0.015 0.73235-0.0159 1.4491 0 2.1819 8e-3 0.37483 0.0246 0.75682 0.0403 1.1313 0.0238 0.54941 0.0799 1.1078 0.12115 1.6566 0.0612 0.81291 0.14286 1.6139 0.24244 2.4243 1e-3 0.0133-1e-3 0.027 0 0.0403 0.19047 1.5611 0.43591 3.1068 0.7677 4.6466 0.0173 0.0806 0.0226 0.16201 0.0403 0.24244 0.16333 0.7345 0.36976 1.4532 0.56568 2.1819 0.4339 1.6294 0.94144 3.2219 1.5354 4.8082 0.0194 0.052 0.0208 0.10978 0.0403 0.16162 2.9494 7.8008 7.8269 15.02 14.586 20.849v0.0403c30.434 26.248 53.949-1.1102 80.488 21.779 26.539 22.889 2.901 50.159 33.335 76.407 21.63 18.655 54.277 16.216 72.932-5.4143 18.655-21.63 16.256-54.277-5.3739-72.932-30.434-26.248-53.949 1.1505-80.488-21.738-13.406-11.563-13.994-24.273-15.233-37.375 1.2391-13.102 1.8264-25.813 15.233-37.375 26.539-22.889 50.054 4.5094 80.488-21.738 21.63-18.655 24.029-51.301 5.3739-72.932-10.494-12.167-25.385-18.264-40.284-17.94z" clip-path="url(#clipPath4676)" style="color:#000000;enable-background:accumulate;fill-rule:evenodd;fill:#37abc8;filter:url(#filter4670)"/>
 </g>
 <g id="layer3">
  <g id="g4131" transform="translate(2,12)" style="fill:#f9f9f9">
   <path id="path4621" d="m309.79 82.012c-11.589 0.25172-23.184 4.3641-32.648 12.526-30.434 26.248-6.7955 53.518-33.335 76.407-26.539 22.889-50.054-4.469-80.488 21.779v0.0403c-6.7595 5.8297-11.637 13.048-14.586 20.849-0.0195 0.0512-0.0211 0.11029-0.0403 0.16162-0.59397 1.5864-1.1015 3.1789-1.5354 4.8083-0.19264 0.72341-0.40473 1.4518-0.56568 2.1819-0.0177 0.0798-0.023 0.16254-0.0403 0.24243-0.33179 1.5398-0.57724 3.0856-0.76771 4.6466-1e-3 0.0133 1e-3 0.027 0 0.0403-0.0103 0.0813-0.0308 0.16111-0.0403 0.24242-0.0847 0.72712-0.14812 1.452-0.20203 2.1819-0.0412 0.54882-0.0974 1.1072-0.12115 1.6566-0.0116 0.27968-0.0331 0.56867-0.0403 0.84852-3e-3 0.0932 3e-3 0.1896 0 0.28284-0.015 0.73235-0.0159 1.4491 0 2.1819 8e-3 0.37483 0.0246 0.75682 0.0403 1.1313 0.0238 0.54941 0.0799 1.1078 0.12115 1.6566 0.0612 0.81291 0.14287 1.6139 0.24244 2.4243 1e-3 0.0133-1e-3 0.027 0 0.0403 0.19047 1.5611 0.43591 3.1068 0.7677 4.6466 0.0173 0.0806 0.0226 0.16201 0.0403 0.24244 0.16333 0.7345 0.36976 1.4532 0.56568 2.1819 0.4339 1.6294 0.94144 3.2219 1.5354 4.8082 0.0194 0.052 0.0208 0.10978 0.0403 0.16162 2.9494 7.8008 7.8269 15.02 14.586 20.849v0.0403c30.434 26.248 53.949-1.1102 80.488 21.779 26.539 22.889 2.901 50.159 33.335 76.407 21.63 18.655 54.277 16.216 72.932-5.4143 18.655-21.63 16.256-54.277-5.3739-72.932-30.434-26.248-53.949 1.1505-80.488-21.738-13.406-11.563-13.994-24.273-15.233-37.375 1.2391-13.102 1.8264-25.813 15.233-37.375 26.539-22.889 50.054 4.5094 80.488-21.738 21.63-18.655 24.029-51.301 5.3739-72.932-10.494-12.167-25.385-18.264-40.284-17.94z" style="color:#000000;enable-background:accumulate;fill-rule:evenodd;fill:#000;filter:url(#filter4627);opacity:.2"/>
   <path id="path4455-7-3" d="m309.79 78.012c-11.589 0.25172-23.184 4.3641-32.648 12.526-30.434 26.248-6.7955 53.518-33.335 76.407-26.539 22.889-50.054-4.469-80.488 21.779v0.0403c-6.7595 5.8297-11.637 13.048-14.586 20.849-0.0195 0.0512-0.0211 0.11029-0.0403 0.16162-0.59397 1.5864-1.1015 3.1789-1.5354 4.8083-0.19264 0.72341-0.40473 1.4518-0.56568 2.1819-0.0177 0.0798-0.023 0.16254-0.0403 0.24243-0.33179 1.5398-0.57724 3.0856-0.76771 4.6466-1e-3 0.0133 1e-3 0.027 0 0.0403-0.0103 0.0813-0.0308 0.16111-0.0403 0.24242-0.0847 0.72712-0.14812 1.452-0.20203 2.1819-0.0412 0.54882-0.0974 1.1072-0.12115 1.6566-0.0116 0.27968-0.0331 0.56867-0.0403 0.84852-3e-3 0.0932 3e-3 0.1896 0 0.28284-0.015 0.73235-0.0159 1.4491 0 2.1819 8e-3 0.37483 0.0246 0.75682 0.0403 1.1313 0.0238 0.54941 0.0799 1.1078 0.12115 1.6566 0.0612 0.81291 0.14287 1.6139 0.24244 2.4243 1e-3 0.0133-1e-3 0.027 0 0.0403 0.19047 1.5611 0.43591 3.1068 0.7677 4.6466 0.0173 0.0806 0.0226 0.16201 0.0403 0.24244 0.16333 0.7345 0.36976 1.4532 0.56568 2.1819 0.4339 1.6294 0.94144 3.2219 1.5354 4.8082 0.0194 0.052 0.0208 0.10978 0.0403 0.16162 2.9494 7.8008 7.8269 15.02 14.586 20.849v0.0403c30.434 26.248 53.949-1.1102 80.488 21.779 26.539 22.889 2.901 50.159 33.335 76.407 21.63 18.655 54.277 16.216 72.932-5.4143 18.655-21.63 16.256-54.277-5.3739-72.932-30.434-26.248-53.949 1.1505-80.488-21.738-13.406-11.563-13.994-24.273-15.233-37.375 1.2391-13.102 1.8264-25.813 15.233-37.375 26.539-22.889 50.054 4.5094 80.488-21.738 21.63-18.655 24.029-51.301 5.3739-72.932-10.494-12.167-25.385-18.264-40.284-17.94z" style="color:#000000;enable-background:accumulate;fill-rule:evenodd;fill:#000;filter:url(#filter4617);opacity:.4"/>
   <g id="g4283" transform="matrix(1.293 0 0 1.293 73.012 24.293)" clip-path="url(#clipPath3048)">
    <path id="path3984-0-3-4-7" d="m183.12 40c-8.9628 0.19468-17.931 3.3752-25.25 9.6875-23.538 20.3-5.2557 41.391-25.781 59.094-20.526 17.702-38.712-3.4563-62.25 16.844v0.0312c-5.2278 4.5088-9.0001 10.092-11.281 16.125-0.01509 0.0396-0.01629 0.0853-0.03125 0.125-0.45938 1.2269-0.85192 2.4586-1.1875 3.7188-0.14899 0.55949-0.31302 1.1229-0.4375 1.6875-0.01373 0.0617-0.01782 0.12571-0.03125 0.1875-0.25661 1.1909-0.44644 2.3864-0.59375 3.5938-0.0013 0.0103 0.0012 0.0209 0 0.0312-0.0077 0.0629-0.02383 0.12461-0.03125 0.1875-0.06548 0.56236-0.11456 1.123-0.15625 1.6875-0.03193 0.42446-0.07534 0.85633-0.09375 1.2812-0.0091 0.2163-0.02562 0.4398-0.03125 0.65625-2e-3 0.0721 0.0016 0.14664 0 0.21875-0.01164 0.56641-0.01231 1.1208 0 1.6875 6e-3 0.28991 0.01903 0.58534 0.03125 0.875 0.01841 0.42492 0.06182 0.85679 0.09375 1.2812 0.04729 0.62871 0.11048 1.2482 0.1875 1.875 0.0012 0.0103-0.0013 0.0209 0 0.0312 0.14731 1.2073 0.33714 2.4028 0.59375 3.5938 0.01342 0.0623 0.01754 0.1253 0.03125 0.1875 0.12631 0.56806 0.28597 1.1239 0.4375 1.6875 0.33558 1.2602 0.72812 2.4918 1.1875 3.7188 0.01503 0.0402 0.01608 0.0849 0.03125 0.125 2.2811 6.0332 6.0534 11.616 11.281 16.125v0.0312c23.538 20.3 41.724-0.8586 62.25 16.844 20.526 17.702 2.2437 38.794 25.781 59.094 16.729 14.428 41.978 12.542 56.406-4.1875 14.428-16.729 12.573-41.978-4.1562-56.406-23.538-20.3-41.724 0.88984-62.25-16.812-10.369-8.9425-10.823-18.773-11.781-28.906 0.95832-10.133 1.4126-19.964 11.781-28.906 20.526-17.702 38.712 3.4876 62.25-16.812 16.729-14.428 18.584-39.677 4.1562-56.406-8.1158-9.4101-19.633-14.125-31.156-13.875z" style="color:#000000;enable-background:accumulate;fill-rule:evenodd;fill:url(#linearGradient3698)"/>
    <path id="path3984-0-3-4-7-0-9" d="m181.17 37.985c-8.9628 0.19468-17.931 3.3752-25.25 9.6875-23.538 20.3-5.2557 41.391-25.781 59.094-20.526 17.702-38.712-3.4563-62.25 16.844v0.0312c-5.2278 4.5088-9.0001 10.092-11.281 16.125-0.0151 0.0396-0.0163 0.0853-0.0312 0.125-0.45938 1.2269-0.85192 2.4586-1.1875 3.7188-0.14898 0.55949-0.31302 1.1229-0.4375 1.6875-0.0137 0.0617-0.0178 0.12571-0.0312 0.1875-0.25661 1.1909-0.44644 2.3864-0.59375 3.5938-1e-3 0.0103 1e-3 0.0209 0 0.0312-8e-3 0.0629-0.0238 0.12461-0.0312 0.1875-0.0655 0.56236-0.11456 1.123-0.15625 1.6875-0.0319 0.42446-0.0753 0.85633-0.0937 1.2812-9e-3 0.2163-0.0256 0.4398-0.0312 0.65625-2e-3 0.0721 2e-3 0.14664 0 0.21875-0.0116 0.56641-0.0123 1.1208 0 1.6875 6e-3 0.28991 0.019 0.58534 0.0312 0.875 0.0184 0.42492 0.0618 0.85679 0.0937 1.2812 0.0473 0.62871 0.11049 1.2482 0.1875 1.875 1e-3 0.0103-1e-3 0.0209 0 0.0312 0.14731 1.2073 0.33714 2.4028 0.59375 3.5938 0.0134 0.0623 0.0175 0.1253 0.0312 0.1875 0.12632 0.56806 0.28597 1.1239 0.4375 1.6875 0.33558 1.2602 0.72812 2.4918 1.1875 3.7188 0.015 0.0402 0.0161 0.0849 0.0312 0.125 2.2811 6.0332 6.0534 11.616 11.281 16.125v0.0312c23.538 20.3 41.724-0.8586 62.25 16.844 20.526 17.702 2.2437 38.794 25.781 59.094 16.729 14.428 41.978 12.542 56.406-4.1875 14.428-16.729 12.573-41.978-4.1562-56.406-23.538-20.3-41.724 0.88984-62.25-16.812-10.369-8.9425-10.823-18.773-11.781-28.906 0.95832-10.133 1.4126-19.964 11.781-28.906 20.526-17.702 38.712 3.4876 62.25-16.812 16.729-14.428 18.584-39.677 4.1562-56.406-8.1158-9.4101-19.633-14.125-31.156-13.875z" style="color:#000000;enable-background:accumulate;fill:none;filter:url(#filter3887);stroke-width:3.0936;stroke:url(#linearGradient3701)"/>
    <path id="path6337-8" transform="matrix(1.0974 0 0 1.5289 10.174 -80.991)" d="m185.14 197.4c0 8.6033-12.826 15.578-28.649 15.578s-28.649-6.9744-28.649-15.578c0-4.3017 7.1545-5.8021-3.3859-20.253 16.001 8.1708 24.123 4.6753 32.035 4.6753 15.822 0 28.649 6.9744 28.649 15.578z" style="enable-background:new;fill:url(#linearGradient3703);filter:url(#filter4422)"/>
    <path id="path3785-66-5-6" transform="matrix(.57639 0 0 .32639 105.92 182.03)" d="m168 232a36 36 0 1 1-72 0 36 36 0 1 1 72 0z" style="color:#000000;enable-background:accumulate;fill-rule:evenodd;fill:url(#linearGradient3709);filter:url(#filter4228);opacity:.2"/>
    <path id="path6911" transform="matrix(.96312 0 0 1.2776 33.278 -186.21)" d="m185.14 197.4a28.649 15.578 0 1 1-57.297 0 28.649 15.578 0 1 1 57.297 0z" style="enable-background:new;fill:url(#linearGradient3703);filter:url(#filter4434)"/>
    <path id="path6919" transform="matrix(.57639 0 0 .32639 109.16 27.684)" d="m168 232a36 36 0 1 1-72 0 36 36 0 1 1 72 0z" style="color:#000000;enable-background:accumulate;fill-rule:evenodd;fill:url(#linearGradient3709);filter:url(#filter4228);opacity:.2"/>
    <path id="path3785-66-5-67-4-3" transform="matrix(1.1992 0 0 1.1992 28.234 -192.21)" d="m168 232a36 36 0 1 1-72 0 36 36 0 1 1 72 0z" style="color:#000000;enable-background:accumulate;fill-rule:evenodd;fill:url(#radialGradient3734);filter:url(#filter4568-8-3);opacity:.6"/>
    <path id="path6829" transform="matrix(1.0823 0 0 1.5079 -70.916 -153.16)" d="m185.14 197.4c0 8.6033-12.826 15.578-28.649 15.578s-28.649-6.9744-28.649-15.578c0-8.6033 12.826-15.578 28.649-15.578 7.9111 0 21.936 3.6382 41.771-10.215-17.516 12.86-13.122 21.491-13.122 25.793z" style="enable-background:new;fill:url(#linearGradient3722);filter:url(#filter4426)"/>
    <path id="path3785-66-5-67-4" transform="matrix(1.3486 0 0 1.3486 -79.407 -142.86)" d="m168 232a36 36 0 1 1-72 0 36 36 0 1 1 72 0z" style="color:#000000;enable-background:accumulate;fill-rule:evenodd;fill:url(#radialGradient3730);filter:url(#filter4568-6);opacity:.3"/>
    <path id="path6837" transform="matrix(.57639 0 0 .32639 20.583 103.33)" d="m168 232a36 36 0 1 1-72 0 36 36 0 1 1 72 0z" style="color:#000000;enable-background:accumulate;fill-rule:evenodd;fill:url(#linearGradient3709);filter:url(#filter7119-7);opacity:.2"/>
    <path id="path4455-7" transform="matrix(.77341 0 0 .77341 -58.015 -20.335)" d="m364.38 134.72c-1.236 12.776-7.1976 25.109-17.688 34.156-30.434 26.248-53.93-1.1387-80.469 21.75-13.406 11.562-14.011 24.273-15.25 37.375 0.15787 1.6694 0.30418 3.3449 0.46875 5 1.1271-11.335 3.0829-22.286 14.781-32.375 26.539-22.889 50.035 4.4975 80.469-21.75 13.22-11.401 19.25-28.012 17.688-44.156zm-216.72 98.281c-0.0344 0.37412-0.0973 0.7492-0.125 1.125-0.0412 0.54883-0.10121 1.1068-0.125 1.6562-0.0116 0.27968-0.024 0.5639-0.0312 0.84375-3e-3 0.0932 3e-3 0.18801 0 0.28125-0.015 0.73235-0.0159 1.4547 0 2.1875 8e-3 0.37483 0.0155 0.75048 0.0312 1.125 0.0238 0.54941 0.0838 1.1074 0.125 1.6562 0.0612 0.81292 0.15043 1.6271 0.25 2.4375 1e-3 0.0133-1e-3 0.0179 0 0.0312 0.19047 1.5611 0.44946 3.1164 0.78125 4.6562 0.0173 0.0805 0.0135 0.13833 0.0312 0.21875 0.16333 0.7345 0.36658 1.4588 0.5625 2.1875 0.4339 1.6294 0.93728 3.2261 1.5312 4.8125 0.0194 0.052 0.0117 0.1044 0.0312 0.15625 2.9494 7.8008 7.8343 15.014 14.594 20.844v0.0625c30.434 26.248 53.961-1.1075 80.5 21.781 26.539 22.889 2.9102 50.159 33.344 76.406 21.63 18.655 54.251 16.193 72.906-5.4375 9.6081-11.14 13.625-25.182 12.312-38.75-0.99442 10.272-5.0586 20.339-12.312 28.75-9.4384 10.944-23.453 15.71-36.809 16.589-13.042 0.85747-25.41-1.9343-36.097-11.151-30.434-26.248-6.8047-53.518-33.344-76.406-26.539-22.889-50.066 4.4663-80.5-21.781v-0.0625c-6.7595-5.8297-11.644-13.043-14.594-20.844-0.0195-0.0519-0.0119-0.10427-0.0312-0.15625-0.59397-1.5864-1.0974-3.1831-1.5312-4.8125-0.19592-0.72871-0.39917-1.453-0.5625-2.1875-0.0177-0.0804-0.0139-0.1382-0.0312-0.21875-0.33179-1.5398-0.59078-3.0952-0.78125-4.6562-1e-3 -0.0133 1e-3 -0.0179 0-0.0312-0.0536-0.43604-0.0822-0.87857-0.125-1.3125z" clip-path="url(#clipPath4582)" style="color:#000000;enable-background:accumulate;fill-rule:evenodd;fill:#000;filter:url(#filter4594);opacity:.6"/>
    <path id="path4631" transform="matrix(1.3811 0 0 1.3811 -185.08 -173.81)" d="m223.67 234.01a21.375 21.375 0 1 1-42.749 0 21.375 21.375 0 1 1 42.749 0z" style="color:#000000;enable-background:accumulate;fill:url(#radialGradient4639);opacity:.6"/>
    <path id="path4641" transform="matrix(1.3037 0 0 1.3037 -81.463 -232.47)" d="m223.67 234.01a21.375 21.375 0 1 1-42.749 0 21.375 21.375 0 1 1 42.749 0z" style="color:#000000;enable-background:accumulate;fill:url(#radialGradient4639)"/>
    <path id="path4645" transform="matrix(1.243 0 0 1.243 -69.17 -62.971)" d="m223.67 234.01a21.375 21.375 0 1 1-42.749 0 21.375 21.375 0 1 1 42.749 0z" style="color:#000000;enable-background:accumulate;fill:url(#radialGradient4639);opacity:.4"/>
   </g>
   <path id="path4455" d="m699.79 76.012c-11.589 0.25172-23.184 4.3641-32.648 12.526-30.434 26.248-6.7955 53.518-33.335 76.407-26.539 22.889-50.054-4.469-80.488 21.779v0.0403c-6.7595 5.8297-11.637 13.048-14.586 20.849-0.0195 0.0512-0.0211 0.11029-0.0403 0.16162-0.59397 1.5864-1.1015 3.1789-1.5354 4.8083-0.19264 0.72341-0.40473 1.4518-0.56568 2.1819-0.0177 0.0798-0.023 0.16254-0.0403 0.24243-0.33179 1.5398-0.57724 3.0856-0.76771 4.6466-1e-3 0.0133 1e-3 0.027 0 0.0403-0.0103 0.0813-0.0308 0.16111-0.0403 0.24243-0.0847 0.72712-0.14812 1.452-0.20203 2.1819-0.0412 0.54881-0.0974 1.1072-0.12115 1.6566-0.0116 0.27967-0.0331 0.56866-0.0403 0.84852-3e-3 0.0932 3e-3 0.1896 0 0.28284-0.015 0.73235-0.0159 1.4491 0 2.1819 8e-3 0.37484 0.0246 0.75683 0.0403 1.1314 0.0238 0.54941 0.0799 1.1078 0.12115 1.6566 0.0612 0.8129 0.14287 1.6139 0.24244 2.4243 1e-3 0.0133-1e-3 0.027 0 0.0403 0.19047 1.5611 0.43591 3.1068 0.7677 4.6466 0.0173 0.0806 0.0226 0.16201 0.0403 0.24244 0.16333 0.73449 0.36976 1.4532 0.56568 2.1819 0.4339 1.6294 0.94144 3.2219 1.5354 4.8082 0.0194 0.052 0.0208 0.10978 0.0403 0.16162 2.9494 7.8008 7.8269 15.02 14.586 20.849v0.0403c30.434 26.248 53.949-1.1102 80.488 21.779 26.539 22.889 2.901 50.159 33.335 76.407 21.63 18.655 54.277 16.216 72.932-5.4143 18.655-21.63 16.256-54.277-5.3739-72.932-30.434-26.248-53.949 1.1505-80.488-21.738-13.406-11.562-13.994-24.273-15.233-37.375 1.2391-13.102 1.8264-25.813 15.233-37.375 26.539-22.889 50.054 4.5094 80.488-21.738 21.63-18.655 24.029-51.301 5.3739-72.932-10.494-12.167-25.385-18.264-40.284-17.94z" style="color:#000000;enable-background:accumulate;fill-rule:evenodd;fill:url(#linearGradient4474)"/>
  </g>
 </g>
 <g id="layer1" transform="translate(0 -576.36)" style="display:none">
  <g id="layer1-3" transform="matrix(3.5556 0 0 3.5522 0 -2685.9)" style="display:inline">
   <g id="layer1-2" transform="translate(0 10)">
    <path id="path3774" d="m46.703 908.36h50.595c40.865 0 46.703 5.8378 46.703 46.703v40.595c0 40.865-5.8378 46.702-46.703 46.702h-50.595c-40.865 0-46.703-5.8378-46.703-46.702v-40.595c0-40.865 5.8378-46.703 46.703-46.703z" style="display:inline"/>
   </g>
  </g>
 </g>
</svg>
