<?xml version="1.0" encoding="UTF-8"?>
<!-- Created with Inkscape (http://www.inkscape.org/) -->
<svg id="svg3336" width="512" height="512" style="enable-background:new" version="1.1" viewBox="0 0 512 512" xmlns="http://www.w3.org/2000/svg" xmlns:cc="http://creativecommons.org/ns#" xmlns:dc="http://purl.org/dc/elements/1.1/" xmlns:rdf="http://www.w3.org/1999/02/22-rdf-syntax-ns#" xmlns:xlink="http://www.w3.org/1999/xlink">
 <defs id="defs3338">
  <linearGradient id="linearGradient4226" x1="512" x2="-1e-6" y1="397.99" y2="125.99" gradientTransform="matrix(0 -.90625 .90622 0 4.0752 488)" gradientUnits="userSpaceOnUse">
   <stop id="stop4340" style="stop-color:#ebebeb" offset="0"/>
   <stop id="stop4342" style="stop-color:#f5f5f5" offset="1"/>
  </linearGradient>
  <filter id="filter4346" x="-.01325" y="-.010966" width="1.0265" height="1.0219" style="color-interpolation-filters:sRGB">
   <feGaussianBlur id="feGaussianBlur4348" stdDeviation="2.120027"/>
  </filter>
  <linearGradient id="linearGradient4358" x1="88" x2="488" y1="88" y2="488" gradientUnits="userSpaceOnUse">
   <stop id="stop4362" style="stop-opacity:.58824" offset="0"/>
   <stop id="stop4364" style="stop-opacity:0" offset=".88"/>
   <stop id="stop4366" offset="1"/>
  </linearGradient>
  <filter id="filter4380" x="-.052999" y="-.043863" width="1.106" height="1.0877" style="color-interpolation-filters:sRGB">
   <feGaussianBlur id="feGaussianBlur4382" stdDeviation="8.4801079"/>
  </filter>
 </defs>
 <metadata id="metadata3341">
  <rdf:RDF>
   <cc:Work rdf:about="">
    <dc:format>image/svg+xml</dc:format>
    <dc:type rdf:resource="http://purl.org/dc/dcmitype/StillImage"/>
    <dc:title/>
   </cc:Work>
  </rdf:RDF>
 </metadata>
 <g id="layer2" transform="translate(-32,-32)">
  <path id="rect4158-9" d="m173.84 58c-70.593 0-78.189 7.2508-77.843 77.987v154.01 154.01c-0.34598 70.736 7.2498 77.987 77.843 77.987h228.31c70.593 0 77.843-7.25 77.843-77.987v-154.01-154.01c0-70.737-7.2498-77.987-77.843-77.987z" style="color:#000000;enable-background:accumulate;filter:url(#filter4346);opacity:.1"/>
  <path id="path4350" d="m173.84 58c-70.593 0-78.189 7.2508-77.843 77.987v154.01 154.01c-0.34598 70.736 7.2498 77.987 77.843 77.987h228.31c70.593 0 77.843-7.25 77.843-77.987v-154.01-154.01c0-70.737-7.2498-77.987-77.843-77.987z" style="color:#000000;enable-background:accumulate;fill:url(#linearGradient4358);filter:url(#filter4380);opacity:.3"/>
 </g>
 <g id="layer3">
  <path id="rect4158" d="m141.84 24c-70.593 0-78.189 7.2508-77.843 77.987v154.01 154.01c-0.34598 70.736 7.2498 77.987 77.843 77.987h228.31c70.593 0 77.843-7.25 77.843-77.987v-154.01-154.01c0-70.737-7.2498-77.987-77.843-77.987z" style="color:#000000;enable-background:accumulate;fill:url(#linearGradient4226)"/>
 </g>
 <g id="layer4">
  <path id="path4505-6" d="m221.81 124-35.188 71.656v59.25c-4.9399 5.788-10.339 11.62-15.969 17.25-18.503 18.503-39.248 34.687-53.125 39.312l-23.375-23.344-71.656 35.188v170.69h256v-317.56c-15.417-33.444-32.368-45.921-56.688-52.438zm-97.562 229c7e-3 -5e-3 0.0239 5e-3 0.0312 0-2.6107 1.6304-5.251 3.2267-7.9062 4.8125 2.6559-1.5856 5.2637-3.1824 7.875-4.8125zm-24.094 14.062c8e-3 -4e-3 0.0234 4e-3 0.0312 0-2.7418 1.4991-5.5286 2.9806-8.3125 4.4375 2.7843-1.4568 5.5391-2.9386 8.2813-4.4375z" style="color:#000000;enable-background:accumulate;fill-opacity:0;opacity:.05"/>
  <g id="g2467" transform="matrix(4.8696 0 0 4.6667 56.348 32)" style="fill:#cdcdcd;stroke-width:.57143">
   <path id="path2439" d="m20.782 24c-0.92916 1.2e-5 -1.6679 0.35148-2.1774 1.1024-0.40463 0.60557-0.60484 1.3157-0.60484 2.0787v5.7008c0 0.763 0.20021 1.4344 0.60484 2.0157 0.50953 0.73878 1.2483 1.1024 2.1774 1.1024h4.3952c0.94413 0 1.6679-0.36358 2.1774-1.1024 0.40462-0.58133 0.64515-1.2527 0.64516-2.0157v-5.7008c-1.2e-5 -0.76299-0.24054-1.4732-0.64516-2.0787-0.50954-0.75088-1.2333-1.1023-2.1774-1.1024h-4.3952zm1.1097 1.0079h2.2793c0.25476 1.1e-5 0.47567 0.04122 0.68548 0.12598l-4.5373 8.7874c-0.14987-0.327-0.24194-0.67604-0.24194-1.0394v-5.7008c-2e-6 -0.50866 0.14846-0.97404 0.40323-1.3858 0.3297-0.52077 0.79685-0.78739 1.4113-0.7874zm3.8518 1.1339c0.13487 0.33912 0.20161 0.68816 0.20161 1.0394v5.7008c-7e-6 0.49656-0.14846 0.95467-0.40322 1.3543-0.31472 0.52078-0.75654 0.7874-1.371 0.7874h-2.2793c-0.2248 1e-6 -0.45034-0.05332-0.64516-0.12598l4.497-8.7559z" style="fill:#cdcdcd"/>
   <path id="flowRoot2412" d="m40 36h-10v-0.99698h3.8605v-9.9879h-1.8255v-1.0151h4.0762v11.003h3.8888v0.99698" style="fill:#cdcdcd"/>
   <path id="path2447" d="m44.782 24c-0.92916 1.2e-5 -1.6679 0.35148-2.1774 1.1024-0.40463 0.60557-0.60484 1.3157-0.60484 2.0787v5.7008c0 0.763 0.20021 1.4344 0.60484 2.0157 0.50953 0.73878 1.2483 1.1024 2.1774 1.1024h4.3952c0.94413 0 1.6679-0.36358 2.1774-1.1024 0.40462-0.58133 0.64515-1.2527 0.64516-2.0157v-5.7008c-1.2e-5 -0.76299-0.24054-1.4732-0.64516-2.0787-0.50954-0.75088-1.2333-1.1023-2.1774-1.1024h-4.3952zm1.1097 1.0079h2.2793c0.25476 1.1e-5 0.47567 0.04122 0.68548 0.12598l-4.5373 8.7874c-0.14987-0.327-0.24194-0.67604-0.24194-1.0394v-5.7008c-2e-6 -0.50866 0.14846-0.97404 0.40323-1.3858 0.3297-0.52077 0.79685-0.78739 1.4113-0.7874zm3.8518 1.1339c0.13487 0.33912 0.20161 0.68816 0.20161 1.0394v5.7008c-7e-6 0.49656-0.14846 0.95467-0.40322 1.3543-0.31472 0.52078-0.75654 0.7874-1.371 0.7874h-2.2793c-0.2248 1e-6 -0.45034-0.05332-0.64516-0.12598l4.497-8.7559z" style="fill:#cdcdcd"/>
   <path id="path2449" d="m56.782 24c-0.92916 1.2e-5 -1.6679 0.35148-2.1774 1.1024-0.40463 0.60557-0.60484 1.3157-0.60484 2.0787v5.7008c0 0.763 0.20021 1.4344 0.60484 2.0157 0.50953 0.73878 1.2483 1.1024 2.1774 1.1024h4.3952c0.94413 0 1.6679-0.36358 2.1774-1.1024 0.40462-0.58133 0.64515-1.2527 0.64516-2.0157v-5.7008c-1.2e-5 -0.76299-0.24054-1.4732-0.64516-2.0787-0.50954-0.75088-1.2333-1.1023-2.1774-1.1024h-4.3952zm1.1097 1.0079h2.2793c0.25476 1.1e-5 0.47567 0.04122 0.68548 0.12598l-4.5373 8.7874c-0.14987-0.327-0.24194-0.67604-0.24194-1.0394v-5.7008c-2e-6 -0.50866 0.14846-0.97404 0.40323-1.3858 0.3297-0.52077 0.79685-0.78739 1.4113-0.7874zm3.8518 1.1339c0.13487 0.33912 0.20161 0.68816 0.20161 1.0394v5.7008c-7e-6 0.49656-0.14846 0.95467-0.40322 1.3543-0.31472 0.52078-0.75654 0.7874-1.371 0.7874h-2.2793c-0.2248 1e-6 -0.45034-0.05332-0.64516-0.12598l4.497-8.7559z" style="fill:#cdcdcd"/>
   <path id="path2451" d="m28 54h-10v-0.99698h3.8605v-9.9879h-1.8255v-1.0151h4.0762v11.003h3.8888v0.99698" style="fill:#cdcdcd"/>
   <path id="path2453" d="m40 54h-10v-0.99698h3.8605v-9.9879h-1.8255v-1.0151h4.0762v11.003h3.8888v0.99698" style="fill:#cdcdcd"/>
   <path id="path2455" d="m44.782 42c-0.92916 1.2e-5 -1.6679 0.35148-2.1774 1.1024-0.40463 0.60557-0.60484 1.3157-0.60484 2.0787v5.7008c0 0.763 0.20021 1.4344 0.60484 2.0157 0.50953 0.73878 1.2483 1.1024 2.1774 1.1024h4.3952c0.94413 0 1.6679-0.36358 2.1774-1.1024 0.40462-0.58133 0.64515-1.2527 0.64516-2.0157v-5.7008c-1.2e-5 -0.76299-0.24054-1.4732-0.64516-2.0787-0.50954-0.75088-1.2333-1.1023-2.1774-1.1024h-4.3952zm1.1097 1.0079h2.2793c0.25476 1.1e-5 0.47567 0.04122 0.68548 0.12598l-4.5373 8.7874c-0.14987-0.327-0.24194-0.67604-0.24194-1.0394v-5.7008c-2e-6 -0.50866 0.14846-0.97404 0.40323-1.3858 0.3297-0.52077 0.79685-0.78739 1.4113-0.7874zm3.8518 1.1339c0.13487 0.33912 0.20161 0.68816 0.20161 1.0394v5.7008c-7e-6 0.49656-0.14846 0.95467-0.40322 1.3543-0.31472 0.52078-0.75654 0.7874-1.371 0.7874h-2.2793c-0.2248 1e-6 -0.45034-0.05332-0.64516-0.12598l4.497-8.7559z" style="fill:#cdcdcd"/>
   <path id="path2457" d="m64 54h-10v-0.99698h3.8605v-9.9879h-1.8255v-1.0151h4.0762v11.003h3.8888v0.99698" style="fill:#cdcdcd"/>
   <path id="path2459" d="m28 72h-10v-0.99698h3.8605v-9.9879h-1.8255v-1.0151h4.0762v11.003h3.8888v0.99698" style="fill:#cdcdcd"/>
   <path id="path2461" d="m32.782 60c-0.92916 1.2e-5 -1.6679 0.35148-2.1774 1.1024-0.40463 0.60557-0.60484 1.3157-0.60484 2.0787v5.7008c0 0.763 0.20021 1.4344 0.60484 2.0157 0.50953 0.73878 1.2483 1.1024 2.1774 1.1024h4.3952c0.94413 0 1.6679-0.36358 2.1774-1.1024 0.40462-0.58133 0.64515-1.2527 0.64516-2.0157v-5.7008c-1.2e-5 -0.76299-0.24054-1.4732-0.64516-2.0787-0.50954-0.75088-1.2333-1.1023-2.1774-1.1024h-4.3952zm1.1097 1.0079h2.2793c0.25476 1.1e-5 0.47567 0.04122 0.68548 0.12598l-4.5373 8.7874c-0.14987-0.327-0.24194-0.67604-0.24194-1.0394v-5.7008c-2e-6 -0.50866 0.14846-0.97404 0.40323-1.3858 0.3297-0.52077 0.79685-0.78739 1.4113-0.7874zm3.8518 1.1339c0.13487 0.33912 0.20161 0.68816 0.20161 1.0394v5.7008c-7e-6 0.49656-0.14846 0.95467-0.40322 1.3543-0.31472 0.52078-0.75654 0.7874-1.371 0.7874h-2.2793c-0.2248 1e-6 -0.45034-0.05332-0.64516-0.12598l4.497-8.7559z" style="fill:#cdcdcd"/>
   <path id="path2463" d="m44.782 60c-0.92916 1.2e-5 -1.6679 0.35148-2.1774 1.1024-0.40463 0.60557-0.60484 1.3157-0.60484 2.0787v5.7008c0 0.763 0.20021 1.4344 0.60484 2.0157 0.50953 0.73878 1.2483 1.1024 2.1774 1.1024h4.3952c0.94413 0 1.6679-0.36358 2.1774-1.1024 0.40462-0.58133 0.64515-1.2527 0.64516-2.0157v-5.7008c-1.2e-5 -0.76299-0.24054-1.4732-0.64516-2.0787-0.50954-0.75088-1.2333-1.1023-2.1774-1.1024h-4.3952zm1.1097 1.0079h2.2793c0.25476 1.1e-5 0.47567 0.04122 0.68548 0.12598l-4.5373 8.7874c-0.14987-0.327-0.24194-0.67604-0.24194-1.0394v-5.7008c-2e-6 -0.50866 0.14846-0.97404 0.40323-1.3858 0.3297-0.52077 0.79685-0.78739 1.4113-0.7874zm3.8518 1.1339c0.13487 0.33912 0.20161 0.68816 0.20161 1.0394v5.7008c-7e-6 0.49656-0.14846 0.95467-0.40322 1.3543-0.31472 0.52078-0.75654 0.7874-1.371 0.7874h-2.2793c-0.2248 1e-6 -0.45034-0.05332-0.64516-0.12598l4.497-8.7559z" style="fill:#cdcdcd"/>
   <path id="path2465" d="m64 72h-10v-0.99698h3.8605v-9.9879h-1.8255v-1.0151h4.0762v11.003h3.8888v0.99698" style="fill:#cdcdcd"/>
  </g>
 </g>
 <g id="layer5" transform="translate(-32,-32)">
  <path id="path4231" d="m288 56v464h114.16c70.593 0 77.844-7.2493 77.844-77.986v-154.01-154.01c0-70.737-7.2503-77.986-77.844-77.986z" style="color:#000000;enable-background:accumulate;fill:#fff;opacity:.12"/>
  <path id="path4255" d="m96 288v154.01c-0.34598 70.736 7.2503 77.986 77.844 77.986h228.31c70.593 0 77.844-7.2493 77.844-77.986v-154.01z" style="color:#000000;enable-background:accumulate;fill:#fff;opacity:.12"/>
 </g>
 <g id="layer1" transform="translate(-32,-32)">
  <path id="path4254" d="m360 520 120-120v44.968c-0.1047 67.992-7.6054 75.032-76.348 75.032z" style="color:#000000;enable-background:accumulate;fill:#fff;opacity:.5"/>
  <path id="path4286" d="m173.84 56c-68.982 0-77.805 6.9589-77.85 73.277 0.22272-64.485 9.5571-71.277 77.85-71.277h228.31c70.593 0 77.844 7.2493 77.844 77.986v-2c0-70.737-7.2503-77.986-77.844-77.986z" style="color:#000000;enable-background:accumulate;fill:#fff;opacity:.6"/>
  <path id="path4295" d="m480 440.01c0 70.737-7.2503 77.986-77.844 77.986h-228.31c-68.292 0-77.627-6.7926-77.85-71.277 0.044202 66.318 8.8674 73.277 77.85 73.277h228.31c70.593 0 77.844-7.2493 77.844-77.986z" style="color:#000000;enable-background:accumulate;opacity:.1"/>
 </g>
</svg>
