<?xml version="1.0" encoding="UTF-8"?>
<!-- Created with Inkscape (http://www.inkscape.org/) -->
<svg id="svg3336" width="512" height="512" style="enable-background:new" version="1.1" viewBox="0 0 512 512" xmlns="http://www.w3.org/2000/svg" xmlns:cc="http://creativecommons.org/ns#" xmlns:dc="http://purl.org/dc/elements/1.1/" xmlns:rdf="http://www.w3.org/1999/02/22-rdf-syntax-ns#" xmlns:xlink="http://www.w3.org/1999/xlink">
 <defs id="defs3338">
  <linearGradient id="linearGradient4226" x1="512" x2="-1e-6" y1="397.99" y2="125.99" gradientTransform="matrix(0 -.90625 .90622 0 4.0752 488)" gradientUnits="userSpaceOnUse">
   <stop id="stop4340" style="stop-color:#ebebeb" offset="0"/>
   <stop id="stop4342" style="stop-color:#f5f5f5" offset="1"/>
  </linearGradient>
  <filter id="filter4346" x="-.01325" y="-.010966" width="1.0265" height="1.0219" style="color-interpolation-filters:sRGB">
   <feGaussianBlur id="feGaussianBlur4348" stdDeviation="2.120027"/>
  </filter>
  <linearGradient id="linearGradient4358" x1="88" x2="488" y1="88" y2="488" gradientUnits="userSpaceOnUse">
   <stop id="stop4362" style="stop-opacity:.58824" offset="0"/>
   <stop id="stop4364" style="stop-opacity:0" offset=".88"/>
   <stop id="stop4366" offset="1"/>
  </linearGradient>
  <filter id="filter4380" x="-.052999" y="-.043863" width="1.106" height="1.0877" style="color-interpolation-filters:sRGB">
   <feGaussianBlur id="feGaussianBlur4382" stdDeviation="8.4801079"/>
  </filter>
  <linearGradient id="linearGradient4483" x1="512" x2="-3.5527e-15" y1="397.99" y2="154.4" gradientTransform="matrix(0 .90625 .90622 0 4.0752 24)" gradientUnits="userSpaceOnUse">
   <stop id="stop7709" style="stop-color:#f0692c" offset="0"/>
   <stop id="stop7711" style="stop-color:#993a03" offset="1"/>
  </linearGradient>
  <radialGradient id="radialGradient21562" cx="152.33" cy="-754.64" r="15" gradientTransform="matrix(3.8407e-6 .27074 -4.0434 0 -2202 -1535.9)" gradientUnits="userSpaceOnUse">
   <stop id="stop10464-0" style="stop-color:#808080;stop-opacity:.502" offset="0"/>
   <stop id="stop10466-1" style="stop-opacity:0" offset="1"/>
  </radialGradient>
  <linearGradient id="linearGradient4407" x1="850.25" x2="850.25" y1="-1506.6" y2="-1510.6" gradientUnits="userSpaceOnUse" xlink:href="#linearGradient10423"/>
  <linearGradient id="linearGradient10423">
   <stop id="stop10425" style="stop-color:#808080" offset="0"/>
   <stop id="stop10427" style="stop-color:#333" offset="1"/>
  </linearGradient>
  <linearGradient id="linearGradient21568" x1="809.62" x2="809.62" y1="-1074.8" y2="-1116.8" gradientTransform="matrix(2.0333 0 0 2.0476 -752.27 686.81)" gradientUnits="userSpaceOnUse">
   <stop id="stop13793" style="stop-color:#d36118" offset="0"/>
   <stop id="stop13795" style="stop-color:#f09e6f" offset="1"/>
  </linearGradient>
  <linearGradient id="linearGradient21570" x1="812" x2="812" y1="-1075.6" y2="-1115.6" gradientTransform="matrix(2.0333 0 0 2.15 -752.27 798.98)" gradientUnits="userSpaceOnUse">
   <stop id="stop9931" style="stop-color:#edbfa1" offset="0"/>
   <stop id="stop9933" style="stop-color:#fdf1ea" offset="1"/>
  </linearGradient>
  <radialGradient id="radialGradient21574" cx="-1535.5" cy="-853" r="10" gradientTransform="matrix(-3.3157 0 0 -3.2 -6604 -3579.6)" gradientUnits="userSpaceOnUse">
   <stop id="stop10140" style="stop-color:#fff" offset="0"/>
   <stop id="stop10142" style="stop-color:#ffd5d5;stop-opacity:0" offset="1"/>
  </radialGradient>
  <linearGradient id="linearGradient21576" x1="825.25" x2="825.25" y1="-1559.6" y2="-1525.6" gradientUnits="userSpaceOnUse" xlink:href="#linearGradient10658"/>
  <linearGradient id="linearGradient10658">
   <stop id="stop10660" style="stop-color:#b84603" offset="0"/>
   <stop id="stop10662" style="stop-color:#622502" offset="1"/>
  </linearGradient>
  <linearGradient id="linearGradient21578" x1="895.5" x2="895.5" y1="647.81" y2="735.75" gradientUnits="userSpaceOnUse" xlink:href="#linearGradient10391"/>
  <linearGradient id="linearGradient10391">
   <stop id="stop10393" style="stop-color:#e67325" offset="0"/>
   <stop id="stop10395" style="stop-color:#c8400c" offset="1"/>
  </linearGradient>
  <linearGradient id="linearGradient21580" x1="798.25" x2="902" y1="-1589.1" y2="-1589.1" gradientUnits="userSpaceOnUse">
   <stop id="stop10228" style="stop-color:#8e2103" offset="0"/>
   <stop id="stop10236" style="stop-color:#e46f1f" offset=".16905"/>
   <stop id="stop10234" style="stop-color:#e66d20" offset=".83809"/>
   <stop id="stop10230" style="stop-color:#922504" offset="1"/>
  </linearGradient>
  <linearGradient id="linearGradient21582" x1="902.25" x2="902.25" y1="-1534.4" y2="-1524.4" gradientUnits="userSpaceOnUse">
   <stop id="stop10684" style="stop-color:#808080" offset="0"/>
   <stop id="stop10686" style="stop-color:#606060" offset="1"/>
  </linearGradient>
  <linearGradient id="linearGradient21584" x1="714" x2="714" y1="-1063.6" y2="-1079.2" gradientTransform="matrix(1.1795 0 0 1.5 10.846 67.819)" gradientUnits="userSpaceOnUse">
   <stop id="stop8986" style="stop-color:#fff" offset="0"/>
   <stop id="stop8988" style="stop-color:#fff;stop-opacity:0" offset="1"/>
  </linearGradient>
  <linearGradient id="linearGradient21586" x1="889" x2="879" y1="-1054.6" y2="-1042.6" gradientTransform="matrix(2 0 0 2 -898 556.64)" gradientUnits="userSpaceOnUse">
   <stop id="stop13216" style="stop-color:#18a303" offset="0"/>
   <stop id="stop13218" style="stop-color:#106802" offset="1"/>
  </linearGradient>
  <linearGradient id="linearGradient21588" x1="818.03" x2="882.24" y1="-1575.7" y2="-1575.7" gradientUnits="userSpaceOnUse">
   <stop id="stop10369" style="stop-color:#8e2103" offset="0"/>
   <stop id="stop10371" style="stop-color:#e45c1f" offset=".16905"/>
   <stop id="stop10373" style="stop-color:#e45c1f" offset=".83809"/>
   <stop id="stop10375" style="stop-color:#922504" offset="1"/>
  </linearGradient>
  <linearGradient id="linearGradient21590" x1="-17" x2="144" y1="-1194.6" y2="-1194.6" gradientTransform="matrix(.72671 0 0 1 802.35 -405)" gradientUnits="userSpaceOnUse" xlink:href="#linearGradient9014"/>
  <linearGradient id="linearGradient9014">
   <stop id="stop9016" style="stop-color:#fff;stop-opacity:0" offset="0"/>
   <stop id="stop9018" style="stop-color:#fff" offset=".49306"/>
   <stop id="stop9020" style="stop-color:#fff;stop-opacity:0" offset="1"/>
  </linearGradient>
  <linearGradient id="linearGradient21594" x1="895.5" x2="895.5" y1="621.56" y2="709.5" gradientUnits="userSpaceOnUse" xlink:href="#linearGradient10391"/>
  <linearGradient id="linearGradient21598" x1="895.5" x2="895.5" y1="595.31" y2="683.25" gradientUnits="userSpaceOnUse" xlink:href="#linearGradient10391"/>
  <linearGradient id="linearGradient21602" x1="895.5" x2="895.5" y1="569.06" y2="657" gradientUnits="userSpaceOnUse" xlink:href="#linearGradient10391"/>
  <linearGradient id="linearGradient21604" x1="-17" x2="144" y1="-1194.6" y2="-1194.6" gradientTransform="matrix(.64596 0 0 1 808.98 -396)" gradientUnits="userSpaceOnUse" xlink:href="#linearGradient8074-2"/>
  <linearGradient id="linearGradient8074-2">
   <stop id="stop8076-1" style="stop-opacity:0" offset="0"/>
   <stop id="stop8078-94" offset=".49306"/>
   <stop id="stop8080-0" style="stop-opacity:0" offset="1"/>
  </linearGradient>
  <linearGradient id="linearGradient21606" x1="-17" x2="144" y1="-1194.6" y2="-1194.6" gradientTransform="matrix(.39752 0 0 1 824.76 -386)" gradientUnits="userSpaceOnUse" xlink:href="#linearGradient8074-2"/>
  <linearGradient id="linearGradient21608" x1="-17" x2="144" y1="-1194.6" y2="-1194.6" gradientTransform="matrix(.7205 0 0 1 804.25 -319)" gradientUnits="userSpaceOnUse" xlink:href="#linearGradient8074-2"/>
  <linearGradient id="linearGradient21612" x1="-17" x2="144" y1="-1194.6" y2="-1194.6" gradientTransform="matrix(.28611 0 0 1 858.01 -333.94)" gradientUnits="userSpaceOnUse" xlink:href="#linearGradient9014"/>
  <linearGradient id="linearGradient21618" x1="881" x2="887" y1="-1042.6" y2="-1048.6" gradientTransform="matrix(2 0 0 2 -898 556.64)" gradientUnits="userSpaceOnUse">
   <stop id="stop10619" style="stop-color:#78db67" offset="0"/>
   <stop id="stop10621" style="stop-color:#ccf4c6" offset="1"/>
  </linearGradient>
  <radialGradient id="radialGradient5744" cx="152.33" cy="-754.64" r="15" gradientTransform="matrix(7.9353e-7 .16921 -.83542 0 197.03 -1518)" gradientUnits="userSpaceOnUse">
   <stop id="stop16136-6-3-7" style="stop-opacity:.50196" offset="0"/>
   <stop id="stop16138-4-6-2" style="stop-opacity:0" offset="1"/>
  </radialGradient>
  <linearGradient id="linearGradient5748" x1="529.25" x2="535" y1="-1568.6" y2="-1574.6" gradientTransform="matrix(1.6667 0 0 7 -91.667 9465.8)" gradientUnits="userSpaceOnUse">
   <stop id="stop10146" style="stop-color:#f00" offset="0"/>
   <stop id="stop10148" style="stop-color:#ffc600;stop-opacity:0" offset="1"/>
  </linearGradient>
  <linearGradient id="linearGradient5750" x1="-17" x2="144" y1="-1194.6" y2="-1194.6" gradientTransform="matrix(.28611 0 0 1 857.86 -364)" gradientUnits="userSpaceOnUse" xlink:href="#linearGradient8074-2"/>
  <linearGradient id="linearGradient5752" x1="-17" x2="144" y1="-1194.6" y2="-1194.6" gradientTransform="matrix(.18634 0 0 1 813.17 -365)" gradientUnits="userSpaceOnUse" xlink:href="#linearGradient8074-2"/>
  <linearGradient id="linearGradient5754" x1="-17" x2="144" y1="-1194.6" y2="-1194.6" gradientTransform="matrix(.50932 0 0 1 -1589 403.64)" gradientUnits="userSpaceOnUse">
   <stop id="stop11602" style="stop-color:#d40000;stop-opacity:0" offset="0"/>
   <stop id="stop11604" style="stop-color:#d40000" offset=".49306"/>
   <stop id="stop11606" style="stop-color:#d40000;stop-opacity:0" offset="1"/>
  </linearGradient>
 </defs>
 <metadata id="metadata3341">
  <rdf:RDF>
   <cc:Work rdf:about="">
    <dc:format>image/svg+xml</dc:format>
    <dc:type rdf:resource="http://purl.org/dc/dcmitype/StillImage"/>
    <dc:title/>
   </cc:Work>
  </rdf:RDF>
 </metadata>
 <g id="layer2" transform="translate(-32,-32)">
  <path id="rect4158-9" d="m173.84 58c-70.593 0-78.189 7.2508-77.843 77.987v154.01 154.01c-0.34598 70.736 7.2498 77.987 77.843 77.987h228.31c70.593 0 77.843-7.25 77.843-77.987v-154.01-154.01c0-70.737-7.2498-77.987-77.843-77.987z" style="color:#000000;enable-background:accumulate;filter:url(#filter4346);opacity:.1"/>
  <path id="path4350" d="m173.84 58c-70.593 0-78.189 7.2508-77.843 77.987v154.01 154.01c-0.34598 70.736 7.2498 77.987 77.843 77.987h228.31c70.593 0 77.843-7.25 77.843-77.987v-154.01-154.01c0-70.737-7.2498-77.987-77.843-77.987z" style="color:#000000;enable-background:accumulate;fill:url(#linearGradient4358);filter:url(#filter4380);opacity:.3"/>
 </g>
 <g id="layer3">
  <path id="rect4158" d="m141.84 24c-70.593 0-78.189 7.2508-77.843 77.987v154.01 154.01c-0.34598 70.736 7.2498 77.987 77.843 77.987h228.31c70.593 0 77.843-7.25 77.843-77.987v-154.01-154.01c0-70.737-7.2498-77.987-77.843-77.987z" style="color:#000000;enable-background:accumulate;fill:url(#linearGradient4226)"/>
  <path id="path4481" d="m141.84 24c-70.593 0-78.19 7.2501-77.844 77.986v154.01 154.01c-0.34598 70.736 7.2503 77.986 77.844 77.986h228.31c70.593 0 77.844-7.2493 77.844-77.986v-154.01-119.25l-15.975-15.975v135.22 154.01c0 17.411-0.53086 30.534-2.0156 39.385-1.4848 8.8508-3.5669 12.647-5.7637 14.848-2.1968 2.2005-5.9717 4.2786-14.797 5.7637s-21.918 2.0156-39.293 2.0156h-228.31c-17.375 0-30.491-0.53065-39.35-2.0176-8.8585-1.4869-12.682-3.5776-14.893-5.7832-2.2109-2.2056-4.2864-5.9748-5.7539-14.803-1.4675-8.828-1.9581-21.933-1.873-39.33 6.4e-5 -0.026 6.4e-5 -0.0521 0-0.0781v-154.01-154.01c6.4e-5 -0.026 6.4e-5 -0.0521 0-0.0781-0.08509-17.397 0.40558-30.502 1.873-39.33s3.5431-12.597 5.7539-14.803c2.2109-2.2056 6.0341-4.2963 14.893-5.7832 8.8585-1.4869 21.975-2.0176 39.35-2.0176h209.38l-15.975-15.975zm186.16 0 15.975 15.975 88.051 88.051 15.975 15.975v-42.014-2.9531c-0.1047-67.992-7.6048-75.033-76.348-75.033z" style="color:#000000;enable-background:accumulate;fill:url(#linearGradient4483)"/>
 </g>
 <g id="layer4">
  <path id="path4505-6" d="m221.81 124-35.188 71.656v59.25c-4.9399 5.788-10.339 11.62-15.969 17.25-18.503 18.503-39.248 34.687-53.125 39.312l-23.375-23.344-71.656 35.188v170.69h256v-317.56c-15.417-33.444-32.368-45.921-56.688-52.438zm-97.562 229c7e-3 -5e-3 0.0239 5e-3 0.0312 0-2.6107 1.6304-5.251 3.2267-7.9062 4.8125 2.6559-1.5856 5.2637-3.1824 7.875-4.8125zm-24.094 14.062c8e-3 -4e-3 0.0234 4e-3 0.0312 0-2.7418 1.4991-5.5286 2.9806-8.3125 4.4375 2.7843-1.4568 5.5391-2.9386 8.2813-4.4375z" style="color:#000000;enable-background:accumulate;fill-opacity:0;opacity:.05"/>
  <g id="g21475" transform="matrix(1.75 0 0 1.75 -1231.5 2961.7)">
   <rect id="rect10490" x="815" y="-1494.6" width="25" height="5" style="color:#000000;fill:url(#radialGradient5744);opacity:.5"/>
   <rect id="rect10563" x="789" y="-1498.6" width="121" height="8" style="color:#000000;fill:url(#radialGradient21562);opacity:.4"/>
   <path id="path10476" d="m846.24-1508.6-24.242 16h9.7688l3.3981-1.114 18.833-14.886z" style="fill:#4d4d4d"/>
   <use id="use14177" transform="matrix(-1,0,0,1,1699,0)" width="5033" height="1085" xlink:href="#path10476"/>
   <path id="path10478" d="m854-1508.6 24 16h-10.011l-3.0862-0.878-18.903-15.122z" style="fill:#4d4d4d"/>
   <path id="path9896" d="m844.24-1508.6-24.242 16h11.758l20.242-16h-7.7576z" style="fill:url(#linearGradient4407)"/>
   <rect id="rect9898" x="844" y="-1512.6" width="12" height="6.0001" style="color:#000000;fill:url(#linearGradient4407)"/>
   <rect id="rect9902" x="786" y="-1602.6" width="128" height="92" rx="1" ry="1" style="color:#000000;fill:#a33e03"/>
   <rect id="rect9904" x="789" y="-1599.6" width="122" height="86" rx="2" ry="2" style="color:#000000;fill:url(#linearGradient21568)"/>
   <rect id="rect9906" x="789" y="-1599.6" width="122" height="86" rx="2" ry="2" style="color:#000000;fill:url(#linearGradient21570)"/>
   <rect id="rect10082" x="790" y="-1598.6" width="20" height="84" rx="2" ry="2" style="color:#000000;fill:url(#linearGradient5748);opacity:.35"/>
   <rect id="rect10603" x="850" y="-1559.6" width="52" height="36" style="color:#000000;fill:#fff;opacity:.5"/>
   <rect id="rect10090" transform="rotate(90)" x="-1545.6" y="-882" width="32" height="64" style="color:#000000;fill:url(#radialGradient21574)"/>
   <g id="g10220" style="opacity:.5">
    <rect id="rect10204" x="810" y="-1558.6" width="30" height="4" style="color:#000000;fill:#fff"/>
    <rect id="rect10206" x="810" y="-1548.6" width="30" height="4" style="color:#000000;fill:#fff"/>
    <rect id="rect10208" x="810" y="-1538.6" width="30" height="4" style="color:#000000;fill:#fff"/>
    <rect id="rect10210" x="810" y="-1528.6" width="30" height="4" style="color:#000000;fill:#fff"/>
   </g>
   <rect id="rect9910" x="810" y="-1559.6" width="30" height="4" style="color:#000000;fill:url(#linearGradient21576)"/>
   <g id="g10182">
    <path id="path10176" transform="matrix(.36364 0 0 .38095 476.36 -1794.9)" d="m901 651.75a5.5 5.25 0 1 1-11 0 5.5 5.25 0 1 1 11 0z" style="color:#000000;fill:#fff"/>
    <path id="path10178" transform="matrix(.36364 0 0 .38095 476.36 -1784.9)" d="m901 651.75a5.5 5.25 0 1 1-11 0 5.5 5.25 0 1 1 11 0z" style="color:#000000;fill:#fff"/>
    <path id="path10174" transform="matrix(.36364 0 0 .38095 476.36 -1804.9)" d="m901 651.75a5.5 5.25 0 1 1-11 0 5.5 5.25 0 1 1 11 0z" style="color:#000000;fill:#fff"/>
    <path id="path10180" transform="matrix(.36364 0 0 .38095 476.36 -1774.9)" d="m901 651.75a5.5 5.25 0 1 1-11 0 5.5 5.25 0 1 1 11 0z" style="color:#000000;fill:#fff"/>
   </g>
   <path id="path9916" transform="matrix(.36364 0 0 .38095 476.36 -1805.9)" d="m901 651.75a5.5 5.25 0 1 1-11 0 5.5 5.25 0 1 1 11 0z" style="color:#000000;fill:url(#linearGradient21578)"/>
   <rect id="rect10287" x="798" y="-1589.6" width="104" height="5" style="color:#000000;fill:#fff"/>
   <rect id="rect9922" x="798" y="-1590.6" width="104" height="5" style="color:#000000;fill:url(#linearGradient21580)"/>
   <rect id="rect9926" x="850" y="-1560.6" width="52" height="36" style="color:#000000;fill:url(#linearGradient21582)"/>
   <rect id="rect9928" x="853" y="-1557.6" width="46" height="30" style="color:#000000;fill:#dfdfdf"/>
   <rect id="rect9930" x="853" y="-1557.6" width="46" height="30" style="color:#000000;fill:url(#linearGradient21584)"/>
   <rect id="rect9936" x="856" y="-1552.6" width="40" height="2" style="color:#000000;opacity:.05"/>
   <path id="path9942" d="m859-1533.6 11-11 8 8 15-15" style="fill:none;stroke-linecap:round;stroke-linejoin:round;stroke-width:3;stroke:url(#linearGradient21586)"/>
   <rect id="rect10289" x="818" y="-1579.6" width="64" height="5" style="color:#000000;fill:#fff"/>
   <rect id="rect9948" x="818" y="-1580.6" width="64" height="5" style="color:#000000;fill:url(#linearGradient21588)"/>
   <rect id="rect10100" x="790" y="-1599.6" width="117" height="1" style="color:#000000;fill:url(#linearGradient21590)"/>
   <rect id="rect10156" x="810" y="-1549.6" width="30" height="4" style="color:#000000;fill:url(#linearGradient21576)"/>
   <path id="path10158" transform="matrix(.36364 0 0 .38095 476.36 -1795.9)" d="m901 651.75a5.5 5.25 0 1 1-11 0 5.5 5.25 0 1 1 11 0z" style="color:#000000;fill:url(#linearGradient21594)"/>
   <rect id="rect10162" x="810" y="-1539.6" width="30" height="4" style="color:#000000;fill:url(#linearGradient21576)"/>
   <path id="path10164" transform="matrix(.36364 0 0 .38095 476.36 -1785.9)" d="m901 651.75a5.5 5.25 0 1 1-11 0 5.5 5.25 0 1 1 11 0z" style="color:#000000;fill:url(#linearGradient21598)"/>
   <rect id="rect10168" x="810" y="-1529.6" width="30" height="4" style="color:#000000;fill:url(#linearGradient21576)"/>
   <path id="path10170" transform="matrix(.36364 0 0 .38095 476.36 -1775.9)" d="m901 651.75a5.5 5.25 0 1 1-11 0 5.5 5.25 0 1 1 11 0z" style="color:#000000;fill:url(#linearGradient21602)"/>
   <rect id="rect10320" x="798" y="-1590.6" width="104" height="1" style="color:#000000;fill:url(#linearGradient21604);opacity:.25"/>
   <rect id="rect10324" x="818" y="-1580.6" width="64" height="1" style="color:#000000;fill:url(#linearGradient21606);opacity:.5"/>
   <rect id="rect10448" x="792" y="-1513.6" width="116" height="1" style="color:#000000;fill:url(#linearGradient21608);opacity:.5"/>
   <rect id="rect10629" x="853" y="-1558.6" width="46.063" height="1" style="color:#000000;fill:url(#linearGradient5750);opacity:.25"/>
   <rect id="rect10638" x="853.15" y="-1528.6" width="46.063" height="1" style="color:#000000;fill:url(#linearGradient21612)"/>
   <rect id="rect10652" x="810" y="-1559.6" width="30" height="1" style="color:#000000;fill:url(#linearGradient5752);opacity:.25"/>
   <rect id="rect11596" transform="rotate(90)" x="-1597.6" y="-791" width="82" height="1" style="color:#000000;fill:url(#linearGradient5754);opacity:.15"/>
   <use id="use14087" transform="translate(119)" width="5033" height="1085" xlink:href="#rect11596"/>
   <use id="use14089" transform="matrix(-1,0,0,1,1700,0)" width="5033" height="1085" xlink:href="#rect10082"/>
   <use id="use14091" transform="translate(0,10)" width="5033" height="1085" xlink:href="#rect10652"/>
   <use id="use14093" transform="translate(0,20)" width="5033" height="1085" xlink:href="#rect10652"/>
   <use id="use14095" transform="translate(0,30)" width="5033" height="1085" xlink:href="#rect10652"/>
   <use id="use14097" transform="translate(0,31)" width="5033" height="1085" xlink:href="#rect10629"/>
   <use id="use14103" transform="translate(0,6)" width="5033" height="1085" xlink:href="#rect9936"/>
   <use id="use14105" transform="translate(0,12)" width="5033" height="1085" xlink:href="#rect9936"/>
   <use id="use14107" transform="translate(0,17)" width="5033" height="1085" xlink:href="#rect9936"/>
   <path id="path9945" d="m859-1533.6 11-11 8 8 15-15" style="fill:none;stroke-linecap:round;stroke-linejoin:round;stroke-width:1.5;stroke:url(#linearGradient21618)"/>
   <use id="use14175" transform="matrix(-1,0,0,1,1699,0)" width="5033" height="1085" xlink:href="#rect10490"/>
   <use id="use14179" transform="matrix(-1,0,0,1,1699,0)" width="5033" height="1085" xlink:href="#path9896"/>
  </g>
 </g>
 <g id="layer5" transform="translate(-32,-32)">
  <path id="path4231" d="m288 56v464h114.16c70.593 0 77.844-7.2493 77.844-77.986v-154.01-154.01c0-70.737-7.2503-77.986-77.844-77.986z" style="color:#000000;enable-background:accumulate;fill:#fff;opacity:.07"/>
  <path id="path4255" d="m96 288v154.01c-0.34598 70.736 7.2503 77.986 77.844 77.986h228.31c70.593 0 77.844-7.2493 77.844-77.986v-154.01z" style="color:#000000;enable-background:accumulate;fill:#fff;opacity:.07"/>
 </g>
 <g id="layer1" transform="translate(-32,-32)">
  <path id="path4254" d="m360 520 120-120v44.968c-0.1047 67.992-7.6054 75.032-76.348 75.032z" style="color:#000000;enable-background:accumulate;fill:#fff;opacity:.15"/>
  <path id="path4286" d="m173.84 56c-68.982 0-77.805 6.9589-77.85 73.277 0.22272-64.485 9.5571-71.277 77.85-71.277h228.31c70.593 0 77.844 7.2493 77.844 77.986v-2c0-70.737-7.2503-77.986-77.844-77.986z" style="color:#000000;enable-background:accumulate;fill:#fff;opacity:.3"/>
  <path id="path4295" d="m480 440.01c0 70.737-7.2503 77.986-77.844 77.986h-228.31c-68.292 0-77.627-6.7926-77.85-71.277 0.044202 66.318 8.8674 73.277 77.85 73.277h228.31c70.593 0 77.844-7.2493 77.844-77.986z" style="color:#000000;enable-background:accumulate;opacity:.1"/>
 </g>
</svg>
