<?xml version="1.0" encoding="UTF-8"?>
<!-- Created with Inkscape (http://www.inkscape.org/) -->
<svg id="svg3336" width="512" height="512" style="enable-background:new" version="1.1" viewBox="0 0 512 512" xmlns="http://www.w3.org/2000/svg" xmlns:cc="http://creativecommons.org/ns#" xmlns:dc="http://purl.org/dc/elements/1.1/" xmlns:rdf="http://www.w3.org/1999/02/22-rdf-syntax-ns#" xmlns:xlink="http://www.w3.org/1999/xlink">
 <defs id="defs3338">
  <linearGradient id="linearGradient4226" x1="512" x2="-1e-6" y1="397.99" y2="125.99" gradientTransform="matrix(0 -.90625 .90622 0 4.0752 488)" gradientUnits="userSpaceOnUse">
   <stop id="stop4340" style="stop-color:#ebebeb" offset="0"/>
   <stop id="stop4342" style="stop-color:#f5f5f5" offset="1"/>
  </linearGradient>
  <filter id="filter4346" x="-.01325" y="-.010966" width="1.0265" height="1.0219" style="color-interpolation-filters:sRGB">
   <feGaussianBlur id="feGaussianBlur4348" stdDeviation="2.120027"/>
  </filter>
  <linearGradient id="linearGradient4358" x1="88" x2="488" y1="88" y2="488" gradientUnits="userSpaceOnUse">
   <stop id="stop4362" style="stop-opacity:.58824" offset="0"/>
   <stop id="stop4364" style="stop-opacity:0" offset=".88"/>
   <stop id="stop4366" offset="1"/>
  </linearGradient>
  <filter id="filter4380" x="-.052999" y="-.043863" width="1.106" height="1.0877" style="color-interpolation-filters:sRGB">
   <feGaussianBlur id="feGaussianBlur4382" stdDeviation="8.4801079"/>
  </filter>
 </defs>
 <metadata id="metadata3341">
  <rdf:RDF>
   <cc:Work rdf:about="">
    <dc:format>image/svg+xml</dc:format>
    <dc:type rdf:resource="http://purl.org/dc/dcmitype/StillImage"/>
    <dc:title/>
   </cc:Work>
  </rdf:RDF>
 </metadata>
 <g id="layer2" transform="translate(-32,-32)">
  <path id="rect4158-9" d="m173.84 58c-70.593 0-78.189 7.2508-77.843 77.987v154.01 154.01c-0.34598 70.736 7.2498 77.987 77.843 77.987h228.31c70.593 0 77.843-7.25 77.843-77.987v-154.01-154.01c0-70.737-7.2498-77.987-77.843-77.987z" style="color:#000000;enable-background:accumulate;filter:url(#filter4346);opacity:.1"/>
  <path id="path4350" d="m173.84 58c-70.593 0-78.189 7.2508-77.843 77.987v154.01 154.01c-0.34598 70.736 7.2498 77.987 77.843 77.987h228.31c70.593 0 77.843-7.25 77.843-77.987v-154.01-154.01c0-70.737-7.2498-77.987-77.843-77.987z" style="color:#000000;enable-background:accumulate;fill:url(#linearGradient4358);filter:url(#filter4380);opacity:.3"/>
 </g>
 <g id="layer3">
  <path id="rect4158" d="m141.84 24c-70.593 0-78.189 7.2508-77.843 77.987v154.01 154.01c-0.34598 70.736 7.2498 77.987 77.843 77.987h228.31c70.593 0 77.843-7.25 77.843-77.987v-154.01-154.01c0-70.737-7.2498-77.987-77.843-77.987z" style="color:#000000;enable-background:accumulate;fill:url(#linearGradient4226)"/>
 </g>
 <g id="layer4">
  <path id="path4505-6" d="m221.81 124-35.188 71.656v59.25c-4.9399 5.788-10.339 11.62-15.969 17.25-18.503 18.503-39.248 34.687-53.125 39.312l-23.375-23.344-71.656 35.188v170.69h256v-317.56c-15.417-33.444-32.368-45.921-56.688-52.438zm-97.562 229c7e-3 -5e-3 0.0239 5e-3 0.0312 0-2.6107 1.6304-5.251 3.2267-7.9062 4.8125 2.6559-1.5856 5.2637-3.1824 7.875-4.8125zm-24.094 14.062c8e-3 -4e-3 0.0234 4e-3 0.0312 0-2.7418 1.4991-5.5286 2.9806-8.3125 4.4375 2.7843-1.4568 5.5391-2.9386 8.2813-4.4375z" style="color:#000000;enable-background:accumulate;fill-opacity:0;opacity:.05"/>
  <path id="path4238" d="m275.58 116.57-97.348 115.29c25.354 4.0662 68.17 36.122 61.712 78.694 13.155-31.573-11.004-70.084-34.205-85.632l84.913-101.42c-4.548-3.3487-8.1349-5.024-15.071-6.9375zm-32.748 8.038c-3.7864 0.0116-6.6272 0.57367-6.4777 0.57367l-31.094 35.638c-17.461 0.95675-34.445 2.1538-50.949 3.8281-11.72 1.1959-21.049 10.524-22.723 22.962-2.3919 21.766-3.587 44.729-3.587 68.408 0 23.68 1.1952 46.642 3.587 68.647 1.6743 13.876 11.003 20.813 22.723 22.962 32.53 5.2622 79.652 0.23981 79.652-44.489 0-41.858-68.649-59.798-92.089-48.317l108.35-129.4c-2.5115-0.62787-5.1232-0.8195-7.3951-0.8125zm71.496 36.69s-60.989 135.38-66.969 149.26c-9.0893 20.57-21.527 35.64-39.467 40.902 15.787 0.71756 31.572 0.95535 47.837 0.95535 35.636 0 69.605-1.674 101.42-4.7835 11.717-1.196 21.288-10.763 22.723-22.962 2.6344-22.006 3.8259-44.967 3.8259-68.647 0-23.68-1.1915-46.642-3.8259-68.408-1.4351-12.438-11.003-21.766-22.723-22.962-13.873-1.4352-28.225-2.6329-42.819-3.3504zm82.047 5.9799c-5.2588 0-9.568 4.307-9.5714 9.5692 0 5.5014 4.3092 9.8058 9.5714 9.8058 5.2622 0 9.3237-4.3044 9.3237-9.8058 0-5.2622-4.0615-9.5692-9.3237-9.5692zm0 1.6741c4.0629 0 7.4164 3.5897 7.413 7.8951 0 4.5446-3.35 8.1317-7.413 8.1317-4.0662 0-7.4152-3.5871-7.4152-8.1317 0-4.3054 3.3456-7.8951 7.4152-7.8951zm-0.47544 2.6317c-1.4351 0-2.156-3.6e-4 -3.1094 0.23882v10.763h1.9129 7e-3v-4.5446h0.95312c1.4318 0 2.1518 0.48039 2.1518 1.6763 0.23919 1.4352 0.48173 2.3899 0.71429 2.8683h1.9152c0-0.47839-0.23627-0.95513-0.47545-2.6295-0.2392-1.6743-0.95987-2.6317-1.6741-2.6317v-0.23885c0.95344-0.2392 1.9129-1.1965 1.9129-2.6317 0-0.95675-0.23893-1.6734-0.95982-2.1518-0.72089-0.47838-1.6739-0.71874-3.3482-0.71874zm-1.1964 1.4353h1.192c1.6743 0 2.3951 0.71734 2.3951 1.6741 0 1.196-1.1988 1.6741-2.6339 1.6741h-0.95314v-3.3482z" style="clip-rule:evenodd;enable-background:new;fill-rule:evenodd;fill:#d71628"/>
 </g>
 <g id="layer5" transform="translate(-32,-32)">
  <path id="path4231" d="m288 56v464h114.16c70.593 0 77.844-7.2493 77.844-77.986v-154.01-154.01c0-70.737-7.2503-77.986-77.844-77.986z" style="color:#000000;enable-background:accumulate;fill:#fff;opacity:.1"/>
  <path id="path4255" d="m96 288v154.01c-0.34598 70.736 7.2503 77.986 77.844 77.986h228.31c70.593 0 77.844-7.2493 77.844-77.986v-154.01z" style="color:#000000;enable-background:accumulate;fill:#fff;opacity:.1"/>
 </g>
 <g id="layer1" transform="translate(-32,-32)">
  <path id="path4254" d="m360 520 120-120v44.968c-0.1047 67.992-7.6054 75.032-76.348 75.032z" style="color:#000000;enable-background:accumulate;fill:#fff;opacity:.5"/>
  <path id="path4286" d="m173.84 56c-68.982 0-77.805 6.9589-77.85 73.277 0.22272-64.485 9.5571-71.277 77.85-71.277h228.31c70.593 0 77.844 7.2493 77.844 77.986v-2c0-70.737-7.2503-77.986-77.844-77.986z" style="color:#000000;enable-background:accumulate;fill:#fff;opacity:.6"/>
  <path id="path4295" d="m480 440.01c0 70.737-7.2503 77.986-77.844 77.986h-228.31c-68.292 0-77.627-6.7926-77.85-71.277 0.044202 66.318 8.8674 73.277 77.85 73.277h228.31c70.593 0 77.844-7.2493 77.844-77.986z" style="color:#000000;enable-background:accumulate;opacity:.1"/>
 </g>
</svg>
