<?xml version="1.0" encoding="UTF-8"?>
<!-- Created with Inkscape (http://www.inkscape.org/) -->
<svg id="svg3336" width="512" height="512" style="enable-background:new" version="1.1" viewBox="0 0 512 512" xmlns="http://www.w3.org/2000/svg" xmlns:cc="http://creativecommons.org/ns#" xmlns:dc="http://purl.org/dc/elements/1.1/" xmlns:rdf="http://www.w3.org/1999/02/22-rdf-syntax-ns#" xmlns:xlink="http://www.w3.org/1999/xlink">
 <defs id="defs3338">
  <linearGradient id="linearGradient4226" x1="512" x2="-1.1034e-6" y1="154.4" y2="401.58" gradientTransform="matrix(0 -.90625 .90622 0 4.0752 488)" gradientUnits="userSpaceOnUse">
   <stop id="stop4248" style="stop-color:#e20e0e" offset="0"/>
   <stop id="stop4250" style="stop-color:#f72424" offset="1"/>
  </linearGradient>
  <filter id="filter4346" x="-.01325" y="-.010966" width="1.0265" height="1.0219" style="color-interpolation-filters:sRGB">
   <feGaussianBlur id="feGaussianBlur4348" stdDeviation="2.120027"/>
  </filter>
  <linearGradient id="linearGradient4358" x1="88" x2="488" y1="88" y2="488" gradientUnits="userSpaceOnUse">
   <stop id="stop4362" style="stop-opacity:.58824" offset="0"/>
   <stop id="stop4364" style="stop-opacity:0" offset=".88"/>
   <stop id="stop4366" offset="1"/>
  </linearGradient>
  <filter id="filter4380" x="-.052999" y="-.043863" width="1.106" height="1.0877" style="color-interpolation-filters:sRGB">
   <feGaussianBlur id="feGaussianBlur4382" stdDeviation="8.4801079"/>
  </filter>
 </defs>
 <metadata id="metadata3341">
  <rdf:RDF>
   <cc:Work rdf:about="">
    <dc:format>image/svg+xml</dc:format>
    <dc:type rdf:resource="http://purl.org/dc/dcmitype/StillImage"/>
    <dc:title/>
   </cc:Work>
  </rdf:RDF>
 </metadata>
 <g id="layer2" transform="translate(-32,-32)">
  <path id="rect4158-9" d="m173.84 58c-70.593 0-78.189 7.2508-77.843 77.987v154.01 154.01c-0.34598 70.736 7.2498 77.987 77.843 77.987h228.31c70.593 0 77.843-7.25 77.843-77.987v-154.01-154.01c0-70.737-7.2498-77.987-77.843-77.987z" style="color:#000000;enable-background:accumulate;filter:url(#filter4346);opacity:.1"/>
  <path id="path4350" d="m173.84 58c-70.593 0-78.189 7.2508-77.843 77.987v154.01 154.01c-0.34598 70.736 7.2498 77.987 77.843 77.987h228.31c70.593 0 77.843-7.25 77.843-77.987v-154.01-154.01c0-70.737-7.2498-77.987-77.843-77.987z" style="color:#000000;enable-background:accumulate;fill:url(#linearGradient4358);filter:url(#filter4380);opacity:.3"/>
 </g>
 <g id="layer3">
  <path id="rect4158" d="m141.84 24c-70.593 0-78.189 7.2508-77.843 77.987v154.01 154.01c-0.34598 70.736 7.2498 77.987 77.843 77.987h228.31c70.593 0 77.843-7.25 77.843-77.987v-154.01-154.01c0-70.737-7.2498-77.987-77.843-77.987z" style="color:#000000;enable-background:accumulate;fill:url(#linearGradient4226)"/>
 </g>
 <g id="layer4">
  <path id="path4505-6" d="m221.81 124-35.188 71.656v59.25c-4.9399 5.788-10.339 11.62-15.969 17.25-18.503 18.503-39.248 34.687-53.125 39.312l-23.375-23.344-71.656 35.188v170.69h256v-317.56c-15.417-33.444-32.368-45.921-56.688-52.438zm-97.562 229c7e-3 -5e-3 0.0239 5e-3 0.0312 0-2.6107 1.6304-5.251 3.2267-7.9062 4.8125 2.6559-1.5856 5.2637-3.1824 7.875-4.8125zm-24.094 14.062c8e-3 -4e-3 0.0234 4e-3 0.0312 0-2.7418 1.4991-5.5286 2.9806-8.3125 4.4375 2.7843-1.4568 5.5391-2.9386 8.2813-4.4375z" style="color:#000000;enable-background:accumulate;fill-opacity:0;opacity:.05"/>
  <g id="g32" transform="matrix(.71258 0 0 .71258 127.29 90.154)" style="enable-background:new;fill:#fff;stroke-width:.54986">
   <path id="path4463" d="m115.93 262.79c11.188-21.929 23.903-46.636 34.08-71.441l4.024-9.792c-13.293-50.584-21.264-91.188-14.143-117.44 1.917-6.845 9.845-10.998 18.321-10.998l5.165 0.076h0.948c11.604-0.178 17.068 14.583 17.688 20.322 1.024 9.558-3.398 25.734-3.398 25.734 0-6.532 0.256-17.087-3.867-26.195-4.799-10.539-9.383-16.835-13.493-17.833-2.075 1.386-4.092 4.256-4.783 9.777-1.431 7.741-1.86 17.512-1.86 22.549 0 17.796 3.504 41.285 10.39 65.499 1.299-3.749 2.442-7.351 3.351-10.726 1.412-5.319 10.389-40.578 10.389-40.578s-2.262 46.935-5.422 61.136c-0.677 3.001-1.424 5.969-2.202 9.007 11.355 31.727 29.652 60.044 51.479 80.424 8.606 8.043 19.475 14.528 29.762 20.439 22.465-3.21 43.149-4.726 60.405-4.535 22.894 0.302 39.699 3.688 46.504 10.391 3.332 3.258 4.684 7.193 5.104 11.604 0.1 1.716-0.736 5.748-0.981 6.76 0.245-1.225 0.245-7.249-18.133-13.115-14.474-4.627-41.563-4.483-74.068-1.023 37.597 18.394 74.225 27.533 85.833 22.054 2.838-1.383 6.28-6.099 6.28-6.099s-2.046 9.296-3.515 11.62c-1.875 2.525-5.553 5.26-9.04 6.182-18.332 4.891-66.051-6.427-107.65-30.197-46.478 6.845-97.521 19.49-138.44 32.91-40.207 70.463-70.435 102.82-95.026 90.514l-9.041-4.546c-3.675-2.102-4.236-7.219-3.386-11.386 2.867-14.027 20.456-35.154 55.787-56.251 3.803-2.301 20.743-11.258 20.743-11.258s-12.541 12.138-15.479 14.52c-28.2 23.109-49.013 52.182-48.494 63.453l0.102 0.983c23.955-3.414 59.879-52.172 106.06-142.54m14.636 7.494c-7.714 14.528-15.254 27.998-22.215 40.366 38.506-16.133 79.95-26.457 119.4-33.791-5.302-3.661-10.449-7.538-15.292-11.636-21.725-18.393-38.288-41.34-50.294-65.487-7.614 20.513-16.668 42.311-31.6 70.548" style="fill:#fff;stroke-width:.54986"/>
  </g>
 </g>
 <g id="layer5" transform="translate(-32,-32)">
  <path id="path4231" d="m288 56v464h114.16c70.593 0 77.844-7.2493 77.844-77.986v-154.01-154.01c0-70.737-7.2503-77.986-77.844-77.986z" style="color:#000000;enable-background:accumulate;fill:#fff;opacity:.05"/>
  <path id="path4255" d="m96 288v154.01c-0.34598 70.736 7.2503 77.986 77.844 77.986h228.31c70.593 0 77.844-7.2493 77.844-77.986v-154.01z" style="color:#000000;enable-background:accumulate;fill:#fff;opacity:.05"/>
 </g>
 <g id="layer1" transform="translate(-32,-32)">
  <path id="path4254" d="m360 520 120-120v44.968c-0.1047 67.992-7.6054 75.032-76.348 75.032z" style="color:#000000;enable-background:accumulate;fill:#fff;opacity:.12"/>
  <path id="path4286" d="m173.84 56c-68.982 0-77.805 6.9589-77.85 73.277 0.22272-64.485 9.5571-71.277 77.85-71.277h228.31c70.593 0 77.844 7.2493 77.844 77.986v-2c0-70.737-7.2503-77.986-77.844-77.986z" style="color:#000000;enable-background:accumulate;fill:#fff;opacity:.3"/>
  <path id="path4295" d="m480 440.01c0 70.737-7.2503 77.986-77.844 77.986h-228.31c-68.292 0-77.627-6.7926-77.85-71.277 0.044202 66.318 8.8674 73.277 77.85 73.277h228.31c70.593 0 77.844-7.2493 77.844-77.986z" style="color:#000000;enable-background:accumulate;opacity:.1"/>
 </g>
</svg>
