<?xml version="1.0" encoding="UTF-8"?>
<!-- Created with Inkscape (http://www.inkscape.org/) -->
<svg id="svg3336" width="512" height="512" style="enable-background:new" version="1.1" viewBox="0 0 512 512" xmlns="http://www.w3.org/2000/svg" xmlns:cc="http://creativecommons.org/ns#" xmlns:dc="http://purl.org/dc/elements/1.1/" xmlns:rdf="http://www.w3.org/1999/02/22-rdf-syntax-ns#" xmlns:xlink="http://www.w3.org/1999/xlink">
 <defs id="defs3338">
  <linearGradient id="linearGradient4226" x1="512" x2="-1e-6" y1="397.99" y2="125.99" gradientTransform="matrix(0 -.90625 -.90622 0 507.91 488)" gradientUnits="userSpaceOnUse">
   <stop id="stop4292" style="stop-color:#ef1e5f" offset="0"/>
   <stop id="stop4272" style="stop-color:#f1374c" offset=".48272"/>
   <stop id="stop4294" style="stop-color:#ff725b" offset="1"/>
  </linearGradient>
  <filter id="filter4346" x="-.01325" y="-.010966" width="1.0265" height="1.0219" style="color-interpolation-filters:sRGB">
   <feGaussianBlur id="feGaussianBlur4348" stdDeviation="2.120027"/>
  </filter>
  <linearGradient id="linearGradient4358" x1="88" x2="488" y1="88" y2="488" gradientUnits="userSpaceOnUse">
   <stop id="stop4362" style="stop-opacity:.58824" offset="0"/>
   <stop id="stop4364" style="stop-opacity:0" offset=".88"/>
   <stop id="stop4366" offset="1"/>
  </linearGradient>
  <filter id="filter4380" x="-.052999" y="-.043863" width="1.106" height="1.0877" style="color-interpolation-filters:sRGB">
   <feGaussianBlur id="feGaussianBlur4382" stdDeviation="8.4801079"/>
  </filter>
 </defs>
 <metadata id="metadata3341">
  <rdf:RDF>
   <cc:Work rdf:about="">
    <dc:format>image/svg+xml</dc:format>
    <dc:type rdf:resource="http://purl.org/dc/dcmitype/StillImage"/>
    <dc:title/>
   </cc:Work>
  </rdf:RDF>
 </metadata>
 <g id="layer2" transform="translate(-32,-32)">
  <path id="rect4158-9" d="m173.84 58c-70.593 0-78.189 7.2508-77.843 77.987v154.01 154.01c-0.34598 70.736 7.2498 77.987 77.843 77.987h228.31c70.593 0 77.843-7.25 77.843-77.987v-154.01-154.01c0-70.737-7.2498-77.987-77.843-77.987z" style="color:#000000;enable-background:accumulate;filter:url(#filter4346);opacity:.1"/>
  <path id="path4350" d="m173.84 58c-70.593 0-78.189 7.2508-77.843 77.987v154.01 154.01c-0.34598 70.736 7.2498 77.987 77.843 77.987h228.31c70.593 0 77.843-7.25 77.843-77.987v-154.01-154.01c0-70.737-7.2498-77.987-77.843-77.987z" style="color:#000000;enable-background:accumulate;fill:url(#linearGradient4358);filter:url(#filter4380);opacity:.3"/>
 </g>
 <g id="layer3">
  <path id="rect4158" d="m370.15 24c70.593 0 78.189 7.2508 77.843 77.987v154.01 154.01c0.34598 70.736-7.2498 77.987-77.843 77.987h-228.31c-70.593 0-77.843-7.25-77.843-77.987v-154.01-154.01c0-70.737 7.2498-77.987 77.843-77.987z" style="color:#000000;enable-background:accumulate;fill:url(#linearGradient4226)"/>
 </g>
 <g id="layer4">
  <path id="path4505-6" d="m221.81 124-35.188 71.656v59.25c-4.9399 5.788-10.339 11.62-15.969 17.25-18.503 18.503-39.248 34.687-53.125 39.312l-23.375-23.344-71.656 35.188v170.69h256v-317.56c-15.417-33.444-32.368-45.921-56.688-52.438zm-97.562 229c7e-3 -5e-3 0.0239 5e-3 0.0312 0-2.6107 1.6304-5.251 3.2267-7.9062 4.8125 2.6559-1.5856 5.2637-3.1824 7.875-4.8125zm-24.094 14.062c8e-3 -4e-3 0.0234 4e-3 0.0312 0-2.7418 1.4991-5.5286 2.9806-8.3125 4.4375 2.7843-1.4568 5.5391-2.9386 8.2813-4.4375z" style="color:#000000;enable-background:accumulate;fill-opacity:0;opacity:.05"/>
  <path id="path4393-6" d="m329.29 130.78c-3.1448-0.035-7.3271 0.45684-12.89 1.2928l-94.878 14.887c-22.349 4.7589-22.349 6.2386-22.349 25.12v154.7c-1.6489-1.1544-3.2762-2.3164-4.9804-3.4584v6e-3c-7.1004-4.7583-14.666-8.1442-24.831-8.1442-12.732 0-20.327 4.8759-24.924 11.297-4.5963 6.4213-6.1204 14.516-6.1204 20.772 0 7.5448 2.5778 15.596 8.1661 21.733 5.5882 6.1362 14.18 10.435 26.533 10.435 13.95 0 23.762-3.8972 29.309-11.504 4.3674-5.9895 6.7805-13.99 7.6424-23.86v-0.0276c0.12065-1.1975 0.20745-2.4258 0.28365-3.693 0.11702-1.951 0.0928-5.6022 0.0928-5.6022v-117.3c0-16.758-8.4e-4 -17.758 22.354-21.58l72.551-11.057c22.396-2.9316 22.398-0.87828 22.398 11.69v107.95c-1.6489-1.1544-3.2762-2.3164-4.9804-3.4584v6e-3c-7.1004-4.7583-14.666-8.1442-24.831-8.1443-12.732 0-20.327 4.8759-24.924 11.297-4.5963 6.4213-6.1204 14.516-6.1204 20.772 0 7.5447 2.5778 15.596 8.1661 21.733 5.5882 6.1362 14.18 10.435 26.533 10.435 13.949 0 23.762-3.8972 29.309-11.504 4.3674-5.9896 6.7805-13.99 7.6424-23.86v-0.0275c0.12065-1.1975 0.20749-2.4258 0.28365-3.693 0.11702-1.951 0.0928-5.6022 0.0928-5.6022v-161.94c0-14.698-0.0954-19.565-9.5298-19.671z" style="enable-background:new;fill:#fef8f8;opacity:.6"/>
 </g>
 <g id="layer5" transform="translate(-32,-32)">
  <path id="path4231" d="m288 56v464h114.16c70.593 0 77.844-7.2493 77.844-77.986v-154.01-154.01c0-70.737-7.2503-77.986-77.844-77.986h-114.16z" style="color:#000000;enable-background:accumulate;fill:#fff;opacity:.05"/>
  <path id="path4255" d="m96 288v154.01c-0.34598 70.736 7.2503 77.986 77.844 77.986h228.31c70.593 0 77.844-7.2493 77.844-77.986v-154.01h-384z" style="color:#000000;enable-background:accumulate;fill:#fff;opacity:.05"/>
 </g>
 <g id="layer1" transform="translate(-32,-32)">
  <path id="path4254" d="m360 520 120-120v44.968c-0.1047 67.992-7.6054 75.032-76.348 75.032z" style="color:#000000;enable-background:accumulate;fill:#fff;opacity:.12"/>
  <path id="path4286" d="m173.84 56c-68.982 0-77.805 6.9589-77.85 73.277 0.22272-64.485 9.5571-71.277 77.85-71.277h228.31c70.593 0 77.844 7.2493 77.844 77.986v-2c0-70.737-7.2503-77.986-77.844-77.986z" style="color:#000000;enable-background:accumulate;fill:#fff;opacity:.3"/>
  <path id="path4295" d="m480 440.01c0 70.737-7.2503 77.986-77.844 77.986h-228.31c-68.292 0-77.627-6.7926-77.85-71.277 0.044202 66.318 8.8674 73.277 77.85 73.277h228.31c70.593 0 77.844-7.2493 77.844-77.986z" style="color:#000000;enable-background:accumulate;opacity:.1"/>
 </g>
</svg>
