<?xml version="1.0" encoding="UTF-8"?>
<!-- Created with Inkscape (http://www.inkscape.org/) -->
<svg id="svg3336" width="512" height="512" style="enable-background:new" version="1.1" viewBox="0 0 512 512" xmlns="http://www.w3.org/2000/svg" xmlns:cc="http://creativecommons.org/ns#" xmlns:dc="http://purl.org/dc/elements/1.1/" xmlns:rdf="http://www.w3.org/1999/02/22-rdf-syntax-ns#" xmlns:xlink="http://www.w3.org/1999/xlink">
 <defs id="defs3338">
  <linearGradient id="linearGradient4226" x1="512" x2="-1e-6" y1="397.99" y2="125.99" gradientTransform="matrix(0 -.90625 .90622 0 4.0752 488)" gradientUnits="userSpaceOnUse">
   <stop id="stop4340" style="stop-color:#ebebeb" offset="0"/>
   <stop id="stop4342" style="stop-color:#f5f5f5" offset="1"/>
  </linearGradient>
  <filter id="filter4346" x="-.01325" y="-.010966" width="1.0265" height="1.0219" style="color-interpolation-filters:sRGB">
   <feGaussianBlur id="feGaussianBlur4348" stdDeviation="2.120027"/>
  </filter>
  <linearGradient id="linearGradient4358" x1="88" x2="488" y1="88" y2="488" gradientUnits="userSpaceOnUse">
   <stop id="stop4362" style="stop-opacity:.58824" offset="0"/>
   <stop id="stop4364" style="stop-opacity:0" offset=".88"/>
   <stop id="stop4366" offset="1"/>
  </linearGradient>
  <filter id="filter4380" x="-.052999" y="-.043863" width="1.106" height="1.0877" style="color-interpolation-filters:sRGB">
   <feGaussianBlur id="feGaussianBlur4382" stdDeviation="8.4801079"/>
  </filter>
 </defs>
 <metadata id="metadata3341">
  <rdf:RDF>
   <cc:Work rdf:about="">
    <dc:format>image/svg+xml</dc:format>
    <dc:type rdf:resource="http://purl.org/dc/dcmitype/StillImage"/>
    <dc:title/>
   </cc:Work>
  </rdf:RDF>
 </metadata>
 <g id="layer2" transform="translate(-32,-32)">
  <path id="rect4158-9" d="m173.84 58c-70.593 0-78.189 7.2508-77.843 77.987v154.01 154.01c-0.34598 70.736 7.2498 77.987 77.843 77.987h228.31c70.593 0 77.843-7.25 77.843-77.987v-154.01-154.01c0-70.737-7.2498-77.987-77.843-77.987z" style="color:#000000;enable-background:accumulate;filter:url(#filter4346);opacity:.1"/>
  <path id="path4350" d="m173.84 58c-70.593 0-78.189 7.2508-77.843 77.987v154.01 154.01c-0.34598 70.736 7.2498 77.987 77.843 77.987h228.31c70.593 0 77.843-7.25 77.843-77.987v-154.01-154.01c0-70.737-7.2498-77.987-77.843-77.987z" style="color:#000000;enable-background:accumulate;fill:url(#linearGradient4358);filter:url(#filter4380);opacity:.3"/>
 </g>
 <g id="layer3">
  <path id="rect4158" d="m141.84 24c-70.593 0-78.189 7.2508-77.843 77.987v154.01 154.01c-0.34598 70.736 7.2498 77.987 77.843 77.987h228.31c70.593 0 77.843-7.25 77.843-77.987v-154.01-154.01c0-70.737-7.2498-77.987-77.843-77.987z" style="color:#000000;enable-background:accumulate;fill:url(#linearGradient4226)"/>
 </g>
 <g id="layer4">
  <path id="path4505-6" d="m221.81 124-35.188 71.656v59.25c-4.9399 5.788-10.339 11.62-15.969 17.25-18.503 18.503-39.248 34.687-53.125 39.312l-23.375-23.344-71.656 35.188v170.69h256v-317.56c-15.417-33.444-32.368-45.921-56.688-52.438zm-97.562 229c7e-3 -5e-3 0.0239 5e-3 0.0312 0-2.6107 1.6304-5.251 3.2267-7.9062 4.8125 2.6559-1.5856 5.2637-3.1824 7.875-4.8125zm-24.094 14.062c8e-3 -4e-3 0.0234 4e-3 0.0312 0-2.7418 1.4991-5.5286 2.9806-8.3125 4.4375 2.7843-1.4568 5.5391-2.9386 8.2813-4.4375z" style="color:#000000;enable-background:accumulate;fill-opacity:0;opacity:.05"/>
  <path id="path4202" d="m293.66 162.56c-7.0079 0-13.645 1.3057-19.744 3.9404-6.0669 2.5044-11.42 6.1784-15.887 10.93l-0.0534 0.0624c-4.3486 4.7707-7.7093 10.506-10.08 17.044v5e-3c-2.4072 6.5228-3.5807 13.681-3.5807 21.37 0 7.7991 1.1683 15.007 3.5807 21.542 2.3759 6.4361 5.7398 12.11 10.08 16.872l0.0534 0.0624c4.459 4.7438 9.7887 8.4711 15.834 11.091l0.047 0.0213 0.0416 0.016c6.0926 2.5086 12.713 3.7423 19.707 3.7423 6.9943 0 13.615-1.2337 19.707-3.7423l0.047-0.016 0.0416-0.0213c6.0532-2.6236 11.341-6.3723 15.694-11.144 4.4595-4.7572 7.8991-10.437 10.278-16.882 2.4124-6.5348 3.5755-13.743 3.5755-21.542 0-7.6768-1.1655-14.824-3.5651-21.339v-5e-3c-2.3749-6.5603-5.8134-12.311-10.289-17.085-4.3597-4.779-9.6722-8.4747-15.746-10.982-6.0983-2.6347-12.736-3.9404-19.744-3.9404zm0 10.674c5.7177 0 10.844 1.0342 15.553 3.0752l0.047 0.0214 0.0416 0.016c4.725 1.9455 8.6544 4.6883 11.977 8.3342l0.0534 0.0624c3.4379 3.6573 6.1228 8.0816 8.0684 13.458l5e-3 0.0214 5e-3 0.016c1.92 5.201 2.9188 11.061 2.9188 17.674 0 6.7398-1.0028 12.656-2.9188 17.846-1.9413 5.2588-4.624 9.6417-8.0788 13.317l-0.0534 0.0624c-3.3253 3.6482-7.2744 6.4552-12.009 8.5166-4.72 1.9387-9.8721 2.9292-15.61 2.9292-5.7381 0-10.89-0.99054-15.61-2.9292-4.7355-2.0617-8.7571-4.8854-12.212-8.5531-3.3402-3.6734-5.981-8.0698-7.9277-13.343-1.916-5.1901-2.9188-11.107-2.9188-17.846 0-6.6138 0.99881-12.473 2.9188-17.674l5e-3 -0.016 5e-3 -0.0213c1.9507-5.3899 4.5935-9.8282 7.9173-13.484 3.4529-3.6652 7.456-6.4253 12.181-8.3707l0.047-0.016 0.0416-0.0213c4.7089-2.041 9.8355-3.0752 15.553-3.0752zm-98.332 17.054c-5.3459 0-10.449 1.0005-15.136 3.0231-4.6559 1.923-8.7858 4.7574-12.217 8.4072l-0.0267 0.0267-0.0267 0.0312c-3.3512 3.6757-5.9276 8.0888-7.7348 13.077l-5e-3 0.0107c-1.8364 4.9859-2.7208 10.434-2.7208 16.246 0 5.9021 0.8831 11.398 2.7312 16.403 1.8115 4.9062 4.3926 9.2658 7.7296 12.926l0.0534 0.0624c3.4243 3.6421 7.5306 6.5084 12.165 8.5167l0.047 0.0213 0.0416 0.0213c4.6814 1.9271 9.7675 2.8667 15.1 2.8667 5.3322 0 10.413-0.93957 15.094-2.8667l0.047-0.0213 0.0416-0.0213c4.642-2.0115 8.7221-4.8991 12.071-8.5688 3.4247-3.6556 6.0658-8.021 7.8808-12.937 1.848-5.005 2.7312-10.501 2.7312-16.403 0-5.8122-0.88438-11.26-2.7207-16.246l-5e-3 -0.0107c-1.8127-5.0035-4.4512-9.4243-7.8964-13.098-3.3546-3.6721-7.455-6.5197-12.113-8.4437-4.6871-2.0226-9.7849-3.0231-15.131-3.0231zm0 10.674c4.0558 0 7.6425 0.72872 10.94 2.1578l0.047 0.0214 0.047 0.016c3.3139 1.3642 6.0302 3.2672 8.3499 5.8115l0.0267 0.0312 0.0312 0.0267c2.403 2.5558 4.2844 5.655 5.6656 9.4705l5e-3 0.016 0.0107 0.016c1.3554 3.671 2.0692 7.8349 2.0692 12.582 0 4.8425-0.7178 9.0471-2.0692 12.707-1.3767 3.7287-3.2613 6.7977-5.6812 9.3715l-0.0312 0.0312-0.0267 0.0312c-2.3261 2.5515-5.076 4.5022-8.4072 5.9523-3.3032 1.3516-6.9094 2.0536-10.977 2.0536-4.0691 0-7.6775-0.70072-10.982-2.0536-3.3296-1.4492-6.1299-3.4156-8.5532-5.9836-2.3402-2.5735-4.2039-5.6505-5.5874-9.3975-1.352-3.6629-2.0692-7.8699-2.0692-12.712 0-4.7472 0.71375-8.9112 2.0692-12.582l0.01-0.032c1.3875-3.8332 3.2531-6.9408 5.577-9.4966 2.4165-2.5603 5.19-4.4798 8.501-5.8428l0.047-0.016 0.0416-0.0213c3.2979-1.4291 6.8898-2.1578 10.946-2.1578zm98.369 84.327c-36.114 0-58.346 3.2333-72.48 13.708-7.0672 5.2373-11.724 12.37-14.375 20.807-2.6509 8.4364-3.4921 18.177-3.5182 29.6l10.674 0.0267c0.024-10.89 0.90079-19.655 3.0282-26.426 2.1274-6.7705 5.3108-11.551 10.549-15.433 10.477-7.7644 30.712-11.607 66.121-11.607 35.409 3e-5 55.644 3.8452 66.111 11.607 5.2333 3.8811 8.4105 8.6589 10.529 15.428 2.1182 6.7691 2.9788 15.531 2.9866 26.42l10.674-0.0107c-8e-3 -11.423-0.83101-21.162-3.4713-29.6-2.6403-8.4378-7.296-15.574-14.36-20.812-14.127-10.477-36.356-13.708-72.47-13.708zm-98.343 0.0886c-26.424 0-42.911 2.1909-53.732 10.263-5.4103 4.0359-9.0054 9.6195-11.003 16.095-1.9974 6.4756-2.6025 13.852-2.6217 22.48v15.209h10.674v-15.194c0.0187-8.1038 0.66078-14.528 2.1474-19.348 1.4874-4.8219 3.618-8.026 7.1824-10.685 7.1287-5.3178 21.614-8.1466 47.352-8.1466z" style="color-rendering:auto;color:#000000;dominant-baseline:auto;enable-background:accumulate;fill:#cdcdcd;font-feature-settings:normal;font-variant-alternates:normal;font-variant-caps:normal;font-variant-ligatures:normal;font-variant-numeric:normal;font-variant-position:normal;image-rendering:auto;isolation:auto;mix-blend-mode:normal;shape-padding:0;shape-rendering:auto;solid-color:#000000;text-decoration-color:#000000;text-decoration-line:none;text-decoration-style:solid;text-indent:0;text-orientation:mixed;text-transform:none;white-space:normal"/>
 </g>
 <g id="layer5" transform="translate(-32,-32)">
  <path id="path4231" d="m288 56v464h114.16c70.593 0 77.844-7.2493 77.844-77.986v-154.01-154.01c0-70.737-7.2503-77.986-77.844-77.986z" style="color:#000000;enable-background:accumulate;fill:#fff;opacity:.12"/>
  <path id="path4255" d="m96 288v154.01c-0.34598 70.736 7.2503 77.986 77.844 77.986h228.31c70.593 0 77.844-7.2493 77.844-77.986v-154.01z" style="color:#000000;enable-background:accumulate;fill:#fff;opacity:.12"/>
 </g>
 <g id="layer1" transform="translate(-32,-32)">
  <path id="path4254" d="m360 520 120-120v44.968c-0.1047 67.992-7.6054 75.032-76.348 75.032z" style="color:#000000;enable-background:accumulate;fill:#fff;opacity:.5"/>
  <path id="path4286" d="m173.84 56c-68.982 0-77.805 6.9589-77.85 73.277 0.22272-64.485 9.5571-71.277 77.85-71.277h228.31c70.593 0 77.844 7.2493 77.844 77.986v-2c0-70.737-7.2503-77.986-77.844-77.986z" style="color:#000000;enable-background:accumulate;fill:#fff;opacity:.6"/>
  <path id="path4295" d="m480 440.01c0 70.737-7.2503 77.986-77.844 77.986h-228.31c-68.292 0-77.627-6.7926-77.85-71.277 0.044202 66.318 8.8674 73.277 77.85 73.277h228.31c70.593 0 77.844-7.2493 77.844-77.986z" style="color:#000000;enable-background:accumulate;opacity:.1"/>
 </g>
</svg>
