<?xml version="1.0" encoding="UTF-8"?>
<!-- Created with Inkscape (http://www.inkscape.org/) -->
<svg id="svg3336" width="512" height="512" style="enable-background:new" version="1.1" viewBox="0 0 512 512" xmlns="http://www.w3.org/2000/svg" xmlns:cc="http://creativecommons.org/ns#" xmlns:dc="http://purl.org/dc/elements/1.1/" xmlns:rdf="http://www.w3.org/1999/02/22-rdf-syntax-ns#" xmlns:xlink="http://www.w3.org/1999/xlink">
 <defs id="defs3338">
  <linearGradient id="linearGradient6210">
   <stop id="stop6206" style="stop-color:#285bdb" offset="0"/>
   <stop id="stop6208" style="stop-color:#3b63c8;stop-opacity:0" offset="1"/>
  </linearGradient>
  <linearGradient id="linearGradient4226" x1="512" x2="-1e-6" y1="397.99" y2="125.99" gradientTransform="matrix(0 -.90625 .90622 0 4.0752 488)" gradientUnits="userSpaceOnUse">
   <stop id="stop4340" style="stop-color:#ebebeb" offset="0"/>
   <stop id="stop4342" style="stop-color:#f5f5f5" offset="1"/>
  </linearGradient>
  <filter id="filter4346" x="-.01325" y="-.010966" width="1.0265" height="1.0219" style="color-interpolation-filters:sRGB">
   <feGaussianBlur id="feGaussianBlur4348" stdDeviation="2.120027"/>
  </filter>
  <linearGradient id="linearGradient4358" x1="88" x2="488" y1="88" y2="488" gradientUnits="userSpaceOnUse">
   <stop id="stop4362" style="stop-opacity:.58824" offset="0"/>
   <stop id="stop4364" style="stop-opacity:0" offset=".88"/>
   <stop id="stop4366" offset="1"/>
  </linearGradient>
  <filter id="filter4380" x="-.052999" y="-.043863" width="1.106" height="1.0877" style="color-interpolation-filters:sRGB">
   <feGaussianBlur id="feGaussianBlur4382" stdDeviation="8.4801079"/>
  </filter>
  <linearGradient id="linearGradient4254" x1="256" x2="416" y1="142" y2="142" gradientTransform="matrix(.752 0 0 1 103.17 4)" gradientUnits="userSpaceOnUse" spreadMethod="reflect" xlink:href="#linearGradient6210"/>
  <linearGradient id="linearGradient4258" x1="256" x2="416" y1="142" y2="142" gradientTransform="translate(0,158)" gradientUnits="userSpaceOnUse" spreadMethod="reflect" xlink:href="#linearGradient6210"/>
  <linearGradient id="linearGradient4262" x1="256" x2="416" y1="142" y2="142" gradientTransform="translate(0,223)" gradientUnits="userSpaceOnUse" spreadMethod="reflect" xlink:href="#linearGradient6210"/>
  <linearGradient id="linearGradient4268" x1="256" x2="416" y1="142" y2="142" gradientTransform="matrix(1.36 0 0 1 -459.33 177.86)" gradientUnits="userSpaceOnUse" spreadMethod="reflect" xlink:href="#linearGradient6210"/>
  <linearGradient id="linearGradient4272" x1="256" x2="416" y1="142" y2="142" gradientTransform="matrix(1.36 0 0 1 -49.913 -413.2)" gradientUnits="userSpaceOnUse" spreadMethod="reflect" xlink:href="#linearGradient6210"/>
 </defs>
 <metadata id="metadata3341">
  <rdf:RDF>
   <cc:Work rdf:about="">
    <dc:format>image/svg+xml</dc:format>
    <dc:type rdf:resource="http://purl.org/dc/dcmitype/StillImage"/>
    <dc:title/>
   </cc:Work>
  </rdf:RDF>
 </metadata>
 <g id="layer2" transform="translate(-32,-32)">
  <path id="rect4158-9" d="m173.84 58c-70.593 0-78.189 7.2508-77.843 77.987v154.01 154.01c-0.34598 70.736 7.2498 77.987 77.843 77.987h228.31c70.593 0 77.843-7.25 77.843-77.987v-154.01-154.01c0-70.737-7.2498-77.987-77.843-77.987z" style="color:#000000;enable-background:accumulate;filter:url(#filter4346);opacity:.1"/>
  <path id="path4350" d="m173.84 58c-70.593 0-78.189 7.2508-77.843 77.987v154.01 154.01c-0.34598 70.736 7.2498 77.987 77.843 77.987h228.31c70.593 0 77.843-7.25 77.843-77.987v-154.01-154.01c0-70.737-7.2498-77.987-77.843-77.987z" style="color:#000000;enable-background:accumulate;fill:url(#linearGradient4358);filter:url(#filter4380);opacity:.3"/>
 </g>
 <g id="layer3">
  <path id="rect4158" d="m141.84 24c-70.593 0-78.189 7.2508-77.843 77.987v154.01 154.01c-0.34598 70.736 7.2498 77.987 77.843 77.987h228.31c70.593 0 77.843-7.25 77.843-77.987v-154.01-154.01c0-70.737-7.2498-77.987-77.843-77.987z" style="color:#000000;enable-background:accumulate;fill:url(#linearGradient4226)"/>
 </g>
 <g id="layer4">
  <path id="path4505-6" d="m221.81 124-35.188 71.656v59.25c-4.9399 5.788-10.339 11.62-15.969 17.25-18.503 18.503-39.248 34.687-53.125 39.312l-23.375-23.344-71.656 35.188v170.69h256v-317.56c-15.417-33.444-32.368-45.921-56.688-52.438zm-97.562 229c7e-3 -5e-3 0.0239 5e-3 0.0312 0-2.6107 1.6304-5.251 3.2267-7.9062 4.8125 2.6559-1.5856 5.2637-3.1824 7.875-4.8125zm-24.094 14.062c8e-3 -4e-3 0.0234 4e-3 0.0312 0-2.7418 1.4991-5.5286 2.9806-8.3125 4.4375 2.7843-1.4568 5.5391-2.9386 8.2813-4.4375z" style="color:#000000;enable-background:accumulate;fill-opacity:0;opacity:.05"/>
  <path id="path4238" d="m221.11 286.83h80.178l-19.898-106.52-60.28 106.52zm-77.105 81.168 2.9262-15.904h19.167l117.34-208.1h24.58l38.626 208.1h21.361l-2.9262 15.904h-79.446l2.9262-15.904h24.287l-8.9249-49.211h-91.882l-27.653 49.211h23.995l-2.9262 15.904h-61.45z" style="fill:#1b4fd1"/>
  <rect id="rect4245" x="175.36" y="144" width="240.64" height="4" style="color:#000000;enable-background:accumulate;fill:url(#linearGradient4254);opacity:.3"/>
  <rect id="rect4256" x="96" y="298" width="320" height="4" style="color:#000000;enable-background:accumulate;fill:url(#linearGradient4258);opacity:.3"/>
  <rect id="rect4260" x="96" y="363" width="320" height="4" style="color:#000000;enable-background:accumulate;fill:url(#linearGradient4262);opacity:.3"/>
  <rect id="rect4264" transform="rotate(-60.464)" x="-328.77" y="317.86" width="435.2" height="4" style="color:#000000;enable-background:accumulate;fill:url(#linearGradient4268);opacity:.3"/>
  <rect id="rect4270" transform="rotate(79.104)" x="80.647" y="-273.2" width="435.2" height="4" style="color:#000000;enable-background:accumulate;fill:url(#linearGradient4272);opacity:.3"/>
 </g>
 <g id="layer5" transform="translate(-32,-32)">
  <path id="path4231" d="m288 56v464h114.16c70.593 0 77.844-7.2493 77.844-77.986v-154.01-154.01c0-70.737-7.2503-77.986-77.844-77.986z" style="color:#000000;enable-background:accumulate;fill:#fff;opacity:.1"/>
  <path id="path4255" d="m96 288v154.01c-0.34598 70.736 7.2503 77.986 77.844 77.986h228.31c70.593 0 77.844-7.2493 77.844-77.986v-154.01z" style="color:#000000;enable-background:accumulate;fill:#fff;opacity:.1"/>
 </g>
 <g id="layer1" transform="translate(-32,-32)">
  <path id="path4254" d="m360 520 120-120v44.968c-0.1047 67.992-7.6054 75.032-76.348 75.032z" style="color:#000000;enable-background:accumulate;fill:#fff;opacity:.5"/>
  <path id="path4286" d="m173.84 56c-68.982 0-77.805 6.9589-77.85 73.277 0.22272-64.485 9.5571-71.277 77.85-71.277h228.31c70.593 0 77.844 7.2493 77.844 77.986v-2c0-70.737-7.2503-77.986-77.844-77.986z" style="color:#000000;enable-background:accumulate;fill:#fff;opacity:.6"/>
  <path id="path4295" d="m480 440.01c0 70.737-7.2503 77.986-77.844 77.986h-228.31c-68.292 0-77.627-6.7926-77.85-71.277 0.044202 66.318 8.8674 73.277 77.85 73.277h228.31c70.593 0 77.844-7.2493 77.844-77.986z" style="color:#000000;enable-background:accumulate;opacity:.1"/>
 </g>
</svg>
