<?xml version="1.0" encoding="UTF-8"?>
<!-- Created with Inkscape (http://www.inkscape.org/) -->
<svg id="svg3336" width="512" height="512" style="enable-background:new" version="1.1" viewBox="0 0 512 512" xmlns="http://www.w3.org/2000/svg" xmlns:cc="http://creativecommons.org/ns#" xmlns:dc="http://purl.org/dc/elements/1.1/" xmlns:rdf="http://www.w3.org/1999/02/22-rdf-syntax-ns#" xmlns:xlink="http://www.w3.org/1999/xlink">
 <defs id="defs3338">
  <linearGradient id="linearGradient4226" x1="-8.8276" x2="520.83" y1="172.06" y2="383.93" gradientTransform="matrix(0 -.90625 -.90622 0 507.91 488)" gradientUnits="userSpaceOnUse">
   <stop id="stop4271" style="stop-color:#A0CBFF" offset="0"/>
   <stop id="stop4279" style="stop-color:#7fbafb" offset="1"/>
  </linearGradient>
  <filter id="filter4346" x="-.01325" y="-.010966" width="1.0265" height="1.0219" style="color-interpolation-filters:sRGB">
   <feGaussianBlur id="feGaussianBlur4348" stdDeviation="2.120027"/>
  </filter>
  <linearGradient id="linearGradient4358" x1="88" x2="488" y1="88" y2="488" gradientUnits="userSpaceOnUse">
   <stop id="stop4362" style="stop-opacity:.58824" offset="0"/>
   <stop id="stop4364" style="stop-opacity:0" offset=".88"/>
   <stop id="stop4366" offset="1"/>
  </linearGradient>
  <filter id="filter4380" x="-.052999" y="-.043863" width="1.106" height="1.0877" style="color-interpolation-filters:sRGB">
   <feGaussianBlur id="feGaussianBlur4382" stdDeviation="8.4801079"/>
  </filter>
  <linearGradient id="SVGID_2_-2" x1="113.73" x2="178.73" y1="26.955" y2="242.96" gradientTransform="matrix(.90293 0 0 .90293 120.56 122.82)" gradientUnits="userSpaceOnUse">
   <stop id="stop25-6" style="stop-color:#090058" offset="0"/>
   <stop id="stop27-8" style="stop-color:#070033" offset="1"/>
  </linearGradient>
 </defs>
 <metadata id="metadata3341">
  <rdf:RDF>
   <cc:Work rdf:about="">
    <dc:format>image/svg+xml</dc:format>
    <dc:type rdf:resource="http://purl.org/dc/dcmitype/StillImage"/>
    <dc:title/>
   </cc:Work>
  </rdf:RDF>
 </metadata>
 <g id="layer2" transform="translate(-32,-32)">
  <path id="rect4158-9" d="m173.84 58c-70.593 0-78.189 7.2508-77.843 77.987v154.01 154.01c-0.34598 70.736 7.2498 77.987 77.843 77.987h228.31c70.593 0 77.843-7.25 77.843-77.987v-154.01-154.01c0-70.737-7.2498-77.987-77.843-77.987z" style="color:#000000;enable-background:accumulate;filter:url(#filter4346);opacity:.1"/>
  <path id="path4350" d="m173.84 58c-70.593 0-78.189 7.2508-77.843 77.987v154.01 154.01c-0.34598 70.736 7.2498 77.987 77.843 77.987h228.31c70.593 0 77.843-7.25 77.843-77.987v-154.01-154.01c0-70.737-7.2498-77.987-77.843-77.987z" style="color:#000000;enable-background:accumulate;fill:url(#linearGradient4358);filter:url(#filter4380);opacity:.3"/>
 </g>
 <g id="layer3">
  <path id="rect4158" d="m370.15 24c70.593 0 78.189 7.2508 77.843 77.987v154.01 154.01c0.34598 70.736-7.2498 77.987-77.843 77.987h-228.31c-70.593 0-77.843-7.25-77.843-77.987v-154.01-154.01c0-70.737 7.2498-77.987 77.843-77.987z" style="color:#000000;enable-background:accumulate;fill:url(#linearGradient4226)"/>
  <path id="rect29" d="m142.1 144v224h227.79v-224h-227.79zm75.142 53.44c14.246 0 24.403 3.3529 31.223 9.2427 6.5182 5.5656 10.914 15.053 10.914 25.853 0 10.801-3.3356 19.638-9.3996 25.853-7.8816 8.0189-17.066 12.765-32.738 13.422-4.3295 0.18148-8.3362 0.22573-8.3362 0.22573v35.108h-22.891l2e-3 -109.25s17.127-0.45146 31.225-0.45146zm-2.2608 17.344c-3.3469-0.0241-6.0771 0.0723-6.0771 0.0723v37.727c2.4867 0.24199 4.0456 0.12536 7.7313 0.0811 12.278-0.14717 19.854-7.6139 19.854-18.905 0-10.143-6.247-18.472-18.034-18.903-1.1745-0.0429-2.3585-0.0643-3.4742-0.0723zm84.785 7.6149c9.3968 0 16.901 3.0717 21.843 5.571v18.413c-3.6289-2.0027-14.096-6.4739-21.018-6.4739-6.102 0-9.5619 2.5009-9.5619 6.6661 0 3.8356 3.1339 5.8363 13.024 9.3396 15.328 5.3345 21.757 13.168 21.921 25.173 0 15.174-11.697 27.24-34.944 26.508-7.9774-0.25101-16.816-3.404-22.915-6.7349v-18.175c4.613 2.8307 15.499 7.07 22.919 7.07 7.581 0 10.712-2.672 10.712-6.8372 0-4.1706-2.4718-8.5512-11.869-11.719-16.649-5.6695-23.078-12.455-22.912-21.954 0-15.342 12.856-26.846 32.802-26.846z" style="fill:url(#SVGID_2_-2)"/>
 </g>
 <g id="layer4">
  <path id="path4505-6" d="m221.81 124-35.188 71.656v59.25c-4.9399 5.788-10.339 11.62-15.969 17.25-18.503 18.503-39.248 34.687-53.125 39.312l-23.375-23.344-71.656 35.188v170.69h256v-317.56c-15.417-33.444-32.368-45.921-56.688-52.438zm-97.562 229c7e-3 -5e-3 0.0239 5e-3 0.0312 0-2.6107 1.6304-5.251 3.2267-7.9062 4.8125 2.6559-1.5856 5.2637-3.1824 7.875-4.8125zm-24.094 14.062c8e-3 -4e-3 0.0234 4e-3 0.0312 0-2.7418 1.4991-5.5286 2.9806-8.3125 4.4375 2.7843-1.4568 5.5391-2.9386 8.2813-4.4375z" style="color:#000000;enable-background:accumulate;fill-opacity:0;opacity:.05"/>
 </g>
 <g id="layer5" transform="translate(-32,-32)">
  <path id="path4231" d="m288 56v464h114.16c70.593 0 77.844-7.2493 77.844-77.986v-154.01-154.01c0-70.737-7.2503-77.986-77.844-77.986z" style="color:#000000;enable-background:accumulate;fill:#fff;opacity:.05"/>
  <path id="path4255" d="m96 288v154.01c-0.34598 70.736 7.2503 77.986 77.844 77.986h228.31c70.593 0 77.844-7.2493 77.844-77.986v-154.01z" style="color:#000000;enable-background:accumulate;fill:#fff;opacity:.05"/>
 </g>
 <g id="layer1" transform="translate(-32,-32)">
  <path id="path4254" d="m360 520 120-120v44.968c-0.1047 67.992-7.6054 75.032-76.348 75.032z" style="color:#000000;enable-background:accumulate;fill:#fff;opacity:.2"/>
  <path id="path4286" d="m173.84 56c-68.982 0-77.805 6.9589-77.85 73.277 0.22272-64.485 9.5571-71.277 77.85-71.277h228.31c70.593 0 77.844 7.2493 77.844 77.986v-2c0-70.737-7.2503-77.986-77.844-77.986z" style="color:#000000;enable-background:accumulate;fill:#fff;opacity:.3"/>
  <path id="path4295" d="m480 440.01c0 70.737-7.2503 77.986-77.844 77.986h-228.31c-68.292 0-77.627-6.7926-77.85-71.277 0.044202 66.318 8.8674 73.277 77.85 73.277h228.31c70.593 0 77.844-7.2493 77.844-77.986z" style="color:#000000;enable-background:accumulate;opacity:.1"/>
 </g>
</svg>
