<?xml version="1.0" encoding="UTF-8"?>
<!-- Created with Inkscape (http://www.inkscape.org/) -->
<svg id="svg3336" width="512" height="512" style="enable-background:new" version="1.1" viewBox="0 0 512 512" xmlns="http://www.w3.org/2000/svg" xmlns:cc="http://creativecommons.org/ns#" xmlns:dc="http://purl.org/dc/elements/1.1/" xmlns:rdf="http://www.w3.org/1999/02/22-rdf-syntax-ns#" xmlns:xlink="http://www.w3.org/1999/xlink">
 <defs id="defs3338">
  <linearGradient id="linearGradient4226" x1="512" x2="-1e-6" y1="397.99" y2="125.99" gradientTransform="matrix(0 -.90625 .90622 0 4.0752 488)" gradientUnits="userSpaceOnUse">
   <stop id="stop4340" style="stop-color:#ebebeb" offset="0"/>
   <stop id="stop4342" style="stop-color:#f5f5f5" offset="1"/>
  </linearGradient>
  <filter id="filter4346" x="-.01325" y="-.010966" width="1.0265" height="1.0219" style="color-interpolation-filters:sRGB">
   <feGaussianBlur id="feGaussianBlur4348" stdDeviation="2.120027"/>
  </filter>
  <linearGradient id="linearGradient4358" x1="88" x2="488" y1="88" y2="488" gradientUnits="userSpaceOnUse">
   <stop id="stop4362" style="stop-opacity:.58824" offset="0"/>
   <stop id="stop4364" style="stop-opacity:0" offset=".88"/>
   <stop id="stop4366" offset="1"/>
  </linearGradient>
  <filter id="filter4380" x="-.052999" y="-.043863" width="1.106" height="1.0877" style="color-interpolation-filters:sRGB">
   <feGaussianBlur id="feGaussianBlur4382" stdDeviation="8.4801079"/>
  </filter>
  <linearGradient id="XMLID_18_-7" x1="194.9" x2="141.03" y1="153.56" y2="117.41" gradientUnits="userSpaceOnUse">
   <stop id="stop3285-8" style="stop-color:#871101" offset="0"/>
   <stop id="stop3289-6" style="stop-color:#911209" offset=".99"/>
   <stop id="stop3291-0" style="stop-color:#911209" offset="1"/>
  </linearGradient>
  <linearGradient id="XMLID_19_-4" x1="151.8" x2="97.93" y1="217.79" y2="181.64" gradientUnits="userSpaceOnUse">
   <stop id="stop3296-6" style="stop-color:#871101" offset="0"/>
   <stop id="stop3300-6" style="stop-color:#911209" offset=".99"/>
   <stop id="stop3302-0" style="stop-color:#911209" offset="1"/>
  </linearGradient>
  <linearGradient id="XMLID_20_-9" x1="38.696" x2="47.047" y1="127.39" y2="181.66" gradientUnits="userSpaceOnUse">
   <stop id="stop3307-7" style="stop-color:#fff" offset="0"/>
   <stop id="stop3311-9" style="stop-color:#E57252" offset=".23"/>
   <stop id="stop3313-7" style="stop-color:#DE3B20" offset=".46"/>
   <stop id="stop3315-8" style="stop-color:#A60003" offset=".99"/>
   <stop id="stop3317-5" style="stop-color:#A60003" offset="1"/>
  </linearGradient>
  <linearGradient id="XMLID_21_-3" x1="96.133" x2="99.21" y1="76.715" y2="132.1" gradientUnits="userSpaceOnUse">
   <stop id="stop3322-3" style="stop-color:#fff" offset="0"/>
   <stop id="stop3326-3" style="stop-color:#E4714E" offset=".23"/>
   <stop id="stop3328-7" style="stop-color:#BE1A0D" offset=".56"/>
   <stop id="stop3330-9" style="stop-color:#A80D00" offset=".99"/>
   <stop id="stop3332-3" style="stop-color:#A80D00" offset="1"/>
  </linearGradient>
  <linearGradient id="XMLID_22_-7" x1="147.1" x2="156.31" y1="25.521" y2="65.216" gradientUnits="userSpaceOnUse">
   <stop id="stop3337-8" style="stop-color:#fff" offset="0"/>
   <stop id="stop3341-4" style="stop-color:#E46342" offset=".18"/>
   <stop id="stop3343-1" style="stop-color:#C82410" offset=".4"/>
   <stop id="stop3345-9" style="stop-color:#A80D00" offset=".99"/>
   <stop id="stop3347-0" style="stop-color:#A80D00" offset="1"/>
  </linearGradient>
  <linearGradient id="XMLID_23_-9" x1="118.98" x2="158.67" y1="11.542" y2="-8.3048" gradientUnits="userSpaceOnUse">
   <stop id="stop3352-8" style="stop-color:#fff" offset="0"/>
   <stop id="stop3356-5" style="stop-color:#C81F11" offset=".54"/>
   <stop id="stop3358-8" style="stop-color:#BF0905" offset=".99"/>
   <stop id="stop3360-4" style="stop-color:#BF0905" offset="1"/>
  </linearGradient>
  <linearGradient id="XMLID_24_-3" x1="3.9033" x2="7.1702" y1="113.55" y2="146.26" gradientUnits="userSpaceOnUse">
   <stop id="stop3365-7" style="stop-color:#fff" offset="0"/>
   <stop id="stop3369-3" style="stop-color:#DE4024" offset=".31"/>
   <stop id="stop3371-8" style="stop-color:#BF190B" offset=".99"/>
   <stop id="stop3373-0" style="stop-color:#BF190B" offset="1"/>
  </linearGradient>
  <linearGradient id="XMLID_25_-9" x1="-18.556" x2="135.02" y1="155.1" y2="-2.8093" gradientUnits="userSpaceOnUse">
   <stop id="stop3380-7" style="stop-color:#BD0012" offset="0"/>
   <stop id="stop3384-9" style="stop-color:#fff" offset=".07"/>
   <stop id="stop3386-3" style="stop-color:#fff" offset=".17"/>
   <stop id="stop3388-2" style="stop-color:#C82F1C" offset=".27"/>
   <stop id="stop3390-4" style="stop-color:#820C01" offset=".33"/>
   <stop id="stop3392-3" style="stop-color:#A31601" offset=".46"/>
   <stop id="stop3394-7" style="stop-color:#B31301" offset=".72"/>
   <stop id="stop3396-1" style="stop-color:#E82609" offset=".99"/>
   <stop id="stop3398-2" style="stop-color:#E82609" offset="1"/>
  </linearGradient>
  <linearGradient id="XMLID_26_-2" x1="99.075" x2="52.818" y1="171.03" y2="159.62" gradientUnits="userSpaceOnUse">
   <stop id="stop3403-0" style="stop-color:#8C0C01" offset="0"/>
   <stop id="stop3407-1" style="stop-color:#990C00" offset=".54"/>
   <stop id="stop3409-7" style="stop-color:#A80D0E" offset=".99"/>
   <stop id="stop3411-5" style="stop-color:#A80D0E" offset="1"/>
  </linearGradient>
  <linearGradient id="XMLID_27_-1" x1="178.53" x2="137.43" y1="115.51" y2="78.684" gradientUnits="userSpaceOnUse">
   <stop id="stop3416-7" style="stop-color:#7E110B" offset="0"/>
   <stop id="stop3420-1" style="stop-color:#9E0C00" offset=".99"/>
   <stop id="stop3422-7" style="stop-color:#9E0C00" offset="1"/>
  </linearGradient>
  <linearGradient id="XMLID_28_-1" x1="193.62" x2="173.15" y1="47.937" y2="26.054" gradientUnits="userSpaceOnUse">
   <stop id="stop3427-1" style="stop-color:#79130D" offset="0"/>
   <stop id="stop3431-7" style="stop-color:#9E120B" offset=".99"/>
   <stop id="stop3433-0" style="stop-color:#9E120B" offset="1"/>
  </linearGradient>
  <radialGradient id="XMLID_29_-4" cx="143.83" cy="79.388" r="50.358" gradientUnits="userSpaceOnUse">
   <stop id="stop3440-0" style="stop-color:#A80D00" offset="0"/>
   <stop id="stop3444-5" style="stop-color:#7E0E08" offset=".99"/>
   <stop id="stop3446-1" style="stop-color:#7E0E08" offset="1"/>
  </radialGradient>
  <radialGradient id="XMLID_30_-6" cx="74.092" cy="145.75" r="66.944" gradientUnits="userSpaceOnUse">
   <stop id="stop3451-6" style="stop-color:#A30C00" offset="0"/>
   <stop id="stop3455-1" style="stop-color:#800E08" offset=".99"/>
   <stop id="stop3457-9" style="stop-color:#800E08" offset="1"/>
  </radialGradient>
  <linearGradient id="XMLID_31_-6" x1="26.67" x2="9.9887" y1="197.34" y2="140.74" gradientUnits="userSpaceOnUse">
   <stop id="stop3462-4" style="stop-color:#8B2114" offset="0"/>
   <stop id="stop3466-0" style="stop-color:#9E100A" offset=".43"/>
   <stop id="stop3468-8" style="stop-color:#B3100C" offset=".99"/>
   <stop id="stop3470-1" style="stop-color:#B3100C" offset="1"/>
  </linearGradient>
  <linearGradient id="XMLID_32_-0" x1="154.64" x2="192.04" y1="9.7979" y2="26.306" gradientUnits="userSpaceOnUse">
   <stop id="stop3475-2" style="stop-color:#B31000" offset="0"/>
   <stop id="stop3479-9" style="stop-color:#910F08" offset=".44"/>
   <stop id="stop3481-7" style="stop-color:#791C12" offset=".99"/>
   <stop id="stop3483-5" style="stop-color:#791C12" offset="1"/>
  </linearGradient>
  <linearGradient id="linearGradient3448" x1="174.07" x2="132.28" y1="215.55" y2="141.75" gradientUnits="userSpaceOnUse">
   <stop id="stop3272-4" style="stop-color:#FB7655" offset="0"/>
   <stop id="stop3276-1" style="stop-color:#E42B1E" offset=".41"/>
   <stop id="stop3278-0" style="stop-color:#900" offset=".99"/>
   <stop id="stop3280-3" style="stop-color:#900" offset="1"/>
  </linearGradient>
 </defs>
 <metadata id="metadata3341">
  <rdf:RDF>
   <cc:Work rdf:about="">
    <dc:format>image/svg+xml</dc:format>
    <dc:type rdf:resource="http://purl.org/dc/dcmitype/StillImage"/>
    <dc:title/>
   </cc:Work>
  </rdf:RDF>
 </metadata>
 <g id="layer2" transform="translate(-32,-32)">
  <path id="rect4158-9" d="m173.84 58c-70.593 0-78.189 7.2508-77.843 77.987v154.01 154.01c-0.34598 70.736 7.2498 77.987 77.843 77.987h228.31c70.593 0 77.843-7.25 77.843-77.987v-154.01-154.01c0-70.737-7.2498-77.987-77.843-77.987z" style="color:#000000;enable-background:accumulate;filter:url(#filter4346);opacity:.1"/>
  <path id="path4350" d="m173.84 58c-70.593 0-78.189 7.2508-77.843 77.987v154.01 154.01c-0.34598 70.736 7.2498 77.987 77.843 77.987h228.31c70.593 0 77.843-7.25 77.843-77.987v-154.01-154.01c0-70.737-7.2498-77.987-77.843-77.987z" style="color:#000000;enable-background:accumulate;fill:url(#linearGradient4358);filter:url(#filter4380);opacity:.3"/>
 </g>
 <g id="layer3">
  <path id="rect4158" d="m141.84 24c-70.593 0-78.189 7.2508-77.843 77.987v154.01 154.01c-0.34598 70.736 7.2498 77.987 77.843 77.987h228.31c70.593 0 77.843-7.25 77.843-77.987v-154.01-154.01c0-70.737-7.2498-77.987-77.843-77.987z" style="color:#000000;enable-background:accumulate;fill:url(#linearGradient4226)"/>
 </g>
 <g id="layer4">
  <path id="path4505-6" d="m221.81 124-35.188 71.656v59.25c-4.9399 5.788-10.339 11.62-15.969 17.25-18.503 18.503-39.248 34.687-53.125 39.312l-23.375-23.344-71.656 35.188v170.69h256v-317.56c-15.417-33.444-32.368-45.921-56.688-52.438zm-97.562 229c7e-3 -5e-3 0.0239 5e-3 0.0312 0-2.6107 1.6304-5.251 3.2267-7.9062 4.8125 2.6559-1.5856 5.2637-3.1824 7.875-4.8125zm-24.094 14.062c8e-3 -4e-3 0.0234 4e-3 0.0312 0-2.7418 1.4991-5.5286 2.9806-8.3125 4.4375 2.7843-1.4568 5.5391-2.9386 8.2813-4.4375z" style="color:#000000;enable-background:accumulate;fill-opacity:0;opacity:.05"/>
  <g id="g4260" transform="matrix(1.8873 0 0 1.8873 135.21 135.21)" style="stroke-width:.52986">
   <g id="g4622" transform="matrix(.64184 0 0 .64184 .41649 .59299)" style="stroke-width:.43742">
    <polygon id="polygon3282" points="186.85 187.64 198.13 39.95 153.5 130.41 40.38 197.58" style="clip-rule:evenodd;fill-rule:evenodd;fill:url(#linearGradient3448);stroke-width:.43742"/>
    <polygon id="polygon3293" points="174.5 100.65 140.21 145.93 187.09 187.54" style="clip-rule:evenodd;fill-rule:evenodd;fill:url(#XMLID_18_-7);stroke-width:.43742"/>
    <polygon id="polygon3304" points="95.03 180.3 40.87 197.39 187.26 187.54" style="clip-rule:evenodd;fill-rule:evenodd;fill:url(#XMLID_19_-4);stroke-width:.43742"/>
    <polygon id="polygon3319" points="64.04 121.93 13.34 132.77 41 197.41" style="clip-rule:evenodd;fill-rule:evenodd;fill:url(#XMLID_20_-9);stroke-width:.43742"/>
    <polygon id="polygon3334" points="119 63.14 58.33 120.01 140.2 146.18" style="clip-rule:evenodd;fill-rule:evenodd;fill:url(#XMLID_21_-3);stroke-width:.43742"/>
    <polygon id="polygon3349" points="135.97 17.47 120 69.1 193.32 64.31" style="clip-rule:evenodd;fill-rule:evenodd;fill:url(#XMLID_22_-7);stroke-width:.43742"/>
    <polygon id="polygon3362" points="132.77 19.41 111.49 0.52 166.5 0.77" style="clip-rule:evenodd;fill-rule:evenodd;fill:url(#XMLID_23_-9);stroke-width:.43742"/>
    <polygon id="polygon3375" points="14.13 132.32 2.7 101.62 0 158.09" style="clip-rule:evenodd;fill-rule:evenodd;fill:url(#XMLID_24_-3);stroke-width:.43742"/>
    <path id="path3377" d="m1.94 100.65 11.5 32.62 49.97-11.211 57.05-53.02 16.1-51.139-25.351-17.9-43.1 16.13c-13.579 12.63-39.929 37.62-40.879 38.09-0.94 0.48-17.4 31.59-25.29 46.43z" style="clip-rule:evenodd;fill-rule:evenodd;fill:#fff;stroke-width:.43742"/>
    <path id="path3400" d="m42.32 42.05c29.43-29.18 67.37-46.42 81.93-31.73 14.551 14.69-0.88 50.39-30.31 79.56s-66.9 47.36-81.45 32.67c-14.56-14.68 0.4-51.33 29.83-80.5z" style="clip-rule:evenodd;fill-rule:evenodd;fill:url(#XMLID_25_-9);stroke-width:.43742"/>
    <path id="path3413" d="m41 197.38 22.86-75.72 75.92 24.39c-27.45 25.74-57.98 47.5-98.78 51.33z" style="clip-rule:evenodd;fill-rule:evenodd;fill:url(#XMLID_26_-2);stroke-width:.43742"/>
    <path id="path3424" d="m120.56 68.89 19.49 77.2c22.93-24.11 43.51-50.03 53.589-82.09l-73.079 4.89z" style="clip-rule:evenodd;fill-rule:evenodd;fill:url(#XMLID_27_-1);stroke-width:.43742"/>
    <path id="path3435" d="m193.44 64.39c7.8-23.54 9.6-57.31-27.181-63.58l-30.18 16.67 57.361 46.91z" style="clip-rule:evenodd;fill-rule:evenodd;fill:url(#XMLID_28_-1);stroke-width:.43742"/>
    <path id="path3437" d="m0 157.75c1.08 38.851 29.11 39.43 41.05 39.771l-27.58-64.411-13.47 24.64z" style="clip-rule:evenodd;fill-rule:evenodd;fill:#9e1209;stroke-width:.43742"/>
    <path id="path3448" d="m120.67 69.01c17.62 10.83 53.131 32.58 53.851 32.98 1.119 0.63 15.31-23.93 18.53-37.81l-72.381 4.83z" style="clip-rule:evenodd;fill-rule:evenodd;fill:url(#XMLID_29_-4);stroke-width:.43742"/>
    <path id="path3459" d="m63.83 121.66 30.56 58.96c18.07-9.8 32.22-21.74 45.18-34.53l-75.74-24.43z" style="clip-rule:evenodd;fill-rule:evenodd;fill:url(#XMLID_30_-6);stroke-width:.43742"/>
    <path id="path3472" d="m13.35 133.19-4.33 51.56c8.17 11.16 19.41 12.13 31.2 11.26-8.53-21.23-25.57-63.68-26.87-62.82z" style="clip-rule:evenodd;fill-rule:evenodd;fill:url(#XMLID_31_-6);stroke-width:.43742"/>
    <path id="path3485" d="m135.9 17.61 60.71 8.52c-3.24-13.73-13.19-22.59-30.15-25.36l-30.56 16.84z" style="clip-rule:evenodd;fill-rule:evenodd;fill:url(#XMLID_32_-0);stroke-width:.43742"/>
   </g>
  </g>
 </g>
 <g id="layer5" transform="translate(-32,-32)">
  <path id="path4231" d="m288 56v464h114.16c70.593 0 77.844-7.2493 77.844-77.986v-154.01-154.01c0-70.737-7.2503-77.986-77.844-77.986z" style="color:#000000;enable-background:accumulate;fill:#fff;opacity:.1"/>
  <path id="path4255" d="m96 288v154.01c-0.34598 70.736 7.2503 77.986 77.844 77.986h228.31c70.593 0 77.844-7.2493 77.844-77.986v-154.01z" style="color:#000000;enable-background:accumulate;fill:#fff;opacity:.1"/>
 </g>
 <g id="layer1" transform="translate(-32,-32)">
  <path id="path4254" d="m360 520 120-120v44.968c-0.1047 67.992-7.6054 75.032-76.348 75.032z" style="color:#000000;enable-background:accumulate;fill:#fff;opacity:.5"/>
  <path id="path4286" d="m173.84 56c-68.982 0-77.805 6.9589-77.85 73.277 0.22272-64.485 9.5571-71.277 77.85-71.277h228.31c70.593 0 77.844 7.2493 77.844 77.986v-2c0-70.737-7.2503-77.986-77.844-77.986z" style="color:#000000;enable-background:accumulate;fill:#fff;opacity:.6"/>
  <path id="path4295" d="m480 440.01c0 70.737-7.2503 77.986-77.844 77.986h-228.31c-68.292 0-77.627-6.7926-77.85-71.277 0.044202 66.318 8.8674 73.277 77.85 73.277h228.31c70.593 0 77.844-7.2493 77.844-77.986z" style="color:#000000;enable-background:accumulate;opacity:.1"/>
 </g>
</svg>
