<?xml version="1.0" encoding="UTF-8"?>
<!-- Created with Inkscape (http://www.inkscape.org/) -->
<svg id="svg3336" width="512" height="512" style="enable-background:new" version="1.1" viewBox="0 0 512 512" xmlns="http://www.w3.org/2000/svg" xmlns:cc="http://creativecommons.org/ns#" xmlns:dc="http://purl.org/dc/elements/1.1/" xmlns:rdf="http://www.w3.org/1999/02/22-rdf-syntax-ns#" xmlns:xlink="http://www.w3.org/1999/xlink">
 <defs id="defs3338">
  <linearGradient id="linearGradient4226" x1="512" x2="-1e-6" y1="397.99" y2="125.99" gradientTransform="matrix(0 -.90625 .90622 0 4.0752 488)" gradientUnits="userSpaceOnUse">
   <stop id="stop4340" style="stop-color:#ebebeb" offset="0"/>
   <stop id="stop4342" style="stop-color:#f5f5f5" offset="1"/>
  </linearGradient>
  <filter id="filter4346" x="-.01325" y="-.010966" width="1.0265" height="1.0219" style="color-interpolation-filters:sRGB">
   <feGaussianBlur id="feGaussianBlur4348" stdDeviation="2.120027"/>
  </filter>
  <linearGradient id="linearGradient4358" x1="88" x2="488" y1="88" y2="488" gradientUnits="userSpaceOnUse">
   <stop id="stop4362" style="stop-opacity:.58824" offset="0"/>
   <stop id="stop4364" style="stop-opacity:0" offset=".88"/>
   <stop id="stop4366" offset="1"/>
  </linearGradient>
  <filter id="filter4380" x="-.052999" y="-.043863" width="1.106" height="1.0877" style="color-interpolation-filters:sRGB">
   <feGaussianBlur id="feGaussianBlur4382" stdDeviation="8.4801079"/>
  </filter>
 </defs>
 <metadata id="metadata3341">
  <rdf:RDF>
   <cc:Work rdf:about="">
    <dc:format>image/svg+xml</dc:format>
    <dc:type rdf:resource="http://purl.org/dc/dcmitype/StillImage"/>
    <dc:title/>
   </cc:Work>
  </rdf:RDF>
 </metadata>
 <g id="layer2" transform="translate(-32,-32)">
  <path id="rect4158-9" d="m173.84 58c-70.593 0-78.189 7.2508-77.843 77.987v154.01 154.01c-0.34598 70.736 7.2498 77.987 77.843 77.987h228.31c70.593 0 77.843-7.25 77.843-77.987v-154.01-154.01c0-70.737-7.2498-77.987-77.843-77.987z" style="color:#000000;enable-background:accumulate;filter:url(#filter4346);opacity:.1"/>
  <path id="path4350" d="m173.84 58c-70.593 0-78.189 7.2508-77.843 77.987v154.01 154.01c-0.34598 70.736 7.2498 77.987 77.843 77.987h228.31c70.593 0 77.843-7.25 77.843-77.987v-154.01-154.01c0-70.737-7.2498-77.987-77.843-77.987z" style="color:#000000;enable-background:accumulate;fill:url(#linearGradient4358);filter:url(#filter4380);opacity:.3"/>
 </g>
 <g id="layer3">
  <path id="rect4158" d="m141.84 24c-70.593 0-78.189 7.2508-77.843 77.987v154.01 154.01c-0.34598 70.736 7.2498 77.987 77.843 77.987h228.31c70.593 0 77.843-7.25 77.843-77.987v-154.01-154.01c0-70.737-7.2498-77.987-77.843-77.987z" style="color:#000000;enable-background:accumulate;fill:url(#linearGradient4226)"/>
 </g>
 <g id="layer4">
  <path id="path4505-6" d="m221.81 124-35.188 71.656v59.25c-4.9399 5.788-10.339 11.62-15.969 17.25-18.503 18.503-39.248 34.687-53.125 39.312l-23.375-23.344-71.656 35.188v170.69h256v-317.56c-15.417-33.444-32.368-45.921-56.688-52.438zm-97.562 229c7e-3 -5e-3 0.0239 5e-3 0.0312 0-2.6107 1.6304-5.251 3.2267-7.9062 4.8125 2.6559-1.5856 5.2637-3.1824 7.875-4.8125zm-24.094 14.062c8e-3 -4e-3 0.0234 4e-3 0.0312 0-2.7418 1.4991-5.5286 2.9806-8.3125 4.4375 2.7843-1.4568 5.5391-2.9386 8.2813-4.4375z" style="color:#000000;enable-background:accumulate;fill-opacity:0;opacity:.05"/>
  <g id="g4260" transform="matrix(1.8873 0 0 1.8873 135.21 135.21)" style="stroke-width:.52986">
   <g id="g4724" transform="matrix(.70168 0 0 .70168 -73.733 26.166)" style="stroke-width:.75514">
    <g id="g4771" transform="matrix(.19629 0 0 .19629 103.33 -39.014)" style="opacity:.716;stroke-width:2.9051">
     <path id="path4753" d="m448.76-80.316h-0.0352l-0.0352 0.0024-6.0446 0.30704h-0.0328l-0.0352 0.0024-6.0399 0.37266-0.0328 0.0024-0.0352 0.0024-6.0329 0.43829-0.0352 0.0024-0.0352 0.0047-6.0259 0.50391-0.0352 0.0024-0.0352 0.0047-6.0188 0.56954-0.0352 0.0047-0.0352 0.0024-6.0118 0.63751-0.0352 0.0024-0.0352 0.0047-5.8899 0.68907 1.4789 12.631 5.8196-0.68204 0.0703-0.0071 5.8735-0.62345 0.0164-0.0024 0.0516-0.0047 5.9509-0.56251 5.8876-0.49454 0.0703-0.0047 5.8923-0.42891 0.0374-0.0024 0.0328-0.0024 5.9673-0.36563 5.904-0.3 0.0703-0.0024 5.5313-0.21797-0.50392-12.708zm53.347 12.898 1.036 0.05157 5.9884 0.35626 0.0421 0.0024 0.0281 0.0024 5.9884 0.42657 5.9157 0.48516 0.0703 0.0071 5.9134 0.55079 0.0422 0.0047 0.0281 0.0024 5.911 0.61876 0.0703 0.0071 5.9063 0.68438 5.972 0.75704 0.0398 0.0047 0.0305 0.0047 4.043 0.56016 1.7438-12.595-4.1133-0.56954-0.0704-0.0094-6.0423-0.76876-0.0352-0.0024-0.0352-0.0047-6.047-0.70079-0.0352-0.0047-0.0352-0.0024-6.0516-0.63282-0.0352-0.0047-0.0352-0.0024-6.054-0.56485-0.0352-0.0024-0.0352-0.0047-6.0563-0.49688-0.0704-0.0048-6.0587-0.43126-0.0352-0.0024h-0.0352l-6.0587-0.36329-0.0704-0.0048-1.1063-0.05391zm-144.25-1.2516-0.0352 0.0071-0.0328 0.0071-5.9087 1.2938-0.0352 0.0071-0.0328 0.0071-5.897 1.3594-0.0329 0.0071-0.0352 0.0071-5.8806 1.425-0.0328 0.0071-0.0352 0.0094-5.8665 1.4883-0.0328 0.0071-0.0329 0.0094-5.8524 1.5539-0.0328 0.0071-0.0352 0.0094-5.8337 1.6172-0.0328 0.0094-0.0352 0.01176-5.8173 1.6805-0.0352 0.0094-0.0328 0.01176-4.5938 1.3828 3.668 12.176 4.5259-1.3641 0.0656-0.01876 5.6837-1.643 0.0679-0.01876 5.768-1.5985v-0.0024l5.7821-1.5328 5.7306-1.4531 0.0679-0.0164 5.7446-1.3899h2e-3l0.0656-0.0164 5.7587-1.3266 5.8407-1.2797 0.0632-0.01176 5e-3 -0.0024 0.58126-0.11953-2.5828-12.45zm237.73 14.391 2.8993 0.67032 0.012 0.0024 0.0586 0.01406 5.8266 1.4156 5.8876 1.5 0.0679 0.01876h2e-3l5.8056 1.5492 0.0516 0.01406 0.0164 0.0047 5.7962 1.6172 0.0679 0.01876 5.7821 1.6852 0.0492 0.01406 0.0211 0.0071 5.836 1.7742v-0.0024l5.7563 1.8211 1.575 0.51563 3.968-12.08-1.5727-0.51563-0.0328-0.01176-0.0352-0.01176-5.8946-1.8633-0.0328-0.0094-0.0352-0.01176-5.9063-1.793-0.0352-0.01176-0.0352-0.0094-5.9204-1.725-0.0352-0.0094-0.0328-0.0094-5.9345-1.6571-0.0328-0.0094-0.0352-0.0094-5.9462-1.5867-0.0328-0.0094-0.0352-0.0094-5.9556-1.5188-0.0352-0.0071-0.0352-0.0094-5.9673-1.4485-0.0352-0.0094-0.0328-0.0071-2.9696-0.68673zm-331.38 14.384-0.0329 0.01176-0.0328 0.01406-5.6204 2.325-0.0656 0.02812-5.5993 2.3883-0.0328 0.01406-0.0329 0.01406-5.5735 2.4516-0.0328 0.01406-0.0329 0.01406-5.5501 2.5149-0.0328 0.0164-0.0328 0.01406-5.5266 2.5782-0.0305 0.0164-0.0329 0.01406-5.5009 2.6438-0.0328 0.01406-0.0329 0.0164-5.4751 2.7071-0.0305 0.01406-0.0328 0.0164-2.8196 1.4344 5.761 11.337 2.7563-1.4016 0.0632-0.03281 5.3485-2.6438 0.0586-0.02813 5e-3 -0.0024 5.3743-2.5805 0.0632-0.03047 5.3977-2.5196 0.012-0.0047 0.0539-0.02578 5.4212-2.4563 0.0656-0.02813 5.4446-2.3953 0.0563-0.02344 0.01-0.0047 5.468-2.3321 0.0656-0.02813 5.4891-2.2711 0.0656-0.02578 1.786-0.71485-4.7274-11.806zm421.18 14.86 0.18048 0.075 0.0445 0.01876 0.0211 0.0094 5.611 2.4305 5.6602 2.5289 5.6368 2.5969 5.6204 2.6672 0.0656 0.03047 5.5313 2.7047 0.0516 0.02578 0.014 0.0071 5.5102 2.7727 0.0656 0.032808 5.4892 2.843 3.0938 1.6453 5.9743-11.224-3.0914-1.6453-0.0328-0.01876-0.0328-0.0164-5.618-2.9086-0.0656-0.0328-5.6415-2.8383-0.0328-0.01876-0.0328-0.01406-5.6626-2.7704-0.0352-0.01406-0.0328-0.01641-5.6837-2.6977-0.0656-0.0328-5.7048-2.6274-0.0328-0.0164-0.0352-0.01406-5.7235-2.5571-0.0328-0.0164-0.0352-0.01406-5.7446-2.4891-0.0328-0.01407-0.0328-0.01406-0.24844-0.10313zm-509.07 30.455-0.061 0.037512-5.1868 3.3352-0.0305 0.018744-0.0281 0.021096-5.154 3.3961-0.0305 0.01876-0.0305 0.0211-5.1212 3.4594-0.0305 0.0211-0.0281 0.0211-5.0884 3.5204-0.0305 0.0211-0.0281 0.0211-5.0532 3.5836-0.0305 0.0211-0.0281 0.0211-5.0204 3.6469-0.0305 0.02112-0.0281 0.02112-4.9852 3.7079-0.0281 0.02112-0.0281 0.0234-0.225 0.17109 7.7064 10.113 0.16642-0.12657h2e-3l0.0563-0.04452 4.868-3.6211 0.0563-0.04212 4.9032-3.5602 0.0211-0.01644 0.0374-0.0258 4.936-3.5016 0.0586-0.04224 4.9688-3.4383 0.061-0.04224 5.0016-3.3774 0.0586-0.03984 5.0344-3.3188 0.0211-0.01406 0.0398-0.02578 5.0649-3.2579v0.0024l3.5766-2.2453-6.7571-10.772zm-75.015 57.191-0.0281 0.0234-0.0258 0.0258-4.643 4.2633-0.02808 0.0234-0.0258 0.0258-4.6032 4.3243-0.0258 0.0234-0.0258 0.0258-4.561 4.3852-0.0516 0.0516-4.5188 4.4438-0.0516 0.0516-4.4766 4.5071-0.0258 0.0258-0.0258 0.02808-4.4321 4.5657-0.0258 0.0258-0.0258 0.02808-4.3876 4.6266-0.0258 0.02808-0.0258 0.0258-1.0289 1.111 9.3283 8.6439 0.97737-1.057 0.0516-0.0539 4.2868-4.5212 0.01872-0.02112 0.03276-0.03276 4.329-4.4626 0.0516-0.0516 4.3735-4.4016 0.05148-0.05148 4.4133-4.343 0.05388-0.0516 4.4532-4.2821 0.012-0.012 0.0422-0.03984 4.4954-4.2235 0.0539-0.0492 4.5352-4.1626 0.012-0.012 0.0422-0.03744 1.3852-1.2422-8.4915-9.4665zm-65.685 70.928-0.02112 0.0281-0.0234 0.0281-3.8837 5.0602-0.0234 0.0281-0.02112 0.0305-3.8157 5.093-0.0234 0.0281-0.02112 0.0305-3.75 5.1259-0.0211 0.0281-0.0211 0.0305-3.6844 5.1587-0.0211 0.0305-0.0211 0.0281-3.6165 5.1915-0.0211 0.0305-0.01876 0.0305-3.5508 5.2196-0.0211 0.0305-0.01876 0.0305-3.4829 5.2524-0.021096 0.0305-0.018756 0.0305-0.80157 1.2399 10.678 6.9048 0.76173-1.1789 0.01876-0.0281 0.0211-0.0329 3.4008-5.1305 0.03984-0.0586 3.4688-5.1024 0.03984-0.0586 3.5344-5.0696 0.04224-0.061 3.5977-5.0391 0.01404-0.0211 0.02808-0.0374 3.6633-5.0087 0.04452-0.0586 3.729-4.9735 0.0258-0.0328 0.01872-0.0258 3.7922-4.943 0.04692-0.0586 1.1742-1.493-9.9962-7.861zm-51.837 80.068-0.0164 0.0328-0.0164 0.0305-2.8829 5.5032-0.0164 0.0328-0.0164 0.0305-2.8149 5.529-0.0164 0.0305-0.0164 0.0328-2.7469 5.5524-0.0164 0.0329-0.0164 0.0328-2.6813 5.5759-0.01407 0.0305-0.0164 0.0328-2.6157 5.5993-0.02812 0.0656-2.5477 5.6204-0.0164 0.0328-0.01406 0.0329-2.4821 5.6438-0.01406 0.0328-0.01406 0.0329-1.4813 3.4782 11.698 4.9852 1.4531-3.4102 2.4516-5.5782 0.03047-0.0656 2.4868-5.4891 0.02344-0.0516 0.0071-0.014 2.5547-5.468 0.03047-0.0656 2.618-5.4446 0.03281-0.0656 2.6836-5.4212 0.01176-0.0234 0.0211-0.0422 2.7469-5.3977 0.03516-0.0656 2.8477-5.4376 0.31407-0.58127-11.199-6.0282zm972.31 13.971 2.8571 5.686 5e-3 0.012 0.0281 0.0539 2.7516 5.6415 0.0305 0.0656 2.6813 5.6579 0.0211 0.0422 0.01 0.0234 2.6086 5.6766 0.0258 0.0563 5e-3 0.012 2.536 5.693 2.4938 5.7751 2.4235 5.7938 0.01 0.0234 0.0187 0.0445 1.1227 2.7727 11.787-4.7696-1.1508-2.8407-0.012-0.0352-0.014-0.0329-2.4516-5.8618-0.014-0.0329-0.014-0.0352-2.5243-5.8431-0.014-0.0328-0.0164-0.0352-2.5946-5.8266-0.0164-0.0329-0.014-0.0352-2.6696-5.8079-0.0164-0.0352-0.0164-0.0328-2.7422-5.7915-0.0164-0.0329-0.014-0.0328-2.8172-5.7727-0.0328-0.0656-2.8899-5.7516zm-1010.9 77.783-0.01176 0.0352-0.01176 0.0328-1.8141 5.8313-0.0094 0.0329-0.01176 0.0352-1.7461 5.8454-0.01176 0.0328-0.0094 0.0352-1.6805 5.8618-0.0094 0.0329-0.0094 0.0352-1.6149 5.8759-0.0094 0.0328-0.0094 0.0352-1.5492 5.8876-0.0071 0.0352-0.0094 0.0352-1.4813 5.9016-0.0094 0.0328-0.0071 0.0352-1.4156 5.9157-0.0094 0.0328-0.0071 0.0352-0.34922 1.5328 12.399 2.8219 0.33282-1.4649 0.0164-0.0679 1.3828-5.7774 0.0164-0.0703 1.4485-5.7634 1.5281-5.822 0.01876-0.0679 1.5774-5.7376 0.0024-5e-3 0.0164-0.0632 1.643-5.7259 1.725-5.7774h0.0024l1.793-5.7634 0.0211-0.0679 1.0852-3.354-12.099-3.9141zm1046.3 9.7454 1.6406 5.4399 2e-3 0.01 0.0187 0.061 1.6899 5.8548 1.643 5.9368h-2e-3l1.5727 5.9462 0.0187 0.0703 1.4813 5.8829 1.4321 5.9626 0.01 0.0398 0.01 0.0305 1.3453 5.9016 0.017 0.0703 0.989 4.5821 12.429-2.6836-1.0054-4.6548-0.02-0.0704-1.3758-6.0399-0.01-0.0374-0.01-0.0352-1.4485-6.0329-0.02-0.0704-1.5188-6.0235-0.02-0.0704-1.589-6.0165-0.02-0.0704-1.6618-6.0048-0.02-0.0704-1.732-5.9954-0.01-0.0352-0.012-0.0352-1.6594-5.5102zm-1067.6 86.179-0.0047 0.0328-0.0047 0.0352-0.75001 6.0095-0.0094 0.0704-0.68204 6.0142-0.0047 0.0352-0.0024 0.0328-0.61642 6.0212-0.0047 0.0352-0.0024 0.0352-0.55079 6.0259-0.0024 0.0328-0.0047 0.0352-0.48282 6.0306-0.0048 0.0704-0.41719 6.0329-0.0048 0.0704-0.35157 6.0352-0.0024 0.0352v0.0352l-0.01406 0.2625 12.703 0.60001 0.0094-0.19454 0.34454-5.9673 0.0047-0.0679 0.40782-5.8946 0.0047-0.0703 0.48048-5.9602 0.53673-5.8852 0.0047-0.0563 0.0024-0.014 0.60235-5.8806 0.0071-0.0703 0.66798-5.8759 0.73829-5.9368h0.0024l0.70079-5.1587-12.6-1.7133zm1087.2 6.1946 0.3469 2.8383 0.6656 5.9509 0.01 0.0703 0.5953 5.9509 0.01 0.0703 0.5297 5.9532 0.4688 6.0235v0.0679 2e-3l0.3984 6.0235 0.3305 6.0235 0.2625 5.9532v0.0656 5e-3l0.068 2.0977 12.71-0.4172-0.073-2.168v-0.0374-0.0352l-0.2672-6.0915v-0.0374-0.0352l-0.3352-6.0938v-0.0352-0.0352l-0.4055-6.0962v-0.0352-0.0352l-0.4734-6.0938v-0.0352-0.0374l-0.5437-6.0938v-0.0352-0.0352l-0.6118-6.0915v-0.0374-0.0352l-0.6797-6.0915v-0.0352-0.0352l-0.3492-2.8383zm-1091.6 85.089 0.0094 0.27189v0.0352l0.0024 0.0329 0.2461 6.0399 0.0024 0.0352v0.0352l0.31407 6.0376 0.0048 0.0704 0.37969 6.0329v0.0352l0.0047 0.0352 0.44532 6.0282 0.0048 0.0704 0.51329 6.0259 0.0048 0.0704 0.57891 6.0188 0.0047 0.0352 0.0024 0.0352 0.64454 6.0142 0.0094 0.0704 0.61407 5.1891 12.628-1.493-0.60704-5.1212-0.0071-0.0703-0.63048-5.8759-0.0024-0.0234-0.0047-0.0445-0.56485-5.8829-0.0071-0.0679-0.50157-5.8876-0.0047-0.0679-0.43594-5.8923-0.0024-0.0305-0.0024-0.0374-0.37032-5.8946-0.0047-0.0703-0.30469-5.897-0.24375-5.9696-0.0024-0.0703-0.0071-0.20156zm1094.6 13.903v0.0679 2e-3l-0.3961 5.9134v0.012 0.0563l-0.4687 5.9766-0.5274 5.897-0.01 0.0679-0.6 5.9602-0.6586 5.8806-0.7289 5.9392-0.01 0.0656v5e-3l-0.7852 5.8595-0.01 0.0703-0.087 0.60001 12.584 1.8281 0.096-0.67032v-0.0328-0.0352l0.8039-6.0001v-0.0352-0.0352l0.7383-6.0095v-0.0352-0.0352l0.6726-6.0188v-0.0352-0.0352l0.6047-6.0282v-0.0352-0.0329l0.5391-6.0376v-0.0352-0.0352l0.4734-6.0446v-0.0352-0.0352l0.4055-6.0516v-0.0352-0.0352l0.2648-4.7274-12.696-0.71017zm-1082.8 82.025 0.30235 1.4438 0.0071 0.0352 0.0071 0.0328 1.3078 5.9274 0.0094 0.0352 0.0071 0.0352 1.3735 5.9134 0.0094 0.0352 0.0071 0.0352 1.4414 5.9016 0.0071 0.0352 0.0094 0.0328 1.5047 5.8899 0.0094 0.0352 0.0094 0.0328 1.5727 5.8759 0.0094 0.0352 0.0094 0.0328 1.6383 5.8618 0.0094 0.0352 0.0094 0.0328 1.7063 5.8477 0.0094 0.0328 0.0094 0.0352 1.1016 3.6282 12.169-3.6962-1.1016-3.6282-1.6664-5.7094-0.01876-0.0679-1.6008-5.7259-0.0047-0.0211-0.01406-0.0469-1.5352-5.7399-0.01876-0.0679-1.4719-5.754-0.0164-0.0679-1.4063-5.7657-0.0024-0.014-0.01406-0.0539-1.357-5.8477-1.2774-5.7892-0.01406-0.0679-0.28828-1.3758zm1068.6 12.511-7e-3 0.0281-0.01 0.0398-1.4227 5.7329-0.0164 0.0679-1.486 5.7141-1.5656 5.768-7e-3 0.0258-0.012 0.0422-1.6102 5.6813-0.0187 0.0679-1.6711 5.6626h-2e-3l-1.7555 5.7142-5e-3 0.0187-0.0164 0.0492-1.6852 5.2806 12.113 3.8672 1.7086-5.3462 0.01-0.0352 0.01-0.0328 1.7766-5.7798 0.012-0.0328 0.01-0.0328 1.711-5.7985 0.012-0.0352 0.01-0.0328 1.6477-5.8173 0.01-0.0328 0.01-0.0352 1.5844-5.8337 0.01-0.0328 0.01-0.0352 1.5187-5.8501 0.01-0.0352 0.01-0.0329 1.4555-5.8665 0.01-0.0352 0.01-0.0328 1.3665-5.7751-12.375-2.9274zm-1040.3 79.935 1.275 3.1524 0.01406 0.0352 0.01406 0.0328 2.3649 5.6649 0.02812 0.0656 2.4328 5.6438 0.01406 0.0328 0.01407 0.0328 2.4985 5.6227 0.01406 0.0328 0.0164 0.0329 2.5641 5.5993 0.01406 0.0328 0.0164 0.0328 2.6297 5.5759 0.0164 0.0329 0.01406 0.0328 2.6977 5.5524 0.01641 0.0328 0.0164 0.0305 2.761 5.529 0.0328 0.0656 0.59766 1.1602 11.309-5.8126-0.59532-1.1625h-0.0024l-2.7282-5.4634-2.6344-5.4235-0.0094-0.0187-0.0211-0.0445-2.5688-5.447-0.0164-0.0352-0.01406-0.0305-2.5055-5.468-0.03047-0.0656-2.4399-5.4915-0.02813-0.0656-2.3766-5.5126-0.0047-0.012-0.02344-0.0539-2.311-5.5337-0.02578-0.0657-1.2492-3.0891zm1012.2 5.1094-0.0187 0.0445-0.01 0.0211-2.3789 5.4962h2e-3l-2.4118 5.4095-0.0305 0.0656-2.4704 5.3837-0.0305 0.0632-2.5313 5.3602-0.0211 0.0422-0.01 0.0211-2.5922 5.3321-0.0305 0.0632-2.6532 5.3063-0.0328 0.0632-2.7118 5.2782-0.012 0.0211-0.0211 0.0422-1.9805 3.7524 11.245 5.9368 2.0133-3.8157 0.0328-0.061 2.7774-5.4048 0.0164-0.0328 0.014-0.0305 2.7164-5.4329 0.0164-0.0329 0.014-0.0305 2.6555-5.4587 0.028-0.0656 2.5922-5.4845 0.0164-0.0328 0.014-0.0328 2.5313-5.5102 0.014-0.0328 0.014-0.0329 2.468-5.536 0.028-0.0656 2.4071-5.5618 0.014-0.0328 0.012-0.0328 0.40078-0.95158-11.726-4.9196zm-968.29 80.957 0.32344 0.52501 0.037512 0.061 3.3563 5.2829 0.021096 0.0305 0.018756 0.0305 3.4243 5.2548 0.01876 0.0305 0.0211 0.0305 3.4876 5.222 0.0422 0.061 3.5532 5.1915 0.0422 0.061 3.6211 5.1587 0.0422 0.061 3.6868 5.1258 0.0422 0.061 3.7524 5.093 0.0234 0.0305 0.02112 0.0281 1.9032 2.5219 10.151-7.6595-1.8586-2.4633-0.04452-0.0586-3.6657-4.9758-0.03984-0.0539-0.0024-5e-3 -3.6024-5.0087-0.04224-0.061-3.5368-5.0391-0.0234-0.0328-0.01872-0.0281-3.4711-5.0696-0.04219-0.061-3.4079-5.1024-0.03516-0.0516-0.0047-0.01-3.3422-5.1305-0.03984-0.061-3.279-5.161-0.0375-0.061-0.28594-0.46173zm922.95 3.7501-0.0398 0.0586-3.3047 4.9782-0.0398 0.0586-3.3633 4.9454-0.0398 0.0586-3.4219 4.9102-0.0398 0.0586-3.4805 4.8751-0.0164 0.0211-0.0258 0.0374-3.5813 4.8985h2e-3l-3.5977 4.8071-5e-3 5e-3 -0.0374 0.0516-3.654 4.772-0.0445 0.0563-1.2914 1.6453 10.008 7.847 1.336-1.7039 0.0211-0.0281 0.0234-0.0281 3.7407-4.8844 0.0422-0.0562 3.6821-4.922 0.0211-0.0281 0.0211-0.0305 3.6235-4.9571 0.0211-0.0281 0.0187-0.0281 3.5649-4.9946 0.0187-0.0281 0.0211-0.0305 3.504-5.0274 0.0187-0.0281 0.0211-0.0305 3.443-5.0626 0.0211-0.0281 0.0187-0.0305 3.3844-5.0977 0.0187-0.0281 0.0211-0.0305 1.4789-2.2828-10.674-6.9142zm-864.77 73.396 0.075 0.0844 0.0234 0.0281 0.0258 0.0258 4.3337 4.7602 0.0258 0.0258 0.0258 0.0281 4.3782 4.6969 0.0258 0.0258 0.0258 0.0281 4.4227 4.636 0.0516 0.0516 4.4649 4.5751 0.0258 0.0258 0.02808 0.0258 4.5071 4.5118 0.0258 0.0258 0.02808 0.0258 4.5516 4.4508 0.0516 0.0516 4.5938 4.3876 0.0516 0.0516 2.1586 2.0133 8.679-9.2931-2.1047-1.9641-0.0539-0.0516-4.486-4.2868-0.0024-2e-3 -0.0516-0.0492-4.4461-4.3477-0.0492-0.0516h-0.0024l-4.4063-4.4087-0.0516-0.0516-4.3641-4.4696-0.04692-0.0492-0.0024-2e-3 -4.3219-4.5305-0.0516-0.0539-4.2798-4.5891-0.04452-0.0492-0.0048-5e-3 -4.2352-4.6501-0.01872-0.0211-0.03048-0.0328-0.02808-0.0305zm804.24 2.8571-0.0281 0.0281-0.0211 0.0234-4.2235 4.3805-0.0516 0.0516-4.2798 4.3383-0.0516 0.0516-4.336 4.2962-0.0516 0.0516-4.3923 4.254-0.0328 0.0305-0.0187 0.0187-4.4485 4.2094-0.0539 0.0492-4.5024 4.1649-0.0305 0.0258-0.0234 0.0234-3.3493 3.0258 8.5267 9.4337 3.4032-3.075 0.0258-0.0234 0.0281-0.0258 4.6102-4.2634 0.0258-0.0234 0.0281-0.0258 4.5516-4.3102 0.0281-0.0258 0.0258-0.0234 4.4954-4.3548 0.0281-0.0258 0.0258-0.0258 4.4391-4.3969 0.0516-0.0516 4.3805-4.4438 0.0516-0.0516 4.3243-4.4836 0.0258-0.0258 0.0234-0.0281 3.9165-4.1555-9.2533-8.7212zm-733.58 63.151 4.6336 3.5907 0.0281 0.0234 0.0305 0.0211 4.9759 3.7665 0.0281 0.0211 0.0305 0.0211 5.0087 3.7032 0.0305 0.0234 0.0281 0.0211 5.0462 3.6399 0.0305 0.0211 0.0281 0.0211 5.0813 3.5766 0.0281 0.0211 0.0305 0.0211 5.1118 3.5133 0.061 0.0422 5.1446 3.45 0.0305 0.0211 0.0305 0.0187 3.8954 2.55 6.9634-10.641-3.8344-2.5078-0.061-0.0398-5.0251-3.3727-5.0532-3.4711v-2e-3l-5.0204-3.5344-0.061-0.0422-4.9266-3.5555-0.0586-0.0422-4.8938-3.6164-0.0586-0.0445-4.861-3.6774-0.0563-0.0445-4.5774-3.5461zm663.57-1.3758-0.0586 0.0445-5.0532 3.6915-0.061 0.0445-5.1071 3.6422-0.061 0.0423-5.1634 3.5907-5.2641 3.5743-0.061 0.0398-5.2313 3.4641-0.0305 0.0187-0.0305 0.0211-5.2594 3.3938-0.061 0.0398-3.8696 2.4352 6.7712 10.763 3.9305-2.475 0.0329-0.0187 0.0305-0.0187 5.3813-3.4758 0.0305-0.0187 0.0329-0.0211 5.3532-3.5438 0.0305-0.0211 0.0305-0.0187 5.3251-3.6141 0.061-0.0422 5.2829-3.6774 0.061-0.0422 5.229-3.7266 0.0281-0.0211 0.0305-0.0234 5.1727-3.7782 0.0305-0.0234 0.0281-0.0211 3.7243-2.7868-7.622-10.179zm-582.58 54.036 2.6133 1.3899 0.0305 0.0187 0.0329 0.0164 5.4399 2.8172 0.0328 0.0164 0.0305 0.0164 5.468 2.754 0.0656 0.0328 5.4938 2.6907 0.0305 0.014 0.0328 0.0164 5.5196 2.6274 0.0305 0.014 0.0328 0.0164 5.543 2.5618 0.0328 0.0164 0.0329 0.014 5.5665 2.4985 0.0656 0.028 5.5923 2.4352 0.0328 0.014 0.0305 0.014 1.9125 0.80626 4.9477-11.714-1.8469-0.77814-0.0328-0.014-0.0329-0.014-5.461-2.3789-0.0656-0.0281-5.5008-2.4704-5.4165-2.5032-0.0633-0.0305-5.3907-2.5664-0.0258-0.012-0.0374-0.0187-5.4306-2.6602-5.3415-2.6907-5.3766-2.7844-2e-3 -2e-3 -0.061-0.0305-2.55-1.357zm502.15-4.6735-0.0329 0.0164-0.0328 0.0164-5.5009 2.7094-0.0656 0.0328-5.5243 2.6438-0.0657 0.0305-5.543 2.5758h-2e-3l-0.0632 0.0305-5.5642 2.5055-0.012 5e-3 -0.0563 0.0258-5.5829 2.4399-0.0398 0.0164-0.0258 0.012-5.604 2.3719-0.0656 0.0281-5.222 2.1399 4.8235 11.766 5.2876-2.168 0.0352-0.014 0.0329-0.014 5.7352-2.4282 0.0352-0.014 0.0328-0.014 5.7165-2.4985 0.0328-0.014 0.0328-0.0164 5.6977-2.5664 0.0328-0.014 0.0329-0.0164 5.6766-2.6368 0.0328-0.014 0.0328-0.0164 5.6556-2.7071 0.0328-0.014 0.0328-0.0164 5.6321-2.775 0.0656-0.0328 4.0899-2.0742-5.7516-11.342zm-413.18 42.439 4.5891 1.4743 0.0352 0.012 0.0328 0.01 5.7938 1.7906 0.0329 0.012 0.0352 0.01 5.8102 1.725 0.0352 0.01 0.0328 0.012 5.8266 1.6594 0.0352 0.01 0.0328 0.01 5.8454 1.5961 0.0656 0.02 5.8594 1.5305 0.0352 0.01 0.0328 0.01 5.8735 1.4672 0.0352 0.01 0.0329 0.01 5.8899 1.3993 0.0328 0.01 0.0352 0.01 0.58125 0.1312 2.8055-12.401-0.51329-0.1149-5.8196-1.3828-0.0211-5e-3 -0.0469-0.012-5.8056-1.4508-5.7235-1.493v-2e-3l-5.7774-1.5774-0.0656-0.0187-5.693-1.6219-0.0679-0.0187-5.6766-1.6852-0.0679-0.0211-5.6602-1.7485-0.0656-0.0211-4.5235-1.4532zm327.67-8.4657-0.0679 0.0211-5.7634 1.6992-0.0679 0.0187-5.7751 1.6336-0.0374 0.01-0.0305 0.01-5.8571 1.5844v2e-3l-5.7985 1.4977-0.0703 0.0187-5.8079 1.432-0.0703 0.016-5.8196 1.3664h-0.01l-0.061 0.014-5.8993 1.3149-2.6157 0.5531 2.6297 12.441 2.6836-0.5672 0.0704-0.02 5.9673-1.3312 0.0704-0.02 5.9602-1.3993 0.0352-0.01 0.0329-0.01 5.9485-1.4672 0.0704-0.02 5.9368-1.5352 0.0704-0.02 5.9251-1.6031 0.0328-0.01 0.0352-0.01 5.9134-1.6735 0.0328-0.01 0.0352-0.01 5.8993-1.7414 0.0352-0.01 0.0352-0.012 2.0531-0.6305-3.736-12.155zm-233.5 30.214 5.9485 0.8062h0.0329 0.0352l5.9978 0.743h0.0352 0.0352l6.0048 0.6797h0.0352 0.0352l6.0118 0.6141h0.0352 0.0352l6.0188 0.5484h0.0352 0.0352l6.0259 0.4828h0.0352 0.0352l6.0306 0.4149h0.0352 0.0352l5.5454 0.3187 0.73361-12.694-5.4774-0.3164h-0.0563-0.014l-5.8899-0.4055h-0.0703l-5.9556-0.4758-5.8806-0.5343h-0.0563-0.014l-5.9438-0.6071-5.8665-0.6656-5.9274-0.736-0.0586-0.01h-0.012l-5.8782-0.7945zm138.91-10.753-5.8993 0.6399h-0.0516-0.0187l-5.9016 0.5719-0.0703 0.01-5.9766 0.5132-5.9087 0.443-5.9813 0.3821h-0.0703l-5.9134 0.3093-5.9837 0.2508-1.0782 0.033 0.38672 12.71 1.0781-0.033h0.0352 0.0352l6.054-0.2508h0.0352 0.0352l6.0516-0.3188h0.0352 0.0352l6.0516-0.3843h0.0352 0.0352l6.0493-0.4524h0.0352 0.0352l6.047-0.518h0.0352 0.0352l6.0446-0.5859h0.0352 0.0352l6.0376-0.6539h0.0352 0.0352l4.2493-0.5063-1.5094-12.626z" style="block-progression:tb;color-rendering:auto;color:#000000;enable-background:accumulate;fill:#808080;image-rendering:auto;isolation:auto;mix-blend-mode:normal;opacity:1;shape-padding:0;shape-rendering:auto;solid-color:#000000;text-decoration-color:#000000;text-decoration-line:none;text-decoration-style:solid;text-indent:0;text-transform:none;white-space:normal"/>
     <path id="circle4755" transform="matrix(3.8471 0 0 3.8471 -511.27 -511.41)" d="m366.15 113.57a32.27 32.27 0 0 0-32.27 32.27 32.27 32.27 0 0 0 32.27 32.271 32.27 32.27 0 0 0 32.271-32.271 32.27 32.27 0 0 0-32.271-32.27zm-110.18 32.27a110.18 110.18 0 0 0-110.18 110.18 110.18 110.18 0 0 0 110.18 110.18 110.18 110.18 0 0 0 110.18-110.18 110.18 110.18 0 0 0-110.18-110.18z" style="fill:#2222c5;stroke-width:.75514"/>
     <circle id="circle4757" cx="649.06" cy="297.94" r="124.15" style="fill:#f1f1f1;stroke-width:2.9051"/>
    </g>
   </g>
  </g>
 </g>
 <g id="layer5" transform="translate(-32,-32)">
  <path id="path4231" transform="translate(32,32)" d="m256 24v121.84a110.18 110.18 0 0 1 65.113 21.479 26.891 26.891 0 0 1-0.21484-3.1152 26.891 26.891 0 0 1 13.371-23.209 32.27 32.27 0 0 1 31.879-27.424 32.27 32.27 0 0 1 32.271 32.27 32.27 32.27 0 0 1-27.402 31.861 26.891 26.891 0 0 1-23.229 13.393 26.891 26.891 0 0 1-3.0957-0.19727 110.18 110.18 0 0 1 21.455 65.121 110.18 110.18 0 0 1-110.15 110.17v121.81h114.16c70.593 0 77.844-7.2493 77.844-77.986v-154.01-154.01c0-70.737-7.2503-77.986-77.844-77.986z" style="color:#000000;enable-background:accumulate;fill:#fff;opacity:.1"/>
  <path id="path4255" transform="translate(32,32)" d="m64 256v154.01c-0.34598 70.736 7.2503 77.986 77.844 77.986h228.31c70.593 0 77.844-7.2493 77.844-77.986v-154.01h-81.852a110.18 110.18 0 0 1 0 0.0156 110.18 110.18 0 0 1-110.18 110.18 110.18 110.18 0 0 1-110.18-110.18 110.18 110.18 0 0 1 0-0.0156z" style="color:#000000;enable-background:accumulate;fill:#fff;opacity:.1"/>
  <path id="circle4755-9" transform="translate(32,32)" d="m145.8 256a110.18 110.18 0 0 0 0 0.0156 110.18 110.18 0 0 0 110.18 110.18 110.18 110.18 0 0 0 110.18-110.18 110.18 110.18 0 0 0 0-0.0156z" style="enable-background:new;fill:#fff;opacity:.04;stroke-width:.75514"/>
  <path id="path4603" transform="translate(32,32)" d="m366.15 113.57a32.27 32.27 0 0 0-32.27 32.27 32.27 32.27 0 0 0 32.27 32.271 32.27 32.27 0 0 0 32.271-32.271 32.27 32.27 0 0 0-32.271-32.27zm-110.15 32.27v220.35a110.18 110.18 0 0 0 110.15-110.17 110.18 110.18 0 0 0-110.15-110.18z" style="enable-background:new;fill:#fff;opacity:.04;stroke-width:.75514"/>
 </g>
 <g id="layer1" transform="translate(-32,-32)">
  <path id="path4254" d="m360 520 120-120v44.968c-0.1047 67.992-7.6054 75.032-76.348 75.032z" style="color:#000000;enable-background:accumulate;fill:#fff;opacity:.5"/>
  <path id="path4286" d="m173.84 56c-68.982 0-77.805 6.9589-77.85 73.277 0.22272-64.485 9.5571-71.277 77.85-71.277h228.31c70.593 0 77.844 7.2493 77.844 77.986v-2c0-70.737-7.2503-77.986-77.844-77.986z" style="color:#000000;enable-background:accumulate;fill:#fff;opacity:.6"/>
  <path id="path4295" d="m480 440.01c0 70.737-7.2503 77.986-77.844 77.986h-228.31c-68.292 0-77.627-6.7926-77.85-71.277 0.044202 66.318 8.8674 73.277 77.85 73.277h228.31c70.593 0 77.844-7.2493 77.844-77.986z" style="color:#000000;enable-background:accumulate;opacity:.1"/>
 </g>
</svg>
