<?xml version="1.0" encoding="UTF-8"?>
<!-- Created with Inkscape (http://www.inkscape.org/) -->
<svg id="svg3289" width="90" height="90" version="1.1" xmlns="http://www.w3.org/2000/svg" xmlns:cc="http://creativecommons.org/ns#" xmlns:dc="http://purl.org/dc/elements/1.1/" xmlns:rdf="http://www.w3.org/1999/02/22-rdf-syntax-ns#">
 <metadata id="metadata3294">
  <rdf:RDF>
   <cc:Work rdf:about="">
    <dc:format>image/svg+xml</dc:format>
    <dc:type rdf:resource="http://purl.org/dc/dcmitype/StillImage"/>
    <dc:title/>
   </cc:Work>
  </rdf:RDF>
 </metadata>
 <g id="layer1" transform="translate(0 -962.36)">
  <g id="g4451" transform="translate(-789 604.36)">
   <g id="g4143" transform="matrix(1.875 0 0 1.875 249 -1435.2)">
    <rect id="rect4145" transform="translate(0 804.36)" x="288" y="152" width="48" height="48" style="fill:none;opacity:.21171"/>
   </g>
   <path id="path2997" transform="translate(789 358)" d="m36 6c-27 0-30 0-30 18v42c0 18 3 18 30 18h12v-30h-9v-12h9v-9.9688c0-7.5333 5.1243-14.469 16.344-14.469 4.5426 0 7.875 0.4375 7.875 0.4375l-0.25 12s-3.418-0.03125-7.1562-0.03125c-4.0459 0-4.8125 1.8741-4.8125 4.9688v7.0625h12.281l-0.53125 12h-11.75v29.969c21.235-0.11383 24-1.4636 24-17.969v-42c0-18-3-18-30-18h-18z" style="fill:#808080"/>
  </g>
 </g>
</svg>
