<?xml version="1.0" encoding="UTF-8"?>
<!-- Created with Inkscape (http://www.inkscape.org/) -->
<svg id="svg3289" width="90" height="90" version="1.1" xmlns="http://www.w3.org/2000/svg" xmlns:cc="http://creativecommons.org/ns#" xmlns:dc="http://purl.org/dc/elements/1.1/" xmlns:rdf="http://www.w3.org/1999/02/22-rdf-syntax-ns#">
 <metadata id="metadata3294">
  <rdf:RDF>
   <cc:Work rdf:about="">
    <dc:format>image/svg+xml</dc:format>
    <dc:type rdf:resource="http://purl.org/dc/dcmitype/StillImage"/>
    <dc:title/>
   </cc:Work>
  </rdf:RDF>
 </metadata>
 <g id="layer1" transform="translate(0 -962.36)">
  <g id="g4451" transform="translate(-789 604.36)">
   <g id="g4143" transform="matrix(1.875 0 0 1.875 249 -1435.2)">
    <rect id="rect4145" transform="translate(0 804.36)" x="288" y="152" width="48" height="48" style="fill:none;opacity:.21171"/>
   </g>
   <path id="path3818" d="m816.21 364c-11.701 0-21.209 9.5077-21.209 21.209 0 3.6142 0.88891 7.0043 2.486 9.983-0.5332 2.5101-0.77687 5.1396-0.77687 7.8078 0 20.595 16.696 37.291 37.291 37.291 2.6682 0 5.2977-0.24375 7.8078-0.77688 2.9889 1.6115 6.3515 2.4861 9.983 2.4861 11.701 0 21.209-9.5077 21.209-21.209 0-3.6316-0.87458-6.9941-2.486-9.983 0.53319-2.5101 0.77687-5.1396 0.77687-7.8078 0-20.595-16.696-37.291-37.291-37.291-2.6689 0-5.2972 0.32112-7.8078 0.85456-2.979-1.5975-6.3684-2.5637-9.983-2.5637zm17.053 14.334c12.2 0 18.49 6.4452 18.49 10.216s-1.8222 4.3894-4.8167 4.3894c-5.8127 0-3.4252-6.992-14.334-6.992-3.613 0-8.0797 1.6176-8.0797 5.8267 0 3.3772 3.9404 4.6194 10.993 6.3317 10.603 2.841 18.607 5.716 18.607 15.421 0 9.4274-7.766 14.139-19.966 14.139-12.2 0-19.966-7.2998-19.966-11.071 0-3.7709 1.4725-4.739 4.4671-4.739 5.8126 0 4.979 7.9243 15.887 7.9243 3.613 0 8.9343-1.6175 8.9343-5.8267 0-3.3772-0.23156-4.5708-7.9632-6.6424-8.26-1.1264-21.636-3.8065-21.636-14.062 0-9.4274 7.1833-14.916 19.383-14.916z" style="fill:#808080"/>
  </g>
 </g>
</svg>
