<?xml version="1.0" encoding="UTF-8"?>
<!-- Created with Inkscape (http://www.inkscape.org/) -->
<svg id="svg4874" width="96" height="96" version="1.1" viewBox="0 0 96 96" xmlns="http://www.w3.org/2000/svg" xmlns:cc="http://creativecommons.org/ns#" xmlns:dc="http://purl.org/dc/elements/1.1/" xmlns:rdf="http://www.w3.org/1999/02/22-rdf-syntax-ns#">
 <metadata id="metadata4879">
  <rdf:RDF>
   <cc:Work rdf:about="">
    <dc:format>image/svg+xml</dc:format>
    <dc:type rdf:resource="http://purl.org/dc/dcmitype/StillImage"/>
    <dc:title/>
   </cc:Work>
  </rdf:RDF>
 </metadata>
 <g id="layer1" transform="translate(67.857 -78.505)">
  <g id="g4845" transform="matrix(0 -1 -1 0 373.51 516.51)">
   <g id="g4778" transform="matrix(-.9996 0 0 1 575.94 -611)">
    <g id="g4780" transform="matrix(-1 0 0 1 576 611)">
     <rect id="rect4782" transform="scale(-1,1)" x="-438" y="345.36" width="96.038" height="96" style="color:#000000;fill:none"/>
     <path id="path4293" d="m352.56 410.7 25.714 25.531c3.1063 3.1051 9.8367 3.1051 12.77 0l36.758-36.571c2.9338-2.9326 2.9338-9.4877 0-12.42l-36.758-36.744c-3.1063-3.1051-9.8369-3.1051-12.77 0l-25.714 25.531c-1.5532 1.5525-2.5886 3.9677-2.5886 6.3828v22.253c0 2.2426 1.0355 4.4853 2.5886 6.0378zm10.009-23.288c0.51765-0.51764 1.5532-0.51764 2.0708 0l5.0047 5.0028c0.51784 0.51745 0.51784 1.5523 0 2.07l-5.0047 5.0028c-0.51765 0.51745-1.5532 0.51745-2.0708 0l-3.7967-3.9677v-4.1402zm21.227 0c0.34511-0.34497 1.208-0.34497 1.5532 0l5.3498 5.3477c0.3451 0.34478 0.3451 1.2074 0 1.5524l-15.532 15.526c-0.51784 0.51745-1.7259 0.51745-2.2435 0l-3.6241-3.6227v-4.1402zm21.054 0c0.34511-0.34497 1.3806-0.51764 1.7257 0l5.1773 5.1752c0.34511 0.34497 0.34511 1.3799 0 1.8975l-26.059 26.049c-0.3451 0.34478-1.3806 0.51745-1.7257 0.17248l-3.9694-4.1402v-3.9677z" style="fill:#808080;stroke-width:.62219"/>
    </g>
   </g>
  </g>
 </g>
</svg>
