<?xml version="1.0" encoding="UTF-8"?>
<!-- Created with Inkscape (http://www.inkscape.org/) -->
<svg id="svg4874" width="96" height="96" version="1.1" viewBox="0 0 96 96" xmlns="http://www.w3.org/2000/svg" xmlns:cc="http://creativecommons.org/ns#" xmlns:dc="http://purl.org/dc/elements/1.1/" xmlns:rdf="http://www.w3.org/1999/02/22-rdf-syntax-ns#">
 <metadata id="metadata4879">
  <rdf:RDF>
   <cc:Work rdf:about="">
    <dc:format>image/svg+xml</dc:format>
    <dc:type rdf:resource="http://purl.org/dc/dcmitype/StillImage"/>
    <dc:title/>
   </cc:Work>
  </rdf:RDF>
 </metadata>
 <g id="layer1" transform="translate(67.857 -78.505)">
  <rect id="rect4782" transform="rotate(90)" x="78.505" y="-28.143" width="96" height="96" style="color:#000000;fill:none"/>
  <path id="path4179" d="m-47.881 90.506c-5.0328 0.05818-8.7136-0.12028-11.725 1.541-1.5055 0.83064-2.6968 2.2356-3.3555 3.9902-0.65866 1.7547-0.89648 3.8383-0.89648 6.4688v52c0 2.6304 0.23782 4.7121 0.89648 6.4668 0.65866 1.7546 1.85 3.1596 3.3555 3.9902 3.011 1.6613 6.6918 1.4848 11.725 1.543h0.01172 56.023 0.011719c5.0328-0.0582 8.7136 0.11832 11.725-1.543 1.5055-0.83064 2.6968-2.2356 3.3555-3.9902 0.65866-1.7547 0.89648-3.8364 0.89648-6.4668v-52c0-2.6304-0.23782-4.7141-0.89648-6.4688-0.65866-1.7547-1.85-3.1596-3.3555-3.9902-3.011-1.6613-6.6918-1.4828-11.725-1.541h-0.011719-56.023zm0.02344 4h56c5.0383 0.05877 8.3519 0.23688 9.8164 1.0449 0.73364 0.40478 1.1527 0.85295 1.543 1.8926 0.39025 1.0396 0.64062 2.6929 0.64062 5.0625v52c0 2.3696-0.25037 4.0229-0.64062 5.0625-0.39025 1.0396-0.80933 1.4878-1.543 1.8926-1.4645 0.80804-4.7782 0.98616-9.8164 1.0449h-55.977-0.02344c-5.0383-0.0588-8.3519-0.23688-9.8164-1.0449-0.73364-0.40478-1.1508-0.85296-1.541-1.8926-0.39025-1.0396-0.64258-2.6929-0.64258-5.0625v-52c0-2.3696 0.25232-4.0229 0.64258-5.0625 0.39025-1.0396 0.80738-1.4878 1.541-1.8926 1.4645-0.80804 4.7782-0.98616 9.8164-1.0449z" style="color-rendering:auto;color:#000000;fill:#808080;font-feature-settings:normal;font-variant-alternates:normal;font-variant-caps:normal;font-variant-ligatures:normal;font-variant-numeric:normal;font-variant-position:normal;image-rendering:auto;isolation:auto;mix-blend-mode:normal;shape-padding:0;shape-rendering:auto;solid-color:#000000;text-decoration-color:#000000;text-decoration-line:none;text-decoration-style:solid;text-indent:0;text-orientation:mixed;text-transform:none;white-space:normal"/>
  <rect id="rect4642" x="-51.857" y="100.51" width="64" height="8" style="color:#000000;fill:#808080"/>
  <path id="rect4646" transform="translate(-67.857 78.505)" d="m16 34v28h29v-28h-29zm4 4h21v20h-21v-20z" style="color:#000000;fill:#808080"/>
  <rect id="rect4648" x="-15.857" y="112.51" width="28" height="4" style="color:#000000;fill:#808080"/>
  <rect id="rect4650" x="-15.857" y="120.51" width="16" height="4" style="color:#000000;fill:#808080"/>
  <rect id="rect4652" x="-15.857" y="128.51" width="28" height="4" style="color:#000000;fill:#808080"/>
  <rect id="rect4290" x="-15.857" y="136.51" width="28" height="4" style="color:#000000;fill:#808080"/>
  <rect id="rect4161" x="-15.857" y="152.51" width="16" height="4" style="color:#000000;fill:#808080"/>
  <rect id="rect4163" x="-15.857" y="144.51" width="28" height="4" style="color:#000000;fill:#808080"/>
  <rect id="rect4165" x="-51.857" y="144.51" width="28" height="4" style="color:#000000;fill:#808080"/>
  <rect id="rect4167" x="-51.857" y="152.51" width="28" height="4" style="color:#000000;fill:#808080"/>
 </g>
</svg>
