<?xml version="1.0" encoding="UTF-8"?>
<!-- Created with Inkscape (http://www.inkscape.org/) -->
<svg id="svg3336" width="512" height="476" version="1.1" xmlns="http://www.w3.org/2000/svg" xmlns:cc="http://creativecommons.org/ns#" xmlns:dc="http://purl.org/dc/elements/1.1/" xmlns:rdf="http://www.w3.org/1999/02/22-rdf-syntax-ns#" xmlns:xlink="http://www.w3.org/1999/xlink">
 <defs id="defs3338">
  <linearGradient id="linearGradient4267">
   <stop id="stop4269" style="stop-color:#fff" offset="0"/>
   <stop id="stop4271" style="stop-color:#fff;stop-opacity:0" offset="1"/>
  </linearGradient>
  <filter id="filter4013">
   <feGaussianBlur id="feGaussianBlur4015" stdDeviation="0.72"/>
  </filter>
  <clipPath id="clipPath4213">
   <g id="g4215" transform="matrix(3.5556 0 0 3.5522 0 -3262.2)">
    <g id="g4217" transform="translate(0 10)">
     <path id="path4219" d="m46.703 908.36h50.595c40.865 0 46.703 5.8378 46.703 46.703v40.595c0 40.865-5.8378 46.702-46.703 46.702h-50.595c-40.865 0-46.703-5.8378-46.703-46.702v-40.595c0-40.865 5.8378-46.703 46.703-46.703z"/>
    </g>
   </g>
  </clipPath>
  <linearGradient id="linearGradient4284" x1="235.48" x2="235.48" y1="371.87" y2="387.52" gradientUnits="userSpaceOnUse">
   <stop id="stop4280" offset="0"/>
   <stop id="stop4282" style="stop-opacity:0" offset="1"/>
  </linearGradient>
  <clipPath id="clipPath4423">
   <rect id="rect4425" width="512" height="476" style="color:#000000;fill:#ff80e5;opacity:.3"/>
  </clipPath>
  <linearGradient id="linearGradient3875" x1="450.7" x2="450.7" y2="476" gradientTransform="translate(-250)" gradientUnits="userSpaceOnUse" xlink:href="#linearGradient4267"/>
  <radialGradient id="radialGradient3867" cx="256" cy="238" r="256" gradientTransform="matrix(1.6229 0 0 1.4459 -159.45 -106.13)" gradientUnits="userSpaceOnUse">
   <stop id="stop4115-3" style="stop-color:#947c69" offset="0"/>
   <stop id="stop3999" style="stop-color:#605043" offset=".5"/>
   <stop id="stop4117-0" offset="1"/>
  </radialGradient>
  <filter id="filter3869">
   <feGaussianBlur id="feGaussianBlur3871" stdDeviation="3.39"/>
  </filter>
  <linearGradient id="linearGradient4051" x1="344" x2="344" y1="430" y2="404" gradientUnits="userSpaceOnUse">
   <stop id="stop3974" style="stop-color:#666" offset="0"/>
   <stop id="stop3976" style="stop-color:#666;stop-opacity:0" offset="1"/>
  </linearGradient>
  <linearGradient id="linearGradient4064" x1="344" x2="344" y1="430" y2="404" gradientUnits="userSpaceOnUse" xlink:href="#linearGradient4267"/>
  <linearGradient id="linearGradient4068" x1="344" x2="344" y1="430" y2="414.38" gradientTransform="translate(0,-844)" gradientUnits="userSpaceOnUse">
   <stop id="stop4023" style="stop-color:#c03c0e" offset="0"/>
   <stop id="stop3856" style="stop-color:#e85e1b" offset=".5"/>
   <stop id="stop4025" style="stop-color:#f57638" offset="1"/>
  </linearGradient>
  <radialGradient id="radialGradient4075" cx="212" cy="421.9" r="9" gradientTransform="matrix(1.3333 0 0 1.2222 -70.667 -93.655)" gradientUnits="userSpaceOnUse">
   <stop id="stop3984" style="stop-color:#f5f5f5" offset="0"/>
   <stop id="stop3992" style="stop-color:#dfdfdf" offset=".75"/>
   <stop id="stop3986" style="stop-color:#c6c6c6" offset="1"/>
  </radialGradient>
 </defs>
 <metadata id="metadata3341">
  <rdf:RDF>
   <cc:Work rdf:about="">
    <dc:format>image/svg+xml</dc:format>
    <dc:type rdf:resource="http://purl.org/dc/dcmitype/StillImage"/>
    <dc:title/>
   </cc:Work>
  </rdf:RDF>
 </metadata>
 <g id="layer2">
  <g id="g4371" clip-path="url(#clipPath4423)">
   <rect id="rect3027" width="512" height="476" clip-path="none" style="color:#000000;fill:url(#radialGradient3867)"/>
   <path id="path4265" d="m186.22-59.845 219.45 579 308.21 31.744-70.217-621.42z" style="fill:url(#linearGradient3875);opacity:.15"/>
  </g>
 </g>
 <g id="layer3">
  <rect id="rect4160" y="372" width="512" height="104" ry="3" style="color:#000000;opacity:.3"/>
  <rect id="rect4035" x="106" y="414" width="300" height="16" ry="8" style="color:#000000;fill:url(#linearGradient4051);opacity:.6"/>
  <rect id="rect4062" x="106" y="414" width="206" height="16" ry="8" style="color:#000000;fill:url(#linearGradient4064);opacity:.4"/>
  <rect id="rect4276" y="372" width="512" height="16.519" ry="3" clip-path="url(#clipPath4213)" style="color:#000000;fill:url(#linearGradient4284);opacity:.3"/>
  <path id="rect4053" d="m106.03 422.5c-0.0104 0.1679-0.0312 0.32938-0.0312 0.5 0 4.432 3.568 8 8 8h284c4.432 0 8-3.568 8-8 0-0.17062-0.0208-0.3321-0.0312-0.5-0.26029 4.1936-3.7074 7.5-7.9688 7.5h-284c-4.2614 0-7.7085-3.3064-7.9688-7.5z" style="color:#000000;fill:#fff;opacity:.2"/>
  <rect id="rect4066" transform="scale(1,-1)" x="106" y="-430" width="158" height="16" ry="8" style="color:#000000;fill:url(#linearGradient4068)"/>
  <path id="rect3847" d="m114 414c-4.432 0-8 3.568-8 8 0 0.17062 0.02083 0.3321 0.03125 0.5 0.26029-4.1936 3.7074-7.5 7.9688-7.5h284c4.2614 0 7.7085 3.3064 7.9688 7.5 0.01042-0.1679 0.03125-0.32938 0.03125-0.5 0-4.432-3.568-8-8-8h-284z" style="color:#000000;opacity:.4"/>
  <g id="g4070" transform="matrix(1.5668 0 0 1.5668 -154.49 -243.87)">
   <path id="path4005" transform="matrix(1.1111 0 0 1.1111 26.444 -47.222)" d="m221 425c0 4.9706-4.0294 9-9 9s-9-4.0294-9-9 4.0294-9 9-9 9 4.0294 9 9z" style="color:#000000;filter:url(#filter4013);opacity:.4"/>
   <path id="path3980" transform="translate(50)" d="m221 425c0 4.9706-4.0294 9-9 9s-9-4.0294-9-9 4.0294-9 9-9 9 4.0294 9 9z" style="color:#000000;fill:url(#radialGradient4075)"/>
   <path id="path3996" d="m262 416c-4.9706 0-9 4.0294-9 9 0 0.17156 0.0218 0.33081 0.0312 0.5 0.26501-4.7327 4.1698-8.5 8.9688-8.5s8.7037 3.7673 8.9688 8.5c9e-3 -0.16919 0.0312-0.32844 0.0312-0.5 0-4.9706-4.0294-9-9-9z" style="color:#000000;fill:#fff;opacity:.6"/>
  </g>
 </g>
 <g id="layer4">
  <path id="path4240" d="m256 102c-62.325 0-113 50.675-113 113s50.675 113 113 113 113-50.675 113-113-50.675-113-113-113zm0 14c54.759 0 99 44.241 99 99 0 54.759-44.241 99-99 99s-99-44.241-99-99c0-54.759 44.241-99 99-99zm-35.688 35.875c-0.43215 0.039-0.79815 0.15032-1.0625 0.3125-8.4591 5.1898-8.4591 124.56 0 129.75s105.75-54.495 105.75-64.875c0-10.055-91.291-66.395-104.69-65.188z" style="block-progression:tb;color:#000000;filter:url(#filter3869);opacity:.5;text-indent:0;text-transform:none"/>
  <path id="path4029" d="m256 102c-62.325 0-113 50.675-113 113s50.675 113 113 113 113-50.675 113-113-50.675-113-113-113zm0 14c54.759 0 99 44.241 99 99 0 54.759-44.241 99-99 99s-99-44.241-99-99c0-54.759 44.241-99 99-99zm-35.688 35.875c-0.43215 0.039-0.79815 0.15032-1.0625 0.3125-8.4591 5.1898-8.4591 124.56 0 129.75s105.75-54.495 105.75-64.875c0-10.055-91.291-66.395-104.69-65.188z" style="block-progression:tb;color:#000000;fill:#fff;text-indent:0;text-transform:none"/>
 </g>
 <g id="layer1" transform="translate(0 -576.36)" style="display:none">
  <g id="layer1-3" transform="matrix(3.5556 0 0 3.5522 0 -2685.9)" style="display:inline">
   <g id="layer1-2" transform="translate(0 10)">
    <path id="path3774" d="m46.703 908.36h50.595c40.865 0 46.703 5.8378 46.703 46.703v40.595c0 40.865-5.8378 46.702-46.703 46.702h-50.595c-40.865 0-46.703-5.8378-46.703-46.702v-40.595c0-40.865 5.8378-46.703 46.703-46.703z" style="display:inline"/>
   </g>
  </g>
 </g>
</svg>
