<?xml version="1.0" encoding="UTF-8"?>
<!-- Created with Inkscape (http://www.inkscape.org/) -->
<svg id="svg3336" width="512" height="476" version="1.1" xmlns="http://www.w3.org/2000/svg" xmlns:cc="http://creativecommons.org/ns#" xmlns:dc="http://purl.org/dc/elements/1.1/" xmlns:rdf="http://www.w3.org/1999/02/22-rdf-syntax-ns#" xmlns:xlink="http://www.w3.org/1999/xlink">
 <defs id="defs3338">
  <filter id="filter3860" color-interpolation-filters="sRGB">
   <feGaussianBlur id="feGaussianBlur3862" stdDeviation="0.91999899"/>
  </filter>
  <clipPath id="clipPath3886">
   <path id="path3888" d="m30.005 918.36v40.219c-0.01172 2.681 0 5.5433 0 8.5938v36.375c0 3.0504-0.01172 5.9127 0 8.5937v40.219h39.562 64.875 39.562v-40.219c0.0117-2.681 0-5.5433 0-8.5937v-36.375c0-3.0504 0.0117-5.9127 0-8.5938v-40.219h-39.562-64.875-39.562z" style="fill:#f0f"/>
  </clipPath>
  <filter id="filter3880" x="-.1725" y="-.39429" width="1.345" height="1.7886" color-interpolation-filters="sRGB">
   <feGaussianBlur id="feGaussianBlur3882" stdDeviation="9.1999899"/>
  </filter>
  <clipPath id="clipPath4058-7-9">
   <path id="path4060-38-5" d="m-133.43 956.36h22.857c32 0 32 0 32 32v32c0 32 0 32-32 32h-22.857c-32 0-32 0-32-32v-32c0-32 0-32 32-32z" style="fill:#dd4814"/>
  </clipPath>
  <filter id="filter4080-7-0" color-interpolation-filters="sRGB">
   <feGaussianBlur id="feGaussianBlur4082-6-2" stdDeviation="2.4000005"/>
  </filter>
  <linearGradient id="linearGradient3113" x1="-170" x2="-74" y1="1004.4" y2="1004.4" gradientUnits="userSpaceOnUse">
   <stop id="stop3996-9" style="stop-color:#fff" offset="0"/>
   <stop id="stop3998-9" style="stop-color:#fff;stop-opacity:0" offset="1"/>
  </linearGradient>
  <linearGradient id="linearGradient3115" x1="44.237" x2="44.237" y1="1046.3" y2="960.21" gradientTransform="matrix(1.5 0 0 -1.5252 .0053559 1941.6)" gradientUnits="userSpaceOnUse">
   <stop id="stop2461" style="stop-color:#f79810" offset="0"/>
   <stop id="stop2463" style="stop-color:#f8310e" offset="1"/>
  </linearGradient>
  <linearGradient id="linearGradient3117" x1="46.493" x2="46.493" y2="53.006" gradientTransform="matrix(1.3766 0 0 1.3867 8 380)" gradientUnits="userSpaceOnUse">
   <stop id="stop4148-2" style="stop-color:#f6f6f6" offset="0"/>
   <stop id="stop4150-8" style="stop-color:#e2e2e2" offset="1"/>
  </linearGradient>
 </defs>
 <metadata id="metadata3341">
  <rdf:RDF>
   <cc:Work rdf:about="">
    <dc:format>image/svg+xml</dc:format>
    <dc:type rdf:resource="http://purl.org/dc/dcmitype/StillImage"/>
    <dc:title/>
   </cc:Work>
  </rdf:RDF>
 </metadata>
 <g id="layer2">
  <g id="g3106" transform="matrix(3.5553 0 0 3.5522 0 -1214.9)">
   <path id="path4332" transform="matrix(0 1.5004 1.5 0 -1434.5 593.89)" d="m-138 956.36h32c32 0 32 0 32 32v32c0 32 0 32-32 32h-32c-32 0-32 0-32-32v-32c0-32 0-32 32-32z" clip-path="url(#clipPath4058-7-9)" style="fill:none;filter:url(#filter4080-7-0);opacity:.1;stroke-width:1.9999;stroke:url(#linearGradient3113)"/>
   <path id="path6419" d="m0.0052089 342v40.219c-0.01172 2.681 0 5.5433 0 8.5938v36.375c0 3.0504-0.01172 5.9127 0 8.5937v40.219h39.563 64.875 39.562v-40.219c0.0117-2.681 0-5.5433 0-8.5937v-36.375c0-3.0504 0.0117-5.9127 0-8.5938v-40.219h-39.562-64.875-39.563z" style="fill:url(#linearGradient3115)"/>
   <path id="path3853" transform="translate(-30 -576.36)" d="m39.45 989.85c-0.26705 0-0.47904 0.20802-0.51346 0.50476l-0.93607 7.1624 0.93607 7.0391c0.03442 0.2967 0.2464 0.5034 0.51346 0.5034 0.2588 0 0.46941-0.2053 0.51071-0.5006l1.1095-7.0419-1.1095-7.1638c-0.03992-0.29536-0.25329-0.50338-0.51071-0.50338zm5.264-3.9134c-0.04405-0.30784-0.26292-0.52001-0.53273-0.52001-0.27118 0-0.49556 0.2191-0.53273 0.52001 0 3e-3 -1.2582 11.581-1.2582 11.581l1.2582 11.324c0.03579 0.3037 0.26017 0.5227 0.53273 0.5227 0.26843 0 0.4873-0.2135 0.53135-0.5199l1.4316-11.327zm19.828-10.682c-0.51621 0-0.94295 0.42573-0.96773 0.96655l-1.0021 21.306 1.0021 13.769c0.02615 0.5381 0.45151 0.9624 0.96773 0.9624 0.51346 0 0.93882-0.4256 0.9691-0.9651v0.01l1.1329-13.77-1.1329-21.306c-0.03028-0.54083-0.45564-0.96655-0.9691-0.96655zm-10.262 7.4052c-0.39645 0-0.71994 0.31893-0.7516 0.74465l-1.1288 14.117 1.1288 13.658c0.03028 0.423 0.35515 0.7419 0.7516 0.7419 0.39232 0 0.71582-0.3189 0.75023-0.7419l1.283-13.658-1.283-14.12c-0.03442-0.42296-0.35791-0.74189-0.75023-0.74189zm20.691 29.597c0.6401 0 1.1604-0.52 1.1866-1.1856l0.98287-13.537-0.98149-28.366c-0.02613-0.66562-0.5465-1.1856-1.1866-1.1856-0.6456 0-1.1673 0.52139-1.188 1.187 0 2e-3 -0.87136 28.363-0.87136 28.363l0.87136 13.543c0.02066 0.6602 0.54237 1.1816 1.1866 1.1816zm21.351 0.063c0.881 0 1.6078-0.7308 1.6243-1.6294v0.01-0.01l0.68553-13.149-0.68553-32.76c-0.01514-0.89721-0.74335-1.6294-1.6243-1.6294-0.88238 0-1.6106 0.7308-1.6243 1.6308l-0.61257 32.748c0 0.0209 0.61257 13.168 0.61257 13.168 0.01378 0.8903 0.74334 1.6211 1.6243 1.6211zm-10.756-0.051c0.76675 0 1.3848-0.6199 1.4055-1.4104v0.01l0.8342-13.332-0.83558-28.571c-0.02066-0.79044-0.63873-1.4089-1.4055-1.4089-0.77225 0-1.3903 0.61848-1.4069 1.4089l-0.74197 28.572 0.74335 13.329c0.01651 0.782 0.6346 1.4019 1.4069 1.4019zm-26.174-0.1249c0.45564 0 0.82456-0.3674 0.85898-0.8513l1.2086-13.772-1.2086-13.1c-0.03304-0.48397-0.40196-0.84867-0.85898-0.84867-0.46252 0-0.83145 0.36748-0.86035 0.85424l-1.0641 13.095 1.0641 13.77c0.03028 0.4853 0.39783 0.8527 0.86035 0.8527zm-10.181-0.7543c0.33313 0 0.60294-0.2648 0.64148-0.6309l1.3573-13.241-1.3559-13.74c-0.03992-0.36748-0.30973-0.63235-0.64286-0.63235-0.33726 0-0.60706 0.26626-0.64148 0.63235 0 2e-3 -1.1949 13.74-1.1949 13.74l1.1949 13.238c0.03304 0.3675 0.30284 0.6337 0.64148 0.6337zm41.713-42.9c-0.83282 0-1.5005 0.66703-1.517 1.5212l-0.67727 27.528 0.67727 13.246c0.01651 0.8432 0.68278 1.5101 1.517 1.5101 0.83144 0 1.495-0.6656 1.5142-1.5198v0.011l0.75986-13.246-0.75987-27.531c-0.01924-0.85146-0.68278-1.5185-1.5142-1.5185zm-21.185 43.794c0.5754 0 1.0503-0.4728 1.0779-1.0761l1.0572-13.677-1.0572-26.179c-0.02891-0.60461-0.50245-1.0761-1.0779-1.0761-0.58091 0-1.0545 0.47286-1.0792 1.0761 0 2e-3 -0.93606 26.179-0.93606 26.179l0.93744 13.683c0.02339 0.5977 0.49694 1.0705 1.0779 1.0705zm11.805-1.2909v-0.01l0.90854-13.451-0.90854-29.321c-0.02203-0.72803-0.59193-1.2994-1.2954-1.2994-0.70755 0-1.2775 0.56997-1.2967 1.2994l-0.80667 29.32 0.80804 13.458c0.01929 0.7211 0.58917 1.291 1.2953 1.291 0.7048 0 1.272-0.5699 1.2954-1.2953v0.01zm68.715-30.36c-2.1571 0-4.215 0.43958-6.0899 1.2314-1.2527-14.294-13.152-25.507-27.666-25.507-3.5515 0-7.0136 0.70445-10.071 1.8956-1.188 0.46318-1.5046 0.94021-1.5156 1.8652v50.338c0.0124 0.9707 0.75986 1.7791 1.7001 1.8747 0.0399 0.01 43.36 0.026 43.641 0.026 8.6944 0 15.744-7.1014 15.744-15.861 0-8.7599-7.048-15.863-15.742-15.863zm-48.561-20.559c-0.9457 0-1.7221 0.78211-1.7358 1.7431l-0.71031 35.729 0.71168 12.967c0.01241 0.9471 0.78877 1.7279 1.7345 1.7279 0.94295 0 1.7193-0.7808 1.7331-1.7418v0.015l0.77225-12.969-0.77225-35.732c-0.0138-0.95822-0.79014-1.7403-1.7331-1.7403z" clip-path="url(#clipPath3886)" style="fill:#fff;filter:url(#filter3880);opacity:.5"/>
   <path id="path3852" d="m9.4495 413.49c-0.26705 0-0.47905 0.20802-0.51346 0.50476l-0.93607 7.1624 0.93607 7.0391c0.034418 0.2967 0.2464 0.5034 0.51346 0.5034 0.25879 0 0.46941-0.2053 0.51071-0.5006l1.1095-7.0419-1.1095-7.1638c-0.039922-0.29536-0.25329-0.50338-0.51071-0.50338zm5.264-3.9134c-0.04405-0.30784-0.26292-0.52001-0.53273-0.52001-0.27118 0-0.49556 0.2191-0.53273 0.52001 0 3e-3 -1.2582 11.581-1.2582 11.581l1.2582 11.324c0.03579 0.3037 0.26017 0.5227 0.53273 0.5227 0.26843 0 0.4873-0.2135 0.53135-0.5199l1.4316-11.327zm19.828-10.682c-0.51621 0-0.94295 0.42573-0.96773 0.96655l-1.0021 21.306 1.0021 13.769c0.02615 0.5381 0.45151 0.9624 0.96773 0.9624 0.51346 0 0.93882-0.4256 0.9691-0.9651v0.01l1.1329-13.77-1.1329-21.306c-0.03028-0.54083-0.45564-0.96655-0.9691-0.96655zm-10.262 7.4052c-0.39645 0-0.71994 0.31893-0.7516 0.74465l-1.1288 14.117 1.1288 13.658c0.03028 0.423 0.35515 0.7419 0.7516 0.7419 0.39232 0 0.71582-0.3189 0.75023-0.7419l1.283-13.658-1.283-14.12c-0.03442-0.42296-0.35791-0.74189-0.75023-0.74189zm20.691 29.597c0.6401 0 1.1604-0.52 1.1866-1.1856l0.98287-13.537-0.98149-28.366c-0.02613-0.66562-0.5465-1.1856-1.1866-1.1856-0.6456 0-1.1673 0.52139-1.188 1.187 0 2e-3 -0.87136 28.363-0.87136 28.363l0.87136 13.543c0.02066 0.6602 0.54237 1.1816 1.1866 1.1816zm21.351 0.063c0.881 0 1.6078-0.7308 1.6243-1.6294v0.01-0.01l0.68553-13.149-0.68553-32.76c-0.01514-0.89721-0.74335-1.6294-1.6243-1.6294-0.88238 0-1.6106 0.7308-1.6243 1.6308l-0.61257 32.748c0 0.0209 0.61257 13.168 0.61257 13.168 0.01378 0.8903 0.74334 1.6211 1.6243 1.6211zm-10.756-0.051c0.76675 0 1.3848-0.6199 1.4055-1.4104v0.01l0.8342-13.332-0.83558-28.571c-0.02066-0.79044-0.63873-1.4089-1.4055-1.4089-0.77225 0-1.3903 0.61848-1.4069 1.4089l-0.74197 28.572 0.74335 13.329c0.01651 0.782 0.6346 1.4019 1.4069 1.4019zm-26.174-0.1249c0.45564 0 0.82456-0.3674 0.85898-0.8513l1.2086-13.772-1.2086-13.1c-0.03304-0.48397-0.40196-0.84867-0.85898-0.84867-0.46252 0-0.83145 0.36748-0.86035 0.85424l-1.0641 13.095 1.0641 13.77c0.03028 0.4853 0.39783 0.8527 0.86035 0.8527zm-10.181-0.7543c0.33313 0 0.60294-0.2648 0.64148-0.6309l1.3573-13.241-1.3559-13.74c-0.03992-0.36748-0.30973-0.63235-0.64286-0.63235-0.33726 0-0.60706 0.26626-0.64148 0.63235 0 2e-3 -1.1949 13.74-1.1949 13.74l1.1949 13.238c0.03304 0.3675 0.30284 0.6337 0.64148 0.6337zm41.713-42.9c-0.83282 0-1.5005 0.66703-1.517 1.5212l-0.67727 27.528 0.67727 13.246c0.01651 0.8432 0.68278 1.5101 1.517 1.5101 0.83144 0 1.495-0.6656 1.5142-1.5198v0.011l0.75986-13.246-0.75987-27.531c-0.01924-0.85146-0.68278-1.5185-1.5142-1.5185zm-21.185 43.794c0.5754 0 1.0503-0.4728 1.0779-1.0761l1.0572-13.677-1.0572-26.179c-0.02891-0.60461-0.50245-1.0761-1.0779-1.0761-0.58091 0-1.0545 0.47286-1.0792 1.0761 0 2e-3 -0.93606 26.179-0.93606 26.179l0.93744 13.683c0.02339 0.5977 0.49694 1.0705 1.0779 1.0705zm11.805-1.2909v-0.01l0.90854-13.451-0.90854-29.321c-0.02203-0.72803-0.59193-1.2994-1.2954-1.2994-0.70755 0-1.2775 0.56997-1.2967 1.2994l-0.80667 29.32 0.80804 13.458c0.01929 0.7211 0.58917 1.291 1.2953 1.291 0.7048 0 1.272-0.5699 1.2954-1.2953v0.01zm68.715-30.36c-2.1571 0-4.215 0.43958-6.0899 1.2314-1.2527-14.294-13.152-25.507-27.666-25.507-3.5515 0-7.0136 0.70445-10.071 1.8956-1.188 0.46318-1.5046 0.94021-1.5156 1.8652v50.338c0.01241 0.9707 0.75986 1.7791 1.7001 1.8747 0.0399 0.01 43.36 0.026 43.641 0.026 8.6944 0 15.744-7.1014 15.744-15.861 0-8.7599-7.048-15.863-15.742-15.863zm-48.561-20.559c-0.9457 0-1.7221 0.78211-1.7358 1.7431l-0.71031 35.729 0.71168 12.967c0.01241 0.9471 0.78877 1.7279 1.7345 1.7279 0.94295 0 1.7193-0.7808 1.7331-1.7418v0.015l0.77225-12.969-0.77225-35.732c-0.01378-0.95822-0.79015-1.7403-1.7331-1.7403z" style="fill:#c42606;filter:url(#filter3860)"/>
   <path id="path2465" d="m9.4495 413.49c-0.26705 0-0.47905 0.20802-0.51346 0.50476l-0.93607 7.1624 0.93607 7.0391c0.034418 0.2967 0.2464 0.5034 0.51346 0.5034 0.25879 0 0.46941-0.2053 0.51071-0.5006l1.1095-7.0419-1.1095-7.1638c-0.039922-0.29536-0.25329-0.50338-0.51071-0.50338zm5.264-3.9134c-0.04405-0.30784-0.26292-0.52001-0.53273-0.52001-0.27118 0-0.49556 0.2191-0.53273 0.52001 0 3e-3 -1.2582 11.581-1.2582 11.581l1.2582 11.324c0.03579 0.3037 0.26017 0.5227 0.53273 0.5227 0.26843 0 0.4873-0.2135 0.53135-0.5199l1.4316-11.327zm19.828-10.682c-0.51621 0-0.94295 0.42573-0.96773 0.96655l-1.0021 21.306 1.0021 13.769c0.02615 0.5381 0.45151 0.9624 0.96773 0.9624 0.51346 0 0.93882-0.4256 0.9691-0.9651v0.01l1.1329-13.77-1.1329-21.306c-0.03028-0.54083-0.45564-0.96655-0.9691-0.96655zm-10.262 7.4052c-0.39645 0-0.71994 0.31893-0.7516 0.74465l-1.1288 14.117 1.1288 13.658c0.03028 0.423 0.35515 0.7419 0.7516 0.7419 0.39232 0 0.71582-0.3189 0.75023-0.7419l1.283-13.658-1.283-14.12c-0.03442-0.42296-0.35791-0.74189-0.75023-0.74189zm20.691 29.597c0.6401 0 1.1604-0.52 1.1866-1.1856l0.98287-13.537-0.98149-28.366c-0.02613-0.66562-0.5465-1.1856-1.1866-1.1856-0.6456 0-1.1673 0.52139-1.188 1.187 0 2e-3 -0.87136 28.363-0.87136 28.363l0.87136 13.543c0.02066 0.6602 0.54237 1.1816 1.1866 1.1816zm21.351 0.063c0.881 0 1.6078-0.7308 1.6243-1.6294v0.01-0.01l0.68553-13.149-0.68553-32.76c-0.01514-0.89721-0.74335-1.6294-1.6243-1.6294-0.88238 0-1.6106 0.7308-1.6243 1.6308l-0.61257 32.748c0 0.0209 0.61257 13.168 0.61257 13.168 0.01378 0.8903 0.74334 1.6211 1.6243 1.6211zm-10.756-0.051c0.76675 0 1.3848-0.6199 1.4055-1.4104v0.01l0.8342-13.332-0.83558-28.571c-0.02066-0.79044-0.63873-1.4089-1.4055-1.4089-0.77225 0-1.3903 0.61848-1.4069 1.4089l-0.74197 28.572 0.74335 13.329c0.01651 0.782 0.6346 1.4019 1.4069 1.4019zm-26.174-0.1249c0.45564 0 0.82456-0.3674 0.85898-0.8513l1.2086-13.772-1.2086-13.1c-0.03304-0.48397-0.40196-0.84867-0.85898-0.84867-0.46252 0-0.83145 0.36748-0.86035 0.85424l-1.0641 13.095 1.0641 13.77c0.03028 0.4853 0.39783 0.8527 0.86035 0.8527zm-10.181-0.7543c0.33313 0 0.60294-0.2648 0.64148-0.6309l1.3573-13.241-1.3559-13.74c-0.03992-0.36748-0.30973-0.63235-0.64286-0.63235-0.33726 0-0.60706 0.26626-0.64148 0.63235 0 2e-3 -1.1949 13.74-1.1949 13.74l1.1949 13.238c0.03304 0.3675 0.30284 0.6337 0.64148 0.6337zm41.713-42.9c-0.83282 0-1.5005 0.66703-1.517 1.5212l-0.67727 27.528 0.67727 13.246c0.01651 0.8432 0.68278 1.5101 1.517 1.5101 0.83144 0 1.495-0.6656 1.5142-1.5198v0.011l0.75986-13.246-0.75987-27.531c-0.01924-0.85146-0.68278-1.5185-1.5142-1.5185zm-21.185 43.794c0.5754 0 1.0503-0.4728 1.0779-1.0761l1.0572-13.677-1.0572-26.179c-0.02891-0.60461-0.50245-1.0761-1.0779-1.0761-0.58091 0-1.0545 0.47286-1.0792 1.0761 0 2e-3 -0.93606 26.179-0.93606 26.179l0.93744 13.683c0.02339 0.5977 0.49694 1.0705 1.0779 1.0705zm11.805-1.2909v-0.01l0.90854-13.451-0.90854-29.321c-0.02203-0.72803-0.59193-1.2994-1.2954-1.2994-0.70755 0-1.2775 0.56997-1.2967 1.2994l-0.80667 29.32 0.80804 13.458c0.01929 0.7211 0.58917 1.291 1.2953 1.291 0.7048 0 1.272-0.5699 1.2954-1.2953v0.01zm68.715-30.36c-2.1571 0-4.215 0.43958-6.0899 1.2314-1.2527-14.294-13.152-25.507-27.666-25.507-3.5515 0-7.0136 0.70445-10.071 1.8956-1.188 0.46318-1.5046 0.94021-1.5156 1.8652v50.338c0.01241 0.9707 0.75986 1.7791 1.7001 1.8747 0.0399 0.01 43.36 0.026 43.641 0.026 8.6944 0 15.744-7.1014 15.744-15.861 0-8.7599-7.048-15.863-15.742-15.863zm-48.561-20.559c-0.9457 0-1.7221 0.78211-1.7358 1.7431l-0.71031 35.729 0.71168 12.967c0.01241 0.9471 0.78877 1.7279 1.7345 1.7279 0.94295 0 1.7193-0.7808 1.7331-1.7418v0.015l0.77225-12.969-0.77225-35.732c-0.01378-0.95822-0.79015-1.7403-1.7331-1.7403z" style="fill:url(#linearGradient3117)"/>
  </g>
 </g>
 <g id="layer1" transform="translate(0 -576.36)" style="display:none">
  <g id="layer1-3" transform="matrix(3.5556 0 0 3.5522 0 -2685.9)" style="display:inline">
   <g id="layer1-2" transform="translate(0 10)">
    <path id="path3774" d="m46.703 908.36h50.595c40.865 0 46.703 5.8378 46.703 46.703v40.595c0 40.865-5.8378 46.702-46.703 46.702h-50.595c-40.865 0-46.703-5.8378-46.703-46.702v-40.595c0-40.865 5.8378-46.703 46.703-46.703z" style="display:inline"/>
   </g>
  </g>
 </g>
</svg>
