<?xml version="1.0" encoding="UTF-8"?>
<!-- Created with Inkscape (http://www.inkscape.org/) -->
<svg id="svg3336" width="512" height="476" version="1.1" xmlns="http://www.w3.org/2000/svg" xmlns:cc="http://creativecommons.org/ns#" xmlns:dc="http://purl.org/dc/elements/1.1/" xmlns:rdf="http://www.w3.org/1999/02/22-rdf-syntax-ns#" xmlns:xlink="http://www.w3.org/1999/xlink">
 <defs id="defs3338">
  <linearGradient id="linearGradient3126" x1="48" x2="48" y1="90" y2="5.9877" gradientTransform="matrix(1.7142 0 0 1.743 -10.28 326.1)" gradientUnits="userSpaceOnUse">
   <stop id="stop3702" style="stop-color:#cdcdcd" offset="0"/>
   <stop id="stop3704" style="stop-color:#f0f0f0" offset="1"/>
  </linearGradient>
  <linearGradient id="linearGradient3128" x1="175.31" x2="175.31" y1="73.254" y2="180.67" gradientTransform="matrix(.26967 0 0 .27858 46.288 348.3)" gradientUnits="userSpaceOnUse">
   <stop id="stop3751-8" offset="0"/>
   <stop id="stop3753-7" style="stop-opacity:.47287" offset=".99438"/>
  </linearGradient>
  <linearGradient id="linearGradient3130" x1="383.29" x2="383.29" y2="218.48" gradientTransform="matrix(.27119 0 0 .26089 -31.945 403)" gradientUnits="userSpaceOnUse">
   <stop id="stop3143-2-6" style="stop-color:#ED2828" offset=".005618"/>
   <stop id="stop3147-3-6" style="stop-color:#ae1e22" offset=".99438"/>
  </linearGradient>
 </defs>
 <metadata id="metadata3341">
  <rdf:RDF>
   <cc:Work rdf:about="">
    <dc:format>image/svg+xml</dc:format>
    <dc:type rdf:resource="http://purl.org/dc/dcmitype/StillImage"/>
    <dc:title/>
   </cc:Work>
  </rdf:RDF>
 </metadata>
 <g id="layer2">
  <g id="g3119" transform="matrix(3.5553 0 0 3.5522 .013628 -1214.9)">
   <path id="rect2419" d="m0 342v40.219c-0.012 2.6808 0 5.5437 0 8.5938v36.375c0 3.0502-0.012 5.9442 0 8.625v40.188h40.062 63.875 40.062v-40.188c0.012-2.6808 0-5.5748 0-8.625v-36.375c0-3.0501 0.012-5.913 0-8.5938v-40.219h-40.062-64.406-39.531z" style="fill:url(#linearGradient3126)"/>
   <path id="path3069" d="m43.877 358.2 7.1245 24.159v15.856h5.9996v-16.606l6.9638-23.409h-6.1067l-3.6962 16.017h-0.37497l-3.8569-16.017zm27.794 9.7493c-2.413 0-4.3557 0.68108-5.7853 2.0356-1.4296 1.3545-2.1427 3.1792-2.1427 5.4639v15.32c0 2.506 0.69508 4.4632 2.0891 5.9459 1.3934 1.4826 3.2482 2.2498 5.571 2.2498 2.4122 0 4.3025-0.7056 5.6782-2.1426 1.3755-1.437 2.0891-3.4214 2.0891-5.946v-15.267c0-2.2479-0.68612-4.0897-2.0891-5.5174-1.403-1.4278-3.2132-2.1427-5.4103-2.1427zm11.182 0.74995v24.641c0 1.7564 0.34165 3.0858 0.96421 3.964 0.62258 0.87855 1.5046 1.339 2.7319 1.339 0.99548 0 2.0486-0.33795 3.1069-0.9642 1.0583-0.6273 2.0747-1.5321 3.0533-2.7319v3.2677h5.3032v-29.516h-5.3032v22.391c-0.49866 0.64474-1.0646 1.1924-1.6606 1.607-0.59596 0.41401-1.0548 0.58924-1.4463 0.58924-0.49852 0-0.90266-0.1155-1.1249-0.42855-0.22235-0.31278-0.31831-0.85384-0.3214-1.5534v-22.605zm-11.45 4.3925c0.70237 0 1.2825 0.19321 1.7142 0.58924 0.43163 0.39605 0.64281 0.90872 0.64281 1.5535v16.07c0 0.7933-0.21999 1.4228-0.64281 1.8749-0.4236 0.45165-0.99415 0.64281-1.7142 0.64281-0.70237 0-1.2294-0.20039-1.607-0.64281-0.37857-0.44289-0.58924-1.0625-0.58924-1.8749v-16.07c0-0.64474 0.23764-1.1574 0.64281-1.5535 0.40503-0.39603 0.90588-0.58924 1.5535-0.58924z" style="fill:url(#linearGradient3128)"/>
   <path id="path3149" d="m115.41 415.65c0-6.6717-5.6924-12.085-12.707-12.085-10.012-0.402-20.256-0.5805-30.705-0.5622-10.449-0.0165-20.693 0.16035-30.705 0.5622-7.0143 0-12.707 5.4132-12.707 12.085-0.4211 5.2839-0.60384 10.568-0.58741 15.852-0.01608 5.2838 0.16632 10.568 0.58754 15.852 0 6.6717 5.6928 12.085 12.707 12.085 10.012 0.402 20.256 0.5805 30.705 0.5616 10.449 0.021 20.693-0.1604 30.705-0.5616 7.015 0 12.707-5.4135 12.707-12.085 0.4211-5.2839 0.60383-10.568 0.58741-15.852 0.0162-5.284-0.16628-10.568-0.58741-15.852z" style="fill:url(#linearGradient3130)"/>
   <path id="path3958" d="m38.842 414.37v4.9816h5.571v29.302h5.3567v-29.302h5.5174v-4.9816h-16.445zm32.998 0v34.283h4.8211v-1.9286c0.62382 0.7703 1.3081 1.3446 2.0356 1.7142 0.72747 0.3695 1.5359 0.5357 2.4641 0.5357 1.4069 0 2.4706-0.4917 3.214-1.4463 0.74349-0.9545 1.1249-2.3262 1.1249-4.1247v-14.035c0-2.0659-0.38647-3.6339-1.1785-4.714-0.79155-1.08-1.9253-1.607-3.4283-1.607-0.73643 0-1.4763 0.1877-2.1963 0.5892-0.71946 0.4025-1.3957 0.9959-2.0356 1.7678v-11.035h-4.8211zm24.48 8.3565c-2.1254 0-3.9082 0.7072-5.2496 2.089-1.3423 1.3827-1.982 3.1611-1.982 5.3568v11.356c0 2.4347 0.59957 4.3406 1.8213 5.7318 1.2222 1.3907 2.9099 2.0891 5.0353 2.0891 2.3643 0 4.113-0.6702 5.3032-1.982 1.1902-1.3119 1.8213-3.2464 1.8213-5.8389v-1.9285h-4.9282v1.7679c0 1.4881-0.11522 2.4577-0.42854 2.8926-0.31333 0.4353-0.87328 0.6427-1.6606 0.6427-0.75669 0-1.2937-0.2347-1.607-0.7498-0.31333-0.5147-0.48211-1.4561-0.48211-2.7855v-4.7676h9.1065v-6.4281c0-2.4006-0.60207-4.2376-1.7677-5.5174-1.1666-1.2798-2.8093-1.9284-4.9818-1.9284zm-41.301 0.6427v21.106c0 1.5059 0.30016 2.6747 0.85708 3.4283 0.55691 0.7528 1.3663 1.1248 2.4641 1.1248 0.89049 0 1.8389-0.2665 2.7855-0.8034 0.94704-0.5379 1.8565-1.3284 2.7319-2.3569v2.7855h4.7139v-25.284h-4.7139v19.177c-0.44572 0.5529-0.96701 1.0378-1.4999 1.3927-0.53336 0.3555-0.93555 0.5358-1.2856 0.5358-0.44572 0-0.76538-0.1594-0.96422-0.4285-0.19881-0.2684-0.3214-0.6858-0.3214-1.2857v-19.392h-4.7675zm23.623 3.6962c0.64407 0 1.108 0.2005 1.4463 0.6427 0.33876 0.4424 0.53568 1.129 0.53568 1.9821v13.017c0 0.8063-0.15479 1.4123-0.42854 1.7679-0.27372 0.3549-0.70562 0.5357-1.2856 0.5357-0.40332 0-0.76212-0.086-1.1249-0.2679-0.36326-0.1811-0.73857-0.4997-1.1249-0.9107v-15.749c0.32227-0.3476 0.63346-0.6374 0.96421-0.8037 0.33029-0.1646 0.67949-0.2142 1.0178-0.2142zm16.927 0.1065c0.16226-0.029 0.34674 0 0.53568 0 0.72323 0 1.2236 0.1846 1.5535 0.6427 0.32936 0.4587 0.48211 1.2448 0.48211 2.3035v2.5712h-4.1783v-2.5712c0-1.0587 0.15182-1.8448 0.48211-2.3035 0.24699-0.3435 0.63812-0.5568 1.1249-0.6427z"/>
   <path id="path3095" d="m38.842 413.17v4.9816h5.571v29.302h5.3567v-29.302h5.5174v-4.9816h-16.445zm32.998 0v34.283h4.8211v-1.9284c0.62382 0.7701 1.3081 1.3445 2.0356 1.7141 0.72747 0.3694 1.5359 0.5356 2.4641 0.5356 1.4069 0 2.4706-0.4917 3.214-1.4463 0.74349-0.9544 1.1249-2.3262 1.1249-4.1247v-14.034c0-2.066-0.38647-3.6339-1.1785-4.7141-0.79155-1.08-1.9253-1.6069-3.4283-1.6069-0.73643 0-1.4763 0.18765-2.1963 0.5892-0.71946 0.40244-1.3957 0.99584-2.0356 1.7677v-11.035h-4.8211zm24.48 8.3565c-2.1254 0-3.9082 0.70725-5.2496 2.0891-1.3423 1.3827-1.982 3.1611-1.982 5.3567v11.356c0 2.4348 0.59957 4.3405 1.8213 5.7318 1.2222 1.3906 2.9099 2.089 5.0353 2.089 2.3643 0 4.113-0.67 5.3032-1.9819s1.8213-3.2465 1.8213-5.8389v-1.9286h-4.9282v1.7679c0 1.4882-0.11522 2.4578-0.42854 2.8926-0.31333 0.4353-0.87328 0.6429-1.6606 0.6429-0.75669 0-1.2937-0.2349-1.607-0.75-0.31333-0.5146-0.48211-1.456-0.48211-2.7855v-4.7676h9.1065v-6.4281c0-2.4004-0.60207-4.2376-1.7677-5.5174-1.1666-1.2796-2.8093-1.9284-4.9818-1.9284zm-41.301 0.6429v21.106c0 1.5058 0.30016 2.6748 0.85708 3.4282 0.55691 0.7529 1.3663 1.1249 2.4641 1.1249 0.89049 0 1.8389-0.2666 2.7855-0.8034 0.94704-0.5379 1.8565-1.3284 2.7319-2.357v2.7855h4.7139v-25.284h-4.7139v19.177c-0.44572 0.5529-0.96701 1.0379-1.4999 1.3929-0.53336 0.3555-0.93555 0.5357-1.2856 0.5357-0.44572 0-0.76538-0.1595-0.96422-0.4286-0.19881-0.2683-0.3214-0.6856-0.3214-1.2856v-19.391h-4.7675zm23.623 3.696c0.64407 0 1.108 0.2006 1.4463 0.6429 0.33876 0.4422 0.53568 1.1289 0.53568 1.982v13.017c0 0.8062-0.15479 1.4124-0.42854 1.7679-0.27372 0.3549-0.70562 0.5356-1.2856 0.5356-0.40332 0-0.76212-0.086-1.1249-0.2679-0.36326-0.181-0.73857-0.4995-1.1249-0.9106v-15.749c0.32227-0.3474 0.63346-0.6373 0.96421-0.8035 0.33029-0.1646 0.67949-0.2144 1.0178-0.2144zm16.927 0.1065c0.16226-0.029 0.34674 0 0.53568 0 0.72323 0 1.2236 0.1848 1.5535 0.6428 0.32936 0.4587 0.48211 1.2448 0.48211 2.3035v2.5711h-4.1783v-2.5711c0-1.0587 0.15182-1.8448 0.48211-2.3035 0.24699-0.3435 0.63812-0.5568 1.1249-0.6428z" style="fill:#fff"/>
  </g>
 </g>
 <g id="layer1" transform="translate(0 -576.36)" style="display:none">
  <g id="layer1-3" transform="matrix(3.5556 0 0 3.5522 0 -2685.9)" style="display:inline">
   <g id="layer1-2" transform="translate(0 10)">
    <path id="path3774" d="m46.703 908.36h50.595c40.865 0 46.703 5.8378 46.703 46.703v40.595c0 40.865-5.8378 46.702-46.703 46.702h-50.595c-40.865 0-46.703-5.8378-46.703-46.702v-40.595c0-40.865 5.8378-46.703 46.703-46.703z" style="display:inline"/>
   </g>
  </g>
 </g>
</svg>
