<?xml version="1.0" encoding="UTF-8"?>
<!-- Created with Inkscape (http://www.inkscape.org/) -->
<svg id="svg3336" width="512" height="476" version="1.1" xmlns="http://www.w3.org/2000/svg" xmlns:cc="http://creativecommons.org/ns#" xmlns:dc="http://purl.org/dc/elements/1.1/" xmlns:rdf="http://www.w3.org/1999/02/22-rdf-syntax-ns#">
 <metadata id="metadata3341">
  <rdf:RDF>
   <cc:Work rdf:about="">
    <dc:format>image/svg+xml</dc:format>
    <dc:type rdf:resource="http://purl.org/dc/dcmitype/StillImage"/>
    <dc:title/>
   </cc:Work>
  </rdf:RDF>
 </metadata>
 <g id="layer2">
  <rect id="rect3825" x=".54432" y=".5443" width="510.91" height="474.91" style="color:#000000;fill:#fff;opacity:.1;stroke-dashoffset:2.9;stroke-linecap:round;stroke-linejoin:round;stroke-width:1.0886;stroke:#fff"/>
  <path id="path4832" d="m255.89 46c-106.07 0-191.89 85.988-191.89 192 0 106 85.815 192 191.89 192 106.07 0 192.11-85.995 192.11-192 0-106.01-86.036-192-192.11-192zm63.671 53.321c4.9252-0.34856 9.8908 0.85956 14.49 3.5111 12.266 7.0808 16.524 22.631 9.4408 34.889-7.0758 12.258-22.864 16.514-35.129 9.4356-12.257-7.072-16.296-22.858-9.2213-35.109 4.429-7.6611 12.209-12.145 20.419-12.727zm-63.671 27.209c10.311 0 20.383 1.5552 29.86 4.1691 1.671 10.299 7.8131 19.83 17.564 25.454 9.7341 5.6084 20.988 6.0958 30.737 2.4139 18.96 18.636 31.355 43.961 33.153 72.192l-36.666 0.66462c-3.3696-38.239-35.52-68.243-74.648-68.243-11.272 0-21.811 2.3439-31.396 6.8027l-17.784-31.818c14.88-7.3607 31.454-11.63 49.18-11.63zm-61.695 18.871 18.662 31.379c-19.259 13.548-31.835 35.894-31.835 61.22 0 25.328 12.576 47.68 31.835 61.218l-18.662 31.38c-22.444-14.988-39.178-37.901-46.107-64.731 8.0946-6.6033 13.393-16.609 13.393-27.868 0-11.264-5.2984-21.265-13.393-27.868 6.937-26.824 23.672-49.743 46.107-64.731zm-68.72 66.926c14.161 0 25.468 11.514 25.468 25.673 0 14.153-11.307 25.673-25.468 25.673-14.168 0-25.688-11.52-25.688-25.673 0-14.161 11.519-25.673 25.688-25.673zm205.06 32.255 36.666 0.6646c-1.798 28.231-14.193 53.558-33.153 72.192-9.7499-3.6805-20.997-3.202-30.737 2.4133-9.749 5.636-15.893 15.156-17.564 25.455-9.476 2.6215-19.548 3.9508-29.86 3.9508-17.727 0-34.3-4.0424-49.18-11.412l17.784-32.034c9.5838 4.4559 20.124 7.0198 31.396 7.0198 39.13 0 71.287-29.993 74.648-68.243zm-12.515 80.971c9.913-1.2406 20.161 3.5402 25.468 12.727 7.0835 12.26 2.8227 27.816-9.4408 34.889-12.265 7.0789-27.833 2.8224-34.909-9.4375-7.085-12.25-2.824-27.808 9.4408-34.886 3.0639-1.7679 6.1365-2.883 9.4408-3.2921z" style="fill:#fff"/>
 </g>
 <g id="layer1" transform="translate(0 -576.36)" style="display:none">
  <g id="layer1-3" transform="matrix(3.5556 0 0 3.5522 0 -2685.9)" style="display:inline">
   <g id="layer1-2" transform="translate(0 10)">
    <path id="path3774" d="m46.703 908.36h50.595c40.865 0 46.703 5.8378 46.703 46.703v40.595c0 40.865-5.8378 46.702-46.703 46.702h-50.595c-40.865 0-46.703-5.8378-46.703-46.702v-40.595c0-40.865 5.8378-46.703 46.703-46.703z" style="display:inline"/>
   </g>
  </g>
 </g>
</svg>
