<?xml version="1.0" encoding="UTF-8"?>
<!-- Created with Inkscape (http://www.inkscape.org/) -->
<svg id="svg3336" width="512" height="476" version="1.1" xmlns="http://www.w3.org/2000/svg" xmlns:cc="http://creativecommons.org/ns#" xmlns:dc="http://purl.org/dc/elements/1.1/" xmlns:rdf="http://www.w3.org/1999/02/22-rdf-syntax-ns#" xmlns:xlink="http://www.w3.org/1999/xlink">
 <defs id="defs3338">
  <clipPath id="clipPath4058-7-9">
   <path id="path4060-38-5" d="m-133.43 956.36h22.857c32 0 32 0 32 32v32c0 32 0 32-32 32h-22.857c-32 0-32 0-32-32v-32c0-32 0-32 32-32z" style="fill:#dd4814"/>
  </clipPath>
  <filter id="filter4080-7-0" color-interpolation-filters="sRGB">
   <feGaussianBlur id="feGaussianBlur4082-6-2" stdDeviation="2.4000005"/>
  </filter>
  <clipPath id="clipPath3901">
   <path id="path3903" d="m-149.99 918.36v40.219c-0.0117 2.681 0 5.5433 0 8.5938v36.375c0 3.0504-0.0117 5.9127 0 8.5937v40.219h39.562 64.875 39.562v-40.219c0.0117-2.681 0-5.5433 0-8.5937v-36.375c0-3.0504 0.0117-5.9127 0-8.5938v-40.219h-39.562-64.875-39.562z" style="fill:#f0f"/>
  </clipPath>
  <filter id="filter3893" x="-.27501" y="-.2129" width="1.55" height="1.4258" color-interpolation-filters="sRGB">
   <feGaussianBlur id="feGaussianBlur3895" stdDeviation="9.4691265"/>
  </filter>
  <filter id="filter3883" color-interpolation-filters="sRGB">
   <feGaussianBlur id="feGaussianBlur3885" stdDeviation="1.420369"/>
  </filter>
  <linearGradient id="linearGradient3097" x1="-170" x2="-74" y1="1004.4" y2="1004.4" gradientUnits="userSpaceOnUse">
   <stop id="stop3996-9" style="stop-color:#fff" offset="0"/>
   <stop id="stop3998-9" style="stop-color:#fff;stop-opacity:0" offset="1"/>
  </linearGradient>
  <linearGradient id="linearGradient3099" x1="44.237" x2="44.237" y1="1046.3" y2="960.21" gradientTransform="matrix(1.5 0 0 -1.5252 .0053559 1941.6)" gradientUnits="userSpaceOnUse">
   <stop id="stop4148-2" style="stop-color:#e03c43" offset="0"/>
   <stop id="stop4150-8" style="stop-color:#cb2027" offset="1"/>
  </linearGradient>
 </defs>
 <metadata id="metadata3341">
  <rdf:RDF>
   <cc:Work rdf:about="">
    <dc:format>image/svg+xml</dc:format>
    <dc:type rdf:resource="http://purl.org/dc/dcmitype/StillImage"/>
    <dc:title/>
   </cc:Work>
  </rdf:RDF>
 </metadata>
 <g id="layer2">
  <g id="g3090" transform="matrix(3.5553 0 0 3.5522 0 -1214.9)">
   <path id="path4332" transform="matrix(0 1.5004 1.5 0 -1434.5 593.89)" d="m-138 956.36h32c32 0 32 0 32 32v32c0 32 0 32-32 32h-32c-32 0-32 0-32-32v-32c0-32 0-32 32-32z" clip-path="url(#clipPath4058-7-9)" style="fill:none;filter:url(#filter4080-7-0);opacity:.1;stroke-width:1.9999;stroke:url(#linearGradient3097)"/>
   <path id="path6419" d="m0.0052089 342v40.219c-0.01172 2.681 0 5.5433 0 8.5938v36.375c0 3.0504-0.01172 5.9127 0 8.5937v40.219h39.563 64.875 39.562v-40.219c0.0117-2.681 0-5.5433 0-8.5937v-36.375c0-3.0504 0.0117-5.9127 0-8.5938v-40.219h-39.562-64.875-39.563z" style="fill:url(#linearGradient3099)"/>
   <path id="path3887" transform="translate(150 -576.36)" d="m-75.494 935.99c-29.131 0-43.819 20.886-43.819 38.303 0 10.546 3.9926 19.928 12.556 23.424 1.4042 0.5741 2.662 0.02 3.0692-1.5349 0.28329-1.076 0.95338-3.7904 1.2523-4.9208 0.41063-1.5377 0.25128-2.077-0.88187-3.4172-2.4692-2.9126-4.0471-6.6832-4.0471-12.024 0-15.495 11.593-29.367 30.188-29.367 16.466 0 25.512 10.061 25.512 23.497 0 17.679-7.8238 32.6-19.439 32.6-6.4142 0-11.216-5.3049-9.6768-11.811 1.8427-7.7673 5.4125-16.15 5.4125-21.757 0-5.0189-2.694-9.2049-8.2692-9.2049-6.5572 0-11.825 6.7833-11.825 15.87 0 5.7877 1.9558 9.702 1.9558 9.702s-6.7104 28.432-7.8865 33.411c-2.3426 9.9166-0.35207 22.073-0.18387 23.301 0.0987 0.7273 1.0337 0.9003 1.4573 0.3507 0.60472-0.7893 8.4142-10.431 11.069-20.065 0.75113-2.7279 4.3127-16.854 4.3127-16.854 2.1301 4.0634 8.3564 7.6427 14.978 7.6427 19.71 0 33.083-17.969 33.083-42.022 0-18.187-15.405-35.125-38.818-35.125z" clip-path="url(#clipPath3901)" style="fill:#fff;filter:url(#filter3893);opacity:.3"/>
   <path id="path3877" d="m74.506 359.63c-29.131 0-43.819 20.886-43.819 38.303 0 10.546 3.9926 19.928 12.556 23.424 1.4042 0.5741 2.662 0.02 3.0692-1.5349 0.28329-1.076 0.95338-3.7904 1.2523-4.9208 0.41063-1.5377 0.25128-2.077-0.88188-3.4172-2.4693-2.9126-4.0471-6.6832-4.0471-12.024 0-15.495 11.593-29.367 30.188-29.367 16.466 0 25.512 10.061 25.512 23.497 0 17.679-7.8238 32.6-19.439 32.6-6.4142 0-11.216-5.3049-9.6768-11.811 1.8427-7.7673 5.4125-16.15 5.4125-21.757 0-5.0189-2.694-9.2049-8.2692-9.2049-6.5572 0-11.825 6.7833-11.825 15.87 0 5.7877 1.9558 9.702 1.9558 9.702s-6.7104 28.432-7.8865 33.411c-2.3426 9.9166-0.35207 22.073-0.18386 23.301 0.09874 0.7273 1.0337 0.9003 1.4573 0.3507 0.60471-0.7893 8.4142-10.431 11.069-20.065 0.75113-2.7279 4.3127-16.854 4.3127-16.854 2.1301 4.0634 8.3564 7.6427 14.978 7.6427 19.71 0 33.083-17.969 33.083-42.022 0-18.187-15.405-35.125-38.818-35.125z" style="fill:#8f181d;filter:url(#filter3883)"/>
   <path id="path3095" d="m74.506 359.63c-29.131 0-43.819 20.886-43.819 38.303 0 10.546 3.9926 19.928 12.556 23.424 1.4042 0.5741 2.662 0.02 3.0692-1.5349 0.28329-1.076 0.95338-3.7904 1.2523-4.9208 0.41063-1.5377 0.25128-2.077-0.88188-3.4172-2.4693-2.9126-4.0471-6.6832-4.0471-12.024 0-15.495 11.593-29.367 30.188-29.367 16.466 0 25.512 10.061 25.512 23.497 0 17.679-7.8238 32.6-19.439 32.6-6.4142 0-11.216-5.3049-9.6768-11.811 1.8427-7.7673 5.4125-16.15 5.4125-21.757 0-5.0189-2.694-9.2049-8.2692-9.2049-6.5572 0-11.825 6.7833-11.825 15.87 0 5.7877 1.9558 9.702 1.9558 9.702s-6.7104 28.432-7.8865 33.411c-2.3426 9.9166-0.35207 22.073-0.18386 23.301 0.09874 0.7273 1.0337 0.9003 1.4573 0.3507 0.60471-0.7893 8.4142-10.431 11.069-20.065 0.75113-2.7279 4.3127-16.854 4.3127-16.854 2.1301 4.0634 8.3564 7.6427 14.978 7.6427 19.71 0 33.083-17.969 33.083-42.022 0-18.187-15.405-35.125-38.818-35.125z" style="fill:#fff"/>
  </g>
 </g>
 <g id="layer1" transform="translate(0 -576.36)" style="display:none">
  <g id="layer1-3" transform="matrix(3.5556 0 0 3.5522 0 -2685.9)" style="display:inline">
   <g id="layer1-2" transform="translate(0 10)">
    <path id="path3774" d="m46.703 908.36h50.595c40.865 0 46.703 5.8378 46.703 46.703v40.595c0 40.865-5.8378 46.702-46.703 46.702h-50.595c-40.865 0-46.703-5.8378-46.703-46.702v-40.595c0-40.865 5.8378-46.703 46.703-46.703z" style="display:inline"/>
   </g>
  </g>
 </g>
</svg>
