<?xml version="1.0" encoding="UTF-8"?>
<!-- Created with Inkscape (http://www.inkscape.org/) -->
<svg id="svg3336" width="512" height="476" version="1.1" xmlns="http://www.w3.org/2000/svg" xmlns:cc="http://creativecommons.org/ns#" xmlns:dc="http://purl.org/dc/elements/1.1/" xmlns:rdf="http://www.w3.org/1999/02/22-rdf-syntax-ns#" xmlns:xlink="http://www.w3.org/1999/xlink">
 <defs id="defs3338">
  <clipPath id="clipPath4058-7-9">
   <path id="path4060-38-5" d="m-133.43 956.36h22.857c32 0 32 0 32 32v32c0 32 0 32-32 32h-22.857c-32 0-32 0-32-32v-32c0-32 0-32 32-32z" style="fill:#dd4814"/>
  </clipPath>
  <filter id="filter4080-7-0" color-interpolation-filters="sRGB">
   <feGaussianBlur id="feGaussianBlur4082-6-2" stdDeviation="2.4000005"/>
  </filter>
  <linearGradient id="linearGradient3113" x1="-170" x2="-74" y1="1004.4" y2="1004.4" gradientUnits="userSpaceOnUse">
   <stop id="stop3996-9" style="stop-color:#fff" offset="0"/>
   <stop id="stop3998-9" style="stop-color:#fff;stop-opacity:0" offset="1"/>
  </linearGradient>
  <linearGradient id="linearGradient3115" x1="44.237" x2="44.237" y1="1046.3" y2="960.21" gradientTransform="matrix(1.5 0 0 1.5252 .0053559 -1123.6)" gradientUnits="userSpaceOnUse">
   <stop id="stop2843" style="stop-color:#d4530d" offset="0"/>
   <stop id="stop2845" style="stop-color:#f7ad25" offset="1"/>
  </linearGradient>
  <filter id="filter4950" x="-.036" y="-.036" width="1.072" height="1.072">
   <feGaussianBlur id="feGaussianBlur4952" stdDeviation="4.32"/>
  </filter>
 </defs>
 <metadata id="metadata3341">
  <rdf:RDF>
   <cc:Work rdf:about="">
    <dc:format>image/svg+xml</dc:format>
    <dc:type rdf:resource="http://purl.org/dc/dcmitype/StillImage"/>
    <dc:title/>
   </cc:Work>
  </rdf:RDF>
 </metadata>
 <g id="layer2">
  <g id="g3106" transform="matrix(3.5553 0 0 3.5522 0 -1214.9)">
   <path id="path4332" transform="matrix(0 1.5004 1.5 0 -1434.5 593.89)" d="m-138 956.36h32c32 0 32 0 32 32v32c0 32 0 32-32 32h-32c-32 0-32 0-32-32v-32c0-32 0-32 32-32z" clip-path="url(#clipPath4058-7-9)" style="fill:none;filter:url(#filter4080-7-0);opacity:.1;stroke-width:1.9999;stroke:url(#linearGradient3113)"/>
   <path id="path6419" d="m0.0052089 476v-40.219c-0.01172-2.681 0-5.5433 0-8.5938v-36.375c0-3.0504-0.01172-5.9127 0-8.5937v-40.219h39.563 64.875 39.562v40.219c0.0117 2.681 0 5.5433 0 8.5937v36.375c0 3.0504 0.0117 5.9127 0 8.5938v40.219h-39.562-64.875-39.563z" style="fill:url(#linearGradient3115)"/>
  </g>
  <path id="path4924" d="m99.714 98.571v57.6a230.4 230.4 0 0 1 230.4 230.4h57.6a288 288 0 0 0-288-288zm0 97.097v55.954a134.95 134.95 0 0 1 134.95 134.95h55.954a190.9 190.9 0 0 0-190.9-190.9zm39.497 111.91c-21.814 0-39.497 17.683-39.497 39.497 0 21.814 17.683 39.497 39.497 39.497 21.814 0 39.497-17.683 39.497-39.497 0-21.814-17.683-39.497-39.497-39.497z" style="fill:#520;filter:url(#filter4950);opacity:.5"/>
  <path id="circle3643" d="m99.714 94.571v57.6a230.4 230.4 0 0 1 230.4 230.4h57.6a288 288 0 0 0-288-288zm0 97.097v55.954a134.95 134.95 0 0 1 134.95 134.95h55.954a190.9 190.9 0 0 0-190.9-190.9zm39.497 111.91c-21.814 0-39.497 17.683-39.497 39.497 0 21.814 17.683 39.497 39.497 39.497 21.814 0 39.497-17.683 39.497-39.497 0-21.814-17.683-39.497-39.497-39.497z" style="fill:#fff"/>
 </g>
 <g id="layer1" transform="translate(0 -576.36)" style="display:none">
  <g id="layer1-3" transform="matrix(3.5556 0 0 3.5522 0 -2685.9)" style="display:inline">
   <g id="layer1-2" transform="translate(0 10)">
    <path id="path3774" d="m46.703 908.36h50.595c40.865 0 46.703 5.8378 46.703 46.703v40.595c0 40.865-5.8378 46.702-46.703 46.702h-50.595c-40.865 0-46.703-5.8378-46.703-46.702v-40.595c0-40.865 5.8378-46.703 46.703-46.703z" style="display:inline"/>
   </g>
  </g>
 </g>
</svg>
