<?xml version="1.0" encoding="UTF-8"?>
<!-- Created with Inkscape (http://www.inkscape.org/) -->
<svg id="svg3336" width="512" height="476" version="1.1" xmlns="http://www.w3.org/2000/svg" xmlns:cc="http://creativecommons.org/ns#" xmlns:dc="http://purl.org/dc/elements/1.1/" xmlns:rdf="http://www.w3.org/1999/02/22-rdf-syntax-ns#" xmlns:xlink="http://www.w3.org/1999/xlink">
 <defs id="defs3338">
  <filter id="filter6944" x="-.24" y="-.24" width="1.48" height="1.48" color-interpolation-filters="sRGB">
   <feGaussianBlur id="feGaussianBlur6946" stdDeviation="4.800001"/>
  </filter>
  <filter id="filter6934" color-interpolation-filters="sRGB">
   <feGaussianBlur id="feGaussianBlur6936" stdDeviation="0.72000015"/>
  </filter>
  <linearGradient id="linearGradient3223" x1="44.237" x2="44.237" y1="1046.3" y2="960.21" gradientTransform="matrix(5.3329 0 0 -5.4179 .019042 5682.3)" gradientUnits="userSpaceOnUse">
   <stop id="stop7539" style="stop-color:#5fcdf5" offset="0"/>
   <stop id="stop7541" style="stop-color:#00aaea" offset="1"/>
  </linearGradient>
  <clipPath id="clipPath4058-7-9">
   <path id="path4060-38-5" d="m-133.43 956.36h22.857c32 0 32 0 32 32v32c0 32 0 32-32 32h-22.857c-32 0-32 0-32-32v-32c0-32 0-32 32-32z" style="fill:#dd4814"/>
  </clipPath>
  <filter id="filter4080-7-0" color-interpolation-filters="sRGB">
   <feGaussianBlur id="feGaussianBlur4082-6-2" stdDeviation="2.4000005"/>
  </filter>
  <linearGradient id="linearGradient3098" x1="-170" x2="-74" y1="1004.4" y2="1004.4" gradientUnits="userSpaceOnUse">
   <stop id="stop3996-9" style="stop-color:#fff" offset="0"/>
   <stop id="stop3998-9" style="stop-color:#fff;stop-opacity:0" offset="1"/>
  </linearGradient>
 </defs>
 <metadata id="metadata3341">
  <rdf:RDF>
   <cc:Work rdf:about="">
    <dc:format>image/svg+xml</dc:format>
    <dc:type rdf:resource="http://purl.org/dc/dcmitype/StillImage"/>
    <dc:title/>
   </cc:Work>
  </rdf:RDF>
 </metadata>
 <g id="layer2">
  <path id="path4332" transform="matrix(0 5.3298 5.3329 0 -5100.2 894.77)" d="m-138 956.36h32c32 0 32 0 32 32v32c0 32 0 32-32 32h-32c-32 0-32 0-32-32v-32c0-32 0-32 32-32z" clip-path="url(#clipPath4058-7-9)" style="fill:none;filter:url(#filter4080-7-0);opacity:.1;stroke-width:1.9999;stroke:url(#linearGradient3098)"/>
  <path id="path6419" d="m0.018519 1.5181e-5v142.87c-0.041668 9.5237 0 19.691 0 30.527v129.21c0 10.836-0.041668 21.003 0 30.527v142.87h140.66 230.65 140.66v-142.87c0.0416-9.5236 0-19.691 0-30.527v-129.21c0-10.836 0.0416-21.003 0-30.527v-142.87h-140.66-230.65-140.66z" style="fill:url(#linearGradient3223)"/>
  <g id="g4079" transform="matrix(6.0948 0 0 6.0895 588.79 -6019.5)">
   <path id="path6938" d="m-65.553 1003.6c-7.2009 0-13.052 5.8508-13.052 13.052 0 2.2241 0.54702 4.3103 1.5299 6.1434-0.32813 1.5446-0.47809 3.1628-0.47809 4.8048 0 12.674 10.275 22.948 22.948 22.948 1.642 0 3.2601-0.1499 4.8048-0.4781 1.8393 0.9917 3.9086 1.5299 6.1434 1.5299 7.2009 0 13.052-5.8509 13.052-13.052 0-2.2348-0.5382-4.304-1.5299-6.1434 0.32813-1.5446 0.47809-3.1628 0.47809-4.8047 0-12.674-10.275-22.948-22.948-22.948-1.6424 0-3.2598 0.1976-4.8048 0.5258-1.8332-0.983-3.919-1.5776-6.1434-1.5776zm10.494 8.8207c7.5078 0 11.378 3.9662 11.378 6.2868s-1.1213 2.7012-2.9641 2.7012c-3.577 0-2.1078-4.3028-8.8207-4.3028-2.2234 0-4.9721 0.9954-4.9721 3.5857 0 2.0783 2.4248 2.8427 6.7649 3.8964 6.5248 1.7483 11.45 3.5175 11.45 9.49 0 5.8015-4.779 8.7012-12.287 8.7012-7.5078 0-12.287-4.4922-12.287-6.8128 0-2.3205 0.90618-2.9162 2.749-2.9162 3.577 0 3.064 4.8764 9.7769 4.8764 2.2234 0 5.498-0.9954 5.498-3.5856 0-2.0783-0.14255-2.8128-4.9004-4.0877-5.0831-0.6931-13.315-2.3424-13.315-8.6533 0-5.8015 4.4205-9.1793 11.928-9.1793z" style="fill:#fff;filter:url(#filter6944);opacity:.5"/>
   <path id="path6932" d="m-65.553 1003.6c-7.2009 0-13.052 5.8508-13.052 13.052 0 2.2241 0.54702 4.3103 1.5299 6.1434-0.32813 1.5446-0.47809 3.1628-0.47809 4.8048 0 12.674 10.275 22.948 22.948 22.948 1.642 0 3.2601-0.1499 4.8048-0.4781 1.8393 0.9917 3.9086 1.5299 6.1434 1.5299 7.2009 0 13.052-5.8509 13.052-13.052 0-2.2348-0.5382-4.304-1.5299-6.1434 0.32813-1.5446 0.47809-3.1628 0.47809-4.8047 0-12.674-10.275-22.948-22.948-22.948-1.6424 0-3.2598 0.1976-4.8048 0.5258-1.8332-0.983-3.919-1.5776-6.1434-1.5776zm10.494 8.8207c7.5078 0 11.378 3.9662 11.378 6.2868s-1.1213 2.7012-2.9641 2.7012c-3.577 0-2.1078-4.3028-8.8207-4.3028-2.2234 0-4.9721 0.9954-4.9721 3.5857 0 2.0783 2.4248 2.8427 6.7649 3.8964 6.5248 1.7483 11.45 3.5175 11.45 9.49 0 5.8015-4.779 8.7012-12.287 8.7012-7.5078 0-12.287-4.4922-12.287-6.8128 0-2.3205 0.90618-2.9162 2.749-2.9162 3.577 0 3.064 4.8764 9.7769 4.8764 2.2234 0 5.498-0.9954 5.498-3.5856 0-2.0783-0.14255-2.8128-4.9004-4.0877-5.0831-0.6931-13.315-2.3424-13.315-8.6533 0-5.8015 4.4205-9.1793 11.928-9.1793z" style="fill:#06688c;filter:url(#filter6934)"/>
   <path id="path3818" d="m-65.553 1003.6c-7.2009 0-13.052 5.8508-13.052 13.052 0 2.2241 0.54702 4.3103 1.5299 6.1434-0.32813 1.5446-0.47809 3.1628-0.47809 4.8048 0 12.674 10.275 22.948 22.948 22.948 1.642 0 3.2601-0.1499 4.8048-0.4781 1.8393 0.9917 3.9086 1.5299 6.1434 1.5299 7.2009 0 13.052-5.8509 13.052-13.052 0-2.2348-0.5382-4.304-1.5299-6.1434 0.32813-1.5446 0.47809-3.1628 0.47809-4.8047 0-12.674-10.275-22.948-22.948-22.948-1.6424 0-3.2598 0.1976-4.8048 0.5258-1.8332-0.983-3.919-1.5776-6.1434-1.5776zm10.494 8.8207c7.5078 0 11.378 3.9662 11.378 6.2868s-1.1213 2.7012-2.9641 2.7012c-3.577 0-2.1078-4.3028-8.8207-4.3028-2.2234 0-4.9721 0.9954-4.9721 3.5857 0 2.0783 2.4248 2.8427 6.7649 3.8964 6.5248 1.7483 11.45 3.5175 11.45 9.49 0 5.8015-4.779 8.7012-12.287 8.7012-7.5078 0-12.287-4.4922-12.287-6.8128 0-2.3205 0.90618-2.9162 2.749-2.9162 3.577 0 3.064 4.8764 9.7769 4.8764 2.2234 0 5.498-0.9954 5.498-3.5856 0-2.0783-0.14255-2.8128-4.9004-4.0877-5.0831-0.6931-13.315-2.3424-13.315-8.6533 0-5.8015 4.4205-9.1793 11.928-9.1793z" style="fill:#fff"/>
  </g>
 </g>
 <g id="layer1" transform="translate(0 -576.36)" style="display:none">
  <g id="layer1-3" transform="matrix(3.5556 0 0 3.5522 0 -2685.9)" style="display:inline">
   <g id="layer1-2" transform="translate(0 10)">
    <path id="path3774" d="m46.703 908.36h50.595c40.865 0 46.703 5.8378 46.703 46.703v40.595c0 40.865-5.8378 46.702-46.703 46.702h-50.595c-40.865 0-46.703-5.8378-46.703-46.702v-40.595c0-40.865 5.8378-46.703 46.703-46.703z" style="display:inline"/>
   </g>
  </g>
 </g>
</svg>
