<?xml version="1.0" encoding="UTF-8"?>
<!-- Created with Inkscape (http://www.inkscape.org/) -->
<svg id="svg4874" width="96" height="96" version="1.1" viewBox="0 0 96 96" xmlns="http://www.w3.org/2000/svg" xmlns:cc="http://creativecommons.org/ns#" xmlns:dc="http://purl.org/dc/elements/1.1/" xmlns:rdf="http://www.w3.org/1999/02/22-rdf-syntax-ns#">
 <metadata id="metadata4879">
  <rdf:RDF>
   <cc:Work rdf:about="">
    <dc:format>image/svg+xml</dc:format>
    <dc:type rdf:resource="http://purl.org/dc/dcmitype/StillImage"/>
    <dc:title/>
   </cc:Work>
  </rdf:RDF>
 </metadata>
 <g id="layer1" transform="translate(67.857 -78.505)">
  <rect id="rect4782" transform="rotate(90)" x="78.505" y="-28.143" width="96" height="96" style="color:#000000;fill:none"/>
  <path id="path4180" transform="translate(-67.857 78.505)" d="m64 16.004-2.7656 1.1484-36.027 14.945-22.01-0.10352-0.55078 1.1289s-2.6465 5.5306-2.6465 14.885c0 9.3542 2.6484 14.869 2.6484 14.869l0.54492 1.1172 5.541 0.02539c5.2532 11.326 6.2695 26.104 6.2695 26.104l0.11719 1.877h10.879v-27.576l38 15.555v-63.975zm18.99 0.64258-3.5352 3.5352c7.3784 7.3784 11.521 17.384 11.521 27.818s-4.1431 20.438-11.521 27.816l3.5352 3.5371c8.3148-8.3148 12.986-19.595 12.986-31.354 0-11.759-4.6716-23.039-12.986-31.354zm-22.99 5.3477v52.025l-34-13.918v-24.002l34-14.105zm13.107 4.5352-3.5352 3.5352c4.7573 4.7573 7.4277 11.208 7.4277 17.936s-2.6704 13.176-7.4277 17.934l3.5352 3.5352c5.6936-5.6936 8.8926-13.417 8.8926-21.469s-3.199-15.777-8.8926-21.471zm-67.246 9.4766 16.139 0.076172v24l-16.135-0.076172c-0.5212-1.2453-1.8652-4.8181-1.8652-11.998 0-7.164 1.3365-10.741 1.8613-12.002zm7.2715 28.035 8.8672 0.041015v23.918h-3.2461c-0.18296-2.4409-1.1261-13.425-5.6211-23.959z" style="block-progression:tb;color-rendering:auto;color:#000000;fill:#808080;image-rendering:auto;isolation:auto;mix-blend-mode:normal;shape-rendering:auto;solid-color:#000000;text-decoration-color:#000000;text-decoration-line:none;text-decoration-style:solid;text-indent:0;text-transform:none;white-space:normal"/>
  <rect id="rect4165" x="-67.857" y="78.505" width="96" height="96" style="color:#000000;fill:none"/>
 </g>
</svg>
