<?xml version="1.0" encoding="UTF-8"?>
<!-- Created with Inkscape (http://www.inkscape.org/) -->
<svg id="svg4874" width="96" height="96" version="1.1" viewBox="0 0 96 96" xmlns="http://www.w3.org/2000/svg" xmlns:cc="http://creativecommons.org/ns#" xmlns:dc="http://purl.org/dc/elements/1.1/" xmlns:rdf="http://www.w3.org/1999/02/22-rdf-syntax-ns#">
 <metadata id="metadata4879">
  <rdf:RDF>
   <cc:Work rdf:about="">
    <dc:format>image/svg+xml</dc:format>
    <dc:type rdf:resource="http://purl.org/dc/dcmitype/StillImage"/>
    <dc:title/>
   </cc:Work>
  </rdf:RDF>
 </metadata>
 <g id="layer1" transform="translate(67.857 -78.505)">
  <rect id="rect4782-59" transform="rotate(90)" x="78.505" y="-28.143" width="96" height="96" style="color:#000000;fill:none"/>
  <path id="path4122-5" d="m24.144 130.51c0 6.0003-2.5625 9.9699-6.2324 11.896-3.6699 1.9258-8.0754 2.1046-12.285 2.1046h-50.16v-4.0004h50.16c4.0482 0 7.9022-0.32156 10.426-1.6458 2.5236-1.3243 4.0899-3.3542 4.0899-8.3541v-34.001h4.002z" style="color-rendering:auto;color:#000000;fill:#808080;font-feature-settings:normal;font-variant-alternates:normal;font-variant-caps:normal;font-variant-ligatures:none;font-variant-numeric:normal;font-variant-position:normal;image-rendering:auto;isolation:auto;mix-blend-mode:normal;shape-padding:0;shape-rendering:auto;solid-color:#000000;text-decoration-color:#000000;text-decoration-line:none;text-decoration-style:solid;text-indent:0;text-transform:none;white-space:normal"/>
  <path id="path4178" d="m8.1437 130.51c0 6.0003-2.5625 9.9699-6.2324 11.896-3.6699 1.9258-8.0754 2.1046-12.285 2.1046v-4.0004c4.0482 0 7.9022-0.32156 10.426-1.6458 2.5235-1.3243 4.0898-3.3542 4.0898-8.3541v-34.001h4.002z" style="color-rendering:auto;color:#000000;fill:#808080;font-feature-settings:normal;font-variant-alternates:normal;font-variant-caps:normal;font-variant-ligatures:none;font-variant-numeric:normal;font-variant-position:normal;image-rendering:auto;isolation:auto;mix-blend-mode:normal;shape-padding:0;shape-rendering:auto;solid-color:#000000;text-decoration-color:#000000;text-decoration-line:none;text-decoration-style:solid;text-indent:0;text-transform:none;white-space:normal"/>
  <path id="path5588-9-2-96-87" d="m-41.857 154.51-8e-3 -24c-3.6501 1.6688-7.366 3.5359-11.149 5.5987-3.7478 2.0678-7.3628 4.2005-10.843 6.4003 3.48 2.1557 7.0951 4.268 10.843 6.3358 3.7853 2.0639 7.5033 3.9519 11.155 5.6652z" style="color:#000000;fill:#808080"/>
 </g>
</svg>
