<?xml version="1.0" encoding="UTF-8"?>
<!-- Created with Inkscape (http://www.inkscape.org/) -->
<svg id="svg4874" width="96" height="96" version="1.1" viewBox="0 0 96 96" xmlns="http://www.w3.org/2000/svg" xmlns:cc="http://creativecommons.org/ns#" xmlns:dc="http://purl.org/dc/elements/1.1/" xmlns:rdf="http://www.w3.org/1999/02/22-rdf-syntax-ns#">
 <metadata id="metadata4879">
  <rdf:RDF>
   <cc:Work rdf:about="">
    <dc:format>image/svg+xml</dc:format>
    <dc:type rdf:resource="http://purl.org/dc/dcmitype/StillImage"/>
    <dc:title/>
   </cc:Work>
  </rdf:RDF>
 </metadata>
 <g id="layer1" transform="translate(67.857 -78.505)">
  <rect id="rect4782-66" transform="rotate(90)" x="78.505" y="-28.143" width="96" height="96" style="color:#000000;fill:none"/>
  <path id="path4185-3" d="m3.9502 84.491c7.807 1.7675 21.152 4.3964 17.605 16.278-4.5076 15.101-17.214 28.842-27.726 39.359l3.02e-4 2.7e-4c-0.01134 0.01-0.02268 0.0208-0.03024 0.0314-0.01134 0.01-0.0189 0.0208-0.03024 0.0314l-2.65e-4 -2.7e-4c-10.517 10.513-24.258 23.219-39.359 27.726-11.881 3.5466-14.51-9.798-16.278-17.605l25.217-11.089 9.8806 5.3281c3.6565-2.3329 9.9698-8.186 13.874-12.088 3.9022-3.9046 9.7553-10.218 12.088-13.874l-6.3281-8.8807 11.089-25.217z" style="color:#000000;fill:#808080"/>
  <path id="path4202-4" d="m-25.843 117.69-2.8301 2.827-16-16 2.8301-2.827z" style="color-rendering:auto;color:#000000;fill:#808080;font-feature-settings:normal;font-variant-alternates:normal;font-variant-caps:normal;font-variant-ligatures:none;font-variant-numeric:normal;font-variant-position:normal;image-rendering:auto;isolation:auto;mix-blend-mode:normal;shape-padding:0;shape-rendering:auto;solid-color:#000000;text-decoration-color:#000000;text-decoration-line:none;text-decoration-style:solid;text-indent:0;text-transform:none;white-space:normal"/>
  <path id="path5829" d="m-48.715 114.54 16.965-16.976c-3.761-1.401-7.7088-2.7083-11.843-3.9248-4.1122-1.1879-8.1765-2.2361-12.193-3.1414 0.93642 3.9851 1.999 8.035 3.1869 12.147 1.2172 4.136 2.5113 8.1001 3.8821 11.894z" style="color:#000000;fill:#808080"/>
 </g>
</svg>
