<?xml version="1.0" encoding="UTF-8"?>
<!-- Created with Inkscape (http://www.inkscape.org/) -->
<svg id="svg4874" width="96" height="96" version="1.1" viewBox="0 0 96 96" xmlns="http://www.w3.org/2000/svg" xmlns:cc="http://creativecommons.org/ns#" xmlns:dc="http://purl.org/dc/elements/1.1/" xmlns:rdf="http://www.w3.org/1999/02/22-rdf-syntax-ns#">
 <metadata id="metadata4879">
  <rdf:RDF>
   <cc:Work rdf:about="">
    <dc:format>image/svg+xml</dc:format>
    <dc:type rdf:resource="http://purl.org/dc/dcmitype/StillImage"/>
    <dc:title/>
   </cc:Work>
  </rdf:RDF>
 </metadata>
 <g id="layer1" transform="translate(67.857 -78.505)">
  <rect id="rect4782" transform="rotate(90)" x="78.505" y="-28.143" width="96" height="96" style="color:#000000;fill:none"/>
  <path id="path4220" d="m-22.857 108.51v9.3437c0 2.7461 0.09376 5.2899 0.27979 7.6341 0.186 2.3107 0.4356 4.6385 0.74561 6.9828h3.9961c0.27903-2.3443 0.51273-4.6721 0.69873-6.9828 0.18602-2.3108 0.27979-4.8544 0.27979-7.6341v-9.3437h-6z" style="color:#000000;fill:#ed3146"/>
  <path id="path4116" d="m-19.841 136.51c-1.0957 0-2.0426 0.38647-2.8394 1.158-0.76364 0.73798-1.1448 1.6924-1.1448 2.8663 0 1.1742 0.38112 2.1301 1.1448 2.8681 0.79683 0.73796 1.7438 1.1076 2.8394 1.1076 1.1289 0 2.0758-0.36967 2.8394-1.1076 0.76364-0.73798 1.1448-1.6939 1.1448-2.8681 0-1.1739-0.38112-2.1283-1.1448-2.8663-0.76364-0.7715-1.7106-1.158-2.8394-1.158z" style="color:#000000;fill:#ed3146"/>
  <path id="path4210" transform="translate(-67.857 78.505)" d="m48 2s-9.8184 16.43-36 16.43c0 55.857 36 75.57 36 75.57s36-19.713 36-75.57c-26.182 0-36-16.43-36-16.43zm0 6.2949 2.373 2.1699c1.1156 1.0202 2.2423 1.9998 3.5527 2.9395 5.0387 3.6134 12.715 7.1217 22.82 8.3574l3.2793 0.39844-0.19141 3.3008c-1.3472 23.144-9.1488 39.028-16.932 49.328-5.3192 7.0395-9.7292 10.771-12.832 13.029l-2.0703 1.5059-2.0684-1.5059h-0.001953c-3.1028-2.2586-7.5129-5.9898-12.832-13.029-7.7829-10.3-15.584-26.184-16.932-49.328l-0.19141-3.3008 3.2793-0.39844c10.105-1.2357 17.782-4.744 22.82-8.3574 1.3104-0.93968 2.4371-1.9192 3.5527-2.9395l0.6875-0.62891 1.6855-1.541z" style="color:#000000;fill:#ed3146"/>
 </g>
</svg>
