<?xml version="1.0" encoding="UTF-8"?>
<!-- Created with Inkscape (http://www.inkscape.org/) -->
<svg id="svg3289" width="90" height="90" version="1.1" xmlns="http://www.w3.org/2000/svg" xmlns:cc="http://creativecommons.org/ns#" xmlns:dc="http://purl.org/dc/elements/1.1/" xmlns:rdf="http://www.w3.org/1999/02/22-rdf-syntax-ns#" xmlns:xlink="http://www.w3.org/1999/xlink">
 <defs id="defs3291">
  <clipPath id="clipPath3017-4">
   <path id="path3019-4" d="m199 186.36v27h39v-27h-39zm25.141 7.5c0.53199 1e-5 0.98285 0.0788 1.4062 0.15625 0.43428 0.0665 0.85228 0.1503 1.1562 0.25 0.31487 0.0883 0.52331 0.15051 0.71875 0.25 0.20629 0.0995 0.3975 0.21035 0.48438 0.26562l-0.71875 2.0469c-0.34742-0.18802-0.73152-0.33605-1.1875-0.46875-0.44518-0.14367-0.95236-0.1875-1.4844-0.1875-1.1834 2e-5 -2.0774 0.29423-2.6094 0.96875-0.52114 0.66344-0.76563 1.589-0.76563 2.75 0 0.56396 0.0883 1.0825 0.21875 1.5469 0.13021 0.45338 0.2863 0.84012 0.54688 1.1719 0.26054 0.33171 0.60914 0.5933 1 0.78125 0.39089 0.17694 0.86949 0.23437 1.3906 0.23437 0.28227 0 0.47638 0.0119 0.67188 0 0.20624-0.0118 0.39486-0.029 0.54687-0.0625v-4.0156h2.5781v5.6875c-0.30401 0.12179-0.77997 0.30476-1.4531 0.4375-0.67315 0.14368-1.5276 0.1875-2.5156 0.1875-0.84687 0-1.5864-0.10962-2.2812-0.375-0.684-0.2654-1.3395-0.66323-1.8281-1.1719-0.48862-0.50864-0.85358-1.1498-1.125-1.8906-0.26054-0.74088-0.39062-1.5803-0.39062-2.5312 0-0.96201 0.15999-1.8217 0.45312-2.5625 0.29316-0.74084 0.70844-1.382 1.2188-1.8906 0.51031-0.5197 1.0816-0.87523 1.7656-1.1406 0.69482-0.26539 1.4214-0.4375 2.2031-0.4375zm-11.953 0.0312c0.16265-0.0119 0.35294 0 0.53125 0 0.65923 2e-5 1.2433 0.11625 1.7188 0.28125 0.48629 0.15417 0.87409 0.3747 1.1875 0.67187 0.31336 0.28617 0.55183 0.60379 0.70312 1 0.15137 0.3852 0.20313 0.8659 0.20313 1.3281 0 0.45128-0.11057 0.86764-0.35938 1.2969-0.24855 0.41823-0.57856 0.73303-1 0.95313 0.58353 0.24213 1.046 0.57822 1.3594 1.0625 0.32418 0.47325 0.46874 1.0474 0.46875 1.7188-1e-5 0.52829-0.0772 1.0332-0.25 1.4844-0.17294 0.44026-0.44508 0.85733-0.8125 1.1875-0.36744 0.31919-0.8335 0.54724-1.4062 0.73438-0.56193 0.17614-1.2219 0.25-2 0.25-0.29181 0-0.61332 0.0114-0.9375-0.0312-0.32423-0.033-0.65054-0.12135-0.95313-0.1875-0.30257-0.0659-0.53269-0.11021-0.78125-0.1875-0.24856-0.077-0.46891-0.15257-0.60937-0.21875l0.45312-2.0625c0.28095 0.12087 0.6615 0.24753 1.0938 0.39062 0.44307 0.13221 1.0235 0.21875 1.6719 0.21875 0.74564 0 1.2323-0.13585 1.5781-0.42187 0.34578-0.28617 0.54688-0.67198 0.54688-1.1562 0-0.29717-0.0577-0.53625-0.1875-0.73438-0.11866-0.20911-0.29951-0.37891-0.51563-0.5-0.21615-0.13219-0.5099-0.26849-0.8125-0.3125-0.29178-0.0549-0.57125-0.0625-0.90625-0.0625h-0.98437v-1.9375h1.125c0.23775 0 0.42449-0.0808 0.64062-0.125 0.2269-0.044 0.4677-0.0885 0.64063-0.1875 0.17295-0.11003 0.29336-0.26138 0.39062-0.4375 0.10805-0.18702 0.125-0.42798 0.125-0.70312 0-0.20913-0.0387-0.37719-0.125-0.53125-0.0864-0.15419-0.18757-0.27592-0.32812-0.375-0.12981-0.0994-0.23818-0.19035-0.42188-0.23438-0.17296-0.0549-0.36315-0.0625-0.54687-0.0625-0.46469 3e-5 -0.94393 0.0601-1.3438 0.20313-0.38903 0.14289-0.73834 0.32216-1.0625 0.53125l-0.84375-1.8281c0.17295-0.11026 0.38242-0.17568 0.60937-0.29687 0.23773-0.12084 0.46902-0.24468 0.75-0.34375 0.28097-0.0989 0.59286-0.2152 0.90625-0.28125 0.16206-0.0332 0.32171-0.0833 0.48438-0.0937z" style="color:#000000;fill:#f0f"/>
  </clipPath>
  <clipPath id="clipPath3017-4-5">
   <path id="path3019-4-1-9" d="m199 186.36v27h39v-27h-39zm25.141 7.5c0.53199 1e-5 0.98285 0.0788 1.4062 0.15625 0.43428 0.0665 0.85228 0.1503 1.1562 0.25 0.31487 0.0883 0.52331 0.15051 0.71875 0.25 0.20629 0.0995 0.3975 0.21035 0.48438 0.26562l-0.71875 2.0469c-0.34742-0.18802-0.73152-0.33605-1.1875-0.46875-0.44518-0.14367-0.95236-0.1875-1.4844-0.1875-1.1834 2e-5 -2.0774 0.29423-2.6094 0.96875-0.52114 0.66344-0.76563 1.589-0.76563 2.75 0 0.56396 0.0883 1.0825 0.21875 1.5469 0.13021 0.45338 0.2863 0.84012 0.54688 1.1719 0.26054 0.33171 0.60914 0.5933 1 0.78125 0.39089 0.17694 0.86949 0.23437 1.3906 0.23437 0.28227 0 0.47638 0.0119 0.67188 0 0.20624-0.0118 0.39486-0.029 0.54687-0.0625v-4.0156h2.5781v5.6875c-0.30401 0.12179-0.77997 0.30476-1.4531 0.4375-0.67315 0.14368-1.5276 0.1875-2.5156 0.1875-0.84687 0-1.5864-0.10962-2.2812-0.375-0.684-0.2654-1.3395-0.66323-1.8281-1.1719-0.48862-0.50864-0.85358-1.1498-1.125-1.8906-0.26054-0.74088-0.39062-1.5803-0.39062-2.5312 0-0.96201 0.15999-1.8217 0.45312-2.5625 0.29316-0.74084 0.70844-1.382 1.2188-1.8906 0.51031-0.5197 1.0816-0.87523 1.7656-1.1406 0.69482-0.26539 1.4214-0.4375 2.2031-0.4375zm-11.953 0.0312c0.16265-0.0119 0.35294 0 0.53125 0 0.65923 2e-5 1.2433 0.11625 1.7188 0.28125 0.48629 0.15417 0.87409 0.3747 1.1875 0.67187 0.31336 0.28617 0.55183 0.60379 0.70312 1 0.15137 0.3852 0.20313 0.8659 0.20313 1.3281 0 0.45128-0.11057 0.86764-0.35938 1.2969-0.24855 0.41823-0.57856 0.73303-1 0.95313 0.58353 0.24213 1.046 0.57822 1.3594 1.0625 0.32418 0.47325 0.46874 1.0474 0.46875 1.7188-1e-5 0.52829-0.0772 1.0332-0.25 1.4844-0.17294 0.44026-0.44508 0.85733-0.8125 1.1875-0.36744 0.31919-0.8335 0.54724-1.4062 0.73438-0.56193 0.17614-1.2219 0.25-2 0.25-0.29181 0-0.61332 0.0114-0.9375-0.0312-0.32423-0.033-0.65054-0.12135-0.95313-0.1875-0.30257-0.0659-0.53269-0.11021-0.78125-0.1875-0.24856-0.077-0.46891-0.15257-0.60937-0.21875l0.45312-2.0625c0.28095 0.12087 0.6615 0.24753 1.0938 0.39062 0.44307 0.13221 1.0235 0.21875 1.6719 0.21875 0.74564 0 1.2323-0.13585 1.5781-0.42187 0.34578-0.28617 0.54688-0.67198 0.54688-1.1562 0-0.29717-0.0577-0.53625-0.1875-0.73438-0.11866-0.20911-0.29951-0.37891-0.51563-0.5-0.21615-0.13219-0.5099-0.26849-0.8125-0.3125-0.29178-0.0549-0.57125-0.0625-0.90625-0.0625h-0.98437v-1.9375h1.125c0.23775 0 0.42449-0.0808 0.64062-0.125 0.2269-0.044 0.4677-0.0885 0.64063-0.1875 0.17295-0.11003 0.29336-0.26138 0.39062-0.4375 0.10805-0.18702 0.125-0.42798 0.125-0.70312 0-0.20913-0.0387-0.37719-0.125-0.53125-0.0864-0.15419-0.18757-0.27592-0.32812-0.375-0.12981-0.0994-0.23818-0.19035-0.42188-0.23438-0.17296-0.0549-0.36315-0.0625-0.54687-0.0625-0.46469 3e-5 -0.94393 0.0601-1.3438 0.20313-0.38903 0.14289-0.73834 0.32216-1.0625 0.53125l-0.84375-1.8281c0.17295-0.11026 0.38242-0.17568 0.60937-0.29687 0.23773-0.12084 0.46902-0.24468 0.75-0.34375 0.28097-0.0989 0.59286-0.2152 0.90625-0.28125 0.16206-0.0332 0.32171-0.0833 0.48438-0.0937z" style="color:#000000;fill:#f0f"/>
  </clipPath>
 </defs>
 <metadata id="metadata3294">
  <rdf:RDF>
   <cc:Work rdf:about="">
    <dc:format>image/svg+xml</dc:format>
    <dc:type rdf:resource="http://purl.org/dc/dcmitype/StillImage"/>
    <dc:title/>
   </cc:Work>
  </rdf:RDF>
 </metadata>
 <g id="layer1" transform="translate(0 -962.36)">
  <g id="g4451" transform="translate(-789 604.36)">
   <g id="g5052" transform="translate(623 -614.36)">
    <rect id="rect5027" x="166" y="972.36" width="90" height="90" style="fill:none"/>
    <path id="path5061" transform="translate(0 -147.64)" d="m201 1144c-18 0-20 0-20 12v18c0 12 2 12 20 12h20c18 0 20 0 20-12v-18c0-12-2-12-20-12h-20zm-1.2285 9c2.4793 0 4.3941 0.5954 5.6445 1.8652 1.2502 1.2264 1.8691 2.93 1.8691 4.9942v0.5h-0.10547c-0.0568 0.6749-0.1425 1.3488-0.42188 2h-2e-3c-0.33982 0.7695-0.7811 1.5232-1.3184 2.2617h-2e-3c-0.51285 0.7124-1.1018 1.4105-1.7656 2.0957h-2e-3 -4e-3c-0.65141 0.6507-1.3016 1.2907-1.9531 1.9199h-4e-3 -2e-3c-0.33727 0.3159-0.72235 0.6994-1.1504 1.1485-0.42723 0.4481-0.83113 0.8965-1.2148 1.3437-0.37732 0.4398-0.69927 0.8642-0.96679 1.2754l-4e-3 0.01h-4e-3c-0.082 0.1198-0.0665 0.1558-0.11914 0.2558h9.7539v4.3086h-15.262l-0.0547-0.4375c-0.0251-0.201-0.0371-0.4247-0.0371-0.6777v-0.584c0-1.0902 0.17171-2.1046 0.51954-3.0313h2e-3c0.36094-0.924 0.82504-1.7831 1.3906-2.5742 0.55746-0.7796 1.1829-1.5137 1.873-2.2031 0.673-0.6724 1.3445-1.3337 2.0176-1.9844h2e-3c0.51715-0.4951 1.0128-0.9799 1.4863-1.4531 0.46286-0.4623 0.85903-0.9105 1.1894-1.3437h2e-3c0.34576-0.447 0.61647-0.8869 0.81445-1.3204 0.1905-0.4384 0.2832-0.8733 0.2832-1.3222 0-1.0283-0.2716-1.6334-0.76953-1.9981-0.55757-0.4086-1.2285-0.6172-2.0742-0.6172-0.55856 0-1.067 0.08-1.5312 0.2344-0.4874 0.1622-0.91759 0.3524-1.293 0.5684h-2e-3c-0.36882 0.2253-0.69329 0.458-0.97266 0.6972l-0.01 0.01-8e-3 0.012c-0.29442 0.2311-0.51043 0.4188-0.63672 0.5449l-0.41992 0.418-2.5391-3.5937 0.3125-0.2989c0.95281-0.9065 2.066-1.6311 3.3281-2.1718h2e-3c1.2968-0.5676 2.6885-0.8516 4.1582-0.8516zm22.51 0c1.064 0 1.9657 0.1576 2.8125 0.3125 0.86856 0.133 1.7046 0.3006 2.3125 0.5 0.62974 0.1766 1.0466 0.301 1.4375 0.5 0.41258 0.199 0.79499 0.4207 0.96875 0.5313l-1.4375 4.0937c-0.69484-0.3761-1.463-0.6721-2.375-0.9375-0.89036-0.2874-1.9047-0.375-2.9688-0.375-2.3668 0-4.1548 0.5884-5.2188 1.9375-1.0423 1.3268-1.5312 3.1779-1.5312 5.5 0 1.1279 0.1766 2.165 0.4375 3.0937 0.26042 0.9069 0.57259 1.6803 1.0938 2.3438 0.52108 0.6634 1.2183 1.1866 2 1.5625 0.78178 0.3539 1.739 0.4687 2.7812 0.4687 0.56454 0 0.95275 0.024 1.3438 0 0.41248-0.024 0.78973-0.058 1.0938-0.125v-8.0312h5.1562v11.375c-0.60802 0.2436-1.5599 0.6095-2.9062 0.875-1.3463 0.2873-3.0552 0.375-5.0312 0.375-1.6937 0-3.1728-0.2193-4.5625-0.75-1.368-0.5308-2.6791-1.3263-3.6562-2.3438-0.97724-1.0171-1.7072-2.2996-2.25-3.7812-0.52108-1.4818-0.78125-3.1607-0.78125-5.0625 0-1.9241 0.31999-3.6434 0.90625-5.125 0.58632-1.4817 1.4169-2.7638 2.4375-3.7813 1.0206-1.0392 2.1632-1.7504 3.5312-2.2812 1.3896-0.5308 2.8428-0.875 4.4062-0.875z" style="fill:#ccc"/>
    <path id="path5033" transform="matrix(2 0 0 2 -226 617.64)" d="m213.5 189.36c-9 0-10 0-10 6v9c0 6 1 6 10 6h10c9 0 10 0 10-6v-9c0-6-1-6-10-6z" clip-path="url(#clipPath3017-4-5)" style="display:none;fill:#ccc"/>
   </g>
  </g>
 </g>
 <g id="layer2" style="display:none">
  <path id="path3011-3" transform="matrix(2 0 0 2 -392 -354.72)" d="m213.5 189.36c-9 0-10 0-10 6v9c0 6 1 6 10 6h10c9 0 10 0 10-6v-9c0-6-1-6-10-6z" clip-path="url(#clipPath3017-4)" style="display:inline;fill:#ccc"/>
 </g>
</svg>
