<?xml version="1.0" encoding="UTF-8"?>
<!-- Created with Inkscape (http://www.inkscape.org/) -->
<svg id="svg3289" width="90" height="90" version="1.1" xmlns="http://www.w3.org/2000/svg" xmlns:cc="http://creativecommons.org/ns#" xmlns:dc="http://purl.org/dc/elements/1.1/" xmlns:rdf="http://www.w3.org/1999/02/22-rdf-syntax-ns#" xmlns:xlink="http://www.w3.org/1999/xlink">
 <defs id="defs3291">
  <clipPath id="clipPath3824-3-5">
   <path id="path3826-8-9" d="m205 183.36v33h27v-33h-27zm12.562 4.4062 1.6094 1.5781 4.6875 4.6875 0.64063 0.67188-0.64063 0.67187-4.4219 4.4219v0.125l4.4219 4.4219 0.64063 0.67188-0.64063 0.67187-4.6875 4.6875-1.6094 1.5781v-2.25-8.0312l-4.0156 4.0156-1.3438-1.3438 4.4844-4.4844-4.4844-4.4844 1.3438-1.3438 4.0156 4.0156v-8.0312-2.25zm1.875 4.5312v4.8125l2.4062-2.4062-2.4062-2.4062zm0 10.312v4.8125l2.4062-2.4062-2.4062-2.4062z" style="color:#000000;fill:#f00;opacity:.58108"/>
  </clipPath>
 </defs>
 <metadata id="metadata3294">
  <rdf:RDF>
   <cc:Work rdf:about="">
    <dc:format>image/svg+xml</dc:format>
    <dc:type rdf:resource="http://purl.org/dc/dcmitype/StillImage"/>
    <dc:title/>
   </cc:Work>
  </rdf:RDF>
 </metadata>
 <g id="layer1" transform="translate(0 -962.36)">
  <g id="g5165" transform="translate(-62 486)">
   <rect id="rect5167" x="62" y="476.36" width="90" height="90" style="fill:none"/>
   <path id="path5169" transform="matrix(2 0 0 2 -330 121.64)" d="m218 184.86c-9 0-10 0-10 6v18c0 6 1 6 10 6h1c9 0 10 0 10-6v-18c0-6-1-6-10-6z" clip-path="url(#clipPath3824-3-5)" style="display:none;fill:#ccc"/>
   <path id="path5182" transform="translate(62 476.36)" d="m41 38c-14.296 0-15.927 0.074999-16 9.0996v7.9004 7.9004c0.0733 9.0246 1.7044 9.0996 16 9.0996h8c14.296 0 15.927-0.074999 16-9.0996v-7.9004-7.9004c-0.0732-9.0246-1.7044-9.0996-16-9.0996h-8zm4 7c3.3137 0 6 2.6863 6 6 0 2.2193-1.2086 4.1515-3 5.1895v7.8105h-6v-7.8105c-1.7914-1.0379-3-2.9701-3-5.1895 0-3.3137 2.6863-6 6-6z" style="fill:#ccc"/>
   <path id="rect5190" transform="translate(62 476.36)" d="m45 18c-7.1588 0-13 5.8412-13 13v11.5c0 0.2191 0.022389 0.43193 0.033203 0.64844h4.998c-0.016657-0.21464-0.03125-0.42892-0.03125-0.64844v-11.5c0-4.4752 3.5248-8 8-8s8 3.5248 8 8v11.5c0 0.21951-0.014593 0.4338-0.03125 0.64844h4.998c0.010814-0.21651 0.033203-0.42934 0.033203-0.64844v-11.5c0-7.1588-5.8412-13-13-13z" style="block-progression:tb;color-rendering:auto;color:#000000;fill:#ccc;image-rendering:auto;shape-rendering:auto;text-indent:0;text-transform:none"/>
  </g>
 </g>
 <g id="layer3" style="display:none">
  <path id="path3011-1" transform="matrix(2 0 0 2 -392 -354.72)" d="m213.5 189.36c-9 0-10 0-10 6v9c0 6 1 6 10 6h10c9 0 10 0 10-6v-9c0-6-1-6-10-6z" style="display:inline;fill:#f0f;opacity:.5"/>
  <path id="path3804-0" d="m5.5 19v52h79v-52zm7.0312 7.1875 29.438 27.156c2.0986 1.6744 4.1933 1.8549 6.3749 0l29.469-27.156 2.7188 2.9688-19.375 17.844 12.688 14.656-15.094-12.438-7.6562 7.0312-0.0624 0.0312c-1.6834 1.6616-3.6849 3.0363-5.8125 3.0313-2.1459-4e-3 -4.1698-1.3777-5.9375-3.0313l-7.6875-7.0625-15.094 12.438 12.656-14.656-19.344-17.844z" style="color:#000000;display:inline;fill:#00f"/>
 </g>
</svg>
