<?xml version="1.0" encoding="UTF-8"?>
<!-- Created with Inkscape (http://www.inkscape.org/) -->
<svg id="svg3289" width="90" height="90" version="1.1" xmlns="http://www.w3.org/2000/svg" xmlns:cc="http://creativecommons.org/ns#" xmlns:dc="http://purl.org/dc/elements/1.1/" xmlns:rdf="http://www.w3.org/1999/02/22-rdf-syntax-ns#" xmlns:xlink="http://www.w3.org/1999/xlink">
 <defs id="defs3291">
  <clipPath id="clipPath3895">
   <rect id="rect3897" x="1025" y="314" width="5.5" height="27" style="color:#000000;fill:#f0f;opacity:.67568"/>
  </clipPath>
 </defs>
 <metadata id="metadata3294">
  <rdf:RDF>
   <cc:Work rdf:about="">
    <dc:format>image/svg+xml</dc:format>
    <dc:type rdf:resource="http://purl.org/dc/dcmitype/StillImage"/>
    <dc:title/>
   </cc:Work>
  </rdf:RDF>
 </metadata>
 <g id="layer1" transform="translate(0 -962.36)">
  <g id="g4451" transform="translate(-789 604.36)">
   <g id="g4401" transform="matrix(2,0,0,2,-1195,-252)">
    <rect id="rect4403-3" transform="scale(-1,1)" x="-1037" y="305" width="45" height="45" style="fill:none"/>
    <path id="path3804" d="m1029.5 321.53c0.021 0.44727 0.031 0.9286 0.031 1.4688v9c0 0.54015-0.01 1.0215-0.031 1.4688 0.3302-0.0155 0.6271-0.0453 0.8906-0.0781 0.049-6e-3 0.093-9e-3 0.1406-0.0156v-11.75c-0.043-6e-3 -0.096-0.01-0.1406-0.0156-0.2635-0.03291-0.5604-0.06269-0.8906-0.0782z" style="fill:#ccc;opacity:.5"/>
    <path id="path3906" d="m1030.5 321.62c0.2078 0.0309 0.395 0.0772 0.5625 0.125-0.1669-0.0475-0.3556-0.0942-0.5625-0.125z" style="color:#000000;fill:#f0f;opacity:.67568"/>
    <path id="path3904" d="m1032.4 323.69c0.014 0.1415 0.039 0.27697 0.047 0.4375-0.01-0.15962-0.033-0.29681-0.047-0.4375z" style="color:#000000;fill:#f0f;opacity:.67568"/>
    <path id="path3902" d="m1032.5 330.87c-0.01 0.16053-0.033 0.29599-0.047 0.4375 0.014-0.14069 0.039-0.27788 0.047-0.4375z" style="color:#000000;fill:#f0f;opacity:.67568"/>
    <path id="path3868" d="m1031.1 333.25c-0.1676 0.0478-0.3548 0.0941-0.5625 0.125 0.2068-0.0308 0.3956-0.0775 0.5625-0.125z" style="color:#000000;fill:#f0f;opacity:.67568"/>
    <path id="path3810" d="m1006.5 317c-9 0-10 0-10 6v9c0 6 1 6 10 6h13c9 0 10 0 10-6v-9c0-6-1-6-10-6h-13zm-2.6406 2c0.7656-8e-3 1.6406 0 2.6406 0h13c8 0 8 0 8 4v9c0 4 0 4-8 4h-13c-8 0-8 0-8-4v-9c0-3.5 0-3.9453 5.3594-4z" clip-path="url(#clipPath3895)" style="fill:#ccc;opacity:.5"/>
    <path id="path3820" d="m1030.5 321.62v11.75c1.7155-0.25071 2-1.004 2-3.2969v-5.1562c0-2.2929-0.2845-3.0462-2-3.2969z" style="fill:#ccc"/>
    <path id="path3837" transform="translate(45)" d="m961.5 317c-9 0-10 0-10 6v9c0 6 1 6 10 6h13c9 0 10 0 10-6v-9c0-6-1-6-10-6z" style="fill:#ccc"/>
    <g id="g4038">
     <path id="path4036" d="m1024.5 327.5-13.5-5.4982v5.5l-9.5-2e-3 13.5 5.5018v-5.5z" style="fill:none;opacity:.13;stroke-linejoin:round;stroke-width:2;stroke:#000"/>
     <path id="path4034" d="m1024.5 327.5-13.5-5.4982v5.5l-9.5-2e-3 13.5 5.5018v-5.5z" style="fill:none;opacity:.13;stroke-linejoin:round;stroke:#000"/>
     <path id="path3847" d="m1024.5 327.5-13.5-5.4982v5.5l-9.5-2e-3 13.5 5.5018v-5.5z" style="fill:#fff"/>
    </g>
   </g>
  </g>
 </g>
</svg>
