<?xml version="1.0" encoding="UTF-8"?>
<!-- Created with Inkscape (http://www.inkscape.org/) -->
<svg id="svg3289" width="90" height="90" version="1.1" xmlns="http://www.w3.org/2000/svg" xmlns:cc="http://creativecommons.org/ns#" xmlns:dc="http://purl.org/dc/elements/1.1/" xmlns:rdf="http://www.w3.org/1999/02/22-rdf-syntax-ns#" xmlns:xlink="http://www.w3.org/1999/xlink">
 <metadata id="metadata3294">
  <rdf:RDF>
   <cc:Work rdf:about="">
    <dc:format>image/svg+xml</dc:format>
    <dc:type rdf:resource="http://purl.org/dc/dcmitype/StillImage"/>
    <dc:title/>
   </cc:Work>
  </rdf:RDF>
 </metadata>
 <g id="layer1" transform="translate(0 -962.36)">
  <g id="g4451" transform="translate(-789 604.36)">
   <g id="g4401" transform="matrix(2,0,0,2,-1195,-252)">
    <rect id="rect4403-3" transform="scale(-1,1)" x="-1037" y="305" width="45" height="45" style="fill:none"/>
    <path id="path3804" transform="matrix(.5 0 0 .5 992 305)" d="m35 24v4h-6c-2 0-3.75-0.016-5.2812 0-10.719 0.1094-10.719 1-10.719 8v18c0 8 0 8 16 8h6v4h4v-4h16c16 0 16 0 16-8v-18c0-8 0-8-16-8h-16v-4h-4zm39.938 9.0625c0.042 0.89454 0.0625 1.8572 0.0625 2.9375v18c0 1.0803-0.0205 2.0429-0.0625 2.9375 0.66048-0.031027 1.2543-0.090584 1.7812-0.15625 0.098637-0.012291 0.18699-0.017474 0.28125-0.03125v-23.5c-0.08658-0.012658-0.19113-0.019614-0.28125-0.03125-0.52697-0.065666-1.1208-0.12522-1.7812-0.15625z" style="fill:#ccc;opacity:.25"/>
    <path id="path3810" transform="matrix(.5 0 0 .5 992 305)" d="m39 24v4h16c16 0 16 0 16 8v18c0 8 0 8-16 8h-16v4h16c18 0 20 0 20-12v-18c0-12-2-12-20-12h-16z" style="fill:#ccc;opacity:.5"/>
    <path id="path3820" d="m1030.5 321.62v11.75c1.7155-0.25071 2-1.004 2-3.2969v-5.1562c0-2.2929-0.2845-3.0462-2-3.2969z" style="fill:#ccc;opacity:.5"/>
    <path id="path3837" transform="matrix(.5 0 0 .5 992 305)" d="m29 24c-18 0-20 0-20 12v18c0 12 2 12 20 12h6v-42h-6z" style="fill:#ccc"/>
    <g id="g4038">
     <path id="path4036" d="m1024.5 327.5-13.5-5.4982v5.5l-9.5-2e-3 13.5 5.5018v-5.5z" style="fill:none;opacity:.13;stroke-linejoin:round;stroke-width:2;stroke:#000"/>
     <path id="path4034" d="m1024.5 327.5-13.5-5.4982v5.5l-9.5-2e-3 13.5 5.5018v-5.5z" style="fill:none;opacity:.13;stroke-linejoin:round;stroke:#000"/>
     <path id="path3847" d="m1024.5 327.5-13.5-5.4982v5.5l-9.5-2e-3 13.5 5.5018v-5.5z" style="fill:#fff"/>
    </g>
   </g>
  </g>
 </g>
</svg>
