<?xml version="1.0" encoding="UTF-8"?>
<!-- Created with Inkscape (http://www.inkscape.org/) -->
<svg id="svg3336" width="512.4" height="512" style="enable-background:new" version="1.1" viewBox="0 0 512.4 512" xmlns="http://www.w3.org/2000/svg" xmlns:cc="http://creativecommons.org/ns#" xmlns:dc="http://purl.org/dc/elements/1.1/" xmlns:rdf="http://www.w3.org/1999/02/22-rdf-syntax-ns#" xmlns:xlink="http://www.w3.org/1999/xlink">
 <defs id="defs3338">
  <linearGradient id="linearGradient4243">
   <stop id="stop4245" style="stop-color:#fff" offset="0"/>
   <stop id="stop4247" style="stop-color:#fff;stop-opacity:0" offset="1"/>
  </linearGradient>
  <linearGradient id="linearGradient4258" x1="374.26" x2="331.26" y1="207.36" y2="265.45" gradientUnits="userSpaceOnUse" xlink:href="#linearGradient4243"/>
  <filter id="filter4457" x="-.091171" y="-.10137" width="1.1823" height="1.2027" style="color-interpolation-filters:sRGB">
   <feGaussianBlur id="feGaussianBlur4459" stdDeviation="5.7766557"/>
  </filter>
  <linearGradient id="linearGradient4249" x1="227.81" x2="227.81" y1="171.1" y2="293.89" gradientTransform="translate(6.3685e-7 18)" gradientUnits="userSpaceOnUse" xlink:href="#linearGradient4243"/>
  <linearGradient id="linearGradient4263" x1="260.51" x2="260.51" y1="111.81" y2="293.2" gradientTransform="matrix(.94667 0 0 .94667 18.029 32.336)" gradientUnits="userSpaceOnUse">
   <stop id="stop4237" style="stop-color:#e4e9ee" offset="0"/>
   <stop id="stop4240" style="stop-color:#b6bec6" offset="1"/>
  </linearGradient>
  <linearGradient id="linearGradient4336" x1="319.91" x2="410.95" y1="192.09" y2="283.12" gradientUnits="userSpaceOnUse" spreadMethod="reflect">
   <stop id="stop4332" offset="0"/>
   <stop id="stop4334" style="stop-opacity:0" offset="1"/>
  </linearGradient>
  <filter id="filter4344" x="-.077668" y="-.12566" width="1.1553" height="1.2513" style="color-interpolation-filters:sRGB">
   <feGaussianBlur id="feGaussianBlur4346" stdDeviation="9.8378946"/>
  </filter>
  <filter id="filter4324" x="-.0097084" y="-.015708" width="1.0194" height="1.0314" style="color-interpolation-filters:sRGB">
   <feGaussianBlur id="feGaussianBlur4326" stdDeviation="1.2297368"/>
  </filter>
  <linearGradient id="linearGradient4912" x1="256" x2="256" y1="18" y2="494" gradientTransform="matrix(1 0 0 1.0756 0 -37.361)" gradientUnits="userSpaceOnUse">
   <stop id="stop7539-5-6" style="stop-color:#6b7d8f" offset="0"/>
   <stop id="stop7541-23-0" style="stop-color:#afbcc6" offset="1"/>
  </linearGradient>
 </defs>
 <metadata id="metadata3341">
  <rdf:RDF>
   <cc:Work rdf:about="">
    <dc:format>image/svg+xml</dc:format>
    <dc:type rdf:resource="http://purl.org/dc/dcmitype/StillImage"/>
    <dc:title/>
   </cc:Work>
  </rdf:RDF>
 </metadata>
 <g id="layer1" transform="translate(0,18)">
  <rect id="rect4158" y="-18" width="512" height="512" style="color:#000000;fill:url(#linearGradient4912)"/>
  <path id="path4305-3" transform="translate(0,-18)" d="m0 512 512-512v512z" style="color:#000000;fill:#fff;opacity:.05;stroke-dashoffset:1;stroke-width:2"/>
 </g>
 <g id="layer4">
  <path id="path4274" d="m293.22 126c-25.935 0.0326-50.29 12.467-65.525 33.455-5.644-1.594-11.478-2.4132-17.343-2.4351-34.824 0.0389-63.37 27.635-64.588 62.437-23.809 2.8568-41.738 23.039-41.768 47.019-8.5e-4 26.188 21.228 47.418 47.417 47.418h199.86c31.328 6.8e-4 56.725-25.396 56.724-56.724-0.018-22.422-13.242-42.729-33.742-51.813-0.94544-44.084-36.941-79.334-81.034-79.357z" style="color:#000000;filter:url(#filter4324);opacity:.1;stroke-width:12"/>
  <path id="path4306" d="m293.22 126c-25.935 0.0326-50.29 12.467-65.525 33.455-5.644-1.594-11.478-2.4132-17.343-2.4351-34.824 0.0389-63.37 27.635-64.588 62.437-23.809 2.8568-41.738 23.039-41.768 47.019-8.5e-4 26.188 21.228 47.418 47.417 47.418h199.86c31.328 6.8e-4 56.725-25.396 56.724-56.724-0.018-22.422-13.242-42.729-33.742-51.813-0.94544-44.084-36.941-79.334-81.034-79.357z" style="color:#000000;fill:url(#linearGradient4336);filter:url(#filter4344);opacity:.4;stroke-width:12"/>
  <path id="path4246" d="m293.22 124c-25.935 0.0326-50.29 12.467-65.525 33.455-5.644-1.594-11.478-2.4132-17.343-2.4351-34.824 0.0389-63.37 27.635-64.588 62.437-23.809 2.8568-41.738 23.039-41.768 47.019-8.5e-4 26.188 21.228 47.418 47.417 47.418h199.86c31.328 6.8e-4 56.725-25.396 56.724-56.724-0.018-22.422-13.242-42.729-33.742-51.813-0.94544-44.084-36.941-79.334-81.034-79.357z" style="color:#000000;fill:url(#linearGradient4263);stroke-width:12"/>
  <path id="path4265" d="m293.22 124c-25.935 0.0326-50.29 12.467-65.525 33.455-5.644-1.594-11.479-2.4137-17.344-2.4356-34.824 0.0389-63.37 27.635-64.588 62.438-23.809 2.8568-41.737 23.04-41.768 47.02-1e-5 0.32762 0.0188 0.65053 0.0254 0.97656 0.53219-23.527 18.274-43.18 41.742-45.996 1.2176-34.803 29.764-62.399 64.588-62.438 5.8647 0.0219 11.7 0.84156 17.344 2.4356 15.236-20.988 39.591-33.422 65.525-33.455 44.094 0.0235 80.088 35.274 81.033 79.357 20.154 8.9311 33.267 28.71 33.721 50.682 4e-3 -0.29036 0.0215-0.57773 0.0215-0.86914-0.018-22.422-13.243-42.728-33.742-51.812-0.94547-44.084-36.94-79.334-81.033-79.357z" style="color:#000000;fill:#fff;opacity:.3;stroke-width:12"/>
  <path id="path4238" d="m227.81 189.1c-22.996 0.0241-44.051 12.896-54.555 33.354-6.7444-3.5188-14.237-5.3631-21.844-5.377-26.184-1.9e-4 -47.41 21.226-47.41 47.41-1.8e-4 26.184 21.226 47.41 47.41 47.41h76.398c33.909 1.4e-4 61.399-27.489 61.398-61.398 1.3e-4 -33.909-27.489-61.399-61.398-61.398z" style="color:#000000;fill:url(#linearGradient4249);opacity:.3;stroke-width:12"/>
  <path id="path4247" d="m292.29 249.23c-0.34508-6e-3 -0.69124 1e-3 -1.0391 0.0195-5.006 0.2719-9.5434 3.0851-12.049 7.459l-61.252 106.87c-5.6069 9.7749 1.6342 22.417 12.842 22.422h122.5c11.208-5e-3 18.449-12.647 12.842-22.422l-61.252-106.87c-2.6114-4.5581-7.4177-7.3854-12.594-7.4785z" style="color:#000000;filter:url(#filter4457);opacity:.2;stroke-width:1.3053"/>
  <path id="path812" d="m-208.32 605.62c-7.8421 0-14.554 5.0292-17.318 12.187-0.0612-6.7e-4 -0.12078 0-0.18229 0-7.0877 0-12.833 6.0022-12.833 13.406 0 7.4041 5.7457 13.406 12.833 13.406h33.833c5.1547 0 9.3333-4.3653 9.3333-9.7501 0-4.5434-2.9741-8.3631-7-9.4452 1e-3 -0.10288 0-0.20153 0-0.30467 0-10.77-8.3574-19.5-18.667-19.5z" style="color:#000000;display:none;fill:#fff;stroke-width:4;stroke:#ccc"/>
  <path id="path4340" d="m288.87 828.08c-6.3492 0-11.783 4.0718-14.021 9.8674-0.0496-5.5e-4 -0.0978 0-0.14759 0-5.7384 0-10.39 4.8596-10.39 10.854 0 5.9946 4.6519 10.854 10.39 10.854h27.393c4.1734 0 7.5566-3.5343 7.5566-7.894 0-3.6784-2.4079-6.7711-5.6674-7.6472 1e-3 -0.0833 0-0.16316 0-0.24667 0-8.7194-6.7664-15.788-15.113-15.788z" style="color:#000000;display:none;fill:none;stroke-width:4;stroke:#ccc"/>
  <path id="path4330" d="m736.16 1098.4c-9.1783 0-17.034 5.8861-20.268 14.264-0.0716-8e-4 -0.14136 0-0.21335 0-8.2953 0-15.02 7.0249-15.02 15.69 0 8.6656 6.7246 15.69 15.02 15.69h39.598c6.0329 0 10.924-5.109 10.924-11.411 0-5.3174-3.4808-9.7881-8.1927-11.054 2e-3 -0.1205 0-0.2359 0-0.3566 0-12.605-9.7813-22.822-21.847-22.822z" style="color:#000000;display:none;fill:none;stroke-width:4;stroke:#ccc"/>
  <path id="path17" transform="matrix(6.8698 0 0 6.9198 -17.104 -61.005)" d="m43.994 45.582c-3.1944 5.1865-6.1228 10.556-9.2148 15.812-0.46107 1.1476 0.45851 2.4179 1.6962 2.2617h17.44c1.2223-0.17725 1.8653-1.6081 1.1089-2.6008-2.9067-5.0348-5.8135-10.07-8.7202-15.104-0.79174-0.74032-1.3236-0.82136-2.3105-0.36914z" style="color:#000000;fill:#df382c;stroke-width:1.3053"/>
  <g id="text4264" transform="scale(1.0001 .99986)" style="fill:#fff" aria-label="!">
   <path id="path2475" d="m298.34 309.7q0 8.1064-0.58601 14.846-0.586 6.7391-1.465 13.576h-8.3994q-0.97668-6.8368-1.5627-13.576-0.58601-6.8368-0.58601-14.846v-18.166h12.599zm1.465 43.072q0 3.4184-2.2464 5.5671-2.2464 2.1487-5.5671 2.1487-3.223 0-5.5671-2.1487-2.2464-2.1487-2.2464-5.5671t2.2464-5.5671q2.344-2.2464 5.5671-2.2464 3.3207 0 5.5671 2.2464 2.2464 2.1487 2.2464 5.5671z"/>
  </g>
  <path id="path4240" d="m291.25 247.25c-5.006 0.2719-9.5436 3.0865-12.049 7.4604l-61.251 106.87c-5.6069 9.7749 1.633 22.417 12.841 22.422h122.5c11.208-5e-3 18.448-12.647 12.841-22.422l-61.251-106.87c-2.7855-4.862-8.067-7.7548-13.632-7.4604zm0.48303 9.0282c2.2152-0.11716 4.2852 1.0111 5.3939 2.9463l61.251 106.87c2.3694 4.1308-0.34901 8.8775-5.0853 8.8795h-122.5c-4.7363-2e-3 -7.4547-4.7487-5.0853-8.8795l61.251-106.87c0.99533-1.7377 2.7879-2.8383 4.7767-2.9463z" style="color:#000000;fill:#fff;stroke-width:1.3053"/>
 </g>
</svg>
