<?xml version="1.0" encoding="UTF-8" standalone="no"?>
<!-- Generator: Adobe Illustrator 15.0.0, SVG Export Plug-In . SVG Version: 6.00 Build 0)  -->
<!DOCTYPE svg  PUBLIC '-//W3C//DTD SVG 1.1//EN'  'http://www.w3.org/Graphics/SVG/1.1/DTD/svg11.dtd'>
<svg id="Layer_1" xmlns="http://www.w3.org/2000/svg" xml:space="preserve" height="22px" viewBox="0 0 22 22" width="22px" version="1.1" y="0px" x="0px" enable-background="new 0 0 22 22">
		<path d="m11 2c-4.963 0-9 4.037-9 9 0 4.962 4.037 9 9 9 4.962 0 9-4.038 9-9 0-4.963-4.038-9-9-9zm0 16c-3.86 0-7-3.14-7-7 0-3.859 3.14-7 7-7 3.859 0 7 3.141 7 7 0 3.86-3.141 7-7 7zm4.834-10.593c-0.82-1.101-2.408-1.897-2.408-1.897l-0.399 0.318-0.52-0.382h0.52l-0.718-0.318-0.52-0.128-0.758 0.127-0.479 0.223v0.191l-0.759 0.35 0.16 0.509 0.439-0.223 0.28 0.223 0.318 0.127 0.201-0.382-0.121-0.222 0.121-0.159 0.438-0.286h0.199l-0.199 0.318v0.287c0.184-0.035 0.372-0.047 0.56-0.063l-0.301 0.606 0.312 0.53-0.131 1.122 0.199-0.063c0.197 0.145 0.353 0.315 0.519 0.478l0.599 0.031 0.359 0.159-0.159 0.159-0.359 0.223h-0.52l-0.679-0.159-0.358 0.032-0.26 0.207-0.738-0.525-0.519-0.096-0.758 0.064-0.679 0.127c-0.38 0.304-0.757 0.606-1.117 0.922l-0.439 0.733 0.199 0.159-0.359 0.382 0.399 0.668c0.339 0.27 0.679 0.541 1.018 0.812l0.499-0.302 0.219 0.175 0.539-0.239 0.18 0.144h0.539l0.31 0.247-0.19 0.438 0.381 0.302-0.021 0.524 0.28 0.383-0.2 0.318c-0.02 0.234-0.039 0.467-0.039 0.701 0.163 0.317 0.324 0.634 0.479 0.954l0.119 0.511v0.253h0.279l0.438-0.191h0.519l0.779-0.621-0.101-0.206 0.52-0.319-0.379-0.302 0.459-0.271 0.439-0.191 0.199-0.158-0.12-0.351v-0.891l0.359-0.542 0.438-0.35 0.479-0.828v-0.223c-0.392 0.035-0.763 0.064-1.157 0.064-0.254-0.377-0.445-0.753-0.639-1.146l-0.34-0.271-0.18-0.461 0.12-0.095 0.459 0.365 1.378-0.111v-0.413l0.419 0.333 0.459-0.047c0.208 0.133 0.415 0.262 0.599 0.414l0.062-0.238c-0.035-0.254-0.369-1.471-1.166-2.543z" fill="#fff"/>
</svg>
