<?xml version="1.0" encoding="UTF-8" standalone="no"?>
<!-- Created with Inkscape (http://www.inkscape.org/) -->
<svg id="svg2" xmlns:rdf="http://www.w3.org/1999/02/22-rdf-syntax-ns#" xmlns="http://www.w3.org/2000/svg" height="22" width="22" version="1.1" xmlns:cc="http://creativecommons.org/ns#" xmlns:xlink="http://www.w3.org/1999/xlink" xmlns:dc="http://purl.org/dc/elements/1.1/">
 <metadata id="metadata7">
  <rdf:RDF>
   <cc:Work rdf:about="">
    <dc:format>image/svg+xml</dc:format>
    <dc:type rdf:resource="http://purl.org/dc/dcmitype/StillImage"/>
    <dc:title/>
   </cc:Work>
  </rdf:RDF>
 </metadata>
 <g id="layer1" transform="translate(0 -1030.4)">
  <g id="g4036" transform="translate(-67.913 -42.84)">
   <rect id="rect3829" style="color:#000000;stroke:#fff;fill:none" height="11" width="11" y="1080.7" x="71.412"/>
   <path id="path3837" style="stroke-linejoin:round;color:#000000;stroke:#fff;fill:none" d="m70.913 1081.2 4.528-4.4823h11.02v10.054l-4.5482 5.4282"/>
   <path id="path3839" style="stroke-linejoin:round;color:#000000;stroke:#fff;fill:none" d="m81.913 1081.2 4.4282-4.4729"/>
   <path id="path3821" style="color:#000000;fill:#fff" d="m7 5c0 1.1046-0.8954 2-2 2s-2-0.8954-2-2 0.8954-2 2-2 2 0.8954 2 2z" transform="matrix(.75 0 0 .75 67.663 1077)"/>
   <path id="path3823" style="color:#000000;fill:#fff" d="m7 5c0 1.1046-0.8954 2-2 2s-2-0.8954-2-2 0.8954-2 2-2 2 0.8954 2 2z" transform="matrix(0.75 0 0 0.75 78.663 1077)"/>
   <path id="path3825" style="color:#000000;fill:#fff" d="m7 5c0 1.1046-0.8954 2-2 2s-2-0.8954-2-2 0.8954-2 2-2 2 0.8954 2 2z" transform="matrix(.75 0 0 .75 78.663 1088)"/>
   <path id="path3827" style="color:#000000;fill:#fff" d="m7 5c0 1.1046-0.8954 2-2 2s-2-0.8954-2-2 0.8954-2 2-2 2 0.8954 2 2z" transform="matrix(.75 0 0 .75 67.663 1088)"/>
   <path id="path3831" style="color:#000000;fill:#fff" d="m7 5c0 1.1046-0.8954 2-2 2s-2-0.8954-2-2 0.8954-2 2-2 2 0.8954 2 2z" transform="matrix(.75 0 0 .75 82.663 1073)"/>
   <path id="path3833" style="color:#000000;fill:#fff" d="m7 5c0 1.1046-0.8954 2-2 2s-2-0.8954-2-2 0.8954-2 2-2 2 0.8954 2 2z" transform="matrix(0.75 0 0 0.75 71.662 1073)"/>
   <path id="path3835" style="color:#000000;fill:#fff" d="m7 5c0 1.1046-0.8954 2-2 2s-2-0.8954-2-2 0.8954-2 2-2 2 0.8954 2 2z" transform="matrix(.75 0 0 .75 82.663 1083)"/>
  </g>
 </g>
</svg>
