<?xml version="1.0" encoding="UTF-8" standalone="no"?>
<!-- Created with Inkscape (http://www.inkscape.org/) -->
<svg id="svg2" xmlns:rdf="http://www.w3.org/1999/02/22-rdf-syntax-ns#" xmlns="http://www.w3.org/2000/svg" height="22" width="22" version="1.1" xmlns:cc="http://creativecommons.org/ns#" xmlns:dc="http://purl.org/dc/elements/1.1/">
 <metadata id="metadata7">
  <rdf:RDF>
   <cc:Work rdf:about="">
    <dc:format>image/svg+xml</dc:format>
    <dc:type rdf:resource="http://purl.org/dc/dcmitype/StillImage"/>
    <dc:title/>
   </cc:Work>
  </rdf:RDF>
 </metadata>
 <g id="layer1" transform="translate(0 -1030.4)">
  <path id="path815" style="color:#000000;fill:#fff" d="m9 5.5a3.5 3.5 0 1 1 -7 0 3.5 3.5 0 1 1 7 0z" transform="translate(-1.1571e-7 1031.4)"/>
  <path id="path817" style="color:#000000;fill:#fff" d="m9 5.5a3.5 3.5 0 1 1 -7 0 3.5 3.5 0 1 1 7 0z" transform="translate(11 1031.4)"/>
  <path id="path819" style="color:#000000;fill:#fff" d="m9 5.5a3.5 3.5 0 1 1 -7 0 3.5 3.5 0 1 1 7 0z" transform="matrix(.85715 0 0 .85715 6.2857 1031.6)"/>
  <path id="rect821" style="color:#000000;fill:#fff" d="m7 7c-0.554 0-1 0.446-1 1v7h10v-7c0-0.554-0.446-1-1-1h-8zm-1 9v2c0 0.554 0.446 1 1 1h8c0.554 0 1-0.446 1-1v-2h-10z" transform="translate(0 1030.4)"/>
 </g>
</svg>
