<?xml version="1.0" encoding="UTF-8" standalone="no"?>
<!-- Created with Inkscape (http://www.inkscape.org/) -->
<svg id="svg2" xmlns:rdf="http://www.w3.org/1999/02/22-rdf-syntax-ns#" xmlns="http://www.w3.org/2000/svg" height="24" width="24" version="1.1" xmlns:cc="http://creativecommons.org/ns#" xmlns:xlink="http://www.w3.org/1999/xlink" xmlns:dc="http://purl.org/dc/elements/1.1/">
 <metadata id="metadata7">
  <rdf:RDF>
   <cc:Work rdf:about="">
    <dc:format>image/svg+xml</dc:format>
    <dc:type rdf:resource="http://purl.org/dc/dcmitype/StillImage"/>
    <dc:title/>
   </cc:Work>
  </rdf:RDF>
 </metadata>
 <g id="layer1" transform="translate(0 -1028.4)">
  <g id="g4036" transform="translate(-67.913 -42.84)">
   <path id="path3080" style="fill:#fff" d="m77.554 1092c-2.7419-0.497-5.1063-2.0146-5.9681-3.8306-0.54456-1.1475-0.62359-1.6878-0.66537-4.5487-0.0497-3.4003 0.11907-4.5676 0.83852-5.801 0.91583-1.5701 3.2471-3.0186 5.526-3.4335 0.67531-0.123 1.8263-0.1859 2.7243-0.1859l-0.0311 13.917h2.2489l-0.009-3.6864c2.2927 3.1176 1.7499 3.7069 4.9954 3.7069v-2.0733c-1.1982 0-1.5552 0.1526-2.9351-2.6615l2.9974-4.2773h-2.5692l-2.4856 3.2818-0.0108-8.0754c1.8996 0.213 3.939 1.2128 5.133 2.5874 1.8261 2.1023 1.5545 3.9479 1.5545 5.9983 0 3.2118 0.0677 5.38-2.5255 7.3527-1.2093 0.8966-2.605 1.4693-4.2194 1.7311-1.0118 0.1641-3.6898 0.1631-4.5993 0zm-1.0516-3.8131c1.7241-0.3146 2.8024-1.1974 2.7742-2.7733-0.0401-2.2386-1.3832-2.5942-2.9142-2.8322-0.78501-0.1221-1.0277-0.1939-1.2148-0.3673-0.40399-0.3744-0.172-1.043 0.48286-1.2002 0.81405-0.1954 1.5002-0.043 2.1764 0.4046l1.1971-1.3763c-0.87109-0.802-1.8743-1.0542-2.781-1.0119-2.0526 0.096-3.4378 1.1244-3.3938 2.8425 0.055 2.1439 1.429 2.4649 2.9114 2.6967 1.1098 0.1735 1.3731 0.3286 1.3731 0.8664 0 0.3847-0.23693 0.6857-0.61322 0.7474-1.0252 0.168-1.9378 0.087-2.7575-0.5071l-1.3496 1.3496c1.2029 1.0682 2.8649 1.3881 4.109 1.1611z"/>
  </g>
 </g>
</svg>
