<?xml version="1.0" encoding="UTF-8" standalone="no"?>
<!-- Created with Inkscape (http://www.inkscape.org/) -->
<svg id="svg2" xmlns:rdf="http://www.w3.org/1999/02/22-rdf-syntax-ns#" xmlns="http://www.w3.org/2000/svg" height="24" width="24" version="1.1" xmlns:cc="http://creativecommons.org/ns#" xmlns:xlink="http://www.w3.org/1999/xlink" xmlns:dc="http://purl.org/dc/elements/1.1/">
 <metadata id="metadata7">
  <rdf:RDF>
   <cc:Work rdf:about="">
    <dc:format>image/svg+xml</dc:format>
    <dc:type rdf:resource="http://purl.org/dc/dcmitype/StillImage"/>
    <dc:title/>
   </cc:Work>
  </rdf:RDF>
 </metadata>
 <g id="layer1" transform="translate(0 -1028.4)">
  <g id="g4036" transform="translate(-67.913 -42.84)">
   <path id="path3074" style="color:#000000;fill:#fff" d="m5 3c-0.554 0-1 0.446-1 1v15c0 0.554 0.446 1 1 1h14c0.554 0 1-0.446 1-1v-15c0-0.554-0.446-1-1-1h-14zm1 2h3v3h-3v-3zm7 0h3c1.108 0 2 0.892 2 2v2h-2-1v-1h-1v1 1h1 1 0.5c0.831 0 1.5 0.669 1.5 1.5v1.5 3c0 1.108-0.892 2-2 2h-3c-1.108 0-2-0.892-2-2v-2h2 1v1h1v-1-1h-2-0.5c-0.831 0-1.5-0.669-1.5-1.5v-1.5-3c0-1.108 0.892-2 2-2zm-7 4h3v9h-3v-9z" transform="translate(67.913 1071.2)"/>
   <rect id="rect3103" style="color:#000000;fill:#fff" height="2" width="1" y="1084.2" x="81.912"/>
  </g>
 </g>
</svg>
