<?xml version="1.0" encoding="UTF-8" standalone="no"?>
<!-- Created with Inkscape (http://www.inkscape.org/) -->
<svg id="svg2" xmlns:rdf="http://www.w3.org/1999/02/22-rdf-syntax-ns#" xmlns="http://www.w3.org/2000/svg" height="24" width="24" version="1.1" xmlns:cc="http://creativecommons.org/ns#" xmlns:xlink="http://www.w3.org/1999/xlink" xmlns:dc="http://purl.org/dc/elements/1.1/">
 <metadata id="metadata7">
  <rdf:RDF>
   <cc:Work rdf:about="">
    <dc:format>image/svg+xml</dc:format>
    <dc:type rdf:resource="http://purl.org/dc/dcmitype/StillImage"/>
    <dc:title/>
   </cc:Work>
  </rdf:RDF>
 </metadata>
 <g id="layer1" transform="translate(0 -1028.4)">
  <g id="g4036" transform="translate(-67.913 -42.84)">
   <path id="path3123" style="color:#000000;fill:#fff" d="m5 4c-0.554 0-1 0.446-1 1v14c0 0.554 0.446 1 1 1h14c0.554 0 1-0.446 1-1v-14c0-0.554-0.446-1-1-1h-14zm7.156 1c0.174-0.01 0.292 0 0.375 0h0.125 3.906l-1.156 0.6875h-1.031c0.011 0.0332 0.596 0.5003 0.937 1.1875 0.184 0.3696 0.282 0.7897 0.282 1.25 0 0.213 0.041 0.4665-0.032 0.6875-0.12 0.3667-0.226 0.5813-0.343 0.75-0.392 0.5625-0.539 0.4985-1.188 1.2495-0.356 0.413-0.461 0.673-0.469 0.876-0.005 0.145 0.013 0.287 0.157 0.437 0.151 0.159 0.38 0.348 0.719 0.625 0.544 0.445 1.081 0.875 1.406 1.406 0.333 0.546 0.455 1.178 0.375 1.844-0.16 1.325-2.005 3.085-4.969 3-2.9511-0.084-3.625-1.75-3.625-1.75s-0.7112-1.302 0.5938-2.688c1.3049-1.384 4.0622-1.312 4.0622-1.312s0.12 0.019-0.031-0.156c-0.631-0.736-0.344-1.782-0.344-1.782s-0.789 0.114-1.531-0.093c-0.247-0.069-0.8438-0.438-0.8438-0.438s-1.6937-0.921-1.0312-3.2498c0.4284-1.5058 1.936-2.2394 3.031-2.4374 0.232-0.042 0.451-0.0838 0.625-0.0938zm-0.468 0.625c-0.36 0-0.594 0.125-0.594 0.125-0.397 0.2484-1.3851 0.3585-0.969 2.875 0.408 2.47 2.625 2.156 2.625 2.156s1.926-0.441 1-3.2185c-0.54-1.6186-1.463-1.9375-2.062-1.9375zm0.187 8.219c-0.881 0.077-1.336 0.243-1.813 0.562-0.2233 0.151-0.4697 0.268-0.687 0.563-0.864 1.172 0.2899 2.485 0.5 2.593 0.404 0.209 1.229 0.667 2.313 0.657 0.44 0 1.132-0.041 1.531-0.25 1.35-0.711 1.342-1.36 1.156-2.25-0.166-0.795-1.937-1.875-1.937-1.875-0.384 0.027-0.77-0.027-1.063 0z" transform="translate(67.913 1071.2)"/>
  </g>
 </g>
</svg>
