<?xml version="1.0" encoding="UTF-8" standalone="no"?>
<!-- Created with Inkscape (http://www.inkscape.org/) -->
<svg id="svg2" xmlns:rdf="http://www.w3.org/1999/02/22-rdf-syntax-ns#" xmlns="http://www.w3.org/2000/svg" height="24" width="24" version="1.1" xmlns:cc="http://creativecommons.org/ns#" xmlns:xlink="http://www.w3.org/1999/xlink" xmlns:dc="http://purl.org/dc/elements/1.1/">
 <metadata id="metadata7">
  <rdf:RDF>
   <cc:Work rdf:about="">
    <dc:format>image/svg+xml</dc:format>
    <dc:type rdf:resource="http://purl.org/dc/dcmitype/StillImage"/>
    <dc:title/>
   </cc:Work>
  </rdf:RDF>
 </metadata>
 <g id="layer1" transform="translate(0 -1028.4)">
  <g id="g4036" transform="translate(-67.913 -42.84)">
   <path id="path3074" style="color:#000000;fill:#fff" d="m5 3c-0.554 0-1 0.446-1 1v16c0 0.554 0.446 1 1 1h14c0.554 0 1-0.446 1-1v-16c0-0.554-0.446-1-1-1h-14zm4 1h2v2h-2v-2zm8 0h2v2h-2v-2zm-4 1h2v2h-2v-2zm-8 1h2v2h-2v-2zm6.062 2c0.256-0.017 0.499-0.0236 0.75 0 0.399 0 0.78 0.072 1.157 0.1562 0.917 0.01 2.02 0.0243 2.937 0.0313v0.8437c-0.491 0.014-1.167-0.0187-1.656 0.0313 0.314 0.3135 0.562 0.9095 0.656 1.4065 0.173 0.909-0.135 1.881-0.875 2.437-0.737 0.607-1.707 0.905-2.656 0.844-0.285 0.01-0.595-0.025-0.875 0-0.364 0.121-0.6718 0.216-0.6562 0.625-0.0438 0.384 0.2812 0.494 0.6252 0.563 1.055 0.022 2.415 0.035 3.469 0.093 0.585 0.092 1.215 0.221 1.624 0.688 0.699 0.703 0.638 2.334 0 3.062-0.449 0.59-1.137 0.886-1.843 1.031-0.882 0.222-2.101 0.231-3 0.157-1.632-0.134-2.719-0.636-2.719-1.719 0-0.882 0.8892-1.079 1.3125-1.312-0.4611-0.213-1-0.581-1-1.188 0-0.875 0.5068-1.44 1.2187-1.844 0.2221-0.147 0.9198-0.359 0.3126-0.5-0.9293-0.37-1.7625-1.211-1.8438-2.25-0.103-0.879 0.2855-1.7526 0.9688-2.3122 0.5682-0.5345 1.3262-0.7928 2.0932-0.8438zm0.376 0.5c-0.304 0.0451-0.608 0.2144-0.75 0.5-0.447 0.7484-0.281 1.672-0.313 2.5-0.013 0.636 0.151 1.38 0.75 1.719 0.251 0.107 0.562 0.139 0.813 0.031 0.676-0.323 0.772-1.177 0.781-1.844-0.004-0.883 0.096-1.862-0.438-2.6248-0.214-0.2416-0.54-0.3263-0.843-0.2812zm-0.126 8.625c-0.604 0.035-1.3697-0.131-1.7808 0.437-0.3504 0.496 0.0143 1.18 0.5308 1.344 1.651 0.524 4.024 0.153 4.5-0.437 0.336-0.416 0.127-1.082-0.406-1.188-0.826-0.245-1.993-0.13-2.844-0.156z" transform="translate(67.913 1071.2)"/>
  </g>
 </g>
</svg>
