<?xml version="1.0" encoding="UTF-8" standalone="no"?>
<!-- Created with Inkscape (http://www.inkscape.org/) -->
<svg id="svg2" xmlns:rdf="http://www.w3.org/1999/02/22-rdf-syntax-ns#" xmlns="http://www.w3.org/2000/svg" height="24" width="24" version="1.1" xmlns:cc="http://creativecommons.org/ns#" xmlns:xlink="http://www.w3.org/1999/xlink" xmlns:dc="http://purl.org/dc/elements/1.1/">
 <metadata id="metadata7">
  <rdf:RDF>
   <cc:Work rdf:about="">
    <dc:format>image/svg+xml</dc:format>
    <dc:type rdf:resource="http://purl.org/dc/dcmitype/StillImage"/>
    <dc:title/>
   </cc:Work>
  </rdf:RDF>
 </metadata>
 <g id="layer1" transform="translate(0 -1028.4)">
  <g id="g4036" transform="translate(-67.913 -42.84)">
   <path id="rect3068" style="color:#000000;fill:#fff" d="m12.031 2.9375c-1.114 0-2.01 0.403-2.656 1-0.6465 0.597-1.0391 1.379-1.3125 2.125-0.1208 0.3296-0.2067 0.6275-0.2813 0.9375h1.0313c0.0544-0.2022 0.1121-0.3879 0.1875-0.5938 0.2372-0.6472 0.5775-1.2708 1.062-1.7187 0.485-0.4479 1.088-0.75 1.969-0.75 0.882 0 1.492 0.3037 1.969 0.75s0.834 1.0723 1.062 1.7187c0.073 0.2046 0.106 0.3941 0.157 0.5938h1.031c-0.068-0.3046-0.137-0.6168-0.25-0.9375-0.263-0.7466-0.673-1.5265-1.312-2.125-0.64-0.5985-1.542-1-2.657-1zm4.219 4.0625c0.248 1.1138 0.25 2.0312 0.25 2.0312l0.031 0.125c0.287 0.168 0.469 0.4848 0.469 0.8438 0 0.552-0.448 1-1 1s-1-0.448-1-1c0-0.3673 0.204-0.7005 0.5-0.875v-0.125s-0.013-0.9371-0.281-2h-6.4065c-0.2879 1.0691-0.3125 2.0312-0.3125 2.0312v0.125c0.3039 0.164 0.5 0.4721 0.5 0.8438 0 0.552-0.4477 1-1 1s-1-0.448-1-1c0-0.3658 0.2063-0.7 0.5-0.875v-0.125s0.0185-0.9069 0.2812-2h-1.7812-2c-0.554 0-1 0.446-1 1v11c0 0.554 0.446 1 1 1h16c0.554 0 1-0.446 1-1v-11c0-0.554-0.446-1-1-1h-2-1.75z" transform="translate(67.913 1071.2)"/>
  </g>
 </g>
</svg>
