<?xml version="1.0" encoding="UTF-8" standalone="no"?>
<!-- Created with Inkscape (http://www.inkscape.org/) -->
<svg id="svg2" xmlns:rdf="http://www.w3.org/1999/02/22-rdf-syntax-ns#" xmlns="http://www.w3.org/2000/svg" height="24" width="24" version="1.1" xmlns:cc="http://creativecommons.org/ns#" xmlns:xlink="http://www.w3.org/1999/xlink" xmlns:dc="http://purl.org/dc/elements/1.1/">
 <metadata id="metadata7">
  <rdf:RDF>
   <cc:Work rdf:about="">
    <dc:format>image/svg+xml</dc:format>
    <dc:type rdf:resource="http://purl.org/dc/dcmitype/StillImage"/>
    <dc:title/>
   </cc:Work>
  </rdf:RDF>
 </metadata>
 <g id="layer1" transform="translate(0 -1028.4)">
  <path id="path908" style="color:#000000;fill:#fff" d="m12 1031.4c-1.7354 0-3.3549 0.4924-4.7294 1.3434-0.07965 0.3711-0.10237 0.7393-0.055462 1.0768 0.14506 1.0447 0.78473 2.0828 1.8059 2.9384 0.47598 0.3988 1.0291 0.766 1.5025 0.9954l0.39597 0.1925-0.12582 0.052c-0.35975 0.1505-1.2692 0.2167-1.7874 0.1296-1.0251-0.1727-2.3077-0.9011-3.1641-1.7949-0.4548-0.4747-0.68276-0.8379-0.86966-1.3878-0.013162-0.038-0.02565-0.081-0.037013-0.122-1.2123 1.5333-1.9354 3.4703-1.9354 5.5768 0 4.9706 4.0294 9 9 9 1.7039 0 3.2971-0.4726 4.6554-1.2952 0.03667-0.1657 0.04275-0.3177 0.04444-0.6957 0.0034-0.7047-0.06109-0.9887-0.35896-1.5913-0.53451-1.0814-1.7042-2.1659-3.016-2.7941-0.30921-0.148-0.33363-0.167-0.27385-0.2109 0.1008-0.074 0.6623-0.1928 1.0214-0.2182 1.0151-0.072 2.2083 0.3533 3.3084 1.1804 0.89363 0.6719 1.4521 1.406 1.6764 2.2056 1.2151-1.5343 1.9428-3.4714 1.9428-5.5806 0-5-4.03-9-9-9zm-1.3618 3.1678c0.2703 0 0.54666 0.026 0.72533 0.063 0.90136 0.189 1.8304 0.6667 2.6756 1.3767 1.1476 0.9641 1.6584 2.1956 1.384 3.3417-0.08393 0.3503-0.18623 0.5646-0.41077 0.8622-0.40464 0.5362-1.1151 0.9284-2.0243 1.1212-0.24471 0.052-0.5292 0.07-0.5292 0.034 0-0.011 0.08752-0.2023 0.19614-0.4256 0.22786-0.4686 0.34029-0.8466 0.38116-1.2879 0.12851-1.3875-0.64497-2.7767-2.1871-3.9301-0.38336-0.2866-0.88284-0.586-1.2693-0.7623-0.15469-0.071-0.2625-0.1386-0.24424-0.1554 0.04286-0.039 0.33839-0.1344 0.6106-0.1924 0.1571-0.1 0.4221-0.1 0.6921-0.1zm0.80305 4.8367c0.01946 0.0007 0.03038 0 0.03701 0.011 0.01946 0.012-0.04039 0.1708-0.13692 0.3589-0.77202 1.5045-0.51343 2.9908 0.76603 4.4149 0.5015 0.5582 1.3724 1.2066 2.102 1.5654 0.21864 0.108 0.40454 0.2116 0.41077 0.2294 0.01417 0.041-0.3949 0.1701-0.69202 0.2184-0.30844 0.051-0.96246 0.037-1.2915-0.023-0.57421-0.1047-1.3243-0.4147-1.9243-0.7995-1.193-0.7649-1.9451-1.6877-2.1797-2.6754-0.071775-0.3023-0.081675-0.8946-0.01845-1.188 0.19981-0.9275 0.93658-1.6218 2.0687-1.9502 0.299-0.2 0.722-0.2 0.858-0.2z"/>
 </g>
</svg>
