<?xml version="1.0" encoding="UTF-8" standalone="no"?>
<!-- Created with Inkscape (http://www.inkscape.org/) -->
<svg id="svg2" xmlns:rdf="http://www.w3.org/1999/02/22-rdf-syntax-ns#" xmlns="http://www.w3.org/2000/svg" height="24" width="24" version="1.1" xmlns:cc="http://creativecommons.org/ns#" xmlns:xlink="http://www.w3.org/1999/xlink" xmlns:dc="http://purl.org/dc/elements/1.1/">
 <metadata id="metadata7">
  <rdf:RDF>
   <cc:Work rdf:about="">
    <dc:format>image/svg+xml</dc:format>
    <dc:type rdf:resource="http://purl.org/dc/dcmitype/StillImage"/>
    <dc:title/>
   </cc:Work>
  </rdf:RDF>
 </metadata>
 <g id="layer1" transform="translate(0 -1028.4)">
  <path id="path2998" style="color:#000000;fill:#fff" d="m5 4c-0.554 0-1 0.446-1 1v14c0 0.554 0.446 1 1 1h14c0.554 0 1-0.446 1-1v-14c0-0.554-0.446-1-1-1h-14zm-0.0312 3h3.6874 0.3126 3.3432 0.344 2.688v0.25c-0.346 0.062-0.635 0.1852-0.813 0.3438-0.254 0.2354-0.459 0.6083-0.656 1.0937l-1.031 2.5005 1.562 3.593 2.313-5.6872c0.226-0.5576 0.343-0.9088 0.343-1.125 0-0.01 0.001-0.0516 0-0.0626-0.001-0.013-0.028-0.0182-0.031-0.0312-0.004-0.017 0.006-0.0455 0-0.0625-0.005-0.012-0.025-0.0505-0.031-0.0625-0.007-0.012-0.024-0.0182-0.031-0.0312-0.008-0.013-0.022-0.0506-0.031-0.0626-0.007-0.01-0.025-0.0202-0.032-0.0312-0.018-0.021-0.04-0.0435-0.062-0.0625-0.14-0.1298-0.387-0.2283-0.719-0.2813-0.024 0-0.067-0.0202-0.125-0.0312v-0.25h3.031v0.25c-0.346 0.063-0.603 0.1852-0.781 0.3438-0.255 0.2354-0.49 0.6084-0.688 1.0937l-3.406 8.3125h-0.281l-1.75-4.062-1.656 4.062h-0.281l-3.6568-8.4375c-0.1757-0.4055-0.2964-0.6715-0.375-0.7813h-0.0312c-0.1201-0.1488-0.2597-0.2617-0.4375-0.3437-0.173-0.087-0.4208-0.1635-0.7187-0.1875v-0.25zm3.8124 0.2812c-0.3393 0.045-0.5739 0.1258-0.6874 0.2188-0.0463 0.039-0.0947 0.08-0.125 0.125-0.0106 0.017-0.0229 0.0445-0.0313 0.0625-0.0099 0.023-0.0247 0.0697-0.0313 0.0937-0.0106 0.044-0.0312 0.1073-0.0312 0.1563 0 0.2403 0.1227 0.5843 0.3438 1.0937l2.5002 5.7498 1.062-2.625-1.562-3.5935c-0.176-0.4055-0.2967-0.6715-0.3752-0.7813h-0.0313c-0.1201-0.1488-0.2597-0.2617-0.4375-0.3437-0.1265-0.063-0.2754-0.1263-0.4688-0.1563h-0.0312-0.0312-0.0626zm3.6568 0c-0.327 0.045-0.546 0.1278-0.657 0.2188-0.046 0.039-0.094 0.08-0.125 0.125-0.01 0.017-0.023 0.0445-0.031 0.0625-0.01 0.023-0.025 0.0697-0.031 0.0937-0.011 0.044 0 0.1073 0 0.1563 0 0.2404 0.091 0.5843 0.312 1.0937l0.594 1.3748 0.5-1.3122c0.226-0.5574 0.344-0.9088 0.344-1.125v-0.0313c-0.001-0.013 0.002-0.0505 0-0.0625-0.004-0.017-0.026-0.0455-0.032-0.0625-0.004-0.012 0.007-0.0505 0-0.0625-0.006-0.012-0.023-0.0182-0.031-0.0312s-0.022-0.0496-0.031-0.0626c-0.007-0.01-0.024-0.0202-0.031-0.0312-0.019-0.021-0.041-0.0435-0.063-0.0625-0.137-0.1282-0.393-0.2283-0.718-0.2813z" transform="translate(0 1028.4)"/>
 </g>
</svg>
