<?xml version="1.0" encoding="UTF-8" standalone="no"?>
<!-- Created with Inkscape (http://www.inkscape.org/) -->
<svg id="svg2" xmlns:rdf="http://www.w3.org/1999/02/22-rdf-syntax-ns#" xmlns="http://www.w3.org/2000/svg" height="24" width="24" version="1.1" xmlns:cc="http://creativecommons.org/ns#" xmlns:xlink="http://www.w3.org/1999/xlink" xmlns:dc="http://purl.org/dc/elements/1.1/">
 <metadata id="metadata7">
  <rdf:RDF>
   <cc:Work rdf:about="">
    <dc:format>image/svg+xml</dc:format>
    <dc:type rdf:resource="http://purl.org/dc/dcmitype/StillImage"/>
    <dc:title/>
   </cc:Work>
  </rdf:RDF>
 </metadata>
 <g id="layer1" transform="translate(0 -1028.4)">
  <g id="g4036" transform="translate(-67.913 -42.84)">
   <path id="ellipse3860" style="fill:#fff" d="m79.913 1077.2c-4.9706 0-9 2.6863-9 6 0 3.3138 4.0294 6 9 6s9-2.6862 9-6c0-3.3137-4.0294-6-9-6zm-1 1.9125h1.1562l-0.25 1.5375h1.125c0.9863 0.074 1.342 0.6853 1.2188 1.4251l-0.4375 3.0374h-1.2188l0.4375-2.7374c0.06164-0.37 0.0565-0.6-0.375-0.6h-0.9375l-0.53125 3.3374h-1.1875l1-6zm-4.875 1.5375h2.2812c0.9863 0.074 1.4688 0.6895 1.4688 1.7251 0 1.7752-1.1708 2.8115-2.2188 2.7374h-1.125l-0.21875 1.5375h-1.1875l1-6zm8.9375 0h2.2812c0.9863 0.074 1.5 0.6895 1.5 1.7251 0 1.7752-1.1708 2.8115-2.2188 2.7374h-1.125l-0.25 1.5375h-1.1562l0.96875-6zm-7.9688 1.1251-0.3125 2.2124h0.75c0.55479-0.074 1.0634-0.2799 1.125-1.5375 0-0.4438-0.31849-0.6749-0.75-0.6749h-0.8125zm8.9688 0-0.3125 2.2124h0.75c0.55479-0.074 1.0321-0.2799 1.0938-1.5375 0-0.4438-0.28724-0.6749-0.71875-0.6749h-0.8125z"/>
  </g>
 </g>
</svg>
