<?xml version="1.0" encoding="UTF-8" standalone="no"?>
<!-- Created with Inkscape (http://www.inkscape.org/) -->
<svg id="svg2" xmlns:rdf="http://www.w3.org/1999/02/22-rdf-syntax-ns#" xmlns="http://www.w3.org/2000/svg" height="24" width="24" version="1.1" xmlns:cc="http://creativecommons.org/ns#" xmlns:xlink="http://www.w3.org/1999/xlink" xmlns:dc="http://purl.org/dc/elements/1.1/">
 <metadata id="metadata7">
  <rdf:RDF>
   <cc:Work rdf:about="">
    <dc:format>image/svg+xml</dc:format>
    <dc:type rdf:resource="http://purl.org/dc/dcmitype/StillImage"/>
    <dc:title/>
   </cc:Work>
  </rdf:RDF>
 </metadata>
 <g id="layer1" transform="translate(0 -1028.4)">
  <g id="g4036" transform="translate(-67.913 -42.84)">
   <path id="path3081" style="color:#000000;fill:#fff" d="m12 3l-1.625 3.25c0.518-0.146 1.06-0.25 1.625-0.25s1.107 0.104 1.625 0.25l-1.625-3.25zm-6.375 2.625l1.125 3.4375c0.5427-0.9713 1.3412-1.7698 2.3125-2.3125l-3.4375-1.125zm12.75 0l-3.437 1.125c0.971 0.5427 1.769 1.3412 2.312 2.3125l1.125-3.4375zm-6.375 1.375c-2.7614 0-5 2.2386-5 5 0 2.761 2.2386 5 5 5 2.761 0 5-2.239 5-5 0-2.7614-2.239-5-5-5zm-5.75 3.375l-3.25 1.625 3.25 1.625c-0.146-0.518-0.25-1.06-0.25-1.625s0.104-1.107 0.25-1.625zm11.5 0c0.146 0.518 0.25 1.06 0.25 1.625s-0.104 1.107-0.25 1.625l3.25-1.625-3.25-1.625zm-11 4.563l-1.125 3.437 3.4375-1.125c-0.9713-0.543-1.7698-1.341-2.3125-2.312zm10.5 0c-0.543 0.971-1.341 1.769-2.312 2.312l3.437 1.125-1.125-3.437zm-6.875 2.812l1.625 3.25 1.625-3.25c-0.518 0.146-1.06 0.25-1.625 0.25s-1.107-0.104-1.625-0.25z" transform="translate(67.913 1071.2)"/>
  </g>
 </g>
</svg>
