<?xml version="1.0" encoding="UTF-8" standalone="no"?>
<!-- Created with Inkscape (http://www.inkscape.org/) -->
<svg id="svg2" xmlns:rdf="http://www.w3.org/1999/02/22-rdf-syntax-ns#" xmlns="http://www.w3.org/2000/svg" height="24" width="24" version="1.1" xmlns:cc="http://creativecommons.org/ns#" xmlns:dc="http://purl.org/dc/elements/1.1/">
 <metadata id="metadata7">
  <rdf:RDF>
   <cc:Work rdf:about="">
    <dc:format>image/svg+xml</dc:format>
    <dc:type rdf:resource="http://purl.org/dc/dcmitype/StillImage"/>
    <dc:title/>
   </cc:Work>
  </rdf:RDF>
 </metadata>
 <g id="layer1" transform="translate(0 -1028.4)">
  <path id="path3086" style="block-progression:tb;text-indent:0;color:#000000;text-transform:none;fill:#fff" d="m12 1031.4c-4.9614 0-9 4.0387-9 9s4.0386 9 9 9 9-4.0387 9-9-4.0386-9-9-9zm0 1.5556c1.8456 0 3.533 0.6697 4.8333 1.7777-0.84818 1.0251-2.0741 1.9467-3.8333 2.6389-0.80636-1.4859-1.7052-2.8665-2.6667-4.2222 0.53774-0.123 1.0912-0.1944 1.6667-0.1944zm-3.1667 0.7222c0.98642 1.3671 1.8846 2.7322 2.6944 4.1944-1.7804 0.4954-4.0082 0.7816-6.7778 0.8334 0.52004-2.2367 2.0535-4.0696 4.0833-5.0278zm9.0833 2.2222c0.91281 1.2016 1.4854 2.6877 1.5278 4.3056-0.60763-0.1125-1.267-0.2194-2-0.2778-0.96444-0.077-2.0319-0.061-3.1389 0.1111-0.19063-0.4408-0.37928-0.8846-0.58333-1.3056 1.8287-0.7405 3.2029-1.6962 4.1944-2.8333zm-5.667 3.3c0.17902 0.3638 0.35969 0.7321 0.52778 1.1111-2.1913 0.6641-4.4431 2.1372-6.4444 4.8611-1.108-1.3003-1.7778-2.9877-1.7778-4.8333 0-0.048-0.000886-0.091 0-0.1389 3.1055-0.046 5.6438-0.3886 7.6944-1zm3.4444 2.1945c1.3444-0.066 2.5712 0.1268 3.6389 0.3333-0.35965 1.9074-1.459 3.5451-2.9722 4.6389-0.40264-1.7807-0.88641-3.4046-1.4444-4.8889 0.25798-0.031 0.52515-0.071 0.77778-0.083zm-2.3056 0.3611c0.61818 1.6109 1.1279 3.408 1.5556 5.4166-0.90673 0.3919-1.8925 0.6111-2.9444 0.6111-1.703 0-3.274-0.5693-4.5278-1.5277 1.9029-2.6669 3.9376-3.9484 5.9167-4.5z"/>
 </g>
</svg>
