<?xml version="1.0" encoding="UTF-8"?>
<!-- Created with Inkscape (http://www.inkscape.org/) -->
<svg id="svg4479" width="90" height="90" version="1.1" viewBox="0 0 90 90" xmlns="http://www.w3.org/2000/svg" xmlns:cc="http://creativecommons.org/ns#" xmlns:dc="http://purl.org/dc/elements/1.1/" xmlns:rdf="http://www.w3.org/1999/02/22-rdf-syntax-ns#">
 <metadata id="metadata4484">
  <rdf:RDF>
   <cc:Work rdf:about="">
    <dc:format>image/svg+xml</dc:format>
    <dc:type rdf:resource="http://purl.org/dc/dcmitype/StillImage"/>
    <dc:title/>
   </cc:Work>
  </rdf:RDF>
 </metadata>
 <g id="layer1" transform="translate(833.57 -695.93)">
  <g id="g4496" transform="translate(-863.57 -110.43)">
   <g id="g4577" transform="translate(-30 504)">
    <rect id="rect4503" x="60" y="302.36" width="90" height="90" style="color:#000000;fill:none;opacity:.1"/>
    <path id="path4562" d="m105 326.36c-11.562 0-21 9.4376-21 21 0 11.562 9.4376 21 21 21 11.562 0 21-9.4376 21-21 0-11.562-9.4376-21-21-21zm0 6c8.3198 0 15 6.6802 15 15 0 8.3198-6.6802 15-15 15-8.3198 0-15-6.6802-15-15 0-8.3198 6.6802-15 15-15z" style="block-progression:tb;color-rendering:auto;color:#000000;fill:#808080;image-rendering:auto;isolation:auto;mix-blend-mode:normal;shape-rendering:auto;text-indent:0;text-transform:none"/>
    <path id="circle4564" d="m105 329.36a18 18 0 0 1 18 18 18 18 0 0 1-18 18" style="color:#000000;fill:#808080"/>
    <path id="rect4566" d="m64 344.36v6h14v-6h-14zm68 0v6h14v-6h-14z" style="color:#000000;fill:#808080"/>
    <path id="path4571" d="m108 305.36-6 1.5v13.5h6zm0 69h-6v14h6z" style="color:#000000;fill:#808080"/>
    <path id="path4121" d="m73.887 374.23 4.2427 4.2427 9.8995-9.8995-4.2427-4.2426-9.8995 9.8995zm48.083-48.083 4.2426 4.2426 9.8995-9.8995-4.2427-4.2427-9.8995 9.8995z" style="color:#000000;fill:#808080"/>
    <path id="path4123" d="m78.13 316.25-4.2427 4.2427 9.8995 9.8995 4.2426-4.2426-9.8995-9.8995zm48.083 48.083-4.2426 4.2426 9.8995 9.8995 4.2427-4.2427-9.8995-9.8995z" style="color:#000000;fill:#808080"/>
   </g>
  </g>
 </g>
</svg>
