<?xml version="1.0" encoding="UTF-8"?>
<!-- Created with Inkscape (http://www.inkscape.org/) -->
<svg id="svg3289" width="90" height="90" version="1.1" xmlns="http://www.w3.org/2000/svg" xmlns:cc="http://creativecommons.org/ns#" xmlns:dc="http://purl.org/dc/elements/1.1/" xmlns:rdf="http://www.w3.org/1999/02/22-rdf-syntax-ns#" xmlns:xlink="http://www.w3.org/1999/xlink">
 <metadata id="metadata3294">
  <rdf:RDF>
   <cc:Work rdf:about="">
    <dc:format>image/svg+xml</dc:format>
    <dc:type rdf:resource="http://purl.org/dc/dcmitype/StillImage"/>
    <dc:title/>
   </cc:Work>
  </rdf:RDF>
 </metadata>
 <g id="layer1" transform="translate(0 -962.36)">
  <g id="g4451" transform="translate(-789 604.36)">
   <g id="g4507" transform="matrix(2 0 0 2 397 3.2756)">
    <rect id="rect4509" x="196" y="177.36" width="45" height="45" style="fill:none"/>
    <path id="path4202" d="m205.75 204.36c-2.25 0-2.25 0.93752-2.25 2.8125v3.375c0 1.875 0 2.8125 2.25 2.8125s2.25-0.9375 2.25-2.8125v-3.375c0-1.875 0-2.8125-2.25-2.8125z" style="fill:#ccc;opacity:.5"/>
    <path id="path3843" d="m214.25 198.36c-2.25 0-2.25 0.93752-2.25 2.8125v9.375c0 1.875 0 2.8125 2.25 2.8125s2.25-0.9375 2.25-2.8125v-9.375c0-1.875 0-2.8125-2.25-2.8125z" style="fill:#ccc;opacity:.5"/>
    <path id="path3849" d="m222.75 192.36c-2.25 0-2.25 0.93752-2.25 2.8125v15.375c0 1.875 0 2.8125 2.25 2.8125s2.25-0.9375 2.25-2.8125v-15.375c0-1.875 0-2.8125-2.25-2.8125z" style="fill:#ccc;opacity:.5"/>
    <path id="path3853" d="m231.25 186.36c-2.25 0-2.25 0.93752-2.25 2.8125v21.375c0 1.875 0 2.8125 2.25 2.8125s2.25-0.9375 2.25-2.8125v-21.375c0-1.875 0-2.8125-2.25-2.8125z" style="fill:#ccc;opacity:.5"/>
   </g>
  </g>
 </g>
</svg>
