<?xml version="1.0" encoding="UTF-8"?>
<!-- Created with Inkscape (http://www.inkscape.org/) -->
<svg id="svg3289" width="90" height="90" version="1.1" xmlns="http://www.w3.org/2000/svg" xmlns:cc="http://creativecommons.org/ns#" xmlns:dc="http://purl.org/dc/elements/1.1/" xmlns:rdf="http://www.w3.org/1999/02/22-rdf-syntax-ns#" xmlns:xlink="http://www.w3.org/1999/xlink">
 <metadata id="metadata3294">
  <rdf:RDF>
   <cc:Work rdf:about="">
    <dc:format>image/svg+xml</dc:format>
    <dc:type rdf:resource="http://purl.org/dc/dcmitype/StillImage"/>
    <dc:title/>
   </cc:Work>
  </rdf:RDF>
 </metadata>
 <g id="layer1" transform="translate(0 -962.36)">
  <g id="g4451" transform="translate(-789 604.36)">
   <rect id="rect3332" x="789" y="358" width="90" height="90" style="fill:none"/>
   <path id="path3011" d="m824 382c-13.473 0-17.99-1e-3 -19.406 5.0312l26.375 24.312c2.0986 1.6744 4.1934 1.8549 6.375 0l26.094-24.062c-1.3436-5.264-5.7607-5.2812-19.438-5.2812h-20zm-19.969 9.9688c-0.01726 0.63382-0.03125 1.3143-0.03125 2.0312v18c0 12 2 12 20 12h20c18 0 20 0 20-12v-18c0-0.60665-0.0192-1.1719-0.0312-1.7188l-13.813 12.719 12.688 14.656-15.094-12.438-7.6562 7.0312-0.0625 0.0312c-1.6834 1.6616-3.6849 3.0363-5.8125 3.0312-2.1459-4e-3 -4.1698-1.3777-5.9375-3.0312l-7.6875-7.0625-15.094 12.438 12.656-14.656-14.125-13.031z" style="fill:#ccc;opacity:.5"/>
   <path id="path3851" transform="translate(789,358)" d="m15.188 31.688c-0.068696 0.69932-0.13337 1.4412-0.15625 2.2812l14.125 13.031-12.656 14.656 15.094-12.438 7.6875 7.0625c1.7677 1.6535 3.7916 3.0272 5.9375 3.0312 0.26594 6.3e-4 0.51962-0.0222 0.78125-0.0625 1.3082-0.20177 2.5747-0.8751 3.7188-1.7812 0.45761-0.36246 0.89166-0.77209 1.3125-1.1875l0.0625-0.03125 7.6562-7.0312 15.094 12.438-12.688-14.656 13.812-12.719c-0.0189-0.85695-0.0637-1.6273-0.125-2.3438l-0.40625 0.34375-16.906 15.594-7.5938 7-0.59375 0.5625c-2.7847 2.4648-5.9752 2.4021-8.3438 0l-25.406-23.406-0.40625-0.34375z" style="color:#000000;fill:#ccc;opacity:.25"/>
  </g>
 </g>
 <g id="layer3" style="display:none">
  <path id="path3011-1" transform="matrix(2 0 0 2 -392 -354.72)" d="m213.5 189.36c-9 0-10 0-10 6v9c0 6 1 6 10 6h10c9 0 10 0 10-6v-9c0-6-1-6-10-6z" style="display:inline;fill:#f0f;opacity:.5"/>
  <path id="path3804-0" d="m5.5 19v52h79v-52zm7.0312 7.1875 29.438 27.156c2.0986 1.6744 4.1933 1.8549 6.3749 0l29.469-27.156 2.7188 2.9688-19.375 17.844 12.688 14.656-15.094-12.438-7.6562 7.0312-0.0624 0.0312c-1.6834 1.6616-3.6849 3.0363-5.8125 3.0313-2.1459-4e-3 -4.1698-1.3777-5.9375-3.0313l-7.6875-7.0625-15.094 12.438 12.656-14.656-19.344-17.844z" style="color:#000000;display:inline;fill:#00f"/>
 </g>
</svg>
