<?xml version="1.0" encoding="UTF-8"?>
<!-- Created with Inkscape (http://www.inkscape.org/) -->
<svg id="svg3289" width="90" height="90" version="1.1" xmlns="http://www.w3.org/2000/svg" xmlns:cc="http://creativecommons.org/ns#" xmlns:dc="http://purl.org/dc/elements/1.1/" xmlns:rdf="http://www.w3.org/1999/02/22-rdf-syntax-ns#" xmlns:xlink="http://www.w3.org/1999/xlink">
 <metadata id="metadata3294">
  <rdf:RDF>
   <cc:Work rdf:about="">
    <dc:format>image/svg+xml</dc:format>
    <dc:type rdf:resource="http://purl.org/dc/dcmitype/StillImage"/>
    <dc:title/>
   </cc:Work>
  </rdf:RDF>
 </metadata>
 <g id="layer1" transform="translate(0 -962.36)">
  <g id="g4451" transform="translate(-789 604.36)">
   <g id="g4507" transform="matrix(2 0 0 2 397 3.2756)">
    <rect id="rect4509" x="196" y="177.36" width="45" height="45" style="fill:none"/>
    <path id="rect3045" transform="matrix(.5 0 0 .5 196 177.36)" d="m51 24c-6.0787 0-11.3 3.6143-13.656 8.8125-1.3744-1.7158-3.4743-2.8125-5.8438-2.8125-4.1421 0-7.5 3.3579-7.5 7.5 0 0.47216 0.041548 0.92703 0.125 1.375-5.3304 1.9532-9.125 7.0389-9.125 13.062v0.125c0 7.7193 6.2182 13.938 13.938 13.938h32.125c7.7193 0 13.938-6.2182 13.938-13.938v-0.125c0-5.9783-3.7329-11.046-9-13.031-0.05104-8.2406-6.7474-14.906-15-14.906z" style="color:#000000;fill:#ccc;opacity:.5"/>
   </g>
  </g>
 </g>
</svg>
