<?xml version="1.0" encoding="UTF-8"?>
<!-- Created with Inkscape (http://www.inkscape.org/) -->
<svg id="svg3289" width="90" height="90" version="1.1" xmlns="http://www.w3.org/2000/svg" xmlns:cc="http://creativecommons.org/ns#" xmlns:dc="http://purl.org/dc/elements/1.1/" xmlns:rdf="http://www.w3.org/1999/02/22-rdf-syntax-ns#" xmlns:xlink="http://www.w3.org/1999/xlink">
 <defs id="defs3291">
  <clipPath id="clipPath3076-4">
   <rect id="rect3078-0" x="951.5" y="312" width="6.5" height="32.5" style="color:#000000;fill:#f0f;opacity:.5"/>
  </clipPath>
  <clipPath id="clipPath3158-7">
   <rect id="rect3160-4" x="1005" y="314" width="25.5" height="27" style="color:#000000;fill:#f0f;opacity:.67568"/>
  </clipPath>
  <clipPath id="clipPath2071-6">
   <path id="path2073-3" d="m1003 292v2.0156c-4.4397 0.10526-4.5 0.69727-4.5 3.9844v9c0 3.2834 0.0752 3.8634 4.5 3.9688v2.0312h2v-2c0.4902 1e-3 0.932 0 1.5 0h13c8 0 8 0 8-4v-9c0-4 0-4-8-4h-13c-0.568 0-1.0098 7.6e-4 -1.5 0v-2h-2zm26.469 4.5312c0.021 0.44727 0.031 0.9286 0.031 1.4688v9c0 0.54015-0.01 1.0215-0.031 1.4688 0.392-0.0184 0.7323-0.0501 1.0312-0.0937v-11.75c-0.2989-0.04375-0.6392-0.0754-1.0312-0.0938z" style="color:#000000;fill:#f0f;opacity:.67568"/>
  </clipPath>
 </defs>
 <metadata id="metadata3294">
  <rdf:RDF>
   <cc:Work rdf:about="">
    <dc:format>image/svg+xml</dc:format>
    <dc:type rdf:resource="http://purl.org/dc/dcmitype/StillImage"/>
    <dc:title/>
   </cc:Work>
  </rdf:RDF>
 </metadata>
 <g id="layer1" transform="translate(0 -962.36)">
  <g id="g4451" transform="translate(-789 604.36)">
   <g id="g4401" transform="matrix(2,0,0,2,-1195,-252)">
    <rect id="rect4403-3" transform="scale(-1,1)" x="-1037" y="305" width="45" height="45" style="fill:none"/>
    <path id="path3804" transform="matrix(.5 0 0 .5 992 305)" d="m26 24c-1.3984 0.004038-2.8217 0.03924-4 0.0625v3.9688c-8.8794 0.21052-9 1.3945-9 7.9688v18c0 6.5669 0.1504 7.7268 9 7.9375v4c1.1783 0.02326 2.6016 0.058462 4 0.0625v-4c0.9804 2e-3 1.864 0 3 0h26c16 0 16 0 16-8v-18c0-8 0-8-16-8h-26c-1.136 0-2.0196 0.00152-3 0v-4zm48.938 9.0625c0.042 0.89454 0.0625 1.8572 0.0625 2.9375v18c0 1.0803-0.0205 2.0429-0.0625 2.9375 0.66048-0.031027 1.2543-0.090584 1.7812-0.15625 0.098637-0.012291 0.18699-0.017474 0.28125-0.03125v-23.5c-0.08658-0.012673-0.19113-0.0196-0.28125-0.03125-0.52697-0.065666-1.1208-0.12522-1.7812-0.15625z" style="fill:#ccc;opacity:.25"/>
    <path id="path3810" transform="matrix(.5 0 0 .5 992 305)" d="m26 24v4c0.98048 0.001527 1.8639 0 3 0h26c16 0 16 0 16 8v18c0 8 0 8-16 8h-26c-1.1361 0-2.0195 0.002864-3 0v4c0.9988 0.002884 1.8809 0 3 0h26c18 0 20 0 20-12v-18c0-12-2-12-20-12h-26c-1.1191 0-2.0012-0.002884-3 0z" style="fill:#ccc;opacity:.5"/>
    <path id="path3820" d="m1030.5 321.62v11.75c1.7155-0.25071 2-1.004 2-3.2969v-5.1562c0-2.2929-0.2845-3.0462-2-3.2969z" style="fill:#ccc;opacity:.5"/>
    <path id="path3837" transform="matrix(.5 0 0 .5 992 305)" d="m22 24.062c-11.517 0.22734-13 1.7282-13 11.938v18c0 10.209 1.4834 11.71 13 11.938v-41.875z" style="fill:#df382c"/>
    <g id="g4038">
     <path id="path4036" d="m1024.5 327.5-13.5-5.4982v5.5l-9.5-2e-3 13.5 5.5018v-5.5z" style="fill:none;opacity:.13;stroke-linejoin:round;stroke-width:2;stroke:#000"/>
     <path id="path4034" d="m1024.5 327.5-13.5-5.4982v5.5l-9.5-2e-3 13.5 5.5018v-5.5z" style="fill:none;opacity:.13;stroke-linejoin:round;stroke:#000"/>
     <path id="path3847" d="m1024.5 327.5-13.5-5.4982v5.5l-9.5-2e-3 13.5 5.5018v-5.5z" style="fill:#fff"/>
    </g>
   </g>
  </g>
 </g>
 <g id="layer2" style="display:none">
  <path id="path3804-0" transform="matrix(2,0,0,2,-1984,-560)" d="m1029.5 296.53c0.021 0.44727 0.031 0.9286 0.031 1.4688v9c0 0.54015-0.01 1.0215-0.031 1.4688 2.6419-0.12411 3.0312-0.69816 3.0312-3.3906v-5.1562c0-2.6925-0.3893-3.2665-3.0312-3.3906zm-22.969-4.5312c-9 0-10 0-10 6v9c0 6 1 6 10 6h13c9 0 10 0 10-6v-9c0-6-1-6-10-6z" clip-path="url(#clipPath2071-6)" style="display:inline;fill:#ccc;opacity:.25"/>
  <path id="path3810-0" transform="matrix(2,0,0,2,-1984,-610)" d="m1006.5 317c-9 0-10 0-10 6v9c0 6 1 6 10 6h13c9 0 10 0 10-6v-9c0-6-1-6-10-6h-13zm-2.6406 2c0.7656-8e-3 1.6406 0 2.6406 0h13c8 0 8 0 8 4v9c0 4 0 4-8 4h-13c-8 0-8 0-8-4v-9c0-3.5 0-3.9453 5.3594-4z" clip-path="url(#clipPath3158-7)" style="display:inline;fill:#ccc;opacity:.5"/>
  <path id="path3820-2" d="m77 33.25v23.5c3.431-0.50142 4-2.0079 4-6.5938v-10.312c0-4.5858-0.569-6.0923-4-6.5937z" style="display:inline;fill:#ccc;opacity:.5"/>
  <path id="path3837-8" transform="matrix(2,0,0,2,-1894,-610)" d="m961.5 317c-9 0-10 0-10 6v9c0 6 1 6 10 6h13c9 0 10 0 10-6v-9c0-6-1-6-10-6z" clip-path="url(#clipPath3076-4)" style="display:inline;fill:#df382c"/>
 </g>
</svg>
