<?xml version="1.0" encoding="UTF-8"?>
<!-- Created with Inkscape (http://www.inkscape.org/) -->
<svg id="svg3289" width="90" height="90" version="1.1" xmlns="http://www.w3.org/2000/svg" xmlns:cc="http://creativecommons.org/ns#" xmlns:dc="http://purl.org/dc/elements/1.1/" xmlns:rdf="http://www.w3.org/1999/02/22-rdf-syntax-ns#" xmlns:xlink="http://www.w3.org/1999/xlink">
 <defs id="defs3291">
  <clipPath id="clipPath3890-4">
   <rect id="rect3892-1" x="951.5" y="312" width="26.5" height="32.5" style="color:#000000;fill:#f0f;opacity:.5"/>
  </clipPath>
  <clipPath id="clipPath3895-9">
   <rect id="rect3897-8" x="1025" y="314" width="5.5" height="27" style="color:#000000;fill:#f0f;opacity:.67568"/>
  </clipPath>
  <clipPath id="clipPath2085-2">
   <path id="path2087-6" d="m1023 342v2.0312c-0.9657-0.023-2.0669-0.0312-3.5-0.0312h-13c-1 0-1.875-8e-3 -2.6406 0-5.3594 0.0547-5.3594 0.5-5.3594 4v9c0 4 0 4 8 4h13c1.4331 0 2.5343-8e-3 3.5-0.0312v2.0312h2v-2.1406c2.4969-0.28075 2.5-1.1461 2.5-3.8594v-9c0-2.7133 0-3.5786-2.5-3.8594v-2.1407h-2zm6.4688 4.5312c0.021 0.44727 0.031 0.9286 0.031 1.4688v9c0 0.54015-0.01 1.0215-0.031 1.4688 0.392-0.0184 0.7323-0.0501 1.0312-0.0937v-11.75c-0.2989-0.04375-0.6392-0.0754-1.0312-0.0938z" style="color:#000000;fill:#f0f;opacity:.67568"/>
  </clipPath>
 </defs>
 <metadata id="metadata3294">
  <rdf:RDF>
   <cc:Work rdf:about="">
    <dc:format>image/svg+xml</dc:format>
    <dc:type rdf:resource="http://purl.org/dc/dcmitype/StillImage"/>
    <dc:title/>
   </cc:Work>
  </rdf:RDF>
 </metadata>
 <g id="layer1" transform="translate(0 -962.36)">
  <g id="g4451" transform="translate(-789 604.36)">
   <g id="g4401" transform="matrix(2,0,0,2,-1195,-252)">
    <rect id="rect4403-3" transform="scale(-1,1)" x="-1037" y="305" width="45" height="45" style="fill:none"/>
    <path id="path3804" transform="matrix(.5 0 0 .5 992 305)" d="m62 24.062v4c-1.9314-0.046-4.1338-0.0625-7-0.0625h-26c-2 0-3.75-0.016-5.2812 0-10.719 0.1094-10.719 1-10.719 8v18c0 8 0 8 16 8h26c2.8662 0 5.0686-0.0161 7-0.0625v4c1.4892-0.029396 2.8289-0.067536 4-0.15625v-4.0625c4.9938-0.5615 5-2.2921 5-7.7188v-18c0-5.4266 0-7.1572-5-7.7188v-4.0625c-1.1711-0.088714-2.5108-0.12685-4-0.15625zm12.938 9c0.042 0.89454 0.0625 1.8572 0.0625 2.9375v18c0 1.0803-0.0205 2.0429-0.0625 2.9375 0.66048-0.031027 1.2543-0.090584 1.7812-0.15625 0.098637-0.012291 0.18699-0.017474 0.28125-0.03125v-23.5c-0.08658-0.012673-0.19113-0.0196-0.28125-0.03125-0.52697-0.065666-1.1208-0.12522-1.7812-0.15625z" style="fill:#ccc;opacity:.25"/>
    <path id="path3906" d="m1030.5 321.62c0.2078 0.0309 0.395 0.0772 0.5625 0.125-0.1669-0.0475-0.3556-0.0942-0.5625-0.125z" style="color:#000000;fill:#f0f;opacity:.67568"/>
    <path id="path3904" d="m1032.4 323.69c0.014 0.1415 0.039 0.27697 0.047 0.4375-0.01-0.15962-0.033-0.29681-0.047-0.4375z" style="color:#000000;fill:#f0f;opacity:.67568"/>
    <path id="path3902" d="m1032.5 330.87c-0.01 0.16053-0.033 0.29599-0.047 0.4375 0.014-0.14069 0.039-0.27788 0.047-0.4375z" style="color:#000000;fill:#f0f;opacity:.67568"/>
    <path id="path3868" d="m1031.1 333.25c-0.1676 0.0478-0.3548 0.0941-0.5625 0.125 0.2068-0.0308 0.3956-0.0775 0.5625-0.125z" style="color:#000000;fill:#f0f;opacity:.67568"/>
    <path id="path3810" transform="matrix(.5 0 0 .5 992 305)" d="m66 24.219v4.0625c4.9939 0.56151 5 2.2921 5 7.7188v18c0 5.4266-0.006129 7.1572-5 7.7188v4.0625c7.8857-0.59737 9-2.892 9-11.781v-18c0-8.8892-1.1143-11.184-9-11.781z" style="fill:#ccc;opacity:.5"/>
    <path id="path3820" d="m1030.5 321.62v11.75c1.7155-0.25071 2-1.004 2-3.2969v-5.1562c0-2.2929-0.2845-3.0462-2-3.2969z" style="fill:#ccc;opacity:.5"/>
    <path id="path3837" transform="matrix(.5 0 0 .5 992 305)" d="m29 24c-18 0-20 0-20 12v18c0 12 2 12 20 12h26c2.686 0 4.98-0.022626 7-0.0625v-41.875c-2.02-0.039874-4.314-0.0625-7-0.0625h-26z" style="fill:#ccc"/>
   </g>
  </g>
 </g>
 <g id="layer2" style="display:none">
  <path id="path3804-2" transform="matrix(2,0,0,2,-1984,-660)" d="m1029.5 346.53c0.021 0.44727 0.031 0.9286 0.031 1.4688v9c0 0.54015-0.01 1.0215-0.031 1.4688 2.6419-0.12411 3.0312-0.69816 3.0312-3.3906v-5.1562c0-2.6925-0.3893-3.2665-3.0312-3.3906zm-22.969-4.5312c-9 0-10 0-10 6v9c0 6 1 6 10 6h13c9 0 10 0 10-6v-9c0-6-1-6-10-6z" clip-path="url(#clipPath2085-2)" style="display:inline;fill:#ccc;opacity:.25"/>
  <path id="path3906-0" d="m77.031 33.25c0.4156 0.0618 0.79 0.1544 1.125 0.25-0.3338-0.095-0.7112-0.1884-1.125-0.25z" style="color:#000000;display:inline;fill:#f0f;opacity:.67568"/>
  <path id="path3904-4" d="m80.875 37.375c0.028 0.283 0.078 0.55394 0.094 0.875-0.02-0.31924-0.066-0.59362-0.094-0.875z" style="color:#000000;display:inline;fill:#f0f;opacity:.67568"/>
  <path id="path3902-4" d="m80.969 51.75c-0.02 0.32106-0.066 0.59198-0.094 0.875 0.028-0.28138 0.078-0.55576 0.094-0.875z" style="color:#000000;display:inline;fill:#f0f;opacity:.67568"/>
  <path id="path3868-9" d="m78.157 56.5c-0.3352 0.0956-0.7096 0.1882-1.125 0.25 0.4136-0.0616 0.7912-0.155 1.125-0.25z" style="color:#000000;display:inline;fill:#f0f;opacity:.67568"/>
  <path id="path3810-6" transform="matrix(2,0,0,2,-1984,-610)" d="m1006.5 317c-9 0-10 0-10 6v9c0 6 1 6 10 6h13c9 0 10 0 10-6v-9c0-6-1-6-10-6h-13zm-2.6406 2c0.7656-8e-3 1.6406 0 2.6406 0h13c8 0 8 0 8 4v9c0 4 0 4-8 4h-13c-8 0-8 0-8-4v-9c0-3.5 0-3.9453 5.3594-4z" clip-path="url(#clipPath3895-9)" style="display:inline;fill:#ccc;opacity:.5"/>
  <path id="path3820-6" d="m77 33.25v23.5c3.431-0.50142 4-2.0079 4-6.5938v-10.312c0-4.5858-0.569-6.0923-4-6.5937z" style="display:inline;fill:#ccc;opacity:.5"/>
  <path id="path3837-6" transform="matrix(2,0,0,2,-1894,-610)" d="m961.5 317c-9 0-10 0-10 6v9c0 6 1 6 10 6h13c9 0 10 0 10-6v-9c0-6-1-6-10-6z" clip-path="url(#clipPath3890-4)" style="display:inline;fill:#ccc"/>
 </g>
</svg>
