<?xml version="1.0" encoding="UTF-8"?>
<!-- Created with Inkscape (http://www.inkscape.org/) -->
<svg id="svg3336" width="512" height="512" style="enable-background:new" version="1.1" viewBox="0 0 512 512" xmlns="http://www.w3.org/2000/svg" xmlns:cc="http://creativecommons.org/ns#" xmlns:dc="http://purl.org/dc/elements/1.1/" xmlns:rdf="http://www.w3.org/1999/02/22-rdf-syntax-ns#" xmlns:xlink="http://www.w3.org/1999/xlink">
 <defs id="defs3338">
  <linearGradient id="linearGradient4285" x1="128" x2="368" y1="16" y2="496" gradientTransform="matrix(.84848 0 0 .94118 95.03 0)" gradientUnits="userSpaceOnUse">
   <stop id="stop4366-7" style="stop-color:#4b8bf5" offset="0"/>
   <stop id="stop4368-5" style="stop-color:#72aaf8" offset="1"/>
  </linearGradient>
  <clipPath id="clipPath4277-8">
   <rect id="rect4279-6" x="5.6e-7" width="512" height="512" ry="1" style="color:#000000;enable-background:accumulate;fill:#88b637;opacity:.82"/>
  </clipPath>
  <filter id="filter4261" x="-.011829" y="-.012176" width="1.0237" height="1.0244" style="color-interpolation-filters:sRGB">
   <feGaussianBlur id="feGaussianBlur4263" stdDeviation="2.76"/>
  </filter>
 </defs>
 <metadata id="metadata3341">
  <rdf:RDF>
   <cc:Work rdf:about="">
    <dc:format>image/svg+xml</dc:format>
    <dc:type rdf:resource="http://purl.org/dc/dcmitype/StillImage"/>
    <dc:title/>
   </cc:Work>
  </rdf:RDF>
 </metadata>
 <g id="layer3">
  <path id="rect4158" d="m166.05 18c-145.3 0-166.05 20.737-166.05 165.9v144.2c0 145.16 20.757 165.9 166.05 165.9h179.89c145.3 0 166.05-20.737 166.05-165.9v-144.2c0-145.16-20.757-165.9-166.05-165.9z" style="color:#000000;enable-background:accumulate;fill:#f3f2eb"/>
  <rect id="rect4362" transform="scale(1,-1)" x="336" y="-152" width="176" height="152" style="color:#000000;enable-background:accumulate;fill:#f03b4f"/>
  <rect id="rect4287" x="336" y="152" width="176" height="104" style="color:#000000;enable-background:accumulate;fill:#3ad550"/>
  <rect id="rect4289" x="336" y="344" width="176" height="168" style="color:#000000;enable-background:accumulate;fill:#faf8f6"/>
  <rect id="rect4327" x="336" y="256" width="176" height="104" style="color:#000000;enable-background:accumulate;fill:#fbcb38"/>
  <g id="g4275" clip-path="url(#clipPath4277-8)" style="enable-background:new">
   <g id="g4268">
    <rect id="rect4259" x="-110" width="560" height="544" style="color:#000000;enable-background:accumulate;filter:url(#filter4261);opacity:.1"/>
   </g>
  </g>
  <rect id="rect4268" x="1.6484e-8" width="448" height="512" style="color:#000000;enable-background:accumulate;fill:url(#linearGradient4285)"/>
  <rect id="rect4280" x="5.6e-7" y="-5.5652e-7" width="64" height="512" style="color:#000000;enable-background:accumulate;fill-opacity:.5098;fill:#416bf8"/>
  <path id="rect4342" d="m446 0v512h2v-512h-2z" style="color:#000000;enable-background:accumulate;fill:#fff;opacity:.1"/>
  <path id="path4228" d="m385.21 391.85c-0.0489-67.949-20.432-88.334-129.15-88.334-108.72 0-129.1 20.385-129.26 88.334m197.75-190.22q0 16.967-5.0524 30.65-5.0523 13.683-14.315 23.535-8.982 9.8516-21.613 15.325-12.631 5.1995-27.508 5.1995-14.877 0-27.508-5.1995-12.631-5.4733-21.894-15.325-8.9821-9.8518-14.034-23.535-5.0525-13.683-5.0525-30.65 0-16.693 5.0525-30.376 5.0524-13.957 14.034-23.808 9.2629-9.8517 21.894-15.051 12.631-5.4733 27.508-5.4733 14.877 0 27.508 5.4733 12.631 5.1996 21.613 15.051 9.2631 9.8516 14.315 23.808 5.0524 13.683 5.0524 30.376z" style="enable-background:new;fill:none;stroke-width:13.59;stroke:#f7f7f7"/>
 </g>
</svg>
