<?xml version="1.0" encoding="UTF-8"?>
<!-- Created with Inkscape (http://www.inkscape.org/) -->
<svg id="svg3336" width="512" height="512" style="enable-background:new" version="1.1" viewBox="0 0 512 512" xmlns="http://www.w3.org/2000/svg" xmlns:cc="http://creativecommons.org/ns#" xmlns:dc="http://purl.org/dc/elements/1.1/" xmlns:rdf="http://www.w3.org/1999/02/22-rdf-syntax-ns#" xmlns:xlink="http://www.w3.org/1999/xlink">
 <defs id="defs3338">
  <linearGradient id="linearGradient4245" x1="167.2" x2="349.6" y1="17.2" y2="493.2" gradientUnits="userSpaceOnUse">
   <stop id="stop4241" style="stop-color:#e1e1e1" offset="0"/>
   <stop id="stop4243" style="stop-color:#f7f7f7" offset="1"/>
  </linearGradient>
  <filter id="filter4278" x="-.011761" y="-.012249" width="1.0235" height="1.0245" style="color-interpolation-filters:sRGB">
   <feGaussianBlur id="feGaussianBlur4280" stdDeviation="1.3835888"/>
  </filter>
  <linearGradient id="linearGradient4290" x1="226.84" x2="406.45" y1="429.52" y2="146.7" gradientUnits="userSpaceOnUse">
   <stop id="stop4294" style="stop-opacity:0" offset="0"/>
   <stop id="stop4296" offset=".4958"/>
   <stop id="stop4298" style="stop-opacity:0" offset="1"/>
  </linearGradient>
  <filter id="filter4300" x="-.094088" y="-.097992" width="1.1882" height="1.196" style="color-interpolation-filters:sRGB">
   <feGaussianBlur id="feGaussianBlur4302" stdDeviation="11.068711"/>
  </filter>
 </defs>
 <metadata id="metadata3341">
  <rdf:RDF>
   <cc:Work rdf:about="">
    <dc:format>image/svg+xml</dc:format>
    <dc:type rdf:resource="http://purl.org/dc/dcmitype/StillImage"/>
    <dc:title/>
   </cc:Work>
  </rdf:RDF>
 </metadata>
 <g id="layer3">
  <path id="rect4158" d="m0 0v183.9 144.2 183.9h512v-183.9-144.2-183.9h-512z" style="color:#000000;enable-background:accumulate;fill:url(#linearGradient4245)"/>
  <path id="path4219-8" d="m4.1406 104.93c-3.1292 21.018-4.1406 46.965-4.1406 78.965v144.2 183.9h512v-98.879l-507.86-308.19z" style="color:#000000;enable-background:accumulate;fill:#fff;opacity:.25"/>
 </g>
 <g id="layer4">
  <path id="circle4261" d="m418.56 154.91-150.71 87.014a20 20 0 0 0-5.8535-2.9941v-20.926h-12v20.945a20 20 0 0 0-5.8535 2.9746l-91.924-53.074-8 13.857 91.912 53.066a20 20 0 0 0-0.13477 2.2305 20 20 0 0 0 14 19.074v148.93h12v-148.95a20 20 0 0 0 14-19.055 20 20 0 0 0-0.14844-2.2227l150.71-87.016z" style="color:#000000;enable-background:accumulate;filter:url(#filter4278);opacity:.1"/>
  <path id="path4282" d="m418.56 154.91-150.71 87.014a20 20 0 0 0-5.8535-2.9941v-20.926h-12v20.945a20 20 0 0 0-5.8535 2.9746l-91.924-53.074-8 13.857 91.912 53.066a20 20 0 0 0-0.13477 2.2305 20 20 0 0 0 14 19.074v148.93h12v-148.95a20 20 0 0 0 14-19.055 20 20 0 0 0-0.14844-2.2227l150.71-87.016z" style="color:#000000;enable-background:accumulate;fill:url(#linearGradient4290);filter:url(#filter4300);opacity:.4"/>
  <circle id="circle4527" cx="256" cy="256.64" r="6.2922" style="color:#000000;enable-background:accumulate;fill:#ccc"/>
  <path id="path4219" d="m148.22 193.77 107.78 62.225" style="color:#000000;enable-background:accumulate;fill:none;stroke-width:16;stroke:#3b3b3b"/>
  <path id="path4231" d="m256 256 166.57-96.167" style="color:#000000;enable-background:accumulate;fill:none;stroke-width:16;stroke:#3b3b3b"/>
  <circle id="path4221" cx="256" cy="256" r="20" style="color:#000000;enable-background:accumulate;fill:#df382c"/>
  <path id="path4223" d="m256 216v208" style="color:#000000;enable-background:accumulate;fill:none;stroke-width:12;stroke:#df382c"/>
 </g>
</svg>
