<?xml version="1.0" encoding="UTF-8"?>
<!-- Created with Inkscape (http://www.inkscape.org/) -->
<svg id="svg3336" width="512" height="512" style="enable-background:new" version="1.1" viewBox="0 0 512 512" xmlns="http://www.w3.org/2000/svg" xmlns:cc="http://creativecommons.org/ns#" xmlns:dc="http://purl.org/dc/elements/1.1/" xmlns:rdf="http://www.w3.org/1999/02/22-rdf-syntax-ns#" xmlns:xlink="http://www.w3.org/1999/xlink">
 <defs id="defs3338">
  <linearGradient id="linearGradient4245" x1="511.04" x2=".96016" y1="468.5" y2="13.932" gradientTransform="matrix(1,0,0,-1,0,512)" gradientUnits="userSpaceOnUse">
   <stop id="stop4241" style="stop-color:#d3dffd" offset="0"/>
   <stop id="stop4243" style="stop-color:#eaf0fe" offset="1"/>
  </linearGradient>
  <linearGradient id="linearGradient4372" x1="112.2" x2="399.8" y1="106.84" y2="409.16" gradientTransform="translate(0,30)" gradientUnits="userSpaceOnUse">
   <stop id="stop4287" style="stop-color:#c4893b;stop-opacity:0" offset="0"/>
   <stop id="stop4293" style="stop-color:#c4893b" offset=".49661"/>
   <stop id="stop4289" style="stop-color:#c4893b;stop-opacity:0" offset="1"/>
  </linearGradient>
  <filter id="filter4432" x="-.098459" y="-.093661" width="1.1969" height="1.1873" style="color-interpolation-filters:sRGB">
   <feGaussianBlur id="feGaussianBlur4434" stdDeviation="11.79837"/>
  </filter>
  <filter id="filter4442" x="-.012307" y="-.011708" width="1.0246" height="1.0234" style="color-interpolation-filters:sRGB">
   <feGaussianBlur id="feGaussianBlur4444" stdDeviation="1.4747962"/>
  </filter>
  <linearGradient id="linearGradient4421" x1="413.9" x2="243.87" y1="40.206" y2="-129.83" gradientUnits="userSpaceOnUse">
   <stop id="stop4423" style="stop-color:#3957a2" offset="0"/>
   <stop id="stop4419" style="stop-color:#3957a2;stop-opacity:0" offset="1"/>
  </linearGradient>
  <filter id="filter4433" x="-.036" y="-.036" width="1.072" height="1.072" style="color-interpolation-filters:sRGB">
   <feGaussianBlur id="feGaussianBlur4435" stdDeviation="14.953551"/>
  </filter>
  <linearGradient id="linearGradient4471" x1="351.28" x2="351.28" y1="352.71" y2="82.412" gradientUnits="userSpaceOnUse">
   <stop id="stop4467" style="stop-color:#fff" offset="0"/>
   <stop id="stop4469" style="stop-color:#fff;stop-opacity:0" offset="1"/>
  </linearGradient>
  <clipPath id="clipPath4354">
   <path id="path4357" d="m0 0v183.9 144.2 183.9h512v-183.9-144.2-183.9z" style="color:#000000;enable-background:accumulate;fill:#5e2c73"/>
  </clipPath>
 </defs>
 <metadata id="metadata3341">
  <rdf:RDF>
   <cc:Work rdf:about="">
    <dc:format>image/svg+xml</dc:format>
    <dc:type rdf:resource="http://purl.org/dc/dcmitype/StillImage"/>
    <dc:title/>
   </cc:Work>
  </rdf:RDF>
 </metadata>
 <g id="layer3">
  <path id="rect4158" d="m0 0v183.9 144.2 183.9h512v-183.9-144.2-183.9h-512z" style="color:#000000;enable-background:accumulate;fill:url(#linearGradient4245)"/>
  <path id="path4255" d="m0 0v36l32 32v-68h-32zm480 0v68l32-32v-36h-32zm-480 178v5.8984 56.102l32 32v-62l-32-32zm512 0-32 32v62l32-32v-56.102-5.8984zm-512 204v80l32 32v-80l-32-32zm512 0-32 32v80l32-32v-80z" style="color:#000000;enable-background:accumulate;fill:#f22c43"/>
  <path id="path4257" d="m0 76v62l32 32v-62zm512 0-32 32v62l32-32zm-512 204v62l32 32v-62zm512 0-32 32v62l32-32z" style="color:#000000;enable-background:accumulate;fill:#5483f7"/>
  <path id="path4246" d="m0 0v183.9 144.2 183.9h512l-38.428-38.428-435.14-435.14-38.428-38.428z" style="color:#000000;enable-background:accumulate;fill:#fff;opacity:.2"/>
  <g id="g4352" clip-path="url(#clipPath4354)">
   <g id="g4437">
    <rect id="rect4413" transform="rotate(45)" x="-306.66" y="-668.7" width="723.62" height="723.62" ry="32" style="color:#000000;enable-background:accumulate;fill:url(#linearGradient4421);filter:url(#filter4433);opacity:.2"/>
    <rect id="rect4392" transform="rotate(45)" x="-308.08" y="-670.12" width="723.62" height="723.62" ry="32" style="color:#000000;enable-background:accumulate;fill:#edf2fb"/>
    <path id="rect4460" transform="translate(-32,-32)" d="m-210.43-149.01c-0.26592 8.5099 2.8537 17.104 9.377 23.627l466.42 466.42c12.536 12.536 32.718 12.536 45.254 0l466.42-466.42c6.5233-6.5233 9.6429-15.117 9.377-23.627-0.24509 7.8433-3.3647 15.615-9.377 21.627l-466.42 466.42c-12.536 12.536-32.718 12.536-45.254 0l-466.42-466.42c-6.0123-6.0123-9.1319-13.784-9.377-21.627z" style="color:#000000;enable-background:accumulate;fill:url(#linearGradient4471);opacity:.5"/>
   </g>
  </g>
 </g>
 <g id="layer4" style="display:none">
  <path id="path4436" d="m331.41 370.42q-11.223 0-18.588-3.1565t-12.275-8.4174q-7.7159 4.2087-18.588 7.3652-10.872 2.8058-21.745 2.8058-16.835 0-30.864-5.2609-13.678-5.2609-23.849-15.432-10.171-10.522-15.783-25.603-5.6116-15.081-5.6116-35.072 0-16.835 5.2609-31.565 5.2609-15.081 15.432-25.954 10.522-11.223 25.252-17.536 15.081-6.313 34.02-6.313 17.887 0 32.617 2.8058 15.081 2.8058 23.148 5.6116v107.32q0 11.223 3.858 15.783 3.858 4.5594 10.171 4.5594 9.1188 0 15.783-6.313 7.0145-6.313 11.223-16.484 4.5594-10.171 6.6638-22.797 2.1044-12.977 2.1044-26.304 0-22.096-7.7159-41.385-7.7159-19.641-22.096-34.371-14.38-14.73-35.072-23.148-20.342-8.4174-45.945-8.4174-25.603 0-46.997 8.7681-21.394 8.4174-36.826 24.551-15.432 15.783-24.2 38.93-8.4174 23.148-8.4174 52.609 0 30.864 9.1188 54.362 9.1188 23.148 25.252 38.93 16.484 15.432 38.58 23.148 22.446 8.0667 49.101 8.0667 20.693 0 34.02-2.4551 13.678-2.4551 17.536-3.858l3.5072 25.954q-5.9623 2.1044-21.745 4.5594-15.432 2.4551-33.319 2.4551-31.214 0-58.922-9.1188-27.707-8.7681-48.4-27.357-20.693-18.238-32.968-46.646-11.925-28.759-11.925-68.041 0-37.878 11.925-66.287t31.916-46.997q20.342-18.939 46.646-28.409 26.655-9.4696 56.116-9.4696 28.759 0 54.362 9.4696 25.603 9.1188 44.893 27.006 19.29 17.536 30.513 42.788 11.223 24.901 11.223 56.467 0 23.849-5.6116 42.087-5.2609 18.238-14.38 30.864-9.1188 12.275-21.745 18.588t-26.655 6.313zm-70.145-28.409q7.3652 0 14.73-1.4029 7.7159-1.7536 13.678-4.9101-1.0522-4.5594-1.4029-9.1188-0.35073-4.5594-0.35073-8.7681v-82.42q-2.1043-0.70145-8.0667-1.4029-5.9623-0.70145-13.328-0.70145-24.901 0-37.177 15.432-12.275 15.432-12.275 38.93 0 24.901 11.925 39.632 11.925 14.73 32.267 14.73z" style="fill:#c4893b;filter:url(#filter4442);opacity:.1"/>
  <path id="path4364" d="m331.41 370.42q-11.223 0-18.588-3.1565t-12.275-8.4174q-7.7159 4.2087-18.588 7.3652-10.872 2.8058-21.745 2.8058-16.835 0-30.864-5.2609-13.678-5.2609-23.849-15.432-10.171-10.522-15.783-25.603-5.6116-15.081-5.6116-35.072 0-16.835 5.2609-31.565 5.2609-15.081 15.432-25.954 10.522-11.223 25.252-17.536 15.081-6.313 34.02-6.313 17.887 0 32.617 2.8058 15.081 2.8058 23.148 5.6116v107.32q0 11.223 3.858 15.783 3.858 4.5594 10.171 4.5594 9.1188 0 15.783-6.313 7.0145-6.313 11.223-16.484 4.5594-10.171 6.6638-22.797 2.1044-12.977 2.1044-26.304 0-22.096-7.7159-41.385-7.7159-19.641-22.096-34.371-14.38-14.73-35.072-23.148-20.342-8.4174-45.945-8.4174-25.603 0-46.997 8.7681-21.394 8.4174-36.826 24.551-15.432 15.783-24.2 38.93-8.4174 23.148-8.4174 52.609 0 30.864 9.1188 54.362 9.1188 23.148 25.252 38.93 16.484 15.432 38.58 23.148 22.446 8.0667 49.101 8.0667 20.693 0 34.02-2.4551 13.678-2.4551 17.536-3.858l3.5072 25.954q-5.9623 2.1044-21.745 4.5594-15.432 2.4551-33.319 2.4551-31.214 0-58.922-9.1188-27.707-8.7681-48.4-27.357-20.693-18.238-32.968-46.646-11.925-28.759-11.925-68.041 0-37.878 11.925-66.287t31.916-46.997q20.342-18.939 46.646-28.409 26.655-9.4696 56.116-9.4696 28.759 0 54.362 9.4696 25.603 9.1188 44.893 27.006 19.29 17.536 30.513 42.788 11.223 24.901 11.223 56.467 0 23.849-5.6116 42.087-5.2609 18.238-14.38 30.864-9.1188 12.275-21.745 18.588t-26.655 6.313zm-70.145-28.409q7.3652 0 14.73-1.4029 7.7159-1.7536 13.678-4.9101-1.0522-4.5594-1.4029-9.1188-0.35073-4.5594-0.35073-8.7681v-82.42q-2.1043-0.70145-8.0667-1.4029-5.9623-0.70145-13.328-0.70145-24.901 0-37.177 15.432-12.275 15.432-12.275 38.93 0 24.901 11.925 39.632 11.925 14.73 32.267 14.73z" style="fill:url(#linearGradient4372);filter:url(#filter4432);opacity:.6"/>
  <path id="path4356" d="m331.41 368.42q-11.223 0-18.588-3.1565t-12.275-8.4174q-7.7159 4.2087-18.588 7.3652-10.872 2.8058-21.745 2.8058-16.835 0-30.864-5.2609-13.678-5.2609-23.849-15.432-10.171-10.522-15.783-25.603-5.6116-15.081-5.6116-35.072 0-16.835 5.2609-31.565 5.2609-15.081 15.432-25.954 10.522-11.223 25.252-17.536 15.081-6.313 34.02-6.313 17.887 0 32.617 2.8058 15.081 2.8058 23.148 5.6116v107.32q0 11.223 3.858 15.783 3.858 4.5594 10.171 4.5594 9.1188 0 15.783-6.313 7.0145-6.313 11.223-16.484 4.5594-10.171 6.6638-22.797 2.1044-12.977 2.1044-26.304 0-22.096-7.7159-41.385-7.7159-19.641-22.096-34.371-14.38-14.73-35.072-23.148-20.342-8.4174-45.945-8.4174-25.603 0-46.997 8.7681-21.394 8.4174-36.826 24.551-15.432 15.783-24.2 38.93-8.4174 23.148-8.4174 52.609 0 30.864 9.1188 54.362 9.1188 23.148 25.252 38.93 16.484 15.432 38.58 23.148 22.446 8.0667 49.101 8.0667 20.693 0 34.02-2.4551 13.678-2.4551 17.536-3.858l3.5072 25.954q-5.9623 2.1044-21.745 4.5594-15.432 2.4551-33.319 2.4551-31.214 0-58.922-9.1188-27.707-8.7681-48.4-27.357-20.693-18.238-32.968-46.646-11.925-28.759-11.925-68.041 0-37.878 11.925-66.287t31.916-46.997q20.342-18.939 46.646-28.409 26.655-9.4696 56.116-9.4696 28.759 0 54.362 9.4696 25.603 9.1188 44.893 27.006 19.29 17.536 30.513 42.788 11.223 24.901 11.223 56.467 0 23.849-5.6116 42.087-5.2609 18.238-14.38 30.864-9.1188 12.275-21.745 18.588t-26.655 6.313zm-70.145-28.409q7.3652 0 14.73-1.4029 7.7159-1.7536 13.678-4.9101-1.0522-4.5594-1.4029-9.1188-0.35073-4.5594-0.35073-8.7681v-82.42q-2.1043-0.70145-8.0667-1.4029-5.9623-0.70145-13.328-0.70145-24.901 0-37.177 15.432-12.275 15.432-12.275 38.93 0 24.901 11.925 39.632 11.925 14.73 32.267 14.73z" style="fill:#f2f2f2"/>
  <path id="path4359" d="m258.81 134.84c-19.641 0-38.347 3.1557-56.117 9.4688-17.536 6.313-33.085 15.784-46.646 28.41-13.328 12.392-23.966 28.057-31.916 46.996-7.9498 18.939-11.924 41.035-11.924 66.287 0 0.34205 8e-3 0.67673 0.01 1.0176 0.10256-24.841 4.0682-46.613 11.914-65.305 7.9498-18.939 18.588-34.604 31.916-46.996 13.561-12.626 29.11-22.097 46.646-28.41 17.77-6.313 36.477-9.4688 56.117-9.4688 19.173 0 37.293 3.1557 54.361 9.4688 17.069 6.0792 32.033 15.081 44.893 27.006 12.86 11.691 23.032 25.954 30.514 42.789 7.3444 16.295 11.076 34.737 11.211 55.312 1e-3 -0.28487 0.0117-0.55961 0.0117-0.8457-1e-5 -21.043-3.7405-39.866-11.223-56.467-7.4821-16.835-17.654-31.098-30.514-42.789-12.86-11.925-27.824-20.927-44.893-27.006-17.069-6.313-35.188-9.4688-54.361-9.4688zm5.2598 69.443c-12.626 0-23.965 2.1038-34.02 6.3125-9.8203 4.2087-18.237 10.055-25.252 17.537-6.7807 7.2483-11.924 15.899-15.432 25.953-3.5072 9.8203-5.2617 20.341-5.2617 31.564 0 0.35435 0.0169 0.69484 0.0195 1.0469 0.0972-10.864 1.835-21.071 5.2422-30.611 3.5072-10.054 8.651-18.705 15.432-25.953 7.0145-7.4821 15.432-13.328 25.252-17.537 10.054-4.2087 21.393-6.3125 34.02-6.3125 11.925 0 22.797 0.93611 32.617 2.8066 10.054 1.8705 17.771 3.7408 23.148 5.6113v-2c-5.3778-1.8705-13.094-3.7408-23.148-5.6113-9.8203-1.8705-20.693-2.8066-32.617-2.8066zm105.56 65.215c-0.0523 8.5315-0.74529 16.956-2.0938 25.271-1.4029 8.4174-3.6244 16.016-6.6641 22.797-2.8058 6.7807-6.5483 12.276-11.225 16.484-4.4425 4.2087-9.702 6.3125-15.781 6.3125-4.2087 0-7.5999-1.519-10.172-4.5586-2.572-3.0396-3.8574-8.3011-3.8574-15.783v2c0 7.4821 1.2854 12.744 3.8574 15.783 2.572 3.0396 5.9632 4.5586 10.172 4.5586 6.0792 0 11.339-2.1038 15.781-6.3125 4.6763-4.2087 8.4188-9.7037 11.225-16.484 3.0396-6.7807 5.2612-14.379 6.6641-22.797 1.4029-8.6512 2.1035-17.42 2.1035-26.305 0-0.32366-7e-3 -0.64403-0.01-0.9668zm-152.54 17.201c-3e-3 0.31841-0.0156 0.6305-0.0156 0.95117 0 16.601 3.9741 29.813 11.924 39.633 7.9498 9.8203 18.706 14.73 32.268 14.73 4.9101 0 9.8203-0.46709 14.73-1.4023 5.144-1.1691 9.7028-2.8058 13.678-4.9102-0.13889-0.60186-0.26225-1.2048-0.38281-1.8066-3.8852 2.0094-8.3132 3.5846-13.295 4.7168-4.9101 0.93525-9.8203 1.4023-14.73 1.4023-13.561 0-24.318-4.9102-32.268-14.73-7.7802-9.6109-11.742-22.479-11.908-38.584zm-74.711 0.29687c-2e-3 0.33628-0.01 0.66833-0.01 1.0059 0 20.576 3.0399 38.696 9.1192 54.361 6.0792 15.432 14.496 28.41 25.252 38.932 10.989 10.288 23.85 18.004 38.58 23.148 14.964 5.3778 31.332 8.0664 49.102 8.0664 13.795 0 25.135-0.81836 34.02-2.4551 9.1188-1.6367 14.965-2.9241 17.537-3.8594l3.2461 24.039c0.0811-0.0278 0.1812-0.0562 0.25977-0.084l-3.5059-25.955c-2.572 0.93527-8.4183 2.2227-17.537 3.8594-8.885 1.6367-20.224 2.4551-34.02 2.4551-17.77 0-34.137-2.6886-49.102-8.0664-14.73-5.144-27.591-12.861-38.58-23.148-10.756-10.522-19.173-23.5-25.252-38.932-5.9806-15.412-9.0124-33.204-9.1094-53.367z" style="fill:#fff;opacity:.2"/>
 </g>
</svg>
