<?xml version="1.0" encoding="UTF-8"?>
<!-- Created with Inkscape (http://www.inkscape.org/) -->
<svg id="svg3336" width="512" height="512" style="enable-background:new" version="1.1" viewBox="0 0 512 512" xmlns="http://www.w3.org/2000/svg" xmlns:cc="http://creativecommons.org/ns#" xmlns:dc="http://purl.org/dc/elements/1.1/" xmlns:rdf="http://www.w3.org/1999/02/22-rdf-syntax-ns#" xmlns:xlink="http://www.w3.org/1999/xlink">
 <defs id="defs3338">
  <linearGradient id="linearGradient4226" x2="512" y1="18" y2="494" gradientUnits="userSpaceOnUse">
   <stop id="stop4222" style="stop-color:#45a926" offset="0"/>
   <stop id="stop4224" style="stop-color:#79c32a" offset="1"/>
  </linearGradient>
  <linearGradient id="linearGradient4432" x1="364.35" x2="344.65" y1="236.42" y2="255.67" gradientUnits="userSpaceOnUse">
   <stop id="stop4144" style="stop-color:#88b637" offset="0"/>
   <stop id="stop4146" style="stop-color:#88b637;stop-opacity:0" offset="1"/>
  </linearGradient>
  <linearGradient id="linearGradient4284" x1="309.45" x2="309.45" y1="463.79" y2="48.21" gradientTransform="translate(-1.6559e-6 2.886)" gradientUnits="userSpaceOnUse">
   <stop id="stop4349" style="stop-opacity:0" offset="0"/>
   <stop id="stop4355" offset=".4962"/>
   <stop id="stop4351" style="stop-opacity:0" offset="1"/>
  </linearGradient>
  <filter id="filter4300" x="-.095998" y="-.096002" width="1.192" height="1.192" style="color-interpolation-filters:sRGB">
   <feGaussianBlur id="feGaussianBlur4302" stdDeviation="16.623603"/>
  </filter>
  <filter id="filter4315" x="-.012" y="-.012" width="1.024" height="1.024" style="color-interpolation-filters:sRGB">
   <feGaussianBlur id="feGaussianBlur4317" stdDeviation="2.0779504"/>
  </filter>
 </defs>
 <metadata id="metadata3341">
  <rdf:RDF>
   <cc:Work rdf:about="">
    <dc:format>image/svg+xml</dc:format>
    <dc:type rdf:resource="http://purl.org/dc/dcmitype/StillImage"/>
    <dc:title/>
   </cc:Work>
  </rdf:RDF>
 </metadata>
 <g id="layer3">
  <path id="rect4158" d="m0 0v183.9 144.2 183.9h512v-183.9-144.2-183.9h-512z" style="color:#000000;enable-background:accumulate;fill:url(#linearGradient4226)"/>
  <path id="path4269" d="m0 256v72.102 183.9h512v-183.9-72.102h-512z" style="color:#000000;enable-background:accumulate;fill:#fff;opacity:.1"/>
  <path id="path4245" transform="translate(-32,-32)" d="m163.31 144c-12.874 0-19.314-2.3e-4 -19.314 14.996v18.008c0 14.996 6.4402 14.996 19.314 14.996h9.375c12.874 0 19.311 2.2e-4 19.311-14.996v-18.008c0-14.461-6.4363-14.996-19.311-14.996zm60 0c-12.874 0-19.314-2.3e-4 -19.314 14.996v18.008c0 14.996 6.4402 14.996 19.314 14.996h9.375c12.874 0 19.311 2.2e-4 19.311-14.996v-18.008c0-14.461-6.4363-14.996-19.311-14.996zm60 0c-12.874 0-19.314-2.3e-4 -19.314 14.996v18.008c0 14.996 6.4402 14.996 19.314 14.996h9.375c12.874 0 19.311 2.2e-4 19.311-14.996v-18.008c0-14.461-6.4363-14.996-19.311-14.996zm-120 60c-12.874 0-19.314-2.3e-4 -19.314 14.996v18.008c0 14.996 6.4402 14.996 19.314 14.996h9.375c12.874 0 19.311 2.2e-4 19.311-14.996v-18.008c0-14.461-6.4363-14.996-19.311-14.996zm60 0c-12.874 0-19.314-2.3e-4 -19.314 14.996v18.008c0 14.996 6.4402 14.996 19.314 14.996h9.375c12.874 0 19.311 2.2e-4 19.311-14.996v-18.008c0-14.461-6.4363-14.996-19.311-14.996zm-60 60c-12.874 0-19.314-2.3e-4 -19.314 14.996v18.008c0 14.996 6.4402 14.996 19.314 14.996h9.375c12.874 0 19.311 2.2e-4 19.311-14.996v-18.008c0-14.461-6.4363-14.996-19.311-14.996z" style="color:#000000;enable-background:accumulate;fill:#a4ff80;opacity:.2"/>
 </g>
 <g id="layer4">
  <path id="path4505-6" d="m219.31 124-35.188 71.656v59.25c-4.9399 5.788-10.339 11.62-15.969 17.25-18.503 18.503-39.248 34.687-53.125 39.312l-23.375-23.344-71.656 35.188v170.69h256v-317.56c-15.417-33.444-32.368-45.921-56.688-52.438zm-97.562 229c7e-3 -5e-3 0.0239 5e-3 0.0312 0-2.6107 1.6304-5.251 3.2267-7.9062 4.8125 2.6559-1.5856 5.2637-3.1824 7.875-4.8125zm-24.094 14.062c8e-3 -4e-3 0.0234 4e-3 0.0312 0-2.7418 1.4991-5.5286 2.9806-8.3125 4.4375 2.7843-1.4568 5.5391-2.9386 8.2813-4.4375z" style="color:#000000;enable-background:accumulate;fill-opacity:0;opacity:.05"/>
  <g id="g4342" transform="matrix(.69301 0 0 .69301 78.652 78.59)" style="enable-background:new;stroke-width:1.443">
   <path id="path4277" d="m377.06 51.096-52.99 120.5 25.464 42.436c-0.0369 0.0579-0.0783 0.11964-0.11555 0.17756l4.4192 7.4291c-19.138 25.886-40.56 49.801-62.604 71.854l3e-3 3e-3c-0.0523 0.0521-0.10561 0.10277-0.15783 0.15501l-0.15782 0.15782c-22.09 22.081-46.049 43.534-71.986 62.697l-7.4207-4.4135c-0.0579 0.0372-0.11684 0.0787-0.17473 0.11556l-42.436-25.461-120.5 52.988c8.4466 37.308 21.008 101.08 77.786 84.133 52.315-15.616 96.191-46.806 135.52-81.921l-8e-3 -6e-3c21.415-17.96 41.501-37.337 60.763-56.592l3e-3 3e-3 0.15784-0.15784c0.0517-0.0517 0.10326-0.10617 0.155-0.15782 19.219-19.226 38.559-39.275 56.491-60.645l6e-3 8e-3c35.113-39.328 66.3-83.204 81.917-135.52 16.948-56.778-46.823-69.339-84.13-77.786z" style="color:#000000;enable-background:accumulate;fill:url(#linearGradient4284);filter:url(#filter4300);opacity:.2"/>
   <path id="path4277-6" d="m377.06 51.096-52.99 120.5 25.464 42.436c-0.0369 0.0579-0.0784 0.11962-0.11558 0.17756l4.4192 7.4291c-19.138 25.886-40.56 49.801-62.604 71.854l3e-3 3e-3c-0.0524 0.0521-0.10562 0.10274-0.15783 0.15501l-0.15782 0.15782c-22.09 22.081-46.049 43.534-71.986 62.697l-7.4207-4.4135c-0.0579 0.0372-0.11688 0.0786-0.17473 0.11558l-42.436-25.461-120.5 52.988c8.4466 37.308 21.008 101.08 77.786 84.133 52.315-15.616 96.191-46.806 135.52-81.921l-9e-3 -6e-3c21.415-17.96 41.501-37.337 60.763-56.592l3e-3 3e-3 0.15784-0.15783c0.0516-0.0518 0.10331-0.10621 0.155-0.15782 19.219-19.226 38.559-39.275 56.491-60.645l6e-3 9e-3c35.114-39.328 66.301-83.205 81.918-135.52 16.948-56.778-46.823-69.34-84.13-77.786z" style="color:#000000;enable-background:accumulate;filter:url(#filter4315);opacity:.1"/>
   <path id="path4341" transform="matrix(1.443 0 0 1.443 -159.67 -159.58)" d="m400.08 157.87c1.4997 5.8487 1.3403 12.707-1.0762 20.803-15.708 52.623-49.894 96.663-86.529 133.31l2e-3 2e-3c-0.0363 0.0361-0.0732 0.0712-0.10938 0.10742l-0.10937 0.10937c-15.308 15.302-31.913 30.17-49.887 43.449l-5.1426-3.0586c-0.0401 0.0258-0.081 0.0545-0.12109 0.0801l-29.408-17.645-83.51 36.721c5.8535 25.854 14.559 70.05 53.906 58.305 36.255-10.822 66.661-32.437 93.916-56.771l-6e-3 -4e-3c14.841-12.446 28.76-25.875 42.109-39.219l2e-3 2e-3 0.10938-0.10938c0.0358-0.0359 0.0716-0.0736 0.10742-0.10937 36.635-36.649 73.944-77.568 89.652-130.19 7.3422-24.597-6.0883-37.814-23.906-45.783z" style="color:#000000;enable-background:accumulate;fill:#e5f1d0"/>
   <path id="path4421" d="m378.78 181.51c-12.587 20.968-26.921 40.774-42.289 59.469l23.566 42.426c19.41-21.248 37.87-43.732 53.678-68.023z" style="color:#000000;enable-background:accumulate;fill:url(#linearGradient4432);opacity:.1"/>
   <path id="path4325" d="m377.06 48.21-52.989 120.5 25.462 42.438c-0.0369 0.0579-0.0787 0.11725-0.11594 0.17517l29.856 50.189c35.114-39.328 66.302-83.203 81.918-135.52 16.948-56.778-46.824-69.34-84.131-77.786z" style="color:#000000;enable-background:accumulate;fill:#f1f8e7"/>
   <path id="path4349" transform="matrix(1.443 0 0 1.443 -113.49 -113.4)" d="m339.96 112-36.723 83.51 0.50781 0.8457 36.215-82.355c22.62 5.1213 59.278 12.426 60.23 40.523 0.75404-29.753-37.084-37.283-60.23-42.523zm-16.76 119.07c-13.095 17.599-27.695 33.884-42.719 48.914l2e-3 2e-3c-0.0363 0.0361-0.0732 0.0712-0.10938 0.10742l-0.10937 0.10937c-15.308 15.302-31.913 30.17-49.887 43.449l-5.1426-3.0586c-0.0401 0.0258-0.081 0.0545-0.12109 0.0801l-29.408-17.645-83.51 36.721c0.13199 0.583 0.27494 1.2195 0.41016 1.8203l83.1-36.541 29.408 17.645c0.0401-0.0255 0.081-0.0543 0.12109-0.0801l5.1426 3.0586c17.974-13.28 34.578-28.147 49.887-43.449l0.10937-0.10937c0.0362-0.0362 0.0731-0.0713 0.10938-0.10742l-2e-3 -2e-3c15.277-15.282 30.122-31.856 43.385-49.795l-0.66601-1.1191z" style="color:#000000;enable-background:accumulate;fill:#fff;opacity:.6"/>
  </g>
 </g>
</svg>
