<?xml version="1.0" encoding="UTF-8"?>
<!-- Created with Inkscape (http://www.inkscape.org/) -->
<svg id="svg3336" width="512" height="512" style="enable-background:new" version="1.1" viewBox="0 0 512 512" xmlns="http://www.w3.org/2000/svg" xmlns:cc="http://creativecommons.org/ns#" xmlns:dc="http://purl.org/dc/elements/1.1/" xmlns:rdf="http://www.w3.org/1999/02/22-rdf-syntax-ns#" xmlns:xlink="http://www.w3.org/1999/xlink">
 <defs id="defs3338">
  <linearGradient id="linearGradient4209" x1="167.5" x2="343.25" y1="17.25" y2="491" gradientUnits="userSpaceOnUse">
   <stop id="stop4205" style="stop-color:#f34f17" offset="0"/>
   <stop id="stop4207" style="stop-color:#fb7c38" offset="1"/>
  </linearGradient>
  <linearGradient id="linearGradient4343">
   <stop id="stop4345" style="stop-color:#f37e40" offset="0"/>
   <stop id="stop4347" style="stop-color:#f37e40;stop-opacity:0" offset="1"/>
  </linearGradient>
  <linearGradient id="linearGradient3318" x1="52.715" x2="62.126" y1="490.35" y2="513.88" gradientTransform="matrix(3.4 0 0 3.4 124.77 -1507.2)" gradientUnits="userSpaceOnUse" xlink:href="#linearGradient4343"/>
  <linearGradient id="linearGradient3416" x1="202.35" x2="202.35" y1="352" y2="385.95" gradientUnits="userSpaceOnUse" xlink:href="#linearGradient4343"/>
  <filter id="filter3437" x="-.011999" y="-.012001" width="1.024" height="1.024" style="color-interpolation-filters:sRGB">
   <feGaussianBlur id="feGaussianBlur3439" stdDeviation="1.3601466"/>
  </filter>
  <filter id="filter3443" x="-.09599" y="-.09601" width="1.192" height="1.192" style="color-interpolation-filters:sRGB">
   <feGaussianBlur id="feGaussianBlur3445" stdDeviation="10.881172"/>
  </filter>
  <linearGradient id="linearGradient3461" x1="233.57" x2="395.41" y1="332" y2="392.81" gradientUnits="userSpaceOnUse" spreadMethod="reflect">
   <stop id="stop3457" style="stop-color:#b83a0e" offset="0"/>
   <stop id="stop3459" style="stop-color:#b83a0e;stop-opacity:0" offset="1"/>
  </linearGradient>
 </defs>
 <metadata id="metadata3341">
  <rdf:RDF>
   <cc:Work rdf:about="">
    <dc:format>image/svg+xml</dc:format>
    <dc:type rdf:resource="http://purl.org/dc/dcmitype/StillImage"/>
    <dc:title/>
   </cc:Work>
  </rdf:RDF>
 </metadata>
 <g id="layer3">
  <path id="rect4158" d="m0 0v183.9 144.2 183.9h512v-183.9-144.2-183.9h-512z" style="color:#000000;enable-background:accumulate;fill:url(#linearGradient4209)"/>
  <path id="path3487" d="m308.24 0-215.49 512h419.26v-183.9-144.2-183.9h-203.76z" style="color:#000000;enable-background:accumulate;fill:#fff;opacity:.1"/>
 </g>
 <g id="layer1" transform="translate(-32,-32)">
  <path id="path3441" d="m271.09 154c-28.539 60.415-52.737 114.51-72.414 160h-22.895c-19.344 0-22.971-9.7e-4 -23.65 10.727-0.15685 2.4756-0.15624 5.5234-0.15625 9.2734-2e-5 20-2e-3 20 23.807 20h5.8027c-12.42 29.44-22.349 53.821-29.609 72h41.967c7.8246-19.678 17.682-44.114 29.176-72h156.96c11.238 28.011 20.71 52.534 28.062 72h15.895c-7.1827-19.109-16.622-43.673-27.939-72h4.0742c23.808 0 23.807 5e-5 23.807-20 2e-5 -20 2e-3 -20-23.807-20h-20.311c-19.692-47.746-43.498-102.78-70.484-159.95 7e-3 -0.017 0.0147-0.0309 0.0215-0.0469h-38.305zm30.277 17.857c23.569 50.523 44.598 99.14 62.404 142.14h-124.02c17.73-42.233 38.438-90.368 61.613-142.14z" style="block-progression:tb;color-rendering:auto;color:#000000;enable-background:accumulate;fill:url(#linearGradient3461);filter:url(#filter3443);image-rendering:auto;isolation:auto;mix-blend-mode:normal;opacity:.6;shape-rendering:auto;solid-color:#000000;text-decoration-color:#000000;text-decoration-line:none;text-decoration-style:solid;text-indent:0;text-transform:none;white-space:normal"/>
  <path id="path3421" d="m271.09 154c-28.539 60.415-52.737 114.51-72.414 160h-22.895c-19.344 0-22.971-9.7e-4 -23.65 10.727-0.15685 2.4756-0.15624 5.5234-0.15625 9.2734-2e-5 20-2e-3 20 23.807 20h5.8027c-12.42 29.44-22.349 53.821-29.609 72h41.967c7.8246-19.678 17.682-44.114 29.176-72h156.96c11.238 28.011 20.71 52.534 28.062 72h15.895c-7.1827-19.109-16.622-43.673-27.939-72h4.0742c23.808 0 23.807 5e-5 23.807-20 2e-5 -20 2e-3 -20-23.807-20h-20.311c-19.692-47.746-43.498-102.78-70.484-159.95 7e-3 -0.017 0.0147-0.0309 0.0215-0.0469h-38.305zm30.277 17.857c23.569 50.523 44.598 99.14 62.404 142.14h-124.02c17.73-42.233 38.438-90.368 61.613-142.14z" style="block-progression:tb;color-rendering:auto;color:#000000;enable-background:accumulate;filter:url(#filter3437);image-rendering:auto;isolation:auto;mix-blend-mode:normal;opacity:.1;shape-rendering:auto;solid-color:#000000;text-decoration-color:#000000;text-decoration-line:none;text-decoration-style:solid;text-indent:0;text-transform:none;white-space:normal"/>
  <g id="g3299" transform="matrix(3.4 0 0 3.4 124.77 -1507.2)" style="fill:#fff5e9">
   <path id="path4177" d="m43.034 488c-17.218 36.449-29.106 65.157-35.034 80h12.343c6.482-16.301 17.507-43.273 31.596-74.748 14.176 30.387 25.258 58.479 31.403 74.748h4.6752c-6.2597-16.654-18.224-47.148-33.724-79.986 2e-3 -5e-3 4e-3 -9e-3 6e-3 -0.0137z" style="block-progression:tb;color-rendering:auto;color:#000000;enable-background:accumulate;fill:#fff5e9;image-rendering:auto;isolation:auto;mix-blend-mode:normal;shape-rendering:auto;solid-color:#000000;text-decoration-color:#000000;text-decoration-line:none;text-decoration-style:solid;text-indent:0;text-transform:none;white-space:normal"/>
   <path id="path3297" d="m15.002 535.06c-7.0024 0-7.0019 0-7.002 5.8824-4e-6 5.8824-4.669e-4 5.8824 7.002 5.8824h65.996c7.0024 0 7.0019 1e-5 7.002-5.8824 4e-6 -5.8824 4.57e-4 -5.8824-7.002-5.8824z" style="color:#000000;enable-background:accumulate;fill:#fff5e9"/>
   <path id="rect4188" d="m15 538.42h34c3 0 3 0 3 2.521-4e-6 2.521 4e-6 2.521-3 2.521h-34c-3 0-3 0-3-2.521-4e-6 -2.521 4e-6 -2.521 3-2.521z" style="color:#000000;enable-background:accumulate;fill:#fff5e9"/>
  </g>
  <path id="path3306" d="m301.36 169.86c48.197 103.32 85.878 198.83 106.77 254.14h15.896c-21.283-56.623-61.963-160.3-114.66-271.95l0.0204-0.0466z" style="block-progression:tb;color-rendering:auto;color:#000000;enable-background:accumulate;fill:url(#linearGradient3318);image-rendering:auto;isolation:auto;mix-blend-mode:normal;opacity:.2;shape-rendering:auto;solid-color:#000000;text-decoration-color:#000000;text-decoration-line:none;text-decoration-style:solid;text-indent:0;text-transform:none;white-space:normal"/>
  <path id="path3308" d="m175.78 312c-23.808 0-23.807 0-23.807 20-2e-5 20-2e-3 20 23.807 20h224.39c23.808 0 23.807 4e-5 23.807-20 2e-5 -20 0.00156-20-23.807-20z" style="color:#000000;enable-background:accumulate;fill:#fffbf5"/>
  <path id="path3323" d="m284.77 323.43h115.6c10.2 0 10.2 0 10.2 8.5714-1e-5 8.5715 2e-5 8.5714-10.2 8.5714h-115.6c-10.2 0-10.2 0-10.2-8.5714-1e-5 -8.5714 1e-5 -8.5714 10.2-8.5714z" style="color:#000000;enable-background:accumulate;fill-opacity:.3806;fill:#fec589"/>
  <path id="path3310" d="m175.77 323.43h115.6c10.2 0 10.2 0 10.2 8.5714-1e-5 8.5715 2e-5 8.5714-10.2 8.5714h-115.6c-10.2 0-10.2 0-10.2-8.5714-1e-5 -8.5714 1e-5 -8.5714 10.2-8.5714z" style="color:#000000;enable-background:accumulate;fill:#f34f17"/>
  <path id="path3325" d="m175.78 312c-23.808 0-23.807 1e-5 -23.807 20 0 0.38684 8e-3 0.64947 8e-3 1.0215 0.00779-18.909 0.43155-19.021 23.799-19.021h224.39c23.357 0 23.791 0.11473 23.799 19 1.6e-4 -0.3645 8e-3 -0.6213 8e-3 -1 2e-5 -20 2e-3 -20-23.807-20h-224.39z" style="color:#000000;enable-background:accumulate;fill:#fff"/>
  <path id="path3406" d="m181.58 352c-12.42 29.44-22.349 53.821-29.609 72h41.967c7.8246-19.678 17.682-44.114 29.176-72h-41.533zm198.49 0c11.238 28.011 20.71 52.534 28.062 72h15.895c-7.1827-19.109-16.622-43.673-27.939-72h-16.018z" style="block-progression:tb;color-rendering:auto;color:#000000;enable-background:accumulate;fill:url(#linearGradient3416);image-rendering:auto;isolation:auto;mix-blend-mode:normal;opacity:.25;shape-rendering:auto;solid-color:#000000;text-decoration-color:#000000;text-decoration-line:none;text-decoration-style:solid;text-indent:0;text-transform:none;white-space:normal"/>
 </g>
</svg>
