<?xml version="1.0" encoding="UTF-8"?>
<!-- Created with Inkscape (http://www.inkscape.org/) -->
<svg id="svg3336" width="512.4" height="512" style="enable-background:new" version="1.1" viewBox="0 0 512.4 512" xmlns="http://www.w3.org/2000/svg" xmlns:cc="http://creativecommons.org/ns#" xmlns:dc="http://purl.org/dc/elements/1.1/" xmlns:rdf="http://www.w3.org/1999/02/22-rdf-syntax-ns#" xmlns:xlink="http://www.w3.org/1999/xlink">
 <defs id="defs3338">
  <linearGradient id="linearGradient4912" x1="384" x2="112" y1="18" y2="494" gradientTransform="matrix(1 0 0 1.0756 -512 -19.361)" gradientUnits="userSpaceOnUse">
   <stop id="stop4205" style="stop-color:#f0511a" offset="0"/>
   <stop id="stop4207" style="stop-color:#f97c3a" offset="1"/>
  </linearGradient>
  <filter id="filter4278" x="-.0135" y="-.0108" width="1.027" height="1.0216" style="color-interpolation-filters:sRGB">
   <feGaussianBlur id="feGaussianBlur4280" stdDeviation="1.368"/>
  </filter>
  <linearGradient id="linearGradient4290" x1="134.6" x2="402.37" y1="106" y2="252.01" gradientUnits="userSpaceOnUse">
   <stop id="stop4286" style="stop-opacity:.27842" offset="0"/>
   <stop id="stop4292" style="stop-opacity:.72157" offset=".27541"/>
   <stop id="stop4288" style="stop-opacity:0" offset="1"/>
  </linearGradient>
  <filter id="filter4294" x="-.108" y="-.0864" width="1.216" height="1.1728" style="color-interpolation-filters:sRGB">
   <feGaussianBlur id="feGaussianBlur4296" stdDeviation="10.944"/>
  </filter>
 </defs>
 <metadata id="metadata3341">
  <rdf:RDF>
   <cc:Work rdf:about="">
    <dc:format>image/svg+xml</dc:format>
    <dc:type rdf:resource="http://purl.org/dc/dcmitype/StillImage"/>
    <dc:title/>
   </cc:Work>
  </rdf:RDF>
 </metadata>
 <g id="layer3">
  <rect id="rect4158" transform="scale(-1,1)" x="-512" width="512" height="512" style="color:#000000;enable-background:accumulate;fill:url(#linearGradient4912)"/>
 </g>
 <g id="layer2" transform="translate(0,18)">
  <path id="path4180-7" d="m285.2-18-272.65 512h499.85v-512z" style="color:#000000;enable-background:accumulate;fill:#fff;opacity:.08"/>
 </g>
 <g id="layer4">
  <path id="path4276" d="m134.6 106 0.7347 199.98s-1.0534 83.814 90.014 101.48c52.377 10.16 152.45-13.399 152.45-13.399v-288.06h-82.374v211.82h-78.452l2.9e-4 -129.26h-31.381l44.129-82.563z" style="filter:url(#filter4278);opacity:.1"/>
  <path id="path4282" d="m134.6 106 0.7347 199.98s-1.0534 83.814 90.014 101.48c52.377 10.16 152.45-13.399 152.45-13.399v-288.06h-82.374v211.82h-78.452l2.9e-4 -129.26h-31.381l44.129-82.563z" style="fill:url(#linearGradient4290);filter:url(#filter4294);opacity:.2"/>
  <path id="path4299" d="m134.6 104 0.7347 199.98s-1.0534 83.814 90.014 101.48c52.377 10.16 152.45-13.399 152.45-13.399v-288.06h-82.374v211.82h-78.452l2.9e-4 -129.26h-31.381l44.129-82.563z" style="fill:#f8f8f8"/>
  <path id="path4117" transform="translate(0,18)" d="m134.6 86v2h94.054l1.069-2h-95.123zm160.83 0v2h82.374v-2h-82.374zm-108.76 82.563-1.069 2h31.381v-2h-30.312zm30.311 129.26v2h78.452v-2h-78.452z" style="fill:#fff"/>
 </g>
 <g id="layer1" transform="translate(0 -558.36)" style="display:none">
  <path id="path3774" d="m166.05 576.36h179.89c145.3 0 166.05 20.737 166.05 165.9v144.2c0 145.16-20.757 165.9-166.05 165.9h-179.89c-145.3 0-166.05-20.737-166.05-165.9v-144.2c0-145.16 20.757-165.9 166.05-165.9z" style="display:inline;fill-opacity:.081181;fill:#00f;stroke:#00f"/>
  <circle id="path4118" transform="matrix(1.2 0 0 1.2 -51.2 528.76)" cx="256" cy="238" r="120" style="color:#000000;display:inline;enable-background:accumulate;fill-opacity:.081181;fill:#00f;stroke-width:.83333;stroke:#00f"/>
  <rect id="rect4152" x="120" y="678.36" width="272" height="272" style="color:#000000;display:inline;enable-background:accumulate;fill-opacity:.081181;fill:#00f;stroke-linecap:round;stroke-linejoin:round;stroke:#00f"/>
  <rect id="rect4154" x="104" y="694.36" width="304" height="240" style="color:#000000;display:inline;enable-background:accumulate;fill-opacity:.081181;fill:#00f;stroke-linecap:round;stroke-linejoin:round;stroke:#00f"/>
  <rect id="rect4156" x="136" y="662.36" width="240" height="304" style="color:#000000;display:inline;enable-background:accumulate;fill-opacity:.081181;fill:#00f;stroke-linecap:round;stroke-linejoin:round;stroke:#00f"/>
 </g>
</svg>
