<?xml version="1.0" encoding="UTF-8"?>
<!-- Created with Inkscape (http://www.inkscape.org/) -->
<svg id="svg4874" width="96" height="96" version="1.1" viewBox="0 0 96 96" xmlns="http://www.w3.org/2000/svg" xmlns:cc="http://creativecommons.org/ns#" xmlns:dc="http://purl.org/dc/elements/1.1/" xmlns:rdf="http://www.w3.org/1999/02/22-rdf-syntax-ns#">
 <metadata id="metadata4879">
  <rdf:RDF>
   <cc:Work rdf:about="">
    <dc:format>image/svg+xml</dc:format>
    <dc:type rdf:resource="http://purl.org/dc/dcmitype/StillImage"/>
    <dc:title/>
   </cc:Work>
  </rdf:RDF>
 </metadata>
 <g id="layer1" transform="translate(67.857 -78.505)">
  <rect id="rect4782" transform="rotate(90)" x="78.505" y="-28.143" width="96" height="96" style="color:#000000;fill:none"/>
  <path id="path4179" transform="translate(-67.857 78.505)" d="m23.977 8c-5.0328 0.05818-8.7136-0.12028-11.725 1.541-1.5055 0.83065-2.6968 2.2356-3.3555 3.9902-0.65866 1.7547-0.89648 3.8383-0.89648 6.4688v56c0 2.6304 0.23782 4.7121 0.89648 6.4668 0.65866 1.7546 1.85 3.1596 3.3555 3.9902 3.011 1.6613 6.6918 1.4848 11.725 1.543h0.011719 48.023 0.011719c5.0328-0.0582 8.7136 0.11832 11.725-1.543 1.5055-0.83064 2.6968-2.2356 3.3555-3.9902 0.65866-1.7547 0.89648-3.8364 0.89648-6.4668v-10h-4v10c0 2.3696-0.25037 4.0229-0.64062 5.0625-0.39025 1.0396-0.80933 1.4878-1.543 1.8926-0.76477 0.42195-2.0609 0.6692-3.8164 0.82031v-21.775h1 5 4v-22h-4v18h-6v-22h1 5 4v-4-12c0-2.6304-0.23782-4.7141-0.89648-6.4688-0.65866-1.7547-1.85-3.1596-3.3555-3.9902-3.011-1.6613-6.6918-1.4828-11.725-1.541h-0.011719-48.023-0.011719zm0.023438 4h48c5.0383 0.05877 8.3519 0.23688 9.8164 1.0449 0.73364 0.40478 1.1527 0.85295 1.543 1.8926 0.39025 1.0396 0.64062 2.6929 0.64062 5.0625v12h-10v26 4 21.957c-0.65683 0.015063-1.2705 0.034461-2 0.042969h-47.977-0.023438c-0.72952-0.008514-1.3432-0.027903-2-0.042969v-71.914c0.65683-0.015064 1.2705-0.03446 2-0.042969z" style="color-rendering:auto;color:#000000;fill:#808080;font-feature-settings:normal;font-variant-alternates:normal;font-variant-caps:normal;font-variant-ligatures:normal;font-variant-numeric:normal;font-variant-position:normal;image-rendering:auto;isolation:auto;mix-blend-mode:normal;shape-padding:0;shape-rendering:auto;solid-color:#000000;text-decoration-color:#000000;text-decoration-line:none;text-decoration-style:solid;text-indent:0;text-orientation:mixed;text-transform:none;white-space:normal"/>
  <path id="path4202" d="m-19.82 105.18c-1.5856 0-3.1101 0.30155-4.5117 0.90625-1.3899 0.57546-2.6327 1.4255-3.6582 2.5176l-0.0098 0.01-0.0098 0.0117c-1.0016 1.0999-1.7696 2.419-2.3047 3.8945-2.16e-4 5.8e-4 2.16e-4 1e-3 0 2e-3 -0.54857 1.4882-0.81055 3.1074-0.81055 4.8223 0 1.7371 0.26004 3.3686 0.81055 4.8613 0.53685 1.4558 1.3064 2.7592 2.3047 3.8555l0.0196 0.0234c1.023 1.0895 2.2544 1.951 3.6367 2.5508l0.01758 8e-3 0.01758 6e-3c1.3999 0.577 2.9172 0.85938 4.498 0.85938 1.5808 0 3.1001-0.28238 4.5-0.85938l0.01758-6e-3 0.01563-8e-3c1.382-0.59961 2.6059-1.4681 3.6074-2.5644 1.0259-1.0957 1.8163-2.4033 2.3555-3.8652 0.5505-1.4928 0.81055-3.1242 0.81055-4.8613 0-1.7127-0.26144-3.3297-0.80859-4.8164-0.53778-1.4859-1.3273-2.8102-2.3594-3.9121-1.0038-1.0983-2.2361-1.9542-3.625-2.5293-1.4021-0.60522-2.9274-0.90625-4.5137-0.90625zm0 4c1.1019 0 2.0603 0.1978 2.9414 0.58008l0.01758 6e-3 0.01758 8e-3c0.8871 0.36564 1.6015 0.86701 2.2188 1.5449l0.01172 0.0117 0.0098 0.0117c0.64062 0.68219 1.1456 1.5091 1.5215 2.5488l4e-3 0.012c0.36629 0.99325 0.56445 2.129 0.56445 3.4414 0 1.3405-0.19966 2.4874-0.56445 3.4766-0.37426 1.0149-0.87844 1.8364-1.5254 2.5254l-0.0098 0.0117-0.01172 0.0117c-0.61969 0.68057-1.3468 1.1958-2.2402 1.5859-0.88313 0.361-1.8489 0.55274-2.9551 0.55274-1.1069 0-2.0715-0.19129-2.9551-0.55274-0.89333-0.38995-1.6368-0.91237-2.2852-1.5996-0.62425-0.68852-1.1255-1.5144-1.502-2.5352-0.3648-0.98919-0.5625-2.136-0.5625-3.4766 0-1.3124 0.1962-2.4482 0.5625-3.4414l4e-3 -0.012c0.37794-1.0454 0.87989-1.8767 1.498-2.5586 0.64582-0.6844 1.3791-1.1932 2.2656-1.5586l0.01758-8e-3 0.01563-6e-3c0.8811-0.38228 1.8395-0.58008 2.9414-0.58008z" style="color-rendering:auto;color:#000000;dominant-baseline:auto;fill:#808080;font-feature-settings:normal;font-variant-alternates:normal;font-variant-caps:normal;font-variant-ligatures:normal;font-variant-numeric:normal;font-variant-position:normal;image-rendering:auto;isolation:auto;mix-blend-mode:normal;shape-padding:0;shape-rendering:auto;solid-color:#000000;text-decoration-color:#000000;text-decoration-line:none;text-decoration-style:solid;text-indent:0;text-orientation:mixed;text-transform:none;white-space:normal"/>
  <path id="path4228" d="m-19.812 133.48c-7.6894 0-12.528 0.60316-15.816 2.9492-1.6442 1.173-2.7651 2.8266-3.375 4.6953-0.60993 1.8687-0.78538 3.9434-0.79102 6.3184l4 0.01c0.0051-2.1674 0.19325-3.8589 0.59375-5.0859 0.4005-1.227 0.93847-1.9982 1.8965-2.6816 1.916-1.367 6.057-2.2051 13.492-2.2051 7.4352 0 11.577 0.83893 13.49 2.2051 0.95676 0.68308 1.4939 1.4532 1.8926 2.6797s0.58237 2.9188 0.58398 5.0859l4-4e-3c-0.00177-2.3751-0.17367-4.4491-0.78125-6.3184s-1.7275-3.5258-3.3711-4.6992c-3.2872-2.3469-8.125-2.9492-15.814-2.9492z" style="color-rendering:auto;color:#000000;dominant-baseline:auto;fill:#808080;font-feature-settings:normal;font-variant-alternates:normal;font-variant-caps:normal;font-variant-ligatures:normal;font-variant-numeric:normal;font-variant-position:normal;image-rendering:auto;isolation:auto;mix-blend-mode:normal;shape-padding:0;shape-rendering:auto;solid-color:#000000;text-decoration-color:#000000;text-decoration-line:none;text-decoration-style:solid;text-indent:0;text-orientation:mixed;text-transform:none;white-space:normal"/>
 </g>
</svg>
