<?xml version="1.0" encoding="UTF-8"?>
<!-- Created with Inkscape (http://www.inkscape.org/) -->
<svg id="svg4874" width="96" height="96" version="1.1" viewBox="0 0 96 96" xmlns="http://www.w3.org/2000/svg" xmlns:cc="http://creativecommons.org/ns#" xmlns:dc="http://purl.org/dc/elements/1.1/" xmlns:rdf="http://www.w3.org/1999/02/22-rdf-syntax-ns#">
 <metadata id="metadata4879">
  <rdf:RDF>
   <cc:Work rdf:about="">
    <dc:format>image/svg+xml</dc:format>
    <dc:type rdf:resource="http://purl.org/dc/dcmitype/StillImage"/>
    <dc:title/>
   </cc:Work>
  </rdf:RDF>
 </metadata>
 <g id="layer1" transform="translate(67.857 -78.505)">
  <rect id="rect4782" transform="rotate(90)" x="78.505" y="-28.143" width="96" height="96" style="color:#000000;fill:none"/>
  <path id="path4179" transform="translate(-67.857 78.505)" d="m19.977 12c-5.0328 0.05818-8.7136-0.12028-11.725 1.541-1.5055 0.83064-2.6968 2.2356-3.3555 3.9902-0.65866 1.7547-0.89648 3.8383-0.89648 6.4688v12h4v-12c0-2.3696 0.25233-4.0229 0.64258-5.0625 0.39025-1.0396 0.80738-1.4878 1.541-1.8926 1.4645-0.80804 4.7782-0.98616 9.8164-1.0449h56c5.0383 0.05877 8.3519 0.23688 9.8164 1.0449 0.73364 0.40478 1.1527 0.85295 1.543 1.8926 0.39025 1.0396 0.64062 2.6929 0.64062 5.0625v12h4v-12c0-2.6304-0.23782-4.7141-0.89648-6.4688-0.65866-1.7547-1.85-3.1596-3.3555-3.9902-3.011-1.6613-6.6918-1.4828-11.725-1.541h-0.01172-56.023zm-15.977 48v16c0 2.6304 0.23782 4.7121 0.89648 6.4668 0.65866 1.7546 1.85 3.1596 3.3555 3.9902 3.011 1.6613 6.6918 1.4848 11.725 1.543h0.01172 56.023 0.01172c5.0328-0.0582 8.7136 0.11832 11.725-1.543 1.5055-0.83064 2.6968-2.2356 3.3555-3.9902 0.65866-1.7547 0.89648-3.8364 0.89648-6.4668v-16h-4v16c0 2.3696-0.25037 4.0229-0.64062 5.0625-0.39025 1.0396-0.80933 1.4878-1.543 1.8926-1.4645 0.80804-4.7782 0.98616-9.8164 1.0449h-55.977-0.023438c-5.0383-0.0588-8.3519-0.23688-9.8164-1.0449-0.73364-0.40478-1.1508-0.85296-1.541-1.8926-0.39025-1.0396-0.64258-2.6929-0.64258-5.0625v-16z" style="block-progression:tb;color-rendering:auto;color:#000000;fill:#808080;image-rendering:auto;isolation:auto;mix-blend-mode:normal;shape-padding:0;shape-rendering:auto;solid-color:#000000;text-decoration-color:#000000;text-decoration-line:none;text-decoration-style:solid;text-indent:0;text-transform:none;white-space:normal"/>
  <path id="path4225" transform="translate(-67.857 78.505)" d="m30.959 27.447c-1.3627 0-2.6313 0.1691-3.8047 0.50976-1.1734 0.34066-2.2334 0.75793-3.1797 1.25-0.94629 0.49207-1.7601 1.0221-2.4414 1.5898-0.68133 0.52993-1.1925 0.98282-1.5332 1.3613l2.6113 3.748c0.26496-0.22711 0.64465-0.54848 1.1367-0.96484 0.49207-0.45422 1.0972-0.87148 1.8164-1.25 0.71918-0.41636 1.533-0.77531 2.4414-1.0781 0.90844-0.30282 1.9121-0.45508 3.0098-0.45508 0.90844 0 1.7598 0.13347 2.5547 0.39844 0.83274 0.22711 1.5506 0.60484 2.1562 1.1348 0.60563 0.52993 1.0793 1.1934 1.4199 1.9883 0.37852 0.79489 0.56836 1.759 0.56836 2.8945 0 1.0598-0.20863 2.0635-0.625 3.0098-0.37852 0.94629-0.90851 1.8748-1.5898 2.7832-0.64348 0.87059-1.4009 1.7595-2.2715 2.668-0.83274 0.87059-1.7217 1.7595-2.668 2.668-1.1355 1.1356-2.2895 2.3083-3.4629 3.5195-1.1734 1.2113-2.2334 2.4987-3.1797 3.8613-0.94629 1.3627-1.7225 2.8211-2.3281 4.373-0.56778 1.5141-0.85156 3.1604-0.85156 4.9395v0.62305c0 0.2271 0.018788 0.45452 0.056641 0.68164h23.846v-4.4844h-18.111c0-0.64348 0.24621-1.4009 0.73828-2.2715 0.52992-0.87059 1.1727-1.7783 1.9297-2.7246 0.75703-0.94629 1.552-1.856 2.3848-2.7266l2.2715-2.2715c1.1355-1.1355 2.2707-2.2895 3.4062-3.4629 1.1355-1.2112 2.158-2.4216 3.0664-3.6328 0.90844-1.2491 1.6283-2.4989 2.1582-3.748 0.56778-1.287 0.85156-2.6119 0.85156-3.9746 0-3.4824-1.0412-6.1699-3.123-8.0625-2.044-1.9304-5.1281-2.8945-9.2539-2.8945zm32.152 0c-1.8169 0-3.4632 0.30258-4.9395 0.9082-1.4762 0.56777-2.7448 1.344-3.8047 2.3281-1.022 0.98413-1.817 2.1381-2.3848 3.4629-0.56778 1.287-0.85156 2.6495-0.85156 4.0879 0 4.1258 1.855 7.2495 5.5645 9.3691-0.87059 0.52993-1.7032 1.1539-2.498 1.873-0.75703 0.68133-1.4373 1.4575-2.043 2.3281-0.56778 0.87059-1.0414 1.8159-1.4199 2.8379-0.34066 0.98415-0.51172 2.0253-0.51172 3.123 0 1.1355 0.20863 2.3478 0.625 3.6348 0.41637 1.2491 1.1174 2.403 2.1016 3.4629 0.98414 1.0598 2.2884 1.9488 3.916 2.668 1.6655 0.68133 3.7291 1.0215 6.1895 1.0215 2.1197 0 3.9935-0.28379 5.6211-0.85156 1.6276-0.52992 2.9714-1.2854 4.0312-2.2695 1.0977-1.022 1.9115-2.1967 2.4414-3.5215 0.56777-1.3627 0.85156-2.838 0.85156-4.4277-0.075703-4.58-2.346-7.9311-6.8125-10.051 0.75703-0.49207 1.4749-1.0596 2.1562-1.7031 0.71918-0.64347 1.3451-1.3821 1.875-2.2148 0.56778-0.83274 1.0019-1.7217 1.3047-2.668 0.34066-0.98415 0.51172-2.0253 0.51172-3.123 0-1.1355-0.22742-2.3083-0.68164-3.5195-0.41637-1.2113-1.1174-2.3088-2.1016-3.293-0.94629-1.022-2.1754-1.8546-3.6895-2.498s-3.3315-0.96484-5.4512-0.96484zm0 4.3711c1.2113 0 2.2337 0.20863 3.0664 0.625 0.83274 0.37851 1.513 0.87094 2.043 1.4766 0.52992 0.56778 0.90961 1.1917 1.1367 1.873 0.26496 0.68133 0.39648 1.3053 0.39648 1.873 0 2.044-0.47168 3.7091-1.418 4.9961-0.94629 1.2491-2.2149 2.3467-3.8047 3.293-1.4384-0.34066-2.6882-0.79355-3.748-1.3613-1.022-0.56777-1.8546-1.2125-2.498-1.9316-0.64348-0.71918-1.1171-1.4934-1.4199-2.3262-0.30281-0.83273-0.45312-1.6673-0.45312-2.5 0-0.68133 0.11273-1.3616 0.33984-2.043 0.26496-0.71918 0.66344-1.3619 1.1934-1.9297 0.52992-0.60563 1.2102-1.098 2.043-1.4766 0.87059-0.37851 1.9118-0.56836 3.123-0.56836zm-2.2148 17.488c1.5141 0.34067 2.8578 0.75598 4.0312 1.248 1.2113 0.45423 2.2337 1.0218 3.0664 1.7031 0.87059 0.68133 1.5341 1.4763 1.9883 2.3848 0.45422 0.90844 0.67969 1.9684 0.67969 3.1797 0 0.79489-0.15031 1.5711-0.45312 2.3281-0.30281 0.75703-0.75765 1.4393-1.3633 2.0449-0.60563 0.56777-1.4006 1.0394-2.3848 1.418-0.94629 0.37851-2.0627 0.56836-3.3496 0.56836-1.4384 0-2.6299-0.20863-3.5762-0.625-0.94629-0.41637-1.7225-0.92758-2.3281-1.5332-0.60563-0.64347-1.0417-1.3238-1.3066-2.043-0.22711-0.75703-0.33984-1.4769-0.33984-2.1582 0-1.9304 0.45289-3.5956 1.3613-4.9961 0.94629-1.4005 2.2713-2.5732 3.9746-3.5195z" style="fill:#808080"/>
  <path id="path4171" d="m-63.857 118.51v16h8v-16h-8z" style="block-progression:tb;color-rendering:auto;color:#000000;fill:#808080;image-rendering:auto;isolation:auto;mix-blend-mode:normal;shape-rendering:auto;solid-color:#000000;text-decoration-color:#000000;text-decoration-line:none;text-decoration-style:solid;text-indent:0;text-transform:none;white-space:normal"/>
  <path id="path4180" d="m16.143 118.51v16h8v-16h-8z" style="block-progression:tb;color-rendering:auto;color:#000000;fill:#808080;image-rendering:auto;isolation:auto;mix-blend-mode:normal;shape-rendering:auto;solid-color:#000000;text-decoration-color:#000000;text-decoration-line:none;text-decoration-style:solid;text-indent:0;text-transform:none;white-space:normal"/>
 </g>
</svg>
