<?xml version="1.0" encoding="UTF-8"?>
<!-- Created with Inkscape (http://www.inkscape.org/) -->
<svg id="svg4874" width="96" height="96" version="1.1" viewBox="0 0 96 96" xmlns="http://www.w3.org/2000/svg" xmlns:cc="http://creativecommons.org/ns#" xmlns:dc="http://purl.org/dc/elements/1.1/" xmlns:rdf="http://www.w3.org/1999/02/22-rdf-syntax-ns#">
 <metadata id="metadata4879">
  <rdf:RDF>
   <cc:Work rdf:about="">
    <dc:format>image/svg+xml</dc:format>
    <dc:type rdf:resource="http://purl.org/dc/dcmitype/StillImage"/>
    <dc:title/>
   </cc:Work>
  </rdf:RDF>
 </metadata>
 <g id="layer1" transform="translate(67.857 -78.505)">
  <g id="g4845" transform="matrix(0 -1 -1 0 373.51 516.51)">
   <g id="g4778" transform="matrix(-.9996 0 0 1 575.94 -611)">
    <g id="g4780" transform="matrix(-1 0 0 1 576 611)">
     <rect id="rect4782" transform="scale(-1,1)" x="-438" y="345.36" width="96.038" height="96" style="color:#000000;fill:none"/>
     <path id="path4971" d="m430 417.98c0 10.256 2.5e-4 15.385-11.93 15.385h-28.669c7.2251 0 9.6212-4.702 9.6212-10.345 0-7.5316-4.9685-9.6939-8.2966-9.7596h15.293v-4.0785h-10.058s3.006-1.7288 3.006-7.2937c0-5.9424-4.198-9.4611-9.4188-9.4611-0.64847 0-1.2737 0.0529-1.8737 0.15225 2.7166-0.94955 4.0601-4.2786 4.0601-9.7696v-4.9539h0.87374c2.4571 0 3.7355 2.1627 3.7355 4.9539 0 4.295-2.7154 4.5172-2.7154 4.5172v4.2248c0.74316 0 5.3948-0.54375 5.3948-9.0325 0-2.9014-0.61106-6.0756-3.012-7.6823l2.2826 1.2159v-4.7536l-13.673-6.8229 13.673-6.8049v-4.3069h19.777c11.93 0 11.93 5.1282 11.93 15.385v49.231zm-31.707-64.615-24.343 12.398v4.5172l6.7855-3.5777 14.297 7.6142c-0.82505-0.34253-1.8087-0.53886-2.984-0.53886h-8.7875c-1.0165 0-2.6052-0.14623-2.6052-0.14623v3.756s1.2826 0.1002 2.5832 0.1002c0 0-3.2705 1.9061-3.2705 7.8225 0 4.3411 2.0923 7.5541 5.9358 7.5541 0.22111 0 0.43479-0.0138 0.64329-0.0361-3.9584 1.1202-6.529 4.5008-6.529 9.0685 0 5.3556 3.0821 7.3257 3.0821 7.3257-1.1676 0-2.4449 0.14224-2.4449 0.14224v3.9864s1.7793-0.0902 3.0461-0.0902h4.7555v15.972c-3.3618 0-5.7595-2.5542-5.7595-6.1038 0-4.3581 3.0601-5.2524 3.0601-5.2524v-4.1807s-5.6854 0.55266-5.6854 9.1787c0 7.3286 3.6045 10.491 9.3286 10.491h-27.503c-11.93 0-11.93-5.1282-11.93-15.385v-49.231c0-10.256-2.6e-4 -15.385 11.93-15.385h36.395zm-1.9679 69.802c0 2.9671-1.8796 5.9736-5.1743 5.9736v-11.657c3.1034 0 5.1743 2.3043 5.1743 5.6831zm-0.11823-20.25c0 4.2864-3.3975 6.266-6.6954 6.266-3.5391 0-6.7334-2.2046-6.7334-6.2921 0-3.425 2.6778-6.238 6.7695-6.238 3.816 0 6.6593 2.4343 6.6593 6.264zm-7.0962-25.06c0 6.4152-0.0203 10.783-3.2064 10.783-1.7514 0-3.2625-1.2968-3.2625-4.3209 0-5.5227 3.7817-6.4623 5.3026-6.4623h1.1663z" style="fill:#808080"/>
    </g>
   </g>
  </g>
 </g>
</svg>
