<?xml version="1.0" encoding="UTF-8"?>
<!-- Created with Inkscape (http://www.inkscape.org/) -->
<svg id="svg4479" width="96" height="96" version="1.1" viewBox="0 0 96 96" xmlns="http://www.w3.org/2000/svg" xmlns:cc="http://creativecommons.org/ns#" xmlns:dc="http://purl.org/dc/elements/1.1/" xmlns:rdf="http://www.w3.org/1999/02/22-rdf-syntax-ns#">
 <metadata id="metadata4484">
  <rdf:RDF>
   <cc:Work rdf:about="">
    <dc:format>image/svg+xml</dc:format>
    <dc:type rdf:resource="http://purl.org/dc/dcmitype/StillImage"/>
    <dc:title/>
   </cc:Work>
  </rdf:RDF>
 </metadata>
 <g id="layer1" transform="translate(833.57 -689.93)">
  <rect id="rect4821" x="-833.57" y="695.93" width="90" height="90" style="fill:none"/>
  <path id="path3" d="m-785.57 693.93c-24.301 0-43.999 19.698-43.999 43.999 0 24.299 19.698 43.999 43.999 43.999 24.301 0 44.001-19.7 44.001-43.999 0-24.301-19.7-43.999-44.001-43.999zm15.117 12.214c0.94673 0.0244 1.9014 0.27946 2.7794 0.78603 2.8101 1.6231 3.7714 5.214 2.1485 8.0238-1.621 2.8098-5.2119 3.7711-8.0217 2.1485-2.808-1.621-3.7714-5.2114-2.1506-8.0196 1.1161-1.9317 3.1616-2.9923 5.2444-2.9387zm-15.117 6.2652c2.3622 0 4.6475 0.32941 6.8186 0.92858 0.38288 2.3607 1.7843 4.5338 4.0182 5.8229 2.23 1.2855 4.8092 1.4161 7.0428 0.57223 4.3437 4.2718 7.1697 10.08 7.5815 16.551l-8.3697 0.12366c-0.77198-8.7652-8.1273-15.639-17.091-15.639-2.5824 0-5.0314 0.57532-7.2273 1.5972l-4.0811-7.3153c3.409-1.6873 7.2475-2.6411 11.308-2.6411zm-14.157 4.2865 4.2949 7.1938c-4.4122 3.1058-7.2965 8.2342-7.2965 14.04 0 5.8056 2.8842 10.936 7.2965 14.04l-4.2949 7.1938c-5.1418-3.4356-8.9666-8.6856-10.554-14.836 1.8544-1.5132 3.0414-3.8167 3.0414-6.3973 0-2.5821-1.187-4.8862-3.0414-6.3994 1.5892-6.1486 5.4141-11.398 10.554-14.834zm-15.76 15.358c3.2442 0 5.8732 2.6296 5.8732 5.8753 0 3.2442-2.6291 5.8753-5.8732 5.8753-3.246 0-5.8753-2.6312-5.8753-5.8753 0-3.2457 2.6294-5.8753 5.8753-5.8753zm47.007 7.3971 8.3739 0.12157c-0.41186 6.471-3.24 12.281-7.5836 16.553-2.2337-0.84389-4.8113-0.71744-7.0428 0.57014-2.2334 1.2914-3.6353 3.4643-4.0182 5.825-2.1708 0.60097-4.4563 0.92857-6.8186 0.92857-4.0612 0-7.8994-0.95382-11.308-2.6432l4.0811-7.3133c2.1956 1.0216 4.6449 1.5951 7.2273 1.5951 8.9644 0 16.319-6.8693 17.089-15.637zm-2.2847 18.517c2.0826-0.0537 4.1278 1.0061 5.2423 2.9366 1.6229 2.8101 0.65895 6.4007-2.1506 8.0217-2.8098 1.6229-6.4007 0.65922-8.0217-2.1506-1.6231-2.8082-0.65923-6.3989 2.1506-8.0217 0.87741-0.50658 1.8328-0.76163 2.7794-0.78604z" style="fill:#808080"/>
 </g>
</svg>
