<?xml version="1.0" encoding="UTF-8" standalone="no"?>
<!-- Created with Inkscape (http://www.inkscape.org/) -->
<svg id="svg3416" xmlns:rdf="http://www.w3.org/1999/02/22-rdf-syntax-ns#" xmlns="http://www.w3.org/2000/svg" height="24" width="24" version="1.1" xmlns:cc="http://creativecommons.org/ns#" xmlns:dc="http://purl.org/dc/elements/1.1/">
 <metadata id="metadata3421">
  <rdf:RDF>
   <cc:Work rdf:about="">
    <dc:format>image/svg+xml</dc:format>
    <dc:type rdf:resource="http://purl.org/dc/dcmitype/StillImage"/>
    <dc:title/>
   </cc:Work>
  </rdf:RDF>
 </metadata>
 <g id="layer1" transform="translate(0 -1028.4)">
  <g id="layer1-7" transform="matrix(1.2496 0 0 1.2496 .015421 -262.64)">
   <path id="path2993" style="fill:#fff" d="m10.281 4c-0.5385 1.1082-1.0543 2.2365-1.5622 3.4062-0.4926 1.1545-1.008 2.3947-1.5313 3.6878-0.1116 0.284-0.2307 0.614-0.3437 0.906h3.4062c0.037-0.101 0.088-0.213 0.125-0.312 0.246-0.632 0.456-1.196 0.656-1.7192 0.2-0.5234 0.378-1.0061 0.531-1.4063 0.154-0.4002 0.267-0.7066 0.344-0.9375 0.093 0.2309 0.221 0.5373 0.375 0.9375s0.331 0.8829 0.531 1.4063c0.216 0.5232 0.457 1.0872 0.688 1.7192 0.037 0.099 0.088 0.211 0.125 0.312h3.5c-0.115-0.292-0.229-0.623-0.344-0.906-0.508-1.2931-0.992-2.5333-1.5-3.6878-0.508-1.1697-1.039-2.298-1.562-3.4062h-3.438zm-5.281 13c-0.3529 0.98-0.7165 1.917-1.0938 3h3.75c0.1694-0.554 0.3312-1.134 0.5313-1.719 0.1582-0.429 0.3188-0.852 0.4687-1.281h-3.6562zm10.219 0c0.146 0.428 0.291 0.853 0.437 1.281 0.216 0.585 0.425 1.165 0.594 1.719h3.844c-0.378-1.083-0.741-2.02-1.094-3h-3.781z" transform="matrix(.80027 0 0 .80027 -.012341 1033.2)"/>
   <path id="rect2995" style="color:#000000;fill:#fff" d="m4.5 13c-0.831 0-1.5 0.669-1.5 1.5s0.669 1.5 1.5 1.5h15c0.831 0 1.5-0.669 1.5-1.5s-0.669-1.5-1.5-1.5h-15zm0 1h9c0.277 0 0.5 0.223 0.5 0.5s-0.223 0.5-0.5 0.5h-9c-0.277 0-0.5-0.223-0.5-0.5s0.223-0.5 0.5-0.5z" transform="matrix(.80027 0 0 .80027 -.012341 1033.2)"/>
  </g>
 </g>
</svg>
