<?xml version="1.0" encoding="UTF-8" standalone="no"?>
<!-- Created with Inkscape (http://www.inkscape.org/) -->
<svg id="svg2" xmlns:rdf="http://www.w3.org/1999/02/22-rdf-syntax-ns#" xmlns="http://www.w3.org/2000/svg" height="22" width="22" version="1.1" xmlns:cc="http://creativecommons.org/ns#" xmlns:dc="http://purl.org/dc/elements/1.1/">
 <metadata id="metadata7">
  <rdf:RDF>
   <cc:Work rdf:about="">
    <dc:format>image/svg+xml</dc:format>
    <dc:type rdf:resource="http://purl.org/dc/dcmitype/StillImage"/>
    <dc:title/>
   </cc:Work>
  </rdf:RDF>
 </metadata>
 <g id="layer1" transform="translate(0 -1030.4)">
  <path id="rect2987" style="color:#000000;fill:#fff" d="m12.094 1032.4c-1.2224-0.053-3.0301 0.874-4.625 2.4688-2.1266 2.1266-3.044 4.6435-2.0625 5.625l6.5 6.5c0.9815 0.9814 3.4984 0.064 5.625-2.0625 2.1266-2.1266 3.044-4.6434 2.0625-5.625l-6.5-6.5c-0.24538-0.2454-0.59254-0.3885-1-0.4063zm-0.3125 0.7813c0.30661-0.023 0.55517 0.024 0.71875 0.1875 0.65433 0.6544-0.26309 2.6693-2.0625 4.4687-0.20355 0.2036-0.4188 0.3823-0.625 0.5625-0.044216 0.041-0.080186 0.085-0.125 0.125-0.20039 0.1784-0.42041 0.3201-0.625 0.4688-0.2279 0.1655-0.43976 0.3078-0.65625 0.4375-0.012485 0.01-0.018834 0.024-0.03125 0.031-0.20239 0.121-0.40471 0.2243-0.59375 0.3125-0.55905 0.2842-0.9375 0.4375-0.9375 0.4375s0.19361-0.1481 0.25-0.1875c-0.49285 0.1297-0.89526 0.1047-1.125-0.125-0.65433-0.6543 0.29434-2.6381 2.0938-4.4375 1.3496-1.3495 2.7989-2.2118 3.7188-2.2812z"/>
  <path id="path3003" style="color:#000000;fill:#fff" d="m11 20c0 0.55228-1.7909 1-4 1s-4-0.44772-4-1 1.7909-1 4-1 4 0.44772 4 1z" transform="matrix(1.125 0 0 1 -1.375 1029.4)"/>
  <path id="path3005" style="color:#000000;fill:#fff" d="m6 1038.4c-2 0-1.9062 2.3991-1.9062 4 0 1.005 0.21875 3 0.21875 3 0.24665 2 1.1375 2.0108 1.375 0l0.125-3c0-3 3.1875-2 3.1875-2h3l-1-2h-1.1875c-1.3324 1.2481-2.9688 1.8125-2.9688 1.8125s1.5511-1.1363 1.47-1.4779c-0.0217-0.7-2.3138-0.3-2.3138-0.3z"/>
 </g>
</svg>
