<?xml version="1.0" encoding="UTF-8" standalone="no"?>
<!-- Generator: Adobe Illustrator 15.0.0, SVG Export Plug-In . SVG Version: 6.00 Build 0)  -->
<!DOCTYPE svg  PUBLIC '-//W3C//DTD SVG 1.1//EN'  'http://www.w3.org/Graphics/SVG/1.1/DTD/svg11.dtd'>
<svg id="Layer_1" xmlns="http://www.w3.org/2000/svg" xml:space="preserve" height="22px" viewBox="0 0 22 22" width="22px" version="1.1" y="0px" x="0px" enable-background="new 0 0 22 22">
		<path d="m19 7.007h-1.8l-5.88-4.9c-0.186-0.154-0.455-0.154-0.641 0l-5.88 4.9h-1.799c-0.552 0-1 0.447-1 1v11c0 0.553 0.448 1 1 1h16c0.552 0 1-0.447 1-1v-11c0-0.552-0.448-1-1-1zm-8-3.865l4.639 3.866h-9.278l4.639-3.866zm-7.5 5.865c-0.276 0-0.5-0.224-0.5-0.5s0.224-0.5 0.5-0.5 0.5 0.223 0.5 0.5c0 0.278-0.224 0.5-0.5 0.5zm2.508 10.002c0-1.548 0.116-2.14 2.046-3.129 1.325-0.68 1.454-1.177 1.454-1.584 0-0.272-0.184-0.694-0.357-0.897-0.171-0.199-0.426-0.301-0.545-0.521-0.197-0.365-0.301-1.092-0.24-1.412 0.043-0.228 0.24-0.25 0.24-0.454 0-0.183-0.043-0.479-0.043-0.979 0-0.705 0.261-1.115 0.545-1.342 0.212-0.17 0.458-0.205 0.61-0.228 0.11-0.137 0.371-0.335 0.765-0.409 0.158-0.03 0.347-0.046 0.523-0.046 0.828 0 1.482 0.318 1.811 0.614 0.363 0.328 0.635 0.705 0.635 1.41 0 0.5-0.047 0.796-0.047 0.979 0 0.204 0.197 0.227 0.242 0.454 0.062 0.32-0.045 1.046-0.242 1.412-0.117 0.223-0.371 0.322-0.545 0.521-0.174 0.205-0.354 0.627-0.354 0.898 0 0.407 0.127 0.904 1.449 1.584 1.924 0.989 2.039 1.581 2.039 3.129h-9.986zm12.492-10.002c-0.275 0-0.5-0.224-0.5-0.5s0.225-0.5 0.5-0.5 0.5 0.224 0.5 0.5c0 0.277-0.225 0.5-0.5 0.5z" fill="#fff"/>
</svg>
