<?xml version="1.0" encoding="UTF-8" standalone="no"?>
<!-- Generator: Adobe Illustrator 15.0.0, SVG Export Plug-In . SVG Version: 6.00 Build 0)  -->
<!DOCTYPE svg  PUBLIC '-//W3C//DTD SVG 1.1//EN'  'http://www.w3.org/Graphics/SVG/1.1/DTD/svg11.dtd'>
<svg id="Layer_1" xmlns="http://www.w3.org/2000/svg" xml:space="preserve" height="22px" viewBox="0 0 22 22" width="22px" version="1.1" y="0px" x="0px" enable-background="new 0 0 22 22">
<path d="m19 3.5h-16c-0.532 0-1 0.467-1 1v13c0 0.533 0.468 1 1 1h16c0.533 0 1-0.467 1-1v-13c0-0.533-0.467-1-1-1zm-14.5 14h-1v-1h1v1zm0-2h-1v-1h1v1zm0-2h-1v-1h1v1zm0-2h-1v-1h1v1zm0-2h-1v-1h1v1zm0-2h-1v-1h1v1zm0-2h-1v-1h1v1zm8.767 6.741c-0.61 0.431-1.226 0.85-1.849 1.259-0.621 0.408-1.226 0.785-1.815 1.129-0.588 0.344-1.124 0.634-1.603 0.871v-9c0.458 0.236 0.981 0.527 1.57 0.871 0.588 0.343 1.194 0.715 1.816 1.113 0.62 0.398 1.242 0.812 1.863 1.242 0.622 0.429 1.205 0.849 1.75 1.257-0.544 0.41-1.122 0.829-1.732 1.258zm5.233 5.259h-1v-1h1v1zm0-2h-1v-1h1v1zm0-2h-1v-1h1v1zm0-2h-1v-1h1v1zm0-2h-1v-1h1v1zm0-2h-1v-1h1v1zm0-2h-1v-1h1v1z" fill="#fff"/>
</svg>
