<?xml version="1.0" encoding="UTF-8" standalone="no"?>
<!-- Generator: Adobe Illustrator 15.0.0, SVG Export Plug-In . SVG Version: 6.00 Build 0)  -->
<!DOCTYPE svg  PUBLIC '-//W3C//DTD SVG 1.1//EN'  'http://www.w3.org/Graphics/SVG/1.1/DTD/svg11.dtd'>
<svg id="Layer_1" xmlns="http://www.w3.org/2000/svg" xml:space="preserve" height="22px" viewBox="0 0 22 22" width="22px" version="1.1" y="0px" x="0px" enable-background="new 0 0 22 22">
<path d="m19 8h-2.73c-0.606-1.838-2.34-6-5.27-6s-4.664 4.162-5.269 6h-2.731c-0.553 0-1 0.447-1 1v10c0 0.553 0.447 1 1 1h16c0.553 0 1-0.447 1-1v-10c0-0.553-0.447-1-1-1zm-8-5.016c1.954 0 3.498 2.938 4.211 5.016h-8.422c0.712-2.078 2.257-5.016 4.211-5.016zm-5 8.016c-0.553 0-1-0.447-1-1s0.447-1 1-1 1 0.447 1 1-0.447 1-1 1zm10 0c-0.553 0-1-0.447-1-1s0.447-1 1-1 1 0.447 1 1-0.447 1-1 1z" fill="#fff"/>
</svg>
