<?xml version="1.0" encoding="UTF-8" standalone="no"?>
<!-- Created with Inkscape (http://www.inkscape.org/) -->
<svg id="svg2" xmlns:rdf="http://www.w3.org/1999/02/22-rdf-syntax-ns#" xmlns="http://www.w3.org/2000/svg" height="22" width="22" version="1.1" xmlns:cc="http://creativecommons.org/ns#" xmlns:dc="http://purl.org/dc/elements/1.1/">
 <metadata id="metadata7">
  <rdf:RDF>
   <cc:Work rdf:about="">
    <dc:format>image/svg+xml</dc:format>
    <dc:type rdf:resource="http://purl.org/dc/dcmitype/StillImage"/>
    <dc:title/>
   </cc:Work>
  </rdf:RDF>
 </metadata>
 <g id="layer1" transform="translate(0 -1030.4)">
  <path id="path4193" style="color:#000000;fill:#fff" d="m4 5c-0.554 0-1 0.446-1 1v13c0 0.554 0.446 1 1 1h14c0.554 0 1-0.446 1-1v-13c0-0.554-0.446-1-1-1h-1v1c0 1.108-0.892 2-2 2s-2-0.892-2-2v-1h-4v1c0 1.108-0.892 2-2 2s-2-0.892-2-2v-1h-1zm1 4h12v9h-12v-9z" transform="translate(0 1030.4)"/>
  <rect id="rect4197" style="color:#000000;fill:#fff" ry="1" height="5" width="2" y="1032.4" x="6"/>
  <path id="path4205" style="color:#000000;fill:#fff" d="m10 1040.4-1 1v1h1v5h2v-7h-2z"/>
  <rect id="rect4213" style="color:#000000;fill:#fff" ry="1" height="5" width="2" y="1032.4" x="14"/>
 </g>
</svg>
