<?xml version="1.0" encoding="UTF-8" standalone="no"?>
<!-- Created with Inkscape (http://www.inkscape.org/) -->
<svg id="svg2" xmlns:rdf="http://www.w3.org/1999/02/22-rdf-syntax-ns#" xmlns="http://www.w3.org/2000/svg" height="24" width="24" version="1.1" xmlns:cc="http://creativecommons.org/ns#" xmlns:dc="http://purl.org/dc/elements/1.1/">
 <metadata id="metadata7">
  <rdf:RDF>
   <cc:Work rdf:about="">
    <dc:format>image/svg+xml</dc:format>
    <dc:type rdf:resource="http://purl.org/dc/dcmitype/StillImage"/>
    <dc:title/>
   </cc:Work>
  </rdf:RDF>
 </metadata>
 <g id="layer1" transform="translate(0 -1028.4)">
  <path id="path3806" style="color:#000000;fill:#fff" d="m12 3c-4.9706 0-9 4.0294-9 9 0 4.971 4.0294 9 9 9 1.668 0 3.223-0.459 4.562-1.25l4.438 1.25-1.25-4.438c0.791-1.339 1.25-2.894 1.25-4.562 0-4.9706-4.029-9-9-9zm3.938 4.7812v4.3438c0.153-0.147 0.315-0.322 0.5-0.5 0.184-0.178 0.352-0.347 0.531-0.531 0.178-0.184 0.34-0.366 0.5-0.532 0.159-0.171 0.322-0.308 0.437-0.437h1.032c-0.147 0.153-0.297 0.316-0.469 0.5s-0.347 0.373-0.531 0.563c-0.185 0.183-0.403 0.372-0.594 0.562-0.185 0.184-0.334 0.366-0.5 0.531 0.191 0.141 0.383 0.292 0.594 0.5 0.216 0.209 0.42 0.443 0.624 0.688 0.211 0.239 0.409 0.498 0.594 0.75 0.185 0.245 0.341 0.473 0.469 0.687h-1.031c-0.134-0.214-0.29-0.436-0.469-0.656-0.172-0.227-0.371-0.454-0.563-0.656-0.191-0.209-0.364-0.391-0.562-0.563-0.198-0.171-0.384-0.321-0.562-0.437v2.312h-0.907v-6.9998l0.907-0.125zm-8.8442 2.2188c0.3571 0 0.6638 0.033 0.9062 0.125 0.2488 0.086 0.447 0.241 0.5938 0.406 0.153 0.16 0.2487 0.336 0.3124 0.563 0.0638 0.22 0.0938 0.48 0.0938 0.75v2.968c-0.0765 0.012-0.1722 0.039-0.3125 0.063-0.1339 0.018-0.2965 0.043-0.4687 0.063-0.1723 0.018-0.3584 0.019-0.5626 0.031-0.1977 0.018-0.396 0.031-0.5937 0.031-0.2806 0-0.5453-0.039-0.7813-0.094s-0.4215-0.133-0.5937-0.25c-0.1722-0.122-0.3106-0.272-0.4063-0.468-0.0956-0.196-0.1562-0.443-0.1562-0.719 0-0.264 0.0478-0.498 0.1562-0.688 0.1149-0.19 0.2774-0.321 0.4688-0.437 0.1913-0.117 0.4011-0.195 0.6562-0.25 0.2552-0.055 0.5319-0.094 0.8126-0.094 0.0892 0 0.1855-0.008 0.2812 0 0.0957 0.01 0.1983 0.044 0.2812 0.062 0.0893 0.012 0.155 0.019 0.2188 0.032 0.0638 0.012 0.0995 0.024 0.125 0.031v-0.25c0-0.141 0.0006-0.271-0.0312-0.406-0.0319-0.141-0.1046-0.271-0.1876-0.375-0.0829-0.111-0.197-0.189-0.3437-0.25-0.1403-0.067-0.3329-0.094-0.5625-0.094-0.2934 0-0.5268 0.02-0.75 0.062-0.2169 0.038-0.3916 0.052-0.5 0.094l-0.0938-0.687c0.1149-0.049 0.2947-0.114 0.5626-0.157 0.2678-0.048 0.5624-0.062 0.875-0.062zm5.0942 0c0.156 0 0.312 0.013 0.468 0.031 0.156 0.012 0.303 0.039 0.438 0.063 0.135 0.018 0.275 0.038 0.375 0.062 0.106 0.025 0.162 0.045 0.219 0.063l-0.157 0.719c-0.106-0.05-0.273-0.076-0.5-0.126-0.227-0.054-0.524-0.093-0.843-0.093-0.277 0-0.513 0.058-0.719 0.156-0.206 0.092-0.313 0.235-0.313 0.437 0 0.105 0.02 0.202 0.063 0.282 0.049 0.08 0.126 0.151 0.219 0.218 0.099 0.062 0.233 0.102 0.374 0.157 0.142 0.055 0.302 0.126 0.5 0.187 0.263 0.086 0.513 0.164 0.719 0.25 0.206 0.08 0.358 0.171 0.5 0.282 0.149 0.11 0.266 0.246 0.344 0.406 0.078 0.153 0.125 0.336 0.125 0.562 0 0.442-0.179 0.774-0.562 1-0.377 0.227-0.923 0.344-1.626 0.344-0.489 0-0.879-0.019-1.156-0.094-0.277-0.067-0.463-0.119-0.562-0.156l0.187-0.75c0.114 0.036 0.283 0.114 0.531 0.188 0.249 0.072 0.589 0.093 1 0.093 0.405 0 0.684-0.033 0.876-0.125 0.198-0.092 0.312-0.235 0.312-0.437 0-0.208-0.09-0.378-0.281-0.5-0.192-0.123-0.529-0.285-0.969-0.438-0.213-0.073-0.395-0.145-0.594-0.219-0.191-0.08-0.358-0.145-0.5-0.25-0.142-0.104-0.258-0.259-0.344-0.406-0.085-0.147-0.125-0.316-0.124-0.531-0.001-0.423 0.169-0.755 0.531-1 0.362-0.251 0.844-0.375 1.469-0.375zm-4.8755 2.688c-0.1339 0-0.2844 0.013-0.4375 0.031-0.1467 0.018-0.2787 0.064-0.4062 0.125-0.1212 0.055-0.2296 0.114-0.3126 0.218-0.0829 0.098-0.125 0.241-0.125 0.407 0 0.306 0.1084 0.533 0.3126 0.656 0.2041 0.117 0.4616 0.156 0.8124 0.156 0.2105 0 0.4031 0.01 0.5626 0 0.1658-0.013 0.2978-0.038 0.4062-0.062v-1.438c-0.0638-0.031-0.1658-0.044-0.3125-0.062-0.1403-0.024-0.2959-0.031-0.5-0.031z" transform="translate(0 1028.4)"/>
 </g>
</svg>
