<?xml version="1.0" encoding="UTF-8" standalone="no"?>
<!-- Created with Inkscape (http://www.inkscape.org/) -->
<svg id="svg2" xmlns:rdf="http://www.w3.org/1999/02/22-rdf-syntax-ns#" xmlns="http://www.w3.org/2000/svg" height="24" width="24" version="1.1" xmlns:cc="http://creativecommons.org/ns#" xmlns:xlink="http://www.w3.org/1999/xlink" xmlns:dc="http://purl.org/dc/elements/1.1/">
 <metadata id="metadata7">
  <rdf:RDF>
   <cc:Work rdf:about="">
    <dc:format>image/svg+xml</dc:format>
    <dc:type rdf:resource="http://purl.org/dc/dcmitype/StillImage"/>
    <dc:title/>
   </cc:Work>
  </rdf:RDF>
 </metadata>
 <g id="layer1" transform="translate(0 -1028.4)">
  <g id="g4036" transform="translate(-67.913 -42.84)">
   <path id="path3079" style="block-progression:tb;text-indent:0;color:#000000;text-transform:none;fill:#fff" d="m80.233 1074.2c-1.6858 0.067-3.3427 0.7647-4.5706 2.0949-2.4558 2.6604-2.3033 6.8521 0.35708 9.3079 2.6604 2.4557 6.8521 2.3032 9.3079-0.3571a1.2548 1.2548 0 1 0 -1.833 -1.714c-1.5393 1.6676-4.0933 1.7774-5.7609 0.238-1.6676-1.5393-1.7774-4.0932-0.23805-5.7608 1.5393-1.6676 4.0933-1.7774 5.7609-0.2381 0.79311 0.7321 1.2632 1.7545 1.3093 2.8328a1.2512 1.2512 0 1 0 2.4996 -0.119c-0.0742-1.7375-0.81696-3.3672-2.0949-4.5468-1.3302-1.2279-3.0514-1.8052-4.7372-1.7378z"/>
   <path id="path3849" style="block-progression:tb;text-indent:0;color:#000000;text-transform:none;fill:#fff" d="m80.812 1079.7a1.2501 1.2501 0 1 0 0 2.5h5a1.2501 1.2501 0 1 0 0 -2.5h-5z"/>
   <path id="path3851" style="block-progression:tb;text-indent:0;color:#000000;text-transform:none;fill:#fff" d="m75.413 1084.2c-1.9241 0-3.5112 1.5871-3.5112 3.5112s1.587 3.5111 3.5112 3.5111c1.9241 0 3.5112-1.587 3.5112-3.5111s-1.587-3.5112-3.5112-3.5112zm0 1.5224c1.1135 0 1.9888 0.8753 1.9888 1.9888 0 1.1134-0.87539 1.9888-1.9888 1.9888-1.1135 0-1.9888-0.8754-1.9888-1.9888 0-1.1135 0.87539-1.9888 1.9888-1.9888z"/>
   <path id="path3853" style="block-progression:tb;text-indent:0;color:#000000;text-transform:none;fill:#fff" d="m78.913 1088.2c-1.0986 0-1.9955 0.8969-1.9955 1.9956 0 1.0986 0.89689 1.9955 1.9955 1.9955s1.9955-0.8969 1.9955-1.9955c0-1.0987-0.89689-1.9956-1.9955-1.9956zm0 0.9911c0.55821 0 1.0045 0.4463 1.0045 1.0045s-0.44626 1.0044-1.0045 1.0044c-0.55821 0-1.0045-0.4462-1.0045-1.0044s0.44626-1.0045 1.0045-1.0045z"/>
  </g>
 </g>
</svg>
