<?xml version="1.0" encoding="UTF-8" standalone="no"?>
<!-- Created with Inkscape (http://www.inkscape.org/) -->
<svg id="svg2" xmlns:rdf="http://www.w3.org/1999/02/22-rdf-syntax-ns#" xmlns="http://www.w3.org/2000/svg" height="24" width="24" version="1.1" xmlns:cc="http://creativecommons.org/ns#" xmlns:dc="http://purl.org/dc/elements/1.1/">
 <metadata id="metadata7">
  <rdf:RDF>
   <cc:Work rdf:about="">
    <dc:format>image/svg+xml</dc:format>
    <dc:type rdf:resource="http://purl.org/dc/dcmitype/StillImage"/>
    <dc:title/>
   </cc:Work>
  </rdf:RDF>
 </metadata>
 <g id="layer1" transform="translate(0 -1028.4)">
  <rect id="rect834" ry="1" style="color:#000000;fill:#fff" transform="translate(0 1028.4)" height="5" width="3" y="16" x="3"/>
  <rect id="rect840" style="color:#000000;fill:#fff" ry="1" height="7" width="3" y="1042.4" x="8"/>
  <rect id="rect842" style="color:#000000;fill:#fff" ry="1" height="10" width="3" y="1039.4" x="13"/>
  <rect id="rect844" style="color:#000000;fill:#fff" ry="1" height="8" width="3" y="1041.4" x="18"/>
  <path id="path846" style="color:#000000;fill:#fff" d="m6 11.5a1.5 1.5 0 1 1 -3 0 1.5 1.5 0 1 1 3 0z" transform="translate(0 1025.4)"/>
  <path id="path848" style="color:#000000;fill:#fff" d="m6 11.5a1.5 1.5 0 1 1 -3 0 1.5 1.5 0 1 1 3 0z" transform="translate(5 1027.4)"/>
  <path id="path850" style="color:#000000;fill:#fff" d="m6 11.5a1.5 1.5 0 1 1 -3 0 1.5 1.5 0 1 1 3 0z" transform="translate(10 1024.4)"/>
  <path id="path852" style="color:#000000;fill:#fff" d="m6 11.5a1.5 1.5 0 1 1 -3 0 1.5 1.5 0 1 1 3 0z" transform="translate(15 1021.4)"/>
  <path id="path854" style="color:#000000;stroke:#fff;fill:none" d="m4.5 1036.9 5 2 5-3 5-3"/>
 </g>
</svg>
