<?xml version="1.0" encoding="UTF-8" standalone="no"?>
<!-- Created with Inkscape (http://www.inkscape.org/) -->
<svg id="svg2" xmlns:rdf="http://www.w3.org/1999/02/22-rdf-syntax-ns#" xmlns="http://www.w3.org/2000/svg" height="24" width="24" version="1.1" xmlns:cc="http://creativecommons.org/ns#" xmlns:xlink="http://www.w3.org/1999/xlink" xmlns:dc="http://purl.org/dc/elements/1.1/">
 <metadata id="metadata7">
  <rdf:RDF>
   <cc:Work rdf:about="">
    <dc:format>image/svg+xml</dc:format>
    <dc:type rdf:resource="http://purl.org/dc/dcmitype/StillImage"/>
    <dc:title/>
   </cc:Work>
  </rdf:RDF>
 </metadata>
 <g id="layer1" transform="translate(0 -1028.4)">
  <g id="g4036" transform="translate(-67.913 -42.84)">
   <path id="path3867" style="color:#000000;fill:#fff" d="m5 3c-0.554 0-1 0.446-1 1v16c0 0.554 0.446 1 1 1h13c0.554 0 1-0.446 1-1v-16c0-0.554-0.446-1-1-1h-13zm1 2h11v3h-11v-3zm0 5h3v2h-3v-2zm4 0h3v2h-3v-2zm4 0h3v2h-3v-2zm-8 3h3v2h-3v-2zm4 0h3v2h-3v-2zm4 0h3v5h-3v-5zm-8 3h3v2h-3v-2zm4 0h3v2h-3v-2z" transform="translate(67.913 1071.2)"/>
  </g>
 </g>
</svg>
