<?xml version="1.0" encoding="UTF-8" standalone="no"?>
<!-- Created with Inkscape (http://www.inkscape.org/) -->
<svg id="svg2" xmlns:rdf="http://www.w3.org/1999/02/22-rdf-syntax-ns#" xmlns="http://www.w3.org/2000/svg" height="24" width="24" version="1.1" xmlns:cc="http://creativecommons.org/ns#" xmlns:xlink="http://www.w3.org/1999/xlink" xmlns:dc="http://purl.org/dc/elements/1.1/">
 <metadata id="metadata7">
  <rdf:RDF>
   <cc:Work rdf:about="">
    <dc:format>image/svg+xml</dc:format>
    <dc:type rdf:resource="http://purl.org/dc/dcmitype/StillImage"/>
    <dc:title/>
   </cc:Work>
  </rdf:RDF>
 </metadata>
 <g id="layer1" transform="translate(0 -1028.4)">
  <g id="g4036" transform="translate(-67.913 -42.84)">
   <path id="path3752" style="color:#000000;fill:#fff" d="m74.913 1074.2c-1.662 0-3 1.338-3 3v7 2 3c0 1.662 1.338 3 3 3h12.5c0.277 0 0.65365-0.2695 0.5-0.5v-1.5h-1v1h-9.7812-0.21875-2-0.5c-0.831 0-1.5-0.669-1.5-1.5s0.669-1.5 1.5-1.5h0.5 11.5 0.5c0.554 0 1-0.446 1-1v-12c0-0.554-0.446-1-1-1h-8-3-1zm4.625 2.25c0.19392-0.024 0.42633 0 0.625 0 0.47679 0 0.81507 0.053 1.125 0.1875 0.30992 0.1273 0.56724 0.27 0.75 0.4688 0.18277 0.1984 0.33475 0.4178 0.40625 0.6562 0.0714 0.2383 0.0625 0.4962 0.0625 0.7188 0 0.27-0.053 0.5352-0.15625 0.75-0.0953 0.2145-0.1615 0.3796-0.3125 0.5625-0.15098 0.1826-0.35642 0.3331-0.53125 0.5-0.17484 0.1589-0.31776 0.3563-0.46875 0.5312-0.15098 0.1669-0.27174 0.3718-0.375 0.5625-0.0953 0.1906-0.1875 0.3552-0.1875 0.5938v0.1562c0 0.048 0.0545 0.077 0.0625 0.125h-1.2812c-0.0159-0.079 0.008-0.1318 0-0.2187-0.008-0.096 0-0.1706 0-0.25 0-0.2623 0.006-0.5436 0.0937-0.75 0.0875-0.2068 0.20863-0.3879 0.34375-0.5625 0.13513-0.175 0.31776-0.3178 0.46875-0.4688 0.15893-0.151 0.27113-0.2553 0.40625-0.4062s0.25625-0.3726 0.34375-0.5313c0.0874-0.159 0.125-0.3093 0.125-0.5 0-0.2622-0.0984-0.4893-0.28125-0.6562-0.17485-0.1751-0.42365-0.2813-0.78125-0.2813-0.27814 0-0.5582 0.053-0.8125 0.125-0.2543 0.063-0.50312 0.1927-0.78125 0.3438l-0.4375-1.125c0.29404-0.1668 0.65775-0.2794 1.0312-0.375 0.19072-0.052 0.36858-0.1321 0.5625-0.1563zm0.375 6.8125c0.2702 0 0.53597 0.099 0.71875 0.2813 0.18275 0.1749 0.21875 0.378 0.21875 0.6562 0 0.2781-0.0359 0.4813-0.21875 0.6563-0.18278 0.1752-0.44855 0.2812-0.71875 0.2812-0.26224 0-0.46553-0.1061-0.65625-0.2812-0.18272-0.175-0.28125-0.3782-0.28125-0.6563 0-0.2782 0.0984-0.4813 0.28125-0.6562 0.19072-0.1827 0.39401-0.2813 0.65625-0.2813z"/>
  </g>
 </g>
</svg>
