<?xml version="1.0" encoding="UTF-8" standalone="no"?>
<!-- Created with Inkscape (http://www.inkscape.org/) -->
<svg id="svg2" xmlns:rdf="http://www.w3.org/1999/02/22-rdf-syntax-ns#" xmlns="http://www.w3.org/2000/svg" height="24" width="24" version="1.1" xmlns:cc="http://creativecommons.org/ns#" xmlns:xlink="http://www.w3.org/1999/xlink" xmlns:dc="http://purl.org/dc/elements/1.1/">
 <metadata id="metadata7">
  <rdf:RDF>
   <cc:Work rdf:about="">
    <dc:format>image/svg+xml</dc:format>
    <dc:type rdf:resource="http://purl.org/dc/dcmitype/StillImage"/>
    <dc:title/>
   </cc:Work>
  </rdf:RDF>
 </metadata>
 <g id="layer1" transform="translate(0 -1028.4)">
  <g id="g4036" transform="translate(-67.913 -42.84)">
   <path id="path3112" style="block-progression:tb;text-indent:0;color:#000000;text-transform:none;fill:#fff" d="m70.906 1082.2v1c0 4.9587 4.0413 9 9 9s9-4.0413 9-9v-1h-1-16-1zm2.2188 2h13.594c-0.49783 3.3832-3.2868 6-6.8125 6-3.5243 0-6.2818-2.6188-6.7812-6z"/>
   <path id="path3114" style="block-progression:tb;text-indent:0;color:#000000;text-transform:none;fill:#fff" d="m12 3c-4.2712 0-7.8364 2.9997-8.75 7h2.0312c0.8547-2.9006 3.5342-5 6.7188-5 3.185 0 5.864 2.0994 6.719 5h2.031c-0.914-4.0003-4.479-7-8.75-7z" transform="translate(67.913 1071.2)"/>
   <rect id="rect3905" style="color:#000000;fill:#fff" transform="translate(67.913 1071.2)" height="1" width="14" y="15" x="5"/>
   <rect id="rect3907" style="color:#000000;fill:#fff" transform="translate(67.913 1071.2)" height="8" width="1" y="12" x="9"/>
   <rect id="rect3909" style="color:#000000;fill:#fff" height="8" width="1" y="1083.2" x="81.912"/>
  </g>
 </g>
</svg>
