<?xml version="1.0" encoding="UTF-8" standalone="no"?>
<!-- Created with Inkscape (http://www.inkscape.org/) -->
<svg id="svg2" xmlns:rdf="http://www.w3.org/1999/02/22-rdf-syntax-ns#" xmlns="http://www.w3.org/2000/svg" height="24" width="24" version="1.1" xmlns:cc="http://creativecommons.org/ns#" xmlns:dc="http://purl.org/dc/elements/1.1/">
 <metadata id="metadata7">
  <rdf:RDF>
   <cc:Work rdf:about="">
    <dc:format>image/svg+xml</dc:format>
    <dc:type rdf:resource="http://purl.org/dc/dcmitype/StillImage"/>
    <dc:title/>
   </cc:Work>
  </rdf:RDF>
 </metadata>
 <g id="layer1" transform="translate(0 -1028.4)">
  <path id="path3017" style="color:#000000;fill:#fff" d="m5.4178 1031.4c-1.2651 0-2.4178 1-2.4178 3 0 4.4217 3.9128 3.9445 5.5265 7 1.6137-3.0555 5.5265-2.5783 5.5265-7 0-3.9832-4.5944-3.6697-5.5265-1-0.46604-1.3348-1.8435-2.0858-3.1086-2z"/>
  <path id="path3790" style="color:#000000;fill:#fff" d="m13.968 1041.4c-1.0302 0.069-1.9689 0.8051-1.9689 2.3951 0 3.5302 3.1863 3.1492 4.5004 5.5886 1.314-2.5 4.5-2.1 4.5-5.6 0-3.1801-3.7413-2.9298-4.5004-0.7984-0.37951-1.0656-1.5012-1.6652-2.5314-1.5967z"/>
 </g>
</svg>
