<?xml version="1.0" encoding="UTF-8" standalone="no"?>
<!-- Generator: Adobe Illustrator 15.0.0, SVG Export Plug-In . SVG Version: 6.00 Build 0)  -->
<!DOCTYPE svg  PUBLIC '-//W3C//DTD SVG 1.1//EN'  'http://www.w3.org/Graphics/SVG/1.1/DTD/svg11.dtd'>
<svg id="Layer_1" xmlns="http://www.w3.org/2000/svg" xml:space="preserve" height="24px" viewBox="0 0 24 24" width="24px" version="1.1" y="0px" x="0px" enable-background="new 0 0 24 24">
<path d="m19.972 3h-15.943c-0.566 0-1.029 0.463-1.029 1.029v15.943c0 0.565 0.463 1.028 1.029 1.028h15.943c0.565 0 1.028-0.463 1.028-1.028v-15.943c0-0.566-0.463-1.029-1.028-1.029zm-11.972 12.5c-1.934 0-3.5-1.566-3.5-3.5s1.566-3.5 3.5-3.5c1.933 0 3.5 1.566 3.5 3.5s-1.567 3.5-3.5 3.5zm8 0c-1.934 0-3.5-1.566-3.5-3.5s1.566-3.5 3.5-3.5c1.933 0 3.5 1.566 3.5 3.5s-1.567 3.5-3.5 3.5z" fill="#fff"/>
</svg>
