<?xml version="1.0" encoding="UTF-8" standalone="no"?>
<!-- Created with Inkscape (http://www.inkscape.org/) -->
<svg id="svg2" xmlns:rdf="http://www.w3.org/1999/02/22-rdf-syntax-ns#" xmlns="http://www.w3.org/2000/svg" height="24" width="24" version="1.1" xmlns:cc="http://creativecommons.org/ns#" xmlns:xlink="http://www.w3.org/1999/xlink" xmlns:dc="http://purl.org/dc/elements/1.1/">
 <metadata id="metadata7">
  <rdf:RDF>
   <cc:Work rdf:about="">
    <dc:format>image/svg+xml</dc:format>
    <dc:type rdf:resource="http://purl.org/dc/dcmitype/StillImage"/>
    <dc:title/>
   </cc:Work>
  </rdf:RDF>
 </metadata>
 <g id="layer1" transform="translate(0 -1028.4)">
  <g id="g4036" transform="translate(-67.913 -42.84)">
   <path id="path4145-2" style="fill:#fff" d="m80.975 1074.3a0.50005 0.50005 0 0 0 -0.0937 0.9375l3.8125 2.1875-1.8438 5.8125-0.0625-5.5312a0.50005 0.50005 0 0 0 -0.28125 -0.4375l-3.9376-2.1563a0.50005 0.50005 0 0 0 -0.34375 -0.062 0.50005 0.50005 0 0 0 -0.125 0.9375l3.6875 2.0313 0.0625 4.1875-0.90625-3.2188a0.50005 0.50005 0 0 0 -0.25 -0.3125l-4.625-2.4375a0.50005 0.50005 0 0 0 -0.28125 -0.062 0.50005 0.50005 0 0 0 -0.4375 0.625l1.9375 7.0625a0.50005 0.50005 0 0 0 0.25 0.2813l4.4062 2.375a0.50024 0.50024 0 0 0 0.53125 0.2187 0.50005 0.50005 0 0 0 0.25 -0.094 0.50024 0.50024 0 0 0 0.0312 -0.031 0.50005 0.50005 0 0 0 0 -0.031 0.50024 0.50024 0 0 0 0.0625 -0.062 0.50005 0.50005 0 0 0 0.0937 -0.1875 0.50894 0.50894 0 0 0 0.0625 -0.125l2.8125-8.875a0.50005 0.50005 0 0 0 -0.25 -0.5937l-4.1562-2.375a0.50005 0.50005 0 0 0 -0.34375 -0.062 0.50005 0.50005 0 0 0 -0.0625 0zm-4.3438 3.3438 3.4062 1.8125 1.5938 5.7812-3.4375-1.875-1.5625-5.7187zm7.8125 5.8125-0.21875 0.75 2.875 1.5625c-0.7411 0.257-1.406 0.2027-2.0938 0.3125-0.43381 0.069-0.87205 0.2186-1.2812 0.5625-0.3704 0.3114-0.70396 0.801-1.0312 1.5-0.45749-0.2224-0.87398-0.2829-1.2188-0.1875-0.39919 0.1106-0.69602 0.3827-0.96875 0.7187-0.31274 0.3851-0.61571 0.8518-1 1.2813-0.21577 0.216-0.42482 0.4354-0.65625 0.625l-5.6562-3.2813c0.69139-0.4773 1.2779-1.0839 1.9688-1.5625 0.34053-0.2399 0.65566-0.3991 1-0.4375 0.35298-0.039 0.75623 0.028 1.25 0.3125l0.0625-0.4687c-0.23371-0.1233-0.48907-0.2796-0.71875-0.375-0.33383-0.1385-0.63656-0.1586-0.9375-0.125-0.45893 0.051-0.8665 0.2572-1.25 0.5312-0.76685 0.5482-1.49 1.3542-2.5 1.9375l-1.1562 0.6875 7.5 4.3125 3.4688-2c0.14763 0.3469 0.70554 0.4346 1.1875 0.1563 0.48139-0.2779 0.75834-0.8268 0.90625-1.3438l4.9375-2.875-4.4688-2.5937z"/>
  </g>
 </g>
</svg>
