<?xml version="1.0" encoding="UTF-8"?>
<!-- Created with Inkscape (http://www.inkscape.org/) -->
<svg id="svg3336" width="512" height="512" style="enable-background:new" version="1.1" viewBox="0 0 512 512" xmlns="http://www.w3.org/2000/svg" xmlns:cc="http://creativecommons.org/ns#" xmlns:dc="http://purl.org/dc/elements/1.1/" xmlns:rdf="http://www.w3.org/1999/02/22-rdf-syntax-ns#" xmlns:xlink="http://www.w3.org/1999/xlink">
 <defs id="defs3338">
  <linearGradient id="linearGradient4221">
   <stop id="stop4223" style="stop-color:#ebebeb" offset="0"/>
   <stop id="stop4225" style="stop-color:#f7f7f7" offset="1"/>
  </linearGradient>
  <clipPath id="clipPath4295">
   <path id="path4297" d="m166.05 18c-145.3 0-166.05 20.737-166.05 165.9v144.2c0 145.16 20.757 165.9 166.05 165.9h179.89c145.3 0 166.05-20.737 166.05-165.9v-144.2c0-145.16-20.757-165.9-166.05-165.9z" style="color:#000000;enable-background:accumulate;fill:#fed965"/>
  </clipPath>
  <linearGradient id="linearGradient4227" x1="144" x2="416" y1="16" y2="487.12" gradientUnits="userSpaceOnUse" xlink:href="#linearGradient4221"/>
  <radialGradient id="radialGradient4422" cx="268" cy="268" r="104" gradientTransform="matrix(-.98031 0 0 .98031 547.04 -26.722)" gradientUnits="userSpaceOnUse">
   <stop id="stop4418" style="stop-opacity:0" offset="0"/>
   <stop id="stop4424" style="stop-color:#6fc5ef;stop-opacity:0" offset=".87711"/>
   <stop id="stop4420" offset="1"/>
  </radialGradient>
  <filter id="filter4378" x="-.012" y="-.012" width="1.024" height="1.024" style="color-interpolation-filters:sRGB">
   <feGaussianBlur id="feGaussianBlur4380" stdDeviation="1.4215723"/>
  </filter>
  <filter id="filter4384" x="-.096" y="-.096" width="1.192" height="1.192" style="color-interpolation-filters:sRGB">
   <feGaussianBlur id="feGaussianBlur4386" stdDeviation="11.372578"/>
  </filter>
  <radialGradient id="radialGradient4394" cx="260.16" cy="262.16" r="169.45" gradientUnits="userSpaceOnUse">
   <stop id="stop4388" offset="0"/>
   <stop id="stop4390" style="stop-opacity:0" offset="1"/>
  </radialGradient>
  <clipPath id="clipPath4333-4">
   <circle id="circle4335-4" transform="scale(-1)" cx="-284.31" cy="-236" r="110" style="color:#000000;enable-background:accumulate;fill:#ed3146"/>
  </clipPath>
  <linearGradient id="linearGradient4291" x1="144" x2="416" y1="16" y2="487.12" gradientTransform="matrix(1.2059 0 0 1.2059 -52.706 -52.706)" gradientUnits="userSpaceOnUse" xlink:href="#linearGradient4221"/>
 </defs>
 <metadata id="metadata3341">
  <rdf:RDF>
   <cc:Work rdf:about="">
    <dc:format>image/svg+xml</dc:format>
    <dc:type rdf:resource="http://purl.org/dc/dcmitype/StillImage"/>
    <dc:title/>
   </cc:Work>
  </rdf:RDF>
 </metadata>
 <g id="layer3">
  <path id="rect4158" d="m0 0v183.9 144.2 183.9h512v-183.9-144.2-183.9h-512z" style="color:#000000;enable-background:accumulate;fill:url(#linearGradient4227)"/>
  <path id="path4271" d="m88 104v16h336v-16zm0 48v16h336v-16zm0 48v16h336v-16zm0 48v16h336v-16zm0 48v16h336v-16zm0 48v16h336v-16zm0 48v16h168.22v-16z" style="color:#000000;enable-background:accumulate;fill:#6b8fea;opacity:.5"/>
  <path id="rect4250" d="m256 0v512h256v-183.9-144.2-183.9h-256z" style="color:#000000;enable-background:accumulate;fill:#fff;opacity:.2"/>
  <path id="rect4252" transform="translate(-32,-32)" d="m32 288v72.102c0 145.16 20.757 165.9 166.05 165.9h179.89c145.3 0 166.05-20.737 166.05-165.9v-72.102z" style="color:#000000;enable-background:accumulate;fill:#fff;opacity:.2"/>
  <g id="g4331" clip-path="url(#clipPath4333-4)" style="enable-background:new">
   <g id="g4285" transform="matrix(1.2059 0 0 1.2059 -52.706 -52.706)" style="stroke-width:.82927">
    <path id="path4278" transform="matrix(.82927 0 0 .82927 43.707 43.707)" d="m147.54-31c-175.21 0-200.24 25.007-200.24 200.05v173.89c0 175.05 25.031 200.05 200.24 200.05h216.93c175.21 0 200.24-25.007 200.24-200.05v-173.89c0-175.05-25.031-200.05-200.24-200.05h-216.93z" style="color:#000000;enable-background:accumulate;fill:url(#linearGradient4291)"/>
    <path id="path4280" d="m88 104v16h336v-16zm0 48v16h336v-16zm0 48v16h336v-16zm0 48v16h336v-16zm0 48v16h336v-16zm0 48v16h336v-16zm0 48v16h168.22v-16z" style="color:#000000;enable-background:accumulate;fill:#6b8fea;opacity:.5"/>
   </g>
  </g>
  <path id="path4299-4" d="m512 315-199.82 197 199.82-2e-5z" style="color:#000000;enable-background:accumulate;fill:#fff;opacity:.6"/>
 </g>
 <g id="layer4">
  <path id="path4382" d="m284.31 120c-62.374 0-113.45 48.659-117.6 110h-0.4043v8c0 28.224 9.962 54.158 26.547 74.484l-9.0312 9.0312-2.8301-2.8301-63 63 22.629 22.629 63-63-2.8301-2.8301 9.0312-9.0313c20.326 16.585 46.26 26.547 74.484 26.547 65.075 0 118-52.925 118-118s-52.925-118-118-118zm0 16c56.428 0 102 45.572 102 102s-45.572 102-102 102c-56.428 0-102-45.572-102-102s45.572-102 102-102z" style="color-rendering:auto;color:#000000;enable-background:accumulate;fill:url(#radialGradient4394);filter:url(#filter4384);font-feature-settings:normal;font-variant-alternates:normal;font-variant-caps:normal;font-variant-ligatures:normal;font-variant-numeric:normal;font-variant-position:normal;image-rendering:auto;isolation:auto;mix-blend-mode:normal;opacity:.4;shape-padding:0;shape-rendering:auto;solid-color:#000000;text-decoration-color:#000000;text-decoration-line:none;text-decoration-style:solid;text-indent:0;text-transform:none;white-space:normal"/>
  <path id="path4365" d="m284.31 120c-62.374 0-113.45 48.659-117.6 110h-0.4043v8c0 28.224 9.962 54.158 26.547 74.484l-9.0312 9.0312-2.8301-2.8301-63 63 22.629 22.629 63-63-2.8301-2.8301 9.0312-9.0313c20.326 16.585 46.26 26.547 74.484 26.547 65.075 0 118-52.925 118-118s-52.925-118-118-118zm0 16c56.428 0 102 45.572 102 102s-45.572 102-102 102c-56.428 0-102-45.572-102-102s45.572-102 102-102z" style="color-rendering:auto;color:#000000;enable-background:accumulate;filter:url(#filter4378);font-feature-settings:normal;font-variant-alternates:normal;font-variant-caps:normal;font-variant-ligatures:normal;font-variant-numeric:normal;font-variant-position:normal;image-rendering:auto;isolation:auto;mix-blend-mode:normal;opacity:.1;shape-padding:0;shape-rendering:auto;solid-color:#000000;text-decoration-color:#000000;text-decoration-line:none;text-decoration-style:solid;text-indent:0;text-transform:none;white-space:normal"/>
  <path id="path4505-6" d="m219.31 124-35.188 71.656v59.25c-4.9399 5.788-10.339 11.62-15.969 17.25-18.503 18.503-39.248 34.687-53.125 39.312l-23.375-23.344-71.656 35.188v170.69h256v-317.56c-15.417-33.444-32.368-45.921-56.688-52.438zm-97.562 229c7e-3 -5e-3 0.0239 5e-3 0.0312 0-2.6107 1.6304-5.251 3.2267-7.9062 4.8125 2.6559-1.5856 5.2637-3.1824 7.875-4.8125zm-24.094 14.062c8e-3 -4e-3 0.0234 4e-3 0.0312 0-2.7418 1.4991-5.5286 2.9806-8.3125 4.4375 2.7843-1.4568 5.5391-2.9386 8.2813-4.4375z" style="color:#000000;enable-background:accumulate;fill-opacity:0;opacity:.05"/>
  <path id="path4480" d="m184.31 336 24-24" style="color:#000000;enable-background:accumulate;fill:none;stroke-width:24;stroke:#3b63c8"/>
  <circle id="path4260" transform="scale(-1,1)" cx="-284.31" cy="236" r="110" style="color:#000000;enable-background:accumulate;fill-opacity:.54292;fill:#daf0f9;stroke-width:16;stroke:#6b8fea"/>
  <path id="circle4407" d="m284.31 134.05a101.95 101.95 0 0 1 101.95 101.95 101.95 101.95 0 0 1-101.95 101.95 101.95 101.95 0 0 1-101.95-101.95 101.95 101.95 0 0 1 101.95-101.95zm0 19.606a82.346 82.346 0 0 0-82.346 82.346 82.346 82.346 0 0 0 82.346 82.346 82.346 82.346 0 0 0 82.346-82.346 82.346 82.346 0 0 0-82.346-82.346z" style="color:#000000;enable-background:accumulate;fill:url(#radialGradient4422);opacity:.05"/>
  <path id="path4478" d="m129.31 391 63-63" style="color:#000000;enable-background:accumulate;fill:none;stroke-width:32;stroke:#3957a2"/>
  <path id="circle4358" transform="translate(-32,-32)" d="m316.31 150c-62.374 0-113.45 48.659-117.6 110h-0.4043v2h0.4043c4.143-61.341 55.221-110 117.6-110 64.74 0 117.45 52.385 117.99 117 3e-3 -0.33372 0.0137-0.66564 0.0137-1 0-65.075-52.925-118-118-118zm-101.99 119c-3e-3 0.33361-0.0117 0.66562-0.0117 1 0 56.428 45.572 102 102 102 56.428 0 102-45.572 102-102 0-0.33438-9e-3 -0.66639-0.0117-1-0.53569 55.964-45.895 101-101.99 101-56.093 0-101.45-45.036-101.99-101z" style="color-rendering:auto;color:#000000;enable-background:accumulate;fill:#fff;font-feature-settings:normal;font-variant-alternates:normal;font-variant-caps:normal;font-variant-ligatures:normal;font-variant-numeric:normal;font-variant-position:normal;image-rendering:auto;isolation:auto;mix-blend-mode:normal;opacity:.3;shape-padding:0;shape-rendering:auto;solid-color:#000000;text-decoration-color:#000000;text-decoration-line:none;text-decoration-style:solid;text-indent:0;text-transform:none;white-space:normal"/>
  <circle id="circle4415" transform="scale(-1,1)" cx="-315.31" cy="205" r="41.2" style="color:#000000;enable-background:accumulate;fill-opacity:.54292;fill:#fff"/>
 </g>
</svg>
