<?xml version="1.0" encoding="UTF-8"?>
<!-- Created with Inkscape (http://www.inkscape.org/) -->
<svg id="svg3336" width="512" height="512" style="enable-background:new" version="1.1" viewBox="0 0 512 512" xmlns="http://www.w3.org/2000/svg" xmlns:cc="http://creativecommons.org/ns#" xmlns:dc="http://purl.org/dc/elements/1.1/" xmlns:rdf="http://www.w3.org/1999/02/22-rdf-syntax-ns#" xmlns:xlink="http://www.w3.org/1999/xlink">
 <defs id="defs3338">
  <linearGradient id="linearGradient4330-5" x1="235.57" x2="209.44" y1="325.17" y2="310.33" gradientTransform="matrix(.99327 0 0 .99684 -14.427 2.6245)" gradientUnits="userSpaceOnUse">
   <stop id="stop4173-2-9" offset="0"/>
   <stop id="stop4176-5-6" style="stop-opacity:0" offset="1"/>
  </linearGradient>
  <filter id="filter4448" x="-.010645" y="-.01375" width="1.0213" height="1.0275" style="color-interpolation-filters:sRGB">
   <feGaussianBlur id="feGaussianBlur4450" stdDeviation="1.375"/>
  </filter>
  <linearGradient id="linearGradient4469" x1="178.28" x2="432" y1="146.67" y2="278.09" gradientUnits="userSpaceOnUse">
   <stop id="stop4465" style="stop-opacity:0" offset="0"/>
   <stop id="stop4471" offset=".42312"/>
   <stop id="stop4467" style="stop-opacity:0" offset="1"/>
  </linearGradient>
  <filter id="filter4501" x="-.085161" y="-.11" width="1.1703" height="1.22" style="color-interpolation-filters:sRGB">
   <feGaussianBlur id="feGaussianBlur4503" stdDeviation="11"/>
  </filter>
  <linearGradient id="linearGradient4281" x1="-32" x2="131.69" y1="-56.828" y2="-270.51" gradientTransform="matrix(1.0003 0 0 1.0327 31.925 49.571)" gradientUnits="userSpaceOnUse">
   <stop id="stop4275" style="stop-color:#61c9f3" offset="0"/>
   <stop id="stop4277" style="stop-color:#90daf7" offset="1"/>
  </linearGradient>
 </defs>
 <metadata id="metadata3341">
  <rdf:RDF>
   <cc:Work rdf:about="">
    <dc:format>image/svg+xml</dc:format>
    <dc:type rdf:resource="http://purl.org/dc/dcmitype/StillImage"/>
    <dc:title/>
   </cc:Work>
  </rdf:RDF>
 </metadata>
 <g id="layer3">
  <rect id="rect4158-5" transform="scale(1,-1)" x="-.086135" y="-495.71" width="512.17" height="495.71" style="color:#000000;enable-background:accumulate;fill:url(#linearGradient4281)"/>
  <rect id="rect4244" x="-.086135" y="375.67" width="512.17" height="136.33" style="color:#000000;enable-background:accumulate;fill:#85cb39"/>
  <path id="rect4248" d="m297.11 0-159.15 311.65-33 64.022h89.107l194.06-375.67z" style="color:#000000;enable-background:accumulate;fill:#a3e1f8"/>
  <path id="path4266" d="m388.13 0-194.06 375.67h142.05l175.97-335.68v-39.986z" style="color:#000000;enable-background:accumulate;fill:#ffe354"/>
  <path id="path4272" d="m512.09 39.986-175.97 335.68h89.03l86.941-165.85z" style="color:#000000;enable-background:accumulate;fill:#a3e1f8"/>
  <path id="path4390" transform="translate(-32,-32)" d="m224.64 407.67-73.715 136.33h393.16l-1.1956-136.33z" style="color:#000000;enable-background:accumulate;fill:#fff;opacity:.1"/>
 </g>
 <g id="layer4">
  <path id="path4426" transform="matrix(.99327 0 0 .99684 1.4651 .63086)" d="m362 138c-28.719 0-52 23.281-52 52s23.281 52 52 52 52-23.281 52-52-23.281-52-52-52zm-162 56-96 184h90.088 141.91l-70.957-136-20 38.334z" style="color:#000000;enable-background:accumulate;filter:url(#filter4448);opacity:.1"/>
  <path id="path4426-2" transform="matrix(.99327 0 0 .99684 1.4651 .63086)" d="m362 138c-28.719 0-52 23.281-52 52s23.281 52 52 52 52-23.281 52-52-23.281-52-52-52zm-162 56-96 184h90.088 141.91l-70.957-136-20 38.334z" style="color:#000000;enable-background:accumulate;fill:url(#linearGradient4469);filter:url(#filter4501);opacity:.3"/>
  <path id="path4242-5" d="m361.03 136.2c28.526 0 51.65 23.208 51.65 51.836 0 28.628-23.125 51.836-51.65 51.836-28.526 0-51.65-23.208-51.65-51.836 0-28.628 23.125-51.836 51.65-51.836z" style="color:#000000;enable-background:accumulate;fill:#f9f9f9"/>
  <path id="path4244-2" d="m104.77 375.44 95.354-183.42 95.354 183.42z" style="color:#000000;enable-background:accumulate;fill:#f9f9f9"/>
  <path id="path4246-6" d="m194.25 375.44 70.479-135.57 70.479 135.57z" style="color:#000000;enable-background:accumulate;fill:#f9f9f9"/>
  <path id="path4317-0" d="m200.12 192.02-95.354 183.42h89.482l50.612-97.357z" style="color:#000000;enable-background:accumulate;fill:url(#linearGradient4330-5);opacity:.02"/>
  <path id="circle4376-4" d="m361.03 136.2c-28.526 1e-5 -51.65 23.208-51.65 51.836 0.0112 0.27657 0.0249 0.55305 0.0407 0.8294 0.63032-28.156 23.547-50.656 51.609-50.671 28.19 0.0188 51.158 22.719 51.609 51.006 0.0179-0.38793 0.0315-0.77603 0.0407-1.1643-1e-5 -28.628-23.125-51.836-51.65-51.836zm-160.91 55.823-95.354 183.42h1.036l94.318-181.42 44.74 86.061 19.865-38.213 69.444 133.58h1.036l-70.48-135.57-19.865 38.213z" style="color:#000000;enable-background:accumulate;fill:#fff;opacity:.3"/>
  <path id="path4334" d="m361.03 136.2c-28.526 0-51.65 23.208-51.65 51.836 0 0.16717 0.012 0.33161 0.0136 0.49842 0.26791-28.397 23.278-51.337 51.637-51.337 28.359 0 51.369 22.94 51.637 51.337 2e-3 -0.16681 0.0136-0.33125 0.0136-0.49842 0-28.628-23.125-51.836-51.65-51.836zm-160.91 55.823-95.354 183.42h0.51797l94.836-182.42 44.74 86.061 19.865-38.213 69.962 134.57h0.51796l-70.48-135.57-19.865 38.213z" style="color:#000000;enable-background:accumulate;fill:#fff"/>
 </g>
</svg>
