<?xml version="1.0" encoding="UTF-8"?>
<!-- Created with Inkscape (http://www.inkscape.org/) -->
<svg id="svg3336" width="512" height="512" style="enable-background:new" version="1.1" viewBox="0 0 512 512" xmlns="http://www.w3.org/2000/svg" xmlns:cc="http://creativecommons.org/ns#" xmlns:dc="http://purl.org/dc/elements/1.1/" xmlns:rdf="http://www.w3.org/1999/02/22-rdf-syntax-ns#" xmlns:xlink="http://www.w3.org/1999/xlink">
 <defs id="defs3338">
  <linearGradient id="linearGradient4250" x1="681.47" x2="762.9" y1="15.512" y2="15.512" gradientTransform="translate(-337.23 127.39)" gradientUnits="userSpaceOnUse" spreadMethod="reflect">
   <stop id="stop5590" style="stop-color:#fff" offset="0"/>
   <stop id="stop5592" style="stop-color:#fff;stop-opacity:0" offset="1"/>
  </linearGradient>
  <linearGradient id="linearGradient4317" x1="667.98" x2="667.98" y1="-19.788" y2="282.68" gradientTransform="translate(-307.23 125.39)" gradientUnits="userSpaceOnUse">
   <stop id="stop4313" style="stop-opacity:0" offset="0"/>
   <stop id="stop4319" offset=".50383"/>
   <stop id="stop4315" style="stop-opacity:0" offset="1"/>
  </linearGradient>
  <filter id="filter4321" x="-.13804" y="-.07359" width="1.2761" height="1.1472" style="color-interpolation-filters:sRGB">
   <feGaussianBlur id="feGaussianBlur4323" stdDeviation="9.3237456"/>
  </filter>
  <filter id="filter4398" x="-.017254" y="-.0091987" width="1.0345" height="1.0184" style="color-interpolation-filters:sRGB">
   <feGaussianBlur id="feGaussianBlur4400" stdDeviation="1.1654682"/>
  </filter>
 </defs>
 <metadata id="metadata3341">
  <rdf:RDF>
   <cc:Work rdf:about="">
    <dc:format>image/svg+xml</dc:format>
    <dc:type rdf:resource="http://purl.org/dc/dcmitype/StillImage"/>
    <dc:title/>
   </cc:Work>
  </rdf:RDF>
 </metadata>
 <g id="layer3">
  <path id="rect4158" d="m0 0v183.9 144.2 183.9h512v-183.9-144.2-183.9h-512z" style="color:#000000;enable-background:accumulate;fill:#37b4f0"/>
  <path id="path4267" d="m289.52 0-93.816 372.93 132.13 139.07h184.17v-183.9-144.2-183.9h-222.48z" style="color:#000000;enable-background:accumulate;fill:#ece9e2"/>
  <path id="path4208" d="m0 0v170.7l201.16 207.1 310.84-331.36v-46.432h-512z" style="color:#000000;enable-background:accumulate;fill:#95d353"/>
  <path id="rect4236" d="m0 141.83v42.07 15.996l305.16 312.11h56.773l-361.94-370.17z" style="color:#000000;enable-background:accumulate;fill-opacity:.99608;fill:#f9f9f9"/>
  <path id="path4288" d="m512 28.695-485.88 483.3h57.428l428.45-426.18v-57.125z" style="color:#000000;enable-background:accumulate;fill:#ffe44c"/>
  <path id="path4269" d="m0 256v72.102 183.9h512v-183.9-72.102h-512z" style="color:#000000;enable-background:accumulate;fill:#fff;opacity:.15"/>
  <rect id="rect4277" x="166.05" y="-8.3374e-8" width="179.89" height="512" style="color:#000000;enable-background:accumulate;fill:#fff;opacity:.15"/>
 </g>
 <g id="layer4">
  <path id="path4505-6" d="m219.31 124-35.188 71.656v59.25c-4.9399 5.788-10.339 11.62-15.969 17.25-18.503 18.503-39.248 34.687-53.125 39.312l-23.375-23.344-71.656 35.188v170.69h256v-317.56c-15.417-33.444-32.368-45.921-56.688-52.438zm-97.562 229c7e-3 -5e-3 0.0239 5e-3 0.0312 0-2.6107 1.6304-5.251 3.2267-7.9062 4.8125 2.6559-1.5856 5.2637-3.1824 7.875-4.8125zm-24.094 14.062c8e-3 -4e-3 0.0234 4e-3 0.0312 0-2.7418 1.4991-5.5286 2.9806-8.3125 4.4375 2.7843-1.4568 5.5391-2.9386 8.2813-4.4375z" style="color:#000000;enable-background:accumulate;fill-opacity:0;opacity:.05"/>
  <path id="path4394" d="m344.62 104c-44.766 0-81.055 36.29-81.055 81.055 0 8.8885 1.4996 17.417 4.1433 25.42 0.26885 0.81383 0.48141 1.6478 0.77513 2.4499 2.0646 6.8316 32.326 106.12 76.222 195.15 0.0123 0 0.0303-7e-3 0.0445-0.0201 0.0175-9e-3 0.0336-0.027 0.0496-0.0448 0.0175-0.0175 0.0338-0.0345 0.0504-0.0462 0.0175-0.0123 0.0338-0.0236 0.0473-0.0236 46.9-97.241 76.712-197.47 76.712-197.47h-0.0236c2.6405-7.9981 4.0898-16.538 4.0898-25.421 2.1e-4 -44.766-36.289-81.055-81.055-81.055z" style="color:#000000;enable-background:accumulate;filter:url(#filter4398);opacity:.1"/>
  <path id="path4307" d="m344.62 104c-44.766 0-81.055 36.29-81.055 81.055 0 8.8885 1.4996 17.417 4.1433 25.42 0.26885 0.81383 0.48141 1.6478 0.77513 2.4499 2.0646 6.8316 32.326 106.12 76.222 195.15 0.0123 0 0.0303-7e-3 0.0445-0.0201 0.0175-9e-3 0.0336-0.027 0.0496-0.0448 0.0175-0.0175 0.0338-0.0345 0.0504-0.0462 0.0175-0.0123 0.0338-0.0236 0.0473-0.0236 46.9-97.241 76.712-197.47 76.712-197.47h-0.0236c2.6405-7.9981 4.0898-16.538 4.0898-25.421 2.1e-4 -44.766-36.289-81.055-81.055-81.055z" style="color:#000000;enable-background:accumulate;fill:url(#linearGradient4317);filter:url(#filter4321);opacity:.4"/>
  <path id="path4789" d="m344.62 102c-44.766 0-81.055 36.29-81.055 81.055 0 8.8885 1.4996 17.417 4.1433 25.42 0.26885 0.81383 0.48141 1.6478 0.77513 2.4499 2.0646 6.8316 32.326 106.12 76.222 195.15 0.0123 0 0.0303-7e-3 0.0445-0.0201 0.0175-9e-3 0.0336-0.027 0.0496-0.0448 0.0175-0.0175 0.0338-0.0345 0.0504-0.0462 0.0175-0.0123 0.0338-0.0236 0.0473-0.0236 46.9-97.241 76.712-197.47 76.712-197.47h-0.0236c2.6405-7.9981 4.0898-16.538 4.0898-25.421 2.1e-4 -44.766-36.289-81.055-81.055-81.055z" style="color:#000000;enable-background:accumulate;fill:#f02e44"/>
  <circle id="path4793" cx="344.62" cy="183.06" r="40.63" style="color:#000000;enable-background:accumulate;fill:#cd0f24"/>
  <path id="path4235" d="m344.62 102c-44.766 0-81.055 36.289-81.055 81.055 0 0.24865 0.0133 0.4941 0.0156 0.74219 0.67307-44.185 36.694-79.797 81.039-79.797 44.349 0 80.372 35.618 81.039 79.809 2e-3 -0.25185 0.0156-0.50149 0.0156-0.7539 2.1e-4 -44.766-36.289-81.055-81.055-81.055z" style="color:#000000;enable-background:accumulate;fill:url(#linearGradient4250);opacity:.4"/>
 </g>
</svg>
