<?xml version="1.0" encoding="UTF-8"?>
<!-- Created with Inkscape (http://www.inkscape.org/) -->
<svg id="svg3336" width="512" height="512" style="enable-background:new" version="1.1" viewBox="0 0 512 512" xmlns="http://www.w3.org/2000/svg" xmlns:cc="http://creativecommons.org/ns#" xmlns:dc="http://purl.org/dc/elements/1.1/" xmlns:rdf="http://www.w3.org/1999/02/22-rdf-syntax-ns#" xmlns:xlink="http://www.w3.org/1999/xlink">
 <defs id="defs3338">
  <filter id="filter4340" x="-.01015" y="-.014674" width="1.0203" height="1.0293" style="color-interpolation-filters:sRGB">
   <feGaussianBlur id="feGaussianBlur4342" stdDeviation="0.64284005"/>
  </filter>
  <linearGradient id="linearGradient4354" x1="256" x2="35.696" y1="228.03" y2="228.03" gradientUnits="userSpaceOnUse">
   <stop id="stop4350" offset="0"/>
   <stop id="stop4352" style="stop-opacity:0" offset="1"/>
  </linearGradient>
  <filter id="filter4422" x="-.1218" y="-.17609" width="1.2436" height="1.3522" style="color-interpolation-filters:sRGB">
   <feGaussianBlur id="feGaussianBlur4424" stdDeviation="7.7140806"/>
  </filter>
  <radialGradient id="radialGradient4279" cx="256" cy="165.63" r="512" gradientTransform="matrix(.64453 0 0 .42383 91 96.842)" gradientUnits="userSpaceOnUse">
   <stop id="stop4273" style="stop-color:#fff" offset="0"/>
   <stop id="stop4275" style="stop-color:#fff;stop-opacity:0" offset="1"/>
  </radialGradient>
  <linearGradient id="linearGradient3283" x1="163.84" x2="347.65" y1="19.456" y2="491.52" gradientUnits="userSpaceOnUse">
   <stop id="stop3279" style="stop-color:#073b47" offset="0"/>
   <stop id="stop3281" style="stop-color:#0a5265" offset="1"/>
  </linearGradient>
  <clipPath id="clipPath3271">
   <path id="path3273" d="m0 0v183.9 144.2 183.9h512v-183.9-144.2-183.9h-512z" style="color:#000000;enable-background:accumulate;fill:#f34f17"/>
  </clipPath>
 </defs>
 <metadata id="metadata3341">
  <rdf:RDF>
   <cc:Work rdf:about="">
    <dc:format>image/svg+xml</dc:format>
    <dc:type rdf:resource="http://purl.org/dc/dcmitype/StillImage"/>
    <dc:title/>
   </cc:Work>
  </rdf:RDF>
 </metadata>
 <g id="layer3">
  <path id="rect4158" d="m0 0v183.9 144.2 183.9h512v-183.9-144.2-183.9h-512z" style="color:#000000;enable-background:accumulate;fill:url(#linearGradient3283)"/>
  <g id="g3268" clip-path="url(#clipPath3271)">
   <path id="rect4364" d="m-256-248v16h1024v-16zm0 32v16h1024v-16zm0 32v16h1024v-16zm0 32v16h1024v-16zm0 32v16h1024v-16zm0 32v16h1024v-16zm0 32v16h1024v-16zm0 32v16h1024v-16zm0 32v16h1024v-16zm0 32v16h1024v-16zm0 32v16h1024v-16zm0 32v16h1024v-16zm0 32v16h1024v-16zm0 32v16h1024v-16zm0 32v16h1024v-16zm0 32v16h1024v-16zm0 32v16h1024v-16zm0 32v16h1024v-16zm0 32v16h1024v-16zm0 32v16h1024v-16zm0 32v16h1024v-16zm0 32v16h1024v-16zm0 32v16h1024v-16zm0 32v16h1024v-16zm0 32v16h1024v-16zm0 32v16h1024v-16zm0 32v16h1024v-16zm0 32v16h1024v-16zm0 32v16h1024v-16zm0 32v16h1024v-16zm0 32v16h1024v-16zm0 32v16h1024v-16z" style="color:#000000;enable-background:accumulate;fill:url(#radialGradient4279);opacity:.03"/>
  </g>
  <path id="rect4322" d="m256 0v512h256v-183.9-144.2-183.9h-256z" style="color:#000000;enable-background:accumulate;fill:#fff;opacity:.03"/>
 </g>
 <g id="layer4">
  <path id="path4336" transform="matrix(1.0403 0 0 1.0432 -4.1883 -5.9262)" d="m108.94 138-4.9353 14.806 50.1 20.04-50.1 20.04 4.9353 14.806 64.458-27.219v-15.254zm66.288 90.031v15.105h74.777v-15.105z" style="enable-background:new;filter:url(#filter4340);opacity:.1"/>
  <path id="path4344" transform="matrix(1.0403 0 0 1.0432 -4.1883 -5.9262)" d="m108.94 138-4.9353 14.806 50.1 20.04-50.1 20.04 4.9353 14.806 64.458-27.219v-15.254zm66.288 90.031v15.105h74.777v-15.105z" style="enable-background:new;fill:url(#linearGradient4354);filter:url(#filter4422);opacity:.6"/>
  <path id="path4505-6" d="m219.31 124-35.188 71.656v59.25c-4.9399 5.788-10.339 11.62-15.969 17.25-18.503 18.503-39.248 34.687-53.125 39.312l-23.375-23.344-71.656 35.188v170.69h256v-317.56c-15.417-33.444-32.368-45.921-56.688-52.438zm-97.562 229c7e-3 -5e-3 0.0239 5e-3 0.0312 0-2.6107 1.6304-5.251 3.2267-7.9062 4.8125 2.6559-1.5856 5.2637-3.1824 7.875-4.8125zm-24.094 14.062c8e-3 -4e-3 0.0234 4e-3 0.0312 0-2.7418 1.4991-5.5286 2.9806-8.3125 4.4375 2.7843-1.4568 5.5391-2.9386 8.2813-4.4375z" style="color:#000000;enable-background:accumulate;fill-opacity:0;opacity:.05"/>
  <path id="path4212" d="m109.14 135.95-5.1343 15.446 52.121 20.906-52.121 20.906 5.1343 15.446 67.057-28.395v-15.914zm68.961 93.922v15.758h77.792v-15.758z" style="enable-background:new;fill:#bdc5c5"/>
  <path id="path4327" d="m109.14 135.95-5.1346 15.447 0.6116 0.2445 4.523-13.605 67.056 28.395v-2.0864zm44.384 37.395-49.519 19.864 0.6116 1.8419 51.508-20.663zm24.576 56.527v2.0864h77.793v-2.0864z" style="enable-background:new;fill:#fff;opacity:.4"/>
 </g>
</svg>
