<?xml version="1.0" encoding="UTF-8"?>
<!-- Created with Inkscape (http://www.inkscape.org/) -->
<svg id="svg3336" width="512" height="512" style="enable-background:new" version="1.1" viewBox="0 0 512 512" xmlns="http://www.w3.org/2000/svg" xmlns:cc="http://creativecommons.org/ns#" xmlns:dc="http://purl.org/dc/elements/1.1/" xmlns:rdf="http://www.w3.org/1999/02/22-rdf-syntax-ns#" xmlns:xlink="http://www.w3.org/1999/xlink">
 <defs id="defs3338">
  <linearGradient id="linearGradient4428" x1="243.09" x2="243.09" y1="399.04" y2="20" gradientTransform="matrix(1.375 0 0 1 -708 5.2452e-6)" gradientUnits="userSpaceOnUse">
   <stop id="stop4344" style="stop-color:#0b3495" offset="0"/>
   <stop id="stop4347" style="stop-color:#0b3495;stop-opacity:0" offset="1"/>
  </linearGradient>
  <linearGradient id="linearGradient4424" x1="192" x2="192" y1="400" y2="20" gradientTransform="matrix(1.0714 0 0 1 -530.29 5.2452e-6)" gradientUnits="userSpaceOnUse">
   <stop id="stop4306" style="stop-color:#0b3495" offset="0"/>
   <stop id="stop4308" style="stop-color:#0b3495;stop-opacity:.084577" offset="1"/>
  </linearGradient>
  <linearGradient id="linearGradient4277" x1="112" x2="256" y1="258" y2="258" gradientTransform="translate(5e-6 5.2452e-6)" gradientUnits="userSpaceOnUse" spreadMethod="reflect">
   <stop id="stop4348" style="stop-color:#1d3095;stop-opacity:0" offset="0"/>
   <stop id="stop4346" style="stop-color:#1d3095" offset="1"/>
  </linearGradient>
  <filter id="filter4279" x="-.096" y="-.096" width="1.192" height="1.192" style="color-interpolation-filters:sRGB">
   <feGaussianBlur id="feGaussianBlur4281" stdDeviation="11.52"/>
  </filter>
  <filter id="filter4265" x="-.012" y="-.012" width="1.024" height="1.024" style="color-interpolation-filters:sRGB">
   <feGaussianBlur id="feGaussianBlur4267" stdDeviation="1.44"/>
  </filter>
  <filter id="filter3317" x="-.1632" y="-.068" width="1.3264" height="1.136" style="color-interpolation-filters:sRGB">
   <feGaussianBlur id="feGaussianBlur3319" stdDeviation="8.1599999"/>
  </filter>
  <clipPath id="clipPath3324">
   <path id="path3326" transform="scale(-1,1)" d="m-376 400a144 144 0 0 1-124.71-72 144 144 0 0 1 0-144 144 144 0 0 1 124.71-72" style="color:#000000;enable-background:accumulate;fill:#6b8fea"/>
  </clipPath>
  <filter id="filter3375" x="-.20509" y="-.062667" width="1.4102" height="1.1253" style="color-interpolation-filters:sRGB">
   <feGaussianBlur id="feGaussianBlur3377" stdDeviation="7.52"/>
  </filter>
  <clipPath id="clipPath3382">
   <path id="path3384" transform="scale(-1,1)" d="m-356 400a144 144 0 0 1-124.71-72 144 144 0 0 1 0-144 144 144 0 0 1 124.71-72" style="color:#000000;enable-background:accumulate;fill:#6b8fea"/>
  </clipPath>
  <linearGradient id="linearGradient4201-3" x1="217.83" x2="302.75" y1="15.872" y2="496" gradientUnits="userSpaceOnUse">
   <stop id="stop4197-7" style="stop-color:#193fbe" offset="0"/>
   <stop id="stop3316" style="stop-color:#1b6de8" offset=".4955"/>
   <stop id="stop4199-5" style="stop-color:#4195ff" offset="1"/>
  </linearGradient>
  <linearGradient id="linearGradient3327" x1="444.33" x2="-101.95" y1="382.2" y2="381.13" gradientTransform="matrix(1.0498 0 0 1.0498 -46.943 -45.743)" gradientUnits="userSpaceOnUse">
   <stop id="stop3328" style="stop-color:#67d3f7" offset="0"/>
   <stop id="stop3330" style="stop-color:#67d3f7;stop-opacity:0" offset="1"/>
  </linearGradient>
 </defs>
 <metadata id="metadata3341">
  <rdf:RDF>
   <cc:Work rdf:about="">
    <dc:format>image/svg+xml</dc:format>
    <dc:type rdf:resource="http://purl.org/dc/dcmitype/StillImage"/>
    <dc:title/>
   </cc:Work>
  </rdf:RDF>
 </metadata>
 <g id="layer3">
  <path id="rect4158-3" d="m0 0v183.9 144.2 183.9h512v-183.9-144.2-183.9h-512z" style="color:#000000;enable-background:accumulate;fill:url(#linearGradient4201-3)"/>
  <path id="path4252-3" d="m258.55 105.44c-48.071-0.51422-92.846 22.77-123.34 60.547l-135.21 167.48v178.53h241.45l134.14-164.79c50.641-66.829 37.882-161.57-28.5-211.62-24.22-18.259-53.458-28.725-83.881-30.027-1.5574-0.0666-3.1114-0.10842-4.6621-0.125z" style="color:#000000;enable-background:accumulate;fill:url(#linearGradient3327)"/>
  <path id="rect4345" d="m256 0v512h256v-183.9-144.2-183.9h-256z" style="color:#000000;enable-background:accumulate;fill:#fff;opacity:.08"/>
 </g>
 <g id="layer4">
  <circle id="circle4258" transform="matrix(1.0498 0 0 1.0498 -12.749 -12.749)" cx="256" cy="258" r="144" style="color:#000000;enable-background:accumulate;filter:url(#filter4265);opacity:.1"/>
  <path id="path4353" d="m175.84 127.92a151.17 151.17 0 0 0-6.1717 4.1992h172.86a151.17 151.17 0 0 0-6.5694-4.1992zm-44.053 41.992a151.17 151.17 0 0 0-2.6819 4.1992h253.96a151.17 151.17 0 0 0-3.0038-4.1992zm-20.354 41.992a151.17 151.17 0 0 0-1.0703 4.1992h291.42a151.17 151.17 0 0 0-1.3369-4.1992zm-6.4977 41.992a151.17 151.17 0 0 0-0.10455 2.0996 151.17 151.17 0 0 0 0.0738 2.0996h302.16a151.17 151.17 0 0 0 0.10456-2.0996 151.17 151.17 0 0 0-0.0738-2.0996zm5.2818 41.992a151.17 151.17 0 0 0 1.3369 4.1992h289.02a151.17 151.17 0 0 0 1.0703-4.1992zm18.726 41.992a151.17 151.17 0 0 0 3.0038 4.1992h248.27a151.17 151.17 0 0 0 2.6819-4.1992zm40.53 41.992a151.17 151.17 0 0 0 6.5694 4.1992h160.12a151.17 151.17 0 0 0 6.1717-4.1992z" style="color-rendering:auto;color:#000000;enable-background:accumulate;fill:#70c6f7;image-rendering:auto;isolation:auto;mix-blend-mode:normal;opacity:.15;shape-rendering:auto;solid-color:#000000;text-decoration-color:#000000;text-decoration-line:none;text-decoration-style:solid;text-indent:0;text-transform:none;white-space:normal"/>
  <circle id="circle4269" transform="matrix(-1.0498 0 0 -1.0498 524.75 528.95)" cx="256" cy="258" r="144" style="color:#000000;enable-background:accumulate;fill:url(#linearGradient4277);filter:url(#filter4279);opacity:.6"/>
  <circle id="path4252" cx="256" cy="256" r="151.17" style="color:#000000;enable-background:accumulate;fill:#3fc1ff"/>
  <path id="circle4373" d="m256 104.83a151.17 151.17 0 0 0-151.17 151.17 151.17 151.17 0 0 0 151.17 151.17v-302.34z" style="color:#000000;enable-background:accumulate;fill:#f2fafe"/>
  <g id="g3321" transform="matrix(1.0498 0 0 1.0498 -138.73 -12.749)" clip-path="url(#clipPath3324)">
   <path id="path4410" transform="matrix(-1,0,0,1,120,0)" d="m-256 402a120 144 0 0 1-103.92-72 120 144 0 0 1 0-144 120 144 0 0 1 103.92-72" style="color:#000000;enable-background:accumulate;fill:url(#linearGradient4424);filter:url(#filter3317);opacity:.4"/>
  </g>
  <path id="path4412" transform="scale(-1,1)" d="m-256 407.17a125.98 151.17 0 0 1-109.1-75.586 125.98 151.17 0 0 1-1e-5 -151.17 125.98 151.17 0 0 1 109.1-75.586" style="color:#000000;enable-background:accumulate;fill:#88e0ff"/>
  <path id="path3397" d="m256 104.83v2.0996a125.98 151.17 0 0 1 109.1 75.586 125.98 151.17 0 0 1 16.807 77.607 125.98 151.17 0 0 0-16.807-79.707 125.98 151.17 0 0 0-109.1-75.586z" style="color:#000000;enable-background:accumulate;fill:#fff;opacity:.3"/>
  <g id="g3379" transform="matrix(1.0498 0 0 1.0498 -117.73 -12.749)" clip-path="url(#clipPath3382)">
   <path id="path4416" transform="scale(-1,1)" d="m-356 402a88 144 0 0 1-76.21-72 88 144 0 0 1 0-144 88 144 0 0 1 76.21-72" style="color:#000000;enable-background:accumulate;fill:url(#linearGradient4428);filter:url(#filter3375);opacity:.4"/>
  </g>
  <path id="path4418" transform="scale(-1,1)" d="m-256 407.17a92.383 151.17 0 0 1-80.006-75.586 92.383 151.17 0 0 1 0-151.17 92.383 151.17 0 0 1 80.006-75.586" style="color:#000000;enable-background:accumulate;fill:#fff"/>
  <path id="path4427" d="m256 104.83a151.17 151.17 0 0 0-22.302 1.8453l-23.044 16.212 39.829-6.8545 5.5176 2.6983v-13.902zm-46.977 23.282-33.192 1.7552 1.1995 15.546-40.153 33.296-16.323 48.316 11.427 46.681 34.602 43.743-13.709-44.071-11.427-14.689 20.891-4.8964 5.2224 19.913 8.1626-19.587 38.521-18.281 0.97803-10.121 15.019-2.6102-10.775-29.38-16.647 8.8146-8.8146-9.7947 13.385-12.077 23.83 7.1805-2.6122-36.235-21.872-7.8346 2.2862-15.669zm46.977 27.715-19.231 3.297 15.343 48.968 3.8875-4.4863v-47.778zm-82.885 155.42-17.629 23.83 10.447 23.506 18.933 13.709 2.6409 18.47a151.17 151.17 0 0 0 30.783 11.515l35.784-11.378 1.9274-3.4877v-29.384l-25.431-17.4-20.239-2.2841-9.7947-15.343-27.42-11.753z" style="color:#000000;enable-background:accumulate;fill:#4bcbf6;opacity:.35"/>
  <path id="path4427-6" d="m256 104.68v0.14763 13.902l14.476 11.665 17.627 6.2045 4.7533 22.524-10.101 2.9382 3.3675 25.136 9.9035 9.1406-4.1599 28.726 4.9524 9.4667-6.1404 3.2663 4.3577 16.647 8.3174-7.5065 2.3773-22.526 12.278 3.2642 4.5568-6.5284-1.7826-10.119-6.3369-9.1427 11.289-11.425-2.7741 20.568 7.724 9.4646-7.1294 19.913-7.3284 2.9382-2.5751-4.2443-16.24 20.894-5.3479 22.852-0.99023 30.684 11.289 16.323 13.469-7.1825 10.497-5.5484 1.7826 19.259-2.855 19.067c14.561-27.534 22.593-62.816 22.616-99.342-0.0355-3.2454-0.13416-6.488-0.29608-9.723l-15.108-23.278 14.138 9.0874c-7.122-73.396-45.511-127.42-90.607-127.51zm9.1285 48.566-9.1285 2.5794v47.778l10.516-19.997zm16.242 40.807 1.3858 24.156 7.923 1.6321 1.5836-11.101-0.19779-1.3041zm-25.37 163.97v29.384l7.1493-21.322z" style="color:#000000;enable-background:accumulate;fill:#4bcbf6;opacity:.25"/>
  <path id="circle4283" d="m256 104.83a151.17 151.17 0 0 0-151.17 151.17 151.17 151.17 0 0 0 0.043 1.2282 151.17 151.17 0 0 1 151.13-150.3 151.17 151.17 0 0 1 151.13 149.94 151.17 151.17 0 0 0 0.043-0.87142 151.17 151.17 0 0 0-151.17-151.17z" style="color:#000000;enable-background:accumulate;fill:#fff;opacity:.3"/>
  <path id="path3392" d="m256 104.83v2.0996a92.383 151.17 0 0 1 80.006 75.586 92.383 151.17 0 0 1 12.325 77.605 92.383 151.17 0 0 0-12.325-79.705 92.383 151.17 0 0 0-80.006-75.586z" style="color:#000000;enable-background:accumulate;fill:#fff;opacity:.6"/>
 </g>
</svg>
