<?xml version="1.0" encoding="UTF-8" standalone="no"?>
<!-- Created with Inkscape (http://www.inkscape.org/) -->

<svg xmlns:dc="http://purl.org/dc/elements/1.1/" xmlns:cc="http://creativecommons.org/ns#" xmlns:rdf="http://www.w3.org/1999/02/22-rdf-syntax-ns#" xmlns:svg="http://www.w3.org/2000/svg" xmlns="http://www.w3.org/2000/svg" xmlns:xlink="http://www.w3.org/1999/xlink" xmlns:sodipodi="http://sodipodi.sourceforge.net/DTD/sodipodi-0.dtd" xmlns:inkscape="http://www.inkscape.org/namespaces/inkscape" width="135" height="190" id="svg4008" sodipodi:version="0.32" inkscape:version="0.48.1 r9760" version="1.0" sodipodi:docname="microscope.svg" inkscape:output_extension="org.inkscape.output.svg.inkscape">
  <defs id="defs4010">
    <linearGradient id="linearGradient3987">
      <stop id="stop3989" offset="0" style="stop-color:#e0f2ff;stop-opacity:1;" />
      <stop id="stop3991" offset="1" style="stop-color:#0054ad;stop-opacity:1;" />
    </linearGradient>
    <linearGradient id="linearGradient3236">
      <stop style="stop-color:#0054ad;stop-opacity:1;" offset="0" id="stop3238" />
      <stop style="stop-color:#a1d9ff;stop-opacity:1;" offset="1" id="stop3240" />
    </linearGradient>
    <linearGradient id="linearGradient3196">
      <stop style="stop-color:#626262;stop-opacity:1;" offset="0" id="stop3198" />
      <stop style="stop-color:#b7b7b7;stop-opacity:1;" offset="1" id="stop3200" />
    </linearGradient>
    <inkscape:perspective sodipodi:type="inkscape:persp3d" inkscape:vp_x="0 : 526.18109 : 1" inkscape:vp_y="0 : 1000 : 0" inkscape:vp_z="744.09448 : 526.18109 : 1" inkscape:persp3d-origin="372.04724 : 350.78739 : 1" id="perspective4016" />
    <linearGradient inkscape:collect="always" xlink:href="#linearGradient3196" id="linearGradient3164" gradientUnits="userSpaceOnUse" gradientTransform="matrix(4.047932,0,0,4.047932,-657.7099,-1243.626)" x1="250.57143" y1="437.85324" x2="252.0625" y2="437.85324" />
    <linearGradient inkscape:collect="always" xlink:href="#linearGradient3236" id="linearGradient3167" gradientUnits="userSpaceOnUse" gradientTransform="matrix(4.047932,0,0,4.047932,-657.7099,-1241.626)" x1="249.94643" y1="423.07648" x2="255.99106" y2="423.07648" />
    <linearGradient inkscape:collect="always" xlink:href="#linearGradient3236" id="linearGradient3170" gradientUnits="userSpaceOnUse" gradientTransform="matrix(4.047932,0,0,4.047932,-657.7099,-1239.626)" x1="248.3839" y1="415.0675" x2="253.625" y2="415.0675" />
    <linearGradient inkscape:collect="always" xlink:href="#linearGradient3236" id="linearGradient3173" gradientUnits="userSpaceOnUse" gradientTransform="matrix(4.047932,0,0,4.047932,-657.7099,-1243.626)" x1="249.23213" y1="430.57648" x2="253.35715" y2="430.57648" />
    <linearGradient inkscape:collect="always" xlink:href="#linearGradient3196" id="linearGradient3176" gradientUnits="userSpaceOnUse" gradientTransform="matrix(3.936532,0,0,5.693608,-629.7153,-1944.172)" x1="249.99106" y1="426.38004" x2="252.10715" y2="426.38004" />
    <linearGradient inkscape:collect="always" xlink:href="#linearGradient3236" id="linearGradient3179" gradientUnits="userSpaceOnUse" gradientTransform="matrix(4.047932,0,0,4.047932,-657.7099,-1241.626)" x1="245.57143" y1="443.03183" x2="256.92856" y2="443.03183" />
    <linearGradient inkscape:collect="always" xlink:href="#linearGradient3196" id="linearGradient3183" gradientUnits="userSpaceOnUse" gradientTransform="matrix(4.047932,0,0,4.047932,-657.7099,-1241.626)" x1="257.388" y1="433.3036" x2="263.5154" y2="434.0023" />
    <linearGradient inkscape:collect="always" xlink:href="#linearGradient3196" id="linearGradient3186" gradientUnits="userSpaceOnUse" gradientTransform="matrix(3.973548,0,0,5.09517,-639.0211,-1679.387)" x1="249.8125" y1="419.44254" x2="252.55356" y2="419.44254" />
    <linearGradient inkscape:collect="always" xlink:href="#linearGradient3196" id="linearGradient3189" gradientUnits="userSpaceOnUse" gradientTransform="matrix(4.047932,0,0,4.047932,-657.7099,-1241.626)" x1="259.137" y1="452.696" x2="261.79465" y2="451.64789" />
    <radialGradient inkscape:collect="always" xlink:href="#linearGradient3236" id="radialGradient3983" cx="347.8721" cy="504.4497" fx="347.8721" fy="504.4497" r="27.3417" gradientTransform="matrix(0.7595802,2.048056,-1.121226,0.4158393,644.6082,-408.9194)" gradientUnits="userSpaceOnUse" />
    <radialGradient inkscape:collect="always" xlink:href="#linearGradient3987" id="radialGradient3985" cx="409.2095" cy="471.5014" fx="409.2095" fy="471.5014" r="8.36705" gradientTransform="matrix(-3.351983,0.0987449,-0.0648393,-2.201026,1811.445,1468.882)" gradientUnits="userSpaceOnUse" />
  </defs>
  <sodipodi:namedview id="base" pagecolor="#ffffff" bordercolor="#666666" borderopacity="1.0" gridtolerance="10000" guidetolerance="10" objecttolerance="10" inkscape:pageopacity="0.0" inkscape:pageshadow="2" inkscape:zoom="2.828427" inkscape:cx="-39.74476" inkscape:cy="94.88052" inkscape:document-units="px" inkscape:current-layer="layer1" showgrid="false" inkscape:window-width="1236" inkscape:window-height="923" inkscape:window-x="156" inkscape:window-y="87" inkscape:window-maximized="0" />
  <metadata id="metadata4013">
    <rdf:RDF>
      <cc:Work rdf:about="">
        <dc:format>image/svg+xml</dc:format>
        <dc:type rdf:resource="http://purl.org/dc/dcmitype/StillImage" />
      </cc:Work>
    </rdf:RDF>
  </metadata>
  <g inkscape:label="Layer 1" inkscape:groupmode="layer" id="layer1" transform="translate(-305.07143,-424.57646)">
    <path sodipodi:nodetypes="csssccssccc" id="path3303" d="m 374.1515,573.9646 c 0,0 2.4995,6.5167 3.6142,10.1199 0.9332,3.0164 4.9662,8.5519 3.2529,11.2041 -2.4381,3.7737 -9.3576,2.3209 -13.3727,4.337 -1.2333,0.6193 -3.2529,3.2528 -3.2529,3.2528 l 68.6703,0 c 0,0 -9.6473,-2.6483 -13.3725,-4.6985 -4.5991,-2.5309 -10.6239,-6.6138 -13.7341,-10.8427 -3.2332,-4.396 -6.5056,-16.9868 -6.5056,-16.9868 l -13.7341,1.8072 -11.5655,1.807 z" style="fill:url(#linearGradient3189);fill-opacity:1;fill-rule:evenodd;stroke:#000000;stroke-width:1;stroke-linecap:butt;stroke-linejoin:round;stroke-opacity:1;stroke-miterlimit:4;stroke-dasharray:none" inkscape:connector-curvature="0" />
    <path style="fill:url(#linearGradient3186);fill-opacity:1;fill-rule:evenodd;stroke:#000000;stroke-width:1;stroke-linecap:butt;stroke-linejoin:round;stroke-miterlimit:4;stroke-opacity:1;stroke-dasharray:none" d="m 347.2707,465.2502 -10e-5,-15.0125 24.1251,-1e-4 0,15.0126 -24.125,0 z" id="path3315" sodipodi:nodetypes="ccccc" inkscape:connector-curvature="0" />
    <path sodipodi:nodetypes="ccsssssssccscscssc" id="path3305" d="m 347.0448,556.9778 0,16.6254 c 0,0 21.7817,0.6683 31.0824,0 5.0596,-0.3635 14.4728,-1.4262 20.2396,-3.6143 4.2771,-1.6226 10.1532,-4.3794 13.0112,-7.9512 1.9029,-2.3781 4.4197,-5.4791 5.6021,-9.2163 1.7337,-5.4803 2.2142,-27.6396 0.1806,-34.8772 -1.3991,-4.98 -4.7602,-10.3857 -7.9513,-14.457 -2.9338,-3.7432 -8.2927,-7.5508 -10.8426,-11.5655 -3.4259,-5.3941 -1.4457,-39.0336 -1.4457,-39.0336 l -18.0712,-0.3614 c 0,0 -0.7374,35.3754 0,51.6834 0.147,3.2495 6.5056,8.6741 6.5056,8.6741 0,0 7.8095,7.9274 9.397,12.2883 1.6338,4.4877 0.7229,15.9027 0.7229,15.9027 0,0 -0.5438,8.4297 -2.8913,10.8427 -4.2584,4.3769 -13.4299,5.2919 -19.5168,5.7828 -6.2669,0.5052 -26.0225,-0.7229 -26.0225,-0.7229 z" style="fill:url(#linearGradient3183);fill-opacity:1;fill-rule:evenodd;stroke:#000000;stroke-width:1;stroke-linecap:butt;stroke-linejoin:round;stroke-opacity:1;stroke-miterlimit:4;stroke-dasharray:none" inkscape:connector-curvature="0" />
    <path id="path3307" d="m 309.4569,605.4084 -0.3614,6.1442 128.6664,0 0,-6.5056 -128.305,0.3614 z" style="fill:#0054ad;fill-opacity:1;fill-rule:evenodd;stroke:#000000;stroke-width:1;stroke-linecap:butt;stroke-linejoin:round;stroke-opacity:1;stroke-miterlimit:4;stroke-dasharray:none" inkscape:connector-curvature="0" />
    <path id="path3309" d="m 326.4437,548.665 0,6.1442 61.8032,0 0,-5.7828 -61.8032,-0.3614 z" style="fill:url(#linearGradient3179);fill-opacity:1;fill-rule:evenodd;stroke:#000000;stroke-width:1;stroke-linecap:butt;stroke-linejoin:round;stroke-miterlimit:4;stroke-opacity:1;stroke-dasharray:none" inkscape:connector-curvature="0" />
    <path sodipodi:nodetypes="ccccc" id="path3313" d="m 347.388,490.5858 -10e-5,-14.234 23.9004,-1e-4 0.3515,14.2341 -24.2518,0 z" style="fill:url(#linearGradient3176);fill-opacity:1;fill-rule:evenodd;stroke:#000000;stroke-width:1;stroke-linecap:butt;stroke-linejoin:round;stroke-miterlimit:4;stroke-opacity:1;stroke-dasharray:none" inkscape:connector-curvature="0" />
    <path sodipodi:nodetypes="ccccc" id="path3311" d="m 343.792,489.5603 0,19.5168 31.0823,-0.3614 0,-19.1554 -31.0823,0 z" style="fill:url(#linearGradient3173);fill-opacity:1;fill-rule:evenodd;stroke:#000000;stroke-width:1;stroke-linecap:butt;stroke-linejoin:round;stroke-miterlimit:4;stroke-opacity:1;stroke-dasharray:none" inkscape:connector-curvature="0" />
    <path sodipodi:nodetypes="ccccc" style="fill:url(#linearGradient3170);fill-opacity:1;fill-rule:evenodd;stroke:#000000;stroke-width:1;stroke-linecap:butt;stroke-linejoin:round;stroke-miterlimit:4;stroke-opacity:1;stroke-dasharray:none" d="m 351.4306,430.9619 0.3614,19.5168 15.8052,-0.3614 0,-19.5169 z" id="path3317" inkscape:connector-curvature="0" />
    <path sodipodi:nodetypes="ccccc" id="path3319" d="m 341.262,465.0079 0,11.9026 64.3332,-0.3614 -0.3614,-11.1798 z" style="fill:url(#linearGradient3167);fill-opacity:1;fill-rule:evenodd;stroke:#000000;stroke-width:1;stroke-linecap:butt;stroke-linejoin:round;stroke-miterlimit:4;stroke-opacity:1;stroke-dasharray:none" inkscape:connector-curvature="0" />
    <path id="path3321" d="m 353.7311,523.7147 0,9.9391 11.9269,0.1807 0,-10.1198 -11.9269,0 z" style="fill:url(#linearGradient3164);fill-opacity:1;fill-rule:evenodd;stroke:#000000;stroke-width:1;stroke-linecap:butt;stroke-linejoin:round;stroke-miterlimit:4;stroke-opacity:1;stroke-dasharray:none" inkscape:connector-curvature="0" />
    <path sodipodi:nodetypes="ccccc" id="path3323" d="m 353.5505,533.8345 0,9.0356 12.1075,0 0,-9.0356 -12.1075,0 z" style="fill:#0054ad;fill-opacity:1;fill-rule:evenodd;stroke:#000000;stroke-width:1;stroke-linecap:butt;stroke-linejoin:round;stroke-miterlimit:4;stroke-opacity:1;stroke-dasharray:none" inkscape:connector-curvature="0" />
    <path style="fill:#0054ad;fill-opacity:1;fill-rule:evenodd;stroke:#000000;stroke-width:1;stroke-linecap:butt;stroke-linejoin:round;stroke-miterlimit:4;stroke-opacity:1;stroke-dasharray:none" d="m 337.7754,522.3288 -3.3616,8.387 11.2385,4.5046 3.3616,-8.387 -11.2385,-4.5046 z" id="path3325" sodipodi:nodetypes="ccccc" inkscape:connector-curvature="0" />
    <path sodipodi:nodetypes="ccccc" id="path3327" d="m 381.2524,522.1481 3.3616,8.387 -11.2385,4.5046 -3.3616,-8.387 11.2385,-4.5046 z" style="fill:#0054ad;fill-opacity:1;fill-rule:evenodd;stroke:#000000;stroke-width:1;stroke-linecap:butt;stroke-linejoin:round;stroke-miterlimit:4;stroke-opacity:1;stroke-dasharray:none" inkscape:connector-curvature="0" />
    <path sodipodi:nodetypes="ccccccc" id="path3329" d="m 342.7078,509.0771 -9.397,9.7584 9.0355,6.5057 32.7087,0 9.9392,-7.2285 -10.4813,-9.7585 -31.8051,0.7229 z" style="fill:url(#radialGradient3983);fill-opacity:1;fill-rule:evenodd;stroke:#000000;stroke-width:1;stroke-linecap:butt;stroke-linejoin:round;stroke-miterlimit:4;stroke-opacity:1;stroke-dasharray:none" inkscape:connector-curvature="0" />
    <path style="fill:url(#radialGradient3985);fill-opacity:1;fill-rule:evenodd;stroke:#000000;stroke-width:1;stroke-linecap:butt;stroke-linejoin:round;stroke-opacity:1;stroke-miterlimit:4;stroke-dasharray:none" d="m 402.3424,449.2739 0,44.455 13.7341,-0.3204 -0.077,-43.8142 -13.6569,-0.3204 z" id="path3331" sodipodi:nodetypes="ccccc" inkscape:connector-curvature="0" />
  </g>
</svg>
