<?xml version="1.0" encoding="UTF-8"?>
<!-- Created with Inkscape (http://www.inkscape.org/) -->
<svg id="svg4874" width="48" height="48" version="1.1" viewBox="0 0 48 48" xmlns="http://www.w3.org/2000/svg" xmlns:cc="http://creativecommons.org/ns#" xmlns:dc="http://purl.org/dc/elements/1.1/" xmlns:rdf="http://www.w3.org/1999/02/22-rdf-syntax-ns#">
 <metadata id="metadata4879">
  <rdf:RDF>
   <cc:Work rdf:about="">
    <dc:format>image/svg+xml</dc:format>
    <dc:type rdf:resource="http://purl.org/dc/dcmitype/StillImage"/>
    <dc:title/>
   </cc:Work>
  </rdf:RDF>
 </metadata>
 <g id="layer1" transform="translate(67.857 -126.51)">
  <path id="path4265-0-4" d="m-67.886 157.51h3.9453c1.6131-1.2144 3.2646-2.4125 4.9922-3.5801 2.1882-1.4795 4.4276-2.8677 6.7168-4.168 2.3242-1.3197 5.5166-2.8953 7.7012-3.9141l0.0078-2e-3h2e-3l0.63477-0.29688 0.63477 0.29688h2e-3l0.0078 2e-3c2.1846 1.0187 5.377 2.5944 7.7012 3.9141 2.2892 1.3002 4.5286 2.6884 6.7168 4.168 1.7276 1.1676 3.381 2.3656 4.9941 3.5801h3.9434c-2.6608-2.0754-5.3457-4.0729-8.082-5.9082-3.0796-2.0659-6.0686-3.9168-8.9629-5.5527-2.6655-1.5064-4.9333-2.6382-6.9551-3.5391-2.0218 0.90085-4.2896 2.0327-6.9551 3.5391-2.8943 1.6359-5.8833 3.4868-8.9629 5.5527-2.7364 1.8353-5.4213 3.8328-8.082 5.9082z" style="fill:#808080"/>
  <rect id="rect4782-01" transform="matrix(0,1,1,0,0,0)" x="78.505" y="-67.857" width="96" height="96" style="color:#000000;fill:none"/>
 </g>
</svg>
