<?xml version="1.0" encoding="UTF-8"?>
<!-- Created with Inkscape (http://www.inkscape.org/) -->
<svg id="svg4479" width="90" height="90" version="1.1" viewBox="0 0 90 90" xmlns="http://www.w3.org/2000/svg" xmlns:cc="http://creativecommons.org/ns#" xmlns:dc="http://purl.org/dc/elements/1.1/" xmlns:rdf="http://www.w3.org/1999/02/22-rdf-syntax-ns#">
 <metadata id="metadata4484">
  <rdf:RDF>
   <cc:Work rdf:about="">
    <dc:format>image/svg+xml</dc:format>
    <dc:type rdf:resource="http://purl.org/dc/dcmitype/StillImage"/>
    <dc:title/>
   </cc:Work>
  </rdf:RDF>
 </metadata>
 <g id="layer1" transform="translate(833.57 -695.93)">
  <g id="g4496" transform="translate(-863.57 -110.43)">
   <g id="g4577" transform="translate(-30 504)">
    <rect id="rect4503" x="60" y="302.36" width="90" height="90" style="color:#000000;fill:none;opacity:.1"/>
    <path id="path4562" d="m108 305.36-6 1.5v13.5h6v-15zm-29.869 10.887-4.2441 4.2441 9.9004 9.8984 4.2422-4.2422-9.8984-9.9004zm53.738 0-9.8984 9.9004 4.2422 4.2422 9.9004-9.8984-4.2441-4.2441zm-26.869 10.113c-11.562 0-21 9.4376-21 21 0 11.562 9.4376 21 21 21s21-9.4376 21-21c0-11.562-9.4376-21-21-21zm0 6v30c-8.3198 0-15-6.6802-15-15 0-8.3198 6.6802-15 15-15zm-41 12v6h14v-6h-14zm68 0v6h14v-6h-14zm-48.213 19.971-9.9004 9.8984 4.2441 4.2441 9.8984-9.9004-4.2422-4.2422zm42.426 0-4.2422 4.2422 9.8984 9.9004 4.2441-4.2441-9.9004-9.8984zm-24.213 10.029v14h6v-14h-6z" style="block-progression:tb;color-rendering:auto;color:#000000;fill:#808080;image-rendering:auto;isolation:auto;opacity:.5;shape-rendering:auto;text-decoration-line:none;text-indent:0;text-transform:none"/>
   </g>
  </g>
 </g>
</svg>
