<?xml version="1.0" encoding="UTF-8"?>
<!-- Created with Inkscape (http://www.inkscape.org/) -->
<svg id="svg3289" width="90" height="90" version="1.1" xmlns="http://www.w3.org/2000/svg" xmlns:cc="http://creativecommons.org/ns#" xmlns:dc="http://purl.org/dc/elements/1.1/" xmlns:rdf="http://www.w3.org/1999/02/22-rdf-syntax-ns#" xmlns:xlink="http://www.w3.org/1999/xlink">
 <defs id="defs3291">
  <clipPath id="clipPath3017-4">
   <path id="path3019-4" d="m199 186.36v27h39v-27h-39zm25.141 7.5c0.53199 1e-5 0.98285 0.0788 1.4062 0.15625 0.43428 0.0665 0.85228 0.1503 1.1562 0.25 0.31487 0.0883 0.52331 0.15051 0.71875 0.25 0.20629 0.0995 0.3975 0.21035 0.48438 0.26562l-0.71875 2.0469c-0.34742-0.18802-0.73152-0.33605-1.1875-0.46875-0.44518-0.14367-0.95236-0.1875-1.4844-0.1875-1.1834 2e-5 -2.0774 0.29423-2.6094 0.96875-0.52114 0.66344-0.76563 1.589-0.76563 2.75 0 0.56396 0.0883 1.0825 0.21875 1.5469 0.13021 0.45338 0.2863 0.84012 0.54688 1.1719 0.26054 0.33171 0.60914 0.5933 1 0.78125 0.39089 0.17694 0.86949 0.23437 1.3906 0.23437 0.28227 0 0.47638 0.0119 0.67188 0 0.20624-0.0118 0.39486-0.029 0.54687-0.0625v-4.0156h2.5781v5.6875c-0.30401 0.12179-0.77997 0.30476-1.4531 0.4375-0.67315 0.14368-1.5276 0.1875-2.5156 0.1875-0.84687 0-1.5864-0.10962-2.2812-0.375-0.684-0.2654-1.3395-0.66323-1.8281-1.1719-0.48862-0.50864-0.85358-1.1498-1.125-1.8906-0.26054-0.74088-0.39062-1.5803-0.39062-2.5312 0-0.96201 0.15999-1.8217 0.45312-2.5625 0.29316-0.74084 0.70844-1.382 1.2188-1.8906 0.51031-0.5197 1.0816-0.87523 1.7656-1.1406 0.69482-0.26539 1.4214-0.4375 2.2031-0.4375zm-11.953 0.0312c0.16265-0.0119 0.35294 0 0.53125 0 0.65923 2e-5 1.2433 0.11625 1.7188 0.28125 0.48629 0.15417 0.87409 0.3747 1.1875 0.67187 0.31336 0.28617 0.55183 0.60379 0.70312 1 0.15137 0.3852 0.20313 0.8659 0.20313 1.3281 0 0.45128-0.11057 0.86764-0.35938 1.2969-0.24855 0.41823-0.57856 0.73303-1 0.95313 0.58353 0.24213 1.046 0.57822 1.3594 1.0625 0.32418 0.47325 0.46874 1.0474 0.46875 1.7188-1e-5 0.52829-0.0772 1.0332-0.25 1.4844-0.17294 0.44026-0.44508 0.85733-0.8125 1.1875-0.36744 0.31919-0.8335 0.54724-1.4062 0.73438-0.56193 0.17614-1.2219 0.25-2 0.25-0.29181 0-0.61332 0.0114-0.9375-0.0312-0.32423-0.033-0.65054-0.12135-0.95313-0.1875-0.30257-0.0659-0.53269-0.11021-0.78125-0.1875-0.24856-0.077-0.46891-0.15257-0.60937-0.21875l0.45312-2.0625c0.28095 0.12087 0.6615 0.24753 1.0938 0.39062 0.44307 0.13221 1.0235 0.21875 1.6719 0.21875 0.74564 0 1.2323-0.13585 1.5781-0.42187 0.34578-0.28617 0.54688-0.67198 0.54688-1.1562 0-0.29717-0.0577-0.53625-0.1875-0.73438-0.11866-0.20911-0.29951-0.37891-0.51563-0.5-0.21615-0.13219-0.5099-0.26849-0.8125-0.3125-0.29178-0.0549-0.57125-0.0625-0.90625-0.0625h-0.98437v-1.9375h1.125c0.23775 0 0.42449-0.0808 0.64062-0.125 0.2269-0.044 0.4677-0.0885 0.64063-0.1875 0.17295-0.11003 0.29336-0.26138 0.39062-0.4375 0.10805-0.18702 0.125-0.42798 0.125-0.70312 0-0.20913-0.0387-0.37719-0.125-0.53125-0.0864-0.15419-0.18757-0.27592-0.32812-0.375-0.12981-0.0994-0.23818-0.19035-0.42188-0.23438-0.17296-0.0549-0.36315-0.0625-0.54687-0.0625-0.46469 3e-5 -0.94393 0.0601-1.3438 0.20313-0.38903 0.14289-0.73834 0.32216-1.0625 0.53125l-0.84375-1.8281c0.17295-0.11026 0.38242-0.17568 0.60937-0.29687 0.23773-0.12084 0.46902-0.24468 0.75-0.34375 0.28097-0.0989 0.59286-0.2152 0.90625-0.28125 0.16206-0.0332 0.32171-0.0833 0.48438-0.0937z" style="color:#000000;fill:#f0f"/>
  </clipPath>
 </defs>
 <metadata id="metadata3294">
  <rdf:RDF>
   <cc:Work rdf:about="">
    <dc:format>image/svg+xml</dc:format>
    <dc:type rdf:resource="http://purl.org/dc/dcmitype/StillImage"/>
    <dc:title/>
   </cc:Work>
  </rdf:RDF>
 </metadata>
 <g id="layer1" transform="translate(0 -962.36)">
  <g id="g4451" transform="translate(-789 604.36)">
   <g id="g4507" transform="matrix(2 0 0 2 397 3.2756)">
    <rect id="rect4509" x="196" y="177.36" width="45" height="45" style="fill:none"/>
    <path id="path3011" transform="matrix(.5 0 0 .5 196 177.36)" d="m35 24c-18 0-20 0-20 12v18c0 12 2 12 20 12h20c18 0 20 0 20-12v-18c0-12-2-12-20-12h-20zm21.281 9c1.064 2e-5 1.9657 0.1576 2.8125 0.3125 0.86856 0.133 1.7046 0.3006 2.3125 0.5 0.62974 0.1766 1.0466 0.30102 1.4375 0.5 0.41258 0.199 0.79499 0.42071 0.96875 0.53125l-1.4375 4.0938c-0.69484-0.37604-1.463-0.6721-2.375-0.9375-0.89036-0.28734-1.9047-0.375-2.9688-0.375-2.3668 4e-5 -4.1548 0.58846-5.2188 1.9375-1.0423 1.3269-1.5312 3.178-1.5312 5.5 0 1.1279 0.1766 2.165 0.4375 3.0938 0.26042 0.90676 0.57259 1.6802 1.0938 2.3438 0.52108 0.66342 1.2183 1.1866 2 1.5625 0.78178 0.35388 1.739 0.46875 2.7812 0.46875 0.56454 0 0.95275 0.0238 1.3438 0 0.41248-0.0236 0.78973-0.058 1.0938-0.125v-8.0312h5.1562v11.375c-0.60802 0.24358-1.5599 0.60952-2.9062 0.875-1.3463 0.28736-3.0552 0.375-5.0312 0.375-1.6937 0-3.1728-0.21924-4.5625-0.75-1.368-0.5308-2.6791-1.3264-3.6562-2.3438-0.97724-1.0173-1.7072-2.2996-2.25-3.7812-0.52108-1.4818-0.78125-3.1606-0.78125-5.0625 0-1.924 0.31999-3.6433 0.90625-5.125 0.58632-1.4817 1.4169-2.7639 2.4375-3.7812 1.0206-1.0394 2.1632-1.7505 3.5312-2.2812 1.3896-0.53078 2.8428-0.875 4.4062-0.875zm-23.906 0.0625c0.3253-0.0238 0.70588 0 1.0625 0 1.3185 4e-5 2.4866 0.2325 3.4375 0.5625 0.97258 0.30834 1.7482 0.74941 2.375 1.3438 0.62672 0.57234 1.1037 1.2076 1.4062 2 0.30274 0.7704 0.40625 1.7318 0.40625 2.6562 0 0.90256-0.22113 1.7353-0.71875 2.5938-0.4971 0.83646-1.1571 1.466-2 1.9062 1.1671 0.48426 2.092 1.1564 2.7188 2.125 0.64836 0.9465 0.93748 2.0948 0.9375 3.4375-2e-5 1.0566-0.1544 2.0663-0.5 2.9688-0.34588 0.88052-0.89016 1.7147-1.625 2.375-0.73488 0.63838-1.667 1.0945-2.8125 1.4688-1.1239 0.35228-2.4439 0.5-4 0.5-0.58362 0-1.2266 0.0227-1.875-0.0625-0.64846-0.066-1.3011-0.2427-1.9062-0.375-0.60514-0.1318-1.0654-0.22042-1.5625-0.375-0.49712-0.154-0.93783-0.30514-1.2188-0.4375l0.90625-4.125c0.5619 0.24174 1.323 0.49507 2.1875 0.78125 0.88614 0.26442 2.047 0.4375 3.3438 0.4375 1.4913 0 2.4646-0.27171 3.1562-0.84375 0.69156-0.57234 1.0938-1.344 1.0938-2.3125 0-0.59434-0.1154-1.0725-0.375-1.4688-0.23732-0.41822-0.59901-0.75782-1.0312-1-0.4323-0.26438-1.0198-0.53698-1.625-0.625-0.58356-0.1098-1.1425-0.125-1.8125-0.125h-1.9688v-3.875h2.25c0.4755 0 0.84899-0.1616 1.2812-0.25 0.4538-0.088 0.93539-0.177 1.2812-0.375 0.3459-0.22006 0.58673-0.52276 0.78125-0.875 0.2161-0.37404 0.25-0.85597 0.25-1.4062 0-0.41826-0.0774-0.75438-0.25-1.0625-0.1728-0.30838-0.37515-0.55184-0.65625-0.75-0.25962-0.1988-0.47635-0.38069-0.84375-0.46875-0.34592-0.1098-0.72631-0.125-1.0938-0.125-0.92938 6e-5 -1.8879 0.12019-2.6875 0.40625-0.77806 0.28578-1.4767 0.64432-2.125 1.0625l-1.6875-3.6562c0.3459-0.22052 0.76485-0.35137 1.2188-0.59375 0.47546-0.24168 0.93804-0.48936 1.5-0.6875 0.56194-0.1978 1.1857-0.4304 1.8125-0.5625 0.32412-0.0664 0.64341-0.1667 0.96875-0.1875z" style="fill:#ccc"/>
   </g>
  </g>
 </g>
 <g id="layer2" style="display:none">
  <path id="path3011-3" transform="matrix(2 0 0 2 -392 -354.72)" d="m213.5 189.36c-9 0-10 0-10 6v9c0 6 1 6 10 6h10c9 0 10 0 10-6v-9c0-6-1-6-10-6z" clip-path="url(#clipPath3017-4)" style="display:inline;fill:#ccc"/>
 </g>
</svg>
