<?xml version="1.0" encoding="UTF-8"?>
<!-- Created with Inkscape (http://www.inkscape.org/) -->
<svg id="svg3289" width="90" height="90" version="1.1" xmlns="http://www.w3.org/2000/svg" xmlns:cc="http://creativecommons.org/ns#" xmlns:dc="http://purl.org/dc/elements/1.1/" xmlns:rdf="http://www.w3.org/1999/02/22-rdf-syntax-ns#" xmlns:xlink="http://www.w3.org/1999/xlink">
 <metadata id="metadata3294">
  <rdf:RDF>
   <cc:Work rdf:about="">
    <dc:format>image/svg+xml</dc:format>
    <dc:type rdf:resource="http://purl.org/dc/dcmitype/StillImage"/>
    <dc:title/>
   </cc:Work>
  </rdf:RDF>
 </metadata>
 <g id="layer1" transform="translate(-4.08e-5 -962.36)">
  <rect id="rect4431" x="4.08e-5" y="962.36" width="90" height="90" style="fill:none"/>
  <path id="path4046" transform="translate(4.08e-5 962.36)" d="m44.799 21.627a3.7899 3.8185 0 0 0-3.0781 1.9043l-22.414 39.117a3.7899 3.8185 0 0 0 3.2793 5.7305h44.828a3.7899 3.8185 0 0 0 3.2793-5.7305l-22.414-39.117a3.7899 3.8185 0 0 0-3.4805-1.9043zm-0.79688 18.373c3.1428 0 5.542 0.57612 7.1973 1.7285 1.6762 1.1524 2.5156 2.9136 2.5156 5.2812 0 2.9543-1.4568 4.9543-4.3691 6.002 0.3981 0.48187 0.84871 1.0683 1.3516 1.7598 0.50286 0.6914 1.0153 1.4465 1.5391 2.2637 0.52381 0.7962 1.0279 1.6234 1.5098 2.4824 0.4819 0.83807 0.91192 1.6653 1.2891 2.4824h-4.4316c-0.39809-0.75427-0.82811-1.5075-1.2891-2.2617-0.46095-0.77527-0.93216-1.52-1.4141-2.2324-0.46095-0.73333-0.92186-1.4144-1.3828-2.043-0.46095-0.64953-0.89097-1.2256-1.2891-1.7285-0.29333 0.020667-0.54438 0.03125-0.75391 0.03125h-0.59766-1.916v8.2344h-3.9609v-21.467c0.96381-0.20953 1.9906-0.34534 3.0801-0.4082 1.0895-0.0838 2.0628-0.125 2.9219-0.125zm0.2832 3.4258c-0.83809 0-1.6118 0.031084-2.3242 0.09375v7.041h1.7285c0.96381 0 1.8116-0.05347 2.5449-0.1582 0.73333-0.10473 1.3404-0.29205 1.8223-0.56445 0.50286-0.2724 0.88138-0.64063 1.1328-1.1016s0.37695-1.0474 0.37695-1.7598c0-0.67047-0.12552-1.2363-0.37695-1.6973-0.25143-0.461-0.61966-0.82728-1.1016-1.0996-0.46095-0.2724-1.0165-0.46161-1.666-0.56641-0.64952-0.12573-1.3615-0.1875-2.1367-0.1875z" style="color:#000000;fill:#ccc"/>
 </g>
</svg>
