<?xml version="1.0" encoding="UTF-8"?>
<!-- Created with Inkscape (http://www.inkscape.org/) -->
<svg id="svg3289" width="90" height="90" version="1.1" xmlns="http://www.w3.org/2000/svg" xmlns:cc="http://creativecommons.org/ns#" xmlns:dc="http://purl.org/dc/elements/1.1/" xmlns:rdf="http://www.w3.org/1999/02/22-rdf-syntax-ns#" xmlns:xlink="http://www.w3.org/1999/xlink">
 <metadata id="metadata3294">
  <rdf:RDF>
   <cc:Work rdf:about="">
    <dc:format>image/svg+xml</dc:format>
    <dc:type rdf:resource="http://purl.org/dc/dcmitype/StillImage"/>
    <dc:title/>
   </cc:Work>
  </rdf:RDF>
 </metadata>
 <g id="layer1" transform="translate(0 -962.36)">
  <g id="g4451" transform="translate(-789 604.36)">
   <g id="g4507" transform="matrix(2 0 0 2 397 3.2756)">
    <rect id="rect4509" x="196" y="177.36" width="45" height="45" style="fill:none"/>
    <rect id="rect3045" x="203.5" y="196.36" width="30" height="14" ry="6.9669" style="color:#000000;fill:#ccc"/>
    <path id="path3047" transform="matrix(.88235 0 0 .88235 198.12 179.66)" d="m35 19.5a8.5 8.5 0 1 1-17 0 8.5 8.5 0 1 1 17 0z" style="color:#000000;fill:#ccc"/>
    <path id="path3049" transform="matrix(1.0714 0 0 1.0714 194.07 175.22)" d="m20 19.5a3.5 3.5 0 1 1-7 0 3.5 3.5 0 1 1 7 0z" style="color:#000000;fill:#ccc"/>
   </g>
  </g>
 </g>
</svg>
