<?xml version="1.0" encoding="UTF-8"?>
<!-- Created with Inkscape (http://www.inkscape.org/) -->
<svg id="svg3289" width="90" height="90" version="1.1" xmlns="http://www.w3.org/2000/svg" xmlns:cc="http://creativecommons.org/ns#" xmlns:dc="http://purl.org/dc/elements/1.1/" xmlns:rdf="http://www.w3.org/1999/02/22-rdf-syntax-ns#" xmlns:xlink="http://www.w3.org/1999/xlink">
 <metadata id="metadata3294">
  <rdf:RDF>
   <cc:Work rdf:about="">
    <dc:format>image/svg+xml</dc:format>
    <dc:type rdf:resource="http://purl.org/dc/dcmitype/StillImage"/>
    <dc:title/>
   </cc:Work>
  </rdf:RDF>
 </metadata>
 <g id="layer1" transform="translate(0 -962.36)">
  <g id="g4451" transform="translate(-789 604.36)">
   <g id="g4401" transform="matrix(2,0,0,2,-1195,-252)">
    <rect id="rect4403-3" transform="scale(-1,1)" x="-1037" y="305" width="45" height="45" style="fill:none"/>
    <path id="path3804" transform="matrix(.5 0 0 .5 992 305)" d="m62 24.062v4c-1.9314-0.046-4.1338-0.0625-7-0.0625h-26c-2 0-3.75-0.016-5.2812 0-10.719 0.1094-10.719 1-10.719 8v18c0 8 0 8 16 8h26c2.8662 0 5.0686-0.0161 7-0.0625v4c1.4892-0.029396 2.8289-0.067536 4-0.15625v-4.0625c4.9938-0.5615 5-2.2921 5-7.7188v-18c0-5.4266 0-7.1572-5-7.7188v-4.0625c-1.1711-0.088714-2.5108-0.12685-4-0.15625zm12.938 9c0.042 0.89454 0.0625 1.8572 0.0625 2.9375v18c0 1.0803-0.0205 2.0429-0.0625 2.9375 0.66048-0.031027 1.2543-0.090584 1.7812-0.15625 0.098637-0.012291 0.18699-0.017474 0.28125-0.03125v-23.5c-0.08658-0.012673-0.19113-0.0196-0.28125-0.03125-0.52697-0.065666-1.1208-0.12522-1.7812-0.15625z" style="fill:#ccc;opacity:.25"/>
    <path id="path3906" d="m1030.5 321.62c0.2078 0.0309 0.395 0.0772 0.5625 0.125-0.1669-0.0475-0.3556-0.0942-0.5625-0.125z" style="color:#000000;fill:#f0f;opacity:.67568"/>
    <path id="path3904" d="m1032.4 323.69c0.014 0.1415 0.039 0.27697 0.047 0.4375-0.01-0.15962-0.033-0.29681-0.047-0.4375z" style="color:#000000;fill:#f0f;opacity:.67568"/>
    <path id="path3902" d="m1032.5 330.87c-0.01 0.16053-0.033 0.29599-0.047 0.4375 0.014-0.14069 0.039-0.27788 0.047-0.4375z" style="color:#000000;fill:#f0f;opacity:.67568"/>
    <path id="path3868" d="m1031.1 333.25c-0.1676 0.0478-0.3548 0.0941-0.5625 0.125 0.2068-0.0308 0.3956-0.0775 0.5625-0.125z" style="color:#000000;fill:#f0f;opacity:.67568"/>
    <path id="path3810" transform="matrix(.5 0 0 .5 992 305)" d="m66 24.219v4.0625c4.9939 0.56151 5 2.2921 5 7.7188v18c0 5.4266-0.006129 7.1572-5 7.7188v4.0625c7.8857-0.59737 9-2.892 9-11.781v-18c0-8.8892-1.1143-11.184-9-11.781z" style="fill:#ccc;opacity:.5"/>
    <path id="path3820" d="m1030.5 321.62v11.75c1.7155-0.25071 2-1.004 2-3.2969v-5.1562c0-2.2929-0.2845-3.0462-2-3.2969z" style="fill:#ccc;opacity:.5"/>
    <path id="path3837" transform="matrix(.5 0 0 .5 992 305)" d="m29 24c-18 0-20 0-20 12v18c0 12 2 12 20 12h26c2.686 0 4.98-0.022626 7-0.0625v-41.875c-2.02-0.039874-4.314-0.0625-7-0.0625h-26z" style="fill:#ccc"/>
    <g id="g4038">
     <path id="path4036" d="m1024.5 327.5-13.5-5.4982v5.5l-9.5-2e-3 13.5 5.5018v-5.5z" style="fill:none;opacity:.13;stroke-linejoin:round;stroke-width:2;stroke:#000"/>
     <path id="path4034" d="m1024.5 327.5-13.5-5.4982v5.5l-9.5-2e-3 13.5 5.5018v-5.5z" style="fill:none;opacity:.13;stroke-linejoin:round;stroke:#000"/>
     <path id="path3847" d="m1024.5 327.5-13.5-5.4982v5.5l-9.5-2e-3 13.5 5.5018v-5.5z" style="fill:#fff"/>
    </g>
   </g>
  </g>
 </g>
</svg>
