<?xml version="1.0" encoding="UTF-8"?>
<!-- Created with Inkscape (http://www.inkscape.org/) -->
<svg id="svg3289" width="90" height="90" version="1.1" xmlns="http://www.w3.org/2000/svg" xmlns:cc="http://creativecommons.org/ns#" xmlns:dc="http://purl.org/dc/elements/1.1/" xmlns:rdf="http://www.w3.org/1999/02/22-rdf-syntax-ns#" xmlns:xlink="http://www.w3.org/1999/xlink">
 <defs id="defs3291">
  <clipPath id="clipPath3973-1">
   <path id="path3975-3" d="m984.47 351.53c0.021 0.44727 0.031 0.9286 0.031 1.4688v9c0 0.54015-0.01 1.0215-0.031 1.4688 0.392-0.0184 0.7323-0.0501 1.0312-0.0937v-11.75c-0.2989-0.0437-0.6392-0.0753-1.0312-0.0937z" style="color:#000000;fill:#f0f;opacity:.67568"/>
  </clipPath>
  <clipPath id="clipPath3969-1">
   <path id="path3971-5" d="m958.86 349c-5.3594 0.0547-5.3594 0.5-5.3594 4v9c0 4 0 4 8 4h13c8 0 8 0 8-4v-9c0-4 0-4-8-4h-13c-1 0-1.875-8e-3 -2.6406 0z" style="color:#000000;fill:#f0f;opacity:.67568"/>
  </clipPath>
 </defs>
 <metadata id="metadata3294">
  <rdf:RDF>
   <cc:Work rdf:about="">
    <dc:format>image/svg+xml</dc:format>
    <dc:type rdf:resource="http://purl.org/dc/dcmitype/StillImage"/>
    <dc:title/>
   </cc:Work>
  </rdf:RDF>
 </metadata>
 <g id="layer1" transform="translate(0 -962.36)">
  <path id="path3967" d="m23.719 990.36c-10.719 0.1094-10.719 1-10.719 8v18c0 8 0 8 16 8h26c16 0 16 0 16-8v-18c0-8 0-8-16-8h-26c-2 0-3.75-0.016-5.2812 0z" style="fill:#df382c;opacity:.25"/>
  <rect id="rect4403-3" transform="scale(-1,1)" x="-90" y="962.36" width="90" height="90" style="fill:none"/>
  <path id="path3804" d="m74.938 995.42c0.042 0.8945 0.0625 1.8572 0.0625 2.9375v18c0 1.0803-0.0205 2.0429-0.0625 2.9375 0.66048-0.031 1.2543-0.091 1.7812-0.1562 0.09864-0.012 0.18699-0.017 0.28125-0.031v-23.5c-0.08658-0.013-0.19113-0.02-0.28125-0.031-0.52697-0.0662-1.1208-0.1258-1.7812-0.1568z" style="fill:#df382c;opacity:.5"/>
  <path id="path3810" d="m29 986.36c-18 0-20 0-20 12v18c0 12 2 12 20 12h26c18 0 20 0 20-12v-18c0-12-2-12-20-12h-26zm-5.2812 4c1.5312-0.016 3.2812 0 5.2812 0h26c16 0 16 0 16 8v18c0 8 0 8-16 8h-26c-16 0-16 0-16-8v-18c0-7 0-7.8906 10.719-8z" style="fill:#df382c"/>
  <path id="path3820" d="m77 995.61v23.5c3.431-0.5014 4-2.0079 4-6.5938v-10.312c0-4.5858-0.569-6.0923-4-6.5937z" style="fill:#df382c"/>
 </g>
 <g id="layer3" style="display:none">
  <path id="path3967-1" transform="matrix(2,0,0,2,-1894,-670)" d="m984.47 351.53c0.021 0.44727 0.031 0.9286 0.031 1.4688v9c0 0.54015-0.01 1.0215-0.031 1.4688 2.6419-0.12411 3.0312-0.69816 3.0312-3.3906v-5.1562c0-2.6925-0.3893-3.2665-3.0312-3.3906zm-22.969-4.5312c-9 0-10 0-10 6v9c0 6 1 6 10 6h13c9 0 10 0 10-6v-9c0-6-1-6-10-6z" clip-path="url(#clipPath3969-1)" style="display:inline;fill:#df382c;opacity:.25"/>
  <path id="path3804-5" transform="matrix(2,0,0,2,-1894,-670)" d="m984.47 351.53c0.021 0.44727 0.031 0.9286 0.031 1.4688v9c0 0.54015-0.01 1.0215-0.031 1.4688 2.6419-0.12411 3.0312-0.69816 3.0312-3.3906v-5.1562c0-2.6925-0.3893-3.2665-3.0312-3.3906zm-22.969-4.5312c-9 0-10 0-10 6v9c0 6 1 6 10 6h13c9 0 10 0 10-6v-9c0-6-1-6-10-6z" clip-path="url(#clipPath3973-1)" style="display:inline;fill:#df382c;opacity:.5"/>
  <path id="path3810-6" d="m29 24c-18 0-20 0-20 12v18c0 12 2 12 20 12h26c18 0 20 0 20-12v-18c0-12-2-12-20-12h-26zm-5.2812 4c1.5312-0.016 3.2812 0 5.2812 0h26c16 0 16 0 16 8v18c0 8 0 8-16 8h-26c-16 0-16 0-16-8v-18c0-7 0-7.8906 10.719-8z" style="display:inline;fill:#df382c"/>
  <path id="path3820-8" d="m77 33.25v23.5c3.431-0.50142 4-2.0079 4-6.5938v-10.312c0-4.5858-0.569-6.0923-4-6.5937z" style="display:inline;fill:#df382c"/>
 </g>
</svg>
