<?xml version="1.0" encoding="UTF-8"?>
<!-- Created with Inkscape (http://www.inkscape.org/) -->
<svg id="svg3289" width="90" height="90" version="1.1" xmlns="http://www.w3.org/2000/svg" xmlns:cc="http://creativecommons.org/ns#" xmlns:dc="http://purl.org/dc/elements/1.1/" xmlns:rdf="http://www.w3.org/1999/02/22-rdf-syntax-ns#" xmlns:xlink="http://www.w3.org/1999/xlink">
 <metadata id="metadata3294">
  <rdf:RDF>
   <cc:Work rdf:about="">
    <dc:format>image/svg+xml</dc:format>
    <dc:type rdf:resource="http://purl.org/dc/dcmitype/StillImage"/>
    <dc:title/>
   </cc:Work>
  </rdf:RDF>
 </metadata>
 <g id="layer1" transform="translate(-4.08e-5 -962.36)">
  <path id="path3783" transform="matrix(3.0278 0 0 3.0278 -91.25 871.11)" d="m38.636 51.364c-3.5147-3.5147-3.5147-9.2132 0-12.728 3.5147-3.5147 9.2132-3.5147 12.728 0 3.5147 3.5147 3.5147 9.2132 0 12.728" style="color:#000000;fill:none;opacity:.5;stroke-width:1.8165;stroke:#ccc"/>
  <path id="path3785" transform="matrix(1.75 0 0 1.75 -33.75 928.61)" d="m38.636 51.364c-3.5147-3.5147-3.5147-9.2132 0-12.728 3.5147-3.5147 9.2132-3.5147 12.728 0 3.5147 3.5147 3.5147 9.2132 0 12.728" style="color:#000000;fill:none;stroke-width:3.1429;stroke:#ccc"/>
  <rect id="rect4431" x="4.08e-5" y="962.36" width="90" height="90" style="fill:none"/>
  <path id="path3781" transform="matrix(.83333 0 0 .83333 7.5001 969.86)" d="m54 45c0 4.9706-4.0294 9-9 9s-9-4.0294-9-9c0-4.9706 4.0294-9 9-9s9 4.0294 9 9z" style="color:#000000;fill:#ccc"/>
  <path id="rect3787" transform="translate(4.08e-5 962.36)" d="m41 57.375v11.625c0 5 0 6 4 6s4-1 4-6v-11.625c-1.257 0.40484-2.6084 0.625-4 0.625s-2.743-0.22016-4-0.625z" style="color:#000000;fill:#ccc"/>
 </g>
</svg>
