<?xml version="1.0" encoding="UTF-8"?>
<!-- Created with Inkscape (http://www.inkscape.org/) -->
<svg id="svg4874" width="96" height="96" version="1.1" viewBox="0 0 96 96" xmlns="http://www.w3.org/2000/svg" xmlns:cc="http://creativecommons.org/ns#" xmlns:dc="http://purl.org/dc/elements/1.1/" xmlns:rdf="http://www.w3.org/1999/02/22-rdf-syntax-ns#">
 <metadata id="metadata4879">
  <rdf:RDF>
   <cc:Work rdf:about="">
    <dc:format>image/svg+xml</dc:format>
    <dc:type rdf:resource="http://purl.org/dc/dcmitype/StillImage"/>
    <dc:title/>
   </cc:Work>
  </rdf:RDF>
 </metadata>
 <g id="layer1" transform="translate(67.857 -78.505)">
  <rect id="rect4782-05" transform="rotate(90)" x="78.505" y="-28.143" width="96" height="96" style="color:#000000;fill:none"/>
  <path id="path4205-0" d="m16.144 164.5h-72v-3.9984h72z" style="color-rendering:auto;color:#000000;fill:#808080;font-feature-settings:normal;font-variant-alternates:normal;font-variant-caps:normal;font-variant-ligatures:normal;font-variant-numeric:normal;font-variant-position:normal;image-rendering:auto;isolation:auto;mix-blend-mode:normal;shape-padding:0;shape-rendering:auto;solid-color:#000000;text-decoration-color:#000000;text-decoration-line:none;text-decoration-style:solid;text-indent:0;text-transform:none;white-space:normal"/>
  <path id="path4207" d="m-17.856 162.51h-4.002v-14h4.002z" style="color-rendering:auto;color:#000000;fill:#808080;font-feature-settings:normal;font-variant-alternates:normal;font-variant-caps:normal;font-variant-ligatures:normal;font-variant-numeric:normal;font-variant-position:normal;image-rendering:auto;isolation:auto;mix-blend-mode:normal;shape-padding:0;shape-rendering:auto;solid-color:#000000;text-decoration-color:#000000;text-decoration-line:none;text-decoration-style:solid;text-indent:0;text-transform:none;white-space:normal"/>
  <ellipse id="path4221" cx="-19.857" cy="162.51" rx="6" ry="6" style="color:#000000;fill:#808080"/>
  <path id="path4179" d="m-47.881 88.506c-5.0328 0.0582-8.7136-0.12018-11.725 1.541-1.5055 0.83067-2.6968 2.2356-3.3555 3.9903-0.65866 1.7546-0.89647 3.8383-0.89647 6.4687v40c0 2.6304 0.23773 4.7122 0.89647 6.4668 0.65866 1.7546 1.85 3.1596 3.3555 3.9902 3.011 1.6613 6.6918 1.4848 11.725 1.543h0.01134 56.023 0.0113c5.0328-0.0582 8.7136 0.1183 11.725-1.543 1.5055-0.83066 2.6968-2.2356 3.3555-3.9902 0.6587-1.7546 0.89651-3.8364 0.89651-6.4668v-40c0-2.6304-0.23774-4.7141-0.89651-6.4687-0.65866-1.7547-1.85-3.1596-3.3555-3.9903-3.011-1.6612-6.6918-1.4828-11.725-1.541h-0.0113-56.023zm0.02268 4h56c5.0382 0.0586 8.3518 0.23698 9.8164 1.0449 0.73365 0.40479 1.1527 0.85296 1.543 1.8926 0.39024 1.0396 0.64063 2.693 0.64063 5.0625v40c0 2.3696-0.25058 4.0229-0.64063 5.0625-0.39027 1.0396-0.80934 1.4878-1.543 1.8926-1.4645 0.80803-4.7782 0.98615-9.8164 1.0449h-55.977-0.02268c-5.0383-0.0586-8.3519-0.23698-9.8164-1.0449-0.73364-0.40479-1.1508-0.85296-1.541-1.8926-0.39027-1.0396-0.6426-2.693-0.6426-5.0625v-40c0-2.3696 0.25247-4.0229 0.6426-5.0625 0.39024-1.0396 0.80734-1.4878 1.541-1.8926 1.4645-0.80803 4.7782-0.98616 9.8164-1.0449z" style="color-rendering:auto;color:#000000;fill:#808080;font-feature-settings:normal;font-variant-alternates:normal;font-variant-caps:normal;font-variant-ligatures:none;font-variant-numeric:normal;font-variant-position:normal;image-rendering:auto;isolation:auto;mix-blend-mode:normal;shape-padding:0;shape-rendering:auto;solid-color:#000000;text-decoration-color:#000000;text-decoration-line:none;text-decoration-style:solid;text-indent:0;text-transform:none;white-space:normal"/>
  <path id="path4183" d="m-33.857 116.51a4 4 0 0 0-4 4 4 4 0 0 0 4 4 4 4 0 0 0 4-4 4 4 0 0 0-4-4zm14 0a4 4 0 0 0-4 4 4 4 0 0 0 4 4 4 4 0 0 0 4-4 4 4 0 0 0-4-4zm14 0a4 4 0 0 0-4 4 4 4 0 0 0 4 4 4 4 0 0 0 4-4 4 4 0 0 0-4-4z" style="color:#000000;fill:#808080"/>
 </g>
</svg>
