<?xml version="1.0" encoding="UTF-8"?>
<!-- Created with Inkscape (http://www.inkscape.org/) -->
<svg id="svg4874" width="96" height="96" version="1.1" viewBox="0 0 96 96" xmlns="http://www.w3.org/2000/svg" xmlns:cc="http://creativecommons.org/ns#" xmlns:dc="http://purl.org/dc/elements/1.1/" xmlns:rdf="http://www.w3.org/1999/02/22-rdf-syntax-ns#">
 <metadata id="metadata4879">
  <rdf:RDF>
   <cc:Work rdf:about="">
    <dc:format>image/svg+xml</dc:format>
    <dc:type rdf:resource="http://purl.org/dc/dcmitype/StillImage"/>
    <dc:title/>
   </cc:Work>
  </rdf:RDF>
 </metadata>
 <g id="layer1" transform="translate(67.857 -78.505)">
  <rect id="rect4782-05" transform="rotate(90)" x="78.505" y="-28.143" width="96" height="96" style="color:#000000;fill:none"/>
  <path id="path4205-0" transform="translate(-67.857 78.505)" d="m19.977 10c-5.0328 0.0582-8.7136-0.12015-11.725 1.541-1.5055 0.83067-2.6968 2.2355-3.3555 3.9902-0.65866 1.7546-0.89648 3.8383-0.89648 6.4688v40c0 2.6304 0.23775 4.7122 0.89648 6.4668 0.65866 1.7546 1.85 3.1596 3.3555 3.9902 3.011 1.6613 6.6918 1.4848 11.725 1.543h0.011719 26.01v4.3516a6 6 0 0 0-3.6484 3.6504h-30.35v3.998h30.35a6 6 0 0 0 5.6504 4 6 6 0 0 0 5.6504-4h30.35v-3.998h-30.35a6 6 0 0 0-3.6504-3.6504v-4.3516h26.012 0.009765c5.0328-0.0582 8.7136 0.11828 11.725-1.543 1.5055-0.83066 2.6968-2.2356 3.3555-3.9902 0.6587-1.7546 0.89648-3.8364 0.89648-6.4668v-40c0-2.6304-0.23771-4.7141-0.89648-6.4688-0.65866-1.7547-1.85-3.1596-3.3555-3.9902-3.011-1.6613-6.6918-1.4828-11.725-1.541h-0.009765-56.023-0.011719zm0.021485 4h0.001953 55.998c5.0382 0.0586 8.3519 0.23697 9.8164 1.0449 0.73365 0.40479 1.1527 0.85298 1.543 1.8926 0.39024 1.0396 0.64062 2.6929 0.64062 5.0625v40c0 2.3696-0.25058 4.0229-0.64062 5.0625-0.39027 1.0396-0.80932 1.4878-1.543 1.8926-1.4645 0.80803-4.7782 0.98614-9.8164 1.0449h-55.977-0.021484c-5.0383-0.0586-8.3519-0.23697-9.8164-1.0449-0.73364-0.40479-1.1508-0.85298-1.541-1.8926-0.39027-1.0396-0.64258-2.6929-0.64258-5.0625v-40c0-2.3696 0.25246-4.0229 0.64258-5.0625 0.39024-1.0396 0.80737-1.4878 1.541-1.8926 1.4643-0.80792 4.7774-0.98613 9.8145-1.0449zm12 18c-2.9877 1.4276-6.0282 3.0011-9.125 4.7207-3.0666 1.7231-6.0255 3.4828-8.873 5.2793 2.8475 1.8332 5.8065 3.6108 8.873 5.334 3.0956 1.719 6.1345 3.2754 9.1211 4.666l0.001953-8h32.008l0.001953 8c2.9866-1.3906 6.0255-2.9471 9.1211-4.666 3.0666-1.7232 6.0255-3.5008 8.873-5.334-2.8475-1.7965-5.8064-3.5562-8.873-5.2793-3.0968-1.7197-6.1373-3.2932-9.125-4.7207l0.001953 8.002-32.008-0.001953 0.001953-8z" style="color-rendering:auto;color:#000000;fill:#808080;font-feature-settings:normal;font-variant-alternates:normal;font-variant-caps:normal;font-variant-ligatures:normal;font-variant-numeric:normal;font-variant-position:normal;image-rendering:auto;isolation:auto;mix-blend-mode:normal;opacity:.5;shape-padding:0;shape-rendering:auto;solid-color:#000000;text-decoration-color:#000000;text-decoration-line:none;text-decoration-style:solid;text-indent:0;text-transform:none;white-space:normal"/>
 </g>
</svg>
