<?xml version="1.0" encoding="UTF-8"?>
<!-- Created with Inkscape (http://www.inkscape.org/) -->
<svg id="svg4874" width="96" height="96" version="1.1" viewBox="0 0 96 96" xmlns="http://www.w3.org/2000/svg" xmlns:cc="http://creativecommons.org/ns#" xmlns:dc="http://purl.org/dc/elements/1.1/" xmlns:rdf="http://www.w3.org/1999/02/22-rdf-syntax-ns#">
 <metadata id="metadata4879">
  <rdf:RDF>
   <cc:Work rdf:about="">
    <dc:format>image/svg+xml</dc:format>
    <dc:type rdf:resource="http://purl.org/dc/dcmitype/StillImage"/>
    <dc:title/>
   </cc:Work>
  </rdf:RDF>
 </metadata>
 <g id="layer1" transform="translate(67.857 -78.505)">
  <rect id="rect4782" transform="rotate(90)" x="78.505" y="-28.143" width="96" height="96" style="color:#000000;fill:none"/>
  <path id="path4171" d="m-19.84 90.506c-15.662-0.0038-31.324 5.0321-44.404 15.109l-1.5859 1.2227 1.2227 1.584 44.75 58.031 46.002-59.594-1.5859-1.2207c-13.075-10.084-28.736-15.129-44.398-15.133zm0 3.9922c14.153 0.0035 28.246 4.494 40.27 13.217l-40.285 52.191-40.26-52.211c12.028-8.7169 26.123-13.201 40.275-13.197z" style="block-progression:tb;color-rendering:auto;color:#000000;fill:#808080;font-feature-settings:normal;font-variant-alternates:normal;font-variant-caps:normal;font-variant-ligatures:none;font-variant-numeric:normal;font-variant-position:normal;image-rendering:auto;isolation:auto;mix-blend-mode:normal;shape-padding:0;shape-rendering:auto;solid-color:#000000;text-decoration-color:#000000;text-decoration-line:none;text-decoration-style:solid;text-indent:0;text-transform:none;white-space:normal"/>
  <path id="path4218" d="m-35.056 143.68a24.897 24.886 0 0 1 30.408 7e-3l-15.209 19.703z" style="color:#000000;fill:#808080"/>
 </g>
</svg>
