<?xml version="1.0" encoding="UTF-8"?>
<!-- Created with Inkscape (http://www.inkscape.org/) -->
<svg id="svg3336" width="512.4" height="512" style="enable-background:new" version="1.1" viewBox="0 0 512.4 512" xmlns="http://www.w3.org/2000/svg" xmlns:cc="http://creativecommons.org/ns#" xmlns:dc="http://purl.org/dc/elements/1.1/" xmlns:rdf="http://www.w3.org/1999/02/22-rdf-syntax-ns#" xmlns:xlink="http://www.w3.org/1999/xlink">
 <defs id="defs3338">
  <linearGradient id="linearGradient4297" x1="301.42" x2="301.42" y1="150.71" y2="303.87" gradientTransform="matrix(.8806 0 0 .8806 30.567 28.415)" gradientUnits="userSpaceOnUse" xlink:href="#linearGradient4291"/>
  <linearGradient id="linearGradient4291">
   <stop id="stop4293" style="stop-color:#fff" offset="0"/>
   <stop id="stop4295" style="stop-color:#fff;stop-opacity:0" offset="1"/>
  </linearGradient>
  <linearGradient id="linearGradient4310" x1="173.98" x2="173.98" y1="152.22" y2="303.87" gradientTransform="matrix(.8806 0 0 .8806 30.567 28.415)" gradientUnits="userSpaceOnUse" xlink:href="#linearGradient4291"/>
  <linearGradient id="linearGradient4242" x1="321.29" x2="321.29" y1="289.37" y2="402.97" gradientTransform="matrix(1.1652 0 0 1.1652 -113.37 -175.51)" gradientUnits="userSpaceOnUse">
   <stop id="stop4237-7" style="stop-color:#e4e9ee" offset="0"/>
   <stop id="stop4240-9" style="stop-color:#c1c8cf" offset="1"/>
  </linearGradient>
  <linearGradient id="linearGradient4912" x1="256" x2="256" y1="18" y2="494" gradientTransform="matrix(1 0 0 1.0756 0 -37.361)" gradientUnits="userSpaceOnUse">
   <stop id="stop7539-5-6" style="stop-color:#6b7d8f" offset="0"/>
   <stop id="stop7541-23-0" style="stop-color:#afbcc6" offset="1"/>
  </linearGradient>
  <filter id="filter4321" x="-.0103" y="-.014372" width="1.0206" height="1.0287" style="color-interpolation-filters:sRGB">
   <feGaussianBlur id="feGaussianBlur4323" stdDeviation="1.148889"/>
  </filter>
  <linearGradient id="linearGradient4329" x1="333.83" x2="411.91" y1="178.17" y2="256.24" gradientTransform="translate(7.1912e-8 -18)" gradientUnits="userSpaceOnUse" spreadMethod="reflect" xlink:href="#linearGradient4323"/>
  <linearGradient id="linearGradient4323">
   <stop id="stop4325" offset="0"/>
   <stop id="stop4327" style="stop-opacity:0" offset="1"/>
  </linearGradient>
  <filter id="filter4358" x="-.0824" y="-.11498" width="1.1648" height="1.23" style="color-interpolation-filters:sRGB">
   <feGaussianBlur id="feGaussianBlur4360" stdDeviation="9.191112"/>
  </filter>
  <linearGradient id="linearGradient4329-5" x1="333.83" x2="411.91" y1="178.17" y2="256.24" gradientTransform="translate(7.1912e-8 -1.3334e-6)" gradientUnits="userSpaceOnUse" spreadMethod="reflect" xlink:href="#linearGradient4323"/>
  <filter id="filter4358-3" x="-.0824" y="-.11498" width="1.1648" height="1.23" style="color-interpolation-filters:sRGB">
   <feGaussianBlur id="feGaussianBlur4360-2" stdDeviation="9.191112"/>
  </filter>
 </defs>
 <metadata id="metadata3341">
  <rdf:RDF>
   <cc:Work rdf:about="">
    <dc:format>image/svg+xml</dc:format>
    <dc:type rdf:resource="http://purl.org/dc/dcmitype/StillImage"/>
    <dc:title/>
   </cc:Work>
  </rdf:RDF>
 </metadata>
 <g id="layer1" transform="translate(0,18)">
  <path id="path4356-1" d="m266.46 88.146c-36.695 0-67.865 22.642-82.681 54.795-34.462 2.5102-61.627 32.284-61.627 68.32 0 37.651 29.567 68.738 66.228 68.738h150.86c28.037 0 50.612-23.784 50.612-52.425 0-21.731-13.082-40.075-31.65-47.963-2.2921-50.584-42.188-91.465-91.744-91.465z" style="color:#000000;fill:url(#linearGradient4329);filter:url(#filter4358);opacity:.3;stroke-width:4"/>
  <rect id="rect4158" y="-18" width="512" height="512" style="color:#000000;fill:url(#linearGradient4912)"/>
  <path id="path4305-3" d="m0 494 512-512v512z" style="color:#000000;fill:#fff;opacity:.05;stroke-dashoffset:1;stroke-width:2"/>
 </g>
 <g id="layer4">
  <path id="path3847" d="m274.78 271.11h-38.63l-5.5926 74.667h28.037l-6.5926 62.222 48.074-87.111h-33.185z" style="fill:#fee581"/>
  <path id="path4356" d="m266.46 106.15c-36.695 0-67.865 22.642-82.681 54.795-34.462 2.5102-61.627 32.284-61.627 68.32 0 37.651 29.567 68.738 66.228 68.738h150.86c28.037 0 50.612-23.784 50.612-52.425 0-21.731-13.082-40.075-31.65-47.963-2.2921-50.584-42.188-91.465-91.744-91.465z" style="color:#000000;fill:url(#linearGradient4329-5);filter:url(#filter4358-3);opacity:.3;stroke-width:4"/>
  <path id="path4324" d="m266.46 106.15c-36.695 0-67.865 22.642-82.681 54.795-34.462 2.5102-61.627 32.284-61.627 68.32 0 37.651 29.567 68.738 66.228 68.738h150.86c28.037 0 50.612-23.784 50.612-52.425 0-21.731-13.082-40.075-31.65-47.963-2.2921-50.584-42.188-91.465-91.744-91.465z" style="color:#000000;filter:url(#filter4321);opacity:.1;stroke-width:4"/>
  <path id="path812" d="m-208.32 605.62c-7.8421 0-14.554 5.0292-17.318 12.187-0.0612-6.7e-4 -0.12078 0-0.18229 0-7.0877 0-12.833 6.0022-12.833 13.406 0 7.4041 5.7457 13.406 12.833 13.406h33.833c5.1547 0 9.3333-4.3653 9.3333-9.7501 0-4.5434-2.9741-8.3631-7-9.4452 1e-3 -0.10288 0-0.20153 0-0.30467 0-10.77-8.3574-19.5-18.667-19.5z" style="color:#000000;display:none;fill:#fff;stroke-width:4;stroke:#ccc"/>
  <path id="path4340" d="m288.87 828.08c-6.3492 0-11.783 4.0718-14.021 9.8674-0.0496-5.5e-4 -0.0978 0-0.14759 0-5.7384 0-10.39 4.8596-10.39 10.854 0 5.9946 4.6519 10.854 10.39 10.854h27.393c4.1734 0 7.5566-3.5343 7.5566-7.894 0-3.6784-2.4079-6.7711-5.6674-7.6472 1e-3 -0.0833 0-0.16316 0-0.24667 0-8.7194-6.7664-15.788-15.113-15.788z" style="color:#000000;display:none;fill:none;stroke-width:4;stroke:#ccc"/>
  <path id="path4330" d="m736.16 1098.4c-9.1783 0-17.034 5.8861-20.268 14.264-0.0716-8e-4 -0.14136 0-0.21335 0-8.2953 0-15.02 7.0249-15.02 15.69 0 8.6656 6.7246 15.69 15.02 15.69h39.598c6.0329 0 10.924-5.109 10.924-11.411 0-5.3174-3.4808-9.7881-8.1927-11.054 2e-3 -0.1205 0-0.2359 0-0.3566 0-12.605-9.7813-22.822-21.847-22.822z" style="color:#000000;display:none;fill:none;stroke-width:4;stroke:#ccc"/>
  <path id="path4233" d="m266.46 104.15c-36.695 0-67.865 22.642-82.681 54.795-34.462 2.5102-61.627 32.284-61.627 68.32 0 37.651 29.567 68.738 66.228 68.738h150.86c28.037 0 50.612-23.784 50.612-52.425 0-21.731-13.082-40.075-31.65-47.963-2.2921-50.584-42.188-91.465-91.744-91.465z" style="color:#000000;fill:url(#linearGradient4242);stroke-width:4"/>
  <path id="path4299" d="m190.96 158.54a68.722 68.722 0 0 0-68.723 68.723 68.722 68.722 0 0 0 68.723 68.723 68.722 68.722 0 0 0 39.445-12.55c-17.1-12.232-28.255-32.241-28.255-54.869 2.1e-4 -23.427 11.953-44.057 30.087-56.143a68.722 68.722 0 0 0-41.276-13.883z" style="color:#000000;fill:url(#linearGradient4310);opacity:.4;stroke-width:12"/>
  <path id="path4286" d="m269.58 161.13c-37.243-6.4e-4 -67.434 30.19-67.435 67.433-6.4e-4 37.243 30.191 67.435 67.435 67.435h67.842c28.955 2.6e-4 52.427-23.472 52.427-52.427 2.7e-4 -28.955-23.472-52.427-52.427-52.427-3.6872 0.0216-7.3618 0.432-10.963 1.2246-12.374-19.451-33.826-31.233-56.88-31.239z" style="color:#000000;fill:url(#linearGradient4297);opacity:.6;stroke-width:12"/>
  <path id="path4315" d="m266.46 104.15c-36.695 0-67.866 22.641-82.682 54.795-34.462 2.5102-61.627 32.285-61.627 68.32 0 0.33065 0.0189 0.65671 0.0234 0.98633 0.50572-35.577 27.467-64.82 61.604-67.307 14.815-32.153 45.986-54.795 82.682-54.795 49.556 0 89.452 40.881 91.744 91.465 18.246 7.7508 31.185 25.6 31.629 46.836 5e-3 -0.29164 0.0215-0.58038 0.0215-0.87305 0-21.731-13.082-40.075-31.65-47.963-2.2921-50.584-42.188-91.465-91.744-91.465z" style="color:#000000;fill:#fff;opacity:.6;stroke-width:4"/>
 </g>
</svg>
