<?xml version="1.0" encoding="UTF-8"?>
<!-- Created with Inkscape (http://www.inkscape.org/) -->
<svg id="svg3336" width="512.4" height="512" style="enable-background:new" version="1.1" viewBox="0 0 512.4 512" xmlns="http://www.w3.org/2000/svg" xmlns:cc="http://creativecommons.org/ns#" xmlns:dc="http://purl.org/dc/elements/1.1/" xmlns:rdf="http://www.w3.org/1999/02/22-rdf-syntax-ns#" xmlns:xlink="http://www.w3.org/1999/xlink">
 <defs id="defs3338">
  <linearGradient id="linearGradient4339">
   <stop id="stop4341" offset="0"/>
   <stop id="stop4343" style="stop-opacity:0" offset="1"/>
  </linearGradient>
  <filter id="filter4352" x="-.0857" y="-.10911" width="1.1714" height="1.2182" style="color-interpolation-filters:sRGB">
   <feGaussianBlur id="feGaussianBlur4354" stdDeviation="6.1830937"/>
  </filter>
  <linearGradient id="linearGradient4242" x1="321.29" x2="321.29" y1="274.78" y2="402.97" gradientTransform="matrix(1.3232 0 0 1.3232 -163.45 -197.57)" gradientUnits="userSpaceOnUse">
   <stop id="stop4237" style="stop-color:#fafafa" offset="0"/>
   <stop id="stop4240" style="stop-color:#e6e1eb" offset="1"/>
  </linearGradient>
  <linearGradient id="linearGradient4302" x1="-123.7" x2="-123.7" y1="-659.68" y2="-464.25" gradientUnits="userSpaceOnUse">
   <stop id="stop4256" style="stop-color:#fff" offset="0"/>
   <stop id="stop4258" style="stop-color:#fff;stop-opacity:0" offset="1"/>
  </linearGradient>
  <clipPath id="clipPath4348">
   <path id="path4350" d="m350 18v476h512v-476zm307.41 238c37.704 0 68.588 30.507 68.588 68.006 0 37.498-30.884 67.994-68.588 67.994h-58.469c-25.301 0-46.098-20.617-46.098-45.881 0-23.561 17.95-43.495 41.225-46.176 9.93-25.553 34.271-43.943 63.342-43.943z" style="color:#000000;fill:#f0f"/>
  </clipPath>
  <linearGradient id="linearGradient4297" x1="301.42" x2="301.42" y1="150.71" y2="320.39" gradientTransform="translate(0,34)" gradientUnits="userSpaceOnUse" xlink:href="#linearGradient4291"/>
  <linearGradient id="linearGradient4291">
   <stop id="stop4293" style="stop-color:#fff" offset="0"/>
   <stop id="stop4295" style="stop-color:#fff;stop-opacity:0" offset="1"/>
  </linearGradient>
  <linearGradient id="linearGradient4310" x1="173.98" x2="173.98" y1="152.22" y2="245.2" gradientTransform="translate(0,34)" gradientUnits="userSpaceOnUse" xlink:href="#linearGradient4291"/>
  <filter id="filter4330" x="-.0103" y="-.014372" width="1.0206" height="1.0287" style="color-interpolation-filters:sRGB">
   <feGaussianBlur id="feGaussianBlur4332" stdDeviation="1.3046669"/>
  </filter>
  <filter id="filter4336" x="-.0824" y="-.11498" width="1.1648" height="1.23" style="color-interpolation-filters:sRGB">
   <feGaussianBlur id="feGaussianBlur4338" stdDeviation="10.437335"/>
  </filter>
  <linearGradient id="linearGradient4345" x1="244.82" x2="346.25" y1="244.82" y2="143.39" gradientUnits="userSpaceOnUse" spreadMethod="reflect" xlink:href="#linearGradient4339"/>
  <linearGradient id="linearGradient4353" x1="713.32" x2="758" y1="363.32" y2="318.63" gradientUnits="userSpaceOnUse" spreadMethod="reflect" xlink:href="#linearGradient4339"/>
  <linearGradient id="linearGradient4346" x1="-75.271" x2="-202.88" y1="-623.63" y2="-623.63" gradientUnits="userSpaceOnUse">
   <stop id="stop4342" offset="0"/>
   <stop id="stop4344" style="stop-opacity:0" offset="1"/>
  </linearGradient>
  <linearGradient id="linearGradient4244" x1="256" x2="256" y2="476" gradientTransform="matrix(1 0 0 1.0756 0 -494)" gradientUnits="userSpaceOnUse">
   <stop id="stop3808-0-6" style="stop-color:#896aac" offset="0"/>
   <stop id="stop3810-4-7" style="stop-color:#3b3474" offset="1"/>
  </linearGradient>
 </defs>
 <metadata id="metadata3341">
  <rdf:RDF>
   <cc:Work rdf:about="">
    <dc:format>image/svg+xml</dc:format>
    <dc:type rdf:resource="http://purl.org/dc/dcmitype/StillImage"/>
    <dc:title/>
   </cc:Work>
  </rdf:RDF>
 </metadata>
 <g id="layer1" transform="translate(0,18)">
  <rect id="rect4235" transform="scale(1,-1)" y="-494" width="512" height="512" style="color:#000000;fill:url(#linearGradient4244);stroke-width:10"/>
  <path id="path4305" d="m512 494-512-512v512z" style="color:#000000;fill:#fff;opacity:.03;stroke-dashoffset:1;stroke-width:2"/>
 </g>
 <g id="layer4">
  <path id="path4288" d="m267.88 122c-41.671 0-77.067 25.712-93.892 62.225-39.135 2.8506-69.983 36.662-69.983 77.583 0 42.757 33.577 78.059 75.208 78.059h171.32c31.838 0 57.475-27.008 57.475-59.533 0-24.677-14.855-45.509-35.942-54.467-2.6028-57.442-47.908-103.87-104.18-103.87z" style="color:#000000;filter:url(#filter4330);opacity:.1;stroke-width:4"/>
  <path id="path4334" d="m267.88 122c-41.671 0-77.067 25.712-93.892 62.225-39.135 2.8506-69.983 36.662-69.983 77.583 0 42.757 33.577 78.059 75.208 78.059h171.32c31.838 0 57.475-27.008 57.475-59.533 0-24.677-14.855-45.509-35.942-54.467-2.6028-57.442-47.908-103.87-104.18-103.87z" style="color:#000000;fill:url(#linearGradient4345);filter:url(#filter4336);opacity:.4;stroke-width:4"/>
  <path id="path4233" d="m267.88 120c-41.671 0-77.067 25.712-93.892 62.225-39.135 2.8506-69.983 36.662-69.983 77.583 0 42.757 33.577 78.059 75.208 78.059h171.32c31.838 0 57.475-27.008 57.475-59.533 0-24.677-14.855-45.509-35.942-54.467-2.6028-57.442-47.908-103.87-104.18-103.87z" style="color:#000000;fill:url(#linearGradient4242);stroke-width:4"/>
  <path id="path812" d="m-208.32 605.62c-7.8421 0-14.554 5.0292-17.318 12.187-0.0612-6.7e-4 -0.12078 0-0.18229 0-7.0877 0-12.833 6.0022-12.833 13.406 0 7.4041 5.7457 13.406 12.833 13.406h33.833c5.1547 0 9.3333-4.3653 9.3333-9.7501 0-4.5434-2.9741-8.3631-7-9.4452 1e-3 -0.10288 0-0.20153 0-0.30467 0-10.77-8.3574-19.5-18.667-19.5z" style="color:#000000;display:none;fill:#fff;stroke-width:4;stroke:#ccc"/>
  <path id="path4340" d="m288.87 828.08c-6.3492 0-11.783 4.0718-14.021 9.8674-0.0496-5.5e-4 -0.0978 0-0.14759 0-5.7384 0-10.39 4.8596-10.39 10.854 0 5.9946 4.6519 10.854 10.39 10.854h27.393c4.1734 0 7.5566-3.5343 7.5566-7.894 0-3.6784-2.4079-6.7711-5.6674-7.6472 1e-3 -0.0833 0-0.16316 0-0.24667 0-8.7194-6.7664-15.788-15.113-15.788z" style="color:#000000;display:none;fill:none;stroke-width:4;stroke:#ccc"/>
  <path id="path4330" d="m736.16 1098.4c-9.1783 0-17.034 5.8861-20.268 14.264-0.0716-8e-4 -0.14136 0-0.21335 0-8.2953 0-15.02 7.0249-15.02 15.69 0 8.6656 6.7246 15.69 15.02 15.69h39.598c6.0329 0 10.924-5.109 10.924-11.411 0-5.3174-3.4808-9.7881-8.1927-11.054 2e-3 -0.1205 0-0.2359 0-0.3566 0-12.605-9.7813-22.822-21.847-22.822z" style="color:#000000;display:none;fill:none;stroke-width:4;stroke:#ccc"/>
  <path id="path4398" transform="translate(0,18)" d="m267.88 102c-41.671 0-77.068 25.711-93.893 62.225-39.135 2.8506-69.982 36.663-69.982 77.584 0 0.32879 0.0195 0.65258 0.0234 0.98047 0.50946-40.46 31.151-73.738 69.959-76.564 16.824-36.513 52.222-62.225 93.893-62.225 56.275 0 101.58 46.425 104.18 103.87 20.761 8.8194 35.471 29.153 35.92 53.332 4e-3 -0.28923 0.0215-0.57511 0.0215-0.86524 0-24.677-14.855-45.509-35.941-54.467-2.6029-57.442-47.909-103.87-104.18-103.87z" style="color:#000000;fill:#fff;stroke-width:4"/>
  <path id="path4299" d="m182.14 181.77a78.041 78.041 0 0 0-78.041 78.041 78.041 78.041 0 0 0 78.041 78.041 78.041 78.041 0 0 0 44.793-14.252c-19.418-13.891-32.086-36.613-32.086-62.309 2.3e-4 -26.604 13.574-50.03 34.166-63.756a78.041 78.041 0 0 0-46.873-15.766z" style="color:#000000;fill:url(#linearGradient4310);opacity:.8;stroke-width:12"/>
  <path id="path4286" d="m271.42 184.71c-42.292-7.3e-4 -76.578 34.284-76.578 76.576-7.3e-4 42.293 34.285 76.579 76.578 76.578h77.041c32.88 3e-4 59.535-26.655 59.535-59.535 3e-4 -32.88-26.655-59.535-59.535-59.535-4.1871 0.0245-8.3599 0.49058-12.449 1.3906-14.051-22.088-38.413-35.468-64.592-35.475z" style="color:#000000;fill:url(#linearGradient4297);opacity:.8;stroke-width:12"/>
  <g id="g4342" transform="translate(-350)" clip-path="url(#clipPath4348)" style="fill:url(#linearGradient4353);filter:url(#filter4352);opacity:.2">
   <g id="g4312" transform="matrix(1.1704 0 0 1.1704 790.76 1082.5)" style="fill:url(#linearGradient4353)">
    <path id="path4314" d="m-113.94-702.8c32.215 0 58.603 26.065 58.603 58.105 0 32.039-26.388 58.096-58.603 58.096h-49.957c-21.618 0-39.387-17.615-39.387-39.201 0-20.131 15.338-37.164 35.224-39.454 8.4844-21.833 29.281-37.546 54.12-37.546z" style="color:#000000;fill:url(#linearGradient4346);stroke-width:4"/>
    <g id="g4316" style="display:none;fill:url(#linearGradient4353)">
     <path id="path4318" d="m47.333 17c-7.8421 0-14.554 5.0292-17.318 12.187-0.0612-6.73e-4 -0.12078 0-0.18229 0-7.0877 0-12.833 6.0022-12.833 13.406 0 7.4041 5.7457 13.406 12.833 13.406h33.833c5.1547 0 9.3333-4.3653 9.3333-9.7501 0-4.5434-2.9741-8.3631-7-9.4453 0.0013-0.10288 0-0.20152 0-0.30467 0-10.77-8.3574-19.5-18.667-19.5z" style="color:#000000;fill:url(#linearGradient4353);stroke-width:3.4177;stroke:#ccc"/>
    </g>
   </g>
  </g>
  <g id="g4262" transform="matrix(1.1704 0 0 1.1704 440.76 1078.5)">
   <path id="path4294" d="m-113.94-702.8c32.215 0 58.603 26.065 58.603 58.105 0 32.039-26.388 58.096-58.603 58.096h-49.957c-21.618 0-39.387-17.615-39.387-39.201 0-20.131 15.338-37.164 35.224-39.454 8.4844-21.833 29.281-37.546 54.12-37.546z" style="color:#000000;fill:url(#linearGradient4302);stroke-width:4"/>
   <g id="layer2" style="display:none">
    <path id="path812-2" d="m47.333 17c-7.8421 0-14.554 5.0292-17.318 12.187-0.0612-6.73e-4 -0.12078 0-0.18229 0-7.0877 0-12.833 6.0022-12.833 13.406 0 7.4041 5.7457 13.406 12.833 13.406h33.833c5.1547 0 9.3333-4.3653 9.3333-9.7501 0-4.5434-2.9741-8.3631-7-9.4453 0.0013-0.10288 0-0.20152 0-0.30467 0-10.77-8.3574-19.5-18.667-19.5z" style="color:#000000;fill:none;stroke-width:3.4177;stroke:#ccc"/>
   </g>
  </g>
 </g>
</svg>
