<?xml version="1.0" encoding="UTF-8"?>
<!-- Created with Inkscape (http://www.inkscape.org/) -->
<svg id="svg3140" width="90" height="90" version="1.1" xmlns="http://www.w3.org/2000/svg" xmlns:cc="http://creativecommons.org/ns#" xmlns:dc="http://purl.org/dc/elements/1.1/" xmlns:rdf="http://www.w3.org/1999/02/22-rdf-syntax-ns#">
 <metadata id="metadata3145">
  <rdf:RDF>
   <cc:Work rdf:about="">
    <dc:format>image/svg+xml</dc:format>
    <dc:type rdf:resource="http://purl.org/dc/dcmitype/StillImage"/>
    <dc:title/>
   </cc:Work>
  </rdf:RDF>
 </metadata>
 <g id="layer1" transform="translate(0 -962.36)">
  <rect id="rect4198" y="962.36" width="90" height="90" style="color:#000000;fill:none"/>
  <g id="g4978" transform="translate(-60 548)">
   <path id="path3759" d="m84 456.36v30c0 18 3 18 30 18h6c27 0 30 0 30-18v-30c0-18-3-18-30-18h-6c-27 0-30 0-30 18zm30-12h6c24 0 24 0 24 12v21c0 12 0 12-24 12h-6c-24 0-24 0-24-12v-21c0-12 0-12 24-12z" style="fill:#808080"/>
   <path id="path4072" d="m96 477.91v-11.636l10.5-10.909 13.125 13.636 5.25-5.4545 13.125 13.636v0.72727c0 5.4546-0.875 5.4546-10.5 5.4546h-21c-9.625 0-10.5 0-10.5-5.4546z" style="fill:#808080"/>
   <path id="path3011" transform="matrix(1.3333 0 0 1.3333 34 410.36)" d="m78 34.5a4.5 4.5 0 1 1-9 0 4.5 4.5 0 1 1 9 0z" style="color:#000000;fill:#808080"/>
   <path id="path3015" transform="translate(60 414.36)" d="m42 12c-27 0-30 0-30 18v30c0 9.7578 0.8913 14.235 6 16.281v-25.281-15-6c0-10.866 0.18061-11.872 18-11.969v-0.03125h6 6 28.531c-2.6456-5.9977-9.8129-6-28.531-6h-6z" style="fill:#808080"/>
   <path id="path3023" d="m90 414.36c-27 0-30 0-30 18v30c0 9.7578 0.8913 14.235 6 16.281v-25.281-15-6c0-10.866 0.18061-11.872 18-11.969v-0.0312h6 6 28.531c-2.6456-5.9977-9.8129-6-28.531-6h-6z" style="fill:#808080"/>
  </g>
 </g>
</svg>
